{
  "header": {
    "keySignatures": [],
    "meta": [
      {
        "text": "Oops 7!!",
        "ticks": 0,
        "type": "text"
      }
    ],
    "name": "Lovers",
    "ppq": 256,
    "tempos": [
      {
        "bpm": 160,
        "ticks": 0
      },
      {
        "bpm": 160,
        "ticks": 11264
      },
      {
        "bpm": 160,
        "ticks": 12544
      },
      {
        "bpm": 160,
        "ticks": 32000
      },
      {
        "bpm": 160,
        "ticks": 33536
      },
      {
        "bpm": 80,
        "ticks": 62720
      }
    ],
    "timeSignatures": [
      {
        "ticks": 11264,
        "timeSignature": [
          5,
          4
        ],
        "measures": 0
      },
      {
        "ticks": 11264,
        "timeSignature": [
          5,
          4
        ],
        "measures": 0
      },
      {
        "ticks": 12544,
        "timeSignature": [
          4,
          4
        ],
        "measures": 1
      },
      {
        "ticks": 12544,
        "timeSignature": [
          4,
          4
        ],
        "measures": 1
      },
      {
        "ticks": 32000,
        "timeSignature": [
          6,
          4
        ],
        "measures": 20
      },
      {
        "ticks": 32000,
        "timeSignature": [
          6,
          4
        ],
        "measures": 20
      },
      {
        "ticks": 33536,
        "timeSignature": [
          4,
          4
        ],
        "measures": 21
      },
      {
        "ticks": 33536,
        "timeSignature": [
          4,
          4
        ],
        "measures": 21
      },
      {
        "ticks": 64256,
        "timeSignature": [
          17,
          16
        ],
        "measures": 51
      },
      {
        "ticks": 65344,
        "timeSignature": [
          4,
          4
        ],
        "measures": 51.0625
      }
    ]
  },
  "tracks": [
    {
      "channel": 0,
      "controlChanges": {
        "0": [
          {
            "number": 0,
            "ticks": 0,
            "time": 0,
            "value": 0.952755905511811
          }
        ],
        "7": [
          {
            "number": 7,
            "ticks": 0,
            "time": 0,
            "value": 0.8582677165354331
          }
        ],
        "10": [
          {
            "number": 10,
            "ticks": 0,
            "time": 0,
            "value": 0.4015748031496063
          }
        ],
        "32": [
          {
            "number": 32,
            "ticks": 0,
            "time": 0,
            "value": 0
          }
        ],
        "64": [
          {
            "number": 64,
            "ticks": 0,
            "time": 0,
            "value": 0
          },
          {
            "number": 64,
            "ticks": 28928,
            "time": 42.375,
            "value": 1
          },
          {
            "number": 64,
            "ticks": 31999,
            "time": 46.87353515625,
            "value": 0
          }
        ],
        "91": [
          {
            "number": 91,
            "ticks": 0,
            "time": 0,
            "value": 0.3779527559055118
          }
        ],
        "121": [
          {
            "number": 121,
            "ticks": 0,
            "time": 0,
            "value": 0
          }
        ]
      },
      "pitchBends": [],
      "instrument": {
        "family": "piano",
        "number": 0,
        "name": "acoustic grand piano"
      },
      "name": "Lovers",
      "notes": [
        {
          "duration": 0.1875,
          "durationTicks": 128,
          "midi": 58,
          "name": "A#3",
          "ticks": 0,
          "time": 0,
          "velocity": 0.5039370078740157
        },
        {
          "duration": 0.1875,
          "durationTicks": 128,
          "midi": 64,
          "name": "E4",
          "ticks": 0,
          "time": 0,
          "velocity": 0.5039370078740157
        },
        {
          "duration": 0.1875,
          "durationTicks": 128,
          "midi": 69,
          "name": "A4",
          "ticks": 0,
          "time": 0,
          "velocity": 0.5039370078740157
        },
        {
          "duration": 0.1875,
          "durationTicks": 128,
          "midi": 57,
          "name": "A3",
          "ticks": 384,
          "time": 0.5625,
          "velocity": 0.5354330708661418
        },
        {
          "duration": 0.1875,
          "durationTicks": 128,
          "midi": 63,
          "name": "D#4",
          "ticks": 384,
          "time": 0.5625,
          "velocity": 0.5354330708661418
        },
        {
          "duration": 0.1875,
          "durationTicks": 128,
          "midi": 68,
          "name": "G#4",
          "ticks": 384,
          "time": 0.5625,
          "velocity": 0.5354330708661418
        },
        {
          "duration": 0.1875,
          "durationTicks": 128,
          "midi": 56,
          "name": "G#3",
          "ticks": 768,
          "time": 1.125,
          "velocity": 0.5275590551181102
        },
        {
          "duration": 0.1875,
          "durationTicks": 128,
          "midi": 62,
          "name": "D4",
          "ticks": 768,
          "time": 1.125,
          "velocity": 0.5275590551181102
        },
        {
          "duration": 0.1875,
          "durationTicks": 128,
          "midi": 67,
          "name": "G4",
          "ticks": 768,
          "time": 1.125,
          "velocity": 0.5275590551181102
        },
        {
          "duration": 0.5625,
          "durationTicks": 384,
          "midi": 58,
          "name": "A#3",
          "ticks": 1024,
          "time": 1.5,
          "velocity": 0.5196850393700787
        },
        {
          "duration": 0.5625,
          "durationTicks": 384,
          "midi": 63,
          "name": "D#4",
          "ticks": 1024,
          "time": 1.5,
          "velocity": 0.5196850393700787
        },
        {
          "duration": 0.5625,
          "durationTicks": 384,
          "midi": 58,
          "name": "A#3",
          "ticks": 1408,
          "time": 2.0625,
          "velocity": 0.6141732283464567
        },
        {
          "duration": 0.5625,
          "durationTicks": 384,
          "midi": 63,
          "name": "D#4",
          "ticks": 1408,
          "time": 2.0625,
          "velocity": 0.6141732283464567
        },
        {
          "duration": 0.09375,
          "durationTicks": 64,
          "midi": 75,
          "name": "D#5",
          "ticks": 1792,
          "time": 2.625,
          "velocity": 0.7559055118110236
        },
        {
          "duration": 0.09375,
          "durationTicks": 64,
          "midi": 83,
          "name": "B5",
          "ticks": 1792,
          "time": 2.625,
          "velocity": 0.7559055118110236
        },
        {
          "duration": 0.09375,
          "durationTicks": 64,
          "midi": 75,
          "name": "D#5",
          "ticks": 1856,
          "time": 2.71875,
          "velocity": 0.6535433070866141
        },
        {
          "duration": 0.09375,
          "durationTicks": 64,
          "midi": 83,
          "name": "B5",
          "ticks": 1856,
          "time": 2.71875,
          "velocity": 0.6535433070866141
        },
        {
          "duration": 0.09375,
          "durationTicks": 64,
          "midi": 75,
          "name": "D#5",
          "ticks": 1920,
          "time": 2.8125,
          "velocity": 0.5118110236220472
        },
        {
          "duration": 0.09375,
          "durationTicks": 64,
          "midi": 78,
          "name": "F#5",
          "ticks": 1920,
          "time": 2.8125,
          "velocity": 0.5118110236220472
        },
        {
          "duration": 0.09375,
          "durationTicks": 64,
          "midi": 75,
          "name": "D#5",
          "ticks": 1984,
          "time": 2.90625,
          "velocity": 0.5748031496062992
        },
        {
          "duration": 0.09375,
          "durationTicks": 64,
          "midi": 78,
          "name": "F#5",
          "ticks": 1984,
          "time": 2.90625,
          "velocity": 0.5748031496062992
        },
        {
          "duration": 0.5625,
          "durationTicks": 384,
          "midi": 71,
          "name": "B4",
          "ticks": 2048,
          "time": 3,
          "velocity": 0.6771653543307087
        },
        {
          "duration": 0.5625,
          "durationTicks": 384,
          "midi": 76,
          "name": "E5",
          "ticks": 2048,
          "time": 3,
          "velocity": 0.6771653543307087
        },
        {
          "duration": 0.5625,
          "durationTicks": 384,
          "midi": 80,
          "name": "G#5",
          "ticks": 2048,
          "time": 3,
          "velocity": 0.6771653543307087
        },
        {
          "duration": 0.1875,
          "durationTicks": 128,
          "midi": 76,
          "name": "E5",
          "ticks": 2432,
          "time": 3.5625,
          "velocity": 0.6614173228346457
        },
        {
          "duration": 0.1875,
          "durationTicks": 128,
          "midi": 80,
          "name": "G#5",
          "ticks": 2432,
          "time": 3.5625,
          "velocity": 0.6614173228346457
        },
        {
          "duration": 0.5625,
          "durationTicks": 384,
          "midi": 70,
          "name": "A#4",
          "ticks": 2560,
          "time": 3.75,
          "velocity": 0.6535433070866141
        },
        {
          "duration": 0.1875,
          "durationTicks": 128,
          "midi": 78,
          "name": "F#5",
          "ticks": 2560,
          "time": 3.75,
          "velocity": 0.6535433070866141
        },
        {
          "duration": 0.1875,
          "durationTicks": 128,
          "midi": 78,
          "name": "F#5",
          "ticks": 2688,
          "time": 3.9375,
          "velocity": 0.6377952755905512
        },
        {
          "duration": 0.1875,
          "durationTicks": 128,
          "midi": 78,
          "name": "F#5",
          "ticks": 2816,
          "time": 4.125,
          "velocity": 0.6771653543307087
        },
        {
          "duration": 0.375,
          "durationTicks": 256,
          "midi": 66,
          "name": "F#4",
          "ticks": 2944,
          "time": 4.3125,
          "velocity": 0.5905511811023622
        },
        {
          "duration": 0.375,
          "durationTicks": 256,
          "midi": 71,
          "name": "B4",
          "ticks": 2944,
          "time": 4.3125,
          "velocity": 0.5905511811023622
        },
        {
          "duration": 0.375,
          "durationTicks": 256,
          "midi": 75,
          "name": "D#5",
          "ticks": 2944,
          "time": 4.3125,
          "velocity": 0.5905511811023622
        },
        {
          "duration": 0.9375,
          "durationTicks": 640,
          "midi": 71,
          "name": "B4",
          "ticks": 3200,
          "time": 4.6875,
          "velocity": 0.7165354330708661
        },
        {
          "duration": 0.9375,
          "durationTicks": 640,
          "midi": 75,
          "name": "D#5",
          "ticks": 3200,
          "time": 4.6875,
          "velocity": 0.7165354330708661
        },
        {
          "duration": 0.9375,
          "durationTicks": 640,
          "midi": 78,
          "name": "F#5",
          "ticks": 3200,
          "time": 4.6875,
          "velocity": 0.7165354330708661
        },
        {
          "duration": 0.09375,
          "durationTicks": 64,
          "midi": 75,
          "name": "D#5",
          "ticks": 3840,
          "time": 5.625,
          "velocity": 0.8031496062992126
        },
        {
          "duration": 0.09375,
          "durationTicks": 64,
          "midi": 83,
          "name": "B5",
          "ticks": 3840,
          "time": 5.625,
          "velocity": 0.8031496062992126
        },
        {
          "duration": 0.09375,
          "durationTicks": 64,
          "midi": 75,
          "name": "D#5",
          "ticks": 3904,
          "time": 5.71875,
          "velocity": 0.6614173228346457
        },
        {
          "duration": 0.09375,
          "durationTicks": 64,
          "midi": 83,
          "name": "B5",
          "ticks": 3904,
          "time": 5.71875,
          "velocity": 0.6614173228346457
        },
        {
          "duration": 0.09375,
          "durationTicks": 64,
          "midi": 75,
          "name": "D#5",
          "ticks": 3968,
          "time": 5.8125,
          "velocity": 0.5669291338582677
        },
        {
          "duration": 0.09375,
          "durationTicks": 64,
          "midi": 78,
          "name": "F#5",
          "ticks": 3968,
          "time": 5.8125,
          "velocity": 0.5669291338582677
        },
        {
          "duration": 0.09375,
          "durationTicks": 64,
          "midi": 75,
          "name": "D#5",
          "ticks": 4032,
          "time": 5.90625,
          "velocity": 0.6692913385826772
        },
        {
          "duration": 0.09375,
          "durationTicks": 64,
          "midi": 78,
          "name": "F#5",
          "ticks": 4032,
          "time": 5.90625,
          "velocity": 0.6692913385826772
        },
        {
          "duration": 0.5625,
          "durationTicks": 384,
          "midi": 71,
          "name": "B4",
          "ticks": 4096,
          "time": 6,
          "velocity": 0.7007874015748031
        },
        {
          "duration": 0.5625,
          "durationTicks": 384,
          "midi": 76,
          "name": "E5",
          "ticks": 4096,
          "time": 6,
          "velocity": 0.7007874015748031
        },
        {
          "duration": 0.5625,
          "durationTicks": 384,
          "midi": 80,
          "name": "G#5",
          "ticks": 4096,
          "time": 6,
          "velocity": 0.7007874015748031
        },
        {
          "duration": 0.1875,
          "durationTicks": 128,
          "midi": 76,
          "name": "E5",
          "ticks": 4480,
          "time": 6.5625,
          "velocity": 0.6535433070866141
        },
        {
          "duration": 0.1875,
          "durationTicks": 128,
          "midi": 80,
          "name": "G#5",
          "ticks": 4480,
          "time": 6.5625,
          "velocity": 0.6535433070866141
        },
        {
          "duration": 0.1875,
          "durationTicks": 128,
          "midi": 70,
          "name": "A#4",
          "ticks": 4608,
          "time": 6.75,
          "velocity": 0.6220472440944882
        },
        {
          "duration": 0.1875,
          "durationTicks": 128,
          "midi": 78,
          "name": "F#5",
          "ticks": 4608,
          "time": 6.75,
          "velocity": 0.6220472440944882
        },
        {
          "duration": 0.1875,
          "durationTicks": 128,
          "midi": 70,
          "name": "A#4",
          "ticks": 4736,
          "time": 6.9375,
          "velocity": 0.7007874015748031
        },
        {
          "duration": 0.1875,
          "durationTicks": 128,
          "midi": 80,
          "name": "G#5",
          "ticks": 4736,
          "time": 6.9375,
          "velocity": 0.7007874015748031
        },
        {
          "duration": 0.1875,
          "durationTicks": 128,
          "midi": 70,
          "name": "A#4",
          "ticks": 4864,
          "time": 7.125,
          "velocity": 0.6220472440944882
        },
        {
          "duration": 0.1875,
          "durationTicks": 128,
          "midi": 78,
          "name": "F#5",
          "ticks": 4864,
          "time": 7.125,
          "velocity": 0.6220472440944882
        },
        {
          "duration": 0.1875,
          "durationTicks": 128,
          "midi": 66,
          "name": "F#4",
          "ticks": 4992,
          "time": 7.3125,
          "velocity": 0.5826771653543307
        },
        {
          "duration": 0.1875,
          "durationTicks": 128,
          "midi": 71,
          "name": "B4",
          "ticks": 4992,
          "time": 7.3125,
          "velocity": 0.5826771653543307
        },
        {
          "duration": 0.1875,
          "durationTicks": 128,
          "midi": 75,
          "name": "D#5",
          "ticks": 4992,
          "time": 7.3125,
          "velocity": 0.5826771653543307
        },
        {
          "duration": 0.1875,
          "durationTicks": 128,
          "midi": 63,
          "name": "D#4",
          "ticks": 5120,
          "time": 7.5,
          "velocity": 0.5669291338582677
        },
        {
          "duration": 0.1875,
          "durationTicks": 128,
          "midi": 66,
          "name": "F#4",
          "ticks": 5120,
          "time": 7.5,
          "velocity": 0.5669291338582677
        },
        {
          "duration": 0.1875,
          "durationTicks": 128,
          "midi": 71,
          "name": "B4",
          "ticks": 5120,
          "time": 7.5,
          "velocity": 0.5669291338582677
        },
        {
          "duration": 0.1875,
          "durationTicks": 128,
          "midi": 61,
          "name": "C#4",
          "ticks": 5376,
          "time": 7.875,
          "velocity": 0.6062992125984252
        },
        {
          "duration": 0.1875,
          "durationTicks": 128,
          "midi": 64,
          "name": "E4",
          "ticks": 5376,
          "time": 7.875,
          "velocity": 0.6062992125984252
        },
        {
          "duration": 0.1875,
          "durationTicks": 128,
          "midi": 70,
          "name": "A#4",
          "ticks": 5376,
          "time": 7.875,
          "velocity": 0.6062992125984252
        },
        {
          "duration": 0.1875,
          "durationTicks": 128,
          "midi": 59,
          "name": "B3",
          "ticks": 5632,
          "time": 8.25,
          "velocity": 0.6377952755905512
        },
        {
          "duration": 0.1875,
          "durationTicks": 128,
          "midi": 63,
          "name": "D#4",
          "ticks": 5632,
          "time": 8.25,
          "velocity": 0.6377952755905512
        },
        {
          "duration": 0.1875,
          "durationTicks": 128,
          "midi": 66,
          "name": "F#4",
          "ticks": 5632,
          "time": 8.25,
          "velocity": 0.6377952755905512
        },
        {
          "duration": 0.09375,
          "durationTicks": 64,
          "midi": 75,
          "name": "D#5",
          "ticks": 5888,
          "time": 8.625,
          "velocity": 0.6299212598425197
        },
        {
          "duration": 0.09375,
          "durationTicks": 64,
          "midi": 83,
          "name": "B5",
          "ticks": 5888,
          "time": 8.625,
          "velocity": 0.6299212598425197
        },
        {
          "duration": 0.09375,
          "durationTicks": 64,
          "midi": 75,
          "name": "D#5",
          "ticks": 5952,
          "time": 8.71875,
          "velocity": 0.6299212598425197
        },
        {
          "duration": 0.09375,
          "durationTicks": 64,
          "midi": 83,
          "name": "B5",
          "ticks": 5952,
          "time": 8.71875,
          "velocity": 0.6299212598425197
        },
        {
          "duration": 0.09375,
          "durationTicks": 64,
          "midi": 75,
          "name": "D#5",
          "ticks": 6016,
          "time": 8.8125,
          "velocity": 0.5590551181102362
        },
        {
          "duration": 0.09375,
          "durationTicks": 64,
          "midi": 78,
          "name": "F#5",
          "ticks": 6016,
          "time": 8.8125,
          "velocity": 0.5590551181102362
        },
        {
          "duration": 0.09375,
          "durationTicks": 64,
          "midi": 75,
          "name": "D#5",
          "ticks": 6080,
          "time": 8.90625,
          "velocity": 0.6535433070866141
        },
        {
          "duration": 0.09375,
          "durationTicks": 64,
          "midi": 78,
          "name": "F#5",
          "ticks": 6080,
          "time": 8.90625,
          "velocity": 0.6535433070866141
        },
        {
          "duration": 0.375,
          "durationTicks": 256,
          "midi": 71,
          "name": "B4",
          "ticks": 6144,
          "time": 9,
          "velocity": 0.6929133858267716
        },
        {
          "duration": 0.375,
          "durationTicks": 256,
          "midi": 76,
          "name": "E5",
          "ticks": 6144,
          "time": 9,
          "velocity": 0.6929133858267716
        },
        {
          "duration": 0.375,
          "durationTicks": 256,
          "midi": 80,
          "name": "G#5",
          "ticks": 6144,
          "time": 9,
          "velocity": 0.6929133858267716
        },
        {
          "duration": 0.375,
          "durationTicks": 256,
          "midi": 71,
          "name": "B4",
          "ticks": 6400,
          "time": 9.375,
          "velocity": 0.6771653543307087
        },
        {
          "duration": 0.1875,
          "durationTicks": 128,
          "midi": 76,
          "name": "E5",
          "ticks": 6400,
          "time": 9.375,
          "velocity": 0.6771653543307087
        },
        {
          "duration": 0.1875,
          "durationTicks": 128,
          "midi": 80,
          "name": "G#5",
          "ticks": 6400,
          "time": 9.375,
          "velocity": 0.6771653543307087
        },
        {
          "duration": 0.1875,
          "durationTicks": 128,
          "midi": 76,
          "name": "E5",
          "ticks": 6528,
          "time": 9.5625,
          "velocity": 0.6771653543307087
        },
        {
          "duration": 0.1875,
          "durationTicks": 128,
          "midi": 80,
          "name": "G#5",
          "ticks": 6528,
          "time": 9.5625,
          "velocity": 0.6771653543307087
        },
        {
          "duration": 0.375,
          "durationTicks": 256,
          "midi": 73,
          "name": "C#5",
          "ticks": 6656,
          "time": 9.75,
          "velocity": 0.7007874015748031
        },
        {
          "duration": 0.375,
          "durationTicks": 256,
          "midi": 82,
          "name": "A#5",
          "ticks": 6656,
          "time": 9.75,
          "velocity": 0.7007874015748031
        },
        {
          "duration": 0.1875,
          "durationTicks": 128,
          "midi": 73,
          "name": "C#5",
          "ticks": 6912,
          "time": 10.125,
          "velocity": 0.6692913385826772
        },
        {
          "duration": 0.1875,
          "durationTicks": 128,
          "midi": 82,
          "name": "A#5",
          "ticks": 6912,
          "time": 10.125,
          "velocity": 0.6692913385826772
        },
        {
          "duration": 0.1875,
          "durationTicks": 128,
          "midi": 75,
          "name": "D#5",
          "ticks": 7040,
          "time": 10.3125,
          "velocity": 0.6771653543307087
        },
        {
          "duration": 0.1875,
          "durationTicks": 128,
          "midi": 78,
          "name": "F#5",
          "ticks": 7040,
          "time": 10.3125,
          "velocity": 0.6771653543307087
        },
        {
          "duration": 0.375,
          "durationTicks": 256,
          "midi": 87,
          "name": "D#6",
          "ticks": 7040,
          "time": 10.3125,
          "velocity": 0.6771653543307087
        },
        {
          "duration": 0.1875,
          "durationTicks": 128,
          "midi": 79,
          "name": "G5",
          "ticks": 7168,
          "time": 10.5,
          "velocity": 0.7086614173228346
        },
        {
          "duration": 0.1875,
          "durationTicks": 128,
          "midi": 79,
          "name": "G5",
          "ticks": 7296,
          "time": 10.6875,
          "velocity": 0.6220472440944882
        },
        {
          "duration": 0.1875,
          "durationTicks": 128,
          "midi": 85,
          "name": "C#6",
          "ticks": 7296,
          "time": 10.6875,
          "velocity": 0.6220472440944882
        },
        {
          "duration": 0.1875,
          "durationTicks": 128,
          "midi": 79,
          "name": "G5",
          "ticks": 7424,
          "time": 10.875,
          "velocity": 0.5984251968503937
        },
        {
          "duration": 0.1875,
          "durationTicks": 128,
          "midi": 83,
          "name": "B5",
          "ticks": 7424,
          "time": 10.875,
          "velocity": 0.5984251968503937
        },
        {
          "duration": 0.1875,
          "durationTicks": 128,
          "midi": 82,
          "name": "A#5",
          "ticks": 7552,
          "time": 11.0625,
          "velocity": 0.6614173228346457
        },
        {
          "duration": 0.1875,
          "durationTicks": 128,
          "midi": 71,
          "name": "B4",
          "ticks": 7680,
          "time": 11.25,
          "velocity": 0.7007874015748031
        },
        {
          "duration": 0.1875,
          "durationTicks": 128,
          "midi": 83,
          "name": "B5",
          "ticks": 7680,
          "time": 11.25,
          "velocity": 0.7007874015748031
        },
        {
          "duration": 0.1875,
          "durationTicks": 128,
          "midi": 66,
          "name": "F#4",
          "ticks": 7808,
          "time": 11.4375,
          "velocity": 0.49606299212598426
        },
        {
          "duration": 0.1875,
          "durationTicks": 128,
          "midi": 68,
          "name": "G#4",
          "ticks": 7936,
          "time": 11.625,
          "velocity": 0.6692913385826772
        },
        {
          "duration": 0.1875,
          "durationTicks": 128,
          "midi": 75,
          "name": "D#5",
          "ticks": 8064,
          "time": 11.8125,
          "velocity": 0.7716535433070866
        },
        {
          "duration": 1.5,
          "durationTicks": 1024,
          "midi": 73,
          "name": "C#5",
          "ticks": 8192,
          "time": 12,
          "velocity": 0.8031496062992126
        },
        {
          "duration": 1.5,
          "durationTicks": 1024,
          "midi": 78,
          "name": "F#5",
          "ticks": 8192,
          "time": 12,
          "velocity": 0.8031496062992126
        },
        {
          "duration": 1.5,
          "durationTicks": 1024,
          "midi": 85,
          "name": "C#6",
          "ticks": 8192,
          "time": 12,
          "velocity": 0.8031496062992126
        },
        {
          "duration": 0.375,
          "durationTicks": 256,
          "midi": 70,
          "name": "A#4",
          "ticks": 9216,
          "time": 13.5,
          "velocity": 0.6535433070866141
        },
        {
          "duration": 0.375,
          "durationTicks": 256,
          "midi": 73,
          "name": "C#5",
          "ticks": 9216,
          "time": 13.5,
          "velocity": 0.6535433070866141
        },
        {
          "duration": 0.375,
          "durationTicks": 256,
          "midi": 78,
          "name": "F#5",
          "ticks": 9216,
          "time": 13.5,
          "velocity": 0.6535433070866141
        },
        {
          "duration": 0.375,
          "durationTicks": 256,
          "midi": 82,
          "name": "A#5",
          "ticks": 9216,
          "time": 13.5,
          "velocity": 0.6535433070866141
        },
        {
          "duration": 0.09375,
          "durationTicks": 64,
          "midi": 90,
          "name": "F#6",
          "ticks": 9472,
          "time": 13.875,
          "velocity": 0.7637795275590551
        },
        {
          "duration": 0.09375,
          "durationTicks": 64,
          "midi": 85,
          "name": "C#6",
          "ticks": 9536,
          "time": 13.96875,
          "velocity": 0.6062992125984252
        },
        {
          "duration": 0.09375,
          "durationTicks": 64,
          "midi": 82,
          "name": "A#5",
          "ticks": 9600,
          "time": 14.0625,
          "velocity": 0.5826771653543307
        },
        {
          "duration": 0.09375,
          "durationTicks": 64,
          "midi": 78,
          "name": "F#5",
          "ticks": 9664,
          "time": 14.15625,
          "velocity": 0.5748031496062992
        },
        {
          "duration": 0.09375,
          "durationTicks": 64,
          "midi": 85,
          "name": "C#6",
          "ticks": 9728,
          "time": 14.25,
          "velocity": 0.7559055118110236
        },
        {
          "duration": 0.09375,
          "durationTicks": 64,
          "midi": 82,
          "name": "A#5",
          "ticks": 9792,
          "time": 14.34375,
          "velocity": 0.6456692913385826
        },
        {
          "duration": 0.09375,
          "durationTicks": 64,
          "midi": 78,
          "name": "F#5",
          "ticks": 9856,
          "time": 14.4375,
          "velocity": 0.5669291338582677
        },
        {
          "duration": 0.09375,
          "durationTicks": 64,
          "midi": 73,
          "name": "C#5",
          "ticks": 9920,
          "time": 14.53125,
          "velocity": 0.5669291338582677
        },
        {
          "duration": 0.09375,
          "durationTicks": 64,
          "midi": 82,
          "name": "A#5",
          "ticks": 9984,
          "time": 14.625,
          "velocity": 0.7480314960629921
        },
        {
          "duration": 0.09375,
          "durationTicks": 64,
          "midi": 78,
          "name": "F#5",
          "ticks": 10048,
          "time": 14.71875,
          "velocity": 0.5748031496062992
        },
        {
          "duration": 0.09375,
          "durationTicks": 64,
          "midi": 73,
          "name": "C#5",
          "ticks": 10112,
          "time": 14.8125,
          "velocity": 0.5275590551181102
        },
        {
          "duration": 0.09375,
          "durationTicks": 64,
          "midi": 70,
          "name": "A#4",
          "ticks": 10176,
          "time": 14.90625,
          "velocity": 0.6062992125984252
        },
        {
          "duration": 0.375,
          "durationTicks": 256,
          "midi": 66,
          "name": "F#4",
          "ticks": 10240,
          "time": 15,
          "velocity": 0.7716535433070866
        },
        {
          "duration": 0.375,
          "durationTicks": 256,
          "midi": 78,
          "name": "F#5",
          "ticks": 10240,
          "time": 15,
          "velocity": 0.7716535433070866
        },
        {
          "duration": 0.375,
          "durationTicks": 256,
          "midi": 66,
          "name": "F#4",
          "ticks": 10496,
          "time": 15.375,
          "velocity": 0.5433070866141733
        },
        {
          "duration": 0.375,
          "durationTicks": 256,
          "midi": 71,
          "name": "B4",
          "ticks": 10496,
          "time": 15.375,
          "velocity": 0.5433070866141733
        },
        {
          "duration": 0.1875,
          "durationTicks": 128,
          "midi": 70,
          "name": "A#4",
          "ticks": 10752,
          "time": 15.75,
          "velocity": 0.6141732283464567
        },
        {
          "duration": 0.1875,
          "durationTicks": 128,
          "midi": 70,
          "name": "A#4",
          "ticks": 10880,
          "time": 15.9375,
          "velocity": 0.6377952755905512
        },
        {
          "duration": 0.1875,
          "durationTicks": 128,
          "midi": 71,
          "name": "B4",
          "ticks": 11008,
          "time": 16.125,
          "velocity": 0.6929133858267716
        },
        {
          "duration": 0.375,
          "durationTicks": 256,
          "midi": 66,
          "name": "F#4",
          "ticks": 11136,
          "time": 16.3125,
          "velocity": 0.7795275590551181
        },
        {
          "duration": 0.375,
          "durationTicks": 256,
          "midi": 78,
          "name": "F#5",
          "ticks": 11136,
          "time": 16.3125,
          "velocity": 0.7795275590551181
        },
        {
          "duration": 0.1875,
          "durationTicks": 128,
          "midi": 71,
          "name": "B4",
          "ticks": 11392,
          "time": 16.6875,
          "velocity": 0.7559055118110236
        },
        {
          "duration": 0.1875,
          "durationTicks": 128,
          "midi": 83,
          "name": "B5",
          "ticks": 11392,
          "time": 16.6875,
          "velocity": 0.7559055118110236
        },
        {
          "duration": 0.1875,
          "durationTicks": 128,
          "midi": 71,
          "name": "B4",
          "ticks": 11520,
          "time": 16.875,
          "velocity": 0.6771653543307087
        },
        {
          "duration": 0.1875,
          "durationTicks": 128,
          "midi": 83,
          "name": "B5",
          "ticks": 11520,
          "time": 16.875,
          "velocity": 0.6771653543307087
        },
        {
          "duration": 0.1875,
          "durationTicks": 128,
          "midi": 71,
          "name": "B4",
          "ticks": 11648,
          "time": 17.0625,
          "velocity": 0.6456692913385826
        },
        {
          "duration": 0.1875,
          "durationTicks": 128,
          "midi": 83,
          "name": "B5",
          "ticks": 11648,
          "time": 17.0625,
          "velocity": 0.6456692913385826
        },
        {
          "duration": 0.1875,
          "durationTicks": 128,
          "midi": 70,
          "name": "A#4",
          "ticks": 11776,
          "time": 17.25,
          "velocity": 0.6062992125984252
        },
        {
          "duration": 0.1875,
          "durationTicks": 128,
          "midi": 82,
          "name": "A#5",
          "ticks": 11776,
          "time": 17.25,
          "velocity": 0.6062992125984252
        },
        {
          "duration": 0.1875,
          "durationTicks": 128,
          "midi": 71,
          "name": "B4",
          "ticks": 11904,
          "time": 17.4375,
          "velocity": 0.6850393700787402
        },
        {
          "duration": 0.1875,
          "durationTicks": 128,
          "midi": 83,
          "name": "B5",
          "ticks": 11904,
          "time": 17.4375,
          "velocity": 0.6850393700787402
        },
        {
          "duration": 0.1875,
          "durationTicks": 128,
          "midi": 70,
          "name": "A#4",
          "ticks": 12032,
          "time": 17.625,
          "velocity": 0.6299212598425197
        },
        {
          "duration": 0.1875,
          "durationTicks": 128,
          "midi": 82,
          "name": "A#5",
          "ticks": 12032,
          "time": 17.625,
          "velocity": 0.6299212598425197
        },
        {
          "duration": 0.1875,
          "durationTicks": 128,
          "midi": 71,
          "name": "B4",
          "ticks": 12160,
          "time": 17.8125,
          "velocity": 0.6929133858267716
        },
        {
          "duration": 0.1875,
          "durationTicks": 128,
          "midi": 83,
          "name": "B5",
          "ticks": 12160,
          "time": 17.8125,
          "velocity": 0.6929133858267716
        },
        {
          "duration": 0.0234375,
          "durationTicks": 16,
          "midi": 95,
          "name": "B6",
          "ticks": 12288,
          "time": 18,
          "velocity": 0.8110236220472441
        },
        {
          "duration": 0.0234375,
          "durationTicks": 16,
          "midi": 93,
          "name": "A6",
          "ticks": 12297,
          "time": 18.01318359375,
          "velocity": 0.8110236220472441
        },
        {
          "duration": 0.0234375,
          "durationTicks": 16,
          "midi": 91,
          "name": "G6",
          "ticks": 12306,
          "time": 18.0263671875,
          "velocity": 0.8110236220472441
        },
        {
          "duration": 0.0234375,
          "durationTicks": 16,
          "midi": 89,
          "name": "F6",
          "ticks": 12315,
          "time": 18.03955078125,
          "velocity": 0.8110236220472441
        },
        {
          "duration": 0.0234375,
          "durationTicks": 16,
          "midi": 88,
          "name": "E6",
          "ticks": 12324,
          "time": 18.052734375,
          "velocity": 0.8110236220472441
        },
        {
          "duration": 0.0234375,
          "durationTicks": 16,
          "midi": 86,
          "name": "D6",
          "ticks": 12333,
          "time": 18.06591796875,
          "velocity": 0.8110236220472441
        },
        {
          "duration": 0.0234375,
          "durationTicks": 16,
          "midi": 84,
          "name": "C6",
          "ticks": 12342,
          "time": 18.0791015625,
          "velocity": 0.8110236220472441
        },
        {
          "duration": 0.0234375,
          "durationTicks": 16,
          "midi": 83,
          "name": "B5",
          "ticks": 12352,
          "time": 18.09375,
          "velocity": 0.8110236220472441
        },
        {
          "duration": 0.0234375,
          "durationTicks": 16,
          "midi": 81,
          "name": "A5",
          "ticks": 12361,
          "time": 18.10693359375,
          "velocity": 0.8110236220472441
        },
        {
          "duration": 0.0234375,
          "durationTicks": 16,
          "midi": 79,
          "name": "G5",
          "ticks": 12370,
          "time": 18.1201171875,
          "velocity": 0.8110236220472441
        },
        {
          "duration": 0.0234375,
          "durationTicks": 16,
          "midi": 77,
          "name": "F5",
          "ticks": 12379,
          "time": 18.13330078125,
          "velocity": 0.8110236220472441
        },
        {
          "duration": 0.0234375,
          "durationTicks": 16,
          "midi": 76,
          "name": "E5",
          "ticks": 12388,
          "time": 18.146484375,
          "velocity": 0.8110236220472441
        },
        {
          "duration": 0.0234375,
          "durationTicks": 16,
          "midi": 74,
          "name": "D5",
          "ticks": 12397,
          "time": 18.15966796875,
          "velocity": 0.8110236220472441
        },
        {
          "duration": 0.0234375,
          "durationTicks": 16,
          "midi": 72,
          "name": "C5",
          "ticks": 12406,
          "time": 18.1728515625,
          "velocity": 0.8110236220472441
        },
        {
          "duration": 0.1875,
          "durationTicks": 128,
          "midi": 71,
          "name": "B4",
          "ticks": 12416,
          "time": 18.1875,
          "velocity": 0.5826771653543307
        },
        {
          "duration": 0.1875,
          "durationTicks": 128,
          "midi": 63,
          "name": "D#4",
          "ticks": 12544,
          "time": 18.375,
          "velocity": 0.7795275590551181
        },
        {
          "duration": 0.1875,
          "durationTicks": 128,
          "midi": 68,
          "name": "G#4",
          "ticks": 12544,
          "time": 18.375,
          "velocity": 0.7795275590551181
        },
        {
          "duration": 0.1875,
          "durationTicks": 128,
          "midi": 63,
          "name": "D#4",
          "ticks": 12672,
          "time": 18.5625,
          "velocity": 0.8976377952755905
        },
        {
          "duration": 0.1875,
          "durationTicks": 128,
          "midi": 68,
          "name": "G#4",
          "ticks": 12672,
          "time": 18.5625,
          "velocity": 0.8976377952755905
        },
        {
          "duration": 0.5625,
          "durationTicks": 384,
          "midi": 63,
          "name": "D#4",
          "ticks": 12800,
          "time": 18.75,
          "velocity": 1
        },
        {
          "duration": 0.1875,
          "durationTicks": 128,
          "midi": 75,
          "name": "D#5",
          "ticks": 12800,
          "time": 18.75,
          "velocity": 1
        },
        {
          "duration": 0.375,
          "durationTicks": 256,
          "midi": 73,
          "name": "C#5",
          "ticks": 12928,
          "time": 18.9375,
          "velocity": 1
        },
        {
          "duration": 0.5625,
          "durationTicks": 384,
          "midi": 64,
          "name": "E4",
          "ticks": 13184,
          "time": 19.3125,
          "velocity": 0.8503937007874016
        },
        {
          "duration": 0.375,
          "durationTicks": 256,
          "midi": 71,
          "name": "B4",
          "ticks": 13184,
          "time": 19.3125,
          "velocity": 0.8503937007874016
        },
        {
          "duration": 0.1875,
          "durationTicks": 128,
          "midi": 71,
          "name": "B4",
          "ticks": 13440,
          "time": 19.6875,
          "velocity": 0.8346456692913385
        },
        {
          "duration": 0.5625,
          "durationTicks": 384,
          "midi": 61,
          "name": "C#4",
          "ticks": 13568,
          "time": 19.875,
          "velocity": 0.8582677165354331
        },
        {
          "duration": 0.5625,
          "durationTicks": 384,
          "midi": 66,
          "name": "F#4",
          "ticks": 13568,
          "time": 19.875,
          "velocity": 0.8582677165354331
        },
        {
          "duration": 0.1875,
          "durationTicks": 128,
          "midi": 70,
          "name": "A#4",
          "ticks": 13568,
          "time": 19.875,
          "velocity": 0.8582677165354331
        },
        {
          "duration": 0.1875,
          "durationTicks": 128,
          "midi": 71,
          "name": "B4",
          "ticks": 13696,
          "time": 20.0625,
          "velocity": 0.8976377952755905
        },
        {
          "duration": 0.1875,
          "durationTicks": 128,
          "midi": 70,
          "name": "A#4",
          "ticks": 13824,
          "time": 20.25,
          "velocity": 0.8110236220472441
        },
        {
          "duration": 0.9375,
          "durationTicks": 640,
          "midi": 58,
          "name": "A#3",
          "ticks": 13952,
          "time": 20.4375,
          "velocity": 0.7874015748031497
        },
        {
          "duration": 0.9375,
          "durationTicks": 640,
          "midi": 66,
          "name": "F#4",
          "ticks": 13952,
          "time": 20.4375,
          "velocity": 0.7874015748031497
        },
        {
          "duration": 0.1875,
          "durationTicks": 128,
          "midi": 63,
          "name": "D#4",
          "ticks": 14592,
          "time": 21.375,
          "velocity": 0.952755905511811
        },
        {
          "duration": 0.1875,
          "durationTicks": 128,
          "midi": 68,
          "name": "G#4",
          "ticks": 14592,
          "time": 21.375,
          "velocity": 0.952755905511811
        },
        {
          "duration": 0.1875,
          "durationTicks": 128,
          "midi": 63,
          "name": "D#4",
          "ticks": 14720,
          "time": 21.5625,
          "velocity": 0.8740157480314961
        },
        {
          "duration": 0.1875,
          "durationTicks": 128,
          "midi": 68,
          "name": "G#4",
          "ticks": 14720,
          "time": 21.5625,
          "velocity": 0.8740157480314961
        },
        {
          "duration": 0.5625,
          "durationTicks": 384,
          "midi": 63,
          "name": "D#4",
          "ticks": 14848,
          "time": 21.75,
          "velocity": 1
        },
        {
          "duration": 0.1875,
          "durationTicks": 128,
          "midi": 68,
          "name": "G#4",
          "ticks": 14848,
          "time": 21.75,
          "velocity": 1
        },
        {
          "duration": 0.1875,
          "durationTicks": 128,
          "midi": 75,
          "name": "D#5",
          "ticks": 14848,
          "time": 21.75,
          "velocity": 1
        },
        {
          "duration": 0.375,
          "durationTicks": 256,
          "midi": 68,
          "name": "G#4",
          "ticks": 14976,
          "time": 21.9375,
          "velocity": 0.984251968503937
        },
        {
          "duration": 0.375,
          "durationTicks": 256,
          "midi": 73,
          "name": "C#5",
          "ticks": 14976,
          "time": 21.9375,
          "velocity": 0.984251968503937
        },
        {
          "duration": 0.375,
          "durationTicks": 256,
          "midi": 66,
          "name": "F#4",
          "ticks": 15232,
          "time": 22.3125,
          "velocity": 0.8267716535433071
        },
        {
          "duration": 0.375,
          "durationTicks": 256,
          "midi": 71,
          "name": "B4",
          "ticks": 15232,
          "time": 22.3125,
          "velocity": 0.8267716535433071
        },
        {
          "duration": 0.1875,
          "durationTicks": 128,
          "midi": 66,
          "name": "F#4",
          "ticks": 15488,
          "time": 22.6875,
          "velocity": 0.8740157480314961
        },
        {
          "duration": 0.1875,
          "durationTicks": 128,
          "midi": 71,
          "name": "B4",
          "ticks": 15488,
          "time": 22.6875,
          "velocity": 0.8740157480314961
        },
        {
          "duration": 0.5625,
          "durationTicks": 384,
          "midi": 68,
          "name": "G#4",
          "ticks": 15616,
          "time": 22.875,
          "velocity": 0.968503937007874
        },
        {
          "duration": 0.1875,
          "durationTicks": 128,
          "midi": 74,
          "name": "D5",
          "ticks": 15616,
          "time": 22.875,
          "velocity": 0.968503937007874
        },
        {
          "duration": 0.1875,
          "durationTicks": 128,
          "midi": 73,
          "name": "C#5",
          "ticks": 15744,
          "time": 23.0625,
          "velocity": 0.9448818897637795
        },
        {
          "duration": 0.1875,
          "durationTicks": 128,
          "midi": 71,
          "name": "B4",
          "ticks": 15872,
          "time": 23.25,
          "velocity": 0.8976377952755905
        },
        {
          "duration": 0.375,
          "durationTicks": 256,
          "midi": 63,
          "name": "D#4",
          "ticks": 16000,
          "time": 23.4375,
          "velocity": 0.984251968503937
        },
        {
          "duration": 0.375,
          "durationTicks": 256,
          "midi": 75,
          "name": "D#5",
          "ticks": 16000,
          "time": 23.4375,
          "velocity": 0.984251968503937
        },
        {
          "duration": 0.375,
          "durationTicks": 256,
          "midi": 67,
          "name": "G4",
          "ticks": 16256,
          "time": 23.8125,
          "velocity": 0.9921259842519685
        },
        {
          "duration": 0.375,
          "durationTicks": 256,
          "midi": 73,
          "name": "C#5",
          "ticks": 16256,
          "time": 23.8125,
          "velocity": 0.9921259842519685
        },
        {
          "duration": 0.375,
          "durationTicks": 256,
          "midi": 78,
          "name": "F#5",
          "ticks": 16256,
          "time": 23.8125,
          "velocity": 0.9921259842519685
        },
        {
          "duration": 0.1875,
          "durationTicks": 128,
          "midi": 63,
          "name": "D#4",
          "ticks": 16896,
          "time": 24.75,
          "velocity": 0.6850393700787402
        },
        {
          "duration": 0.1875,
          "durationTicks": 128,
          "midi": 68,
          "name": "G#4",
          "ticks": 16896,
          "time": 24.75,
          "velocity": 0.6850393700787402
        },
        {
          "duration": 0.1875,
          "durationTicks": 128,
          "midi": 63,
          "name": "D#4",
          "ticks": 17024,
          "time": 24.9375,
          "velocity": 0.6614173228346457
        },
        {
          "duration": 0.1875,
          "durationTicks": 128,
          "midi": 68,
          "name": "G#4",
          "ticks": 17024,
          "time": 24.9375,
          "velocity": 0.6614173228346457
        },
        {
          "duration": 0.375,
          "durationTicks": 256,
          "midi": 63,
          "name": "D#4",
          "ticks": 17152,
          "time": 25.125,
          "velocity": 0.6614173228346457
        },
        {
          "duration": 0.375,
          "durationTicks": 256,
          "midi": 68,
          "name": "G#4",
          "ticks": 17152,
          "time": 25.125,
          "velocity": 0.6614173228346457
        },
        {
          "duration": 0.1875,
          "durationTicks": 128,
          "midi": 63,
          "name": "D#4",
          "ticks": 17408,
          "time": 25.5,
          "velocity": 0.6614173228346457
        },
        {
          "duration": 0.1875,
          "durationTicks": 128,
          "midi": 68,
          "name": "G#4",
          "ticks": 17408,
          "time": 25.5,
          "velocity": 0.6614173228346457
        },
        {
          "duration": 0.375,
          "durationTicks": 256,
          "midi": 63,
          "name": "D#4",
          "ticks": 17536,
          "time": 25.6875,
          "velocity": 0.84251968503937
        },
        {
          "duration": 0.375,
          "durationTicks": 256,
          "midi": 71,
          "name": "B4",
          "ticks": 17536,
          "time": 25.6875,
          "velocity": 0.84251968503937
        },
        {
          "duration": 0.1875,
          "durationTicks": 128,
          "midi": 70,
          "name": "A#4",
          "ticks": 17792,
          "time": 26.0625,
          "velocity": 0.6141732283464567
        },
        {
          "duration": 0.1875,
          "durationTicks": 128,
          "midi": 68,
          "name": "G#4",
          "ticks": 17920,
          "time": 26.25,
          "velocity": 0.6299212598425197
        },
        {
          "duration": 0.375,
          "durationTicks": 256,
          "midi": 68,
          "name": "G#4",
          "ticks": 18048,
          "time": 26.4375,
          "velocity": 0.6614173228346457
        },
        {
          "duration": 0.1875,
          "durationTicks": 128,
          "midi": 68,
          "name": "G#4",
          "ticks": 18304,
          "time": 26.8125,
          "velocity": 0.6535433070866141
        },
        {
          "duration": 0.1875,
          "durationTicks": 128,
          "midi": 68,
          "name": "G#4",
          "ticks": 18432,
          "time": 27,
          "velocity": 0.6692913385826772
        },
        {
          "duration": 0.1875,
          "durationTicks": 128,
          "midi": 70,
          "name": "A#4",
          "ticks": 18560,
          "time": 27.1875,
          "velocity": 0.7165354330708661
        },
        {
          "duration": 0.75,
          "durationTicks": 512,
          "midi": 63,
          "name": "D#4",
          "ticks": 18688,
          "time": 27.375,
          "velocity": 0.8267716535433071
        },
        {
          "duration": 0.375,
          "durationTicks": 256,
          "midi": 71,
          "name": "B4",
          "ticks": 18688,
          "time": 27.375,
          "velocity": 0.8267716535433071
        },
        {
          "duration": 0.375,
          "durationTicks": 256,
          "midi": 70,
          "name": "A#4",
          "ticks": 18944,
          "time": 27.75,
          "velocity": 0.9921259842519685
        },
        {
          "duration": 0.1875,
          "durationTicks": 128,
          "midi": 68,
          "name": "G#4",
          "ticks": 19200,
          "time": 28.125,
          "velocity": 0.6141732283464567
        },
        {
          "duration": 0.375,
          "durationTicks": 256,
          "midi": 66,
          "name": "F#4",
          "ticks": 19328,
          "time": 28.3125,
          "velocity": 0.6062992125984252
        },
        {
          "duration": 0.375,
          "durationTicks": 256,
          "midi": 63,
          "name": "D#4",
          "ticks": 19584,
          "time": 28.6875,
          "velocity": 0.7244094488188977
        },
        {
          "duration": 0.375,
          "durationTicks": 256,
          "midi": 68,
          "name": "G#4",
          "ticks": 19584,
          "time": 28.6875,
          "velocity": 0.7244094488188977
        },
        {
          "duration": 0.375,
          "durationTicks": 256,
          "midi": 63,
          "name": "D#4",
          "ticks": 20992,
          "time": 30.75,
          "velocity": 0.5984251968503937
        },
        {
          "duration": 0.375,
          "durationTicks": 256,
          "midi": 68,
          "name": "G#4",
          "ticks": 20992,
          "time": 30.75,
          "velocity": 0.5984251968503937
        },
        {
          "duration": 0.375,
          "durationTicks": 256,
          "midi": 63,
          "name": "D#4",
          "ticks": 21248,
          "time": 31.125,
          "velocity": 0.6692913385826772
        },
        {
          "duration": 0.375,
          "durationTicks": 256,
          "midi": 68,
          "name": "G#4",
          "ticks": 21248,
          "time": 31.125,
          "velocity": 0.6692913385826772
        },
        {
          "duration": 0.1875,
          "durationTicks": 128,
          "midi": 66,
          "name": "F#4",
          "ticks": 21504,
          "time": 31.5,
          "velocity": 0.5984251968503937
        },
        {
          "duration": 0.375,
          "durationTicks": 256,
          "midi": 63,
          "name": "D#4",
          "ticks": 21632,
          "time": 31.6875,
          "velocity": 0.6850393700787402
        },
        {
          "duration": 0.375,
          "durationTicks": 256,
          "midi": 68,
          "name": "G#4",
          "ticks": 21632,
          "time": 31.6875,
          "velocity": 0.6850393700787402
        },
        {
          "duration": 0.1875,
          "durationTicks": 128,
          "midi": 66,
          "name": "F#4",
          "ticks": 21888,
          "time": 32.0625,
          "velocity": 0.5984251968503937
        },
        {
          "duration": 0.5625,
          "durationTicks": 384,
          "midi": 63,
          "name": "D#4",
          "ticks": 22016,
          "time": 32.25,
          "velocity": 0.6771653543307087
        },
        {
          "duration": 0.5625,
          "durationTicks": 384,
          "midi": 68,
          "name": "G#4",
          "ticks": 22016,
          "time": 32.25,
          "velocity": 0.6771653543307087
        },
        {
          "duration": 0.1875,
          "durationTicks": 128,
          "midi": 63,
          "name": "D#4",
          "ticks": 22400,
          "time": 32.8125,
          "velocity": 0.5826771653543307
        },
        {
          "duration": 0.1875,
          "durationTicks": 128,
          "midi": 61,
          "name": "C#4",
          "ticks": 22528,
          "time": 33,
          "velocity": 0.6535433070866141
        },
        {
          "duration": 0.1875,
          "durationTicks": 128,
          "midi": 59,
          "name": "B3",
          "ticks": 22656,
          "time": 33.1875,
          "velocity": 0.6299212598425197
        },
        {
          "duration": 0.5625,
          "durationTicks": 384,
          "midi": 64,
          "name": "E4",
          "ticks": 22784,
          "time": 33.375,
          "velocity": 0.8582677165354331
        },
        {
          "duration": 0.5625,
          "durationTicks": 384,
          "midi": 68,
          "name": "G#4",
          "ticks": 22784,
          "time": 33.375,
          "velocity": 0.8582677165354331
        },
        {
          "duration": 0.5625,
          "durationTicks": 384,
          "midi": 73,
          "name": "C#5",
          "ticks": 22784,
          "time": 33.375,
          "velocity": 0.8582677165354331
        },
        {
          "duration": 0.5625,
          "durationTicks": 384,
          "midi": 68,
          "name": "G#4",
          "ticks": 23168,
          "time": 33.9375,
          "velocity": 0.7637795275590551
        },
        {
          "duration": 0.5625,
          "durationTicks": 384,
          "midi": 71,
          "name": "B4",
          "ticks": 23168,
          "time": 33.9375,
          "velocity": 0.7637795275590551
        },
        {
          "duration": 0.5625,
          "durationTicks": 384,
          "midi": 76,
          "name": "E5",
          "ticks": 23168,
          "time": 33.9375,
          "velocity": 0.7637795275590551
        },
        {
          "duration": 0.375,
          "durationTicks": 256,
          "midi": 73,
          "name": "C#5",
          "ticks": 23552,
          "time": 34.5,
          "velocity": 0.8110236220472441
        },
        {
          "duration": 0.375,
          "durationTicks": 256,
          "midi": 76,
          "name": "E5",
          "ticks": 23552,
          "time": 34.5,
          "velocity": 0.8110236220472441
        },
        {
          "duration": 0.375,
          "durationTicks": 256,
          "midi": 85,
          "name": "C#6",
          "ticks": 23552,
          "time": 34.5,
          "velocity": 0.8110236220472441
        },
        {
          "duration": 0.1875,
          "durationTicks": 128,
          "midi": 58,
          "name": "A#3",
          "ticks": 23808,
          "time": 34.875,
          "velocity": 0.49606299212598426
        },
        {
          "duration": 0.1875,
          "durationTicks": 128,
          "midi": 61,
          "name": "C#4",
          "ticks": 23808,
          "time": 34.875,
          "velocity": 0.49606299212598426
        },
        {
          "duration": 0.1875,
          "durationTicks": 128,
          "midi": 66,
          "name": "F#4",
          "ticks": 23808,
          "time": 34.875,
          "velocity": 0.49606299212598426
        },
        {
          "duration": 0.1875,
          "durationTicks": 128,
          "midi": 61,
          "name": "C#4",
          "ticks": 23936,
          "time": 35.0625,
          "velocity": 0.5433070866141733
        },
        {
          "duration": 0.1875,
          "durationTicks": 128,
          "midi": 66,
          "name": "F#4",
          "ticks": 24064,
          "time": 35.25,
          "velocity": 0.7244094488188977
        },
        {
          "duration": 0.1875,
          "durationTicks": 128,
          "midi": 70,
          "name": "A#4",
          "ticks": 24192,
          "time": 35.4375,
          "velocity": 0.7559055118110236
        },
        {
          "duration": 0.1875,
          "durationTicks": 128,
          "midi": 75,
          "name": "D#5",
          "ticks": 24320,
          "time": 35.625,
          "velocity": 0.889763779527559
        },
        {
          "duration": 0.1875,
          "durationTicks": 128,
          "midi": 85,
          "name": "C#6",
          "ticks": 24320,
          "time": 35.625,
          "velocity": 0.889763779527559
        },
        {
          "duration": 0.1875,
          "durationTicks": 128,
          "midi": 82,
          "name": "A#5",
          "ticks": 24448,
          "time": 35.8125,
          "velocity": 0.6299212598425197
        },
        {
          "duration": 0.1875,
          "durationTicks": 128,
          "midi": 78,
          "name": "F#5",
          "ticks": 24576,
          "time": 36,
          "velocity": 0.5748031496062992
        },
        {
          "duration": 0.1875,
          "durationTicks": 128,
          "midi": 75,
          "name": "D#5",
          "ticks": 24704,
          "time": 36.1875,
          "velocity": 0.5905511811023622
        },
        {
          "duration": 0.1875,
          "durationTicks": 128,
          "midi": 51,
          "name": "D#3",
          "ticks": 24832,
          "time": 36.375,
          "velocity": 0.6692913385826772
        },
        {
          "duration": 0.1875,
          "durationTicks": 128,
          "midi": 56,
          "name": "G#3",
          "ticks": 24832,
          "time": 36.375,
          "velocity": 0.6692913385826772
        },
        {
          "duration": 0.1875,
          "durationTicks": 128,
          "midi": 51,
          "name": "D#3",
          "ticks": 24960,
          "time": 36.5625,
          "velocity": 0.7165354330708661
        },
        {
          "duration": 0.1875,
          "durationTicks": 128,
          "midi": 56,
          "name": "G#3",
          "ticks": 24960,
          "time": 36.5625,
          "velocity": 0.7165354330708661
        },
        {
          "duration": 0.375,
          "durationTicks": 256,
          "midi": 63,
          "name": "D#4",
          "ticks": 25088,
          "time": 36.75,
          "velocity": 0.8503937007874016
        },
        {
          "duration": 0.375,
          "durationTicks": 256,
          "midi": 68,
          "name": "G#4",
          "ticks": 25088,
          "time": 36.75,
          "velocity": 0.8503937007874016
        },
        {
          "duration": 0.375,
          "durationTicks": 256,
          "midi": 63,
          "name": "D#4",
          "ticks": 25344,
          "time": 37.125,
          "velocity": 0.6929133858267716
        },
        {
          "duration": 0.375,
          "durationTicks": 256,
          "midi": 68,
          "name": "G#4",
          "ticks": 25344,
          "time": 37.125,
          "velocity": 0.6929133858267716
        },
        {
          "duration": 0.1875,
          "durationTicks": 128,
          "midi": 68,
          "name": "G#4",
          "ticks": 25600,
          "time": 37.5,
          "velocity": 0.6299212598425197
        },
        {
          "duration": 0.75,
          "durationTicks": 512,
          "midi": 63,
          "name": "D#4",
          "ticks": 25728,
          "time": 37.6875,
          "velocity": 0.6771653543307087
        },
        {
          "duration": 0.375,
          "durationTicks": 256,
          "midi": 71,
          "name": "B4",
          "ticks": 25728,
          "time": 37.6875,
          "velocity": 0.6771653543307087
        },
        {
          "duration": 0.1875,
          "durationTicks": 128,
          "midi": 70,
          "name": "A#4",
          "ticks": 25984,
          "time": 38.0625,
          "velocity": 0.6456692913385826
        },
        {
          "duration": 0.1875,
          "durationTicks": 128,
          "midi": 68,
          "name": "G#4",
          "ticks": 26112,
          "time": 38.25,
          "velocity": 0.6456692913385826
        },
        {
          "duration": 0.75,
          "durationTicks": 512,
          "midi": 63,
          "name": "D#4",
          "ticks": 26240,
          "time": 38.4375,
          "velocity": 0.7086614173228346
        },
        {
          "duration": 0.75,
          "durationTicks": 512,
          "midi": 71,
          "name": "B4",
          "ticks": 26240,
          "time": 38.4375,
          "velocity": 0.7086614173228346
        },
        {
          "duration": 0.1875,
          "durationTicks": 128,
          "midi": 51,
          "name": "D#3",
          "ticks": 26880,
          "time": 39.375,
          "velocity": 0.7165354330708661
        },
        {
          "duration": 0.1875,
          "durationTicks": 128,
          "midi": 56,
          "name": "G#3",
          "ticks": 26880,
          "time": 39.375,
          "velocity": 0.7165354330708661
        },
        {
          "duration": 0.1875,
          "durationTicks": 128,
          "midi": 51,
          "name": "D#3",
          "ticks": 27008,
          "time": 39.5625,
          "velocity": 0.7795275590551181
        },
        {
          "duration": 0.1875,
          "durationTicks": 128,
          "midi": 56,
          "name": "G#3",
          "ticks": 27008,
          "time": 39.5625,
          "velocity": 0.7795275590551181
        },
        {
          "duration": 0.1875,
          "durationTicks": 128,
          "midi": 63,
          "name": "D#4",
          "ticks": 27136,
          "time": 39.75,
          "velocity": 0.8110236220472441
        },
        {
          "duration": 0.1875,
          "durationTicks": 128,
          "midi": 68,
          "name": "G#4",
          "ticks": 27136,
          "time": 39.75,
          "velocity": 0.8110236220472441
        },
        {
          "duration": 0.1875,
          "durationTicks": 128,
          "midi": 63,
          "name": "D#4",
          "ticks": 27264,
          "time": 39.9375,
          "velocity": 0.6929133858267716
        },
        {
          "duration": 0.1875,
          "durationTicks": 128,
          "midi": 68,
          "name": "G#4",
          "ticks": 27264,
          "time": 39.9375,
          "velocity": 0.6929133858267716
        },
        {
          "duration": 0.375,
          "durationTicks": 256,
          "midi": 63,
          "name": "D#4",
          "ticks": 27392,
          "time": 40.125,
          "velocity": 0.7007874015748031
        },
        {
          "duration": 0.375,
          "durationTicks": 256,
          "midi": 68,
          "name": "G#4",
          "ticks": 27392,
          "time": 40.125,
          "velocity": 0.7007874015748031
        },
        {
          "duration": 0.32373046875,
          "durationTicks": 221,
          "midi": 63,
          "name": "D#4",
          "ticks": 27648,
          "time": 40.5,
          "velocity": 0.6456692913385826
        },
        {
          "duration": 0.32373046875,
          "durationTicks": 221,
          "midi": 68,
          "name": "G#4",
          "ticks": 27648,
          "time": 40.5,
          "velocity": 0.6456692913385826
        },
        {
          "duration": 0.05126953125,
          "durationTicks": 35,
          "midi": 70,
          "name": "A#4",
          "ticks": 27869,
          "time": 40.82373046875,
          "velocity": 0.7086614173228346
        },
        {
          "duration": 0.375,
          "durationTicks": 256,
          "midi": 63,
          "name": "D#4",
          "ticks": 27904,
          "time": 40.875,
          "velocity": 0.7086614173228346
        },
        {
          "duration": 0.375,
          "durationTicks": 256,
          "midi": 71,
          "name": "B4",
          "ticks": 27904,
          "time": 40.875,
          "velocity": 0.7086614173228346
        },
        {
          "duration": 0.1875,
          "durationTicks": 128,
          "midi": 63,
          "name": "D#4",
          "ticks": 28160,
          "time": 41.25,
          "velocity": 0.6535433070866141
        },
        {
          "duration": 0.1875,
          "durationTicks": 128,
          "midi": 70,
          "name": "A#4",
          "ticks": 28160,
          "time": 41.25,
          "velocity": 0.6535433070866141
        },
        {
          "duration": 0.75,
          "durationTicks": 512,
          "midi": 63,
          "name": "D#4",
          "ticks": 28288,
          "time": 41.4375,
          "velocity": 0.6141732283464567
        },
        {
          "duration": 0.75,
          "durationTicks": 512,
          "midi": 68,
          "name": "G#4",
          "ticks": 28288,
          "time": 41.4375,
          "velocity": 0.6141732283464567
        },
        {
          "duration": 0.1875,
          "durationTicks": 128,
          "midi": 51,
          "name": "D#3",
          "ticks": 28928,
          "time": 42.375,
          "velocity": 0.7244094488188977
        },
        {
          "duration": 0.1875,
          "durationTicks": 128,
          "midi": 56,
          "name": "G#3",
          "ticks": 28928,
          "time": 42.375,
          "velocity": 0.7244094488188977
        },
        {
          "duration": 0.1875,
          "durationTicks": 128,
          "midi": 51,
          "name": "D#3",
          "ticks": 29056,
          "time": 42.5625,
          "velocity": 0.7322834645669292
        },
        {
          "duration": 0.1875,
          "durationTicks": 128,
          "midi": 56,
          "name": "G#3",
          "ticks": 29056,
          "time": 42.5625,
          "velocity": 0.7322834645669292
        },
        {
          "duration": 0.375,
          "durationTicks": 256,
          "midi": 63,
          "name": "D#4",
          "ticks": 29184,
          "time": 42.75,
          "velocity": 0.8110236220472441
        },
        {
          "duration": 0.375,
          "durationTicks": 256,
          "midi": 68,
          "name": "G#4",
          "ticks": 29184,
          "time": 42.75,
          "velocity": 0.8110236220472441
        },
        {
          "duration": 0.1875,
          "durationTicks": 128,
          "midi": 63,
          "name": "D#4",
          "ticks": 29440,
          "time": 43.125,
          "velocity": 0.6929133858267716
        },
        {
          "duration": 0.1875,
          "durationTicks": 128,
          "midi": 68,
          "name": "G#4",
          "ticks": 29440,
          "time": 43.125,
          "velocity": 0.6929133858267716
        },
        {
          "duration": 0.375,
          "durationTicks": 256,
          "midi": 63,
          "name": "D#4",
          "ticks": 29568,
          "time": 43.3125,
          "velocity": 0.6377952755905512
        },
        {
          "duration": 0.375,
          "durationTicks": 256,
          "midi": 68,
          "name": "G#4",
          "ticks": 29568,
          "time": 43.3125,
          "velocity": 0.6377952755905512
        },
        {
          "duration": 0.1875,
          "durationTicks": 128,
          "midi": 63,
          "name": "D#4",
          "ticks": 29824,
          "time": 43.6875,
          "velocity": 0.6377952755905512
        },
        {
          "duration": 0.1875,
          "durationTicks": 128,
          "midi": 66,
          "name": "F#4",
          "ticks": 29824,
          "time": 43.6875,
          "velocity": 0.6377952755905512
        },
        {
          "duration": 0.375,
          "durationTicks": 256,
          "midi": 63,
          "name": "D#4",
          "ticks": 29952,
          "time": 43.875,
          "velocity": 0.6850393700787402
        },
        {
          "duration": 0.375,
          "durationTicks": 256,
          "midi": 68,
          "name": "G#4",
          "ticks": 29952,
          "time": 43.875,
          "velocity": 0.6850393700787402
        },
        {
          "duration": 0.1875,
          "durationTicks": 128,
          "midi": 63,
          "name": "D#4",
          "ticks": 30208,
          "time": 44.25,
          "velocity": 0.6377952755905512
        },
        {
          "duration": 0.1875,
          "durationTicks": 128,
          "midi": 66,
          "name": "F#4",
          "ticks": 30208,
          "time": 44.25,
          "velocity": 0.6377952755905512
        },
        {
          "duration": 0.375,
          "durationTicks": 256,
          "midi": 63,
          "name": "D#4",
          "ticks": 30336,
          "time": 44.4375,
          "velocity": 0.7007874015748031
        },
        {
          "duration": 0.375,
          "durationTicks": 256,
          "midi": 68,
          "name": "G#4",
          "ticks": 30336,
          "time": 44.4375,
          "velocity": 0.7007874015748031
        },
        {
          "duration": 0.1875,
          "durationTicks": 128,
          "midi": 75,
          "name": "D#5",
          "ticks": 30592,
          "time": 44.8125,
          "velocity": 0.7559055118110236
        },
        {
          "duration": 0.1875,
          "durationTicks": 128,
          "midi": 73,
          "name": "C#5",
          "ticks": 30720,
          "time": 45,
          "velocity": 0.6535433070866141
        },
        {
          "duration": 0.1875,
          "durationTicks": 128,
          "midi": 71,
          "name": "B4",
          "ticks": 30848,
          "time": 45.1875,
          "velocity": 0.6456692913385826
        },
        {
          "duration": 0.5625,
          "durationTicks": 384,
          "midi": 64,
          "name": "E4",
          "ticks": 30976,
          "time": 45.375,
          "velocity": 0.7007874015748031
        },
        {
          "duration": 0.5625,
          "durationTicks": 384,
          "midi": 68,
          "name": "G#4",
          "ticks": 30976,
          "time": 45.375,
          "velocity": 0.7007874015748031
        },
        {
          "duration": 0.5625,
          "durationTicks": 384,
          "midi": 73,
          "name": "C#5",
          "ticks": 30976,
          "time": 45.375,
          "velocity": 0.7007874015748031
        },
        {
          "duration": 0.5625,
          "durationTicks": 384,
          "midi": 68,
          "name": "G#4",
          "ticks": 31360,
          "time": 45.9375,
          "velocity": 0.6771653543307087
        },
        {
          "duration": 0.5625,
          "durationTicks": 384,
          "midi": 71,
          "name": "B4",
          "ticks": 31360,
          "time": 45.9375,
          "velocity": 0.6771653543307087
        },
        {
          "duration": 0.5625,
          "durationTicks": 384,
          "midi": 76,
          "name": "E5",
          "ticks": 31360,
          "time": 45.9375,
          "velocity": 0.6771653543307087
        },
        {
          "duration": 0.375,
          "durationTicks": 256,
          "midi": 64,
          "name": "E4",
          "ticks": 31744,
          "time": 46.5,
          "velocity": 0.6377952755905512
        },
        {
          "duration": 0.375,
          "durationTicks": 256,
          "midi": 68,
          "name": "G#4",
          "ticks": 31744,
          "time": 46.5,
          "velocity": 0.6377952755905512
        },
        {
          "duration": 0.375,
          "durationTicks": 256,
          "midi": 73,
          "name": "C#5",
          "ticks": 31744,
          "time": 46.5,
          "velocity": 0.6377952755905512
        },
        {
          "duration": 0.5625,
          "durationTicks": 384,
          "midi": 58,
          "name": "A#3",
          "ticks": 32000,
          "time": 46.875,
          "velocity": 0.5118110236220472
        },
        {
          "duration": 0.5625,
          "durationTicks": 384,
          "midi": 61,
          "name": "C#4",
          "ticks": 32000,
          "time": 46.875,
          "velocity": 0.5118110236220472
        },
        {
          "duration": 0.5625,
          "durationTicks": 384,
          "midi": 66,
          "name": "F#4",
          "ticks": 32000,
          "time": 46.875,
          "velocity": 0.5118110236220472
        },
        {
          "duration": 0.5625,
          "durationTicks": 384,
          "midi": 66,
          "name": "F#4",
          "ticks": 32384,
          "time": 47.4375,
          "velocity": 0.8267716535433071
        },
        {
          "duration": 0.5625,
          "durationTicks": 384,
          "midi": 70,
          "name": "A#4",
          "ticks": 32384,
          "time": 47.4375,
          "velocity": 0.8267716535433071
        },
        {
          "duration": 0.5625,
          "durationTicks": 384,
          "midi": 78,
          "name": "F#5",
          "ticks": 32384,
          "time": 47.4375,
          "velocity": 0.8267716535433071
        },
        {
          "duration": 0.5625,
          "durationTicks": 384,
          "midi": 58,
          "name": "A#3",
          "ticks": 32768,
          "time": 48,
          "velocity": 0.5039370078740157
        },
        {
          "duration": 0.5625,
          "durationTicks": 384,
          "midi": 61,
          "name": "C#4",
          "ticks": 32768,
          "time": 48,
          "velocity": 0.5039370078740157
        },
        {
          "duration": 0.5625,
          "durationTicks": 384,
          "midi": 66,
          "name": "F#4",
          "ticks": 32768,
          "time": 48,
          "velocity": 0.5039370078740157
        },
        {
          "duration": 0.1875,
          "durationTicks": 128,
          "midi": 64,
          "name": "E4",
          "ticks": 33792,
          "time": 49.5,
          "velocity": 0.5984251968503937
        },
        {
          "duration": 0.1875,
          "durationTicks": 128,
          "midi": 68,
          "name": "G#4",
          "ticks": 33792,
          "time": 49.5,
          "velocity": 0.5984251968503937
        },
        {
          "duration": 0.1875,
          "durationTicks": 128,
          "midi": 64,
          "name": "E4",
          "ticks": 33920,
          "time": 49.6875,
          "velocity": 0.6692913385826772
        },
        {
          "duration": 0.1875,
          "durationTicks": 128,
          "midi": 68,
          "name": "G#4",
          "ticks": 33920,
          "time": 49.6875,
          "velocity": 0.6692913385826772
        },
        {
          "duration": 0.1875,
          "durationTicks": 128,
          "midi": 66,
          "name": "F#4",
          "ticks": 34048,
          "time": 49.875,
          "velocity": 0.6141732283464567
        },
        {
          "duration": 0.375,
          "durationTicks": 256,
          "midi": 66,
          "name": "F#4",
          "ticks": 34176,
          "time": 50.0625,
          "velocity": 0.6614173228346457
        },
        {
          "duration": 0.375,
          "durationTicks": 256,
          "midi": 63,
          "name": "D#4",
          "ticks": 34432,
          "time": 50.4375,
          "velocity": 0.6220472440944882
        },
        {
          "duration": 0.375,
          "durationTicks": 256,
          "midi": 61,
          "name": "C#4",
          "ticks": 34688,
          "time": 50.8125,
          "velocity": 0.6062992125984252
        },
        {
          "duration": 0.375,
          "durationTicks": 256,
          "midi": 59,
          "name": "B3",
          "ticks": 34944,
          "time": 51.1875,
          "velocity": 0.6377952755905512
        },
        {
          "duration": 0.1875,
          "durationTicks": 128,
          "midi": 61,
          "name": "C#4",
          "ticks": 35200,
          "time": 51.5625,
          "velocity": 0.6929133858267716
        },
        {
          "duration": 0.375,
          "durationTicks": 256,
          "midi": 63,
          "name": "D#4",
          "ticks": 35328,
          "time": 51.75,
          "velocity": 0.6771653543307087
        },
        {
          "duration": 0.1875,
          "durationTicks": 128,
          "midi": 64,
          "name": "E4",
          "ticks": 35840,
          "time": 52.5,
          "velocity": 0.5905511811023622
        },
        {
          "duration": 0.1875,
          "durationTicks": 128,
          "midi": 68,
          "name": "G#4",
          "ticks": 35840,
          "time": 52.5,
          "velocity": 0.5905511811023622
        },
        {
          "duration": 0.1875,
          "durationTicks": 128,
          "midi": 64,
          "name": "E4",
          "ticks": 35968,
          "time": 52.6875,
          "velocity": 0.6692913385826772
        },
        {
          "duration": 0.1875,
          "durationTicks": 128,
          "midi": 68,
          "name": "G#4",
          "ticks": 35968,
          "time": 52.6875,
          "velocity": 0.6692913385826772
        },
        {
          "duration": 0.1875,
          "durationTicks": 128,
          "midi": 66,
          "name": "F#4",
          "ticks": 36096,
          "time": 52.875,
          "velocity": 0.6456692913385826
        },
        {
          "duration": 0.375,
          "durationTicks": 256,
          "midi": 66,
          "name": "F#4",
          "ticks": 36224,
          "time": 53.0625,
          "velocity": 0.6535433070866141
        },
        {
          "duration": 0.375,
          "durationTicks": 256,
          "midi": 66,
          "name": "F#4",
          "ticks": 36480,
          "time": 53.4375,
          "velocity": 0.6535433070866141
        },
        {
          "duration": 0.1875,
          "durationTicks": 128,
          "midi": 63,
          "name": "D#4",
          "ticks": 36736,
          "time": 53.8125,
          "velocity": 0.6141732283464567
        },
        {
          "duration": 0.1875,
          "durationTicks": 128,
          "midi": 66,
          "name": "F#4",
          "ticks": 36864,
          "time": 54,
          "velocity": 0.6850393700787402
        },
        {
          "duration": 0.1875,
          "durationTicks": 128,
          "midi": 71,
          "name": "B4",
          "ticks": 36992,
          "time": 54.1875,
          "velocity": 0.7401574803149606
        },
        {
          "duration": 0.75,
          "durationTicks": 512,
          "midi": 68,
          "name": "G#4",
          "ticks": 37120,
          "time": 54.375,
          "velocity": 0.6141732283464567
        },
        {
          "duration": 0.1875,
          "durationTicks": 128,
          "midi": 64,
          "name": "E4",
          "ticks": 37888,
          "time": 55.5,
          "velocity": 0.5984251968503937
        },
        {
          "duration": 0.1875,
          "durationTicks": 128,
          "midi": 68,
          "name": "G#4",
          "ticks": 37888,
          "time": 55.5,
          "velocity": 0.5984251968503937
        },
        {
          "duration": 0.1875,
          "durationTicks": 128,
          "midi": 64,
          "name": "E4",
          "ticks": 38016,
          "time": 55.6875,
          "velocity": 0.6456692913385826
        },
        {
          "duration": 0.1875,
          "durationTicks": 128,
          "midi": 68,
          "name": "G#4",
          "ticks": 38016,
          "time": 55.6875,
          "velocity": 0.6456692913385826
        },
        {
          "duration": 0.5625,
          "durationTicks": 384,
          "midi": 61,
          "name": "C#4",
          "ticks": 38144,
          "time": 55.875,
          "velocity": 0.6535433070866141
        },
        {
          "duration": 0.1875,
          "durationTicks": 128,
          "midi": 63,
          "name": "D#4",
          "ticks": 38144,
          "time": 55.875,
          "velocity": 0.6535433070866141
        },
        {
          "duration": 0.1875,
          "durationTicks": 128,
          "midi": 67,
          "name": "G4",
          "ticks": 38144,
          "time": 55.875,
          "velocity": 0.6535433070866141
        },
        {
          "duration": 0.375,
          "durationTicks": 256,
          "midi": 63,
          "name": "D#4",
          "ticks": 38272,
          "time": 56.0625,
          "velocity": 0.6299212598425197
        },
        {
          "duration": 0.375,
          "durationTicks": 256,
          "midi": 67,
          "name": "G4",
          "ticks": 38272,
          "time": 56.0625,
          "velocity": 0.6299212598425197
        },
        {
          "duration": 0.375,
          "durationTicks": 256,
          "midi": 63,
          "name": "D#4",
          "ticks": 38528,
          "time": 56.4375,
          "velocity": 0.7007874015748031
        },
        {
          "duration": 0.375,
          "durationTicks": 256,
          "midi": 68,
          "name": "G#4",
          "ticks": 38528,
          "time": 56.4375,
          "velocity": 0.7007874015748031
        },
        {
          "duration": 0.1875,
          "durationTicks": 128,
          "midi": 63,
          "name": "D#4",
          "ticks": 38784,
          "time": 56.8125,
          "velocity": 0.5984251968503937
        },
        {
          "duration": 0.1875,
          "durationTicks": 128,
          "midi": 61,
          "name": "C#4",
          "ticks": 38912,
          "time": 57,
          "velocity": 0.5905511811023622
        },
        {
          "duration": 0.375,
          "durationTicks": 256,
          "midi": 59,
          "name": "B3",
          "ticks": 39040,
          "time": 57.1875,
          "velocity": 0.6377952755905512
        },
        {
          "duration": 0.1875,
          "durationTicks": 128,
          "midi": 61,
          "name": "C#4",
          "ticks": 39296,
          "time": 57.5625,
          "velocity": 0.7086614173228346
        },
        {
          "duration": 0.375,
          "durationTicks": 256,
          "midi": 59,
          "name": "B3",
          "ticks": 39424,
          "time": 57.75,
          "velocity": 0.7007874015748031
        },
        {
          "duration": 0.1875,
          "durationTicks": 128,
          "midi": 63,
          "name": "D#4",
          "ticks": 39424,
          "time": 57.75,
          "velocity": 0.7007874015748031
        },
        {
          "duration": 0.1875,
          "durationTicks": 128,
          "midi": 63,
          "name": "D#4",
          "ticks": 39552,
          "time": 57.9375,
          "velocity": 0.6771653543307087
        },
        {
          "duration": 0.5625,
          "durationTicks": 384,
          "midi": 57,
          "name": "A3",
          "ticks": 39680,
          "time": 58.125,
          "velocity": 0.7086614173228346
        },
        {
          "duration": 0.5625,
          "durationTicks": 384,
          "midi": 61,
          "name": "C#4",
          "ticks": 39680,
          "time": 58.125,
          "velocity": 0.7086614173228346
        },
        {
          "duration": 0.5625,
          "durationTicks": 384,
          "midi": 64,
          "name": "E4",
          "ticks": 39680,
          "time": 58.125,
          "velocity": 0.7086614173228346
        },
        {
          "duration": 0.375,
          "durationTicks": 256,
          "midi": 57,
          "name": "A3",
          "ticks": 40064,
          "time": 58.6875,
          "velocity": 0.6771653543307087
        },
        {
          "duration": 0.375,
          "durationTicks": 256,
          "midi": 61,
          "name": "C#4",
          "ticks": 40064,
          "time": 58.6875,
          "velocity": 0.6771653543307087
        },
        {
          "duration": 0.375,
          "durationTicks": 256,
          "midi": 64,
          "name": "E4",
          "ticks": 40064,
          "time": 58.6875,
          "velocity": 0.6771653543307087
        },
        {
          "duration": 0.1875,
          "durationTicks": 128,
          "midi": 63,
          "name": "D#4",
          "ticks": 40320,
          "time": 59.0625,
          "velocity": 0.6299212598425197
        },
        {
          "duration": 0.1875,
          "durationTicks": 128,
          "midi": 61,
          "name": "C#4",
          "ticks": 40448,
          "time": 59.25,
          "velocity": 0.6062992125984252
        },
        {
          "duration": 0.1875,
          "durationTicks": 128,
          "midi": 59,
          "name": "B3",
          "ticks": 40576,
          "time": 59.4375,
          "velocity": 0.6456692913385826
        },
        {
          "duration": 0.5625,
          "durationTicks": 384,
          "midi": 59,
          "name": "B3",
          "ticks": 40704,
          "time": 59.625,
          "velocity": 0.6220472440944882
        },
        {
          "duration": 0.375,
          "durationTicks": 256,
          "midi": 69,
          "name": "A4",
          "ticks": 41088,
          "time": 60.1875,
          "velocity": 0.84251968503937
        },
        {
          "duration": 0.375,
          "durationTicks": 256,
          "midi": 73,
          "name": "C#5",
          "ticks": 41088,
          "time": 60.1875,
          "velocity": 0.84251968503937
        },
        {
          "duration": 0.375,
          "durationTicks": 256,
          "midi": 76,
          "name": "E5",
          "ticks": 41088,
          "time": 60.1875,
          "velocity": 0.84251968503937
        },
        {
          "duration": 0.375,
          "durationTicks": 256,
          "midi": 52,
          "name": "E3",
          "ticks": 41344,
          "time": 60.5625,
          "velocity": 0.5905511811023622
        },
        {
          "duration": 0.1875,
          "durationTicks": 128,
          "midi": 56,
          "name": "G#3",
          "ticks": 41344,
          "time": 60.5625,
          "velocity": 0.5905511811023622
        },
        {
          "duration": 0.1875,
          "durationTicks": 128,
          "midi": 56,
          "name": "G#3",
          "ticks": 41472,
          "time": 60.75,
          "velocity": 0.6141732283464567
        },
        {
          "duration": 0.1875,
          "durationTicks": 128,
          "midi": 63,
          "name": "D#4",
          "ticks": 41600,
          "time": 60.9375,
          "velocity": 0.7716535433070866
        },
        {
          "duration": 0.28125,
          "durationTicks": 192,
          "midi": 54,
          "name": "F#3",
          "ticks": 41728,
          "time": 61.125,
          "velocity": 0.6220472440944882
        },
        {
          "duration": 0.28125,
          "durationTicks": 192,
          "midi": 57,
          "name": "A3",
          "ticks": 41728,
          "time": 61.125,
          "velocity": 0.6220472440944882
        },
        {
          "duration": 0.28125,
          "durationTicks": 192,
          "midi": 61,
          "name": "C#4",
          "ticks": 41728,
          "time": 61.125,
          "velocity": 0.6220472440944882
        },
        {
          "duration": 0.28125,
          "durationTicks": 192,
          "midi": 54,
          "name": "F#3",
          "ticks": 42112,
          "time": 61.6875,
          "velocity": 0.7007874015748031
        },
        {
          "duration": 0.28125,
          "durationTicks": 192,
          "midi": 57,
          "name": "A3",
          "ticks": 42112,
          "time": 61.6875,
          "velocity": 0.7007874015748031
        },
        {
          "duration": 0.28125,
          "durationTicks": 192,
          "midi": 61,
          "name": "C#4",
          "ticks": 42112,
          "time": 61.6875,
          "velocity": 0.7007874015748031
        },
        {
          "duration": 0.1875,
          "durationTicks": 128,
          "midi": 54,
          "name": "F#3",
          "ticks": 42496,
          "time": 62.25,
          "velocity": 0.6535433070866141
        },
        {
          "duration": 0.1875,
          "durationTicks": 128,
          "midi": 57,
          "name": "A3",
          "ticks": 42496,
          "time": 62.25,
          "velocity": 0.6535433070866141
        },
        {
          "duration": 0.1875,
          "durationTicks": 128,
          "midi": 61,
          "name": "C#4",
          "ticks": 42496,
          "time": 62.25,
          "velocity": 0.6535433070866141
        },
        {
          "duration": 0.5625,
          "durationTicks": 384,
          "midi": 58,
          "name": "A#3",
          "ticks": 42752,
          "time": 62.625,
          "velocity": 0.7086614173228346
        },
        {
          "duration": 0.5625,
          "durationTicks": 384,
          "midi": 63,
          "name": "D#4",
          "ticks": 42752,
          "time": 62.625,
          "velocity": 0.7086614173228346
        },
        {
          "duration": 0.5625,
          "durationTicks": 384,
          "midi": 58,
          "name": "A#3",
          "ticks": 43136,
          "time": 63.1875,
          "velocity": 0.6692913385826772
        },
        {
          "duration": 0.5625,
          "durationTicks": 384,
          "midi": 63,
          "name": "D#4",
          "ticks": 43136,
          "time": 63.1875,
          "velocity": 0.6692913385826772
        },
        {
          "duration": 0.09375,
          "durationTicks": 64,
          "midi": 75,
          "name": "D#5",
          "ticks": 43520,
          "time": 63.75,
          "velocity": 1
        },
        {
          "duration": 0.09375,
          "durationTicks": 64,
          "midi": 83,
          "name": "B5",
          "ticks": 43520,
          "time": 63.75,
          "velocity": 1
        },
        {
          "duration": 0.09375,
          "durationTicks": 64,
          "midi": 75,
          "name": "D#5",
          "ticks": 43584,
          "time": 63.84375,
          "velocity": 0.8110236220472441
        },
        {
          "duration": 0.09375,
          "durationTicks": 64,
          "midi": 83,
          "name": "B5",
          "ticks": 43584,
          "time": 63.84375,
          "velocity": 0.8110236220472441
        },
        {
          "duration": 0.09375,
          "durationTicks": 64,
          "midi": 75,
          "name": "D#5",
          "ticks": 43648,
          "time": 63.9375,
          "velocity": 0.7401574803149606
        },
        {
          "duration": 0.09375,
          "durationTicks": 64,
          "midi": 78,
          "name": "F#5",
          "ticks": 43648,
          "time": 63.9375,
          "velocity": 0.7401574803149606
        },
        {
          "duration": 0.09375,
          "durationTicks": 64,
          "midi": 75,
          "name": "D#5",
          "ticks": 43712,
          "time": 64.03125,
          "velocity": 0.7795275590551181
        },
        {
          "duration": 0.09375,
          "durationTicks": 64,
          "midi": 78,
          "name": "F#5",
          "ticks": 43712,
          "time": 64.03125,
          "velocity": 0.7795275590551181
        },
        {
          "duration": 0.5625,
          "durationTicks": 384,
          "midi": 68,
          "name": "G#4",
          "ticks": 43776,
          "time": 64.125,
          "velocity": 0.9448818897637795
        },
        {
          "duration": 0.5625,
          "durationTicks": 384,
          "midi": 71,
          "name": "B4",
          "ticks": 43776,
          "time": 64.125,
          "velocity": 0.9448818897637795
        },
        {
          "duration": 0.5625,
          "durationTicks": 384,
          "midi": 76,
          "name": "E5",
          "ticks": 43776,
          "time": 64.125,
          "velocity": 0.9448818897637795
        },
        {
          "duration": 0.5625,
          "durationTicks": 384,
          "midi": 80,
          "name": "G#5",
          "ticks": 43776,
          "time": 64.125,
          "velocity": 0.9448818897637795
        },
        {
          "duration": 0.1875,
          "durationTicks": 128,
          "midi": 68,
          "name": "G#4",
          "ticks": 44160,
          "time": 64.6875,
          "velocity": 0.9291338582677166
        },
        {
          "duration": 0.1875,
          "durationTicks": 128,
          "midi": 76,
          "name": "E5",
          "ticks": 44160,
          "time": 64.6875,
          "velocity": 0.9291338582677166
        },
        {
          "duration": 0.1875,
          "durationTicks": 128,
          "midi": 80,
          "name": "G#5",
          "ticks": 44160,
          "time": 64.6875,
          "velocity": 0.9291338582677166
        },
        {
          "duration": 0.5625,
          "durationTicks": 384,
          "midi": 66,
          "name": "F#4",
          "ticks": 44288,
          "time": 64.875,
          "velocity": 0.8031496062992126
        },
        {
          "duration": 0.1875,
          "durationTicks": 128,
          "midi": 70,
          "name": "A#4",
          "ticks": 44288,
          "time": 64.875,
          "velocity": 0.8031496062992126
        },
        {
          "duration": 0.1875,
          "durationTicks": 128,
          "midi": 78,
          "name": "F#5",
          "ticks": 44288,
          "time": 64.875,
          "velocity": 0.8031496062992126
        },
        {
          "duration": 0.375,
          "durationTicks": 256,
          "midi": 70,
          "name": "A#4",
          "ticks": 44416,
          "time": 65.0625,
          "velocity": 0.7952755905511811
        },
        {
          "duration": 0.1875,
          "durationTicks": 128,
          "midi": 78,
          "name": "F#5",
          "ticks": 44416,
          "time": 65.0625,
          "velocity": 0.7952755905511811
        },
        {
          "duration": 0.1875,
          "durationTicks": 128,
          "midi": 78,
          "name": "F#5",
          "ticks": 44544,
          "time": 65.25,
          "velocity": 0.7716535433070866
        },
        {
          "duration": 0.375,
          "durationTicks": 256,
          "midi": 66,
          "name": "F#4",
          "ticks": 44672,
          "time": 65.4375,
          "velocity": 0.7874015748031497
        },
        {
          "duration": 0.375,
          "durationTicks": 256,
          "midi": 71,
          "name": "B4",
          "ticks": 44672,
          "time": 65.4375,
          "velocity": 0.7874015748031497
        },
        {
          "duration": 0.375,
          "durationTicks": 256,
          "midi": 75,
          "name": "D#5",
          "ticks": 44672,
          "time": 65.4375,
          "velocity": 0.7874015748031497
        },
        {
          "duration": 0.9375,
          "durationTicks": 640,
          "midi": 66,
          "name": "F#4",
          "ticks": 44928,
          "time": 65.8125,
          "velocity": 0.9212598425196851
        },
        {
          "duration": 0.9375,
          "durationTicks": 640,
          "midi": 71,
          "name": "B4",
          "ticks": 44928,
          "time": 65.8125,
          "velocity": 0.9212598425196851
        },
        {
          "duration": 0.9375,
          "durationTicks": 640,
          "midi": 75,
          "name": "D#5",
          "ticks": 44928,
          "time": 65.8125,
          "velocity": 0.9212598425196851
        },
        {
          "duration": 0.9375,
          "durationTicks": 640,
          "midi": 78,
          "name": "F#5",
          "ticks": 44928,
          "time": 65.8125,
          "velocity": 0.9212598425196851
        },
        {
          "duration": 0.09375,
          "durationTicks": 64,
          "midi": 75,
          "name": "D#5",
          "ticks": 45568,
          "time": 66.75,
          "velocity": 1
        },
        {
          "duration": 0.09375,
          "durationTicks": 64,
          "midi": 83,
          "name": "B5",
          "ticks": 45568,
          "time": 66.75,
          "velocity": 1
        },
        {
          "duration": 0.09375,
          "durationTicks": 64,
          "midi": 75,
          "name": "D#5",
          "ticks": 45632,
          "time": 66.84375,
          "velocity": 0.9212598425196851
        },
        {
          "duration": 0.09375,
          "durationTicks": 64,
          "midi": 83,
          "name": "B5",
          "ticks": 45632,
          "time": 66.84375,
          "velocity": 0.9212598425196851
        },
        {
          "duration": 0.09375,
          "durationTicks": 64,
          "midi": 75,
          "name": "D#5",
          "ticks": 45696,
          "time": 66.9375,
          "velocity": 0.7874015748031497
        },
        {
          "duration": 0.09375,
          "durationTicks": 64,
          "midi": 78,
          "name": "F#5",
          "ticks": 45696,
          "time": 66.9375,
          "velocity": 0.7874015748031497
        },
        {
          "duration": 0.09375,
          "durationTicks": 64,
          "midi": 75,
          "name": "D#5",
          "ticks": 45760,
          "time": 67.03125,
          "velocity": 0.8818897637795275
        },
        {
          "duration": 0.09375,
          "durationTicks": 64,
          "midi": 78,
          "name": "F#5",
          "ticks": 45760,
          "time": 67.03125,
          "velocity": 0.8818897637795275
        },
        {
          "duration": 0.5625,
          "durationTicks": 384,
          "midi": 68,
          "name": "G#4",
          "ticks": 45824,
          "time": 67.125,
          "velocity": 0.9448818897637795
        },
        {
          "duration": 0.5625,
          "durationTicks": 384,
          "midi": 71,
          "name": "B4",
          "ticks": 45824,
          "time": 67.125,
          "velocity": 0.9448818897637795
        },
        {
          "duration": 0.5625,
          "durationTicks": 384,
          "midi": 76,
          "name": "E5",
          "ticks": 45824,
          "time": 67.125,
          "velocity": 0.9448818897637795
        },
        {
          "duration": 0.5625,
          "durationTicks": 384,
          "midi": 80,
          "name": "G#5",
          "ticks": 45824,
          "time": 67.125,
          "velocity": 0.9448818897637795
        },
        {
          "duration": 0.1875,
          "durationTicks": 128,
          "midi": 76,
          "name": "E5",
          "ticks": 46208,
          "time": 67.6875,
          "velocity": 0.8818897637795275
        },
        {
          "duration": 0.1875,
          "durationTicks": 128,
          "midi": 80,
          "name": "G#5",
          "ticks": 46208,
          "time": 67.6875,
          "velocity": 0.8818897637795275
        },
        {
          "duration": 0.1875,
          "durationTicks": 128,
          "midi": 66,
          "name": "F#4",
          "ticks": 46336,
          "time": 67.875,
          "velocity": 0.8188976377952756
        },
        {
          "duration": 0.1875,
          "durationTicks": 128,
          "midi": 73,
          "name": "C#5",
          "ticks": 46336,
          "time": 67.875,
          "velocity": 0.8188976377952756
        },
        {
          "duration": 0.1875,
          "durationTicks": 128,
          "midi": 78,
          "name": "F#5",
          "ticks": 46336,
          "time": 67.875,
          "velocity": 0.8188976377952756
        },
        {
          "duration": 0.1875,
          "durationTicks": 128,
          "midi": 68,
          "name": "G#4",
          "ticks": 46464,
          "time": 68.0625,
          "velocity": 0.9291338582677166
        },
        {
          "duration": 0.1875,
          "durationTicks": 128,
          "midi": 73,
          "name": "C#5",
          "ticks": 46464,
          "time": 68.0625,
          "velocity": 0.9291338582677166
        },
        {
          "duration": 0.1875,
          "durationTicks": 128,
          "midi": 80,
          "name": "G#5",
          "ticks": 46464,
          "time": 68.0625,
          "velocity": 0.9291338582677166
        },
        {
          "duration": 0.1875,
          "durationTicks": 128,
          "midi": 66,
          "name": "F#4",
          "ticks": 46592,
          "time": 68.25,
          "velocity": 0.8346456692913385
        },
        {
          "duration": 0.1875,
          "durationTicks": 128,
          "midi": 73,
          "name": "C#5",
          "ticks": 46592,
          "time": 68.25,
          "velocity": 0.8346456692913385
        },
        {
          "duration": 0.1875,
          "durationTicks": 128,
          "midi": 78,
          "name": "F#5",
          "ticks": 46592,
          "time": 68.25,
          "velocity": 0.8346456692913385
        },
        {
          "duration": 0.9375,
          "durationTicks": 640,
          "midi": 63,
          "name": "D#4",
          "ticks": 46720,
          "time": 68.4375,
          "velocity": 0.8188976377952756
        },
        {
          "duration": 0.9375,
          "durationTicks": 640,
          "midi": 66,
          "name": "F#4",
          "ticks": 46720,
          "time": 68.4375,
          "velocity": 0.8188976377952756
        },
        {
          "duration": 0.9375,
          "durationTicks": 640,
          "midi": 71,
          "name": "B4",
          "ticks": 46720,
          "time": 68.4375,
          "velocity": 0.8188976377952756
        },
        {
          "duration": 0.9375,
          "durationTicks": 640,
          "midi": 75,
          "name": "D#5",
          "ticks": 46720,
          "time": 68.4375,
          "velocity": 0.8188976377952756
        },
        {
          "duration": 0.1875,
          "durationTicks": 128,
          "midi": 71,
          "name": "B4",
          "ticks": 47360,
          "time": 69.375,
          "velocity": 0.7716535433070866
        },
        {
          "duration": 0.1875,
          "durationTicks": 128,
          "midi": 75,
          "name": "D#5",
          "ticks": 47488,
          "time": 69.5625,
          "velocity": 0.9763779527559056
        },
        {
          "duration": 0.09375,
          "durationTicks": 64,
          "midi": 75,
          "name": "D#5",
          "ticks": 47616,
          "time": 69.75,
          "velocity": 1
        },
        {
          "duration": 0.09375,
          "durationTicks": 64,
          "midi": 83,
          "name": "B5",
          "ticks": 47616,
          "time": 69.75,
          "velocity": 1
        },
        {
          "duration": 0.09375,
          "durationTicks": 64,
          "midi": 75,
          "name": "D#5",
          "ticks": 47680,
          "time": 69.84375,
          "velocity": 0.952755905511811
        },
        {
          "duration": 0.09375,
          "durationTicks": 64,
          "midi": 83,
          "name": "B5",
          "ticks": 47680,
          "time": 69.84375,
          "velocity": 0.952755905511811
        },
        {
          "duration": 0.09375,
          "durationTicks": 64,
          "midi": 75,
          "name": "D#5",
          "ticks": 47744,
          "time": 69.9375,
          "velocity": 0.7874015748031497
        },
        {
          "duration": 0.09375,
          "durationTicks": 64,
          "midi": 78,
          "name": "F#5",
          "ticks": 47744,
          "time": 69.9375,
          "velocity": 0.7874015748031497
        },
        {
          "duration": 0.09375,
          "durationTicks": 64,
          "midi": 75,
          "name": "D#5",
          "ticks": 47808,
          "time": 70.03125,
          "velocity": 0.8740157480314961
        },
        {
          "duration": 0.09375,
          "durationTicks": 64,
          "midi": 78,
          "name": "F#5",
          "ticks": 47808,
          "time": 70.03125,
          "velocity": 0.8740157480314961
        },
        {
          "duration": 0.375,
          "durationTicks": 256,
          "midi": 71,
          "name": "B4",
          "ticks": 47872,
          "time": 70.125,
          "velocity": 0.937007874015748
        },
        {
          "duration": 0.375,
          "durationTicks": 256,
          "midi": 76,
          "name": "E5",
          "ticks": 47872,
          "time": 70.125,
          "velocity": 0.937007874015748
        },
        {
          "duration": 0.375,
          "durationTicks": 256,
          "midi": 80,
          "name": "G#5",
          "ticks": 47872,
          "time": 70.125,
          "velocity": 0.937007874015748
        },
        {
          "duration": 0.375,
          "durationTicks": 256,
          "midi": 71,
          "name": "B4",
          "ticks": 48128,
          "time": 70.5,
          "velocity": 0.9212598425196851
        },
        {
          "duration": 0.375,
          "durationTicks": 256,
          "midi": 76,
          "name": "E5",
          "ticks": 48128,
          "time": 70.5,
          "velocity": 0.9212598425196851
        },
        {
          "duration": 0.1875,
          "durationTicks": 128,
          "midi": 80,
          "name": "G#5",
          "ticks": 48128,
          "time": 70.5,
          "velocity": 0.9212598425196851
        },
        {
          "duration": 0.1875,
          "durationTicks": 128,
          "midi": 80,
          "name": "G#5",
          "ticks": 48256,
          "time": 70.6875,
          "velocity": 0.9212598425196851
        },
        {
          "duration": 0.5625,
          "durationTicks": 384,
          "midi": 70,
          "name": "A#4",
          "ticks": 48384,
          "time": 70.875,
          "velocity": 0.9212598425196851
        },
        {
          "duration": 0.5625,
          "durationTicks": 384,
          "midi": 73,
          "name": "C#5",
          "ticks": 48384,
          "time": 70.875,
          "velocity": 0.9212598425196851
        },
        {
          "duration": 0.5625,
          "durationTicks": 384,
          "midi": 78,
          "name": "F#5",
          "ticks": 48384,
          "time": 70.875,
          "velocity": 0.9212598425196851
        },
        {
          "duration": 0.375,
          "durationTicks": 256,
          "midi": 82,
          "name": "A#5",
          "ticks": 48384,
          "time": 70.875,
          "velocity": 0.9212598425196851
        },
        {
          "duration": 0.1875,
          "durationTicks": 128,
          "midi": 82,
          "name": "A#5",
          "ticks": 48640,
          "time": 71.25,
          "velocity": 0.952755905511811
        },
        {
          "duration": 0.375,
          "durationTicks": 256,
          "midi": 75,
          "name": "D#5",
          "ticks": 48768,
          "time": 71.4375,
          "velocity": 1
        },
        {
          "duration": 0.375,
          "durationTicks": 256,
          "midi": 87,
          "name": "D#6",
          "ticks": 48768,
          "time": 71.4375,
          "velocity": 1
        },
        {
          "duration": 0.1875,
          "durationTicks": 128,
          "midi": 79,
          "name": "G5",
          "ticks": 48896,
          "time": 71.625,
          "velocity": 1
        },
        {
          "duration": 0.1875,
          "durationTicks": 128,
          "midi": 73,
          "name": "C#5",
          "ticks": 49024,
          "time": 71.8125,
          "velocity": 0.8188976377952756
        },
        {
          "duration": 0.1875,
          "durationTicks": 128,
          "midi": 79,
          "name": "G5",
          "ticks": 49024,
          "time": 71.8125,
          "velocity": 0.8188976377952756
        },
        {
          "duration": 0.1875,
          "durationTicks": 128,
          "midi": 85,
          "name": "C#6",
          "ticks": 49024,
          "time": 71.8125,
          "velocity": 0.8188976377952756
        },
        {
          "duration": 0.1875,
          "durationTicks": 128,
          "midi": 71,
          "name": "B4",
          "ticks": 49152,
          "time": 72,
          "velocity": 0.8346456692913385
        },
        {
          "duration": 0.1875,
          "durationTicks": 128,
          "midi": 79,
          "name": "G5",
          "ticks": 49152,
          "time": 72,
          "velocity": 0.8346456692913385
        },
        {
          "duration": 0.1875,
          "durationTicks": 128,
          "midi": 83,
          "name": "B5",
          "ticks": 49152,
          "time": 72,
          "velocity": 0.8346456692913385
        },
        {
          "duration": 0.1875,
          "durationTicks": 128,
          "midi": 70,
          "name": "A#4",
          "ticks": 49280,
          "time": 72.1875,
          "velocity": 0.84251968503937
        },
        {
          "duration": 0.1875,
          "durationTicks": 128,
          "midi": 82,
          "name": "A#5",
          "ticks": 49280,
          "time": 72.1875,
          "velocity": 0.84251968503937
        },
        {
          "duration": 0.1875,
          "durationTicks": 128,
          "midi": 71,
          "name": "B4",
          "ticks": 49408,
          "time": 72.375,
          "velocity": 0.9291338582677166
        },
        {
          "duration": 0.1875,
          "durationTicks": 128,
          "midi": 83,
          "name": "B5",
          "ticks": 49408,
          "time": 72.375,
          "velocity": 0.9291338582677166
        },
        {
          "duration": 0.1875,
          "durationTicks": 128,
          "midi": 68,
          "name": "G#4",
          "ticks": 49536,
          "time": 72.5625,
          "velocity": 0.7716535433070866
        },
        {
          "duration": 0.1875,
          "durationTicks": 128,
          "midi": 80,
          "name": "G#5",
          "ticks": 49536,
          "time": 72.5625,
          "velocity": 0.7716535433070866
        },
        {
          "duration": 0.1875,
          "durationTicks": 128,
          "midi": 68,
          "name": "G#4",
          "ticks": 49664,
          "time": 72.75,
          "velocity": 0.905511811023622
        },
        {
          "duration": 0.1875,
          "durationTicks": 128,
          "midi": 80,
          "name": "G#5",
          "ticks": 49664,
          "time": 72.75,
          "velocity": 0.905511811023622
        },
        {
          "duration": 0.1875,
          "durationTicks": 128,
          "midi": 75,
          "name": "D#5",
          "ticks": 49792,
          "time": 72.9375,
          "velocity": 1
        },
        {
          "duration": 0.1875,
          "durationTicks": 128,
          "midi": 87,
          "name": "D#6",
          "ticks": 49792,
          "time": 72.9375,
          "velocity": 1
        },
        {
          "duration": 1.5,
          "durationTicks": 1024,
          "midi": 73,
          "name": "C#5",
          "ticks": 49920,
          "time": 73.125,
          "velocity": 0.84251968503937
        },
        {
          "duration": 1.5,
          "durationTicks": 1024,
          "midi": 76,
          "name": "E5",
          "ticks": 49920,
          "time": 73.125,
          "velocity": 0.84251968503937
        },
        {
          "duration": 1.5,
          "durationTicks": 1024,
          "midi": 80,
          "name": "G#5",
          "ticks": 49920,
          "time": 73.125,
          "velocity": 0.84251968503937
        },
        {
          "duration": 1.5,
          "durationTicks": 1024,
          "midi": 85,
          "name": "C#6",
          "ticks": 49920,
          "time": 73.125,
          "velocity": 0.84251968503937
        },
        {
          "duration": 0.75,
          "durationTicks": 512,
          "midi": 70,
          "name": "A#4",
          "ticks": 50944,
          "time": 74.625,
          "velocity": 0.8110236220472441
        },
        {
          "duration": 0.75,
          "durationTicks": 512,
          "midi": 73,
          "name": "C#5",
          "ticks": 50944,
          "time": 74.625,
          "velocity": 0.8110236220472441
        },
        {
          "duration": 0.75,
          "durationTicks": 512,
          "midi": 78,
          "name": "F#5",
          "ticks": 50944,
          "time": 74.625,
          "velocity": 0.8110236220472441
        },
        {
          "duration": 0.75,
          "durationTicks": 512,
          "midi": 82,
          "name": "A#5",
          "ticks": 50944,
          "time": 74.625,
          "velocity": 0.8110236220472441
        },
        {
          "duration": 0.1875,
          "durationTicks": 128,
          "midi": 73,
          "name": "C#5",
          "ticks": 51456,
          "time": 75.375,
          "velocity": 0.8661417322834646
        },
        {
          "duration": 0.1875,
          "durationTicks": 128,
          "midi": 78,
          "name": "F#5",
          "ticks": 51456,
          "time": 75.375,
          "velocity": 0.8661417322834646
        },
        {
          "duration": 0.1875,
          "durationTicks": 128,
          "midi": 82,
          "name": "A#5",
          "ticks": 51456,
          "time": 75.375,
          "velocity": 0.8661417322834646
        },
        {
          "duration": 0.1875,
          "durationTicks": 128,
          "midi": 78,
          "name": "F#5",
          "ticks": 51712,
          "time": 75.75,
          "velocity": 0.9606299212598425
        },
        {
          "duration": 0.1875,
          "durationTicks": 128,
          "midi": 82,
          "name": "A#5",
          "ticks": 51712,
          "time": 75.75,
          "velocity": 0.9606299212598425
        },
        {
          "duration": 0.1875,
          "durationTicks": 128,
          "midi": 85,
          "name": "C#6",
          "ticks": 51712,
          "time": 75.75,
          "velocity": 0.9606299212598425
        },
        {
          "duration": 0.375,
          "durationTicks": 256,
          "midi": 66,
          "name": "F#4",
          "ticks": 51968,
          "time": 76.125,
          "velocity": 0.7322834645669292
        },
        {
          "duration": 0.375,
          "durationTicks": 256,
          "midi": 78,
          "name": "F#5",
          "ticks": 51968,
          "time": 76.125,
          "velocity": 0.7322834645669292
        },
        {
          "duration": 0.1875,
          "durationTicks": 128,
          "midi": 71,
          "name": "B4",
          "ticks": 52224,
          "time": 76.5,
          "velocity": 0.6535433070866141
        },
        {
          "duration": 0.1875,
          "durationTicks": 128,
          "midi": 71,
          "name": "B4",
          "ticks": 52352,
          "time": 76.6875,
          "velocity": 0.8976377952755905
        },
        {
          "duration": 0.1875,
          "durationTicks": 128,
          "midi": 70,
          "name": "A#4",
          "ticks": 52480,
          "time": 76.875,
          "velocity": 0.905511811023622
        },
        {
          "duration": 0.375,
          "durationTicks": 256,
          "midi": 71,
          "name": "B4",
          "ticks": 52608,
          "time": 77.0625,
          "velocity": 0.9212598425196851
        },
        {
          "duration": 0.09375,
          "durationTicks": 64,
          "midi": 67,
          "name": "G4",
          "ticks": 52864,
          "time": 77.4375,
          "velocity": 1
        },
        {
          "duration": 0.09375,
          "durationTicks": 64,
          "midi": 71,
          "name": "B4",
          "ticks": 52864,
          "time": 77.4375,
          "velocity": 1
        },
        {
          "duration": 0.09375,
          "durationTicks": 64,
          "midi": 73,
          "name": "C#5",
          "ticks": 52864,
          "time": 77.4375,
          "velocity": 1
        },
        {
          "duration": 0.09375,
          "durationTicks": 64,
          "midi": 75,
          "name": "D#5",
          "ticks": 52864,
          "time": 77.4375,
          "velocity": 1
        },
        {
          "duration": 0.09375,
          "durationTicks": 64,
          "midi": 78,
          "name": "F#5",
          "ticks": 52864,
          "time": 77.4375,
          "velocity": 1
        },
        {
          "duration": 0.5625,
          "durationTicks": 384,
          "midi": 64,
          "name": "E4",
          "ticks": 53120,
          "time": 77.8125,
          "velocity": 0.8031496062992126
        },
        {
          "duration": 0.5625,
          "durationTicks": 384,
          "midi": 67,
          "name": "G4",
          "ticks": 53120,
          "time": 77.8125,
          "velocity": 0.8031496062992126
        },
        {
          "duration": 0.1875,
          "durationTicks": 128,
          "midi": 71,
          "name": "B4",
          "ticks": 53120,
          "time": 77.8125,
          "velocity": 0.8031496062992126
        },
        {
          "duration": 0.1875,
          "durationTicks": 128,
          "midi": 71,
          "name": "B4",
          "ticks": 53248,
          "time": 78,
          "velocity": 0.7716535433070866
        },
        {
          "duration": 0.1875,
          "durationTicks": 128,
          "midi": 71,
          "name": "B4",
          "ticks": 53376,
          "time": 78.1875,
          "velocity": 0.7874015748031497
        },
        {
          "duration": 0.1875,
          "durationTicks": 128,
          "midi": 70,
          "name": "A#4",
          "ticks": 53504,
          "time": 78.375,
          "velocity": 0.8582677165354331
        },
        {
          "duration": 0.1875,
          "durationTicks": 128,
          "midi": 71,
          "name": "B4",
          "ticks": 53632,
          "time": 78.5625,
          "velocity": 0.9133858267716536
        },
        {
          "duration": 0.1875,
          "durationTicks": 128,
          "midi": 70,
          "name": "A#4",
          "ticks": 53760,
          "time": 78.75,
          "velocity": 0.8346456692913385
        },
        {
          "duration": 0.1875,
          "durationTicks": 128,
          "midi": 71,
          "name": "B4",
          "ticks": 53888,
          "time": 78.9375,
          "velocity": 0.937007874015748
        },
        {
          "duration": 0.1875,
          "durationTicks": 128,
          "midi": 63,
          "name": "D#4",
          "ticks": 54016,
          "time": 79.125,
          "velocity": 0.9448818897637795
        },
        {
          "duration": 0.1875,
          "durationTicks": 128,
          "midi": 68,
          "name": "G#4",
          "ticks": 54016,
          "time": 79.125,
          "velocity": 0.9448818897637795
        },
        {
          "duration": 0.1875,
          "durationTicks": 128,
          "midi": 63,
          "name": "D#4",
          "ticks": 54144,
          "time": 79.3125,
          "velocity": 0.8582677165354331
        },
        {
          "duration": 0.1875,
          "durationTicks": 128,
          "midi": 68,
          "name": "G#4",
          "ticks": 54144,
          "time": 79.3125,
          "velocity": 0.8582677165354331
        },
        {
          "duration": 0.5625,
          "durationTicks": 384,
          "midi": 63,
          "name": "D#4",
          "ticks": 54272,
          "time": 79.5,
          "velocity": 1
        },
        {
          "duration": 0.1875,
          "durationTicks": 128,
          "midi": 75,
          "name": "D#5",
          "ticks": 54272,
          "time": 79.5,
          "velocity": 1
        },
        {
          "duration": 0.375,
          "durationTicks": 256,
          "midi": 73,
          "name": "C#5",
          "ticks": 54400,
          "time": 79.6875,
          "velocity": 0.9133858267716536
        },
        {
          "duration": 0.5625,
          "durationTicks": 384,
          "midi": 64,
          "name": "E4",
          "ticks": 54656,
          "time": 80.0625,
          "velocity": 0.84251968503937
        },
        {
          "duration": 0.375,
          "durationTicks": 256,
          "midi": 71,
          "name": "B4",
          "ticks": 54656,
          "time": 80.0625,
          "velocity": 0.84251968503937
        },
        {
          "duration": 0.1875,
          "durationTicks": 128,
          "midi": 71,
          "name": "B4",
          "ticks": 54912,
          "time": 80.4375,
          "velocity": 0.8582677165354331
        },
        {
          "duration": 0.5625,
          "durationTicks": 384,
          "midi": 61,
          "name": "C#4",
          "ticks": 55040,
          "time": 80.625,
          "velocity": 0.8267716535433071
        },
        {
          "duration": 0.5625,
          "durationTicks": 384,
          "midi": 66,
          "name": "F#4",
          "ticks": 55040,
          "time": 80.625,
          "velocity": 0.8267716535433071
        },
        {
          "duration": 0.1875,
          "durationTicks": 128,
          "midi": 70,
          "name": "A#4",
          "ticks": 55040,
          "time": 80.625,
          "velocity": 0.8267716535433071
        },
        {
          "duration": 0.1875,
          "durationTicks": 128,
          "midi": 71,
          "name": "B4",
          "ticks": 55168,
          "time": 80.8125,
          "velocity": 0.8503937007874016
        },
        {
          "duration": 0.1875,
          "durationTicks": 128,
          "midi": 70,
          "name": "A#4",
          "ticks": 55296,
          "time": 81,
          "velocity": 0.7559055118110236
        },
        {
          "duration": 0.9375,
          "durationTicks": 640,
          "midi": 58,
          "name": "A#3",
          "ticks": 55424,
          "time": 81.1875,
          "velocity": 0.8110236220472441
        },
        {
          "duration": 0.9375,
          "durationTicks": 640,
          "midi": 66,
          "name": "F#4",
          "ticks": 55424,
          "time": 81.1875,
          "velocity": 0.8110236220472441
        },
        {
          "duration": 0.1875,
          "durationTicks": 128,
          "midi": 63,
          "name": "D#4",
          "ticks": 56064,
          "time": 82.125,
          "velocity": 0.952755905511811
        },
        {
          "duration": 0.1875,
          "durationTicks": 128,
          "midi": 68,
          "name": "G#4",
          "ticks": 56064,
          "time": 82.125,
          "velocity": 0.952755905511811
        },
        {
          "duration": 0.1875,
          "durationTicks": 128,
          "midi": 63,
          "name": "D#4",
          "ticks": 56192,
          "time": 82.3125,
          "velocity": 0.8976377952755905
        },
        {
          "duration": 0.1875,
          "durationTicks": 128,
          "midi": 68,
          "name": "G#4",
          "ticks": 56192,
          "time": 82.3125,
          "velocity": 0.8976377952755905
        },
        {
          "duration": 0.5625,
          "durationTicks": 384,
          "midi": 63,
          "name": "D#4",
          "ticks": 56320,
          "time": 82.5,
          "velocity": 1
        },
        {
          "duration": 0.1875,
          "durationTicks": 128,
          "midi": 68,
          "name": "G#4",
          "ticks": 56320,
          "time": 82.5,
          "velocity": 1
        },
        {
          "duration": 0.1875,
          "durationTicks": 128,
          "midi": 75,
          "name": "D#5",
          "ticks": 56320,
          "time": 82.5,
          "velocity": 1
        },
        {
          "duration": 0.375,
          "durationTicks": 256,
          "midi": 68,
          "name": "G#4",
          "ticks": 56448,
          "time": 82.6875,
          "velocity": 0.984251968503937
        },
        {
          "duration": 0.375,
          "durationTicks": 256,
          "midi": 73,
          "name": "C#5",
          "ticks": 56448,
          "time": 82.6875,
          "velocity": 0.984251968503937
        },
        {
          "duration": 0.375,
          "durationTicks": 256,
          "midi": 66,
          "name": "F#4",
          "ticks": 56704,
          "time": 83.0625,
          "velocity": 0.8110236220472441
        },
        {
          "duration": 0.375,
          "durationTicks": 256,
          "midi": 71,
          "name": "B4",
          "ticks": 56704,
          "time": 83.0625,
          "velocity": 0.8110236220472441
        },
        {
          "duration": 0.1875,
          "durationTicks": 128,
          "midi": 66,
          "name": "F#4",
          "ticks": 56960,
          "time": 83.4375,
          "velocity": 0.905511811023622
        },
        {
          "duration": 0.1875,
          "durationTicks": 128,
          "midi": 71,
          "name": "B4",
          "ticks": 56960,
          "time": 83.4375,
          "velocity": 0.905511811023622
        },
        {
          "duration": 0.5625,
          "durationTicks": 384,
          "midi": 68,
          "name": "G#4",
          "ticks": 57088,
          "time": 83.625,
          "velocity": 0.984251968503937
        },
        {
          "duration": 0.1875,
          "durationTicks": 128,
          "midi": 74,
          "name": "D5",
          "ticks": 57088,
          "time": 83.625,
          "velocity": 0.984251968503937
        },
        {
          "duration": 0.1875,
          "durationTicks": 128,
          "midi": 73,
          "name": "C#5",
          "ticks": 57216,
          "time": 83.8125,
          "velocity": 0.952755905511811
        },
        {
          "duration": 0.1875,
          "durationTicks": 128,
          "midi": 71,
          "name": "B4",
          "ticks": 57344,
          "time": 84,
          "velocity": 0.9212598425196851
        },
        {
          "duration": 0.375,
          "durationTicks": 256,
          "midi": 63,
          "name": "D#4",
          "ticks": 57472,
          "time": 84.1875,
          "velocity": 0.968503937007874
        },
        {
          "duration": 0.375,
          "durationTicks": 256,
          "midi": 75,
          "name": "D#5",
          "ticks": 57472,
          "time": 84.1875,
          "velocity": 0.968503937007874
        },
        {
          "duration": 0.1875,
          "durationTicks": 128,
          "midi": 67,
          "name": "G4",
          "ticks": 57728,
          "time": 84.5625,
          "velocity": 0.7086614173228346
        },
        {
          "duration": 0.1875,
          "durationTicks": 128,
          "midi": 73,
          "name": "C#5",
          "ticks": 57856,
          "time": 84.75,
          "velocity": 1
        },
        {
          "duration": 0.1875,
          "durationTicks": 128,
          "midi": 78,
          "name": "F#5",
          "ticks": 57856,
          "time": 84.75,
          "velocity": 1
        },
        {
          "duration": 0.1875,
          "durationTicks": 128,
          "midi": 67,
          "name": "G4",
          "ticks": 57984,
          "time": 84.9375,
          "velocity": 0.6850393700787402
        },
        {
          "duration": 0.375,
          "durationTicks": 256,
          "midi": 66,
          "name": "F#4",
          "ticks": 58112,
          "time": 85.125,
          "velocity": 1
        },
        {
          "duration": 0.375,
          "durationTicks": 256,
          "midi": 71,
          "name": "B4",
          "ticks": 58112,
          "time": 85.125,
          "velocity": 1
        },
        {
          "duration": 0.375,
          "durationTicks": 256,
          "midi": 78,
          "name": "F#5",
          "ticks": 58112,
          "time": 85.125,
          "velocity": 1
        },
        {
          "duration": 0.1875,
          "durationTicks": 128,
          "midi": 59,
          "name": "B3",
          "ticks": 58368,
          "time": 85.5,
          "velocity": 0.7795275590551181
        },
        {
          "duration": 0.1875,
          "durationTicks": 128,
          "midi": 71,
          "name": "B4",
          "ticks": 58368,
          "time": 85.5,
          "velocity": 0.7795275590551181
        },
        {
          "duration": 0.1875,
          "durationTicks": 128,
          "midi": 59,
          "name": "B3",
          "ticks": 58496,
          "time": 85.6875,
          "velocity": 0.8740157480314961
        },
        {
          "duration": 0.1875,
          "durationTicks": 128,
          "midi": 71,
          "name": "B4",
          "ticks": 58496,
          "time": 85.6875,
          "velocity": 0.8740157480314961
        },
        {
          "duration": 0.1875,
          "durationTicks": 128,
          "midi": 58,
          "name": "A#3",
          "ticks": 58624,
          "time": 85.875,
          "velocity": 0.8661417322834646
        },
        {
          "duration": 0.1875,
          "durationTicks": 128,
          "midi": 70,
          "name": "A#4",
          "ticks": 58624,
          "time": 85.875,
          "velocity": 0.8661417322834646
        },
        {
          "duration": 0.375,
          "durationTicks": 256,
          "midi": 59,
          "name": "B3",
          "ticks": 58752,
          "time": 86.0625,
          "velocity": 0.9291338582677166
        },
        {
          "duration": 0.375,
          "durationTicks": 256,
          "midi": 71,
          "name": "B4",
          "ticks": 58752,
          "time": 86.0625,
          "velocity": 0.9291338582677166
        },
        {
          "duration": 0.375,
          "durationTicks": 256,
          "midi": 66,
          "name": "F#4",
          "ticks": 59008,
          "time": 86.4375,
          "velocity": 1
        },
        {
          "duration": 0.375,
          "durationTicks": 256,
          "midi": 71,
          "name": "B4",
          "ticks": 59008,
          "time": 86.4375,
          "velocity": 1
        },
        {
          "duration": 0.375,
          "durationTicks": 256,
          "midi": 78,
          "name": "F#5",
          "ticks": 59008,
          "time": 86.4375,
          "velocity": 1
        },
        {
          "duration": 0.1875,
          "durationTicks": 128,
          "midi": 59,
          "name": "B3",
          "ticks": 59264,
          "time": 86.8125,
          "velocity": 0.7244094488188977
        },
        {
          "duration": 0.1875,
          "durationTicks": 128,
          "midi": 71,
          "name": "B4",
          "ticks": 59264,
          "time": 86.8125,
          "velocity": 0.7244094488188977
        },
        {
          "duration": 0.1875,
          "durationTicks": 128,
          "midi": 59,
          "name": "B3",
          "ticks": 59392,
          "time": 87,
          "velocity": 0.8661417322834646
        },
        {
          "duration": 0.1875,
          "durationTicks": 128,
          "midi": 71,
          "name": "B4",
          "ticks": 59392,
          "time": 87,
          "velocity": 0.8661417322834646
        },
        {
          "duration": 0.1875,
          "durationTicks": 128,
          "midi": 59,
          "name": "B3",
          "ticks": 59520,
          "time": 87.1875,
          "velocity": 0.8582677165354331
        },
        {
          "duration": 0.1875,
          "durationTicks": 128,
          "midi": 71,
          "name": "B4",
          "ticks": 59520,
          "time": 87.1875,
          "velocity": 0.8582677165354331
        },
        {
          "duration": 0.1875,
          "durationTicks": 128,
          "midi": 66,
          "name": "F#4",
          "ticks": 59648,
          "time": 87.375,
          "velocity": 0.8661417322834646
        },
        {
          "duration": 0.1875,
          "durationTicks": 128,
          "midi": 70,
          "name": "A#4",
          "ticks": 59648,
          "time": 87.375,
          "velocity": 0.8661417322834646
        },
        {
          "duration": 0.1875,
          "durationTicks": 128,
          "midi": 66,
          "name": "F#4",
          "ticks": 59776,
          "time": 87.5625,
          "velocity": 0.9212598425196851
        },
        {
          "duration": 0.1875,
          "durationTicks": 128,
          "midi": 71,
          "name": "B4",
          "ticks": 59776,
          "time": 87.5625,
          "velocity": 0.9212598425196851
        },
        {
          "duration": 0.1875,
          "durationTicks": 128,
          "midi": 66,
          "name": "F#4",
          "ticks": 59904,
          "time": 87.75,
          "velocity": 0.8346456692913385
        },
        {
          "duration": 0.1875,
          "durationTicks": 128,
          "midi": 70,
          "name": "A#4",
          "ticks": 59904,
          "time": 87.75,
          "velocity": 0.8346456692913385
        },
        {
          "duration": 0.1875,
          "durationTicks": 128,
          "midi": 66,
          "name": "F#4",
          "ticks": 60032,
          "time": 87.9375,
          "velocity": 0.9448818897637795
        },
        {
          "duration": 0.1875,
          "durationTicks": 128,
          "midi": 71,
          "name": "B4",
          "ticks": 60032,
          "time": 87.9375,
          "velocity": 0.9448818897637795
        },
        {
          "duration": 0.1875,
          "durationTicks": 128,
          "midi": 63,
          "name": "D#4",
          "ticks": 60160,
          "time": 88.125,
          "velocity": 0.8267716535433071
        },
        {
          "duration": 0.1875,
          "durationTicks": 128,
          "midi": 68,
          "name": "G#4",
          "ticks": 60160,
          "time": 88.125,
          "velocity": 0.8267716535433071
        },
        {
          "duration": 0.1875,
          "durationTicks": 128,
          "midi": 63,
          "name": "D#4",
          "ticks": 60288,
          "time": 88.3125,
          "velocity": 0.8661417322834646
        },
        {
          "duration": 0.1875,
          "durationTicks": 128,
          "midi": 68,
          "name": "G#4",
          "ticks": 60288,
          "time": 88.3125,
          "velocity": 0.8661417322834646
        },
        {
          "duration": 0.5625,
          "durationTicks": 384,
          "midi": 63,
          "name": "D#4",
          "ticks": 60416,
          "time": 88.5,
          "velocity": 1
        },
        {
          "duration": 0.1875,
          "durationTicks": 128,
          "midi": 68,
          "name": "G#4",
          "ticks": 60416,
          "time": 88.5,
          "velocity": 1
        },
        {
          "duration": 0.1875,
          "durationTicks": 128,
          "midi": 75,
          "name": "D#5",
          "ticks": 60416,
          "time": 88.5,
          "velocity": 1
        },
        {
          "duration": 0.375,
          "durationTicks": 256,
          "midi": 68,
          "name": "G#4",
          "ticks": 60544,
          "time": 88.6875,
          "velocity": 0.9606299212598425
        },
        {
          "duration": 0.375,
          "durationTicks": 256,
          "midi": 73,
          "name": "C#5",
          "ticks": 60544,
          "time": 88.6875,
          "velocity": 0.9606299212598425
        },
        {
          "duration": 0.375,
          "durationTicks": 256,
          "midi": 66,
          "name": "F#4",
          "ticks": 60800,
          "time": 89.0625,
          "velocity": 0.8582677165354331
        },
        {
          "duration": 0.375,
          "durationTicks": 256,
          "midi": 71,
          "name": "B4",
          "ticks": 60800,
          "time": 89.0625,
          "velocity": 0.8582677165354331
        },
        {
          "duration": 0.1875,
          "durationTicks": 128,
          "midi": 66,
          "name": "F#4",
          "ticks": 61056,
          "time": 89.4375,
          "velocity": 0.8818897637795275
        },
        {
          "duration": 0.1875,
          "durationTicks": 128,
          "midi": 71,
          "name": "B4",
          "ticks": 61056,
          "time": 89.4375,
          "velocity": 0.8818897637795275
        },
        {
          "duration": 0.5625,
          "durationTicks": 384,
          "midi": 68,
          "name": "G#4",
          "ticks": 61184,
          "time": 89.625,
          "velocity": 0.952755905511811
        },
        {
          "duration": 0.1875,
          "durationTicks": 128,
          "midi": 74,
          "name": "D5",
          "ticks": 61184,
          "time": 89.625,
          "velocity": 0.952755905511811
        },
        {
          "duration": 0.1875,
          "durationTicks": 128,
          "midi": 73,
          "name": "C#5",
          "ticks": 61312,
          "time": 89.8125,
          "velocity": 0.9448818897637795
        },
        {
          "duration": 0.1875,
          "durationTicks": 128,
          "midi": 71,
          "name": "B4",
          "ticks": 61440,
          "time": 90,
          "velocity": 0.8740157480314961
        },
        {
          "duration": 0.375,
          "durationTicks": 256,
          "midi": 63,
          "name": "D#4",
          "ticks": 61568,
          "time": 90.1875,
          "velocity": 0.9921259842519685
        },
        {
          "duration": 0.375,
          "durationTicks": 256,
          "midi": 75,
          "name": "D#5",
          "ticks": 61568,
          "time": 90.1875,
          "velocity": 0.9921259842519685
        },
        {
          "duration": 0.5625,
          "durationTicks": 384,
          "midi": 67,
          "name": "G4",
          "ticks": 61824,
          "time": 90.5625,
          "velocity": 0.984251968503937
        },
        {
          "duration": 0.5625,
          "durationTicks": 384,
          "midi": 73,
          "name": "C#5",
          "ticks": 61824,
          "time": 90.5625,
          "velocity": 0.984251968503937
        },
        {
          "duration": 0.5625,
          "durationTicks": 384,
          "midi": 78,
          "name": "F#5",
          "ticks": 61824,
          "time": 90.5625,
          "velocity": 0.984251968503937
        },
        {
          "duration": 1.5,
          "durationTicks": 768,
          "midi": 59,
          "name": "B3",
          "ticks": 62208,
          "time": 91.125,
          "velocity": 0.7086614173228346
        },
        {
          "duration": 1.5,
          "durationTicks": 768,
          "midi": 63,
          "name": "D#4",
          "ticks": 62208,
          "time": 91.125,
          "velocity": 0.7086614173228346
        },
        {
          "duration": 1.5,
          "durationTicks": 768,
          "midi": 68,
          "name": "G#4",
          "ticks": 62208,
          "time": 91.125,
          "velocity": 0.7086614173228346
        },
        {
          "duration": 0.75,
          "durationTicks": 256,
          "midi": 68,
          "name": "G#4",
          "ticks": 62976,
          "time": 92.625,
          "velocity": 0.5354330708661418
        },
        {
          "duration": 0.75,
          "durationTicks": 256,
          "midi": 71,
          "name": "B4",
          "ticks": 62976,
          "time": 92.625,
          "velocity": 0.5354330708661418
        },
        {
          "duration": 0.75,
          "durationTicks": 256,
          "midi": 75,
          "name": "D#5",
          "ticks": 62976,
          "time": 92.625,
          "velocity": 0.5354330708661418
        },
        {
          "duration": 0.375,
          "durationTicks": 128,
          "midi": 68,
          "name": "G#4",
          "ticks": 63232,
          "time": 93.375,
          "velocity": 0.4015748031496063
        },
        {
          "duration": 0.375,
          "durationTicks": 128,
          "midi": 71,
          "name": "B4",
          "ticks": 63360,
          "time": 93.75,
          "velocity": 0.5118110236220472
        },
        {
          "duration": 0.375,
          "durationTicks": 128,
          "midi": 75,
          "name": "D#5",
          "ticks": 63488,
          "time": 94.125,
          "velocity": 0.5748031496062992
        },
        {
          "duration": 0.375,
          "durationTicks": 128,
          "midi": 80,
          "name": "G#5",
          "ticks": 63616,
          "time": 94.5,
          "velocity": 0.5590551181102362
        },
        {
          "duration": 0.375,
          "durationTicks": 128,
          "midi": 83,
          "name": "B5",
          "ticks": 63744,
          "time": 94.875,
          "velocity": 0.5511811023622047
        },
        {
          "duration": 0.375,
          "durationTicks": 128,
          "midi": 80,
          "name": "G#5",
          "ticks": 63872,
          "time": 95.25,
          "velocity": 0.41732283464566927
        },
        {
          "duration": 0.375,
          "durationTicks": 128,
          "midi": 82,
          "name": "A#5",
          "ticks": 64000,
          "time": 95.625,
          "velocity": 0.4881889763779528
        },
        {
          "duration": 1.5,
          "durationTicks": 512,
          "midi": 78,
          "name": "F#5",
          "ticks": 64128,
          "time": 96,
          "velocity": 0.44881889763779526
        },
        {
          "duration": 0.375,
          "durationTicks": 128,
          "midi": 73,
          "name": "C#5",
          "ticks": 64640,
          "time": 97.5,
          "velocity": 0.2755905511811024
        },
        {
          "duration": 0.375,
          "durationTicks": 128,
          "midi": 71,
          "name": "B4",
          "ticks": 64768,
          "time": 97.875,
          "velocity": 0.2677165354330709
        },
        {
          "duration": 0.375,
          "durationTicks": 128,
          "midi": 70,
          "name": "A#4",
          "ticks": 64896,
          "time": 98.25,
          "velocity": 0.30708661417322836
        },
        {
          "duration": 0.375,
          "durationTicks": 128,
          "midi": 66,
          "name": "F#4",
          "ticks": 65024,
          "time": 98.625,
          "velocity": 0.25984251968503935
        },
        {
          "duration": 0.5625,
          "durationTicks": 192,
          "midi": 63,
          "name": "D#4",
          "ticks": 65152,
          "time": 99,
          "velocity": 0.25984251968503935
        },
        {
          "duration": 6,
          "durationTicks": 2048,
          "midi": 68,
          "name": "G#4",
          "ticks": 65344,
          "time": 99.5625,
          "velocity": 0.31496062992125984
        },
        {
          "duration": 5.9208984375,
          "durationTicks": 2021,
          "midi": 63,
          "name": "D#4",
          "ticks": 65371,
          "time": 99.6416015625,
          "velocity": 0.31496062992125984
        },
        {
          "duration": 5.841796875,
          "durationTicks": 1994,
          "midi": 59,
          "name": "B3",
          "ticks": 65398,
          "time": 99.720703125,
          "velocity": 0.31496062992125984
        },
        {
          "duration": 5.7626953125,
          "durationTicks": 1967,
          "midi": 56,
          "name": "G#3",
          "ticks": 65425,
          "time": 99.7998046875,
          "velocity": 0.31496062992125984
        }
      ],
      "endOfTrackTicks": 67393
    },
    {
      "channel": 1,
      "controlChanges": {
        "0": [
          {
            "number": 0,
            "ticks": 0,
            "time": 0,
            "value": 0.952755905511811
          }
        ],
        "7": [
          {
            "number": 7,
            "ticks": 0,
            "time": 0,
            "value": 0.7874015748031497
          }
        ],
        "10": [
          {
            "number": 10,
            "ticks": 0,
            "time": 0,
            "value": 0.4015748031496063
          }
        ],
        "32": [
          {
            "number": 32,
            "ticks": 0,
            "time": 0,
            "value": 0
          }
        ],
        "64": [
          {
            "number": 64,
            "ticks": 0,
            "time": 0,
            "value": 0
          },
          {
            "number": 64,
            "ticks": 2048,
            "time": 3,
            "value": 1
          },
          {
            "number": 64,
            "ticks": 3072,
            "time": 4.5,
            "value": 0
          },
          {
            "number": 64,
            "ticks": 3072,
            "time": 4.5,
            "value": 1
          },
          {
            "number": 64,
            "ticks": 4095,
            "time": 5.99853515625,
            "value": 0
          },
          {
            "number": 64,
            "ticks": 4096,
            "time": 6,
            "value": 1
          },
          {
            "number": 64,
            "ticks": 5119,
            "time": 7.49853515625,
            "value": 0
          },
          {
            "number": 64,
            "ticks": 6144,
            "time": 9,
            "value": 1
          },
          {
            "number": 64,
            "ticks": 7040,
            "time": 10.3125,
            "value": 0
          },
          {
            "number": 64,
            "ticks": 7168,
            "time": 10.5,
            "value": 1
          },
          {
            "number": 64,
            "ticks": 7552,
            "time": 11.0625,
            "value": 0
          },
          {
            "number": 64,
            "ticks": 7680,
            "time": 11.25,
            "value": 1
          },
          {
            "number": 64,
            "ticks": 8064,
            "time": 11.8125,
            "value": 0
          },
          {
            "number": 64,
            "ticks": 8192,
            "time": 12,
            "value": 1
          },
          {
            "number": 64,
            "ticks": 9215,
            "time": 13.49853515625,
            "value": 0
          },
          {
            "number": 64,
            "ticks": 12544,
            "time": 18.375,
            "value": 1
          },
          {
            "number": 64,
            "ticks": 12800,
            "time": 18.75,
            "value": 0
          },
          {
            "number": 64,
            "ticks": 12928,
            "time": 18.9375,
            "value": 1
          },
          {
            "number": 64,
            "ticks": 13440,
            "time": 19.6875,
            "value": 0
          },
          {
            "number": 64,
            "ticks": 13568,
            "time": 19.875,
            "value": 1
          },
          {
            "number": 64,
            "ticks": 13952,
            "time": 20.4375,
            "value": 0
          },
          {
            "number": 64,
            "ticks": 13952,
            "time": 20.4375,
            "value": 1
          },
          {
            "number": 64,
            "ticks": 14592,
            "time": 21.375,
            "value": 0
          },
          {
            "number": 64,
            "ticks": 14592,
            "time": 21.375,
            "value": 1
          },
          {
            "number": 64,
            "ticks": 14848,
            "time": 21.75,
            "value": 0
          },
          {
            "number": 64,
            "ticks": 14976,
            "time": 21.9375,
            "value": 1
          },
          {
            "number": 64,
            "ticks": 15488,
            "time": 22.6875,
            "value": 0
          },
          {
            "number": 64,
            "ticks": 15616,
            "time": 22.875,
            "value": 1
          },
          {
            "number": 64,
            "ticks": 16000,
            "time": 23.4375,
            "value": 0
          },
          {
            "number": 64,
            "ticks": 16000,
            "time": 23.4375,
            "value": 1
          },
          {
            "number": 64,
            "ticks": 16639,
            "time": 24.37353515625,
            "value": 0
          },
          {
            "number": 64,
            "ticks": 16640,
            "time": 24.375,
            "value": 1
          },
          {
            "number": 64,
            "ticks": 18687,
            "time": 27.37353515625,
            "value": 0
          },
          {
            "number": 64,
            "ticks": 18688,
            "time": 27.375,
            "value": 1
          },
          {
            "number": 64,
            "ticks": 20735,
            "time": 30.37353515625,
            "value": 0
          },
          {
            "number": 64,
            "ticks": 20736,
            "time": 30.375,
            "value": 1
          },
          {
            "number": 64,
            "ticks": 22783,
            "time": 33.37353515625,
            "value": 0
          },
          {
            "number": 64,
            "ticks": 22784,
            "time": 33.375,
            "value": 1
          },
          {
            "number": 64,
            "ticks": 23807,
            "time": 34.87353515625,
            "value": 0
          },
          {
            "number": 64,
            "ticks": 23808,
            "time": 34.875,
            "value": 1
          },
          {
            "number": 64,
            "ticks": 24831,
            "time": 36.37353515625,
            "value": 0
          },
          {
            "number": 64,
            "ticks": 26880,
            "time": 39.375,
            "value": 1
          },
          {
            "number": 64,
            "ticks": 28927,
            "time": 42.37353515625,
            "value": 0
          },
          {
            "number": 64,
            "ticks": 28928,
            "time": 42.375,
            "value": 1
          },
          {
            "number": 64,
            "ticks": 29952,
            "time": 43.875,
            "value": 0
          },
          {
            "number": 64,
            "ticks": 29952,
            "time": 43.875,
            "value": 1
          },
          {
            "number": 64,
            "ticks": 30848,
            "time": 45.1875,
            "value": 0
          },
          {
            "number": 64,
            "ticks": 30976,
            "time": 45.375,
            "value": 1
          },
          {
            "number": 64,
            "ticks": 31999,
            "time": 46.87353515625,
            "value": 0
          },
          {
            "number": 64,
            "ticks": 32000,
            "time": 46.875,
            "value": 1
          },
          {
            "number": 64,
            "ticks": 32887,
            "time": 48.17431640625,
            "value": 0
          },
          {
            "number": 64,
            "ticks": 34560,
            "time": 50.625,
            "value": 1
          },
          {
            "number": 64,
            "ticks": 35583,
            "time": 52.12353515625,
            "value": 0
          },
          {
            "number": 64,
            "ticks": 35584,
            "time": 52.125,
            "value": 1
          },
          {
            "number": 64,
            "ticks": 35968,
            "time": 52.6875,
            "value": 0
          },
          {
            "number": 64,
            "ticks": 36096,
            "time": 52.875,
            "value": 1
          },
          {
            "number": 64,
            "ticks": 36480,
            "time": 53.4375,
            "value": 0
          },
          {
            "number": 64,
            "ticks": 36608,
            "time": 53.625,
            "value": 1
          },
          {
            "number": 64,
            "ticks": 37631,
            "time": 55.12353515625,
            "value": 0
          },
          {
            "number": 64,
            "ticks": 37632,
            "time": 55.125,
            "value": 1
          },
          {
            "number": 64,
            "ticks": 38016,
            "time": 55.6875,
            "value": 0
          },
          {
            "number": 64,
            "ticks": 38144,
            "time": 55.875,
            "value": 1
          },
          {
            "number": 64,
            "ticks": 38528,
            "time": 56.4375,
            "value": 0
          },
          {
            "number": 64,
            "ticks": 38656,
            "time": 56.625,
            "value": 1
          },
          {
            "number": 64,
            "ticks": 39040,
            "time": 57.1875,
            "value": 0
          },
          {
            "number": 64,
            "ticks": 39168,
            "time": 57.375,
            "value": 1
          },
          {
            "number": 64,
            "ticks": 39552,
            "time": 57.9375,
            "value": 0
          },
          {
            "number": 64,
            "ticks": 39680,
            "time": 58.125,
            "value": 1
          },
          {
            "number": 64,
            "ticks": 40576,
            "time": 59.4375,
            "value": 0
          },
          {
            "number": 64,
            "ticks": 43776,
            "time": 64.125,
            "value": 1
          },
          {
            "number": 64,
            "ticks": 44224,
            "time": 64.78125,
            "value": 0
          },
          {
            "number": 64,
            "ticks": 44288,
            "time": 64.875,
            "value": 1
          },
          {
            "number": 64,
            "ticks": 44799,
            "time": 65.62353515625,
            "value": 0
          },
          {
            "number": 64,
            "ticks": 44800,
            "time": 65.625,
            "value": 1
          },
          {
            "number": 64,
            "ticks": 45823,
            "time": 67.12353515625,
            "value": 0
          },
          {
            "number": 64,
            "ticks": 45824,
            "time": 67.125,
            "value": 1
          },
          {
            "number": 64,
            "ticks": 46272,
            "time": 67.78125,
            "value": 0
          },
          {
            "number": 64,
            "ticks": 46336,
            "time": 67.875,
            "value": 1
          },
          {
            "number": 64,
            "ticks": 46847,
            "time": 68.62353515625,
            "value": 0
          },
          {
            "number": 64,
            "ticks": 46848,
            "time": 68.625,
            "value": 1
          },
          {
            "number": 64,
            "ticks": 47871,
            "time": 70.12353515625,
            "value": 0
          },
          {
            "number": 64,
            "ticks": 47872,
            "time": 70.125,
            "value": 1
          },
          {
            "number": 64,
            "ticks": 48256,
            "time": 70.6875,
            "value": 0
          },
          {
            "number": 64,
            "ticks": 48384,
            "time": 70.875,
            "value": 1
          },
          {
            "number": 64,
            "ticks": 48895,
            "time": 71.62353515625,
            "value": 0
          },
          {
            "number": 64,
            "ticks": 48896,
            "time": 71.625,
            "value": 1
          },
          {
            "number": 64,
            "ticks": 49407,
            "time": 72.37353515625,
            "value": 0
          },
          {
            "number": 64,
            "ticks": 49408,
            "time": 72.375,
            "value": 1
          },
          {
            "number": 64,
            "ticks": 49919,
            "time": 73.12353515625,
            "value": 0
          },
          {
            "number": 64,
            "ticks": 49920,
            "time": 73.125,
            "value": 1
          },
          {
            "number": 64,
            "ticks": 50943,
            "time": 74.62353515625,
            "value": 0
          },
          {
            "number": 64,
            "ticks": 50944,
            "time": 74.625,
            "value": 1
          },
          {
            "number": 64,
            "ticks": 51328,
            "time": 75.1875,
            "value": 0
          },
          {
            "number": 64,
            "ticks": 54016,
            "time": 79.125,
            "value": 1
          },
          {
            "number": 64,
            "ticks": 54272,
            "time": 79.5,
            "value": 0
          },
          {
            "number": 64,
            "ticks": 54400,
            "time": 79.6875,
            "value": 1
          },
          {
            "number": 64,
            "ticks": 54912,
            "time": 80.4375,
            "value": 0
          },
          {
            "number": 64,
            "ticks": 55040,
            "time": 80.625,
            "value": 1
          },
          {
            "number": 64,
            "ticks": 55424,
            "time": 81.1875,
            "value": 0
          },
          {
            "number": 64,
            "ticks": 55424,
            "time": 81.1875,
            "value": 1
          },
          {
            "number": 64,
            "ticks": 56064,
            "time": 82.125,
            "value": 0
          },
          {
            "number": 64,
            "ticks": 56064,
            "time": 82.125,
            "value": 1
          },
          {
            "number": 64,
            "ticks": 56320,
            "time": 82.5,
            "value": 0
          },
          {
            "number": 64,
            "ticks": 56448,
            "time": 82.6875,
            "value": 1
          },
          {
            "number": 64,
            "ticks": 56960,
            "time": 83.4375,
            "value": 0
          },
          {
            "number": 64,
            "ticks": 57088,
            "time": 83.625,
            "value": 1
          },
          {
            "number": 64,
            "ticks": 57472,
            "time": 84.1875,
            "value": 0
          },
          {
            "number": 64,
            "ticks": 57472,
            "time": 84.1875,
            "value": 1
          },
          {
            "number": 64,
            "ticks": 58111,
            "time": 85.12353515625,
            "value": 0
          },
          {
            "number": 64,
            "ticks": 58112,
            "time": 85.125,
            "value": 1
          },
          {
            "number": 64,
            "ticks": 58368,
            "time": 85.5,
            "value": 0
          },
          {
            "number": 64,
            "ticks": 58496,
            "time": 85.6875,
            "value": 1
          },
          {
            "number": 64,
            "ticks": 59008,
            "time": 86.4375,
            "value": 0
          },
          {
            "number": 64,
            "ticks": 59136,
            "time": 86.625,
            "value": 1
          },
          {
            "number": 64,
            "ticks": 59520,
            "time": 87.1875,
            "value": 0
          },
          {
            "number": 64,
            "ticks": 59520,
            "time": 87.1875,
            "value": 1
          },
          {
            "number": 64,
            "ticks": 60159,
            "time": 88.12353515625,
            "value": 0
          },
          {
            "number": 64,
            "ticks": 60160,
            "time": 88.125,
            "value": 1
          },
          {
            "number": 64,
            "ticks": 60416,
            "time": 88.5,
            "value": 0
          },
          {
            "number": 64,
            "ticks": 60544,
            "time": 88.6875,
            "value": 1
          },
          {
            "number": 64,
            "ticks": 61056,
            "time": 89.4375,
            "value": 0
          },
          {
            "number": 64,
            "ticks": 61184,
            "time": 89.625,
            "value": 1
          },
          {
            "number": 64,
            "ticks": 61568,
            "time": 90.1875,
            "value": 0
          },
          {
            "number": 64,
            "ticks": 61568,
            "time": 90.1875,
            "value": 1
          },
          {
            "number": 64,
            "ticks": 62207,
            "time": 91.12353515625,
            "value": 0
          },
          {
            "number": 64,
            "ticks": 63232,
            "time": 93.375,
            "value": 1
          },
          {
            "number": 64,
            "ticks": 65279,
            "time": 99.3720703125,
            "value": 0
          }
        ],
        "91": [
          {
            "number": 91,
            "ticks": 0,
            "time": 0,
            "value": 0.3779527559055118
          }
        ],
        "121": [
          {
            "number": 121,
            "ticks": 0,
            "time": 0,
            "value": 0
          }
        ]
      },
      "pitchBends": [],
      "instrument": {
        "family": "piano",
        "number": 0,
        "name": "acoustic grand piano"
      },
      "name": "",
      "notes": [
        {
          "duration": 0.1875,
          "durationTicks": 128,
          "midi": 54,
          "name": "F#3",
          "ticks": 0,
          "time": 0,
          "velocity": 0.5196850393700787
        },
        {
          "duration": 0.1875,
          "durationTicks": 128,
          "midi": 42,
          "name": "F#2",
          "ticks": 128,
          "time": 0.1875,
          "velocity": 0.5039370078740157
        },
        {
          "duration": 0.1875,
          "durationTicks": 128,
          "midi": 42,
          "name": "F#2",
          "ticks": 256,
          "time": 0.375,
          "velocity": 0.6062992125984252
        },
        {
          "duration": 0.1875,
          "durationTicks": 128,
          "midi": 53,
          "name": "F3",
          "ticks": 384,
          "time": 0.5625,
          "velocity": 0.7165354330708661
        },
        {
          "duration": 0.1875,
          "durationTicks": 128,
          "midi": 41,
          "name": "F2",
          "ticks": 512,
          "time": 0.75,
          "velocity": 0.5433070866141733
        },
        {
          "duration": 0.1875,
          "durationTicks": 128,
          "midi": 41,
          "name": "F2",
          "ticks": 640,
          "time": 0.9375,
          "velocity": 0.5826771653543307
        },
        {
          "duration": 0.1875,
          "durationTicks": 128,
          "midi": 52,
          "name": "E3",
          "ticks": 768,
          "time": 1.125,
          "velocity": 0.6456692913385826
        },
        {
          "duration": 0.1875,
          "durationTicks": 128,
          "midi": 40,
          "name": "E2",
          "ticks": 896,
          "time": 1.3125,
          "velocity": 0.5433070866141733
        },
        {
          "duration": 0.1875,
          "durationTicks": 128,
          "midi": 39,
          "name": "D#2",
          "ticks": 1024,
          "time": 1.5,
          "velocity": 0.6850393700787402
        },
        {
          "duration": 0.1875,
          "durationTicks": 128,
          "midi": 51,
          "name": "D#3",
          "ticks": 1024,
          "time": 1.5,
          "velocity": 0.6850393700787402
        },
        {
          "duration": 0.1875,
          "durationTicks": 128,
          "midi": 39,
          "name": "D#2",
          "ticks": 1408,
          "time": 2.0625,
          "velocity": 0.49606299212598426
        },
        {
          "duration": 0.1875,
          "durationTicks": 128,
          "midi": 51,
          "name": "D#3",
          "ticks": 1408,
          "time": 2.0625,
          "velocity": 0.49606299212598426
        },
        {
          "duration": 0.1875,
          "durationTicks": 128,
          "midi": 52,
          "name": "E3",
          "ticks": 2048,
          "time": 3,
          "velocity": 0.5826771653543307
        },
        {
          "duration": 0.1875,
          "durationTicks": 128,
          "midi": 59,
          "name": "B3",
          "ticks": 2176,
          "time": 3.1875,
          "velocity": 0.7086614173228346
        },
        {
          "duration": 0.1875,
          "durationTicks": 128,
          "midi": 64,
          "name": "E4",
          "ticks": 2304,
          "time": 3.375,
          "velocity": 0.8031496062992126
        },
        {
          "duration": 0.1875,
          "durationTicks": 128,
          "midi": 66,
          "name": "F#4",
          "ticks": 2432,
          "time": 3.5625,
          "velocity": 0.7007874015748031
        },
        {
          "duration": 0.1875,
          "durationTicks": 128,
          "midi": 54,
          "name": "F#3",
          "ticks": 2560,
          "time": 3.75,
          "velocity": 0.5984251968503937
        },
        {
          "duration": 0.1875,
          "durationTicks": 128,
          "midi": 61,
          "name": "C#4",
          "ticks": 2688,
          "time": 3.9375,
          "velocity": 0.7637795275590551
        },
        {
          "duration": 0.1875,
          "durationTicks": 128,
          "midi": 66,
          "name": "F#4",
          "ticks": 2816,
          "time": 4.125,
          "velocity": 0.7716535433070866
        },
        {
          "duration": 0.1875,
          "durationTicks": 128,
          "midi": 70,
          "name": "A#4",
          "ticks": 2944,
          "time": 4.3125,
          "velocity": 0.7401574803149606
        },
        {
          "duration": 0.1875,
          "durationTicks": 128,
          "midi": 44,
          "name": "G#2",
          "ticks": 3072,
          "time": 4.5,
          "velocity": 0.5905511811023622
        },
        {
          "duration": 0.1875,
          "durationTicks": 128,
          "midi": 51,
          "name": "D#3",
          "ticks": 3200,
          "time": 4.6875,
          "velocity": 0.7952755905511811
        },
        {
          "duration": 0.1875,
          "durationTicks": 128,
          "midi": 56,
          "name": "G#3",
          "ticks": 3328,
          "time": 4.875,
          "velocity": 0.7637795275590551
        },
        {
          "duration": 0.1875,
          "durationTicks": 128,
          "midi": 58,
          "name": "A#3",
          "ticks": 3456,
          "time": 5.0625,
          "velocity": 0.7165354330708661
        },
        {
          "duration": 0.1875,
          "durationTicks": 128,
          "midi": 59,
          "name": "B3",
          "ticks": 3584,
          "time": 5.25,
          "velocity": 0.7007874015748031
        },
        {
          "duration": 0.1875,
          "durationTicks": 128,
          "midi": 63,
          "name": "D#4",
          "ticks": 3712,
          "time": 5.4375,
          "velocity": 0.7559055118110236
        },
        {
          "duration": 0.1875,
          "durationTicks": 128,
          "midi": 61,
          "name": "C#4",
          "ticks": 3840,
          "time": 5.625,
          "velocity": 0.6141732283464567
        },
        {
          "duration": 0.1875,
          "durationTicks": 128,
          "midi": 58,
          "name": "A#3",
          "ticks": 3968,
          "time": 5.8125,
          "velocity": 0.6220472440944882
        },
        {
          "duration": 0.1875,
          "durationTicks": 128,
          "midi": 52,
          "name": "E3",
          "ticks": 4096,
          "time": 6,
          "velocity": 0.5511811023622047
        },
        {
          "duration": 0.1875,
          "durationTicks": 128,
          "midi": 59,
          "name": "B3",
          "ticks": 4224,
          "time": 6.1875,
          "velocity": 0.7716535433070866
        },
        {
          "duration": 0.1875,
          "durationTicks": 128,
          "midi": 64,
          "name": "E4",
          "ticks": 4352,
          "time": 6.375,
          "velocity": 0.7637795275590551
        },
        {
          "duration": 0.1875,
          "durationTicks": 128,
          "midi": 66,
          "name": "F#4",
          "ticks": 4480,
          "time": 6.5625,
          "velocity": 0.7007874015748031
        },
        {
          "duration": 0.1875,
          "durationTicks": 128,
          "midi": 42,
          "name": "F#2",
          "ticks": 4608,
          "time": 6.75,
          "velocity": 0.5669291338582677
        },
        {
          "duration": 0.1875,
          "durationTicks": 128,
          "midi": 49,
          "name": "C#3",
          "ticks": 4736,
          "time": 6.9375,
          "velocity": 0.7322834645669292
        },
        {
          "duration": 0.1875,
          "durationTicks": 128,
          "midi": 54,
          "name": "F#3",
          "ticks": 4864,
          "time": 7.125,
          "velocity": 0.7244094488188977
        },
        {
          "duration": 0.1875,
          "durationTicks": 128,
          "midi": 58,
          "name": "A#3",
          "ticks": 4992,
          "time": 7.3125,
          "velocity": 0.7874015748031497
        },
        {
          "duration": 0.375,
          "durationTicks": 256,
          "midi": 47,
          "name": "B2",
          "ticks": 5120,
          "time": 7.5,
          "velocity": 0.7086614173228346
        },
        {
          "duration": 0.375,
          "durationTicks": 256,
          "midi": 59,
          "name": "B3",
          "ticks": 5120,
          "time": 7.5,
          "velocity": 0.7086614173228346
        },
        {
          "duration": 0.375,
          "durationTicks": 256,
          "midi": 46,
          "name": "A#2",
          "ticks": 5376,
          "time": 7.875,
          "velocity": 0.6456692913385826
        },
        {
          "duration": 0.375,
          "durationTicks": 256,
          "midi": 58,
          "name": "A#3",
          "ticks": 5376,
          "time": 7.875,
          "velocity": 0.6456692913385826
        },
        {
          "duration": 0.375,
          "durationTicks": 256,
          "midi": 44,
          "name": "G#2",
          "ticks": 5632,
          "time": 8.25,
          "velocity": 0.6062992125984252
        },
        {
          "duration": 0.375,
          "durationTicks": 256,
          "midi": 56,
          "name": "G#3",
          "ticks": 5632,
          "time": 8.25,
          "velocity": 0.6062992125984252
        },
        {
          "duration": 0.1875,
          "durationTicks": 128,
          "midi": 42,
          "name": "F#2",
          "ticks": 5888,
          "time": 8.625,
          "velocity": 0.6377952755905512
        },
        {
          "duration": 0.1875,
          "durationTicks": 128,
          "midi": 54,
          "name": "F#3",
          "ticks": 5888,
          "time": 8.625,
          "velocity": 0.6377952755905512
        },
        {
          "duration": 0.1875,
          "durationTicks": 128,
          "midi": 42,
          "name": "F#2",
          "ticks": 6016,
          "time": 8.8125,
          "velocity": 0.5748031496062992
        },
        {
          "duration": 0.1875,
          "durationTicks": 128,
          "midi": 52,
          "name": "E3",
          "ticks": 6144,
          "time": 9,
          "velocity": 0.5984251968503937
        },
        {
          "duration": 0.1875,
          "durationTicks": 128,
          "midi": 59,
          "name": "B3",
          "ticks": 6272,
          "time": 9.1875,
          "velocity": 0.6929133858267716
        },
        {
          "duration": 0.1875,
          "durationTicks": 128,
          "midi": 64,
          "name": "E4",
          "ticks": 6400,
          "time": 9.375,
          "velocity": 0.7480314960629921
        },
        {
          "duration": 0.1875,
          "durationTicks": 128,
          "midi": 71,
          "name": "B4",
          "ticks": 6528,
          "time": 9.5625,
          "velocity": 0.7795275590551181
        },
        {
          "duration": 0.1875,
          "durationTicks": 128,
          "midi": 54,
          "name": "F#3",
          "ticks": 6656,
          "time": 9.75,
          "velocity": 0.5826771653543307
        },
        {
          "duration": 0.1875,
          "durationTicks": 128,
          "midi": 61,
          "name": "C#4",
          "ticks": 6784,
          "time": 9.9375,
          "velocity": 0.7480314960629921
        },
        {
          "duration": 0.1875,
          "durationTicks": 128,
          "midi": 70,
          "name": "A#4",
          "ticks": 6912,
          "time": 10.125,
          "velocity": 0.8346456692913385
        },
        {
          "duration": 0.1875,
          "durationTicks": 128,
          "midi": 71,
          "name": "B4",
          "ticks": 7040,
          "time": 10.3125,
          "velocity": 0.7401574803149606
        },
        {
          "duration": 0.1875,
          "durationTicks": 128,
          "midi": 58,
          "name": "A#3",
          "ticks": 7168,
          "time": 10.5,
          "velocity": 0.5905511811023622
        },
        {
          "duration": 0.1875,
          "durationTicks": 128,
          "midi": 61,
          "name": "C#4",
          "ticks": 7168,
          "time": 10.5,
          "velocity": 0.5905511811023622
        },
        {
          "duration": 0.1875,
          "durationTicks": 128,
          "midi": 64,
          "name": "E4",
          "ticks": 7168,
          "time": 10.5,
          "velocity": 0.5905511811023622
        },
        {
          "duration": 0.1875,
          "durationTicks": 128,
          "midi": 67,
          "name": "G4",
          "ticks": 7168,
          "time": 10.5,
          "velocity": 0.5905511811023622
        },
        {
          "duration": 0.1875,
          "durationTicks": 128,
          "midi": 55,
          "name": "G3",
          "ticks": 7296,
          "time": 10.6875,
          "velocity": 0.5511811023622047
        },
        {
          "duration": 0.1875,
          "durationTicks": 128,
          "midi": 61,
          "name": "C#4",
          "ticks": 7424,
          "time": 10.875,
          "velocity": 0.7480314960629921
        },
        {
          "duration": 0.1875,
          "durationTicks": 128,
          "midi": 64,
          "name": "E4",
          "ticks": 7552,
          "time": 11.0625,
          "velocity": 0.7165354330708661
        },
        {
          "duration": 0.1875,
          "durationTicks": 128,
          "midi": 56,
          "name": "G#3",
          "ticks": 7680,
          "time": 11.25,
          "velocity": 0.5826771653543307
        },
        {
          "duration": 0.1875,
          "durationTicks": 128,
          "midi": 59,
          "name": "B3",
          "ticks": 7808,
          "time": 11.4375,
          "velocity": 0.7007874015748031
        },
        {
          "duration": 0.1875,
          "durationTicks": 128,
          "midi": 63,
          "name": "D#4",
          "ticks": 7936,
          "time": 11.625,
          "velocity": 0.7716535433070866
        },
        {
          "duration": 0.1875,
          "durationTicks": 128,
          "midi": 68,
          "name": "G#4",
          "ticks": 8064,
          "time": 11.8125,
          "velocity": 0.7480314960629921
        },
        {
          "duration": 0.1875,
          "durationTicks": 128,
          "midi": 28,
          "name": "E1",
          "ticks": 8192,
          "time": 12,
          "velocity": 0.5905511811023622
        },
        {
          "duration": 0.1875,
          "durationTicks": 128,
          "midi": 40,
          "name": "E2",
          "ticks": 8320,
          "time": 12.1875,
          "velocity": 0.7401574803149606
        },
        {
          "duration": 0.1875,
          "durationTicks": 128,
          "midi": 47,
          "name": "B2",
          "ticks": 8448,
          "time": 12.375,
          "velocity": 0.7322834645669292
        },
        {
          "duration": 0.1875,
          "durationTicks": 128,
          "midi": 52,
          "name": "E3",
          "ticks": 8576,
          "time": 12.5625,
          "velocity": 0.6771653543307087
        },
        {
          "duration": 0.1875,
          "durationTicks": 128,
          "midi": 40,
          "name": "E2",
          "ticks": 8704,
          "time": 12.75,
          "velocity": 0.5826771653543307
        },
        {
          "duration": 0.1875,
          "durationTicks": 128,
          "midi": 47,
          "name": "B2",
          "ticks": 8832,
          "time": 12.9375,
          "velocity": 0.7086614173228346
        },
        {
          "duration": 0.1875,
          "durationTicks": 128,
          "midi": 52,
          "name": "E3",
          "ticks": 8960,
          "time": 13.125,
          "velocity": 0.6929133858267716
        },
        {
          "duration": 0.1875,
          "durationTicks": 128,
          "midi": 56,
          "name": "G#3",
          "ticks": 9088,
          "time": 13.3125,
          "velocity": 0.6692913385826772
        },
        {
          "duration": 0.1875,
          "durationTicks": 128,
          "midi": 54,
          "name": "F#3",
          "ticks": 9216,
          "time": 13.5,
          "velocity": 0.6456692913385826
        },
        {
          "duration": 0.1875,
          "durationTicks": 128,
          "midi": 49,
          "name": "C#3",
          "ticks": 9344,
          "time": 13.6875,
          "velocity": 0.5826771653543307
        },
        {
          "duration": 0.75,
          "durationTicks": 512,
          "midi": 42,
          "name": "F#2",
          "ticks": 9472,
          "time": 13.875,
          "velocity": 0.5984251968503937
        },
        {
          "duration": 0.375,
          "durationTicks": 256,
          "midi": 30,
          "name": "F#1",
          "ticks": 9984,
          "time": 14.625,
          "velocity": 0.7007874015748031
        },
        {
          "duration": 0.1875,
          "durationTicks": 128,
          "midi": 40,
          "name": "E2",
          "ticks": 10240,
          "time": 15,
          "velocity": 0.8661417322834646
        },
        {
          "duration": 0.1875,
          "durationTicks": 128,
          "midi": 52,
          "name": "E3",
          "ticks": 10240,
          "time": 15,
          "velocity": 0.8661417322834646
        },
        {
          "duration": 0.1875,
          "durationTicks": 128,
          "midi": 40,
          "name": "E2",
          "ticks": 10368,
          "time": 15.1875,
          "velocity": 0.8188976377952756
        },
        {
          "duration": 0.1875,
          "durationTicks": 128,
          "midi": 52,
          "name": "E3",
          "ticks": 10368,
          "time": 15.1875,
          "velocity": 0.8188976377952756
        },
        {
          "duration": 0.1875,
          "durationTicks": 128,
          "midi": 28,
          "name": "E1",
          "ticks": 10880,
          "time": 15.9375,
          "velocity": 0.6929133858267716
        },
        {
          "duration": 0.1875,
          "durationTicks": 128,
          "midi": 40,
          "name": "E2",
          "ticks": 10880,
          "time": 15.9375,
          "velocity": 0.6929133858267716
        },
        {
          "duration": 0.1875,
          "durationTicks": 128,
          "midi": 28,
          "name": "E1",
          "ticks": 11008,
          "time": 16.125,
          "velocity": 0.6535433070866141
        },
        {
          "duration": 0.1875,
          "durationTicks": 128,
          "midi": 40,
          "name": "E2",
          "ticks": 11008,
          "time": 16.125,
          "velocity": 0.6535433070866141
        },
        {
          "duration": 0.1875,
          "durationTicks": 128,
          "midi": 30,
          "name": "F#1",
          "ticks": 11136,
          "time": 16.3125,
          "velocity": 0.8661417322834646
        },
        {
          "duration": 0.1875,
          "durationTicks": 128,
          "midi": 42,
          "name": "F#2",
          "ticks": 11136,
          "time": 16.3125,
          "velocity": 0.8661417322834646
        },
        {
          "duration": 0.1875,
          "durationTicks": 128,
          "midi": 31,
          "name": "G1",
          "ticks": 12416,
          "time": 18.1875,
          "velocity": 0.6141732283464567
        },
        {
          "duration": 0.1875,
          "durationTicks": 128,
          "midi": 43,
          "name": "G2",
          "ticks": 12416,
          "time": 18.1875,
          "velocity": 0.6141732283464567
        },
        {
          "duration": 0.1875,
          "durationTicks": 128,
          "midi": 32,
          "name": "G#1",
          "ticks": 12544,
          "time": 18.375,
          "velocity": 0.9606299212598425
        },
        {
          "duration": 0.1875,
          "durationTicks": 128,
          "midi": 44,
          "name": "G#2",
          "ticks": 12672,
          "time": 18.5625,
          "velocity": 0.9763779527559056
        },
        {
          "duration": 0.1875,
          "durationTicks": 128,
          "midi": 51,
          "name": "D#3",
          "ticks": 12800,
          "time": 18.75,
          "velocity": 1
        },
        {
          "duration": 0.375,
          "durationTicks": 256,
          "midi": 28,
          "name": "E1",
          "ticks": 12928,
          "time": 18.9375,
          "velocity": 0.9763779527559056
        },
        {
          "duration": 0.375,
          "durationTicks": 256,
          "midi": 40,
          "name": "E2",
          "ticks": 12928,
          "time": 18.9375,
          "velocity": 0.9763779527559056
        },
        {
          "duration": 0.1875,
          "durationTicks": 128,
          "midi": 40,
          "name": "E2",
          "ticks": 13184,
          "time": 19.3125,
          "velocity": 0.889763779527559
        },
        {
          "duration": 0.1875,
          "durationTicks": 128,
          "midi": 47,
          "name": "B2",
          "ticks": 13312,
          "time": 19.5,
          "velocity": 1
        },
        {
          "duration": 0.1875,
          "durationTicks": 128,
          "midi": 52,
          "name": "E3",
          "ticks": 13312,
          "time": 19.5,
          "velocity": 1
        },
        {
          "duration": 0.1875,
          "durationTicks": 128,
          "midi": 40,
          "name": "E2",
          "ticks": 13440,
          "time": 19.6875,
          "velocity": 0.7874015748031497
        },
        {
          "duration": 0.1875,
          "durationTicks": 128,
          "midi": 27,
          "name": "D#1",
          "ticks": 13568,
          "time": 19.875,
          "velocity": 0.7480314960629921
        },
        {
          "duration": 0.1875,
          "durationTicks": 128,
          "midi": 39,
          "name": "D#2",
          "ticks": 13696,
          "time": 20.0625,
          "velocity": 0.9606299212598425
        },
        {
          "duration": 0.1875,
          "durationTicks": 128,
          "midi": 46,
          "name": "A#2",
          "ticks": 13824,
          "time": 20.25,
          "velocity": 1
        },
        {
          "duration": 0.1875,
          "durationTicks": 128,
          "midi": 42,
          "name": "F#2",
          "ticks": 13952,
          "time": 20.4375,
          "velocity": 0.8346456692913385
        },
        {
          "duration": 0.1875,
          "durationTicks": 128,
          "midi": 49,
          "name": "C#3",
          "ticks": 14080,
          "time": 20.625,
          "velocity": 0.9763779527559056
        },
        {
          "duration": 0.1875,
          "durationTicks": 128,
          "midi": 54,
          "name": "F#3",
          "ticks": 14208,
          "time": 20.8125,
          "velocity": 0.952755905511811
        },
        {
          "duration": 0.1875,
          "durationTicks": 128,
          "midi": 59,
          "name": "B3",
          "ticks": 14336,
          "time": 21,
          "velocity": 0.9448818897637795
        },
        {
          "duration": 0.1875,
          "durationTicks": 128,
          "midi": 58,
          "name": "A#3",
          "ticks": 14464,
          "time": 21.1875,
          "velocity": 0.889763779527559
        },
        {
          "duration": 0.1875,
          "durationTicks": 128,
          "midi": 32,
          "name": "G#1",
          "ticks": 14592,
          "time": 21.375,
          "velocity": 0.905511811023622
        },
        {
          "duration": 0.1875,
          "durationTicks": 128,
          "midi": 44,
          "name": "G#2",
          "ticks": 14720,
          "time": 21.5625,
          "velocity": 0.984251968503937
        },
        {
          "duration": 0.1875,
          "durationTicks": 128,
          "midi": 51,
          "name": "D#3",
          "ticks": 14848,
          "time": 21.75,
          "velocity": 0.952755905511811
        },
        {
          "duration": 0.375,
          "durationTicks": 256,
          "midi": 28,
          "name": "E1",
          "ticks": 14976,
          "time": 21.9375,
          "velocity": 0.952755905511811
        },
        {
          "duration": 0.375,
          "durationTicks": 256,
          "midi": 40,
          "name": "E2",
          "ticks": 14976,
          "time": 21.9375,
          "velocity": 0.952755905511811
        },
        {
          "duration": 0.1875,
          "durationTicks": 128,
          "midi": 40,
          "name": "E2",
          "ticks": 15232,
          "time": 22.3125,
          "velocity": 0.905511811023622
        },
        {
          "duration": 0.1875,
          "durationTicks": 128,
          "midi": 47,
          "name": "B2",
          "ticks": 15360,
          "time": 22.5,
          "velocity": 1
        },
        {
          "duration": 0.1875,
          "durationTicks": 128,
          "midi": 52,
          "name": "E3",
          "ticks": 15360,
          "time": 22.5,
          "velocity": 1
        },
        {
          "duration": 0.1875,
          "durationTicks": 128,
          "midi": 40,
          "name": "E2",
          "ticks": 15488,
          "time": 22.6875,
          "velocity": 0.7874015748031497
        },
        {
          "duration": 0.1875,
          "durationTicks": 128,
          "midi": 27,
          "name": "D#1",
          "ticks": 15616,
          "time": 22.875,
          "velocity": 0.7795275590551181
        },
        {
          "duration": 0.1875,
          "durationTicks": 128,
          "midi": 39,
          "name": "D#2",
          "ticks": 15744,
          "time": 23.0625,
          "velocity": 0.9448818897637795
        },
        {
          "duration": 0.1875,
          "durationTicks": 128,
          "midi": 46,
          "name": "A#2",
          "ticks": 15872,
          "time": 23.25,
          "velocity": 0.9921259842519685
        },
        {
          "duration": 0.375,
          "durationTicks": 256,
          "midi": 51,
          "name": "D#3",
          "ticks": 16000,
          "time": 23.4375,
          "velocity": 1
        },
        {
          "duration": 0.375,
          "durationTicks": 256,
          "midi": 58,
          "name": "A#3",
          "ticks": 16000,
          "time": 23.4375,
          "velocity": 1
        },
        {
          "duration": 0.375,
          "durationTicks": 256,
          "midi": 39,
          "name": "D#2",
          "ticks": 16256,
          "time": 23.8125,
          "velocity": 0.8031496062992126
        },
        {
          "duration": 0.375,
          "durationTicks": 256,
          "midi": 49,
          "name": "C#3",
          "ticks": 16256,
          "time": 23.8125,
          "velocity": 0.8031496062992126
        },
        {
          "duration": 0.1875,
          "durationTicks": 128,
          "midi": 39,
          "name": "D#2",
          "ticks": 16512,
          "time": 24.1875,
          "velocity": 0.7401574803149606
        },
        {
          "duration": 0.1875,
          "durationTicks": 128,
          "midi": 32,
          "name": "G#1",
          "ticks": 16640,
          "time": 24.375,
          "velocity": 0.7874015748031497
        },
        {
          "duration": 0.09375,
          "durationTicks": 64,
          "midi": 44,
          "name": "G#2",
          "ticks": 16768,
          "time": 24.5625,
          "velocity": 1
        },
        {
          "duration": 0.09375,
          "durationTicks": 64,
          "midi": 32,
          "name": "G#1",
          "ticks": 16832,
          "time": 24.65625,
          "velocity": 0.7716535433070866
        },
        {
          "duration": 0.1875,
          "durationTicks": 128,
          "midi": 44,
          "name": "G#2",
          "ticks": 16896,
          "time": 24.75,
          "velocity": 0.7165354330708661
        },
        {
          "duration": 0.1875,
          "durationTicks": 128,
          "midi": 51,
          "name": "D#3",
          "ticks": 17024,
          "time": 24.9375,
          "velocity": 0.7322834645669292
        },
        {
          "duration": 0.1875,
          "durationTicks": 128,
          "midi": 56,
          "name": "G#3",
          "ticks": 17152,
          "time": 25.125,
          "velocity": 0.7165354330708661
        },
        {
          "duration": 0.1875,
          "durationTicks": 128,
          "midi": 58,
          "name": "A#3",
          "ticks": 17280,
          "time": 25.3125,
          "velocity": 0.6929133858267716
        },
        {
          "duration": 0.1875,
          "durationTicks": 128,
          "midi": 59,
          "name": "B3",
          "ticks": 17408,
          "time": 25.5,
          "velocity": 0.6771653543307087
        },
        {
          "duration": 0.1875,
          "durationTicks": 128,
          "midi": 51,
          "name": "D#3",
          "ticks": 17536,
          "time": 25.6875,
          "velocity": 0.5984251968503937
        },
        {
          "duration": 0.1875,
          "durationTicks": 128,
          "midi": 44,
          "name": "G#2",
          "ticks": 17664,
          "time": 25.875,
          "velocity": 0.5905511811023622
        },
        {
          "duration": 0.1875,
          "durationTicks": 128,
          "midi": 51,
          "name": "D#3",
          "ticks": 17792,
          "time": 26.0625,
          "velocity": 0.6692913385826772
        },
        {
          "duration": 0.1875,
          "durationTicks": 128,
          "midi": 56,
          "name": "G#3",
          "ticks": 17920,
          "time": 26.25,
          "velocity": 0.7165354330708661
        },
        {
          "duration": 0.1875,
          "durationTicks": 128,
          "midi": 58,
          "name": "A#3",
          "ticks": 18048,
          "time": 26.4375,
          "velocity": 0.6850393700787402
        },
        {
          "duration": 0.1875,
          "durationTicks": 128,
          "midi": 61,
          "name": "C#4",
          "ticks": 18176,
          "time": 26.625,
          "velocity": 0.7007874015748031
        },
        {
          "duration": 0.1875,
          "durationTicks": 128,
          "midi": 51,
          "name": "D#3",
          "ticks": 18304,
          "time": 26.8125,
          "velocity": 0.5748031496062992
        },
        {
          "duration": 0.1875,
          "durationTicks": 128,
          "midi": 58,
          "name": "A#3",
          "ticks": 18432,
          "time": 27,
          "velocity": 0.6850393700787402
        },
        {
          "duration": 0.1875,
          "durationTicks": 128,
          "midi": 59,
          "name": "B3",
          "ticks": 18560,
          "time": 27.1875,
          "velocity": 0.6771653543307087
        },
        {
          "duration": 0.1875,
          "durationTicks": 128,
          "midi": 32,
          "name": "G#1",
          "ticks": 18688,
          "time": 27.375,
          "velocity": 0.5590551181102362
        },
        {
          "duration": 0.09375,
          "durationTicks": 64,
          "midi": 44,
          "name": "G#2",
          "ticks": 18816,
          "time": 27.5625,
          "velocity": 0.7480314960629921
        },
        {
          "duration": 0.09375,
          "durationTicks": 64,
          "midi": 32,
          "name": "G#1",
          "ticks": 18880,
          "time": 27.65625,
          "velocity": 0.5669291338582677
        },
        {
          "duration": 0.1875,
          "durationTicks": 128,
          "midi": 44,
          "name": "G#2",
          "ticks": 18944,
          "time": 27.75,
          "velocity": 0.7244094488188977
        },
        {
          "duration": 0.1875,
          "durationTicks": 128,
          "midi": 51,
          "name": "D#3",
          "ticks": 19072,
          "time": 27.9375,
          "velocity": 0.7244094488188977
        },
        {
          "duration": 0.1875,
          "durationTicks": 128,
          "midi": 56,
          "name": "G#3",
          "ticks": 19200,
          "time": 28.125,
          "velocity": 0.6850393700787402
        },
        {
          "duration": 0.1875,
          "durationTicks": 128,
          "midi": 58,
          "name": "A#3",
          "ticks": 19328,
          "time": 28.3125,
          "velocity": 0.7086614173228346
        },
        {
          "duration": 0.1875,
          "durationTicks": 128,
          "midi": 59,
          "name": "B3",
          "ticks": 19456,
          "time": 28.5,
          "velocity": 0.6850393700787402
        },
        {
          "duration": 0.1875,
          "durationTicks": 128,
          "midi": 51,
          "name": "D#3",
          "ticks": 19584,
          "time": 28.6875,
          "velocity": 0.6062992125984252
        },
        {
          "duration": 0.1875,
          "durationTicks": 128,
          "midi": 44,
          "name": "G#2",
          "ticks": 19712,
          "time": 28.875,
          "velocity": 0.5905511811023622
        },
        {
          "duration": 0.1875,
          "durationTicks": 128,
          "midi": 51,
          "name": "D#3",
          "ticks": 19840,
          "time": 29.0625,
          "velocity": 0.6929133858267716
        },
        {
          "duration": 0.1875,
          "durationTicks": 128,
          "midi": 58,
          "name": "A#3",
          "ticks": 19968,
          "time": 29.25,
          "velocity": 0.7401574803149606
        },
        {
          "duration": 0.1875,
          "durationTicks": 128,
          "midi": 61,
          "name": "C#4",
          "ticks": 20096,
          "time": 29.4375,
          "velocity": 0.7322834645669292
        },
        {
          "duration": 0.1875,
          "durationTicks": 128,
          "midi": 51,
          "name": "D#3",
          "ticks": 20224,
          "time": 29.625,
          "velocity": 0.5984251968503937
        },
        {
          "duration": 0.1875,
          "durationTicks": 128,
          "midi": 56,
          "name": "G#3",
          "ticks": 20352,
          "time": 29.8125,
          "velocity": 0.7165354330708661
        },
        {
          "duration": 0.1875,
          "durationTicks": 128,
          "midi": 58,
          "name": "A#3",
          "ticks": 20480,
          "time": 30,
          "velocity": 0.7165354330708661
        },
        {
          "duration": 0.1875,
          "durationTicks": 128,
          "midi": 59,
          "name": "B3",
          "ticks": 20608,
          "time": 30.1875,
          "velocity": 0.6535433070866141
        },
        {
          "duration": 0.1875,
          "durationTicks": 128,
          "midi": 32,
          "name": "G#1",
          "ticks": 20736,
          "time": 30.375,
          "velocity": 0.5748031496062992
        },
        {
          "duration": 0.09375,
          "durationTicks": 64,
          "midi": 44,
          "name": "G#2",
          "ticks": 20864,
          "time": 30.5625,
          "velocity": 0.7401574803149606
        },
        {
          "duration": 0.09375,
          "durationTicks": 64,
          "midi": 32,
          "name": "G#1",
          "ticks": 20928,
          "time": 30.65625,
          "velocity": 0.5826771653543307
        },
        {
          "duration": 0.1875,
          "durationTicks": 128,
          "midi": 44,
          "name": "G#2",
          "ticks": 20992,
          "time": 30.75,
          "velocity": 0.7244094488188977
        },
        {
          "duration": 0.1875,
          "durationTicks": 128,
          "midi": 51,
          "name": "D#3",
          "ticks": 21120,
          "time": 30.9375,
          "velocity": 0.7401574803149606
        },
        {
          "duration": 0.1875,
          "durationTicks": 128,
          "midi": 56,
          "name": "G#3",
          "ticks": 21248,
          "time": 31.125,
          "velocity": 0.7244094488188977
        },
        {
          "duration": 0.1875,
          "durationTicks": 128,
          "midi": 58,
          "name": "A#3",
          "ticks": 21376,
          "time": 31.3125,
          "velocity": 0.7007874015748031
        },
        {
          "duration": 0.1875,
          "durationTicks": 128,
          "midi": 59,
          "name": "B3",
          "ticks": 21504,
          "time": 31.5,
          "velocity": 0.6850393700787402
        },
        {
          "duration": 0.1875,
          "durationTicks": 128,
          "midi": 51,
          "name": "D#3",
          "ticks": 21632,
          "time": 31.6875,
          "velocity": 0.5826771653543307
        },
        {
          "duration": 0.1875,
          "durationTicks": 128,
          "midi": 44,
          "name": "G#2",
          "ticks": 21760,
          "time": 31.875,
          "velocity": 0.6062992125984252
        },
        {
          "duration": 0.1875,
          "durationTicks": 128,
          "midi": 51,
          "name": "D#3",
          "ticks": 21888,
          "time": 32.0625,
          "velocity": 0.7401574803149606
        },
        {
          "duration": 0.1875,
          "durationTicks": 128,
          "midi": 58,
          "name": "A#3",
          "ticks": 22016,
          "time": 32.25,
          "velocity": 0.7086614173228346
        },
        {
          "duration": 0.1875,
          "durationTicks": 128,
          "midi": 61,
          "name": "C#4",
          "ticks": 22144,
          "time": 32.4375,
          "velocity": 0.7480314960629921
        },
        {
          "duration": 0.1875,
          "durationTicks": 128,
          "midi": 51,
          "name": "D#3",
          "ticks": 22272,
          "time": 32.625,
          "velocity": 0.6141732283464567
        },
        {
          "duration": 0.1875,
          "durationTicks": 128,
          "midi": 56,
          "name": "G#3",
          "ticks": 22400,
          "time": 32.8125,
          "velocity": 0.7007874015748031
        },
        {
          "duration": 0.1875,
          "durationTicks": 128,
          "midi": 58,
          "name": "A#3",
          "ticks": 22528,
          "time": 33,
          "velocity": 0.6929133858267716
        },
        {
          "duration": 0.1875,
          "durationTicks": 128,
          "midi": 59,
          "name": "B3",
          "ticks": 22656,
          "time": 33.1875,
          "velocity": 0.6535433070866141
        },
        {
          "duration": 0.1875,
          "durationTicks": 128,
          "midi": 25,
          "name": "C#1",
          "ticks": 22784,
          "time": 33.375,
          "velocity": 0.5669291338582677
        },
        {
          "duration": 0.1875,
          "durationTicks": 128,
          "midi": 37,
          "name": "C#2",
          "ticks": 22912,
          "time": 33.5625,
          "velocity": 0.7559055118110236
        },
        {
          "duration": 0.1875,
          "durationTicks": 128,
          "midi": 44,
          "name": "G#2",
          "ticks": 23040,
          "time": 33.75,
          "velocity": 0.7244094488188977
        },
        {
          "duration": 0.375,
          "durationTicks": 256,
          "midi": 49,
          "name": "C#3",
          "ticks": 23168,
          "time": 33.9375,
          "velocity": 0.7637795275590551
        },
        {
          "duration": 0.375,
          "durationTicks": 256,
          "midi": 52,
          "name": "E3",
          "ticks": 23168,
          "time": 33.9375,
          "velocity": 0.7637795275590551
        },
        {
          "duration": 0.375,
          "durationTicks": 256,
          "midi": 56,
          "name": "G#3",
          "ticks": 23168,
          "time": 33.9375,
          "velocity": 0.7637795275590551
        },
        {
          "duration": 0.375,
          "durationTicks": 256,
          "midi": 59,
          "name": "B3",
          "ticks": 23168,
          "time": 33.9375,
          "velocity": 0.7637795275590551
        },
        {
          "duration": 0.1875,
          "durationTicks": 128,
          "midi": 52,
          "name": "E3",
          "ticks": 23424,
          "time": 34.3125,
          "velocity": 0.6299212598425197
        },
        {
          "duration": 0.1875,
          "durationTicks": 128,
          "midi": 49,
          "name": "C#3",
          "ticks": 23552,
          "time": 34.5,
          "velocity": 0.6299212598425197
        },
        {
          "duration": 0.1875,
          "durationTicks": 128,
          "midi": 44,
          "name": "G#2",
          "ticks": 23680,
          "time": 34.6875,
          "velocity": 0.6220472440944882
        },
        {
          "duration": 0.1875,
          "durationTicks": 128,
          "midi": 27,
          "name": "D#1",
          "ticks": 23808,
          "time": 34.875,
          "velocity": 0.5748031496062992
        },
        {
          "duration": 0.1875,
          "durationTicks": 128,
          "midi": 39,
          "name": "D#2",
          "ticks": 23936,
          "time": 35.0625,
          "velocity": 0.7322834645669292
        },
        {
          "duration": 0.1875,
          "durationTicks": 128,
          "midi": 49,
          "name": "C#3",
          "ticks": 24064,
          "time": 35.25,
          "velocity": 0.7559055118110236
        },
        {
          "duration": 0.375,
          "durationTicks": 256,
          "midi": 39,
          "name": "D#2",
          "ticks": 24192,
          "time": 35.4375,
          "velocity": 0.7086614173228346
        },
        {
          "duration": 0.375,
          "durationTicks": 256,
          "midi": 51,
          "name": "D#3",
          "ticks": 24192,
          "time": 35.4375,
          "velocity": 0.7086614173228346
        },
        {
          "duration": 0.375,
          "durationTicks": 256,
          "midi": 51,
          "name": "D#3",
          "ticks": 24448,
          "time": 35.8125,
          "velocity": 0.8503937007874016
        },
        {
          "duration": 0.375,
          "durationTicks": 256,
          "midi": 61,
          "name": "C#4",
          "ticks": 24448,
          "time": 35.8125,
          "velocity": 0.8503937007874016
        },
        {
          "duration": 0.1875,
          "durationTicks": 128,
          "midi": 39,
          "name": "D#2",
          "ticks": 24704,
          "time": 36.1875,
          "velocity": 0.5826771653543307
        },
        {
          "duration": 0.1875,
          "durationTicks": 128,
          "midi": 32,
          "name": "G#1",
          "ticks": 24832,
          "time": 36.375,
          "velocity": 0.5984251968503937
        },
        {
          "duration": 0.09375,
          "durationTicks": 64,
          "midi": 44,
          "name": "G#2",
          "ticks": 24960,
          "time": 36.5625,
          "velocity": 0.7244094488188977
        },
        {
          "duration": 0.09375,
          "durationTicks": 64,
          "midi": 32,
          "name": "G#1",
          "ticks": 25024,
          "time": 36.65625,
          "velocity": 0.5984251968503937
        },
        {
          "duration": 0.1875,
          "durationTicks": 128,
          "midi": 44,
          "name": "G#2",
          "ticks": 25088,
          "time": 36.75,
          "velocity": 0.7244094488188977
        },
        {
          "duration": 0.1875,
          "durationTicks": 128,
          "midi": 51,
          "name": "D#3",
          "ticks": 25216,
          "time": 36.9375,
          "velocity": 0.7401574803149606
        },
        {
          "duration": 0.1875,
          "durationTicks": 128,
          "midi": 56,
          "name": "G#3",
          "ticks": 25344,
          "time": 37.125,
          "velocity": 0.7007874015748031
        },
        {
          "duration": 0.1875,
          "durationTicks": 128,
          "midi": 58,
          "name": "A#3",
          "ticks": 25472,
          "time": 37.3125,
          "velocity": 0.6771653543307087
        },
        {
          "duration": 0.1875,
          "durationTicks": 128,
          "midi": 59,
          "name": "B3",
          "ticks": 25600,
          "time": 37.5,
          "velocity": 0.6771653543307087
        },
        {
          "duration": 0.1875,
          "durationTicks": 128,
          "midi": 51,
          "name": "D#3",
          "ticks": 25728,
          "time": 37.6875,
          "velocity": 0.6062992125984252
        },
        {
          "duration": 0.1875,
          "durationTicks": 128,
          "midi": 44,
          "name": "G#2",
          "ticks": 25856,
          "time": 37.875,
          "velocity": 0.6141732283464567
        },
        {
          "duration": 0.1875,
          "durationTicks": 128,
          "midi": 51,
          "name": "D#3",
          "ticks": 25984,
          "time": 38.0625,
          "velocity": 0.7165354330708661
        },
        {
          "duration": 0.1875,
          "durationTicks": 128,
          "midi": 58,
          "name": "A#3",
          "ticks": 26112,
          "time": 38.25,
          "velocity": 0.7322834645669292
        },
        {
          "duration": 0.1875,
          "durationTicks": 128,
          "midi": 61,
          "name": "C#4",
          "ticks": 26240,
          "time": 38.4375,
          "velocity": 0.7480314960629921
        },
        {
          "duration": 0.1875,
          "durationTicks": 128,
          "midi": 51,
          "name": "D#3",
          "ticks": 26368,
          "time": 38.625,
          "velocity": 0.6141732283464567
        },
        {
          "duration": 0.1875,
          "durationTicks": 128,
          "midi": 56,
          "name": "G#3",
          "ticks": 26496,
          "time": 38.8125,
          "velocity": 0.6929133858267716
        },
        {
          "duration": 0.1875,
          "durationTicks": 128,
          "midi": 58,
          "name": "A#3",
          "ticks": 26624,
          "time": 39,
          "velocity": 0.7007874015748031
        },
        {
          "duration": 0.1875,
          "durationTicks": 128,
          "midi": 59,
          "name": "B3",
          "ticks": 26752,
          "time": 39.1875,
          "velocity": 0.6929133858267716
        },
        {
          "duration": 0.1875,
          "durationTicks": 128,
          "midi": 32,
          "name": "G#1",
          "ticks": 26880,
          "time": 39.375,
          "velocity": 0.5669291338582677
        },
        {
          "duration": 0.09375,
          "durationTicks": 64,
          "midi": 44,
          "name": "G#2",
          "ticks": 27008,
          "time": 39.5625,
          "velocity": 0.7559055118110236
        },
        {
          "duration": 0.09375,
          "durationTicks": 64,
          "midi": 32,
          "name": "G#1",
          "ticks": 27072,
          "time": 39.65625,
          "velocity": 0.5590551181102362
        },
        {
          "duration": 0.1875,
          "durationTicks": 128,
          "midi": 44,
          "name": "G#2",
          "ticks": 27136,
          "time": 39.75,
          "velocity": 0.7401574803149606
        },
        {
          "duration": 0.1875,
          "durationTicks": 128,
          "midi": 51,
          "name": "D#3",
          "ticks": 27264,
          "time": 39.9375,
          "velocity": 0.7401574803149606
        },
        {
          "duration": 0.1875,
          "durationTicks": 128,
          "midi": 56,
          "name": "G#3",
          "ticks": 27392,
          "time": 40.125,
          "velocity": 0.7086614173228346
        },
        {
          "duration": 0.1875,
          "durationTicks": 128,
          "midi": 58,
          "name": "A#3",
          "ticks": 27520,
          "time": 40.3125,
          "velocity": 0.6692913385826772
        },
        {
          "duration": 0.1875,
          "durationTicks": 128,
          "midi": 59,
          "name": "B3",
          "ticks": 27648,
          "time": 40.5,
          "velocity": 0.6692913385826772
        },
        {
          "duration": 0.1875,
          "durationTicks": 128,
          "midi": 51,
          "name": "D#3",
          "ticks": 27776,
          "time": 40.6875,
          "velocity": 0.5826771653543307
        },
        {
          "duration": 0.1875,
          "durationTicks": 128,
          "midi": 44,
          "name": "G#2",
          "ticks": 27904,
          "time": 40.875,
          "velocity": 0.5905511811023622
        },
        {
          "duration": 0.1875,
          "durationTicks": 128,
          "midi": 51,
          "name": "D#3",
          "ticks": 28032,
          "time": 41.0625,
          "velocity": 0.6692913385826772
        },
        {
          "duration": 0.1875,
          "durationTicks": 128,
          "midi": 58,
          "name": "A#3",
          "ticks": 28160,
          "time": 41.25,
          "velocity": 0.7165354330708661
        },
        {
          "duration": 0.1875,
          "durationTicks": 128,
          "midi": 61,
          "name": "C#4",
          "ticks": 28288,
          "time": 41.4375,
          "velocity": 0.7244094488188977
        },
        {
          "duration": 0.1875,
          "durationTicks": 128,
          "midi": 51,
          "name": "D#3",
          "ticks": 28416,
          "time": 41.625,
          "velocity": 0.5905511811023622
        },
        {
          "duration": 0.1875,
          "durationTicks": 128,
          "midi": 56,
          "name": "G#3",
          "ticks": 28544,
          "time": 41.8125,
          "velocity": 0.7165354330708661
        },
        {
          "duration": 0.1875,
          "durationTicks": 128,
          "midi": 58,
          "name": "A#3",
          "ticks": 28672,
          "time": 42,
          "velocity": 0.6929133858267716
        },
        {
          "duration": 0.1875,
          "durationTicks": 128,
          "midi": 59,
          "name": "B3",
          "ticks": 28800,
          "time": 42.1875,
          "velocity": 0.6535433070866141
        },
        {
          "duration": 0.1875,
          "durationTicks": 128,
          "midi": 32,
          "name": "G#1",
          "ticks": 28928,
          "time": 42.375,
          "velocity": 0.5669291338582677
        },
        {
          "duration": 0.09375,
          "durationTicks": 64,
          "midi": 44,
          "name": "G#2",
          "ticks": 29056,
          "time": 42.5625,
          "velocity": 0.7086614173228346
        },
        {
          "duration": 0.09375,
          "durationTicks": 64,
          "midi": 32,
          "name": "G#1",
          "ticks": 29120,
          "time": 42.65625,
          "velocity": 0.5826771653543307
        },
        {
          "duration": 0.1875,
          "durationTicks": 128,
          "midi": 44,
          "name": "G#2",
          "ticks": 29184,
          "time": 42.75,
          "velocity": 0.7322834645669292
        },
        {
          "duration": 0.1875,
          "durationTicks": 128,
          "midi": 51,
          "name": "D#3",
          "ticks": 29312,
          "time": 42.9375,
          "velocity": 0.7165354330708661
        },
        {
          "duration": 0.1875,
          "durationTicks": 128,
          "midi": 56,
          "name": "G#3",
          "ticks": 29440,
          "time": 43.125,
          "velocity": 0.7086614173228346
        },
        {
          "duration": 0.1875,
          "durationTicks": 128,
          "midi": 58,
          "name": "A#3",
          "ticks": 29568,
          "time": 43.3125,
          "velocity": 0.6850393700787402
        },
        {
          "duration": 0.1875,
          "durationTicks": 128,
          "midi": 59,
          "name": "B3",
          "ticks": 29696,
          "time": 43.5,
          "velocity": 0.6771653543307087
        },
        {
          "duration": 0.1875,
          "durationTicks": 128,
          "midi": 51,
          "name": "D#3",
          "ticks": 29824,
          "time": 43.6875,
          "velocity": 0.5826771653543307
        },
        {
          "duration": 0.1875,
          "durationTicks": 128,
          "midi": 44,
          "name": "G#2",
          "ticks": 29952,
          "time": 43.875,
          "velocity": 0.5826771653543307
        },
        {
          "duration": 0.1875,
          "durationTicks": 128,
          "midi": 51,
          "name": "D#3",
          "ticks": 30080,
          "time": 44.0625,
          "velocity": 0.6614173228346457
        },
        {
          "duration": 0.1875,
          "durationTicks": 128,
          "midi": 58,
          "name": "A#3",
          "ticks": 30208,
          "time": 44.25,
          "velocity": 0.7086614173228346
        },
        {
          "duration": 0.1875,
          "durationTicks": 128,
          "midi": 61,
          "name": "C#4",
          "ticks": 30336,
          "time": 44.4375,
          "velocity": 0.7401574803149606
        },
        {
          "duration": 0.1875,
          "durationTicks": 128,
          "midi": 51,
          "name": "D#3",
          "ticks": 30464,
          "time": 44.625,
          "velocity": 0.5905511811023622
        },
        {
          "duration": 0.1875,
          "durationTicks": 128,
          "midi": 56,
          "name": "G#3",
          "ticks": 30592,
          "time": 44.8125,
          "velocity": 0.6692913385826772
        },
        {
          "duration": 0.1875,
          "durationTicks": 128,
          "midi": 58,
          "name": "A#3",
          "ticks": 30720,
          "time": 45,
          "velocity": 0.6850393700787402
        },
        {
          "duration": 0.1875,
          "durationTicks": 128,
          "midi": 59,
          "name": "B3",
          "ticks": 30848,
          "time": 45.1875,
          "velocity": 0.7007874015748031
        },
        {
          "duration": 0.1875,
          "durationTicks": 128,
          "midi": 25,
          "name": "C#1",
          "ticks": 30976,
          "time": 45.375,
          "velocity": 0.5433070866141733
        },
        {
          "duration": 0.1875,
          "durationTicks": 128,
          "midi": 37,
          "name": "C#2",
          "ticks": 31104,
          "time": 45.5625,
          "velocity": 0.7401574803149606
        },
        {
          "duration": 0.1875,
          "durationTicks": 128,
          "midi": 44,
          "name": "G#2",
          "ticks": 31232,
          "time": 45.75,
          "velocity": 0.7559055118110236
        },
        {
          "duration": 0.375,
          "durationTicks": 256,
          "midi": 49,
          "name": "C#3",
          "ticks": 31360,
          "time": 45.9375,
          "velocity": 0.7716535433070866
        },
        {
          "duration": 0.375,
          "durationTicks": 256,
          "midi": 52,
          "name": "E3",
          "ticks": 31360,
          "time": 45.9375,
          "velocity": 0.7716535433070866
        },
        {
          "duration": 0.375,
          "durationTicks": 256,
          "midi": 56,
          "name": "G#3",
          "ticks": 31360,
          "time": 45.9375,
          "velocity": 0.7716535433070866
        },
        {
          "duration": 0.375,
          "durationTicks": 256,
          "midi": 59,
          "name": "B3",
          "ticks": 31360,
          "time": 45.9375,
          "velocity": 0.7716535433070866
        },
        {
          "duration": 0.1875,
          "durationTicks": 128,
          "midi": 52,
          "name": "E3",
          "ticks": 31616,
          "time": 46.3125,
          "velocity": 0.6220472440944882
        },
        {
          "duration": 0.1875,
          "durationTicks": 128,
          "midi": 49,
          "name": "C#3",
          "ticks": 31744,
          "time": 46.5,
          "velocity": 0.6377952755905512
        },
        {
          "duration": 0.1875,
          "durationTicks": 128,
          "midi": 44,
          "name": "G#2",
          "ticks": 31872,
          "time": 46.6875,
          "velocity": 0.6062992125984252
        },
        {
          "duration": 0.5625,
          "durationTicks": 384,
          "midi": 39,
          "name": "D#2",
          "ticks": 32000,
          "time": 46.875,
          "velocity": 0.7007874015748031
        },
        {
          "duration": 0.5625,
          "durationTicks": 384,
          "midi": 51,
          "name": "D#3",
          "ticks": 32000,
          "time": 46.875,
          "velocity": 0.7007874015748031
        },
        {
          "duration": 0.5625,
          "durationTicks": 384,
          "midi": 51,
          "name": "D#3",
          "ticks": 32384,
          "time": 47.4375,
          "velocity": 0.8188976377952756
        },
        {
          "duration": 0.5625,
          "durationTicks": 384,
          "midi": 61,
          "name": "C#4",
          "ticks": 32384,
          "time": 47.4375,
          "velocity": 0.8188976377952756
        },
        {
          "duration": 0.375,
          "durationTicks": 256,
          "midi": 39,
          "name": "D#2",
          "ticks": 32768,
          "time": 48,
          "velocity": 0.5748031496062992
        },
        {
          "duration": 0.375,
          "durationTicks": 256,
          "midi": 51,
          "name": "D#3",
          "ticks": 32768,
          "time": 48,
          "velocity": 0.5748031496062992
        },
        {
          "duration": 0.1875,
          "durationTicks": 128,
          "midi": 39,
          "name": "D#2",
          "ticks": 33024,
          "time": 48.375,
          "velocity": 0.5984251968503937
        },
        {
          "duration": 0.1875,
          "durationTicks": 128,
          "midi": 27,
          "name": "D#1",
          "ticks": 33280,
          "time": 48.75,
          "velocity": 0.6771653543307087
        },
        {
          "duration": 0.375,
          "durationTicks": 256,
          "midi": 40,
          "name": "E2",
          "ticks": 33536,
          "time": 49.125,
          "velocity": 0.7322834645669292
        },
        {
          "duration": 0.1875,
          "durationTicks": 128,
          "midi": 52,
          "name": "E3",
          "ticks": 33792,
          "time": 49.5,
          "velocity": 0.7716535433070866
        },
        {
          "duration": 0.1875,
          "durationTicks": 128,
          "midi": 40,
          "name": "E2",
          "ticks": 33920,
          "time": 49.6875,
          "velocity": 0.5905511811023622
        },
        {
          "duration": 0.1875,
          "durationTicks": 128,
          "midi": 39,
          "name": "D#2",
          "ticks": 34048,
          "time": 49.875,
          "velocity": 0.6062992125984252
        },
        {
          "duration": 0.1875,
          "durationTicks": 128,
          "midi": 46,
          "name": "A#2",
          "ticks": 34176,
          "time": 50.0625,
          "velocity": 0.7244094488188977
        },
        {
          "duration": 0.1875,
          "durationTicks": 128,
          "midi": 51,
          "name": "D#3",
          "ticks": 34176,
          "time": 50.0625,
          "velocity": 0.7244094488188977
        },
        {
          "duration": 0.375,
          "durationTicks": 256,
          "midi": 39,
          "name": "D#2",
          "ticks": 34304,
          "time": 50.25,
          "velocity": 0.5984251968503937
        },
        {
          "duration": 0.1875,
          "durationTicks": 128,
          "midi": 32,
          "name": "G#1",
          "ticks": 34560,
          "time": 50.625,
          "velocity": 0.5905511811023622
        },
        {
          "duration": 0.1875,
          "durationTicks": 128,
          "midi": 44,
          "name": "G#2",
          "ticks": 34688,
          "time": 50.8125,
          "velocity": 0.7401574803149606
        },
        {
          "duration": 0.1875,
          "durationTicks": 128,
          "midi": 51,
          "name": "D#3",
          "ticks": 34816,
          "time": 51,
          "velocity": 0.6929133858267716
        },
        {
          "duration": 0.375,
          "durationTicks": 256,
          "midi": 56,
          "name": "G#3",
          "ticks": 34944,
          "time": 51.1875,
          "velocity": 0.6771653543307087
        },
        {
          "duration": 0.1875,
          "durationTicks": 128,
          "midi": 44,
          "name": "G#2",
          "ticks": 35200,
          "time": 51.5625,
          "velocity": 0.5590551181102362
        },
        {
          "duration": 0.375,
          "durationTicks": 256,
          "midi": 51,
          "name": "D#3",
          "ticks": 35328,
          "time": 51.75,
          "velocity": 0.7244094488188977
        },
        {
          "duration": 0.375,
          "durationTicks": 256,
          "midi": 54,
          "name": "F#3",
          "ticks": 35328,
          "time": 51.75,
          "velocity": 0.7244094488188977
        },
        {
          "duration": 0.1875,
          "durationTicks": 128,
          "midi": 40,
          "name": "E2",
          "ticks": 35584,
          "time": 52.125,
          "velocity": 0.5984251968503937
        },
        {
          "duration": 0.1875,
          "durationTicks": 128,
          "midi": 52,
          "name": "E3",
          "ticks": 35712,
          "time": 52.3125,
          "velocity": 0.7086614173228346
        },
        {
          "duration": 0.1875,
          "durationTicks": 128,
          "midi": 56,
          "name": "G#3",
          "ticks": 35840,
          "time": 52.5,
          "velocity": 0.7165354330708661
        },
        {
          "duration": 0.1875,
          "durationTicks": 128,
          "midi": 52,
          "name": "E3",
          "ticks": 35968,
          "time": 52.6875,
          "velocity": 0.6220472440944882
        },
        {
          "duration": 0.1875,
          "durationTicks": 128,
          "midi": 39,
          "name": "D#2",
          "ticks": 36096,
          "time": 52.875,
          "velocity": 0.5433070866141733
        },
        {
          "duration": 0.1875,
          "durationTicks": 128,
          "midi": 51,
          "name": "D#3",
          "ticks": 36224,
          "time": 53.0625,
          "velocity": 0.7244094488188977
        },
        {
          "duration": 0.1875,
          "durationTicks": 128,
          "midi": 54,
          "name": "F#3",
          "ticks": 36224,
          "time": 53.0625,
          "velocity": 0.7244094488188977
        },
        {
          "duration": 0.375,
          "durationTicks": 256,
          "midi": 46,
          "name": "A#2",
          "ticks": 36352,
          "time": 53.25,
          "velocity": 0.6299212598425197
        },
        {
          "duration": 0.1875,
          "durationTicks": 128,
          "midi": 32,
          "name": "G#1",
          "ticks": 36608,
          "time": 53.625,
          "velocity": 0.5826771653543307
        },
        {
          "duration": 0.1875,
          "durationTicks": 128,
          "midi": 47,
          "name": "B2",
          "ticks": 36736,
          "time": 53.8125,
          "velocity": 0.7480314960629921
        },
        {
          "duration": 0.1875,
          "durationTicks": 128,
          "midi": 51,
          "name": "D#3",
          "ticks": 36864,
          "time": 54,
          "velocity": 0.7007874015748031
        },
        {
          "duration": 0.1904296875,
          "durationTicks": 130,
          "midi": 56,
          "name": "G#3",
          "ticks": 36992,
          "time": 54.1875,
          "velocity": 0.7086614173228346
        },
        {
          "duration": 0.1904296875,
          "durationTicks": 130,
          "midi": 54,
          "name": "F#3",
          "ticks": 37120,
          "time": 54.375,
          "velocity": 0.7165354330708661
        },
        {
          "duration": 0.1904296875,
          "durationTicks": 130,
          "midi": 51,
          "name": "D#3",
          "ticks": 37248,
          "time": 54.5625,
          "velocity": 0.5984251968503937
        },
        {
          "duration": 0.1904296875,
          "durationTicks": 130,
          "midi": 54,
          "name": "F#3",
          "ticks": 37376,
          "time": 54.75,
          "velocity": 0.6377952755905512
        },
        {
          "duration": 0.1904296875,
          "durationTicks": 130,
          "midi": 56,
          "name": "G#3",
          "ticks": 37504,
          "time": 54.9375,
          "velocity": 0.6850393700787402
        },
        {
          "duration": 0.17724609375,
          "durationTicks": 121,
          "midi": 40,
          "name": "E2",
          "ticks": 37632,
          "time": 55.125,
          "velocity": 0.6062992125984252
        },
        {
          "duration": 0.1875,
          "durationTicks": 128,
          "midi": 47,
          "name": "B2",
          "ticks": 37760,
          "time": 55.3125,
          "velocity": 0.6614173228346457
        },
        {
          "duration": 0.1875,
          "durationTicks": 128,
          "midi": 52,
          "name": "E3",
          "ticks": 37888,
          "time": 55.5,
          "velocity": 0.6929133858267716
        },
        {
          "duration": 0.1875,
          "durationTicks": 128,
          "midi": 59,
          "name": "B3",
          "ticks": 38016,
          "time": 55.6875,
          "velocity": 0.7007874015748031
        },
        {
          "duration": 0.1875,
          "durationTicks": 128,
          "midi": 40,
          "name": "E2",
          "ticks": 38144,
          "time": 55.875,
          "velocity": 0.5905511811023622
        },
        {
          "duration": 0.1875,
          "durationTicks": 128,
          "midi": 47,
          "name": "B2",
          "ticks": 38272,
          "time": 56.0625,
          "velocity": 0.7086614173228346
        },
        {
          "duration": 0.1875,
          "durationTicks": 128,
          "midi": 54,
          "name": "F#3",
          "ticks": 38400,
          "time": 56.25,
          "velocity": 0.7165354330708661
        },
        {
          "duration": 0.1875,
          "durationTicks": 128,
          "midi": 59,
          "name": "B3",
          "ticks": 38528,
          "time": 56.4375,
          "velocity": 0.7637795275590551
        },
        {
          "duration": 0.1875,
          "durationTicks": 128,
          "midi": 32,
          "name": "G#1",
          "ticks": 38656,
          "time": 56.625,
          "velocity": 0.5669291338582677
        },
        {
          "duration": 0.1875,
          "durationTicks": 128,
          "midi": 44,
          "name": "G#2",
          "ticks": 38784,
          "time": 56.8125,
          "velocity": 0.7165354330708661
        },
        {
          "duration": 0.1875,
          "durationTicks": 128,
          "midi": 51,
          "name": "D#3",
          "ticks": 38912,
          "time": 57,
          "velocity": 0.7322834645669292
        },
        {
          "duration": 0.1875,
          "durationTicks": 128,
          "midi": 56,
          "name": "G#3",
          "ticks": 39040,
          "time": 57.1875,
          "velocity": 0.7007874015748031
        },
        {
          "duration": 0.1875,
          "durationTicks": 128,
          "midi": 37,
          "name": "C#2",
          "ticks": 39168,
          "time": 57.375,
          "velocity": 0.5433070866141733
        },
        {
          "duration": 0.1875,
          "durationTicks": 128,
          "midi": 47,
          "name": "B2",
          "ticks": 39296,
          "time": 57.5625,
          "velocity": 0.7401574803149606
        },
        {
          "duration": 0.1875,
          "durationTicks": 128,
          "midi": 49,
          "name": "C#3",
          "ticks": 39424,
          "time": 57.75,
          "velocity": 0.7165354330708661
        },
        {
          "duration": 0.1875,
          "durationTicks": 128,
          "midi": 53,
          "name": "F3",
          "ticks": 39552,
          "time": 57.9375,
          "velocity": 0.7007874015748031
        },
        {
          "duration": 0.1875,
          "durationTicks": 128,
          "midi": 33,
          "name": "A1",
          "ticks": 39680,
          "time": 58.125,
          "velocity": 0.5826771653543307
        },
        {
          "duration": 0.1875,
          "durationTicks": 128,
          "midi": 40,
          "name": "E2",
          "ticks": 39808,
          "time": 58.3125,
          "velocity": 0.6850393700787402
        },
        {
          "duration": 0.1875,
          "durationTicks": 128,
          "midi": 45,
          "name": "A2",
          "ticks": 39936,
          "time": 58.5,
          "velocity": 0.7086614173228346
        },
        {
          "duration": 0.1875,
          "durationTicks": 128,
          "midi": 52,
          "name": "E3",
          "ticks": 40064,
          "time": 58.6875,
          "velocity": 0.7480314960629921
        },
        {
          "duration": 0.1875,
          "durationTicks": 128,
          "midi": 45,
          "name": "A2",
          "ticks": 40192,
          "time": 58.875,
          "velocity": 0.6220472440944882
        },
        {
          "duration": 0.1875,
          "durationTicks": 128,
          "midi": 52,
          "name": "E3",
          "ticks": 40320,
          "time": 59.0625,
          "velocity": 0.7480314960629921
        },
        {
          "duration": 0.1875,
          "durationTicks": 128,
          "midi": 57,
          "name": "A3",
          "ticks": 40448,
          "time": 59.25,
          "velocity": 0.6692913385826772
        },
        {
          "duration": 0.1875,
          "durationTicks": 128,
          "midi": 52,
          "name": "E3",
          "ticks": 40576,
          "time": 59.4375,
          "velocity": 0.5984251968503937
        },
        {
          "duration": 0.1875,
          "durationTicks": 128,
          "midi": 33,
          "name": "A1",
          "ticks": 40704,
          "time": 59.625,
          "velocity": 0.5984251968503937
        },
        {
          "duration": 0.1875,
          "durationTicks": 128,
          "midi": 45,
          "name": "A2",
          "ticks": 40704,
          "time": 59.625,
          "velocity": 0.5984251968503937
        },
        {
          "duration": 0.1875,
          "durationTicks": 128,
          "midi": 33,
          "name": "A1",
          "ticks": 40832,
          "time": 59.8125,
          "velocity": 0.6456692913385826
        },
        {
          "duration": 0.1875,
          "durationTicks": 128,
          "midi": 45,
          "name": "A2",
          "ticks": 40832,
          "time": 59.8125,
          "velocity": 0.6456692913385826
        },
        {
          "duration": 0.1875,
          "durationTicks": 128,
          "midi": 33,
          "name": "A1",
          "ticks": 40960,
          "time": 60,
          "velocity": 0.6614173228346457
        },
        {
          "duration": 0.1875,
          "durationTicks": 128,
          "midi": 45,
          "name": "A2",
          "ticks": 40960,
          "time": 60,
          "velocity": 0.6614173228346457
        },
        {
          "duration": 0.375,
          "durationTicks": 256,
          "midi": 33,
          "name": "A1",
          "ticks": 41088,
          "time": 60.1875,
          "velocity": 0.6456692913385826
        },
        {
          "duration": 0.375,
          "durationTicks": 256,
          "midi": 45,
          "name": "A2",
          "ticks": 41088,
          "time": 60.1875,
          "velocity": 0.6456692913385826
        },
        {
          "duration": 0.1875,
          "durationTicks": 128,
          "midi": 33,
          "name": "A1",
          "ticks": 41344,
          "time": 60.5625,
          "velocity": 0.6850393700787402
        },
        {
          "duration": 0.1875,
          "durationTicks": 128,
          "midi": 45,
          "name": "A2",
          "ticks": 41344,
          "time": 60.5625,
          "velocity": 0.6850393700787402
        },
        {
          "duration": 0.1875,
          "durationTicks": 128,
          "midi": 33,
          "name": "A1",
          "ticks": 41472,
          "time": 60.75,
          "velocity": 0.6850393700787402
        },
        {
          "duration": 0.1875,
          "durationTicks": 128,
          "midi": 45,
          "name": "A2",
          "ticks": 41472,
          "time": 60.75,
          "velocity": 0.6850393700787402
        },
        {
          "duration": 0.1875,
          "durationTicks": 128,
          "midi": 33,
          "name": "A1",
          "ticks": 41600,
          "time": 60.9375,
          "velocity": 0.6535433070866141
        },
        {
          "duration": 0.1875,
          "durationTicks": 128,
          "midi": 45,
          "name": "A2",
          "ticks": 41600,
          "time": 60.9375,
          "velocity": 0.6535433070866141
        },
        {
          "duration": 0.1875,
          "durationTicks": 128,
          "midi": 42,
          "name": "F#2",
          "ticks": 41728,
          "time": 61.125,
          "velocity": 0.6771653543307087
        },
        {
          "duration": 0.1875,
          "durationTicks": 128,
          "midi": 30,
          "name": "F#1",
          "ticks": 41856,
          "time": 61.3125,
          "velocity": 0.5511811023622047
        },
        {
          "duration": 0.1875,
          "durationTicks": 128,
          "midi": 30,
          "name": "F#1",
          "ticks": 41984,
          "time": 61.5,
          "velocity": 0.6614173228346457
        },
        {
          "duration": 0.1875,
          "durationTicks": 128,
          "midi": 42,
          "name": "F#2",
          "ticks": 42112,
          "time": 61.6875,
          "velocity": 0.7322834645669292
        },
        {
          "duration": 0.1875,
          "durationTicks": 128,
          "midi": 30,
          "name": "F#1",
          "ticks": 42240,
          "time": 61.875,
          "velocity": 0.6220472440944882
        },
        {
          "duration": 0.1875,
          "durationTicks": 128,
          "midi": 30,
          "name": "F#1",
          "ticks": 42368,
          "time": 62.0625,
          "velocity": 0.6929133858267716
        },
        {
          "duration": 0.1875,
          "durationTicks": 128,
          "midi": 42,
          "name": "F#2",
          "ticks": 42496,
          "time": 62.25,
          "velocity": 0.7637795275590551
        },
        {
          "duration": 0.1875,
          "durationTicks": 128,
          "midi": 30,
          "name": "F#1",
          "ticks": 42624,
          "time": 62.4375,
          "velocity": 0.5826771653543307
        },
        {
          "duration": 0.1875,
          "durationTicks": 128,
          "midi": 27,
          "name": "D#1",
          "ticks": 42752,
          "time": 62.625,
          "velocity": 0.7322834645669292
        },
        {
          "duration": 0.1875,
          "durationTicks": 128,
          "midi": 39,
          "name": "D#2",
          "ticks": 42752,
          "time": 62.625,
          "velocity": 0.7322834645669292
        },
        {
          "duration": 0.1875,
          "durationTicks": 128,
          "midi": 27,
          "name": "D#1",
          "ticks": 43136,
          "time": 63.1875,
          "velocity": 0.5511811023622047
        },
        {
          "duration": 0.1875,
          "durationTicks": 128,
          "midi": 39,
          "name": "D#2",
          "ticks": 43136,
          "time": 63.1875,
          "velocity": 0.5511811023622047
        },
        {
          "duration": 0.1875,
          "durationTicks": 128,
          "midi": 28,
          "name": "E1",
          "ticks": 43776,
          "time": 64.125,
          "velocity": 0.968503937007874
        },
        {
          "duration": 0.1875,
          "durationTicks": 128,
          "midi": 40,
          "name": "E2",
          "ticks": 43904,
          "time": 64.3125,
          "velocity": 0.9921259842519685
        },
        {
          "duration": 0.1875,
          "durationTicks": 128,
          "midi": 52,
          "name": "E3",
          "ticks": 44032,
          "time": 64.5,
          "velocity": 1
        },
        {
          "duration": 0.09375,
          "durationTicks": 64,
          "midi": 40,
          "name": "E2",
          "ticks": 44160,
          "time": 64.6875,
          "velocity": 0.7952755905511811
        },
        {
          "duration": 0.09375,
          "durationTicks": 64,
          "midi": 52,
          "name": "E3",
          "ticks": 44224,
          "time": 64.78125,
          "velocity": 1
        },
        {
          "duration": 0.1875,
          "durationTicks": 128,
          "midi": 30,
          "name": "F#1",
          "ticks": 44288,
          "time": 64.875,
          "velocity": 0.9133858267716536
        },
        {
          "duration": 0.09375,
          "durationTicks": 64,
          "midi": 42,
          "name": "F#2",
          "ticks": 44416,
          "time": 65.0625,
          "velocity": 0.968503937007874
        },
        {
          "duration": 0.09375,
          "durationTicks": 64,
          "midi": 30,
          "name": "F#1",
          "ticks": 44480,
          "time": 65.15625,
          "velocity": 0.7795275590551181
        },
        {
          "duration": 0.1875,
          "durationTicks": 128,
          "midi": 42,
          "name": "F#2",
          "ticks": 44544,
          "time": 65.25,
          "velocity": 1
        },
        {
          "duration": 0.1875,
          "durationTicks": 128,
          "midi": 30,
          "name": "F#1",
          "ticks": 44672,
          "time": 65.4375,
          "velocity": 0.7952755905511811
        },
        {
          "duration": 0.1875,
          "durationTicks": 128,
          "midi": 32,
          "name": "G#1",
          "ticks": 44800,
          "time": 65.625,
          "velocity": 1
        },
        {
          "duration": 0.1875,
          "durationTicks": 128,
          "midi": 44,
          "name": "G#2",
          "ticks": 44928,
          "time": 65.8125,
          "velocity": 0.984251968503937
        },
        {
          "duration": 0.1875,
          "durationTicks": 128,
          "midi": 51,
          "name": "D#3",
          "ticks": 45056,
          "time": 66,
          "velocity": 1
        },
        {
          "duration": 0.1875,
          "durationTicks": 128,
          "midi": 56,
          "name": "G#3",
          "ticks": 45184,
          "time": 66.1875,
          "velocity": 0.9763779527559056
        },
        {
          "duration": 0.1875,
          "durationTicks": 128,
          "midi": 58,
          "name": "A#3",
          "ticks": 45312,
          "time": 66.375,
          "velocity": 0.9212598425196851
        },
        {
          "duration": 0.1875,
          "durationTicks": 128,
          "midi": 59,
          "name": "B3",
          "ticks": 45440,
          "time": 66.5625,
          "velocity": 0.937007874015748
        },
        {
          "duration": 0.1875,
          "durationTicks": 128,
          "midi": 51,
          "name": "D#3",
          "ticks": 45568,
          "time": 66.75,
          "velocity": 0.7952755905511811
        },
        {
          "duration": 0.1875,
          "durationTicks": 128,
          "midi": 58,
          "name": "A#3",
          "ticks": 45696,
          "time": 66.9375,
          "velocity": 0.952755905511811
        },
        {
          "duration": 0.1875,
          "durationTicks": 128,
          "midi": 28,
          "name": "E1",
          "ticks": 45824,
          "time": 67.125,
          "velocity": 0.9448818897637795
        },
        {
          "duration": 0.1875,
          "durationTicks": 128,
          "midi": 40,
          "name": "E2",
          "ticks": 45952,
          "time": 67.3125,
          "velocity": 0.9763779527559056
        },
        {
          "duration": 0.1875,
          "durationTicks": 128,
          "midi": 52,
          "name": "E3",
          "ticks": 46080,
          "time": 67.5,
          "velocity": 1
        },
        {
          "duration": 0.09375,
          "durationTicks": 64,
          "midi": 40,
          "name": "E2",
          "ticks": 46208,
          "time": 67.6875,
          "velocity": 0.7795275590551181
        },
        {
          "duration": 0.09375,
          "durationTicks": 64,
          "midi": 52,
          "name": "E3",
          "ticks": 46272,
          "time": 67.78125,
          "velocity": 0.9763779527559056
        },
        {
          "duration": 0.1875,
          "durationTicks": 128,
          "midi": 30,
          "name": "F#1",
          "ticks": 46336,
          "time": 67.875,
          "velocity": 0.9606299212598425
        },
        {
          "duration": 0.09375,
          "durationTicks": 64,
          "midi": 42,
          "name": "F#2",
          "ticks": 46464,
          "time": 68.0625,
          "velocity": 1
        },
        {
          "duration": 0.09375,
          "durationTicks": 64,
          "midi": 30,
          "name": "F#1",
          "ticks": 46528,
          "time": 68.15625,
          "velocity": 0.7716535433070866
        },
        {
          "duration": 0.1875,
          "durationTicks": 128,
          "midi": 42,
          "name": "F#2",
          "ticks": 46592,
          "time": 68.25,
          "velocity": 1
        },
        {
          "duration": 0.1875,
          "durationTicks": 128,
          "midi": 30,
          "name": "F#1",
          "ticks": 46720,
          "time": 68.4375,
          "velocity": 0.7795275590551181
        },
        {
          "duration": 0.1875,
          "durationTicks": 128,
          "midi": 23,
          "name": "B0",
          "ticks": 46848,
          "time": 68.625,
          "velocity": 0.952755905511811
        },
        {
          "duration": 0.1875,
          "durationTicks": 128,
          "midi": 35,
          "name": "B1",
          "ticks": 46976,
          "time": 68.8125,
          "velocity": 0.984251968503937
        },
        {
          "duration": 0.1875,
          "durationTicks": 128,
          "midi": 47,
          "name": "B2",
          "ticks": 47104,
          "time": 69,
          "velocity": 1
        },
        {
          "duration": 0.09375,
          "durationTicks": 64,
          "midi": 35,
          "name": "B1",
          "ticks": 47232,
          "time": 69.1875,
          "velocity": 0.8188976377952756
        },
        {
          "duration": 0.09375,
          "durationTicks": 64,
          "midi": 47,
          "name": "B2",
          "ticks": 47296,
          "time": 69.28125,
          "velocity": 1
        },
        {
          "duration": 0.1875,
          "durationTicks": 128,
          "midi": 35,
          "name": "B1",
          "ticks": 47360,
          "time": 69.375,
          "velocity": 0.9291338582677166
        },
        {
          "duration": 0.1875,
          "durationTicks": 128,
          "midi": 47,
          "name": "B2",
          "ticks": 47488,
          "time": 69.5625,
          "velocity": 1
        },
        {
          "duration": 0.1875,
          "durationTicks": 128,
          "midi": 59,
          "name": "B3",
          "ticks": 47616,
          "time": 69.75,
          "velocity": 1
        },
        {
          "duration": 0.1875,
          "durationTicks": 128,
          "midi": 54,
          "name": "F#3",
          "ticks": 47744,
          "time": 69.9375,
          "velocity": 0.8582677165354331
        },
        {
          "duration": 0.1875,
          "durationTicks": 128,
          "midi": 28,
          "name": "E1",
          "ticks": 47872,
          "time": 70.125,
          "velocity": 0.8976377952755905
        },
        {
          "duration": 0.1875,
          "durationTicks": 128,
          "midi": 40,
          "name": "E2",
          "ticks": 48000,
          "time": 70.3125,
          "velocity": 1
        },
        {
          "duration": 0.1875,
          "durationTicks": 128,
          "midi": 47,
          "name": "B2",
          "ticks": 48128,
          "time": 70.5,
          "velocity": 0.952755905511811
        },
        {
          "duration": 0.1875,
          "durationTicks": 128,
          "midi": 52,
          "name": "E3",
          "ticks": 48256,
          "time": 70.6875,
          "velocity": 0.9606299212598425
        },
        {
          "duration": 0.1875,
          "durationTicks": 128,
          "midi": 30,
          "name": "F#1",
          "ticks": 48384,
          "time": 70.875,
          "velocity": 0.7795275590551181
        },
        {
          "duration": 0.1875,
          "durationTicks": 128,
          "midi": 37,
          "name": "C#2",
          "ticks": 48512,
          "time": 71.0625,
          "velocity": 0.9448818897637795
        },
        {
          "duration": 0.1875,
          "durationTicks": 128,
          "midi": 42,
          "name": "F#2",
          "ticks": 48640,
          "time": 71.25,
          "velocity": 0.952755905511811
        },
        {
          "duration": 0.1875,
          "durationTicks": 128,
          "midi": 46,
          "name": "A#2",
          "ticks": 48768,
          "time": 71.4375,
          "velocity": 0.952755905511811
        },
        {
          "duration": 0.1875,
          "durationTicks": 128,
          "midi": 31,
          "name": "G1",
          "ticks": 48896,
          "time": 71.625,
          "velocity": 0.7795275590551181
        },
        {
          "duration": 0.1875,
          "durationTicks": 128,
          "midi": 46,
          "name": "A#2",
          "ticks": 49024,
          "time": 71.8125,
          "velocity": 1
        },
        {
          "duration": 0.1875,
          "durationTicks": 128,
          "midi": 49,
          "name": "C#3",
          "ticks": 49152,
          "time": 72,
          "velocity": 0.9133858267716536
        },
        {
          "duration": 0.1875,
          "durationTicks": 128,
          "midi": 52,
          "name": "E3",
          "ticks": 49280,
          "time": 72.1875,
          "velocity": 0.9291338582677166
        },
        {
          "duration": 0.1875,
          "durationTicks": 128,
          "midi": 32,
          "name": "G#1",
          "ticks": 49408,
          "time": 72.375,
          "velocity": 0.8031496062992126
        },
        {
          "duration": 0.1875,
          "durationTicks": 128,
          "midi": 39,
          "name": "D#2",
          "ticks": 49536,
          "time": 72.5625,
          "velocity": 0.9448818897637795
        },
        {
          "duration": 0.1875,
          "durationTicks": 128,
          "midi": 44,
          "name": "G#2",
          "ticks": 49664,
          "time": 72.75,
          "velocity": 0.968503937007874
        },
        {
          "duration": 0.1875,
          "durationTicks": 128,
          "midi": 47,
          "name": "B2",
          "ticks": 49792,
          "time": 72.9375,
          "velocity": 0.9212598425196851
        },
        {
          "duration": 0.1875,
          "durationTicks": 128,
          "midi": 28,
          "name": "E1",
          "ticks": 49920,
          "time": 73.125,
          "velocity": 0.8267716535433071
        },
        {
          "duration": 0.1875,
          "durationTicks": 128,
          "midi": 40,
          "name": "E2",
          "ticks": 50048,
          "time": 73.3125,
          "velocity": 0.9921259842519685
        },
        {
          "duration": 0.1875,
          "durationTicks": 128,
          "midi": 47,
          "name": "B2",
          "ticks": 50176,
          "time": 73.5,
          "velocity": 0.9606299212598425
        },
        {
          "duration": 0.1875,
          "durationTicks": 128,
          "midi": 52,
          "name": "E3",
          "ticks": 50304,
          "time": 73.6875,
          "velocity": 0.9606299212598425
        },
        {
          "duration": 0.1875,
          "durationTicks": 128,
          "midi": 40,
          "name": "E2",
          "ticks": 50432,
          "time": 73.875,
          "velocity": 0.8031496062992126
        },
        {
          "duration": 0.1875,
          "durationTicks": 128,
          "midi": 47,
          "name": "B2",
          "ticks": 50560,
          "time": 74.0625,
          "velocity": 0.9133858267716536
        },
        {
          "duration": 0.1875,
          "durationTicks": 128,
          "midi": 52,
          "name": "E3",
          "ticks": 50688,
          "time": 74.25,
          "velocity": 0.9448818897637795
        },
        {
          "duration": 0.1875,
          "durationTicks": 128,
          "midi": 47,
          "name": "B2",
          "ticks": 50816,
          "time": 74.4375,
          "velocity": 0.8661417322834646
        },
        {
          "duration": 0.1875,
          "durationTicks": 128,
          "midi": 42,
          "name": "F#2",
          "ticks": 50944,
          "time": 74.625,
          "velocity": 0.8346456692913385
        },
        {
          "duration": 0.1875,
          "durationTicks": 128,
          "midi": 49,
          "name": "C#3",
          "ticks": 51072,
          "time": 74.8125,
          "velocity": 0.9291338582677166
        },
        {
          "duration": 0.1875,
          "durationTicks": 128,
          "midi": 54,
          "name": "F#3",
          "ticks": 51200,
          "time": 75,
          "velocity": 0.9606299212598425
        },
        {
          "duration": 0.1875,
          "durationTicks": 128,
          "midi": 58,
          "name": "A#3",
          "ticks": 51328,
          "time": 75.1875,
          "velocity": 0.937007874015748
        },
        {
          "duration": 0.1875,
          "durationTicks": 128,
          "midi": 61,
          "name": "C#4",
          "ticks": 51456,
          "time": 75.375,
          "velocity": 0.9448818897637795
        },
        {
          "duration": 0.1875,
          "durationTicks": 128,
          "midi": 42,
          "name": "F#2",
          "ticks": 51584,
          "time": 75.5625,
          "velocity": 0.9763779527559056
        },
        {
          "duration": 0.1875,
          "durationTicks": 128,
          "midi": 54,
          "name": "F#3",
          "ticks": 51584,
          "time": 75.5625,
          "velocity": 0.9763779527559056
        },
        {
          "duration": 0.1875,
          "durationTicks": 128,
          "midi": 42,
          "name": "F#2",
          "ticks": 51712,
          "time": 75.75,
          "velocity": 1
        },
        {
          "duration": 0.1875,
          "durationTicks": 128,
          "midi": 54,
          "name": "F#3",
          "ticks": 51712,
          "time": 75.75,
          "velocity": 1
        },
        {
          "duration": 0.1875,
          "durationTicks": 128,
          "midi": 42,
          "name": "F#2",
          "ticks": 51840,
          "time": 75.9375,
          "velocity": 1
        },
        {
          "duration": 0.1875,
          "durationTicks": 128,
          "midi": 54,
          "name": "F#3",
          "ticks": 51840,
          "time": 75.9375,
          "velocity": 1
        },
        {
          "duration": 0.1875,
          "durationTicks": 128,
          "midi": 28,
          "name": "E1",
          "ticks": 51968,
          "time": 76.125,
          "velocity": 0.7559055118110236
        },
        {
          "duration": 0.1875,
          "durationTicks": 128,
          "midi": 40,
          "name": "E2",
          "ticks": 51968,
          "time": 76.125,
          "velocity": 0.7559055118110236
        },
        {
          "duration": 0.1875,
          "durationTicks": 128,
          "midi": 28,
          "name": "E1",
          "ticks": 52480,
          "time": 76.875,
          "velocity": 0.7716535433070866
        },
        {
          "duration": 0.1875,
          "durationTicks": 128,
          "midi": 40,
          "name": "E2",
          "ticks": 52480,
          "time": 76.875,
          "velocity": 0.7716535433070866
        },
        {
          "duration": 0.1875,
          "durationTicks": 128,
          "midi": 28,
          "name": "E1",
          "ticks": 52608,
          "time": 77.0625,
          "velocity": 0.8661417322834646
        },
        {
          "duration": 0.1875,
          "durationTicks": 128,
          "midi": 40,
          "name": "E2",
          "ticks": 52608,
          "time": 77.0625,
          "velocity": 0.8661417322834646
        },
        {
          "duration": 0.1875,
          "durationTicks": 128,
          "midi": 28,
          "name": "E1",
          "ticks": 52736,
          "time": 77.25,
          "velocity": 0.889763779527559
        },
        {
          "duration": 0.1875,
          "durationTicks": 128,
          "midi": 40,
          "name": "E2",
          "ticks": 52736,
          "time": 77.25,
          "velocity": 0.889763779527559
        },
        {
          "duration": 0.1875,
          "durationTicks": 128,
          "midi": 52,
          "name": "E3",
          "ticks": 52864,
          "time": 77.4375,
          "velocity": 1
        },
        {
          "duration": 0.1875,
          "durationTicks": 128,
          "midi": 55,
          "name": "G3",
          "ticks": 52864,
          "time": 77.4375,
          "velocity": 1
        },
        {
          "duration": 0.1875,
          "durationTicks": 128,
          "midi": 59,
          "name": "B3",
          "ticks": 52864,
          "time": 77.4375,
          "velocity": 1
        },
        {
          "duration": 0.1875,
          "durationTicks": 128,
          "midi": 63,
          "name": "D#4",
          "ticks": 52864,
          "time": 77.4375,
          "velocity": 1
        },
        {
          "duration": 0.375,
          "durationTicks": 256,
          "midi": 52,
          "name": "E3",
          "ticks": 53248,
          "time": 78,
          "velocity": 0.7716535433070866
        },
        {
          "duration": 0.375,
          "durationTicks": 256,
          "midi": 40,
          "name": "E2",
          "ticks": 53504,
          "time": 78.375,
          "velocity": 0.7637795275590551
        },
        {
          "duration": 0.1875,
          "durationTicks": 128,
          "midi": 28,
          "name": "E1",
          "ticks": 53760,
          "time": 78.75,
          "velocity": 0.7244094488188977
        },
        {
          "duration": 0.1875,
          "durationTicks": 128,
          "midi": 31,
          "name": "G1",
          "ticks": 53888,
          "time": 78.9375,
          "velocity": 1
        },
        {
          "duration": 0.1875,
          "durationTicks": 128,
          "midi": 43,
          "name": "G2",
          "ticks": 53888,
          "time": 78.9375,
          "velocity": 1
        },
        {
          "duration": 0.1875,
          "durationTicks": 128,
          "midi": 32,
          "name": "G#1",
          "ticks": 54016,
          "time": 79.125,
          "velocity": 0.968503937007874
        },
        {
          "duration": 0.1875,
          "durationTicks": 128,
          "midi": 44,
          "name": "G#2",
          "ticks": 54144,
          "time": 79.3125,
          "velocity": 0.9763779527559056
        },
        {
          "duration": 0.1875,
          "durationTicks": 128,
          "midi": 51,
          "name": "D#3",
          "ticks": 54272,
          "time": 79.5,
          "velocity": 0.984251968503937
        },
        {
          "duration": 0.375,
          "durationTicks": 256,
          "midi": 28,
          "name": "E1",
          "ticks": 54400,
          "time": 79.6875,
          "velocity": 0.9921259842519685
        },
        {
          "duration": 0.375,
          "durationTicks": 256,
          "midi": 40,
          "name": "E2",
          "ticks": 54400,
          "time": 79.6875,
          "velocity": 0.9921259842519685
        },
        {
          "duration": 0.1875,
          "durationTicks": 128,
          "midi": 40,
          "name": "E2",
          "ticks": 54656,
          "time": 80.0625,
          "velocity": 0.8976377952755905
        },
        {
          "duration": 0.1875,
          "durationTicks": 128,
          "midi": 47,
          "name": "B2",
          "ticks": 54784,
          "time": 80.25,
          "velocity": 1
        },
        {
          "duration": 0.1875,
          "durationTicks": 128,
          "midi": 52,
          "name": "E3",
          "ticks": 54784,
          "time": 80.25,
          "velocity": 1
        },
        {
          "duration": 0.1875,
          "durationTicks": 128,
          "midi": 40,
          "name": "E2",
          "ticks": 54912,
          "time": 80.4375,
          "velocity": 0.7716535433070866
        },
        {
          "duration": 0.1875,
          "durationTicks": 128,
          "midi": 27,
          "name": "D#1",
          "ticks": 55040,
          "time": 80.625,
          "velocity": 0.7480314960629921
        },
        {
          "duration": 0.1875,
          "durationTicks": 128,
          "midi": 39,
          "name": "D#2",
          "ticks": 55168,
          "time": 80.8125,
          "velocity": 0.968503937007874
        },
        {
          "duration": 0.1875,
          "durationTicks": 128,
          "midi": 46,
          "name": "A#2",
          "ticks": 55296,
          "time": 81,
          "velocity": 0.968503937007874
        },
        {
          "duration": 0.1875,
          "durationTicks": 128,
          "midi": 42,
          "name": "F#2",
          "ticks": 55424,
          "time": 81.1875,
          "velocity": 0.8661417322834646
        },
        {
          "duration": 0.1875,
          "durationTicks": 128,
          "midi": 49,
          "name": "C#3",
          "ticks": 55552,
          "time": 81.375,
          "velocity": 0.9606299212598425
        },
        {
          "duration": 0.1875,
          "durationTicks": 128,
          "midi": 54,
          "name": "F#3",
          "ticks": 55680,
          "time": 81.5625,
          "velocity": 0.9212598425196851
        },
        {
          "duration": 0.1875,
          "durationTicks": 128,
          "midi": 59,
          "name": "B3",
          "ticks": 55808,
          "time": 81.75,
          "velocity": 0.9448818897637795
        },
        {
          "duration": 0.1875,
          "durationTicks": 128,
          "midi": 58,
          "name": "A#3",
          "ticks": 55936,
          "time": 81.9375,
          "velocity": 0.889763779527559
        },
        {
          "duration": 0.1875,
          "durationTicks": 128,
          "midi": 32,
          "name": "G#1",
          "ticks": 56064,
          "time": 82.125,
          "velocity": 0.905511811023622
        },
        {
          "duration": 0.1875,
          "durationTicks": 128,
          "midi": 44,
          "name": "G#2",
          "ticks": 56192,
          "time": 82.3125,
          "velocity": 1
        },
        {
          "duration": 0.1875,
          "durationTicks": 128,
          "midi": 51,
          "name": "D#3",
          "ticks": 56320,
          "time": 82.5,
          "velocity": 0.9448818897637795
        },
        {
          "duration": 0.375,
          "durationTicks": 256,
          "midi": 28,
          "name": "E1",
          "ticks": 56448,
          "time": 82.6875,
          "velocity": 0.952755905511811
        },
        {
          "duration": 0.375,
          "durationTicks": 256,
          "midi": 40,
          "name": "E2",
          "ticks": 56448,
          "time": 82.6875,
          "velocity": 0.952755905511811
        },
        {
          "duration": 0.1875,
          "durationTicks": 128,
          "midi": 40,
          "name": "E2",
          "ticks": 56704,
          "time": 83.0625,
          "velocity": 0.937007874015748
        },
        {
          "duration": 0.1875,
          "durationTicks": 128,
          "midi": 47,
          "name": "B2",
          "ticks": 56832,
          "time": 83.25,
          "velocity": 1
        },
        {
          "duration": 0.1875,
          "durationTicks": 128,
          "midi": 52,
          "name": "E3",
          "ticks": 56832,
          "time": 83.25,
          "velocity": 1
        },
        {
          "duration": 0.1875,
          "durationTicks": 128,
          "midi": 40,
          "name": "E2",
          "ticks": 56960,
          "time": 83.4375,
          "velocity": 0.7637795275590551
        },
        {
          "duration": 0.1875,
          "durationTicks": 128,
          "midi": 27,
          "name": "D#1",
          "ticks": 57088,
          "time": 83.625,
          "velocity": 0.7559055118110236
        },
        {
          "duration": 0.1875,
          "durationTicks": 128,
          "midi": 39,
          "name": "D#2",
          "ticks": 57216,
          "time": 83.8125,
          "velocity": 0.9606299212598425
        },
        {
          "duration": 0.1875,
          "durationTicks": 128,
          "midi": 46,
          "name": "A#2",
          "ticks": 57344,
          "time": 84,
          "velocity": 0.9763779527559056
        },
        {
          "duration": 0.375,
          "durationTicks": 256,
          "midi": 51,
          "name": "D#3",
          "ticks": 57472,
          "time": 84.1875,
          "velocity": 1
        },
        {
          "duration": 0.375,
          "durationTicks": 256,
          "midi": 58,
          "name": "A#3",
          "ticks": 57472,
          "time": 84.1875,
          "velocity": 1
        },
        {
          "duration": 0.375,
          "durationTicks": 256,
          "midi": 39,
          "name": "D#2",
          "ticks": 57728,
          "time": 84.5625,
          "velocity": 0.7874015748031497
        },
        {
          "duration": 0.375,
          "durationTicks": 256,
          "midi": 49,
          "name": "C#3",
          "ticks": 57728,
          "time": 84.5625,
          "velocity": 0.7874015748031497
        },
        {
          "duration": 0.1875,
          "durationTicks": 128,
          "midi": 39,
          "name": "D#2",
          "ticks": 57984,
          "time": 84.9375,
          "velocity": 0.7637795275590551
        },
        {
          "duration": 0.1875,
          "durationTicks": 128,
          "midi": 32,
          "name": "G#1",
          "ticks": 58112,
          "time": 85.125,
          "velocity": 0.9763779527559056
        },
        {
          "duration": 0.1875,
          "durationTicks": 128,
          "midi": 44,
          "name": "G#2",
          "ticks": 58240,
          "time": 85.3125,
          "velocity": 0.9763779527559056
        },
        {
          "duration": 0.1875,
          "durationTicks": 128,
          "midi": 51,
          "name": "D#3",
          "ticks": 58368,
          "time": 85.5,
          "velocity": 0.9448818897637795
        },
        {
          "duration": 0.375,
          "durationTicks": 256,
          "midi": 28,
          "name": "E1",
          "ticks": 58496,
          "time": 85.6875,
          "velocity": 0.9763779527559056
        },
        {
          "duration": 0.375,
          "durationTicks": 256,
          "midi": 40,
          "name": "E2",
          "ticks": 58496,
          "time": 85.6875,
          "velocity": 0.9763779527559056
        },
        {
          "duration": 0.1875,
          "durationTicks": 128,
          "midi": 40,
          "name": "E2",
          "ticks": 58752,
          "time": 86.0625,
          "velocity": 0.889763779527559
        },
        {
          "duration": 0.1875,
          "durationTicks": 128,
          "midi": 47,
          "name": "B2",
          "ticks": 58880,
          "time": 86.25,
          "velocity": 1
        },
        {
          "duration": 0.1875,
          "durationTicks": 128,
          "midi": 52,
          "name": "E3",
          "ticks": 58880,
          "time": 86.25,
          "velocity": 1
        },
        {
          "duration": 0.1875,
          "durationTicks": 128,
          "midi": 40,
          "name": "E2",
          "ticks": 59008,
          "time": 86.4375,
          "velocity": 0.7952755905511811
        },
        {
          "duration": 0.1875,
          "durationTicks": 128,
          "midi": 27,
          "name": "D#1",
          "ticks": 59136,
          "time": 86.625,
          "velocity": 0.7559055118110236
        },
        {
          "duration": 0.1875,
          "durationTicks": 128,
          "midi": 39,
          "name": "D#2",
          "ticks": 59264,
          "time": 86.8125,
          "velocity": 0.9606299212598425
        },
        {
          "duration": 0.1875,
          "durationTicks": 128,
          "midi": 46,
          "name": "A#2",
          "ticks": 59392,
          "time": 87,
          "velocity": 0.9606299212598425
        },
        {
          "duration": 0.1875,
          "durationTicks": 128,
          "midi": 42,
          "name": "F#2",
          "ticks": 59520,
          "time": 87.1875,
          "velocity": 0.8503937007874016
        },
        {
          "duration": 0.1875,
          "durationTicks": 128,
          "midi": 49,
          "name": "C#3",
          "ticks": 59648,
          "time": 87.375,
          "velocity": 0.968503937007874
        },
        {
          "duration": 0.1875,
          "durationTicks": 128,
          "midi": 54,
          "name": "F#3",
          "ticks": 59776,
          "time": 87.5625,
          "velocity": 1
        },
        {
          "duration": 0.1875,
          "durationTicks": 128,
          "midi": 59,
          "name": "B3",
          "ticks": 59904,
          "time": 87.75,
          "velocity": 0.9448818897637795
        },
        {
          "duration": 0.1875,
          "durationTicks": 128,
          "midi": 58,
          "name": "A#3",
          "ticks": 60032,
          "time": 87.9375,
          "velocity": 0.8346456692913385
        },
        {
          "duration": 0.1875,
          "durationTicks": 128,
          "midi": 32,
          "name": "G#1",
          "ticks": 60160,
          "time": 88.125,
          "velocity": 0.9448818897637795
        },
        {
          "duration": 0.1875,
          "durationTicks": 128,
          "midi": 44,
          "name": "G#2",
          "ticks": 60288,
          "time": 88.3125,
          "velocity": 0.984251968503937
        },
        {
          "duration": 0.1875,
          "durationTicks": 128,
          "midi": 51,
          "name": "D#3",
          "ticks": 60416,
          "time": 88.5,
          "velocity": 0.9763779527559056
        },
        {
          "duration": 0.375,
          "durationTicks": 256,
          "midi": 28,
          "name": "E1",
          "ticks": 60544,
          "time": 88.6875,
          "velocity": 0.9133858267716536
        },
        {
          "duration": 0.375,
          "durationTicks": 256,
          "midi": 40,
          "name": "E2",
          "ticks": 60544,
          "time": 88.6875,
          "velocity": 0.9133858267716536
        },
        {
          "duration": 0.1875,
          "durationTicks": 128,
          "midi": 40,
          "name": "E2",
          "ticks": 60800,
          "time": 89.0625,
          "velocity": 0.8818897637795275
        },
        {
          "duration": 0.1875,
          "durationTicks": 128,
          "midi": 47,
          "name": "B2",
          "ticks": 60928,
          "time": 89.25,
          "velocity": 1
        },
        {
          "duration": 0.1875,
          "durationTicks": 128,
          "midi": 52,
          "name": "E3",
          "ticks": 60928,
          "time": 89.25,
          "velocity": 1
        },
        {
          "duration": 0.1875,
          "durationTicks": 128,
          "midi": 40,
          "name": "E2",
          "ticks": 61056,
          "time": 89.4375,
          "velocity": 0.7952755905511811
        },
        {
          "duration": 0.1875,
          "durationTicks": 128,
          "midi": 27,
          "name": "D#1",
          "ticks": 61184,
          "time": 89.625,
          "velocity": 0.7559055118110236
        },
        {
          "duration": 0.1875,
          "durationTicks": 128,
          "midi": 39,
          "name": "D#2",
          "ticks": 61312,
          "time": 89.8125,
          "velocity": 0.9606299212598425
        },
        {
          "duration": 0.1875,
          "durationTicks": 128,
          "midi": 46,
          "name": "A#2",
          "ticks": 61440,
          "time": 90,
          "velocity": 1
        },
        {
          "duration": 0.375,
          "durationTicks": 256,
          "midi": 51,
          "name": "D#3",
          "ticks": 61568,
          "time": 90.1875,
          "velocity": 1
        },
        {
          "duration": 0.375,
          "durationTicks": 256,
          "midi": 58,
          "name": "A#3",
          "ticks": 61568,
          "time": 90.1875,
          "velocity": 1
        },
        {
          "duration": 0.1875,
          "durationTicks": 128,
          "midi": 39,
          "name": "D#2",
          "ticks": 61824,
          "time": 90.5625,
          "velocity": 1
        },
        {
          "duration": 0.1875,
          "durationTicks": 128,
          "midi": 51,
          "name": "D#3",
          "ticks": 61824,
          "time": 90.5625,
          "velocity": 1
        },
        {
          "duration": 0.1875,
          "durationTicks": 128,
          "midi": 39,
          "name": "D#2",
          "ticks": 61952,
          "time": 90.75,
          "velocity": 1
        },
        {
          "duration": 0.1875,
          "durationTicks": 128,
          "midi": 51,
          "name": "D#3",
          "ticks": 61952,
          "time": 90.75,
          "velocity": 1
        },
        {
          "duration": 0.1875,
          "durationTicks": 128,
          "midi": 39,
          "name": "D#2",
          "ticks": 62080,
          "time": 90.9375,
          "velocity": 1
        },
        {
          "duration": 0.1875,
          "durationTicks": 128,
          "midi": 51,
          "name": "D#3",
          "ticks": 62080,
          "time": 90.9375,
          "velocity": 1
        },
        {
          "duration": 1.5,
          "durationTicks": 768,
          "midi": 32,
          "name": "G#1",
          "ticks": 62208,
          "time": 91.125,
          "velocity": 0.8188976377952756
        },
        {
          "duration": 1.5,
          "durationTicks": 768,
          "midi": 44,
          "name": "G#2",
          "ticks": 62208,
          "time": 91.125,
          "velocity": 0.8188976377952756
        },
        {
          "duration": 0.75,
          "durationTicks": 256,
          "midi": 44,
          "name": "G#2",
          "ticks": 62976,
          "time": 92.625,
          "velocity": 0.48031496062992124
        },
        {
          "duration": 0.75,
          "durationTicks": 256,
          "midi": 47,
          "name": "B2",
          "ticks": 62976,
          "time": 92.625,
          "velocity": 0.48031496062992124
        },
        {
          "duration": 0.75,
          "durationTicks": 256,
          "midi": 51,
          "name": "D#3",
          "ticks": 62976,
          "time": 92.625,
          "velocity": 0.48031496062992124
        },
        {
          "duration": 1.5,
          "durationTicks": 512,
          "midi": 47,
          "name": "B2",
          "ticks": 63232,
          "time": 93.375,
          "velocity": 0.5748031496062992
        },
        {
          "duration": 1.5,
          "durationTicks": 512,
          "midi": 51,
          "name": "D#3",
          "ticks": 63232,
          "time": 93.375,
          "velocity": 0.5748031496062992
        },
        {
          "duration": 1.5,
          "durationTicks": 512,
          "midi": 56,
          "name": "G#3",
          "ticks": 63232,
          "time": 93.375,
          "velocity": 0.5748031496062992
        },
        {
          "duration": 1.125,
          "durationTicks": 384,
          "midi": 52,
          "name": "E3",
          "ticks": 64640,
          "time": 97.5,
          "velocity": 0.2440944881889764
        },
        {
          "duration": 1.125,
          "durationTicks": 384,
          "midi": 56,
          "name": "G#3",
          "ticks": 64640,
          "time": 97.5,
          "velocity": 0.2440944881889764
        },
        {
          "duration": 1.125,
          "durationTicks": 384,
          "midi": 59,
          "name": "B3",
          "ticks": 64640,
          "time": 97.5,
          "velocity": 0.2440944881889764
        },
        {
          "duration": 0.9375,
          "durationTicks": 320,
          "midi": 49,
          "name": "C#3",
          "ticks": 65024,
          "time": 98.625,
          "velocity": 0.2755905511811024
        },
        {
          "duration": 0.9375,
          "durationTicks": 320,
          "midi": 54,
          "name": "F#3",
          "ticks": 65024,
          "time": 98.625,
          "velocity": 0.2755905511811024
        },
        {
          "duration": 0.9375,
          "durationTicks": 320,
          "midi": 58,
          "name": "A#3",
          "ticks": 65024,
          "time": 98.625,
          "velocity": 0.2755905511811024
        },
        {
          "duration": 6,
          "durationTicks": 2048,
          "midi": 44,
          "name": "G#2",
          "ticks": 65344,
          "time": 99.5625,
          "velocity": 0.25196850393700787
        },
        {
          "duration": 5.9208984375,
          "durationTicks": 2021,
          "midi": 32,
          "name": "G#1",
          "ticks": 65371,
          "time": 99.6416015625,
          "velocity": 0.25196850393700787
        }
      ]
    }
  ]
}
