{
  "header": {
    "keySignatures": [
      {
        "key": "A",
        "scale": "major",
        "ticks": 0
      }
    ],
    "meta": [],
    "name": "Untitled Song",
    "ppq": 480,
    "tempos": [
      {
        "bpm": 110.00011000011,
        "ticks": 0
      }
    ],
    "timeSignatures": [
      {
        "ticks": 0,
        "timeSignature": [
          4,
          4
        ],
        "measures": 0
      }
    ]
  },
  "tracks": [
    {
      "channel": 0,
      "controlChanges": {},
      "pitchBends": [],
      "instrument": {
        "family": "piano",
        "number": 0,
        "name": "acoustic grand piano"
      },
      "name": "Words",
      "notes": [],
      "endOfTrackTicks": 139920
    },
    {
      "channel": 0,
      "controlChanges": {
        "7": [
          {
            "number": 7,
            "ticks": 0,
            "time": 0,
            "value": 0.8976377952755905
          }
        ],
        "10": [
          {
            "number": 10,
            "ticks": 0,
            "time": 0,
            "value": 0.5039370078740157
          }
        ],
        "32": [
          {
            "number": 32,
            "ticks": 0,
            "time": 0,
            "value": 0
          }
        ],
        "91": [
          {
            "number": 91,
            "ticks": 0,
            "time": 0,
            "value": 0.6614173228346457
          }
        ]
      },
      "pitchBends": [],
      "instrument": {
        "family": "piano",
        "number": 0,
        "name": "acoustic grand piano"
      },
      "name": "Melody",
      "notes": [],
      "endOfTrackTicks": 141840
    },
    {
      "channel": 0,
      "controlChanges": {
        "7": [
          {
            "number": 7,
            "ticks": 134400,
            "time": 152.72711999999999,
            "value": 0.8503937007874016
          },
          {
            "number": 7,
            "ticks": 134640,
            "time": 152.999847,
            "value": 0.8188976377952756
          },
          {
            "number": 7,
            "ticks": 134880,
            "time": 153.272574,
            "value": 0.7952755905511811
          },
          {
            "number": 7,
            "ticks": 135120,
            "time": 153.545301,
            "value": 0.7637795275590551
          },
          {
            "number": 7,
            "ticks": 135360,
            "time": 153.818028,
            "value": 0.7401574803149606
          },
          {
            "number": 7,
            "ticks": 135600,
            "time": 154.090755,
            "value": 0.7165354330708661
          },
          {
            "number": 7,
            "ticks": 135840,
            "time": 154.363482,
            "value": 0.6850393700787402
          },
          {
            "number": 7,
            "ticks": 136080,
            "time": 154.636209,
            "value": 0.6614173228346457
          },
          {
            "number": 7,
            "ticks": 136320,
            "time": 154.908936,
            "value": 0.6299212598425197
          },
          {
            "number": 7,
            "ticks": 136560,
            "time": 155.181663,
            "value": 0.6062992125984252
          },
          {
            "number": 7,
            "ticks": 136800,
            "time": 155.45439,
            "value": 0.5826771653543307
          },
          {
            "number": 7,
            "ticks": 137040,
            "time": 155.727117,
            "value": 0.5511811023622047
          },
          {
            "number": 7,
            "ticks": 137280,
            "time": 155.999844,
            "value": 0.5275590551181102
          },
          {
            "number": 7,
            "ticks": 137520,
            "time": 156.272571,
            "value": 0.5039370078740157
          },
          {
            "number": 7,
            "ticks": 137760,
            "time": 156.545298,
            "value": 0.47244094488188976
          },
          {
            "number": 7,
            "ticks": 138000,
            "time": 156.818025,
            "value": 0.44881889763779526
          },
          {
            "number": 7,
            "ticks": 138240,
            "time": 157.090752,
            "value": 0.41732283464566927
          },
          {
            "number": 7,
            "ticks": 138480,
            "time": 157.363479,
            "value": 0.3937007874015748
          },
          {
            "number": 7,
            "ticks": 138720,
            "time": 157.636206,
            "value": 0.3700787401574803
          },
          {
            "number": 7,
            "ticks": 138960,
            "time": 157.908933,
            "value": 0.33858267716535434
          },
          {
            "number": 7,
            "ticks": 139200,
            "time": 158.18166,
            "value": 0.31496062992125984
          },
          {
            "number": 7,
            "ticks": 139440,
            "time": 158.454387,
            "value": 0.29133858267716534
          },
          {
            "number": 7,
            "ticks": 139680,
            "time": 158.727114,
            "value": 0.25984251968503935
          },
          {
            "number": 7,
            "ticks": 139920,
            "time": 158.999841,
            "value": 0.23622047244094488
          },
          {
            "number": 7,
            "ticks": 140160,
            "time": 159.272568,
            "value": 0.2047244094488189
          },
          {
            "number": 7,
            "ticks": 140400,
            "time": 159.545295,
            "value": 0.18110236220472442
          },
          {
            "number": 7,
            "ticks": 140640,
            "time": 159.81802199999998,
            "value": 0.15748031496062992
          },
          {
            "number": 7,
            "ticks": 140880,
            "time": 160.090749,
            "value": 0.12598425196850394
          },
          {
            "number": 7,
            "ticks": 141120,
            "time": 160.363476,
            "value": 0.10236220472440945
          },
          {
            "number": 7,
            "ticks": 141360,
            "time": 160.636203,
            "value": 0.07874015748031496
          },
          {
            "number": 7,
            "ticks": 141600,
            "time": 160.90893,
            "value": 0.047244094488188976
          },
          {
            "number": 7,
            "ticks": 141840,
            "time": 161.181657,
            "value": 0.023622047244094488
          }
        ],
        "123": [
          {
            "number": 123,
            "ticks": 0,
            "time": 0,
            "value": 0
          }
        ]
      },
      "pitchBends": [],
      "instrument": {
        "family": "reed",
        "number": 65,
        "name": "alto sax"
      },
      "name": "",
      "notes": [
        {
          "duration": 0.21818159999999942,
          "durationTicks": 192,
          "midi": 64,
          "name": "E4",
          "ticks": 13440,
          "time": 15.272712,
          "velocity": 0.937007874015748
        },
        {
          "duration": 0.21818159999999942,
          "durationTicks": 192,
          "midi": 64,
          "name": "E4",
          "ticks": 13680,
          "time": 15.545439,
          "velocity": 0.8661417322834646
        },
        {
          "duration": 0.21818159999999942,
          "durationTicks": 192,
          "midi": 66,
          "name": "F#4",
          "ticks": 13920,
          "time": 15.818166,
          "velocity": 0.9212598425196851
        },
        {
          "duration": 0.21818159999999764,
          "durationTicks": 192,
          "midi": 61,
          "name": "C#4",
          "ticks": 14160,
          "time": 16.090893,
          "velocity": 0.8582677165354331
        },
        {
          "duration": 0.21818159999999764,
          "durationTicks": 192,
          "midi": 64,
          "name": "E4",
          "ticks": 14400,
          "time": 16.36362,
          "velocity": 0.937007874015748
        },
        {
          "duration": 0.24999974999999708,
          "durationTicks": 220,
          "midi": 66,
          "name": "F#4",
          "ticks": 14640,
          "time": 16.636347,
          "velocity": 0.8818897637795275
        },
        {
          "duration": 0.43636319999999884,
          "durationTicks": 384,
          "midi": 69,
          "name": "A4",
          "ticks": 15120,
          "time": 17.181801,
          "velocity": 0.8582677165354331
        },
        {
          "duration": 0.2181816000000012,
          "durationTicks": 192,
          "midi": 69,
          "name": "A4",
          "ticks": 15600,
          "time": 17.727255,
          "velocity": 0.9133858267716536
        },
        {
          "duration": 0.2181816000000012,
          "durationTicks": 192,
          "midi": 71,
          "name": "B4",
          "ticks": 15840,
          "time": 17.999982,
          "velocity": 0.8740157480314961
        },
        {
          "duration": 0.2181816000000012,
          "durationTicks": 192,
          "midi": 66,
          "name": "F#4",
          "ticks": 16080,
          "time": 18.272709,
          "velocity": 0.9133858267716536
        },
        {
          "duration": 0.2181816000000012,
          "durationTicks": 192,
          "midi": 69,
          "name": "A4",
          "ticks": 16320,
          "time": 18.545436,
          "velocity": 0.889763779527559
        },
        {
          "duration": 0.2181816000000012,
          "durationTicks": 192,
          "midi": 71,
          "name": "B4",
          "ticks": 16560,
          "time": 18.818163,
          "velocity": 0.905511811023622
        },
        {
          "duration": 0.2181816000000012,
          "durationTicks": 192,
          "midi": 69,
          "name": "A4",
          "ticks": 16800,
          "time": 19.090889999999998,
          "velocity": 0.889763779527559
        },
        {
          "duration": 0.4363631999999953,
          "durationTicks": 384,
          "midi": 73,
          "name": "C#5",
          "ticks": 17040,
          "time": 19.363617,
          "velocity": 0.937007874015748
        },
        {
          "duration": 0.21818159999999764,
          "durationTicks": 192,
          "midi": 74,
          "name": "D5",
          "ticks": 17520,
          "time": 19.909071,
          "velocity": 0.905511811023622
        },
        {
          "duration": 0.21818159999999764,
          "durationTicks": 192,
          "midi": 73,
          "name": "C#5",
          "ticks": 17760,
          "time": 20.181798,
          "velocity": 0.937007874015748
        },
        {
          "duration": 0.21818159999999764,
          "durationTicks": 192,
          "midi": 74,
          "name": "D5",
          "ticks": 18000,
          "time": 20.454525,
          "velocity": 0.9291338582677166
        },
        {
          "duration": 0.2727269999999997,
          "durationTicks": 240,
          "midi": 73,
          "name": "C#5",
          "ticks": 18240,
          "time": 20.727252,
          "velocity": 0.937007874015748
        },
        {
          "duration": 0.21818159999999764,
          "durationTicks": 192,
          "midi": 71,
          "name": "B4",
          "ticks": 18480,
          "time": 20.999979,
          "velocity": 0.8976377952755905
        },
        {
          "duration": 0.2181816000000012,
          "durationTicks": 192,
          "midi": 71,
          "name": "B4",
          "ticks": 18720,
          "time": 21.272706,
          "velocity": 0.8267716535433071
        },
        {
          "duration": 0.2727269999999997,
          "durationTicks": 240,
          "midi": 73,
          "name": "C#5",
          "ticks": 18960,
          "time": 21.545433,
          "velocity": 0.8976377952755905
        },
        {
          "duration": 0.2727269999999997,
          "durationTicks": 240,
          "midi": 71,
          "name": "B4",
          "ticks": 19200,
          "time": 21.81816,
          "velocity": 0.8818897637795275
        },
        {
          "duration": 0.5227267500000039,
          "durationTicks": 460,
          "midi": 69,
          "name": "A4",
          "ticks": 19440,
          "time": 22.090887,
          "velocity": 0.8503937007874016
        },
        {
          "duration": 0.4363631999999953,
          "durationTicks": 384,
          "midi": 73,
          "name": "C#5",
          "ticks": 20160,
          "time": 22.909068,
          "velocity": 0.905511811023622
        },
        {
          "duration": 0.43636319999999884,
          "durationTicks": 384,
          "midi": 74,
          "name": "D5",
          "ticks": 20640,
          "time": 23.454522,
          "velocity": 0.8661417322834646
        },
        {
          "duration": 0.6545448,
          "durationTicks": 576,
          "midi": 76,
          "name": "E5",
          "ticks": 21120,
          "time": 23.999976,
          "velocity": 0.8976377952755905
        },
        {
          "duration": 0.6545448000000036,
          "durationTicks": 576,
          "midi": 78,
          "name": "F#5",
          "ticks": 21840,
          "time": 24.818157,
          "velocity": 0.905511811023622
        },
        {
          "duration": 0.2181816000000012,
          "durationTicks": 192,
          "midi": 73,
          "name": "C#5",
          "ticks": 22560,
          "time": 25.636338,
          "velocity": 0.8346456692913385
        },
        {
          "duration": 0.2181816000000012,
          "durationTicks": 192,
          "midi": 71,
          "name": "B4",
          "ticks": 22800,
          "time": 25.909065,
          "velocity": 0.937007874015748
        },
        {
          "duration": 0.21818159999999764,
          "durationTicks": 192,
          "midi": 69,
          "name": "A4",
          "ticks": 23040,
          "time": 26.181792,
          "velocity": 0.8346456692913385
        },
        {
          "duration": 0.21818159999999764,
          "durationTicks": 192,
          "midi": 66,
          "name": "F#4",
          "ticks": 23280,
          "time": 26.454519,
          "velocity": 0.8740157480314961
        },
        {
          "duration": 0.21818159999999764,
          "durationTicks": 192,
          "midi": 69,
          "name": "A4",
          "ticks": 23520,
          "time": 26.727246,
          "velocity": 0.905511811023622
        },
        {
          "duration": 0.6545448,
          "durationTicks": 576,
          "midi": 73,
          "name": "C#5",
          "ticks": 23760,
          "time": 26.999973,
          "velocity": 0.8818897637795275
        },
        {
          "duration": 0.43636319999999884,
          "durationTicks": 384,
          "midi": 71,
          "name": "B4",
          "ticks": 24480,
          "time": 27.818154,
          "velocity": 0.8582677165354331
        },
        {
          "duration": 0.2181816000000012,
          "durationTicks": 192,
          "midi": 69,
          "name": "A4",
          "ticks": 24960,
          "time": 28.363608,
          "velocity": 0.905511811023622
        },
        {
          "duration": 0.2181816000000012,
          "durationTicks": 192,
          "midi": 66,
          "name": "F#4",
          "ticks": 25200,
          "time": 28.636335,
          "velocity": 0.8976377952755905
        },
        {
          "duration": 0.2181816000000012,
          "durationTicks": 192,
          "midi": 69,
          "name": "A4",
          "ticks": 25440,
          "time": 28.909062,
          "velocity": 0.905511811023622
        },
        {
          "duration": 0.6545448000000036,
          "durationTicks": 576,
          "midi": 74,
          "name": "D5",
          "ticks": 25680,
          "time": 29.181789,
          "velocity": 0.8503937007874016
        },
        {
          "duration": 0.2727269999999997,
          "durationTicks": 240,
          "midi": 73,
          "name": "C#5",
          "ticks": 26400,
          "time": 29.99997,
          "velocity": 0.8503937007874016
        },
        {
          "duration": 0.21818159999999764,
          "durationTicks": 192,
          "midi": 71,
          "name": "B4",
          "ticks": 26640,
          "time": 30.272697,
          "velocity": 0.8818897637795275
        },
        {
          "duration": 0.2727269999999997,
          "durationTicks": 240,
          "midi": 73,
          "name": "C#5",
          "ticks": 26880,
          "time": 30.545424,
          "velocity": 0.8661417322834646
        },
        {
          "duration": 0.7954537500000001,
          "durationTicks": 700,
          "midi": 71,
          "name": "B4",
          "ticks": 27120,
          "time": 30.818151,
          "velocity": 0.8818897637795275
        },
        {
          "duration": 0.4363632000000024,
          "durationTicks": 384,
          "midi": 64,
          "name": "E4",
          "ticks": 28560,
          "time": 32.454513,
          "velocity": 0.905511811023622
        },
        {
          "duration": 0.2181816000000012,
          "durationTicks": 192,
          "midi": 64,
          "name": "E4",
          "ticks": 29040,
          "time": 32.999967,
          "velocity": 0.8582677165354331
        },
        {
          "duration": 0.2181815999999941,
          "durationTicks": 192,
          "midi": 66,
          "name": "F#4",
          "ticks": 29280,
          "time": 33.272694,
          "velocity": 0.9212598425196851
        },
        {
          "duration": 0.2181816000000012,
          "durationTicks": 192,
          "midi": 61,
          "name": "C#4",
          "ticks": 29520,
          "time": 33.545421,
          "velocity": 0.889763779527559
        },
        {
          "duration": 0.2181816000000012,
          "durationTicks": 192,
          "midi": 64,
          "name": "E4",
          "ticks": 29760,
          "time": 33.818148,
          "velocity": 0.8976377952755905
        },
        {
          "duration": 0.2181816000000012,
          "durationTicks": 192,
          "midi": 66,
          "name": "F#4",
          "ticks": 30000,
          "time": 34.090875,
          "velocity": 0.937007874015748
        },
        {
          "duration": 0.2181816000000012,
          "durationTicks": 192,
          "midi": 64,
          "name": "E4",
          "ticks": 30240,
          "time": 34.363602,
          "velocity": 0.8110236220472441
        },
        {
          "duration": 0.4363632000000024,
          "durationTicks": 384,
          "midi": 69,
          "name": "A4",
          "ticks": 30480,
          "time": 34.636328999999996,
          "velocity": 0.889763779527559
        },
        {
          "duration": 0.2181816000000012,
          "durationTicks": 192,
          "midi": 69,
          "name": "A4",
          "ticks": 30960,
          "time": 35.181783,
          "velocity": 0.8110236220472441
        },
        {
          "duration": 0.2181816000000012,
          "durationTicks": 192,
          "midi": 71,
          "name": "B4",
          "ticks": 31200,
          "time": 35.45451,
          "velocity": 0.8976377952755905
        },
        {
          "duration": 0.2181816000000012,
          "durationTicks": 192,
          "midi": 66,
          "name": "F#4",
          "ticks": 31440,
          "time": 35.727237,
          "velocity": 0.8818897637795275
        },
        {
          "duration": 0.2181816000000012,
          "durationTicks": 192,
          "midi": 69,
          "name": "A4",
          "ticks": 31680,
          "time": 35.999964,
          "velocity": 0.8976377952755905
        },
        {
          "duration": 0.24999974999999353,
          "durationTicks": 220,
          "midi": 71,
          "name": "B4",
          "ticks": 31920,
          "time": 36.272691,
          "velocity": 0.9291338582677166
        },
        {
          "duration": 0.4363631999999953,
          "durationTicks": 384,
          "midi": 73,
          "name": "C#5",
          "ticks": 32400,
          "time": 36.818145,
          "velocity": 0.8976377952755905
        },
        {
          "duration": 0.2181816000000012,
          "durationTicks": 192,
          "midi": 74,
          "name": "D5",
          "ticks": 32880,
          "time": 37.363599,
          "velocity": 0.8740157480314961
        },
        {
          "duration": 0.2181816000000083,
          "durationTicks": 192,
          "midi": 73,
          "name": "C#5",
          "ticks": 33120,
          "time": 37.636326,
          "velocity": 0.8031496062992126
        },
        {
          "duration": 0.2181816000000012,
          "durationTicks": 192,
          "midi": 74,
          "name": "D5",
          "ticks": 33360,
          "time": 37.909053,
          "velocity": 0.889763779527559
        },
        {
          "duration": 0.4363632000000024,
          "durationTicks": 384,
          "midi": 73,
          "name": "C#5",
          "ticks": 33600,
          "time": 38.181779999999996,
          "velocity": 0.905511811023622
        },
        {
          "duration": 0.2181816000000012,
          "durationTicks": 192,
          "midi": 71,
          "name": "B4",
          "ticks": 34080,
          "time": 38.727234,
          "velocity": 0.8976377952755905
        },
        {
          "duration": 0.2727270000000033,
          "durationTicks": 240,
          "midi": 73,
          "name": "C#5",
          "ticks": 34320,
          "time": 38.999961,
          "velocity": 0.8267716535433071
        },
        {
          "duration": 0.27272699999999617,
          "durationTicks": 240,
          "midi": 71,
          "name": "B4",
          "ticks": 34560,
          "time": 39.272688,
          "velocity": 0.905511811023622
        },
        {
          "duration": 0.13636350000000164,
          "durationTicks": 120,
          "midi": 69,
          "name": "A4",
          "ticks": 34800,
          "time": 39.545415,
          "velocity": 0.8976377952755905
        },
        {
          "duration": 0.113636249999999,
          "durationTicks": 100,
          "midi": 71,
          "name": "B4",
          "ticks": 34920,
          "time": 39.6817785,
          "velocity": 0.9291338582677166
        },
        {
          "duration": 0.4363631999999953,
          "durationTicks": 384,
          "midi": 73,
          "name": "C#5",
          "ticks": 35520,
          "time": 40.363596,
          "velocity": 0.8503937007874016
        },
        {
          "duration": 0.4363631999999953,
          "durationTicks": 384,
          "midi": 74,
          "name": "D5",
          "ticks": 36000,
          "time": 40.90905,
          "velocity": 0.8346456692913385
        },
        {
          "duration": 0.6545448000000036,
          "durationTicks": 576,
          "midi": 76,
          "name": "E5",
          "ticks": 36480,
          "time": 41.454504,
          "velocity": 0.8818897637795275
        },
        {
          "duration": 0.6545447999999965,
          "durationTicks": 576,
          "midi": 78,
          "name": "F#5",
          "ticks": 37200,
          "time": 42.272685,
          "velocity": 0.9291338582677166
        },
        {
          "duration": 0.2181816000000012,
          "durationTicks": 192,
          "midi": 73,
          "name": "C#5",
          "ticks": 37920,
          "time": 43.090866,
          "velocity": 0.9133858267716536
        },
        {
          "duration": 0.2181816000000012,
          "durationTicks": 192,
          "midi": 71,
          "name": "B4",
          "ticks": 38160,
          "time": 43.363593,
          "velocity": 0.9212598425196851
        },
        {
          "duration": 0.2181816000000083,
          "durationTicks": 192,
          "midi": 69,
          "name": "A4",
          "ticks": 38400,
          "time": 43.63632,
          "velocity": 0.8818897637795275
        },
        {
          "duration": 0.2181816000000012,
          "durationTicks": 192,
          "midi": 66,
          "name": "F#4",
          "ticks": 38640,
          "time": 43.909047,
          "velocity": 0.9133858267716536
        },
        {
          "duration": 0.2181816000000083,
          "durationTicks": 192,
          "midi": 69,
          "name": "A4",
          "ticks": 38880,
          "time": 44.181774,
          "velocity": 0.8976377952755905
        },
        {
          "duration": 0.6545448000000036,
          "durationTicks": 576,
          "midi": 73,
          "name": "C#5",
          "ticks": 39120,
          "time": 44.454501,
          "velocity": 0.905511811023622
        },
        {
          "duration": 0.4363632000000024,
          "durationTicks": 384,
          "midi": 71,
          "name": "B4",
          "ticks": 39840,
          "time": 45.272681999999996,
          "velocity": 0.8661417322834646
        },
        {
          "duration": 0.2181816000000012,
          "durationTicks": 192,
          "midi": 69,
          "name": "A4",
          "ticks": 40320,
          "time": 45.818136,
          "velocity": 0.9291338582677166
        },
        {
          "duration": 0.2181816000000012,
          "durationTicks": 192,
          "midi": 66,
          "name": "F#4",
          "ticks": 40560,
          "time": 46.090863,
          "velocity": 0.9212598425196851
        },
        {
          "duration": 0.2181816000000012,
          "durationTicks": 192,
          "midi": 69,
          "name": "A4",
          "ticks": 40800,
          "time": 46.36359,
          "velocity": 0.8976377952755905
        },
        {
          "duration": 1.9090890000000016,
          "durationTicks": 1680,
          "midi": 74,
          "name": "D5",
          "ticks": 41040,
          "time": 46.636317,
          "velocity": 0.9133858267716536
        },
        {
          "duration": 0.4363631999999953,
          "durationTicks": 384,
          "midi": 76,
          "name": "E5",
          "ticks": 42720,
          "time": 48.545406,
          "velocity": 0.889763779527559
        },
        {
          "duration": 0.13636350000000164,
          "durationTicks": 120,
          "midi": 73,
          "name": "C#5",
          "ticks": 43200,
          "time": 49.09086,
          "velocity": 0.9133858267716536
        },
        {
          "duration": 0.13636350000000164,
          "durationTicks": 120,
          "midi": 71,
          "name": "B4",
          "ticks": 43320,
          "time": 49.2272235,
          "velocity": 0.937007874015748
        },
        {
          "duration": 0.27272699999999617,
          "durationTicks": 240,
          "midi": 69,
          "name": "A4",
          "ticks": 43440,
          "time": 49.363587,
          "velocity": 0.937007874015748
        },
        {
          "duration": 0.2181816000000012,
          "durationTicks": 192,
          "midi": 71,
          "name": "B4",
          "ticks": 43680,
          "time": 49.636314,
          "velocity": 0.937007874015748
        },
        {
          "duration": 0.27272699999999617,
          "durationTicks": 240,
          "midi": 71,
          "name": "B4",
          "ticks": 43920,
          "time": 49.909041,
          "velocity": 0.889763779527559
        },
        {
          "duration": 1.0681807499999962,
          "durationTicks": 940,
          "midi": 69,
          "name": "A4",
          "ticks": 44160,
          "time": 50.181768,
          "velocity": 0.8818897637795275
        },
        {
          "duration": 0.2181816000000012,
          "durationTicks": 192,
          "midi": 69,
          "name": "A4",
          "ticks": 45840,
          "time": 52.090857,
          "velocity": 0.8976377952755905
        },
        {
          "duration": 0.2181816000000012,
          "durationTicks": 192,
          "midi": 78,
          "name": "F#5",
          "ticks": 46080,
          "time": 52.363584,
          "velocity": 0.8976377952755905
        },
        {
          "duration": 0.10909080000000415,
          "durationTicks": 96,
          "midi": 78,
          "name": "F#5",
          "ticks": 46320,
          "time": 52.636311,
          "velocity": 0.937007874015748
        },
        {
          "duration": 0.10909079999999705,
          "durationTicks": 96,
          "midi": 78,
          "name": "F#5",
          "ticks": 46440,
          "time": 52.7726745,
          "velocity": 0.8976377952755905
        },
        {
          "duration": 0.2181816000000012,
          "durationTicks": 192,
          "midi": 78,
          "name": "F#5",
          "ticks": 46560,
          "time": 52.909038,
          "velocity": 0.937007874015748
        },
        {
          "duration": 0.2181816000000012,
          "durationTicks": 192,
          "midi": 78,
          "name": "F#5",
          "ticks": 46800,
          "time": 53.181765,
          "velocity": 0.8503937007874016
        },
        {
          "duration": 0.2181816000000012,
          "durationTicks": 192,
          "midi": 78,
          "name": "F#5",
          "ticks": 47040,
          "time": 53.454492,
          "velocity": 0.8503937007874016
        },
        {
          "duration": 0.2181816000000012,
          "durationTicks": 192,
          "midi": 76,
          "name": "E5",
          "ticks": 47280,
          "time": 53.727219,
          "velocity": 0.8976377952755905
        },
        {
          "duration": 0.2181816000000012,
          "durationTicks": 192,
          "midi": 74,
          "name": "D5",
          "ticks": 47520,
          "time": 53.999946,
          "velocity": 0.8503937007874016
        },
        {
          "duration": 0.6545448000000036,
          "durationTicks": 576,
          "midi": 76,
          "name": "E5",
          "ticks": 47760,
          "time": 54.272673,
          "velocity": 0.8661417322834646
        },
        {
          "duration": 0.2181816000000012,
          "durationTicks": 192,
          "midi": 76,
          "name": "E5",
          "ticks": 48480,
          "time": 55.090854,
          "velocity": 0.8031496062992126
        },
        {
          "duration": 0.2181816000000083,
          "durationTicks": 192,
          "midi": 76,
          "name": "E5",
          "ticks": 48720,
          "time": 55.363580999999996,
          "velocity": 0.905511811023622
        },
        {
          "duration": 0.2181816000000012,
          "durationTicks": 192,
          "midi": 76,
          "name": "E5",
          "ticks": 48960,
          "time": 55.636308,
          "velocity": 0.9212598425196851
        },
        {
          "duration": 0.2181816000000012,
          "durationTicks": 192,
          "midi": 74,
          "name": "D5",
          "ticks": 49200,
          "time": 55.909035,
          "velocity": 0.9133858267716536
        },
        {
          "duration": 0.2181816000000012,
          "durationTicks": 192,
          "midi": 73,
          "name": "C#5",
          "ticks": 49440,
          "time": 56.181762,
          "velocity": 0.905511811023622
        },
        {
          "duration": 0.6545447999999965,
          "durationTicks": 576,
          "midi": 74,
          "name": "D5",
          "ticks": 49680,
          "time": 56.454489,
          "velocity": 0.8661417322834646
        },
        {
          "duration": 0.2181816000000012,
          "durationTicks": 192,
          "midi": 74,
          "name": "D5",
          "ticks": 50400,
          "time": 57.27267,
          "velocity": 0.9212598425196851
        },
        {
          "duration": 0.2181816000000012,
          "durationTicks": 192,
          "midi": 74,
          "name": "D5",
          "ticks": 50640,
          "time": 57.545397,
          "velocity": 0.937007874015748
        },
        {
          "duration": 0.2181816000000083,
          "durationTicks": 192,
          "midi": 74,
          "name": "D5",
          "ticks": 50880,
          "time": 57.818124,
          "velocity": 0.937007874015748
        },
        {
          "duration": 0.2181816000000012,
          "durationTicks": 192,
          "midi": 73,
          "name": "C#5",
          "ticks": 51120,
          "time": 58.090851,
          "velocity": 0.9212598425196851
        },
        {
          "duration": 0.2181816000000083,
          "durationTicks": 192,
          "midi": 71,
          "name": "B4",
          "ticks": 51360,
          "time": 58.363578,
          "velocity": 0.8661417322834646
        },
        {
          "duration": 0.6818175000000011,
          "durationTicks": 600,
          "midi": 73,
          "name": "C#5",
          "ticks": 51600,
          "time": 58.636305,
          "velocity": 0.905511811023622
        },
        {
          "duration": 0.5227267499999968,
          "durationTicks": 460,
          "midi": 76,
          "name": "E5",
          "ticks": 52560,
          "time": 59.727213,
          "velocity": 0.9291338582677166
        },
        {
          "duration": 0.2181816000000012,
          "durationTicks": 192,
          "midi": 69,
          "name": "A4",
          "ticks": 53520,
          "time": 60.818121,
          "velocity": 0.937007874015748
        },
        {
          "duration": 0.2181816000000012,
          "durationTicks": 192,
          "midi": 78,
          "name": "F#5",
          "ticks": 53760,
          "time": 61.090848,
          "velocity": 0.9291338582677166
        },
        {
          "duration": 0.2181816000000083,
          "durationTicks": 192,
          "midi": 78,
          "name": "F#5",
          "ticks": 54000,
          "time": 61.363575,
          "velocity": 0.9212598425196851
        },
        {
          "duration": 0.2181816000000012,
          "durationTicks": 192,
          "midi": 78,
          "name": "F#5",
          "ticks": 54240,
          "time": 61.636302,
          "velocity": 0.8818897637795275
        },
        {
          "duration": 0.2181816000000083,
          "durationTicks": 192,
          "midi": 78,
          "name": "F#5",
          "ticks": 54480,
          "time": 61.909029,
          "velocity": 0.8661417322834646
        },
        {
          "duration": 0.2181816000000012,
          "durationTicks": 192,
          "midi": 78,
          "name": "F#5",
          "ticks": 54720,
          "time": 62.181756,
          "velocity": 0.8818897637795275
        },
        {
          "duration": 0.2181816000000083,
          "durationTicks": 192,
          "midi": 76,
          "name": "E5",
          "ticks": 54960,
          "time": 62.454482999999996,
          "velocity": 0.9133858267716536
        },
        {
          "duration": 0.2181816000000012,
          "durationTicks": 192,
          "midi": 74,
          "name": "D5",
          "ticks": 55200,
          "time": 62.72721,
          "velocity": 0.8582677165354331
        },
        {
          "duration": 0.5227267499999968,
          "durationTicks": 460,
          "midi": 76,
          "name": "E5",
          "ticks": 55440,
          "time": 62.999937,
          "velocity": 0.9133858267716536
        },
        {
          "duration": 0.2181816000000083,
          "durationTicks": 192,
          "midi": 76,
          "name": "E5",
          "ticks": 56160,
          "time": 63.818118,
          "velocity": 0.889763779527559
        },
        {
          "duration": 0.2181815999999941,
          "durationTicks": 192,
          "midi": 76,
          "name": "E5",
          "ticks": 56400,
          "time": 64.090845,
          "velocity": 0.889763779527559
        },
        {
          "duration": 0.2181815999999941,
          "durationTicks": 192,
          "midi": 76,
          "name": "E5",
          "ticks": 56640,
          "time": 64.363572,
          "velocity": 0.9291338582677166
        },
        {
          "duration": 0.2181816000000083,
          "durationTicks": 192,
          "midi": 74,
          "name": "D5",
          "ticks": 56880,
          "time": 64.636299,
          "velocity": 0.9291338582677166
        },
        {
          "duration": 0.2181816000000083,
          "durationTicks": 192,
          "midi": 73,
          "name": "C#5",
          "ticks": 57120,
          "time": 64.909026,
          "velocity": 0.9133858267716536
        },
        {
          "duration": 0.5227267499999897,
          "durationTicks": 460,
          "midi": 78,
          "name": "F#5",
          "ticks": 57360,
          "time": 65.181753,
          "velocity": 0.8818897637795275
        },
        {
          "duration": 0.2181816000000083,
          "durationTicks": 192,
          "midi": 78,
          "name": "F#5",
          "ticks": 58080,
          "time": 65.999934,
          "velocity": 0.9212598425196851
        },
        {
          "duration": 0.2181816000000083,
          "durationTicks": 192,
          "midi": 78,
          "name": "F#5",
          "ticks": 58320,
          "time": 66.272661,
          "velocity": 0.8346456692913385
        },
        {
          "duration": 0.2181815999999941,
          "durationTicks": 192,
          "midi": 78,
          "name": "F#5",
          "ticks": 58560,
          "time": 66.545388,
          "velocity": 0.9133858267716536
        },
        {
          "duration": 0.2181815999999941,
          "durationTicks": 192,
          "midi": 76,
          "name": "E5",
          "ticks": 58800,
          "time": 66.818115,
          "velocity": 0.8818897637795275
        },
        {
          "duration": 0.2181816000000083,
          "durationTicks": 192,
          "midi": 75,
          "name": "D#5",
          "ticks": 59040,
          "time": 67.090842,
          "velocity": 0.889763779527559
        },
        {
          "duration": 1.7454528000000096,
          "durationTicks": 1536,
          "midi": 76,
          "name": "E5",
          "ticks": 59280,
          "time": 67.363569,
          "velocity": 0.8740157480314961
        },
        {
          "duration": 0.4363632000000024,
          "durationTicks": 384,
          "midi": 64,
          "name": "E4",
          "ticks": 61200,
          "time": 69.545385,
          "velocity": 0.9212598425196851
        },
        {
          "duration": 0.2181815999999941,
          "durationTicks": 192,
          "midi": 64,
          "name": "E4",
          "ticks": 61680,
          "time": 70.090839,
          "velocity": 0.7952755905511811
        },
        {
          "duration": 0.2181815999999941,
          "durationTicks": 192,
          "midi": 66,
          "name": "F#4",
          "ticks": 61920,
          "time": 70.363566,
          "velocity": 0.9133858267716536
        },
        {
          "duration": 0.2181816000000083,
          "durationTicks": 192,
          "midi": 61,
          "name": "C#4",
          "ticks": 62160,
          "time": 70.636293,
          "velocity": 0.889763779527559
        },
        {
          "duration": 0.2181816000000083,
          "durationTicks": 192,
          "midi": 64,
          "name": "E4",
          "ticks": 62400,
          "time": 70.90902,
          "velocity": 0.9212598425196851
        },
        {
          "duration": 0.2181815999999941,
          "durationTicks": 192,
          "midi": 66,
          "name": "F#4",
          "ticks": 62640,
          "time": 71.181747,
          "velocity": 0.9291338582677166
        },
        {
          "duration": 0.2181815999999941,
          "durationTicks": 192,
          "midi": 69,
          "name": "A4",
          "ticks": 62880,
          "time": 71.454474,
          "velocity": 0.8503937007874016
        },
        {
          "duration": 0.4363632000000166,
          "durationTicks": 384,
          "midi": 69,
          "name": "A4",
          "ticks": 63120,
          "time": 71.727201,
          "velocity": 0.8267716535433071
        },
        {
          "duration": 0.2181816000000083,
          "durationTicks": 192,
          "midi": 69,
          "name": "A4",
          "ticks": 63600,
          "time": 72.272655,
          "velocity": 0.8818897637795275
        },
        {
          "duration": 0.2181815999999941,
          "durationTicks": 192,
          "midi": 71,
          "name": "B4",
          "ticks": 63840,
          "time": 72.545382,
          "velocity": 0.8267716535433071
        },
        {
          "duration": 0.2181816000000083,
          "durationTicks": 192,
          "midi": 66,
          "name": "F#4",
          "ticks": 64080,
          "time": 72.81810899999999,
          "velocity": 0.8503937007874016
        },
        {
          "duration": 0.2181816000000083,
          "durationTicks": 192,
          "midi": 69,
          "name": "A4",
          "ticks": 64320,
          "time": 73.090836,
          "velocity": 0.9133858267716536
        },
        {
          "duration": 0.24999975000000063,
          "durationTicks": 220,
          "midi": 71,
          "name": "B4",
          "ticks": 64560,
          "time": 73.363563,
          "velocity": 0.8582677165354331
        },
        {
          "duration": 0.4363632000000024,
          "durationTicks": 384,
          "midi": 73,
          "name": "C#5",
          "ticks": 65040,
          "time": 73.909017,
          "velocity": 0.8503937007874016
        },
        {
          "duration": 0.2181816000000083,
          "durationTicks": 192,
          "midi": 74,
          "name": "D5",
          "ticks": 65520,
          "time": 74.454471,
          "velocity": 0.8818897637795275
        },
        {
          "duration": 0.2181815999999941,
          "durationTicks": 192,
          "midi": 73,
          "name": "C#5",
          "ticks": 65760,
          "time": 74.727198,
          "velocity": 0.8582677165354331
        },
        {
          "duration": 0.2181815999999941,
          "durationTicks": 192,
          "midi": 74,
          "name": "D5",
          "ticks": 66000,
          "time": 74.999925,
          "velocity": 0.84251968503937
        },
        {
          "duration": 0.2727270000000033,
          "durationTicks": 240,
          "midi": 73,
          "name": "C#5",
          "ticks": 66240,
          "time": 75.272652,
          "velocity": 0.8346456692913385
        },
        {
          "duration": 0.2181816000000083,
          "durationTicks": 192,
          "midi": 71,
          "name": "B4",
          "ticks": 66480,
          "time": 75.545379,
          "velocity": 0.937007874015748
        },
        {
          "duration": 0.2181816000000083,
          "durationTicks": 192,
          "midi": 71,
          "name": "B4",
          "ticks": 66720,
          "time": 75.818106,
          "velocity": 0.8818897637795275
        },
        {
          "duration": 0.27272699999998906,
          "durationTicks": 240,
          "midi": 73,
          "name": "C#5",
          "ticks": 66960,
          "time": 76.090833,
          "velocity": 0.8188976377952756
        },
        {
          "duration": 0.2727270000000033,
          "durationTicks": 240,
          "midi": 71,
          "name": "B4",
          "ticks": 67200,
          "time": 76.36355999999999,
          "velocity": 0.9291338582677166
        },
        {
          "duration": 0.2727270000000033,
          "durationTicks": 240,
          "midi": 69,
          "name": "A4",
          "ticks": 67440,
          "time": 76.636287,
          "velocity": 0.8582677165354331
        },
        {
          "duration": 0.24999975000000063,
          "durationTicks": 220,
          "midi": 71,
          "name": "B4",
          "ticks": 67680,
          "time": 76.909014,
          "velocity": 0.889763779527559
        },
        {
          "duration": 0.4363632000000024,
          "durationTicks": 384,
          "midi": 73,
          "name": "C#5",
          "ticks": 68160,
          "time": 77.454468,
          "velocity": 0.8582677165354331
        },
        {
          "duration": 0.4363632000000024,
          "durationTicks": 384,
          "midi": 74,
          "name": "D5",
          "ticks": 68640,
          "time": 77.999922,
          "velocity": 0.9291338582677166
        },
        {
          "duration": 0.6545447999999823,
          "durationTicks": 576,
          "midi": 76,
          "name": "E5",
          "ticks": 69120,
          "time": 78.545376,
          "velocity": 0.8976377952755905
        },
        {
          "duration": 0.6545447999999965,
          "durationTicks": 576,
          "midi": 78,
          "name": "F#5",
          "ticks": 69840,
          "time": 79.363557,
          "velocity": 0.8031496062992126
        },
        {
          "duration": 0.2181816000000083,
          "durationTicks": 192,
          "midi": 73,
          "name": "C#5",
          "ticks": 70560,
          "time": 80.181738,
          "velocity": 0.8976377952755905
        },
        {
          "duration": 0.2181816000000083,
          "durationTicks": 192,
          "midi": 71,
          "name": "B4",
          "ticks": 70800,
          "time": 80.454465,
          "velocity": 0.84251968503937
        },
        {
          "duration": 0.2181815999999941,
          "durationTicks": 192,
          "midi": 69,
          "name": "A4",
          "ticks": 71040,
          "time": 80.727192,
          "velocity": 0.8661417322834646
        },
        {
          "duration": 0.2181815999999941,
          "durationTicks": 192,
          "midi": 66,
          "name": "F#4",
          "ticks": 71280,
          "time": 80.999919,
          "velocity": 0.9291338582677166
        },
        {
          "duration": 0.2181816000000083,
          "durationTicks": 192,
          "midi": 69,
          "name": "A4",
          "ticks": 71520,
          "time": 81.272646,
          "velocity": 0.9212598425196851
        },
        {
          "duration": 0.5227267500000039,
          "durationTicks": 460,
          "midi": 73,
          "name": "C#5",
          "ticks": 71760,
          "time": 81.545373,
          "velocity": 0.937007874015748
        },
        {
          "duration": 0.4363632000000166,
          "durationTicks": 384,
          "midi": 71,
          "name": "B4",
          "ticks": 72480,
          "time": 82.363554,
          "velocity": 0.8582677165354331
        },
        {
          "duration": 0.2181816000000083,
          "durationTicks": 192,
          "midi": 69,
          "name": "A4",
          "ticks": 72960,
          "time": 82.909008,
          "velocity": 0.8976377952755905
        },
        {
          "duration": 0.2181815999999941,
          "durationTicks": 192,
          "midi": 66,
          "name": "F#4",
          "ticks": 73200,
          "time": 83.181735,
          "velocity": 0.7952755905511811
        },
        {
          "duration": 0.2181816000000083,
          "durationTicks": 192,
          "midi": 69,
          "name": "A4",
          "ticks": 73440,
          "time": 83.45446199999999,
          "velocity": 0.8188976377952756
        },
        {
          "duration": 1.6363620000000054,
          "durationTicks": 1440,
          "midi": 74,
          "name": "D5",
          "ticks": 73680,
          "time": 83.727189,
          "velocity": 0.8818897637795275
        },
        {
          "duration": 0.24999975000000063,
          "durationTicks": 220,
          "midi": 76,
          "name": "E5",
          "ticks": 75120,
          "time": 85.363551,
          "velocity": 0.84251968503937
        },
        {
          "duration": 0.13636350000000164,
          "durationTicks": 120,
          "midi": 73,
          "name": "C#5",
          "ticks": 75840,
          "time": 86.181732,
          "velocity": 0.9133858267716536
        },
        {
          "duration": 0.13636350000000164,
          "durationTicks": 120,
          "midi": 71,
          "name": "B4",
          "ticks": 75960,
          "time": 86.3180955,
          "velocity": 0.8818897637795275
        },
        {
          "duration": 0.2727270000000033,
          "durationTicks": 240,
          "midi": 69,
          "name": "A4",
          "ticks": 76080,
          "time": 86.454459,
          "velocity": 0.8031496062992126
        },
        {
          "duration": 0.4363632000000024,
          "durationTicks": 384,
          "midi": 71,
          "name": "B4",
          "ticks": 76320,
          "time": 86.727186,
          "velocity": 0.8503937007874016
        },
        {
          "duration": 0.8181810000000098,
          "durationTicks": 720,
          "midi": 71,
          "name": "B4",
          "ticks": 76800,
          "time": 87.27264,
          "velocity": 0.937007874015748
        },
        {
          "duration": 0.13636349999998743,
          "durationTicks": 120,
          "midi": 73,
          "name": "C#5",
          "ticks": 77520,
          "time": 88.090821,
          "velocity": 0.8976377952755905
        },
        {
          "duration": 0.13636350000000164,
          "durationTicks": 120,
          "midi": 71,
          "name": "B4",
          "ticks": 77640,
          "time": 88.22718449999999,
          "velocity": 0.8582677165354331
        },
        {
          "duration": 0.8727264000000048,
          "durationTicks": 768,
          "midi": 69,
          "name": "A4",
          "ticks": 77760,
          "time": 88.363548,
          "velocity": 0.9291338582677166
        },
        {
          "duration": 0.2181816000000083,
          "durationTicks": 192,
          "midi": 69,
          "name": "A4",
          "ticks": 86160,
          "time": 97.908993,
          "velocity": 0.9291338582677166
        },
        {
          "duration": 0.2181816000000083,
          "durationTicks": 192,
          "midi": 78,
          "name": "F#5",
          "ticks": 86400,
          "time": 98.18172,
          "velocity": 0.9212598425196851
        },
        {
          "duration": 0.10909079999998994,
          "durationTicks": 96,
          "midi": 78,
          "name": "F#5",
          "ticks": 86640,
          "time": 98.454447,
          "velocity": 0.889763779527559
        },
        {
          "duration": 0.10909079999998994,
          "durationTicks": 96,
          "midi": 78,
          "name": "F#5",
          "ticks": 86760,
          "time": 98.5908105,
          "velocity": 0.8818897637795275
        },
        {
          "duration": 0.2181815999999941,
          "durationTicks": 192,
          "midi": 78,
          "name": "F#5",
          "ticks": 86880,
          "time": 98.727174,
          "velocity": 0.9133858267716536
        },
        {
          "duration": 0.2181816000000083,
          "durationTicks": 192,
          "midi": 78,
          "name": "F#5",
          "ticks": 87120,
          "time": 98.999901,
          "velocity": 0.889763779527559
        },
        {
          "duration": 0.2181816000000083,
          "durationTicks": 192,
          "midi": 78,
          "name": "F#5",
          "ticks": 87360,
          "time": 99.272628,
          "velocity": 0.8661417322834646
        },
        {
          "duration": 0.2181816000000083,
          "durationTicks": 192,
          "midi": 76,
          "name": "E5",
          "ticks": 87600,
          "time": 99.545355,
          "velocity": 0.8818897637795275
        },
        {
          "duration": 0.2181815999999941,
          "durationTicks": 192,
          "midi": 74,
          "name": "D5",
          "ticks": 87840,
          "time": 99.818082,
          "velocity": 0.9133858267716536
        },
        {
          "duration": 0.6545447999999965,
          "durationTicks": 576,
          "midi": 76,
          "name": "E5",
          "ticks": 88080,
          "time": 100.090809,
          "velocity": 0.9291338582677166
        },
        {
          "duration": 0.2181815999999941,
          "durationTicks": 192,
          "midi": 76,
          "name": "E5",
          "ticks": 88800,
          "time": 100.90899,
          "velocity": 0.8740157480314961
        },
        {
          "duration": 0.2181816000000083,
          "durationTicks": 192,
          "midi": 76,
          "name": "E5",
          "ticks": 89040,
          "time": 101.18171699999999,
          "velocity": 0.8818897637795275
        },
        {
          "duration": 0.2181816000000083,
          "durationTicks": 192,
          "midi": 76,
          "name": "E5",
          "ticks": 89280,
          "time": 101.454444,
          "velocity": 0.9133858267716536
        },
        {
          "duration": 0.2181816000000083,
          "durationTicks": 192,
          "midi": 74,
          "name": "D5",
          "ticks": 89520,
          "time": 101.727171,
          "velocity": 0.905511811023622
        },
        {
          "duration": 0.2181815999999941,
          "durationTicks": 192,
          "midi": 73,
          "name": "C#5",
          "ticks": 89760,
          "time": 101.999898,
          "velocity": 0.9291338582677166
        },
        {
          "duration": 0.6545447999999823,
          "durationTicks": 576,
          "midi": 74,
          "name": "D5",
          "ticks": 90000,
          "time": 102.272625,
          "velocity": 0.905511811023622
        },
        {
          "duration": 0.2181816000000083,
          "durationTicks": 192,
          "midi": 74,
          "name": "D5",
          "ticks": 90720,
          "time": 103.090806,
          "velocity": 0.9212598425196851
        },
        {
          "duration": 0.2181815999999941,
          "durationTicks": 192,
          "midi": 74,
          "name": "D5",
          "ticks": 90960,
          "time": 103.363533,
          "velocity": 0.9133858267716536
        },
        {
          "duration": 0.2181816000000083,
          "durationTicks": 192,
          "midi": 74,
          "name": "D5",
          "ticks": 91200,
          "time": 103.63626,
          "velocity": 0.8818897637795275
        },
        {
          "duration": 0.2181816000000083,
          "durationTicks": 192,
          "midi": 73,
          "name": "C#5",
          "ticks": 91440,
          "time": 103.908987,
          "velocity": 0.8818897637795275
        },
        {
          "duration": 0.2181816000000083,
          "durationTicks": 192,
          "midi": 71,
          "name": "B4",
          "ticks": 91680,
          "time": 104.181714,
          "velocity": 0.8740157480314961
        },
        {
          "duration": 0.7954537500000072,
          "durationTicks": 700,
          "midi": 73,
          "name": "C#5",
          "ticks": 91920,
          "time": 104.454441,
          "velocity": 0.8818897637795275
        },
        {
          "duration": 0.5227267500000039,
          "durationTicks": 460,
          "midi": 76,
          "name": "E5",
          "ticks": 92880,
          "time": 105.545349,
          "velocity": 0.9291338582677166
        },
        {
          "duration": 0.2181816000000083,
          "durationTicks": 192,
          "midi": 69,
          "name": "A4",
          "ticks": 93840,
          "time": 106.636257,
          "velocity": 0.8346456692913385
        },
        {
          "duration": 0.2181815999999941,
          "durationTicks": 192,
          "midi": 78,
          "name": "F#5",
          "ticks": 94080,
          "time": 106.908984,
          "velocity": 0.8582677165354331
        },
        {
          "duration": 0.2181816000000083,
          "durationTicks": 192,
          "midi": 78,
          "name": "F#5",
          "ticks": 94320,
          "time": 107.18171099999999,
          "velocity": 0.889763779527559
        },
        {
          "duration": 0.2181816000000083,
          "durationTicks": 192,
          "midi": 78,
          "name": "F#5",
          "ticks": 94560,
          "time": 107.454438,
          "velocity": 0.905511811023622
        },
        {
          "duration": 0.2181816000000083,
          "durationTicks": 192,
          "midi": 78,
          "name": "F#5",
          "ticks": 94800,
          "time": 107.727165,
          "velocity": 0.8818897637795275
        },
        {
          "duration": 0.2181815999999941,
          "durationTicks": 192,
          "midi": 78,
          "name": "F#5",
          "ticks": 95040,
          "time": 107.999892,
          "velocity": 0.905511811023622
        },
        {
          "duration": 0.2181815999999941,
          "durationTicks": 192,
          "midi": 76,
          "name": "E5",
          "ticks": 95280,
          "time": 108.272619,
          "velocity": 0.9291338582677166
        },
        {
          "duration": 0.2181816000000083,
          "durationTicks": 192,
          "midi": 74,
          "name": "D5",
          "ticks": 95520,
          "time": 108.545346,
          "velocity": 0.84251968503937
        },
        {
          "duration": 0.5227267500000039,
          "durationTicks": 460,
          "midi": 76,
          "name": "E5",
          "ticks": 95760,
          "time": 108.818073,
          "velocity": 0.9133858267716536
        },
        {
          "duration": 0.2181816000000083,
          "durationTicks": 192,
          "midi": 76,
          "name": "E5",
          "ticks": 96480,
          "time": 109.636254,
          "velocity": 0.8976377952755905
        },
        {
          "duration": 0.2181816000000083,
          "durationTicks": 192,
          "midi": 76,
          "name": "E5",
          "ticks": 96720,
          "time": 109.908981,
          "velocity": 0.8740157480314961
        },
        {
          "duration": 0.2181816000000083,
          "durationTicks": 192,
          "midi": 76,
          "name": "E5",
          "ticks": 96960,
          "time": 110.181708,
          "velocity": 0.8661417322834646
        },
        {
          "duration": 0.2181815999999941,
          "durationTicks": 192,
          "midi": 74,
          "name": "D5",
          "ticks": 97200,
          "time": 110.454435,
          "velocity": 0.905511811023622
        },
        {
          "duration": 0.2181816000000083,
          "durationTicks": 192,
          "midi": 73,
          "name": "C#5",
          "ticks": 97440,
          "time": 110.72716199999999,
          "velocity": 0.937007874015748
        },
        {
          "duration": 0.5227267500000039,
          "durationTicks": 460,
          "midi": 78,
          "name": "F#5",
          "ticks": 97680,
          "time": 110.999889,
          "velocity": 0.84251968503937
        },
        {
          "duration": 0.2181815999999941,
          "durationTicks": 192,
          "midi": 78,
          "name": "F#5",
          "ticks": 98400,
          "time": 111.81807,
          "velocity": 0.9291338582677166
        },
        {
          "duration": 0.2181816000000083,
          "durationTicks": 192,
          "midi": 78,
          "name": "F#5",
          "ticks": 98640,
          "time": 112.090797,
          "velocity": 0.937007874015748
        },
        {
          "duration": 0.2181816000000083,
          "durationTicks": 192,
          "midi": 78,
          "name": "F#5",
          "ticks": 98880,
          "time": 112.363524,
          "velocity": 0.8661417322834646
        },
        {
          "duration": 0.2181815999999941,
          "durationTicks": 192,
          "midi": 76,
          "name": "E5",
          "ticks": 99120,
          "time": 112.636251,
          "velocity": 0.8582677165354331
        },
        {
          "duration": 0.2181815999999941,
          "durationTicks": 192,
          "midi": 75,
          "name": "D#5",
          "ticks": 99360,
          "time": 112.908978,
          "velocity": 0.9212598425196851
        },
        {
          "duration": 2.454543000000001,
          "durationTicks": 2160,
          "midi": 76,
          "name": "E5",
          "ticks": 99600,
          "time": 113.181705,
          "velocity": 0.8503937007874016
        },
        {
          "duration": 1.0681807500000104,
          "durationTicks": 940,
          "midi": 77,
          "name": "F5",
          "ticks": 101760,
          "time": 115.636248,
          "velocity": 0.8346456692913385
        },
        {
          "duration": 0.4363632000000024,
          "durationTicks": 384,
          "midi": 65,
          "name": "F4",
          "ticks": 103440,
          "time": 117.545337,
          "velocity": 0.937007874015748
        },
        {
          "duration": 0.2181816000000083,
          "durationTicks": 192,
          "midi": 65,
          "name": "F4",
          "ticks": 103920,
          "time": 118.090791,
          "velocity": 0.8740157480314961
        },
        {
          "duration": 0.2181816000000083,
          "durationTicks": 192,
          "midi": 67,
          "name": "G4",
          "ticks": 104160,
          "time": 118.363518,
          "velocity": 0.84251968503937
        },
        {
          "duration": 0.2181815999999941,
          "durationTicks": 192,
          "midi": 62,
          "name": "D4",
          "ticks": 104400,
          "time": 118.636245,
          "velocity": 0.9212598425196851
        },
        {
          "duration": 0.2181815999999941,
          "durationTicks": 192,
          "midi": 65,
          "name": "F4",
          "ticks": 104640,
          "time": 118.908972,
          "velocity": 0.8346456692913385
        },
        {
          "duration": 0.2181816000000083,
          "durationTicks": 192,
          "midi": 67,
          "name": "G4",
          "ticks": 104880,
          "time": 119.181699,
          "velocity": 0.8661417322834646
        },
        {
          "duration": 0.2181816000000083,
          "durationTicks": 192,
          "midi": 67,
          "name": "G4",
          "ticks": 105120,
          "time": 119.454426,
          "velocity": 0.889763779527559
        },
        {
          "duration": 0.4363632000000024,
          "durationTicks": 384,
          "midi": 70,
          "name": "A#4",
          "ticks": 105360,
          "time": 119.727153,
          "velocity": 0.8110236220472441
        },
        {
          "duration": 0.2181816000000083,
          "durationTicks": 192,
          "midi": 70,
          "name": "A#4",
          "ticks": 105840,
          "time": 120.272607,
          "velocity": 0.9133858267716536
        },
        {
          "duration": 0.2181816000000083,
          "durationTicks": 192,
          "midi": 72,
          "name": "C5",
          "ticks": 106080,
          "time": 120.545334,
          "velocity": 0.8740157480314961
        },
        {
          "duration": 0.2181816000000083,
          "durationTicks": 192,
          "midi": 67,
          "name": "G4",
          "ticks": 106320,
          "time": 120.818061,
          "velocity": 0.905511811023622
        },
        {
          "duration": 0.2181815999999941,
          "durationTicks": 192,
          "midi": 70,
          "name": "A#4",
          "ticks": 106560,
          "time": 121.090788,
          "velocity": 0.889763779527559
        },
        {
          "duration": 0.24999975000001484,
          "durationTicks": 220,
          "midi": 72,
          "name": "C5",
          "ticks": 106800,
          "time": 121.36351499999999,
          "velocity": 0.9133858267716536
        },
        {
          "duration": 0.4363632000000024,
          "durationTicks": 384,
          "midi": 74,
          "name": "D5",
          "ticks": 107280,
          "time": 121.908969,
          "velocity": 0.9291338582677166
        },
        {
          "duration": 0.2181815999999941,
          "durationTicks": 192,
          "midi": 75,
          "name": "D#5",
          "ticks": 107760,
          "time": 122.454423,
          "velocity": 0.937007874015748
        },
        {
          "duration": 0.2181816000000083,
          "durationTicks": 192,
          "midi": 74,
          "name": "D5",
          "ticks": 108000,
          "time": 122.72715,
          "velocity": 0.9291338582677166
        },
        {
          "duration": 0.2181816000000083,
          "durationTicks": 192,
          "midi": 75,
          "name": "D#5",
          "ticks": 108240,
          "time": 122.999877,
          "velocity": 0.8740157480314961
        },
        {
          "duration": 0.2727270000000033,
          "durationTicks": 240,
          "midi": 74,
          "name": "D5",
          "ticks": 108480,
          "time": 123.272604,
          "velocity": 0.8740157480314961
        },
        {
          "duration": 0.2181815999999941,
          "durationTicks": 192,
          "midi": 72,
          "name": "C5",
          "ticks": 108720,
          "time": 123.545331,
          "velocity": 0.9133858267716536
        },
        {
          "duration": 0.2181816000000083,
          "durationTicks": 192,
          "midi": 72,
          "name": "C5",
          "ticks": 108960,
          "time": 123.818058,
          "velocity": 0.8818897637795275
        },
        {
          "duration": 0.2727270000000033,
          "durationTicks": 240,
          "midi": 74,
          "name": "D5",
          "ticks": 109200,
          "time": 124.090785,
          "velocity": 0.889763779527559
        },
        {
          "duration": 0.2727270000000033,
          "durationTicks": 240,
          "midi": 72,
          "name": "C5",
          "ticks": 109440,
          "time": 124.363512,
          "velocity": 0.9291338582677166
        },
        {
          "duration": 0.27272699999998906,
          "durationTicks": 240,
          "midi": 70,
          "name": "A#4",
          "ticks": 109680,
          "time": 124.636239,
          "velocity": 0.937007874015748
        },
        {
          "duration": 0.24999975000001484,
          "durationTicks": 220,
          "midi": 72,
          "name": "C5",
          "ticks": 109920,
          "time": 124.90896599999999,
          "velocity": 0.905511811023622
        },
        {
          "duration": 0.4363632000000024,
          "durationTicks": 384,
          "midi": 74,
          "name": "D5",
          "ticks": 110400,
          "time": 125.45442,
          "velocity": 0.9212598425196851
        },
        {
          "duration": 0.4363632000000024,
          "durationTicks": 384,
          "midi": 75,
          "name": "D#5",
          "ticks": 110880,
          "time": 125.999874,
          "velocity": 0.8267716535433071
        },
        {
          "duration": 0.6545447999999965,
          "durationTicks": 576,
          "midi": 77,
          "name": "F5",
          "ticks": 111360,
          "time": 126.545328,
          "velocity": 0.8110236220472441
        },
        {
          "duration": 0.6545447999999965,
          "durationTicks": 576,
          "midi": 79,
          "name": "G5",
          "ticks": 112080,
          "time": 127.363509,
          "velocity": 0.905511811023622
        },
        {
          "duration": 0.2181816000000083,
          "durationTicks": 192,
          "midi": 74,
          "name": "D5",
          "ticks": 112800,
          "time": 128.18169,
          "velocity": 0.9133858267716536
        },
        {
          "duration": 0.2181816000000083,
          "durationTicks": 192,
          "midi": 72,
          "name": "C5",
          "ticks": 113040,
          "time": 128.454417,
          "velocity": 0.8661417322834646
        },
        {
          "duration": 0.21818159999997988,
          "durationTicks": 192,
          "midi": 70,
          "name": "A#4",
          "ticks": 113280,
          "time": 128.727144,
          "velocity": 0.9133858267716536
        },
        {
          "duration": 0.2181816000000083,
          "durationTicks": 192,
          "midi": 67,
          "name": "G4",
          "ticks": 113520,
          "time": 128.99987099999998,
          "velocity": 0.8740157480314961
        },
        {
          "duration": 0.2181816000000083,
          "durationTicks": 192,
          "midi": 70,
          "name": "A#4",
          "ticks": 113760,
          "time": 129.272598,
          "velocity": 0.8582677165354331
        },
        {
          "duration": 0.5227267500000039,
          "durationTicks": 460,
          "midi": 74,
          "name": "D5",
          "ticks": 114000,
          "time": 129.545325,
          "velocity": 0.9291338582677166
        },
        {
          "duration": 0.4363632000000166,
          "durationTicks": 384,
          "midi": 72,
          "name": "C5",
          "ticks": 114720,
          "time": 130.363506,
          "velocity": 0.937007874015748
        },
        {
          "duration": 0.2181816000000083,
          "durationTicks": 192,
          "midi": 70,
          "name": "A#4",
          "ticks": 115200,
          "time": 130.90896,
          "velocity": 0.8661417322834646
        },
        {
          "duration": 0.21818159999997988,
          "durationTicks": 192,
          "midi": 67,
          "name": "G4",
          "ticks": 115440,
          "time": 131.181687,
          "velocity": 0.9133858267716536
        },
        {
          "duration": 0.2181816000000083,
          "durationTicks": 192,
          "midi": 70,
          "name": "A#4",
          "ticks": 115680,
          "time": 131.45441399999999,
          "velocity": 0.9212598425196851
        },
        {
          "duration": 1.6363620000000196,
          "durationTicks": 1440,
          "midi": 75,
          "name": "D#5",
          "ticks": 115920,
          "time": 131.727141,
          "velocity": 0.9212598425196851
        },
        {
          "duration": 0.24999975000000063,
          "durationTicks": 220,
          "midi": 77,
          "name": "F5",
          "ticks": 117360,
          "time": 133.363503,
          "velocity": 0.905511811023622
        },
        {
          "duration": 0.13636350000001585,
          "durationTicks": 120,
          "midi": 74,
          "name": "D5",
          "ticks": 118080,
          "time": 134.181684,
          "velocity": 0.937007874015748
        },
        {
          "duration": 0.13636349999998743,
          "durationTicks": 120,
          "midi": 72,
          "name": "C5",
          "ticks": 118200,
          "time": 134.3180475,
          "velocity": 0.9133858267716536
        },
        {
          "duration": 0.2727270000000033,
          "durationTicks": 240,
          "midi": 70,
          "name": "A#4",
          "ticks": 118320,
          "time": 134.454411,
          "velocity": 0.9291338582677166
        },
        {
          "duration": 0.4363632000000166,
          "durationTicks": 384,
          "midi": 72,
          "name": "C5",
          "ticks": 118560,
          "time": 134.727138,
          "velocity": 0.7952755905511811
        },
        {
          "duration": 0.8181809999999814,
          "durationTicks": 720,
          "midi": 72,
          "name": "C5",
          "ticks": 119040,
          "time": 135.272592,
          "velocity": 0.8346456692913385
        },
        {
          "duration": 0.13636350000001585,
          "durationTicks": 120,
          "midi": 74,
          "name": "D5",
          "ticks": 119760,
          "time": 136.09077299999998,
          "velocity": 0.9133858267716536
        },
        {
          "duration": 0.13636349999998743,
          "durationTicks": 120,
          "midi": 72,
          "name": "C5",
          "ticks": 119880,
          "time": 136.2271365,
          "velocity": 0.937007874015748
        },
        {
          "duration": 1.0681807500000104,
          "durationTicks": 940,
          "midi": 70,
          "name": "A#4",
          "ticks": 120000,
          "time": 136.3635,
          "velocity": 0.937007874015748
        },
        {
          "duration": 0.4363632000000166,
          "durationTicks": 384,
          "midi": 82,
          "name": "A#5",
          "ticks": 126720,
          "time": 143.999856,
          "velocity": 0.84251968503937
        },
        {
          "duration": 0.4363632000000166,
          "durationTicks": 384,
          "midi": 79,
          "name": "G5",
          "ticks": 127200,
          "time": 144.54531,
          "velocity": 0.9212598425196851
        },
        {
          "duration": 0.21818159999997988,
          "durationTicks": 192,
          "midi": 77,
          "name": "F5",
          "ticks": 127680,
          "time": 145.090764,
          "velocity": 0.905511811023622
        },
        {
          "duration": 0.21818159999997988,
          "durationTicks": 192,
          "midi": 74,
          "name": "D5",
          "ticks": 127920,
          "time": 145.363491,
          "velocity": 0.8110236220472441
        },
        {
          "duration": 0.2181816000000083,
          "durationTicks": 192,
          "midi": 72,
          "name": "C5",
          "ticks": 128160,
          "time": 145.63621799999999,
          "velocity": 0.9291338582677166
        },
        {
          "duration": 0.2181816000000083,
          "durationTicks": 192,
          "midi": 70,
          "name": "A#4",
          "ticks": 128400,
          "time": 145.908945,
          "velocity": 0.889763779527559
        },
        {
          "duration": 0.2181816000000083,
          "durationTicks": 192,
          "midi": 74,
          "name": "D5",
          "ticks": 128640,
          "time": 146.181672,
          "velocity": 0.889763779527559
        },
        {
          "duration": 0.4363632000000166,
          "durationTicks": 384,
          "midi": 74,
          "name": "D5",
          "ticks": 128880,
          "time": 146.454399,
          "velocity": 0.9291338582677166
        },
        {
          "duration": 0.2727270000000033,
          "durationTicks": 240,
          "midi": 74,
          "name": "D5",
          "ticks": 129360,
          "time": 146.999853,
          "velocity": 0.84251968503937
        },
        {
          "duration": 0.2727270000000033,
          "durationTicks": 240,
          "midi": 72,
          "name": "C5",
          "ticks": 129600,
          "time": 147.27258,
          "velocity": 0.889763779527559
        },
        {
          "duration": 0.21818159999997988,
          "durationTicks": 192,
          "midi": 70,
          "name": "A#4",
          "ticks": 129840,
          "time": 147.545307,
          "velocity": 0.8740157480314961
        },
        {
          "duration": 0.4363631999999882,
          "durationTicks": 384,
          "midi": 70,
          "name": "A#4",
          "ticks": 130080,
          "time": 147.818034,
          "velocity": 0.905511811023622
        },
        {
          "duration": 0.2181816000000083,
          "durationTicks": 192,
          "midi": 67,
          "name": "G4",
          "ticks": 130560,
          "time": 148.363488,
          "velocity": 0.9291338582677166
        },
        {
          "duration": 0.21818159999997988,
          "durationTicks": 192,
          "midi": 70,
          "name": "A#4",
          "ticks": 130800,
          "time": 148.636215,
          "velocity": 0.9291338582677166
        },
        {
          "duration": 0.21818159999997988,
          "durationTicks": 192,
          "midi": 74,
          "name": "D5",
          "ticks": 131040,
          "time": 148.908942,
          "velocity": 0.9291338582677166
        },
        {
          "duration": 0.6545447999999965,
          "durationTicks": 576,
          "midi": 72,
          "name": "C5",
          "ticks": 131280,
          "time": 149.181669,
          "velocity": 0.84251968503937
        },
        {
          "duration": 0.21818159999997988,
          "durationTicks": 192,
          "midi": 74,
          "name": "D5",
          "ticks": 132000,
          "time": 149.99985,
          "velocity": 0.9133858267716536
        },
        {
          "duration": 0.4090904999999907,
          "durationTicks": 360,
          "midi": 74,
          "name": "D5",
          "ticks": 132240,
          "time": 150.272577,
          "velocity": 0.8503937007874016
        },
        {
          "duration": 0.13636349999998743,
          "durationTicks": 120,
          "midi": 72,
          "name": "C5",
          "ticks": 132600,
          "time": 150.6816675,
          "velocity": 0.937007874015748
        },
        {
          "duration": 0.7954537500000072,
          "durationTicks": 700,
          "midi": 70,
          "name": "A#4",
          "ticks": 132720,
          "time": 150.818031,
          "velocity": 0.937007874015748
        },
        {
          "duration": 0.4363632000000166,
          "durationTicks": 384,
          "midi": 82,
          "name": "A#5",
          "ticks": 134400,
          "time": 152.72711999999999,
          "velocity": 0.8976377952755905
        },
        {
          "duration": 0.4363632000000166,
          "durationTicks": 384,
          "midi": 79,
          "name": "G5",
          "ticks": 134880,
          "time": 153.272574,
          "velocity": 0.8740157480314961
        },
        {
          "duration": 0.21818159999997988,
          "durationTicks": 192,
          "midi": 77,
          "name": "F5",
          "ticks": 135360,
          "time": 153.818028,
          "velocity": 0.9212598425196851
        },
        {
          "duration": 0.21818159999997988,
          "durationTicks": 192,
          "midi": 74,
          "name": "D5",
          "ticks": 135600,
          "time": 154.090755,
          "velocity": 0.9212598425196851
        },
        {
          "duration": 0.2727270000000033,
          "durationTicks": 240,
          "midi": 72,
          "name": "C5",
          "ticks": 135840,
          "time": 154.363482,
          "velocity": 0.937007874015748
        },
        {
          "duration": 0.21818159999997988,
          "durationTicks": 192,
          "midi": 70,
          "name": "A#4",
          "ticks": 136080,
          "time": 154.636209,
          "velocity": 0.8976377952755905
        },
        {
          "duration": 0.21818159999997988,
          "durationTicks": 192,
          "midi": 74,
          "name": "D5",
          "ticks": 136320,
          "time": 154.908936,
          "velocity": 0.9212598425196851
        },
        {
          "duration": 0.4363632000000166,
          "durationTicks": 384,
          "midi": 74,
          "name": "D5",
          "ticks": 136560,
          "time": 155.181663,
          "velocity": 0.8503937007874016
        },
        {
          "duration": 0.2727270000000033,
          "durationTicks": 240,
          "midi": 74,
          "name": "D5",
          "ticks": 137040,
          "time": 155.727117,
          "velocity": 0.84251968503937
        },
        {
          "duration": 0.2727270000000033,
          "durationTicks": 240,
          "midi": 72,
          "name": "C5",
          "ticks": 137280,
          "time": 155.999844,
          "velocity": 0.905511811023622
        },
        {
          "duration": 0.21818159999997988,
          "durationTicks": 192,
          "midi": 70,
          "name": "A#4",
          "ticks": 137520,
          "time": 156.272571,
          "velocity": 0.84251968503937
        },
        {
          "duration": 0.4363631999999882,
          "durationTicks": 384,
          "midi": 70,
          "name": "A#4",
          "ticks": 137760,
          "time": 156.545298,
          "velocity": 0.84251968503937
        },
        {
          "duration": 0.21818159999997988,
          "durationTicks": 192,
          "midi": 67,
          "name": "G4",
          "ticks": 138240,
          "time": 157.090752,
          "velocity": 0.8976377952755905
        },
        {
          "duration": 0.21818159999997988,
          "durationTicks": 192,
          "midi": 70,
          "name": "A#4",
          "ticks": 138480,
          "time": 157.363479,
          "velocity": 0.8346456692913385
        },
        {
          "duration": 0.2181816000000083,
          "durationTicks": 192,
          "midi": 74,
          "name": "D5",
          "ticks": 138720,
          "time": 157.636206,
          "velocity": 0.905511811023622
        },
        {
          "duration": 0.6545447999999965,
          "durationTicks": 576,
          "midi": 72,
          "name": "C5",
          "ticks": 138960,
          "time": 157.908933,
          "velocity": 0.8818897637795275
        },
        {
          "duration": 0.21818159999997988,
          "durationTicks": 192,
          "midi": 74,
          "name": "D5",
          "ticks": 139680,
          "time": 158.727114,
          "velocity": 0.8818897637795275
        },
        {
          "duration": 0.4090904999999907,
          "durationTicks": 360,
          "midi": 74,
          "name": "D5",
          "ticks": 139920,
          "time": 158.999841,
          "velocity": 0.8346456692913385
        },
        {
          "duration": 0.13636350000001585,
          "durationTicks": 120,
          "midi": 72,
          "name": "C5",
          "ticks": 140280,
          "time": 159.4089315,
          "velocity": 0.8661417322834646
        },
        {
          "duration": 0.7954537499999788,
          "durationTicks": 700,
          "midi": 70,
          "name": "A#4",
          "ticks": 140400,
          "time": 159.545295,
          "velocity": 0.8661417322834646
        }
      ]
    },
    {
      "channel": 1,
      "controlChanges": {
        "7": [
          {
            "number": 7,
            "ticks": 0,
            "time": 0,
            "value": 0.8188976377952756
          },
          {
            "number": 7,
            "ticks": 134400,
            "time": 152.72711999999999,
            "value": 0.8503937007874016
          },
          {
            "number": 7,
            "ticks": 134640,
            "time": 152.999847,
            "value": 0.8188976377952756
          },
          {
            "number": 7,
            "ticks": 134880,
            "time": 153.272574,
            "value": 0.7952755905511811
          },
          {
            "number": 7,
            "ticks": 135120,
            "time": 153.545301,
            "value": 0.7637795275590551
          },
          {
            "number": 7,
            "ticks": 135360,
            "time": 153.818028,
            "value": 0.7401574803149606
          },
          {
            "number": 7,
            "ticks": 135600,
            "time": 154.090755,
            "value": 0.7165354330708661
          },
          {
            "number": 7,
            "ticks": 135840,
            "time": 154.363482,
            "value": 0.6850393700787402
          },
          {
            "number": 7,
            "ticks": 136080,
            "time": 154.636209,
            "value": 0.6614173228346457
          },
          {
            "number": 7,
            "ticks": 136320,
            "time": 154.908936,
            "value": 0.6299212598425197
          },
          {
            "number": 7,
            "ticks": 136560,
            "time": 155.181663,
            "value": 0.6062992125984252
          },
          {
            "number": 7,
            "ticks": 136800,
            "time": 155.45439,
            "value": 0.5826771653543307
          },
          {
            "number": 7,
            "ticks": 137040,
            "time": 155.727117,
            "value": 0.5511811023622047
          },
          {
            "number": 7,
            "ticks": 137280,
            "time": 155.999844,
            "value": 0.5275590551181102
          },
          {
            "number": 7,
            "ticks": 137520,
            "time": 156.272571,
            "value": 0.5039370078740157
          },
          {
            "number": 7,
            "ticks": 137760,
            "time": 156.545298,
            "value": 0.47244094488188976
          },
          {
            "number": 7,
            "ticks": 138000,
            "time": 156.818025,
            "value": 0.44881889763779526
          },
          {
            "number": 7,
            "ticks": 138240,
            "time": 157.090752,
            "value": 0.41732283464566927
          },
          {
            "number": 7,
            "ticks": 138480,
            "time": 157.363479,
            "value": 0.3937007874015748
          },
          {
            "number": 7,
            "ticks": 138720,
            "time": 157.636206,
            "value": 0.3700787401574803
          },
          {
            "number": 7,
            "ticks": 138960,
            "time": 157.908933,
            "value": 0.33858267716535434
          },
          {
            "number": 7,
            "ticks": 139200,
            "time": 158.18166,
            "value": 0.31496062992125984
          },
          {
            "number": 7,
            "ticks": 139440,
            "time": 158.454387,
            "value": 0.29133858267716534
          },
          {
            "number": 7,
            "ticks": 139680,
            "time": 158.727114,
            "value": 0.25984251968503935
          },
          {
            "number": 7,
            "ticks": 139920,
            "time": 158.999841,
            "value": 0.23622047244094488
          },
          {
            "number": 7,
            "ticks": 140160,
            "time": 159.272568,
            "value": 0.2047244094488189
          },
          {
            "number": 7,
            "ticks": 140400,
            "time": 159.545295,
            "value": 0.18110236220472442
          },
          {
            "number": 7,
            "ticks": 140640,
            "time": 159.81802199999998,
            "value": 0.15748031496062992
          },
          {
            "number": 7,
            "ticks": 140880,
            "time": 160.090749,
            "value": 0.12598425196850394
          },
          {
            "number": 7,
            "ticks": 141120,
            "time": 160.363476,
            "value": 0.10236220472440945
          },
          {
            "number": 7,
            "ticks": 141360,
            "time": 160.636203,
            "value": 0.07874015748031496
          },
          {
            "number": 7,
            "ticks": 141600,
            "time": 160.90893,
            "value": 0.047244094488188976
          },
          {
            "number": 7,
            "ticks": 141840,
            "time": 161.181657,
            "value": 0.023622047244094488
          }
        ],
        "10": [
          {
            "number": 10,
            "ticks": 0,
            "time": 0,
            "value": 0.8818897637795275
          }
        ],
        "32": [
          {
            "number": 32,
            "ticks": 0,
            "time": 0,
            "value": 0
          }
        ],
        "91": [
          {
            "number": 91,
            "ticks": 0,
            "time": 0,
            "value": 0.5039370078740157
          }
        ],
        "93": [
          {
            "number": 93,
            "ticks": 0,
            "time": 0,
            "value": 0.6614173228346457
          }
        ],
        "123": [
          {
            "number": 123,
            "ticks": 0,
            "time": 0,
            "value": 0
          }
        ]
      },
      "pitchBends": [],
      "instrument": {
        "family": "piano",
        "number": 0,
        "name": "acoustic grand piano"
      },
      "name": "Piano",
      "notes": [
        {
          "duration": 0.21818159999999942,
          "durationTicks": 192,
          "midi": 57,
          "name": "A3",
          "ticks": 5760,
          "time": 6.545448,
          "velocity": 0.7244094488188977
        },
        {
          "duration": 0.21818159999999942,
          "durationTicks": 192,
          "midi": 33,
          "name": "A1",
          "ticks": 5760,
          "time": 6.545448,
          "velocity": 0.7322834645669292
        },
        {
          "duration": 0.10909079999999971,
          "durationTicks": 96,
          "midi": 57,
          "name": "A3",
          "ticks": 6000,
          "time": 6.818175,
          "velocity": 0.7716535433070866
        },
        {
          "duration": 0.10909079999999971,
          "durationTicks": 96,
          "midi": 33,
          "name": "A1",
          "ticks": 6000,
          "time": 6.818175,
          "velocity": 0.7401574803149606
        },
        {
          "duration": 0.10909079999999971,
          "durationTicks": 96,
          "midi": 57,
          "name": "A3",
          "ticks": 6120,
          "time": 6.9545385,
          "velocity": 0.7559055118110236
        },
        {
          "duration": 0.10909079999999971,
          "durationTicks": 96,
          "midi": 33,
          "name": "A1",
          "ticks": 6120,
          "time": 6.9545385,
          "velocity": 0.7637795275590551
        },
        {
          "duration": 0.10909079999999971,
          "durationTicks": 96,
          "midi": 60,
          "name": "C4",
          "ticks": 6240,
          "time": 7.090902,
          "velocity": 0.7795275590551181
        },
        {
          "duration": 0.10909079999999971,
          "durationTicks": 96,
          "midi": 36,
          "name": "C2",
          "ticks": 6240,
          "time": 7.090902,
          "velocity": 0.7480314960629921
        },
        {
          "duration": 0.10909079999999971,
          "durationTicks": 96,
          "midi": 61,
          "name": "C#4",
          "ticks": 6360,
          "time": 7.2272655,
          "velocity": 0.7480314960629921
        },
        {
          "duration": 0.10909079999999971,
          "durationTicks": 96,
          "midi": 37,
          "name": "C#2",
          "ticks": 6360,
          "time": 7.2272655,
          "velocity": 0.6535433070866141
        },
        {
          "duration": 0.4363632000000006,
          "durationTicks": 384,
          "midi": 64,
          "name": "E4",
          "ticks": 6480,
          "time": 7.3636289999999995,
          "velocity": 0.7401574803149606
        },
        {
          "duration": 0.4363632000000006,
          "durationTicks": 384,
          "midi": 40,
          "name": "E2",
          "ticks": 6480,
          "time": 7.3636289999999995,
          "velocity": 0.7716535433070866
        },
        {
          "duration": 0.2181816000000003,
          "durationTicks": 192,
          "midi": 64,
          "name": "E4",
          "ticks": 6960,
          "time": 7.909083,
          "velocity": 0.6929133858267716
        },
        {
          "duration": 0.2181816000000003,
          "durationTicks": 192,
          "midi": 40,
          "name": "E2",
          "ticks": 6960,
          "time": 7.909083,
          "velocity": 0.7480314960629921
        },
        {
          "duration": 0.10909079999999882,
          "durationTicks": 96,
          "midi": 65,
          "name": "F4",
          "ticks": 7200,
          "time": 8.18181,
          "velocity": 0.7637795275590551
        },
        {
          "duration": 0.10909079999999882,
          "durationTicks": 96,
          "midi": 41,
          "name": "F2",
          "ticks": 7200,
          "time": 8.18181,
          "velocity": 0.7716535433070866
        },
        {
          "duration": 0.10909079999999882,
          "durationTicks": 96,
          "midi": 66,
          "name": "F#4",
          "ticks": 7320,
          "time": 8.3181735,
          "velocity": 0.7795275590551181
        },
        {
          "duration": 0.10909079999999882,
          "durationTicks": 96,
          "midi": 42,
          "name": "F#2",
          "ticks": 7320,
          "time": 8.3181735,
          "velocity": 0.6929133858267716
        },
        {
          "duration": 0.21818159999999942,
          "durationTicks": 192,
          "midi": 69,
          "name": "A4",
          "ticks": 7440,
          "time": 8.454537,
          "velocity": 0.7559055118110236
        },
        {
          "duration": 0.21818159999999942,
          "durationTicks": 192,
          "midi": 45,
          "name": "A2",
          "ticks": 7440,
          "time": 8.454537,
          "velocity": 0.6692913385826772
        },
        {
          "duration": 0.21818159999999942,
          "durationTicks": 192,
          "midi": 57,
          "name": "A3",
          "ticks": 7680,
          "time": 8.727264,
          "velocity": 0.6692913385826772
        },
        {
          "duration": 0.21818159999999942,
          "durationTicks": 192,
          "midi": 33,
          "name": "A1",
          "ticks": 7680,
          "time": 8.727264,
          "velocity": 0.6377952755905512
        },
        {
          "duration": 0.1090908000000006,
          "durationTicks": 96,
          "midi": 57,
          "name": "A3",
          "ticks": 7920,
          "time": 8.999991,
          "velocity": 0.7559055118110236
        },
        {
          "duration": 0.1090908000000006,
          "durationTicks": 96,
          "midi": 33,
          "name": "A1",
          "ticks": 7920,
          "time": 8.999991,
          "velocity": 0.7086614173228346
        },
        {
          "duration": 0.1090908000000006,
          "durationTicks": 96,
          "midi": 57,
          "name": "A3",
          "ticks": 8040,
          "time": 9.1363545,
          "velocity": 0.7559055118110236
        },
        {
          "duration": 0.1090908000000006,
          "durationTicks": 96,
          "midi": 33,
          "name": "A1",
          "ticks": 8040,
          "time": 9.1363545,
          "velocity": 0.6692913385826772
        },
        {
          "duration": 0.1090908000000006,
          "durationTicks": 96,
          "midi": 60,
          "name": "C4",
          "ticks": 8160,
          "time": 9.272718,
          "velocity": 0.7401574803149606
        },
        {
          "duration": 0.1090908000000006,
          "durationTicks": 96,
          "midi": 36,
          "name": "C2",
          "ticks": 8160,
          "time": 9.272718,
          "velocity": 0.7480314960629921
        },
        {
          "duration": 0.1090908000000006,
          "durationTicks": 96,
          "midi": 61,
          "name": "C#4",
          "ticks": 8280,
          "time": 9.4090815,
          "velocity": 0.6535433070866141
        },
        {
          "duration": 0.1090908000000006,
          "durationTicks": 96,
          "midi": 37,
          "name": "C#2",
          "ticks": 8280,
          "time": 9.4090815,
          "velocity": 0.7559055118110236
        },
        {
          "duration": 0.4363632000000006,
          "durationTicks": 384,
          "midi": 64,
          "name": "E4",
          "ticks": 8400,
          "time": 9.545444999999999,
          "velocity": 0.7165354330708661
        },
        {
          "duration": 0.4363632000000006,
          "durationTicks": 384,
          "midi": 40,
          "name": "E2",
          "ticks": 8400,
          "time": 9.545444999999999,
          "velocity": 0.7401574803149606
        },
        {
          "duration": 0.21818159999999942,
          "durationTicks": 192,
          "midi": 64,
          "name": "E4",
          "ticks": 8880,
          "time": 10.090899,
          "velocity": 0.7637795275590551
        },
        {
          "duration": 0.21818159999999942,
          "durationTicks": 192,
          "midi": 40,
          "name": "E2",
          "ticks": 8880,
          "time": 10.090899,
          "velocity": 0.7244094488188977
        },
        {
          "duration": 0.10909079999999882,
          "durationTicks": 96,
          "midi": 65,
          "name": "F4",
          "ticks": 9120,
          "time": 10.363626,
          "velocity": 0.6929133858267716
        },
        {
          "duration": 0.10909079999999882,
          "durationTicks": 96,
          "midi": 41,
          "name": "F2",
          "ticks": 9120,
          "time": 10.363626,
          "velocity": 0.7716535433070866
        },
        {
          "duration": 0.10909079999999882,
          "durationTicks": 96,
          "midi": 66,
          "name": "F#4",
          "ticks": 9240,
          "time": 10.4999895,
          "velocity": 0.6771653543307087
        },
        {
          "duration": 0.10909079999999882,
          "durationTicks": 96,
          "midi": 42,
          "name": "F#2",
          "ticks": 9240,
          "time": 10.4999895,
          "velocity": 0.7480314960629921
        },
        {
          "duration": 0.21818159999999942,
          "durationTicks": 192,
          "midi": 69,
          "name": "A4",
          "ticks": 9360,
          "time": 10.636353,
          "velocity": 0.7007874015748031
        },
        {
          "duration": 0.21818159999999942,
          "durationTicks": 192,
          "midi": 45,
          "name": "A2",
          "ticks": 9360,
          "time": 10.636353,
          "velocity": 0.6771653543307087
        },
        {
          "duration": 0.21818159999999942,
          "durationTicks": 192,
          "midi": 33,
          "name": "A1",
          "ticks": 9600,
          "time": 10.90908,
          "velocity": 0.7244094488188977
        },
        {
          "duration": 0.21818159999999942,
          "durationTicks": 192,
          "midi": 57,
          "name": "A3",
          "ticks": 9600,
          "time": 10.90908,
          "velocity": 0.6456692913385826
        },
        {
          "duration": 0.1090908000000006,
          "durationTicks": 96,
          "midi": 33,
          "name": "A1",
          "ticks": 9840,
          "time": 11.181807,
          "velocity": 0.7637795275590551
        },
        {
          "duration": 0.1090908000000006,
          "durationTicks": 96,
          "midi": 57,
          "name": "A3",
          "ticks": 9840,
          "time": 11.181807,
          "velocity": 0.7322834645669292
        },
        {
          "duration": 0.1090908000000006,
          "durationTicks": 96,
          "midi": 33,
          "name": "A1",
          "ticks": 9960,
          "time": 11.318170499999999,
          "velocity": 0.7716535433070866
        },
        {
          "duration": 0.1090908000000006,
          "durationTicks": 96,
          "midi": 57,
          "name": "A3",
          "ticks": 9960,
          "time": 11.318170499999999,
          "velocity": 0.7716535433070866
        },
        {
          "duration": 0.21818159999999764,
          "durationTicks": 192,
          "midi": 33,
          "name": "A1",
          "ticks": 10080,
          "time": 11.454534,
          "velocity": 0.7007874015748031
        },
        {
          "duration": 0.21818159999999764,
          "durationTicks": 192,
          "midi": 61,
          "name": "C#4",
          "ticks": 10080,
          "time": 11.454534,
          "velocity": 0.7165354330708661
        },
        {
          "duration": 0.21818159999999942,
          "durationTicks": 192,
          "midi": 33,
          "name": "A1",
          "ticks": 10320,
          "time": 11.727261,
          "velocity": 0.7795275590551181
        },
        {
          "duration": 0.45454499999999953,
          "durationTicks": 400,
          "midi": 64,
          "name": "E4",
          "ticks": 10320,
          "time": 11.727261,
          "velocity": 0.7637795275590551
        },
        {
          "duration": 0.21818159999999942,
          "durationTicks": 192,
          "midi": 33,
          "name": "A1",
          "ticks": 10560,
          "time": 11.999988,
          "velocity": 0.7322834645669292
        },
        {
          "duration": 0.21818159999999942,
          "durationTicks": 192,
          "midi": 33,
          "name": "A1",
          "ticks": 10800,
          "time": 12.272715,
          "velocity": 0.7559055118110236
        },
        {
          "duration": 0.21818159999999942,
          "durationTicks": 192,
          "midi": 64,
          "name": "E4",
          "ticks": 10800,
          "time": 12.272715,
          "velocity": 0.7401574803149606
        },
        {
          "duration": 0.21818159999999942,
          "durationTicks": 192,
          "midi": 33,
          "name": "A1",
          "ticks": 11040,
          "time": 12.545442,
          "velocity": 0.6929133858267716
        },
        {
          "duration": 0.21818159999999942,
          "durationTicks": 192,
          "midi": 66,
          "name": "F#4",
          "ticks": 11040,
          "time": 12.545442,
          "velocity": 0.7322834645669292
        },
        {
          "duration": 0.21818159999999942,
          "durationTicks": 192,
          "midi": 33,
          "name": "A1",
          "ticks": 11280,
          "time": 12.818169,
          "velocity": 0.7244094488188977
        },
        {
          "duration": 0.21818159999999942,
          "durationTicks": 192,
          "midi": 69,
          "name": "A4",
          "ticks": 11280,
          "time": 12.818169,
          "velocity": 0.6771653543307087
        },
        {
          "duration": 0.21818159999999764,
          "durationTicks": 192,
          "midi": 33,
          "name": "A1",
          "ticks": 11520,
          "time": 13.090896,
          "velocity": 0.7795275590551181
        },
        {
          "duration": 0.21818159999999764,
          "durationTicks": 192,
          "midi": 57,
          "name": "A3",
          "ticks": 11520,
          "time": 13.090896,
          "velocity": 0.7480314960629921
        },
        {
          "duration": 0.21818159999999764,
          "durationTicks": 192,
          "midi": 69,
          "name": "A4",
          "ticks": 11520,
          "time": 13.090896,
          "velocity": 0.7007874015748031
        },
        {
          "duration": 0.10909079999999882,
          "durationTicks": 96,
          "midi": 33,
          "name": "A1",
          "ticks": 11760,
          "time": 13.363623,
          "velocity": 0.7480314960629921
        },
        {
          "duration": 0.10909079999999882,
          "durationTicks": 96,
          "midi": 57,
          "name": "A3",
          "ticks": 11760,
          "time": 13.363623,
          "velocity": 0.7716535433070866
        },
        {
          "duration": 0.10909079999999882,
          "durationTicks": 96,
          "midi": 69,
          "name": "A4",
          "ticks": 11760,
          "time": 13.363623,
          "velocity": 0.6850393700787402
        },
        {
          "duration": 0.10909079999999882,
          "durationTicks": 96,
          "midi": 33,
          "name": "A1",
          "ticks": 11880,
          "time": 13.4999865,
          "velocity": 0.7795275590551181
        },
        {
          "duration": 0.10909079999999882,
          "durationTicks": 96,
          "midi": 57,
          "name": "A3",
          "ticks": 11880,
          "time": 13.4999865,
          "velocity": 0.6692913385826772
        },
        {
          "duration": 0.10909079999999882,
          "durationTicks": 96,
          "midi": 69,
          "name": "A4",
          "ticks": 11880,
          "time": 13.4999865,
          "velocity": 0.7007874015748031
        },
        {
          "duration": 0.21818159999999942,
          "durationTicks": 192,
          "midi": 33,
          "name": "A1",
          "ticks": 12000,
          "time": 13.63635,
          "velocity": 0.7559055118110236
        },
        {
          "duration": 0.21818159999999942,
          "durationTicks": 192,
          "midi": 61,
          "name": "C#4",
          "ticks": 12000,
          "time": 13.63635,
          "velocity": 0.7322834645669292
        },
        {
          "duration": 0.21818159999999942,
          "durationTicks": 192,
          "midi": 73,
          "name": "C#5",
          "ticks": 12000,
          "time": 13.63635,
          "velocity": 0.7795275590551181
        },
        {
          "duration": 0.21818159999999942,
          "durationTicks": 192,
          "midi": 33,
          "name": "A1",
          "ticks": 12240,
          "time": 13.909077,
          "velocity": 0.6929133858267716
        },
        {
          "duration": 0.42727230000000027,
          "durationTicks": 376,
          "midi": 64,
          "name": "E4",
          "ticks": 12240,
          "time": 13.909077,
          "velocity": 0.7007874015748031
        },
        {
          "duration": 0.42727230000000027,
          "durationTicks": 376,
          "midi": 76,
          "name": "E5",
          "ticks": 12240,
          "time": 13.909077,
          "velocity": 0.7165354330708661
        },
        {
          "duration": 0.21818159999999942,
          "durationTicks": 192,
          "midi": 33,
          "name": "A1",
          "ticks": 12480,
          "time": 14.181804,
          "velocity": 0.7086614173228346
        },
        {
          "duration": 0.21818159999999942,
          "durationTicks": 192,
          "midi": 33,
          "name": "A1",
          "ticks": 12720,
          "time": 14.454531,
          "velocity": 0.7086614173228346
        },
        {
          "duration": 0.21818159999999942,
          "durationTicks": 192,
          "midi": 64,
          "name": "E4",
          "ticks": 12720,
          "time": 14.454531,
          "velocity": 0.7322834645669292
        },
        {
          "duration": 0.21818159999999942,
          "durationTicks": 192,
          "midi": 76,
          "name": "E5",
          "ticks": 12720,
          "time": 14.454531,
          "velocity": 0.6929133858267716
        },
        {
          "duration": 0.21818159999999942,
          "durationTicks": 192,
          "midi": 33,
          "name": "A1",
          "ticks": 12960,
          "time": 14.727257999999999,
          "velocity": 0.6771653543307087
        },
        {
          "duration": 0.21818159999999942,
          "durationTicks": 192,
          "midi": 66,
          "name": "F#4",
          "ticks": 12960,
          "time": 14.727257999999999,
          "velocity": 0.6535433070866141
        },
        {
          "duration": 0.21818159999999942,
          "durationTicks": 192,
          "midi": 78,
          "name": "F#5",
          "ticks": 12960,
          "time": 14.727257999999999,
          "velocity": 0.7480314960629921
        },
        {
          "duration": 0.21818159999999764,
          "durationTicks": 192,
          "midi": 33,
          "name": "A1",
          "ticks": 13200,
          "time": 14.999985,
          "velocity": 0.7716535433070866
        },
        {
          "duration": 0.21818159999999764,
          "durationTicks": 192,
          "midi": 69,
          "name": "A4",
          "ticks": 13200,
          "time": 14.999985,
          "velocity": 0.6850393700787402
        },
        {
          "duration": 0.21818159999999764,
          "durationTicks": 192,
          "midi": 81,
          "name": "A5",
          "ticks": 13200,
          "time": 14.999985,
          "velocity": 0.7244094488188977
        },
        {
          "duration": 0.21818159999999942,
          "durationTicks": 192,
          "midi": 33,
          "name": "A1",
          "ticks": 13440,
          "time": 15.272712,
          "velocity": 0.7480314960629921
        },
        {
          "duration": 0.41818139999999815,
          "durationTicks": 368,
          "midi": 57,
          "name": "A3",
          "ticks": 13440,
          "time": 15.272712,
          "velocity": 0.7637795275590551
        },
        {
          "duration": 0.41818139999999815,
          "durationTicks": 368,
          "midi": 61,
          "name": "C#4",
          "ticks": 13440,
          "time": 15.272712,
          "velocity": 0.7559055118110236
        },
        {
          "duration": 0.41818139999999815,
          "durationTicks": 368,
          "midi": 64,
          "name": "E4",
          "ticks": 13440,
          "time": 15.272712,
          "velocity": 0.6850393700787402
        },
        {
          "duration": 0.21818159999999942,
          "durationTicks": 192,
          "midi": 33,
          "name": "A1",
          "ticks": 13680,
          "time": 15.545439,
          "velocity": 0.7716535433070866
        },
        {
          "duration": 0.21818159999999942,
          "durationTicks": 192,
          "midi": 33,
          "name": "A1",
          "ticks": 13920,
          "time": 15.818166,
          "velocity": 0.7637795275590551
        },
        {
          "duration": 0.4090904999999996,
          "durationTicks": 360,
          "midi": 57,
          "name": "A3",
          "ticks": 13920,
          "time": 15.818166,
          "velocity": 0.7086614173228346
        },
        {
          "duration": 0.4090904999999996,
          "durationTicks": 360,
          "midi": 61,
          "name": "C#4",
          "ticks": 13920,
          "time": 15.818166,
          "velocity": 0.7795275590551181
        },
        {
          "duration": 0.4090904999999996,
          "durationTicks": 360,
          "midi": 66,
          "name": "F#4",
          "ticks": 13920,
          "time": 15.818166,
          "velocity": 0.7559055118110236
        },
        {
          "duration": 0.21818159999999764,
          "durationTicks": 192,
          "midi": 33,
          "name": "A1",
          "ticks": 14160,
          "time": 16.090893,
          "velocity": 0.6771653543307087
        },
        {
          "duration": 0.21818159999999764,
          "durationTicks": 192,
          "midi": 33,
          "name": "A1",
          "ticks": 14400,
          "time": 16.36362,
          "velocity": 0.6692913385826772
        },
        {
          "duration": 0.4090904999999978,
          "durationTicks": 360,
          "midi": 57,
          "name": "A3",
          "ticks": 14400,
          "time": 16.36362,
          "velocity": 0.7007874015748031
        },
        {
          "duration": 0.4090904999999978,
          "durationTicks": 360,
          "midi": 61,
          "name": "C#4",
          "ticks": 14400,
          "time": 16.36362,
          "velocity": 0.7716535433070866
        },
        {
          "duration": 0.4090904999999978,
          "durationTicks": 360,
          "midi": 64,
          "name": "E4",
          "ticks": 14400,
          "time": 16.36362,
          "velocity": 0.7716535433070866
        },
        {
          "duration": 0.21818159999999764,
          "durationTicks": 192,
          "midi": 33,
          "name": "A1",
          "ticks": 14640,
          "time": 16.636347,
          "velocity": 0.7637795275590551
        },
        {
          "duration": 0.21818159999999764,
          "durationTicks": 192,
          "midi": 33,
          "name": "A1",
          "ticks": 14880,
          "time": 16.909074,
          "velocity": 0.6850393700787402
        },
        {
          "duration": 0.41818139999999815,
          "durationTicks": 368,
          "midi": 57,
          "name": "A3",
          "ticks": 14880,
          "time": 16.909074,
          "velocity": 0.7795275590551181
        },
        {
          "duration": 0.4090904999999978,
          "durationTicks": 360,
          "midi": 61,
          "name": "C#4",
          "ticks": 14880,
          "time": 16.909074,
          "velocity": 0.7401574803149606
        },
        {
          "duration": 0.4090904999999978,
          "durationTicks": 360,
          "midi": 66,
          "name": "F#4",
          "ticks": 14880,
          "time": 16.909074,
          "velocity": 0.7007874015748031
        },
        {
          "duration": 0.1090908000000006,
          "durationTicks": 96,
          "midi": 33,
          "name": "A1",
          "ticks": 15120,
          "time": 17.181801,
          "velocity": 0.7795275590551181
        },
        {
          "duration": 0.1090908000000006,
          "durationTicks": 96,
          "midi": 33,
          "name": "A1",
          "ticks": 15240,
          "time": 17.318164499999998,
          "velocity": 0.6771653543307087
        },
        {
          "duration": 0.21818159999999764,
          "durationTicks": 192,
          "midi": 30,
          "name": "F#1",
          "ticks": 15360,
          "time": 17.454528,
          "velocity": 0.7007874015748031
        },
        {
          "duration": 0.40909050000000136,
          "durationTicks": 360,
          "midi": 57,
          "name": "A3",
          "ticks": 15360,
          "time": 17.454528,
          "velocity": 0.7716535433070866
        },
        {
          "duration": 0.40909050000000136,
          "durationTicks": 360,
          "midi": 61,
          "name": "C#4",
          "ticks": 15360,
          "time": 17.454528,
          "velocity": 0.7795275590551181
        },
        {
          "duration": 0.40909050000000136,
          "durationTicks": 360,
          "midi": 64,
          "name": "E4",
          "ticks": 15360,
          "time": 17.454528,
          "velocity": 0.7401574803149606
        },
        {
          "duration": 0.2181816000000012,
          "durationTicks": 192,
          "midi": 30,
          "name": "F#1",
          "ticks": 15600,
          "time": 17.727255,
          "velocity": 0.7086614173228346
        },
        {
          "duration": 0.2181816000000012,
          "durationTicks": 192,
          "midi": 30,
          "name": "F#1",
          "ticks": 15840,
          "time": 17.999982,
          "velocity": 0.7322834645669292
        },
        {
          "duration": 0.40909050000000136,
          "durationTicks": 360,
          "midi": 57,
          "name": "A3",
          "ticks": 15840,
          "time": 17.999982,
          "velocity": 0.7007874015748031
        },
        {
          "duration": 0.40909050000000136,
          "durationTicks": 360,
          "midi": 61,
          "name": "C#4",
          "ticks": 15840,
          "time": 17.999982,
          "velocity": 0.7322834645669292
        },
        {
          "duration": 0.40909050000000136,
          "durationTicks": 360,
          "midi": 66,
          "name": "F#4",
          "ticks": 15840,
          "time": 17.999982,
          "velocity": 0.7480314960629921
        },
        {
          "duration": 0.2181816000000012,
          "durationTicks": 192,
          "midi": 30,
          "name": "F#1",
          "ticks": 16080,
          "time": 18.272709,
          "velocity": 0.7559055118110236
        },
        {
          "duration": 0.2181816000000012,
          "durationTicks": 192,
          "midi": 30,
          "name": "F#1",
          "ticks": 16320,
          "time": 18.545436,
          "velocity": 0.7637795275590551
        },
        {
          "duration": 0.40909050000000136,
          "durationTicks": 360,
          "midi": 57,
          "name": "A3",
          "ticks": 16320,
          "time": 18.545436,
          "velocity": 0.7165354330708661
        },
        {
          "duration": 0.38636325000000227,
          "durationTicks": 340,
          "midi": 61,
          "name": "C#4",
          "ticks": 16320,
          "time": 18.545436,
          "velocity": 0.7559055118110236
        },
        {
          "duration": 0.40909050000000136,
          "durationTicks": 360,
          "midi": 64,
          "name": "E4",
          "ticks": 16320,
          "time": 18.545436,
          "velocity": 0.7086614173228346
        },
        {
          "duration": 0.2181816000000012,
          "durationTicks": 192,
          "midi": 30,
          "name": "F#1",
          "ticks": 16560,
          "time": 18.818163,
          "velocity": 0.7637795275590551
        },
        {
          "duration": 0.2181816000000012,
          "durationTicks": 192,
          "midi": 30,
          "name": "F#1",
          "ticks": 16800,
          "time": 19.090889999999998,
          "velocity": 0.7716535433070866
        },
        {
          "duration": 0.4181814000000017,
          "durationTicks": 368,
          "midi": 57,
          "name": "A3",
          "ticks": 16800,
          "time": 19.090889999999998,
          "velocity": 0.7007874015748031
        },
        {
          "duration": 0.4181814000000017,
          "durationTicks": 368,
          "midi": 61,
          "name": "C#4",
          "ticks": 16800,
          "time": 19.090889999999998,
          "velocity": 0.7480314960629921
        },
        {
          "duration": 0.4181814000000017,
          "durationTicks": 368,
          "midi": 66,
          "name": "F#4",
          "ticks": 16800,
          "time": 19.090889999999998,
          "velocity": 0.6929133858267716
        },
        {
          "duration": 0.21818159999999764,
          "durationTicks": 192,
          "midi": 30,
          "name": "F#1",
          "ticks": 17040,
          "time": 19.363617,
          "velocity": 0.7086614173228346
        },
        {
          "duration": 0.21818159999999764,
          "durationTicks": 192,
          "midi": 38,
          "name": "D2",
          "ticks": 17280,
          "time": 19.636344,
          "velocity": 0.7165354330708661
        },
        {
          "duration": 0.4090904999999978,
          "durationTicks": 360,
          "midi": 57,
          "name": "A3",
          "ticks": 17280,
          "time": 19.636344,
          "velocity": 0.7480314960629921
        },
        {
          "duration": 0.4090904999999978,
          "durationTicks": 360,
          "midi": 62,
          "name": "D4",
          "ticks": 17280,
          "time": 19.636344,
          "velocity": 0.7795275590551181
        },
        {
          "duration": 0.4090904999999978,
          "durationTicks": 360,
          "midi": 66,
          "name": "F#4",
          "ticks": 17280,
          "time": 19.636344,
          "velocity": 0.7559055118110236
        },
        {
          "duration": 0.21818159999999764,
          "durationTicks": 192,
          "midi": 38,
          "name": "D2",
          "ticks": 17520,
          "time": 19.909071,
          "velocity": 0.7716535433070866
        },
        {
          "duration": 0.21818159999999764,
          "durationTicks": 192,
          "midi": 38,
          "name": "D2",
          "ticks": 17760,
          "time": 20.181798,
          "velocity": 0.6377952755905512
        },
        {
          "duration": 0.28181790000000007,
          "durationTicks": 248,
          "midi": 57,
          "name": "A3",
          "ticks": 17760,
          "time": 20.181798,
          "velocity": 0.7559055118110236
        },
        {
          "duration": 0.2954542499999988,
          "durationTicks": 260,
          "midi": 62,
          "name": "D4",
          "ticks": 17760,
          "time": 20.181798,
          "velocity": 0.7401574803149606
        },
        {
          "duration": 0.28181790000000007,
          "durationTicks": 248,
          "midi": 66,
          "name": "F#4",
          "ticks": 17760,
          "time": 20.181798,
          "velocity": 0.7322834645669292
        },
        {
          "duration": 0.1090908000000006,
          "durationTicks": 96,
          "midi": 38,
          "name": "D2",
          "ticks": 18000,
          "time": 20.454525,
          "velocity": 0.6850393700787402
        },
        {
          "duration": 0.10909080000000415,
          "durationTicks": 96,
          "midi": 57,
          "name": "A3",
          "ticks": 18120,
          "time": 20.5908885,
          "velocity": 0.7795275590551181
        },
        {
          "duration": 0.10909080000000415,
          "durationTicks": 96,
          "midi": 62,
          "name": "D4",
          "ticks": 18120,
          "time": 20.5908885,
          "velocity": 0.7480314960629921
        },
        {
          "duration": 0.10909080000000415,
          "durationTicks": 96,
          "midi": 66,
          "name": "F#4",
          "ticks": 18120,
          "time": 20.5908885,
          "velocity": 0.7086614173228346
        },
        {
          "duration": 0.21818159999999764,
          "durationTicks": 192,
          "midi": 38,
          "name": "D2",
          "ticks": 18240,
          "time": 20.727252,
          "velocity": 0.7559055118110236
        },
        {
          "duration": 0.39545414999999906,
          "durationTicks": 348,
          "midi": 57,
          "name": "A3",
          "ticks": 18240,
          "time": 20.727252,
          "velocity": 0.7795275590551181
        },
        {
          "duration": 0.40909050000000136,
          "durationTicks": 360,
          "midi": 62,
          "name": "D4",
          "ticks": 18240,
          "time": 20.727252,
          "velocity": 0.7716535433070866
        },
        {
          "duration": 0.41818139999999815,
          "durationTicks": 368,
          "midi": 66,
          "name": "F#4",
          "ticks": 18240,
          "time": 20.727252,
          "velocity": 0.7795275590551181
        },
        {
          "duration": 0.21818159999999764,
          "durationTicks": 192,
          "midi": 38,
          "name": "D2",
          "ticks": 18480,
          "time": 20.999979,
          "velocity": 0.7401574803149606
        },
        {
          "duration": 0.2181816000000012,
          "durationTicks": 192,
          "midi": 38,
          "name": "D2",
          "ticks": 18720,
          "time": 21.272706,
          "velocity": 0.7795275590551181
        },
        {
          "duration": 0.40909050000000136,
          "durationTicks": 360,
          "midi": 57,
          "name": "A3",
          "ticks": 18720,
          "time": 21.272706,
          "velocity": 0.7244094488188977
        },
        {
          "duration": 0.40909050000000136,
          "durationTicks": 360,
          "midi": 62,
          "name": "D4",
          "ticks": 18720,
          "time": 21.272706,
          "velocity": 0.7795275590551181
        },
        {
          "duration": 0.3954541500000026,
          "durationTicks": 348,
          "midi": 66,
          "name": "F#4",
          "ticks": 18720,
          "time": 21.272706,
          "velocity": 0.6456692913385826
        },
        {
          "duration": 0.1090908000000006,
          "durationTicks": 96,
          "midi": 33,
          "name": "A1",
          "ticks": 18960,
          "time": 21.545433,
          "velocity": 0.7480314960629921
        },
        {
          "duration": 0.1090908000000006,
          "durationTicks": 96,
          "midi": 33,
          "name": "A1",
          "ticks": 19080,
          "time": 21.6817965,
          "velocity": 0.6771653543307087
        },
        {
          "duration": 0.2181816000000012,
          "durationTicks": 192,
          "midi": 38,
          "name": "D2",
          "ticks": 19200,
          "time": 21.81816,
          "velocity": 0.6929133858267716
        },
        {
          "duration": 0.40909050000000136,
          "durationTicks": 360,
          "midi": 57,
          "name": "A3",
          "ticks": 19200,
          "time": 21.81816,
          "velocity": 0.7795275590551181
        },
        {
          "duration": 0.4181814000000017,
          "durationTicks": 368,
          "midi": 62,
          "name": "D4",
          "ticks": 19200,
          "time": 21.81816,
          "velocity": 0.7401574803149606
        },
        {
          "duration": 0.40909050000000136,
          "durationTicks": 360,
          "midi": 66,
          "name": "F#4",
          "ticks": 19200,
          "time": 21.81816,
          "velocity": 0.7637795275590551
        },
        {
          "duration": 0.2181816000000012,
          "durationTicks": 192,
          "midi": 38,
          "name": "D2",
          "ticks": 19440,
          "time": 22.090887,
          "velocity": 0.7480314960629921
        },
        {
          "duration": 0.2181816000000012,
          "durationTicks": 192,
          "midi": 38,
          "name": "D2",
          "ticks": 19680,
          "time": 22.363614,
          "velocity": 0.7480314960629921
        },
        {
          "duration": 0.30454514999999915,
          "durationTicks": 268,
          "midi": 57,
          "name": "A3",
          "ticks": 19680,
          "time": 22.363614,
          "velocity": 0.7165354330708661
        },
        {
          "duration": 0.28181790000000007,
          "durationTicks": 248,
          "midi": 62,
          "name": "D4",
          "ticks": 19680,
          "time": 22.363614,
          "velocity": 0.7244094488188977
        },
        {
          "duration": 0.28181790000000007,
          "durationTicks": 248,
          "midi": 66,
          "name": "F#4",
          "ticks": 19680,
          "time": 22.363614,
          "velocity": 0.7244094488188977
        },
        {
          "duration": 0.10909080000000415,
          "durationTicks": 96,
          "midi": 38,
          "name": "D2",
          "ticks": 19920,
          "time": 22.636340999999998,
          "velocity": 0.7007874015748031
        },
        {
          "duration": 0.1090908000000006,
          "durationTicks": 96,
          "midi": 57,
          "name": "A3",
          "ticks": 20040,
          "time": 22.7727045,
          "velocity": 0.7007874015748031
        },
        {
          "duration": 0.1090908000000006,
          "durationTicks": 96,
          "midi": 62,
          "name": "D4",
          "ticks": 20040,
          "time": 22.7727045,
          "velocity": 0.6929133858267716
        },
        {
          "duration": 0.1090908000000006,
          "durationTicks": 96,
          "midi": 66,
          "name": "F#4",
          "ticks": 20040,
          "time": 22.7727045,
          "velocity": 0.7007874015748031
        },
        {
          "duration": 0.21818159999999764,
          "durationTicks": 192,
          "midi": 38,
          "name": "D2",
          "ticks": 20160,
          "time": 22.909068,
          "velocity": 0.6692913385826772
        },
        {
          "duration": 0.41818139999999815,
          "durationTicks": 368,
          "midi": 57,
          "name": "A3",
          "ticks": 20160,
          "time": 22.909068,
          "velocity": 0.7165354330708661
        },
        {
          "duration": 0.41818139999999815,
          "durationTicks": 368,
          "midi": 62,
          "name": "D4",
          "ticks": 20160,
          "time": 22.909068,
          "velocity": 0.7007874015748031
        },
        {
          "duration": 0.4272722999999985,
          "durationTicks": 376,
          "midi": 66,
          "name": "F#4",
          "ticks": 20160,
          "time": 22.909068,
          "velocity": 0.6771653543307087
        },
        {
          "duration": 0.21818159999999764,
          "durationTicks": 192,
          "midi": 33,
          "name": "A1",
          "ticks": 20400,
          "time": 23.181795,
          "velocity": 0.7637795275590551
        },
        {
          "duration": 0.21818159999999764,
          "durationTicks": 192,
          "midi": 38,
          "name": "D2",
          "ticks": 20640,
          "time": 23.454522,
          "velocity": 0.7244094488188977
        },
        {
          "duration": 0.41818139999999815,
          "durationTicks": 368,
          "midi": 57,
          "name": "A3",
          "ticks": 20640,
          "time": 23.454522,
          "velocity": 0.6535433070866141
        },
        {
          "duration": 0.4090904999999978,
          "durationTicks": 360,
          "midi": 62,
          "name": "D4",
          "ticks": 20640,
          "time": 23.454522,
          "velocity": 0.7716535433070866
        },
        {
          "duration": 0.39545414999999906,
          "durationTicks": 348,
          "midi": 66,
          "name": "F#4",
          "ticks": 20640,
          "time": 23.454522,
          "velocity": 0.6929133858267716
        },
        {
          "duration": 0.21818159999999764,
          "durationTicks": 192,
          "midi": 38,
          "name": "D2",
          "ticks": 20880,
          "time": 23.727249,
          "velocity": 0.6692913385826772
        },
        {
          "duration": 0.21818159999999764,
          "durationTicks": 192,
          "midi": 33,
          "name": "A1",
          "ticks": 21120,
          "time": 23.999976,
          "velocity": 0.7480314960629921
        },
        {
          "duration": 0.9545445000000008,
          "durationTicks": 840,
          "midi": 57,
          "name": "A3",
          "ticks": 21120,
          "time": 23.999976,
          "velocity": 0.7716535433070866
        },
        {
          "duration": 0.9636353999999976,
          "durationTicks": 848,
          "midi": 61,
          "name": "C#4",
          "ticks": 21120,
          "time": 23.999976,
          "velocity": 0.7795275590551181
        },
        {
          "duration": 0.9545445000000008,
          "durationTicks": 840,
          "midi": 64,
          "name": "E4",
          "ticks": 21120,
          "time": 23.999976,
          "velocity": 0.7716535433070866
        },
        {
          "duration": 0.21818159999999764,
          "durationTicks": 192,
          "midi": 33,
          "name": "A1",
          "ticks": 21360,
          "time": 24.272703,
          "velocity": 0.6771653543307087
        },
        {
          "duration": 0.21818159999999764,
          "durationTicks": 192,
          "midi": 33,
          "name": "A1",
          "ticks": 21600,
          "time": 24.54543,
          "velocity": 0.7480314960629921
        },
        {
          "duration": 0.1090908000000006,
          "durationTicks": 96,
          "midi": 33,
          "name": "A1",
          "ticks": 21840,
          "time": 24.818157,
          "velocity": 0.7244094488188977
        },
        {
          "duration": 0.1090908000000006,
          "durationTicks": 96,
          "midi": 33,
          "name": "A1",
          "ticks": 21960,
          "time": 24.9545205,
          "velocity": 0.7165354330708661
        },
        {
          "duration": 0.2181816000000012,
          "durationTicks": 192,
          "midi": 37,
          "name": "C#2",
          "ticks": 22080,
          "time": 25.090884,
          "velocity": 0.6929133858267716
        },
        {
          "duration": 0.9545445000000008,
          "durationTicks": 840,
          "midi": 56,
          "name": "G#3",
          "ticks": 22080,
          "time": 25.090884,
          "velocity": 0.6850393700787402
        },
        {
          "duration": 0.9545445000000008,
          "durationTicks": 840,
          "midi": 61,
          "name": "C#4",
          "ticks": 22080,
          "time": 25.090884,
          "velocity": 0.7086614173228346
        },
        {
          "duration": 0.9454536000000004,
          "durationTicks": 832,
          "midi": 66,
          "name": "F#4",
          "ticks": 22080,
          "time": 25.090884,
          "velocity": 0.7086614173228346
        },
        {
          "duration": 0.2181816000000012,
          "durationTicks": 192,
          "midi": 37,
          "name": "C#2",
          "ticks": 22320,
          "time": 25.363611,
          "velocity": 0.7795275590551181
        },
        {
          "duration": 0.2181816000000012,
          "durationTicks": 192,
          "midi": 37,
          "name": "C#2",
          "ticks": 22560,
          "time": 25.636338,
          "velocity": 0.7007874015748031
        },
        {
          "duration": 0.10909080000000415,
          "durationTicks": 96,
          "midi": 37,
          "name": "C#2",
          "ticks": 22800,
          "time": 25.909065,
          "velocity": 0.7795275590551181
        },
        {
          "duration": 0.1090908000000006,
          "durationTicks": 96,
          "midi": 37,
          "name": "C#2",
          "ticks": 22920,
          "time": 26.0454285,
          "velocity": 0.6850393700787402
        },
        {
          "duration": 0.21818159999999764,
          "durationTicks": 192,
          "midi": 42,
          "name": "F#2",
          "ticks": 23040,
          "time": 26.181792,
          "velocity": 0.7637795275590551
        },
        {
          "duration": 0.9454536000000004,
          "durationTicks": 832,
          "midi": 57,
          "name": "A3",
          "ticks": 23040,
          "time": 26.181792,
          "velocity": 0.6850393700787402
        },
        {
          "duration": 0.9363627000000001,
          "durationTicks": 824,
          "midi": 61,
          "name": "C#4",
          "ticks": 23040,
          "time": 26.181792,
          "velocity": 0.7007874015748031
        },
        {
          "duration": 0.9454536000000004,
          "durationTicks": 832,
          "midi": 66,
          "name": "F#4",
          "ticks": 23040,
          "time": 26.181792,
          "velocity": 0.7795275590551181
        },
        {
          "duration": 0.21818159999999764,
          "durationTicks": 192,
          "midi": 42,
          "name": "F#2",
          "ticks": 23280,
          "time": 26.454519,
          "velocity": 0.7637795275590551
        },
        {
          "duration": 0.21818159999999764,
          "durationTicks": 192,
          "midi": 42,
          "name": "F#2",
          "ticks": 23520,
          "time": 26.727246,
          "velocity": 0.7086614173228346
        },
        {
          "duration": 0.1090908000000006,
          "durationTicks": 96,
          "midi": 42,
          "name": "F#2",
          "ticks": 23760,
          "time": 26.999973,
          "velocity": 0.7244094488188977
        },
        {
          "duration": 0.10909080000000415,
          "durationTicks": 96,
          "midi": 42,
          "name": "F#2",
          "ticks": 23880,
          "time": 27.1363365,
          "velocity": 0.7401574803149606
        },
        {
          "duration": 0.21818159999999764,
          "durationTicks": 192,
          "midi": 33,
          "name": "A1",
          "ticks": 24000,
          "time": 27.2727,
          "velocity": 0.7401574803149606
        },
        {
          "duration": 0.9545445000000008,
          "durationTicks": 840,
          "midi": 61,
          "name": "C#4",
          "ticks": 24000,
          "time": 27.2727,
          "velocity": 0.7401574803149606
        },
        {
          "duration": 0.9363627000000001,
          "durationTicks": 824,
          "midi": 64,
          "name": "E4",
          "ticks": 24000,
          "time": 27.2727,
          "velocity": 0.7165354330708661
        },
        {
          "duration": 0.9636353999999976,
          "durationTicks": 848,
          "midi": 69,
          "name": "A4",
          "ticks": 24000,
          "time": 27.2727,
          "velocity": 0.6929133858267716
        },
        {
          "duration": 0.21818159999999764,
          "durationTicks": 192,
          "midi": 33,
          "name": "A1",
          "ticks": 24240,
          "time": 27.545427,
          "velocity": 0.6929133858267716
        },
        {
          "duration": 0.21818159999999764,
          "durationTicks": 192,
          "midi": 33,
          "name": "A1",
          "ticks": 24480,
          "time": 27.818154,
          "velocity": 0.7007874015748031
        },
        {
          "duration": 0.21818159999999764,
          "durationTicks": 192,
          "midi": 33,
          "name": "A1",
          "ticks": 24720,
          "time": 28.090881,
          "velocity": 0.6929133858267716
        },
        {
          "duration": 0.2181816000000012,
          "durationTicks": 192,
          "midi": 38,
          "name": "D2",
          "ticks": 24960,
          "time": 28.363608,
          "velocity": 0.7716535433070866
        },
        {
          "duration": 0.40909050000000136,
          "durationTicks": 360,
          "midi": 57,
          "name": "A3",
          "ticks": 24960,
          "time": 28.363608,
          "velocity": 0.7637795275590551
        },
        {
          "duration": 0.41818139999999815,
          "durationTicks": 368,
          "midi": 62,
          "name": "D4",
          "ticks": 24960,
          "time": 28.363608,
          "velocity": 0.7559055118110236
        },
        {
          "duration": 0.3954541500000026,
          "durationTicks": 348,
          "midi": 66,
          "name": "F#4",
          "ticks": 24960,
          "time": 28.363608,
          "velocity": 0.7322834645669292
        },
        {
          "duration": 0.2181816000000012,
          "durationTicks": 192,
          "midi": 38,
          "name": "D2",
          "ticks": 25200,
          "time": 28.636335,
          "velocity": 0.6929133858267716
        },
        {
          "duration": 0.2181816000000012,
          "durationTicks": 192,
          "midi": 38,
          "name": "D2",
          "ticks": 25440,
          "time": 28.909062,
          "velocity": 0.7086614173228346
        },
        {
          "duration": 0.40909050000000136,
          "durationTicks": 360,
          "midi": 57,
          "name": "A3",
          "ticks": 25440,
          "time": 28.909062,
          "velocity": 0.7401574803149606
        },
        {
          "duration": 0.40909050000000136,
          "durationTicks": 360,
          "midi": 62,
          "name": "D4",
          "ticks": 25440,
          "time": 28.909062,
          "velocity": 0.6850393700787402
        },
        {
          "duration": 0.4181814000000017,
          "durationTicks": 368,
          "midi": 66,
          "name": "F#4",
          "ticks": 25440,
          "time": 28.909062,
          "velocity": 0.6929133858267716
        },
        {
          "duration": 0.10909080000000415,
          "durationTicks": 96,
          "midi": 38,
          "name": "D2",
          "ticks": 25680,
          "time": 29.181789,
          "velocity": 0.7086614173228346
        },
        {
          "duration": 0.1090908000000006,
          "durationTicks": 96,
          "midi": 38,
          "name": "D2",
          "ticks": 25800,
          "time": 29.3181525,
          "velocity": 0.7716535433070866
        },
        {
          "duration": 0.2181816000000012,
          "durationTicks": 192,
          "midi": 38,
          "name": "D2",
          "ticks": 25920,
          "time": 29.454515999999998,
          "velocity": 0.7795275590551181
        },
        {
          "duration": 0.40909050000000136,
          "durationTicks": 360,
          "midi": 57,
          "name": "A3",
          "ticks": 25920,
          "time": 29.454515999999998,
          "velocity": 0.7795275590551181
        },
        {
          "duration": 0.3954541500000026,
          "durationTicks": 348,
          "midi": 62,
          "name": "D4",
          "ticks": 25920,
          "time": 29.454515999999998,
          "velocity": 0.7637795275590551
        },
        {
          "duration": 0.3954541500000026,
          "durationTicks": 348,
          "midi": 66,
          "name": "F#4",
          "ticks": 25920,
          "time": 29.454515999999998,
          "velocity": 0.7559055118110236
        },
        {
          "duration": 0.21818159999999764,
          "durationTicks": 192,
          "midi": 38,
          "name": "D2",
          "ticks": 26160,
          "time": 29.727243,
          "velocity": 0.7165354330708661
        },
        {
          "duration": 0.21818159999999764,
          "durationTicks": 192,
          "midi": 38,
          "name": "D2",
          "ticks": 26400,
          "time": 29.99997,
          "velocity": 0.6614173228346457
        },
        {
          "duration": 0.4090904999999978,
          "durationTicks": 360,
          "midi": 57,
          "name": "A3",
          "ticks": 26400,
          "time": 29.99997,
          "velocity": 0.7007874015748031
        },
        {
          "duration": 0.4090904999999978,
          "durationTicks": 360,
          "midi": 62,
          "name": "D4",
          "ticks": 26400,
          "time": 29.99997,
          "velocity": 0.7401574803149606
        },
        {
          "duration": 0.4090904999999978,
          "durationTicks": 360,
          "midi": 66,
          "name": "F#4",
          "ticks": 26400,
          "time": 29.99997,
          "velocity": 0.7637795275590551
        },
        {
          "duration": 0.1090908000000006,
          "durationTicks": 96,
          "midi": 38,
          "name": "D2",
          "ticks": 26640,
          "time": 30.272697,
          "velocity": 0.7716535433070866
        },
        {
          "duration": 0.1090908000000006,
          "durationTicks": 96,
          "midi": 38,
          "name": "D2",
          "ticks": 26760,
          "time": 30.4090605,
          "velocity": 0.7716535433070866
        },
        {
          "duration": 0.21818159999999764,
          "durationTicks": 192,
          "midi": 40,
          "name": "E2",
          "ticks": 26880,
          "time": 30.545424,
          "velocity": 0.7637795275590551
        },
        {
          "duration": 1.249998749999996,
          "durationTicks": 1100,
          "midi": 59,
          "name": "B3",
          "ticks": 26880,
          "time": 30.545424,
          "velocity": 0.7244094488188977
        },
        {
          "duration": 1.249998749999996,
          "durationTicks": 1100,
          "midi": 64,
          "name": "E4",
          "ticks": 26880,
          "time": 30.545424,
          "velocity": 0.7165354330708661
        },
        {
          "duration": 1.2590896499999964,
          "durationTicks": 1108,
          "midi": 68,
          "name": "G#4",
          "ticks": 26880,
          "time": 30.545424,
          "velocity": 0.7322834645669292
        },
        {
          "duration": 0.21818159999999764,
          "durationTicks": 192,
          "midi": 40,
          "name": "E2",
          "ticks": 27120,
          "time": 30.818151,
          "velocity": 0.6850393700787402
        },
        {
          "duration": 0.21818159999999764,
          "durationTicks": 192,
          "midi": 40,
          "name": "E2",
          "ticks": 27360,
          "time": 31.090878,
          "velocity": 0.6692913385826772
        },
        {
          "duration": 0.21818159999999764,
          "durationTicks": 192,
          "midi": 40,
          "name": "E2",
          "ticks": 27600,
          "time": 31.363605,
          "velocity": 0.6535433070866141
        },
        {
          "duration": 0.2181816000000012,
          "durationTicks": 192,
          "midi": 40,
          "name": "E2",
          "ticks": 27840,
          "time": 31.636332,
          "velocity": 0.7322834645669292
        },
        {
          "duration": 0.2181816000000012,
          "durationTicks": 192,
          "midi": 40,
          "name": "E2",
          "ticks": 28080,
          "time": 31.909059,
          "velocity": 0.7322834645669292
        },
        {
          "duration": 0.2181816000000012,
          "durationTicks": 192,
          "midi": 59,
          "name": "B3",
          "ticks": 28080,
          "time": 31.909059,
          "velocity": 0.7086614173228346
        },
        {
          "duration": 0.2181816000000012,
          "durationTicks": 192,
          "midi": 64,
          "name": "E4",
          "ticks": 28080,
          "time": 31.909059,
          "velocity": 0.7559055118110236
        },
        {
          "duration": 0.2181816000000012,
          "durationTicks": 192,
          "midi": 68,
          "name": "G#4",
          "ticks": 28080,
          "time": 31.909059,
          "velocity": 0.7637795275590551
        },
        {
          "duration": 0.2181815999999941,
          "durationTicks": 192,
          "midi": 40,
          "name": "E2",
          "ticks": 28320,
          "time": 32.181786,
          "velocity": 0.6535433070866141
        },
        {
          "duration": 0.2181815999999941,
          "durationTicks": 192,
          "midi": 59,
          "name": "B3",
          "ticks": 28320,
          "time": 32.181786,
          "velocity": 0.7716535433070866
        },
        {
          "duration": 0.2181815999999941,
          "durationTicks": 192,
          "midi": 64,
          "name": "E4",
          "ticks": 28320,
          "time": 32.181786,
          "velocity": 0.6850393700787402
        },
        {
          "duration": 0.2181815999999941,
          "durationTicks": 192,
          "midi": 68,
          "name": "G#4",
          "ticks": 28320,
          "time": 32.181786,
          "velocity": 0.7795275590551181
        },
        {
          "duration": 0.2181816000000012,
          "durationTicks": 192,
          "midi": 40,
          "name": "E2",
          "ticks": 28560,
          "time": 32.454513,
          "velocity": 0.7086614173228346
        },
        {
          "duration": 0.2181816000000012,
          "durationTicks": 192,
          "midi": 59,
          "name": "B3",
          "ticks": 28560,
          "time": 32.454513,
          "velocity": 0.7795275590551181
        },
        {
          "duration": 0.2181816000000012,
          "durationTicks": 192,
          "midi": 64,
          "name": "E4",
          "ticks": 28560,
          "time": 32.454513,
          "velocity": 0.6929133858267716
        },
        {
          "duration": 0.2181816000000012,
          "durationTicks": 192,
          "midi": 68,
          "name": "G#4",
          "ticks": 28560,
          "time": 32.454513,
          "velocity": 0.7637795275590551
        },
        {
          "duration": 0.2181815999999941,
          "durationTicks": 192,
          "midi": 33,
          "name": "A1",
          "ticks": 28800,
          "time": 32.72724,
          "velocity": 0.7637795275590551
        },
        {
          "duration": 0.4181813999999946,
          "durationTicks": 368,
          "midi": 57,
          "name": "A3",
          "ticks": 28800,
          "time": 32.72724,
          "velocity": 0.7795275590551181
        },
        {
          "duration": 0.4181813999999946,
          "durationTicks": 368,
          "midi": 61,
          "name": "C#4",
          "ticks": 28800,
          "time": 32.72724,
          "velocity": 0.7716535433070866
        },
        {
          "duration": 0.4181813999999946,
          "durationTicks": 368,
          "midi": 64,
          "name": "E4",
          "ticks": 28800,
          "time": 32.72724,
          "velocity": 0.7480314960629921
        },
        {
          "duration": 0.2181816000000012,
          "durationTicks": 192,
          "midi": 33,
          "name": "A1",
          "ticks": 29040,
          "time": 32.999967,
          "velocity": 0.7795275590551181
        },
        {
          "duration": 0.2181815999999941,
          "durationTicks": 192,
          "midi": 33,
          "name": "A1",
          "ticks": 29280,
          "time": 33.272694,
          "velocity": 0.7322834645669292
        },
        {
          "duration": 0.4090904999999978,
          "durationTicks": 360,
          "midi": 57,
          "name": "A3",
          "ticks": 29280,
          "time": 33.272694,
          "velocity": 0.7244094488188977
        },
        {
          "duration": 0.4090904999999978,
          "durationTicks": 360,
          "midi": 61,
          "name": "C#4",
          "ticks": 29280,
          "time": 33.272694,
          "velocity": 0.7559055118110236
        },
        {
          "duration": 0.4090904999999978,
          "durationTicks": 360,
          "midi": 66,
          "name": "F#4",
          "ticks": 29280,
          "time": 33.272694,
          "velocity": 0.7795275590551181
        },
        {
          "duration": 0.2181816000000012,
          "durationTicks": 192,
          "midi": 33,
          "name": "A1",
          "ticks": 29520,
          "time": 33.545421,
          "velocity": 0.7086614173228346
        },
        {
          "duration": 0.2181816000000012,
          "durationTicks": 192,
          "midi": 33,
          "name": "A1",
          "ticks": 29760,
          "time": 33.818148,
          "velocity": 0.7401574803149606
        },
        {
          "duration": 0.4090904999999978,
          "durationTicks": 360,
          "midi": 57,
          "name": "A3",
          "ticks": 29760,
          "time": 33.818148,
          "velocity": 0.7007874015748031
        },
        {
          "duration": 0.4090904999999978,
          "durationTicks": 360,
          "midi": 61,
          "name": "C#4",
          "ticks": 29760,
          "time": 33.818148,
          "velocity": 0.7322834645669292
        },
        {
          "duration": 0.4090904999999978,
          "durationTicks": 360,
          "midi": 64,
          "name": "E4",
          "ticks": 29760,
          "time": 33.818148,
          "velocity": 0.7559055118110236
        },
        {
          "duration": 0.2181816000000012,
          "durationTicks": 192,
          "midi": 33,
          "name": "A1",
          "ticks": 30000,
          "time": 34.090875,
          "velocity": 0.7716535433070866
        },
        {
          "duration": 0.2181816000000012,
          "durationTicks": 192,
          "midi": 33,
          "name": "A1",
          "ticks": 30240,
          "time": 34.363602,
          "velocity": 0.7401574803149606
        },
        {
          "duration": 0.4181814000000017,
          "durationTicks": 368,
          "midi": 57,
          "name": "A3",
          "ticks": 30240,
          "time": 34.363602,
          "velocity": 0.7559055118110236
        },
        {
          "duration": 0.4090904999999978,
          "durationTicks": 360,
          "midi": 61,
          "name": "C#4",
          "ticks": 30240,
          "time": 34.363602,
          "velocity": 0.7165354330708661
        },
        {
          "duration": 0.4090904999999978,
          "durationTicks": 360,
          "midi": 66,
          "name": "F#4",
          "ticks": 30240,
          "time": 34.363602,
          "velocity": 0.7165354330708661
        },
        {
          "duration": 0.10909080000000415,
          "durationTicks": 96,
          "midi": 33,
          "name": "A1",
          "ticks": 30480,
          "time": 34.636328999999996,
          "velocity": 0.7716535433070866
        },
        {
          "duration": 0.10909080000000415,
          "durationTicks": 96,
          "midi": 33,
          "name": "A1",
          "ticks": 30600,
          "time": 34.7726925,
          "velocity": 0.7007874015748031
        },
        {
          "duration": 0.2181816000000012,
          "durationTicks": 192,
          "midi": 30,
          "name": "F#1",
          "ticks": 30720,
          "time": 34.909056,
          "velocity": 0.7086614173228346
        },
        {
          "duration": 0.4090904999999978,
          "durationTicks": 360,
          "midi": 57,
          "name": "A3",
          "ticks": 30720,
          "time": 34.909056,
          "velocity": 0.7480314960629921
        },
        {
          "duration": 0.4090904999999978,
          "durationTicks": 360,
          "midi": 61,
          "name": "C#4",
          "ticks": 30720,
          "time": 34.909056,
          "velocity": 0.7322834645669292
        },
        {
          "duration": 0.4090904999999978,
          "durationTicks": 360,
          "midi": 64,
          "name": "E4",
          "ticks": 30720,
          "time": 34.909056,
          "velocity": 0.7086614173228346
        },
        {
          "duration": 0.2181816000000012,
          "durationTicks": 192,
          "midi": 30,
          "name": "F#1",
          "ticks": 30960,
          "time": 35.181783,
          "velocity": 0.7716535433070866
        },
        {
          "duration": 0.2181816000000012,
          "durationTicks": 192,
          "midi": 30,
          "name": "F#1",
          "ticks": 31200,
          "time": 35.45451,
          "velocity": 0.7637795275590551
        },
        {
          "duration": 0.4090904999999978,
          "durationTicks": 360,
          "midi": 57,
          "name": "A3",
          "ticks": 31200,
          "time": 35.45451,
          "velocity": 0.7401574803149606
        },
        {
          "duration": 0.4090904999999978,
          "durationTicks": 360,
          "midi": 61,
          "name": "C#4",
          "ticks": 31200,
          "time": 35.45451,
          "velocity": 0.7086614173228346
        },
        {
          "duration": 0.4090904999999978,
          "durationTicks": 360,
          "midi": 66,
          "name": "F#4",
          "ticks": 31200,
          "time": 35.45451,
          "velocity": 0.6929133858267716
        },
        {
          "duration": 0.2181816000000012,
          "durationTicks": 192,
          "midi": 30,
          "name": "F#1",
          "ticks": 31440,
          "time": 35.727237,
          "velocity": 0.7086614173228346
        },
        {
          "duration": 0.2181816000000012,
          "durationTicks": 192,
          "midi": 30,
          "name": "F#1",
          "ticks": 31680,
          "time": 35.999964,
          "velocity": 0.7322834645669292
        },
        {
          "duration": 0.4090904999999978,
          "durationTicks": 360,
          "midi": 57,
          "name": "A3",
          "ticks": 31680,
          "time": 35.999964,
          "velocity": 0.7637795275590551
        },
        {
          "duration": 0.38636324999999516,
          "durationTicks": 340,
          "midi": 61,
          "name": "C#4",
          "ticks": 31680,
          "time": 35.999964,
          "velocity": 0.6377952755905512
        },
        {
          "duration": 0.4090904999999978,
          "durationTicks": 360,
          "midi": 64,
          "name": "E4",
          "ticks": 31680,
          "time": 35.999964,
          "velocity": 0.7716535433070866
        },
        {
          "duration": 0.2181816000000012,
          "durationTicks": 192,
          "midi": 30,
          "name": "F#1",
          "ticks": 31920,
          "time": 36.272691,
          "velocity": 0.6850393700787402
        },
        {
          "duration": 0.2181816000000083,
          "durationTicks": 192,
          "midi": 30,
          "name": "F#1",
          "ticks": 32160,
          "time": 36.545418,
          "velocity": 0.7007874015748031
        },
        {
          "duration": 0.4181814000000017,
          "durationTicks": 368,
          "midi": 57,
          "name": "A3",
          "ticks": 32160,
          "time": 36.545418,
          "velocity": 0.6850393700787402
        },
        {
          "duration": 0.4181814000000017,
          "durationTicks": 368,
          "midi": 61,
          "name": "C#4",
          "ticks": 32160,
          "time": 36.545418,
          "velocity": 0.6614173228346457
        },
        {
          "duration": 0.4181814000000017,
          "durationTicks": 368,
          "midi": 66,
          "name": "F#4",
          "ticks": 32160,
          "time": 36.545418,
          "velocity": 0.7244094488188977
        },
        {
          "duration": 0.2181816000000012,
          "durationTicks": 192,
          "midi": 30,
          "name": "F#1",
          "ticks": 32400,
          "time": 36.818145,
          "velocity": 0.7165354330708661
        },
        {
          "duration": 0.2181816000000083,
          "durationTicks": 192,
          "midi": 38,
          "name": "D2",
          "ticks": 32640,
          "time": 37.090872,
          "velocity": 0.6456692913385826
        },
        {
          "duration": 0.4090905000000049,
          "durationTicks": 360,
          "midi": 57,
          "name": "A3",
          "ticks": 32640,
          "time": 37.090872,
          "velocity": 0.7244094488188977
        },
        {
          "duration": 0.4090905000000049,
          "durationTicks": 360,
          "midi": 62,
          "name": "D4",
          "ticks": 32640,
          "time": 37.090872,
          "velocity": 0.7165354330708661
        },
        {
          "duration": 0.4090905000000049,
          "durationTicks": 360,
          "midi": 66,
          "name": "F#4",
          "ticks": 32640,
          "time": 37.090872,
          "velocity": 0.7637795275590551
        },
        {
          "duration": 0.2181816000000012,
          "durationTicks": 192,
          "midi": 38,
          "name": "D2",
          "ticks": 32880,
          "time": 37.363599,
          "velocity": 0.7637795275590551
        },
        {
          "duration": 0.2181816000000083,
          "durationTicks": 192,
          "midi": 38,
          "name": "D2",
          "ticks": 33120,
          "time": 37.636326,
          "velocity": 0.7716535433070866
        },
        {
          "duration": 0.28181790000000007,
          "durationTicks": 248,
          "midi": 57,
          "name": "A3",
          "ticks": 33120,
          "time": 37.636326,
          "velocity": 0.6456692913385826
        },
        {
          "duration": 0.2954542500000059,
          "durationTicks": 260,
          "midi": 62,
          "name": "D4",
          "ticks": 33120,
          "time": 37.636326,
          "velocity": 0.7086614173228346
        },
        {
          "duration": 0.28181790000000007,
          "durationTicks": 248,
          "midi": 66,
          "name": "F#4",
          "ticks": 33120,
          "time": 37.636326,
          "velocity": 0.7401574803149606
        },
        {
          "duration": 0.10909080000000415,
          "durationTicks": 96,
          "midi": 38,
          "name": "D2",
          "ticks": 33360,
          "time": 37.909053,
          "velocity": 0.7401574803149606
        },
        {
          "duration": 0.10909079999999705,
          "durationTicks": 96,
          "midi": 57,
          "name": "A3",
          "ticks": 33480,
          "time": 38.0454165,
          "velocity": 0.7795275590551181
        },
        {
          "duration": 0.10909079999999705,
          "durationTicks": 96,
          "midi": 62,
          "name": "D4",
          "ticks": 33480,
          "time": 38.0454165,
          "velocity": 0.7165354330708661
        },
        {
          "duration": 0.10909079999999705,
          "durationTicks": 96,
          "midi": 66,
          "name": "F#4",
          "ticks": 33480,
          "time": 38.0454165,
          "velocity": 0.6377952755905512
        },
        {
          "duration": 0.2181816000000083,
          "durationTicks": 192,
          "midi": 38,
          "name": "D2",
          "ticks": 33600,
          "time": 38.181779999999996,
          "velocity": 0.7559055118110236
        },
        {
          "duration": 0.39545414999999906,
          "durationTicks": 348,
          "midi": 57,
          "name": "A3",
          "ticks": 33600,
          "time": 38.181779999999996,
          "velocity": 0.7322834645669292
        },
        {
          "duration": 0.4090905000000049,
          "durationTicks": 360,
          "midi": 62,
          "name": "D4",
          "ticks": 33600,
          "time": 38.181779999999996,
          "velocity": 0.7086614173228346
        },
        {
          "duration": 0.4181814000000017,
          "durationTicks": 368,
          "midi": 66,
          "name": "F#4",
          "ticks": 33600,
          "time": 38.181779999999996,
          "velocity": 0.7480314960629921
        },
        {
          "duration": 0.2181816000000012,
          "durationTicks": 192,
          "midi": 38,
          "name": "D2",
          "ticks": 33840,
          "time": 38.454507,
          "velocity": 0.7559055118110236
        },
        {
          "duration": 0.2181816000000012,
          "durationTicks": 192,
          "midi": 38,
          "name": "D2",
          "ticks": 34080,
          "time": 38.727234,
          "velocity": 0.7322834645669292
        },
        {
          "duration": 0.4090904999999978,
          "durationTicks": 360,
          "midi": 57,
          "name": "A3",
          "ticks": 34080,
          "time": 38.727234,
          "velocity": 0.7401574803149606
        },
        {
          "duration": 0.4090904999999978,
          "durationTicks": 360,
          "midi": 62,
          "name": "D4",
          "ticks": 34080,
          "time": 38.727234,
          "velocity": 0.7401574803149606
        },
        {
          "duration": 0.39545414999999196,
          "durationTicks": 348,
          "midi": 66,
          "name": "F#4",
          "ticks": 34080,
          "time": 38.727234,
          "velocity": 0.6692913385826772
        },
        {
          "duration": 0.10909080000000415,
          "durationTicks": 96,
          "midi": 33,
          "name": "A1",
          "ticks": 34320,
          "time": 38.999961,
          "velocity": 0.7637795275590551
        },
        {
          "duration": 0.10909079999999705,
          "durationTicks": 96,
          "midi": 33,
          "name": "A1",
          "ticks": 34440,
          "time": 39.1363245,
          "velocity": 0.7007874015748031
        },
        {
          "duration": 0.2181816000000012,
          "durationTicks": 192,
          "midi": 38,
          "name": "D2",
          "ticks": 34560,
          "time": 39.272688,
          "velocity": 0.6692913385826772
        },
        {
          "duration": 0.4090904999999978,
          "durationTicks": 360,
          "midi": 57,
          "name": "A3",
          "ticks": 34560,
          "time": 39.272688,
          "velocity": 0.7480314960629921
        },
        {
          "duration": 0.4181813999999946,
          "durationTicks": 368,
          "midi": 62,
          "name": "D4",
          "ticks": 34560,
          "time": 39.272688,
          "velocity": 0.7559055118110236
        },
        {
          "duration": 0.4090904999999978,
          "durationTicks": 360,
          "midi": 66,
          "name": "F#4",
          "ticks": 34560,
          "time": 39.272688,
          "velocity": 0.6692913385826772
        },
        {
          "duration": 0.2181816000000012,
          "durationTicks": 192,
          "midi": 38,
          "name": "D2",
          "ticks": 34800,
          "time": 39.545415,
          "velocity": 0.7086614173228346
        },
        {
          "duration": 0.2181816000000012,
          "durationTicks": 192,
          "midi": 38,
          "name": "D2",
          "ticks": 35040,
          "time": 39.818142,
          "velocity": 0.6692913385826772
        },
        {
          "duration": 0.3045451500000027,
          "durationTicks": 268,
          "midi": 57,
          "name": "A3",
          "ticks": 35040,
          "time": 39.818142,
          "velocity": 0.6692913385826772
        },
        {
          "duration": 0.28181790000000007,
          "durationTicks": 248,
          "midi": 62,
          "name": "D4",
          "ticks": 35040,
          "time": 39.818142,
          "velocity": 0.7322834645669292
        },
        {
          "duration": 0.28181790000000007,
          "durationTicks": 248,
          "midi": 66,
          "name": "F#4",
          "ticks": 35040,
          "time": 39.818142,
          "velocity": 0.7401574803149606
        },
        {
          "duration": 0.10909080000000415,
          "durationTicks": 96,
          "midi": 38,
          "name": "D2",
          "ticks": 35280,
          "time": 40.090869,
          "velocity": 0.7322834645669292
        },
        {
          "duration": 0.10909080000000415,
          "durationTicks": 96,
          "midi": 57,
          "name": "A3",
          "ticks": 35400,
          "time": 40.2272325,
          "velocity": 0.6850393700787402
        },
        {
          "duration": 0.10909080000000415,
          "durationTicks": 96,
          "midi": 62,
          "name": "D4",
          "ticks": 35400,
          "time": 40.2272325,
          "velocity": 0.7322834645669292
        },
        {
          "duration": 0.10909080000000415,
          "durationTicks": 96,
          "midi": 66,
          "name": "F#4",
          "ticks": 35400,
          "time": 40.2272325,
          "velocity": 0.6929133858267716
        },
        {
          "duration": 0.2181816000000012,
          "durationTicks": 192,
          "midi": 38,
          "name": "D2",
          "ticks": 35520,
          "time": 40.363596,
          "velocity": 0.7637795275590551
        },
        {
          "duration": 0.4181813999999946,
          "durationTicks": 368,
          "midi": 57,
          "name": "A3",
          "ticks": 35520,
          "time": 40.363596,
          "velocity": 0.7480314960629921
        },
        {
          "duration": 0.4181813999999946,
          "durationTicks": 368,
          "midi": 62,
          "name": "D4",
          "ticks": 35520,
          "time": 40.363596,
          "velocity": 0.6614173228346457
        },
        {
          "duration": 0.4272722999999985,
          "durationTicks": 376,
          "midi": 66,
          "name": "F#4",
          "ticks": 35520,
          "time": 40.363596,
          "velocity": 0.6692913385826772
        },
        {
          "duration": 0.2181816000000083,
          "durationTicks": 192,
          "midi": 33,
          "name": "A1",
          "ticks": 35760,
          "time": 40.636323,
          "velocity": 0.7559055118110236
        },
        {
          "duration": 0.2181816000000012,
          "durationTicks": 192,
          "midi": 38,
          "name": "D2",
          "ticks": 36000,
          "time": 40.90905,
          "velocity": 0.7637795275590551
        },
        {
          "duration": 0.4181814000000017,
          "durationTicks": 368,
          "midi": 57,
          "name": "A3",
          "ticks": 36000,
          "time": 40.90905,
          "velocity": 0.6377952755905512
        },
        {
          "duration": 0.4090904999999978,
          "durationTicks": 360,
          "midi": 62,
          "name": "D4",
          "ticks": 36000,
          "time": 40.90905,
          "velocity": 0.7322834645669292
        },
        {
          "duration": 0.39545414999999906,
          "durationTicks": 348,
          "midi": 66,
          "name": "F#4",
          "ticks": 36000,
          "time": 40.90905,
          "velocity": 0.7559055118110236
        },
        {
          "duration": 0.2181816000000083,
          "durationTicks": 192,
          "midi": 38,
          "name": "D2",
          "ticks": 36240,
          "time": 41.181777,
          "velocity": 0.7716535433070866
        },
        {
          "duration": 0.2181816000000012,
          "durationTicks": 192,
          "midi": 33,
          "name": "A1",
          "ticks": 36480,
          "time": 41.454504,
          "velocity": 0.7007874015748031
        },
        {
          "duration": 0.9545444999999972,
          "durationTicks": 840,
          "midi": 57,
          "name": "A3",
          "ticks": 36480,
          "time": 41.454504,
          "velocity": 0.7795275590551181
        },
        {
          "duration": 0.9636354000000011,
          "durationTicks": 848,
          "midi": 61,
          "name": "C#4",
          "ticks": 36480,
          "time": 41.454504,
          "velocity": 0.7480314960629921
        },
        {
          "duration": 0.9545444999999972,
          "durationTicks": 840,
          "midi": 64,
          "name": "E4",
          "ticks": 36480,
          "time": 41.454504,
          "velocity": 0.7086614173228346
        },
        {
          "duration": 0.2181816000000083,
          "durationTicks": 192,
          "midi": 33,
          "name": "A1",
          "ticks": 36720,
          "time": 41.727230999999996,
          "velocity": 0.7244094488188977
        },
        {
          "duration": 0.2181816000000012,
          "durationTicks": 192,
          "midi": 33,
          "name": "A1",
          "ticks": 36960,
          "time": 41.999958,
          "velocity": 0.7559055118110236
        },
        {
          "duration": 0.10909079999999705,
          "durationTicks": 96,
          "midi": 33,
          "name": "A1",
          "ticks": 37200,
          "time": 42.272685,
          "velocity": 0.6771653543307087
        },
        {
          "duration": 0.10909080000000415,
          "durationTicks": 96,
          "midi": 33,
          "name": "A1",
          "ticks": 37320,
          "time": 42.4090485,
          "velocity": 0.7637795275590551
        },
        {
          "duration": 0.2181816000000012,
          "durationTicks": 192,
          "midi": 37,
          "name": "C#2",
          "ticks": 37440,
          "time": 42.545412,
          "velocity": 0.7401574803149606
        },
        {
          "duration": 0.9545444999999972,
          "durationTicks": 840,
          "midi": 56,
          "name": "G#3",
          "ticks": 37440,
          "time": 42.545412,
          "velocity": 0.6850393700787402
        },
        {
          "duration": 0.9545444999999972,
          "durationTicks": 840,
          "midi": 61,
          "name": "C#4",
          "ticks": 37440,
          "time": 42.545412,
          "velocity": 0.7637795275590551
        },
        {
          "duration": 0.9454536000000004,
          "durationTicks": 832,
          "midi": 66,
          "name": "F#4",
          "ticks": 37440,
          "time": 42.545412,
          "velocity": 0.6850393700787402
        },
        {
          "duration": 0.2181816000000012,
          "durationTicks": 192,
          "midi": 37,
          "name": "C#2",
          "ticks": 37680,
          "time": 42.818139,
          "velocity": 0.7165354330708661
        },
        {
          "duration": 0.2181816000000012,
          "durationTicks": 192,
          "midi": 37,
          "name": "C#2",
          "ticks": 37920,
          "time": 43.090866,
          "velocity": 0.7716535433070866
        },
        {
          "duration": 0.10909079999999705,
          "durationTicks": 96,
          "midi": 37,
          "name": "C#2",
          "ticks": 38160,
          "time": 43.363593,
          "velocity": 0.7007874015748031
        },
        {
          "duration": 0.10909080000000415,
          "durationTicks": 96,
          "midi": 37,
          "name": "C#2",
          "ticks": 38280,
          "time": 43.499956499999996,
          "velocity": 0.7007874015748031
        },
        {
          "duration": 0.2181816000000083,
          "durationTicks": 192,
          "midi": 42,
          "name": "F#2",
          "ticks": 38400,
          "time": 43.63632,
          "velocity": 0.7559055118110236
        },
        {
          "duration": 0.9454536000000004,
          "durationTicks": 832,
          "midi": 57,
          "name": "A3",
          "ticks": 38400,
          "time": 43.63632,
          "velocity": 0.7007874015748031
        },
        {
          "duration": 0.9363627000000037,
          "durationTicks": 824,
          "midi": 61,
          "name": "C#4",
          "ticks": 38400,
          "time": 43.63632,
          "velocity": 0.7795275590551181
        },
        {
          "duration": 0.9454536000000004,
          "durationTicks": 832,
          "midi": 66,
          "name": "F#4",
          "ticks": 38400,
          "time": 43.63632,
          "velocity": 0.6614173228346457
        },
        {
          "duration": 0.2181816000000012,
          "durationTicks": 192,
          "midi": 42,
          "name": "F#2",
          "ticks": 38640,
          "time": 43.909047,
          "velocity": 0.7165354330708661
        },
        {
          "duration": 0.2181816000000083,
          "durationTicks": 192,
          "midi": 42,
          "name": "F#2",
          "ticks": 38880,
          "time": 44.181774,
          "velocity": 0.7637795275590551
        },
        {
          "duration": 0.10909080000000415,
          "durationTicks": 96,
          "midi": 42,
          "name": "F#2",
          "ticks": 39120,
          "time": 44.454501,
          "velocity": 0.6771653543307087
        },
        {
          "duration": 0.10909079999999705,
          "durationTicks": 96,
          "midi": 42,
          "name": "F#2",
          "ticks": 39240,
          "time": 44.5908645,
          "velocity": 0.7401574803149606
        },
        {
          "duration": 0.2181816000000083,
          "durationTicks": 192,
          "midi": 33,
          "name": "A1",
          "ticks": 39360,
          "time": 44.727228,
          "velocity": 0.7716535433070866
        },
        {
          "duration": 0.9545445000000043,
          "durationTicks": 840,
          "midi": 61,
          "name": "C#4",
          "ticks": 39360,
          "time": 44.727228,
          "velocity": 0.7480314960629921
        },
        {
          "duration": 0.9363627000000037,
          "durationTicks": 824,
          "midi": 64,
          "name": "E4",
          "ticks": 39360,
          "time": 44.727228,
          "velocity": 0.7637795275590551
        },
        {
          "duration": 0.9636354000000011,
          "durationTicks": 848,
          "midi": 69,
          "name": "A4",
          "ticks": 39360,
          "time": 44.727228,
          "velocity": 0.6850393700787402
        },
        {
          "duration": 0.2181816000000012,
          "durationTicks": 192,
          "midi": 33,
          "name": "A1",
          "ticks": 39600,
          "time": 44.999955,
          "velocity": 0.7559055118110236
        },
        {
          "duration": 0.2181816000000083,
          "durationTicks": 192,
          "midi": 33,
          "name": "A1",
          "ticks": 39840,
          "time": 45.272681999999996,
          "velocity": 0.7322834645669292
        },
        {
          "duration": 0.2181816000000012,
          "durationTicks": 192,
          "midi": 33,
          "name": "A1",
          "ticks": 40080,
          "time": 45.545409,
          "velocity": 0.7086614173228346
        },
        {
          "duration": 0.2181816000000012,
          "durationTicks": 192,
          "midi": 38,
          "name": "D2",
          "ticks": 40320,
          "time": 45.818136,
          "velocity": 0.7165354330708661
        },
        {
          "duration": 0.4090904999999978,
          "durationTicks": 360,
          "midi": 57,
          "name": "A3",
          "ticks": 40320,
          "time": 45.818136,
          "velocity": 0.7480314960629921
        },
        {
          "duration": 0.4181813999999946,
          "durationTicks": 368,
          "midi": 62,
          "name": "D4",
          "ticks": 40320,
          "time": 45.818136,
          "velocity": 0.7716535433070866
        },
        {
          "duration": 0.4090904999999978,
          "durationTicks": 360,
          "midi": 66,
          "name": "F#4",
          "ticks": 40320,
          "time": 45.818136,
          "velocity": 0.7795275590551181
        },
        {
          "duration": 0.2181816000000012,
          "durationTicks": 192,
          "midi": 38,
          "name": "D2",
          "ticks": 40560,
          "time": 46.090863,
          "velocity": 0.7322834645669292
        },
        {
          "duration": 0.2181816000000012,
          "durationTicks": 192,
          "midi": 38,
          "name": "D2",
          "ticks": 40800,
          "time": 46.36359,
          "velocity": 0.7244094488188977
        },
        {
          "duration": 0.4090904999999978,
          "durationTicks": 360,
          "midi": 57,
          "name": "A3",
          "ticks": 40800,
          "time": 46.36359,
          "velocity": 0.7086614173228346
        },
        {
          "duration": 0.4090904999999978,
          "durationTicks": 360,
          "midi": 62,
          "name": "D4",
          "ticks": 40800,
          "time": 46.36359,
          "velocity": 0.7637795275590551
        },
        {
          "duration": 0.4090904999999978,
          "durationTicks": 360,
          "midi": 66,
          "name": "F#4",
          "ticks": 40800,
          "time": 46.36359,
          "velocity": 0.7795275590551181
        },
        {
          "duration": 0.10909080000000415,
          "durationTicks": 96,
          "midi": 37,
          "name": "C#2",
          "ticks": 41040,
          "time": 46.636317,
          "velocity": 0.7322834645669292
        },
        {
          "duration": 0.10909080000000415,
          "durationTicks": 96,
          "midi": 37,
          "name": "C#2",
          "ticks": 41160,
          "time": 46.7726805,
          "velocity": 0.7007874015748031
        },
        {
          "duration": 0.2181816000000012,
          "durationTicks": 192,
          "midi": 35,
          "name": "B1",
          "ticks": 41280,
          "time": 46.909044,
          "velocity": 0.7559055118110236
        },
        {
          "duration": 0.963635399999994,
          "durationTicks": 848,
          "midi": 57,
          "name": "A3",
          "ticks": 41280,
          "time": 46.909044,
          "velocity": 0.7795275590551181
        },
        {
          "duration": 0.963635399999994,
          "durationTicks": 848,
          "midi": 62,
          "name": "D4",
          "ticks": 41280,
          "time": 46.909044,
          "velocity": 0.6850393700787402
        },
        {
          "duration": 0.9545444999999972,
          "durationTicks": 840,
          "midi": 66,
          "name": "F#4",
          "ticks": 41280,
          "time": 46.909044,
          "velocity": 0.7637795275590551
        },
        {
          "duration": 0.2181816000000083,
          "durationTicks": 192,
          "midi": 35,
          "name": "B1",
          "ticks": 41520,
          "time": 47.181771,
          "velocity": 0.7637795275590551
        },
        {
          "duration": 0.2181816000000012,
          "durationTicks": 192,
          "midi": 35,
          "name": "B1",
          "ticks": 41760,
          "time": 47.454498,
          "velocity": 0.7637795275590551
        },
        {
          "duration": 0.10909080000000415,
          "durationTicks": 96,
          "midi": 35,
          "name": "B1",
          "ticks": 42000,
          "time": 47.727225,
          "velocity": 0.7637795275590551
        },
        {
          "duration": 0.10909080000000415,
          "durationTicks": 96,
          "midi": 35,
          "name": "B1",
          "ticks": 42120,
          "time": 47.8635885,
          "velocity": 0.7637795275590551
        },
        {
          "duration": 0.2181816000000012,
          "durationTicks": 192,
          "midi": 40,
          "name": "E2",
          "ticks": 42240,
          "time": 47.999952,
          "velocity": 0.7244094488188977
        },
        {
          "duration": 2.0545434,
          "durationTicks": 1808,
          "midi": 57,
          "name": "A3",
          "ticks": 42240,
          "time": 47.999952,
          "velocity": 0.7086614173228346
        },
        {
          "duration": 2.0545434,
          "durationTicks": 1808,
          "midi": 62,
          "name": "D4",
          "ticks": 42240,
          "time": 47.999952,
          "velocity": 0.7480314960629921
        },
        {
          "duration": 2.0545434,
          "durationTicks": 1808,
          "midi": 66,
          "name": "F#4",
          "ticks": 42240,
          "time": 47.999952,
          "velocity": 0.7007874015748031
        },
        {
          "duration": 0.2181816000000083,
          "durationTicks": 192,
          "midi": 40,
          "name": "E2",
          "ticks": 42480,
          "time": 48.272679,
          "velocity": 0.6771653543307087
        },
        {
          "duration": 0.2181816000000012,
          "durationTicks": 192,
          "midi": 40,
          "name": "E2",
          "ticks": 42720,
          "time": 48.545406,
          "velocity": 0.7559055118110236
        },
        {
          "duration": 0.10909080000000415,
          "durationTicks": 96,
          "midi": 40,
          "name": "E2",
          "ticks": 42960,
          "time": 48.818132999999996,
          "velocity": 0.7559055118110236
        },
        {
          "duration": 0.10909080000000415,
          "durationTicks": 96,
          "midi": 40,
          "name": "E2",
          "ticks": 43080,
          "time": 48.9544965,
          "velocity": 0.7401574803149606
        },
        {
          "duration": 0.2181816000000012,
          "durationTicks": 192,
          "midi": 40,
          "name": "E2",
          "ticks": 43200,
          "time": 49.09086,
          "velocity": 0.7401574803149606
        },
        {
          "duration": 0.2181816000000012,
          "durationTicks": 192,
          "midi": 40,
          "name": "E2",
          "ticks": 43440,
          "time": 49.363587,
          "velocity": 0.6535433070866141
        },
        {
          "duration": 0.2181816000000012,
          "durationTicks": 192,
          "midi": 40,
          "name": "E2",
          "ticks": 43680,
          "time": 49.636314,
          "velocity": 0.7244094488188977
        },
        {
          "duration": 0.2181816000000012,
          "durationTicks": 192,
          "midi": 40,
          "name": "E2",
          "ticks": 43920,
          "time": 49.909041,
          "velocity": 0.6850393700787402
        },
        {
          "duration": 0.2181816000000012,
          "durationTicks": 192,
          "midi": 33,
          "name": "A1",
          "ticks": 44160,
          "time": 50.181768,
          "velocity": 0.7716535433070866
        },
        {
          "duration": 0.4181814000000017,
          "durationTicks": 368,
          "midi": 57,
          "name": "A3",
          "ticks": 44160,
          "time": 50.181768,
          "velocity": 0.6850393700787402
        },
        {
          "duration": 0.4181814000000017,
          "durationTicks": 368,
          "midi": 61,
          "name": "C#4",
          "ticks": 44160,
          "time": 50.181768,
          "velocity": 0.6929133858267716
        },
        {
          "duration": 0.4181814000000017,
          "durationTicks": 368,
          "midi": 64,
          "name": "E4",
          "ticks": 44160,
          "time": 50.181768,
          "velocity": 0.7322834645669292
        },
        {
          "duration": 0.2181816000000012,
          "durationTicks": 192,
          "midi": 33,
          "name": "A1",
          "ticks": 44400,
          "time": 50.454495,
          "velocity": 0.7559055118110236
        },
        {
          "duration": 0.2181816000000083,
          "durationTicks": 192,
          "midi": 33,
          "name": "A1",
          "ticks": 44640,
          "time": 50.727222,
          "velocity": 0.7637795275590551
        },
        {
          "duration": 0.4090905000000049,
          "durationTicks": 360,
          "midi": 57,
          "name": "A3",
          "ticks": 44640,
          "time": 50.727222,
          "velocity": 0.7401574803149606
        },
        {
          "duration": 0.39545414999999906,
          "durationTicks": 348,
          "midi": 61,
          "name": "C#4",
          "ticks": 44640,
          "time": 50.727222,
          "velocity": 0.6850393700787402
        },
        {
          "duration": 0.4090905000000049,
          "durationTicks": 360,
          "midi": 66,
          "name": "F#4",
          "ticks": 44640,
          "time": 50.727222,
          "velocity": 0.6456692913385826
        },
        {
          "duration": 0.10909079999999705,
          "durationTicks": 96,
          "midi": 33,
          "name": "A1",
          "ticks": 44880,
          "time": 50.999949,
          "velocity": 0.7401574803149606
        },
        {
          "duration": 0.10909079999999705,
          "durationTicks": 96,
          "midi": 33,
          "name": "A1",
          "ticks": 45000,
          "time": 51.1363125,
          "velocity": 0.6929133858267716
        },
        {
          "duration": 0.2181816000000083,
          "durationTicks": 192,
          "midi": 33,
          "name": "A1",
          "ticks": 45120,
          "time": 51.272676,
          "velocity": 0.7401574803149606
        },
        {
          "duration": 0.4090905000000049,
          "durationTicks": 360,
          "midi": 57,
          "name": "A3",
          "ticks": 45120,
          "time": 51.272676,
          "velocity": 0.7244094488188977
        },
        {
          "duration": 0.4090905000000049,
          "durationTicks": 360,
          "midi": 61,
          "name": "C#4",
          "ticks": 45120,
          "time": 51.272676,
          "velocity": 0.6850393700787402
        },
        {
          "duration": 0.4090905000000049,
          "durationTicks": 360,
          "midi": 64,
          "name": "E4",
          "ticks": 45120,
          "time": 51.272676,
          "velocity": 0.6614173228346457
        },
        {
          "duration": 0.2181816000000012,
          "durationTicks": 192,
          "midi": 33,
          "name": "A1",
          "ticks": 45360,
          "time": 51.545403,
          "velocity": 0.6692913385826772
        },
        {
          "duration": 0.10909080000000415,
          "durationTicks": 96,
          "midi": 33,
          "name": "A1",
          "ticks": 45600,
          "time": 51.81813,
          "velocity": 0.7086614173228346
        },
        {
          "duration": 0.10909080000000415,
          "durationTicks": 96,
          "midi": 68,
          "name": "G#4",
          "ticks": 45600,
          "time": 51.81813,
          "velocity": 0.7007874015748031
        },
        {
          "duration": 0.10909080000000415,
          "durationTicks": 96,
          "midi": 69,
          "name": "A4",
          "ticks": 45720,
          "time": 51.9544935,
          "velocity": 0.7401574803149606
        },
        {
          "duration": 0.10909080000000415,
          "durationTicks": 96,
          "midi": 33,
          "name": "A1",
          "ticks": 45840,
          "time": 52.090857,
          "velocity": 0.7559055118110236
        },
        {
          "duration": 0.10909080000000415,
          "durationTicks": 96,
          "midi": 71,
          "name": "B4",
          "ticks": 45840,
          "time": 52.090857,
          "velocity": 0.7559055118110236
        },
        {
          "duration": 0.10909079999999705,
          "durationTicks": 96,
          "midi": 33,
          "name": "A1",
          "ticks": 45960,
          "time": 52.2272205,
          "velocity": 0.7165354330708661
        },
        {
          "duration": 0.10909079999999705,
          "durationTicks": 96,
          "midi": 73,
          "name": "C#5",
          "ticks": 45960,
          "time": 52.2272205,
          "velocity": 0.7795275590551181
        },
        {
          "duration": 0.2181816000000012,
          "durationTicks": 192,
          "midi": 38,
          "name": "D2",
          "ticks": 46080,
          "time": 52.363584,
          "velocity": 0.7244094488188977
        },
        {
          "duration": 0.9454536000000004,
          "durationTicks": 832,
          "midi": 66,
          "name": "F#4",
          "ticks": 46080,
          "time": 52.363584,
          "velocity": 0.7716535433070866
        },
        {
          "duration": 0.9454536000000004,
          "durationTicks": 832,
          "midi": 69,
          "name": "A4",
          "ticks": 46080,
          "time": 52.363584,
          "velocity": 0.7244094488188977
        },
        {
          "duration": 0.9545444999999972,
          "durationTicks": 840,
          "midi": 74,
          "name": "D5",
          "ticks": 46080,
          "time": 52.363584,
          "velocity": 0.7480314960629921
        },
        {
          "duration": 0.2181816000000012,
          "durationTicks": 192,
          "midi": 38,
          "name": "D2",
          "ticks": 46320,
          "time": 52.636311,
          "velocity": 0.7401574803149606
        },
        {
          "duration": 0.2181816000000012,
          "durationTicks": 192,
          "midi": 38,
          "name": "D2",
          "ticks": 46560,
          "time": 52.909038,
          "velocity": 0.7480314960629921
        },
        {
          "duration": 0.2181816000000012,
          "durationTicks": 192,
          "midi": 38,
          "name": "D2",
          "ticks": 46800,
          "time": 53.181765,
          "velocity": 0.7322834645669292
        },
        {
          "duration": 0.2181816000000012,
          "durationTicks": 192,
          "midi": 40,
          "name": "E2",
          "ticks": 47040,
          "time": 53.454492,
          "velocity": 0.6614173228346457
        },
        {
          "duration": 0.9545444999999972,
          "durationTicks": 840,
          "midi": 64,
          "name": "E4",
          "ticks": 47040,
          "time": 53.454492,
          "velocity": 0.7401574803149606
        },
        {
          "duration": 0.9545444999999972,
          "durationTicks": 840,
          "midi": 68,
          "name": "G#4",
          "ticks": 47040,
          "time": 53.454492,
          "velocity": 0.7480314960629921
        },
        {
          "duration": 0.9545444999999972,
          "durationTicks": 840,
          "midi": 71,
          "name": "B4",
          "ticks": 47040,
          "time": 53.454492,
          "velocity": 0.6850393700787402
        },
        {
          "duration": 0.2181816000000012,
          "durationTicks": 192,
          "midi": 40,
          "name": "E2",
          "ticks": 47280,
          "time": 53.727219,
          "velocity": 0.6850393700787402
        },
        {
          "duration": 0.2181816000000012,
          "durationTicks": 192,
          "midi": 40,
          "name": "E2",
          "ticks": 47520,
          "time": 53.999946,
          "velocity": 0.7795275590551181
        },
        {
          "duration": 0.1999998000000005,
          "durationTicks": 176,
          "midi": 40,
          "name": "E2",
          "ticks": 47760,
          "time": 54.272673,
          "velocity": 0.6850393700787402
        },
        {
          "duration": 0.2181816000000012,
          "durationTicks": 192,
          "midi": 45,
          "name": "A2",
          "ticks": 48000,
          "time": 54.5454,
          "velocity": 0.7480314960629921
        },
        {
          "duration": 0.9636354000000011,
          "durationTicks": 848,
          "midi": 64,
          "name": "E4",
          "ticks": 48000,
          "time": 54.5454,
          "velocity": 0.7716535433070866
        },
        {
          "duration": 0.9545444999999972,
          "durationTicks": 840,
          "midi": 69,
          "name": "A4",
          "ticks": 48000,
          "time": 54.5454,
          "velocity": 0.7007874015748031
        },
        {
          "duration": 0.9454536000000004,
          "durationTicks": 832,
          "midi": 73,
          "name": "C#5",
          "ticks": 48000,
          "time": 54.5454,
          "velocity": 0.7795275590551181
        },
        {
          "duration": 0.9454536000000004,
          "durationTicks": 832,
          "midi": 76,
          "name": "E5",
          "ticks": 48000,
          "time": 54.5454,
          "velocity": 0.6692913385826772
        },
        {
          "duration": 0.2181816000000083,
          "durationTicks": 192,
          "midi": 45,
          "name": "A2",
          "ticks": 48240,
          "time": 54.818127,
          "velocity": 0.6929133858267716
        },
        {
          "duration": 0.2181816000000012,
          "durationTicks": 192,
          "midi": 45,
          "name": "A2",
          "ticks": 48480,
          "time": 55.090854,
          "velocity": 0.6771653543307087
        },
        {
          "duration": 0.2181816000000083,
          "durationTicks": 192,
          "midi": 45,
          "name": "A2",
          "ticks": 48720,
          "time": 55.363580999999996,
          "velocity": 0.7716535433070866
        },
        {
          "duration": 0.2181816000000012,
          "durationTicks": 192,
          "midi": 45,
          "name": "A2",
          "ticks": 48960,
          "time": 55.636308,
          "velocity": 0.7007874015748031
        },
        {
          "duration": 0.9545444999999972,
          "durationTicks": 840,
          "midi": 64,
          "name": "E4",
          "ticks": 48960,
          "time": 55.636308,
          "velocity": 0.7716535433070866
        },
        {
          "duration": 0.9454536000000004,
          "durationTicks": 832,
          "midi": 69,
          "name": "A4",
          "ticks": 48960,
          "time": 55.636308,
          "velocity": 0.7795275590551181
        },
        {
          "duration": 0.9545444999999972,
          "durationTicks": 840,
          "midi": 73,
          "name": "C#5",
          "ticks": 48960,
          "time": 55.636308,
          "velocity": 0.7637795275590551
        },
        {
          "duration": 0.2181816000000012,
          "durationTicks": 192,
          "midi": 45,
          "name": "A2",
          "ticks": 49200,
          "time": 55.909035,
          "velocity": 0.7559055118110236
        },
        {
          "duration": 0.2181816000000012,
          "durationTicks": 192,
          "midi": 45,
          "name": "A2",
          "ticks": 49440,
          "time": 56.181762,
          "velocity": 0.7165354330708661
        },
        {
          "duration": 0.2181816000000012,
          "durationTicks": 192,
          "midi": 45,
          "name": "A2",
          "ticks": 49680,
          "time": 56.454489,
          "velocity": 0.7559055118110236
        },
        {
          "duration": 0.2181816000000012,
          "durationTicks": 192,
          "midi": 47,
          "name": "B2",
          "ticks": 49920,
          "time": 56.727216,
          "velocity": 0.6771653543307087
        },
        {
          "duration": 0.9545445000000043,
          "durationTicks": 840,
          "midi": 66,
          "name": "F#4",
          "ticks": 49920,
          "time": 56.727216,
          "velocity": 0.7559055118110236
        },
        {
          "duration": 0.9545445000000043,
          "durationTicks": 840,
          "midi": 69,
          "name": "A4",
          "ticks": 49920,
          "time": 56.727216,
          "velocity": 0.6850393700787402
        },
        {
          "duration": 0.9545445000000043,
          "durationTicks": 840,
          "midi": 74,
          "name": "D5",
          "ticks": 49920,
          "time": 56.727216,
          "velocity": 0.6771653543307087
        },
        {
          "duration": 0.2181816000000012,
          "durationTicks": 192,
          "midi": 47,
          "name": "B2",
          "ticks": 50160,
          "time": 56.999943,
          "velocity": 0.6692913385826772
        },
        {
          "duration": 0.2181816000000012,
          "durationTicks": 192,
          "midi": 47,
          "name": "B2",
          "ticks": 50400,
          "time": 57.27267,
          "velocity": 0.7559055118110236
        },
        {
          "duration": 0.2181816000000012,
          "durationTicks": 192,
          "midi": 47,
          "name": "B2",
          "ticks": 50640,
          "time": 57.545397,
          "velocity": 0.7244094488188977
        },
        {
          "duration": 0.2181816000000083,
          "durationTicks": 192,
          "midi": 40,
          "name": "E2",
          "ticks": 50880,
          "time": 57.818124,
          "velocity": 0.7244094488188977
        },
        {
          "duration": 0.9545445000000043,
          "durationTicks": 840,
          "midi": 64,
          "name": "E4",
          "ticks": 50880,
          "time": 57.818124,
          "velocity": 0.6929133858267716
        },
        {
          "duration": 0.9454536000000004,
          "durationTicks": 832,
          "midi": 68,
          "name": "G#4",
          "ticks": 50880,
          "time": 57.818124,
          "velocity": 0.7559055118110236
        },
        {
          "duration": 0.9545445000000043,
          "durationTicks": 840,
          "midi": 71,
          "name": "B4",
          "ticks": 50880,
          "time": 57.818124,
          "velocity": 0.7007874015748031
        },
        {
          "duration": 0.2181816000000012,
          "durationTicks": 192,
          "midi": 40,
          "name": "E2",
          "ticks": 51120,
          "time": 58.090851,
          "velocity": 0.7716535433070866
        },
        {
          "duration": 0.2181816000000083,
          "durationTicks": 192,
          "midi": 40,
          "name": "E2",
          "ticks": 51360,
          "time": 58.363578,
          "velocity": 0.7637795275590551
        },
        {
          "duration": 0.2181816000000012,
          "durationTicks": 192,
          "midi": 40,
          "name": "E2",
          "ticks": 51600,
          "time": 58.636305,
          "velocity": 0.7401574803149606
        },
        {
          "duration": 0.2181816000000083,
          "durationTicks": 192,
          "midi": 45,
          "name": "A2",
          "ticks": 51840,
          "time": 58.909031999999996,
          "velocity": 0.7716535433070866
        },
        {
          "duration": 0.2181816000000083,
          "durationTicks": 192,
          "midi": 64,
          "name": "E4",
          "ticks": 51840,
          "time": 58.909031999999996,
          "velocity": 0.7480314960629921
        },
        {
          "duration": 2.0363616000000064,
          "durationTicks": 1792,
          "midi": 69,
          "name": "A4",
          "ticks": 51840,
          "time": 58.909031999999996,
          "velocity": 0.7795275590551181
        },
        {
          "duration": 2.0363616000000064,
          "durationTicks": 1792,
          "midi": 73,
          "name": "C#5",
          "ticks": 51840,
          "time": 58.909031999999996,
          "velocity": 0.6692913385826772
        },
        {
          "duration": 0.2181816000000012,
          "durationTicks": 192,
          "midi": 45,
          "name": "A2",
          "ticks": 52080,
          "time": 59.181759,
          "velocity": 0.6692913385826772
        },
        {
          "duration": 0.2181816000000012,
          "durationTicks": 192,
          "midi": 64,
          "name": "E4",
          "ticks": 52080,
          "time": 59.181759,
          "velocity": 0.7086614173228346
        },
        {
          "duration": 0.2181816000000012,
          "durationTicks": 192,
          "midi": 45,
          "name": "A2",
          "ticks": 52320,
          "time": 59.454486,
          "velocity": 0.7086614173228346
        },
        {
          "duration": 0.2181816000000012,
          "durationTicks": 192,
          "midi": 66,
          "name": "F#4",
          "ticks": 52320,
          "time": 59.454486,
          "velocity": 0.7795275590551181
        },
        {
          "duration": 0.2181816000000012,
          "durationTicks": 192,
          "midi": 45,
          "name": "A2",
          "ticks": 52560,
          "time": 59.727213,
          "velocity": 0.6929133858267716
        },
        {
          "duration": 0.2181816000000012,
          "durationTicks": 192,
          "midi": 66,
          "name": "F#4",
          "ticks": 52560,
          "time": 59.727213,
          "velocity": 0.7086614173228346
        },
        {
          "duration": 0.2181816000000012,
          "durationTicks": 192,
          "midi": 45,
          "name": "A2",
          "ticks": 52800,
          "time": 59.99994,
          "velocity": 0.6771653543307087
        },
        {
          "duration": 0.2181816000000012,
          "durationTicks": 192,
          "midi": 64,
          "name": "E4",
          "ticks": 52800,
          "time": 59.99994,
          "velocity": 0.7165354330708661
        },
        {
          "duration": 0.2181816000000012,
          "durationTicks": 192,
          "midi": 45,
          "name": "A2",
          "ticks": 53040,
          "time": 60.272667,
          "velocity": 0.7322834645669292
        },
        {
          "duration": 0.2181816000000012,
          "durationTicks": 192,
          "midi": 64,
          "name": "E4",
          "ticks": 53040,
          "time": 60.272667,
          "velocity": 0.7480314960629921
        },
        {
          "duration": 0.2181816000000012,
          "durationTicks": 192,
          "midi": 45,
          "name": "A2",
          "ticks": 53280,
          "time": 60.545394,
          "velocity": 0.7086614173228346
        },
        {
          "duration": 0.2181816000000012,
          "durationTicks": 192,
          "midi": 66,
          "name": "F#4",
          "ticks": 53280,
          "time": 60.545394,
          "velocity": 0.7559055118110236
        },
        {
          "duration": 0.2181816000000012,
          "durationTicks": 192,
          "midi": 45,
          "name": "A2",
          "ticks": 53520,
          "time": 60.818121,
          "velocity": 0.7637795275590551
        },
        {
          "duration": 0.2181816000000012,
          "durationTicks": 192,
          "midi": 66,
          "name": "F#4",
          "ticks": 53520,
          "time": 60.818121,
          "velocity": 0.7480314960629921
        },
        {
          "duration": 0.2181816000000012,
          "durationTicks": 192,
          "midi": 38,
          "name": "D2",
          "ticks": 53760,
          "time": 61.090848,
          "velocity": 0.7716535433070866
        },
        {
          "duration": 0.9454536000000004,
          "durationTicks": 832,
          "midi": 66,
          "name": "F#4",
          "ticks": 53760,
          "time": 61.090848,
          "velocity": 0.7637795275590551
        },
        {
          "duration": 0.9363626999999966,
          "durationTicks": 824,
          "midi": 69,
          "name": "A4",
          "ticks": 53760,
          "time": 61.090848,
          "velocity": 0.7244094488188977
        },
        {
          "duration": 0.9363626999999966,
          "durationTicks": 824,
          "midi": 74,
          "name": "D5",
          "ticks": 53760,
          "time": 61.090848,
          "velocity": 0.7244094488188977
        },
        {
          "duration": 0.2181816000000083,
          "durationTicks": 192,
          "midi": 38,
          "name": "D2",
          "ticks": 54000,
          "time": 61.363575,
          "velocity": 0.7322834645669292
        },
        {
          "duration": 0.2181816000000012,
          "durationTicks": 192,
          "midi": 38,
          "name": "D2",
          "ticks": 54240,
          "time": 61.636302,
          "velocity": 0.6850393700787402
        },
        {
          "duration": 0.2181816000000083,
          "durationTicks": 192,
          "midi": 38,
          "name": "D2",
          "ticks": 54480,
          "time": 61.909029,
          "velocity": 0.7795275590551181
        },
        {
          "duration": 0.2181816000000012,
          "durationTicks": 192,
          "midi": 40,
          "name": "E2",
          "ticks": 54720,
          "time": 62.181756,
          "velocity": 0.7716535433070866
        },
        {
          "duration": 0.9545444999999972,
          "durationTicks": 840,
          "midi": 64,
          "name": "E4",
          "ticks": 54720,
          "time": 62.181756,
          "velocity": 0.7559055118110236
        },
        {
          "duration": 0.9545444999999972,
          "durationTicks": 840,
          "midi": 68,
          "name": "G#4",
          "ticks": 54720,
          "time": 62.181756,
          "velocity": 0.7480314960629921
        },
        {
          "duration": 0.9545444999999972,
          "durationTicks": 840,
          "midi": 71,
          "name": "B4",
          "ticks": 54720,
          "time": 62.181756,
          "velocity": 0.7637795275590551
        },
        {
          "duration": 0.2181816000000083,
          "durationTicks": 192,
          "midi": 40,
          "name": "E2",
          "ticks": 54960,
          "time": 62.454482999999996,
          "velocity": 0.6929133858267716
        },
        {
          "duration": 0.2181816000000012,
          "durationTicks": 192,
          "midi": 40,
          "name": "E2",
          "ticks": 55200,
          "time": 62.72721,
          "velocity": 0.7716535433070866
        },
        {
          "duration": 0.2181816000000012,
          "durationTicks": 192,
          "midi": 40,
          "name": "E2",
          "ticks": 55440,
          "time": 62.999937,
          "velocity": 0.7165354330708661
        },
        {
          "duration": 0.2181816000000012,
          "durationTicks": 192,
          "midi": 45,
          "name": "A2",
          "ticks": 55680,
          "time": 63.272664,
          "velocity": 0.6850393700787402
        },
        {
          "duration": 0.9454536000000004,
          "durationTicks": 832,
          "midi": 64,
          "name": "E4",
          "ticks": 55680,
          "time": 63.272664,
          "velocity": 0.7480314960629921
        },
        {
          "duration": 0.9454536000000004,
          "durationTicks": 832,
          "midi": 69,
          "name": "A4",
          "ticks": 55680,
          "time": 63.272664,
          "velocity": 0.7716535433070866
        },
        {
          "duration": 0.9454536000000004,
          "durationTicks": 832,
          "midi": 73,
          "name": "C#5",
          "ticks": 55680,
          "time": 63.272664,
          "velocity": 0.7480314960629921
        },
        {
          "duration": 0.9545445000000043,
          "durationTicks": 840,
          "midi": 76,
          "name": "E5",
          "ticks": 55680,
          "time": 63.272664,
          "velocity": 0.7795275590551181
        },
        {
          "duration": 0.2181816000000012,
          "durationTicks": 192,
          "midi": 45,
          "name": "A2",
          "ticks": 55920,
          "time": 63.545391,
          "velocity": 0.7244094488188977
        },
        {
          "duration": 0.2181816000000083,
          "durationTicks": 192,
          "midi": 45,
          "name": "A2",
          "ticks": 56160,
          "time": 63.818118,
          "velocity": 0.7401574803149606
        },
        {
          "duration": 0.2181815999999941,
          "durationTicks": 192,
          "midi": 45,
          "name": "A2",
          "ticks": 56400,
          "time": 64.090845,
          "velocity": 0.7716535433070866
        },
        {
          "duration": 0.2181815999999941,
          "durationTicks": 192,
          "midi": 42,
          "name": "F#2",
          "ticks": 56640,
          "time": 64.363572,
          "velocity": 0.6850393700787402
        },
        {
          "duration": 0.9545444999999972,
          "durationTicks": 840,
          "midi": 66,
          "name": "F#4",
          "ticks": 56640,
          "time": 64.363572,
          "velocity": 0.7165354330708661
        },
        {
          "duration": 0.9545444999999972,
          "durationTicks": 840,
          "midi": 69,
          "name": "A4",
          "ticks": 56640,
          "time": 64.363572,
          "velocity": 0.7322834645669292
        },
        {
          "duration": 0.9454535999999933,
          "durationTicks": 832,
          "midi": 73,
          "name": "C#5",
          "ticks": 56640,
          "time": 64.363572,
          "velocity": 0.7086614173228346
        },
        {
          "duration": 0.2181816000000083,
          "durationTicks": 192,
          "midi": 42,
          "name": "F#2",
          "ticks": 56880,
          "time": 64.636299,
          "velocity": 0.7480314960629921
        },
        {
          "duration": 0.2181816000000083,
          "durationTicks": 192,
          "midi": 42,
          "name": "F#2",
          "ticks": 57120,
          "time": 64.909026,
          "velocity": 0.7007874015748031
        },
        {
          "duration": 0.2181816000000083,
          "durationTicks": 192,
          "midi": 42,
          "name": "F#2",
          "ticks": 57360,
          "time": 65.181753,
          "velocity": 0.7322834645669292
        },
        {
          "duration": 0.2181815999999941,
          "durationTicks": 192,
          "midi": 47,
          "name": "B2",
          "ticks": 57600,
          "time": 65.45448,
          "velocity": 0.7322834645669292
        },
        {
          "duration": 0.9272717999999998,
          "durationTicks": 816,
          "midi": 71,
          "name": "B4",
          "ticks": 57600,
          "time": 65.45448,
          "velocity": 0.7637795275590551
        },
        {
          "duration": 2.045452499999996,
          "durationTicks": 1800,
          "midi": 57,
          "name": "A3",
          "ticks": 57600,
          "time": 65.45448,
          "velocity": 0.6929133858267716
        },
        {
          "duration": 2.0545434,
          "durationTicks": 1808,
          "midi": 63,
          "name": "D#4",
          "ticks": 57600,
          "time": 65.45448,
          "velocity": 0.6850393700787402
        },
        {
          "duration": 2.045452499999996,
          "durationTicks": 1800,
          "midi": 66,
          "name": "F#4",
          "ticks": 57600,
          "time": 65.45448,
          "velocity": 0.6850393700787402
        },
        {
          "duration": 0.2181816000000083,
          "durationTicks": 192,
          "midi": 47,
          "name": "B2",
          "ticks": 57840,
          "time": 65.72720699999999,
          "velocity": 0.7007874015748031
        },
        {
          "duration": 0.2181816000000083,
          "durationTicks": 192,
          "midi": 47,
          "name": "B2",
          "ticks": 58080,
          "time": 65.999934,
          "velocity": 0.7086614173228346
        },
        {
          "duration": 0.2181816000000083,
          "durationTicks": 192,
          "midi": 47,
          "name": "B2",
          "ticks": 58320,
          "time": 66.272661,
          "velocity": 0.7401574803149606
        },
        {
          "duration": 0.2181815999999941,
          "durationTicks": 192,
          "midi": 47,
          "name": "B2",
          "ticks": 58560,
          "time": 66.545388,
          "velocity": 0.7716535433070866
        },
        {
          "duration": 0.9545444999999972,
          "durationTicks": 840,
          "midi": 75,
          "name": "D#5",
          "ticks": 58560,
          "time": 66.545388,
          "velocity": 0.7322834645669292
        },
        {
          "duration": 0.2181815999999941,
          "durationTicks": 192,
          "midi": 47,
          "name": "B2",
          "ticks": 58800,
          "time": 66.818115,
          "velocity": 0.7637795275590551
        },
        {
          "duration": 0.2181816000000083,
          "durationTicks": 192,
          "midi": 47,
          "name": "B2",
          "ticks": 59040,
          "time": 67.090842,
          "velocity": 0.6771653543307087
        },
        {
          "duration": 0.2181816000000083,
          "durationTicks": 192,
          "midi": 47,
          "name": "B2",
          "ticks": 59280,
          "time": 67.363569,
          "velocity": 0.7480314960629921
        },
        {
          "duration": 0.2181815999999941,
          "durationTicks": 192,
          "midi": 40,
          "name": "E2",
          "ticks": 59520,
          "time": 67.636296,
          "velocity": 0.7401574803149606
        },
        {
          "duration": 0.2181815999999941,
          "durationTicks": 192,
          "midi": 40,
          "name": "E2",
          "ticks": 59760,
          "time": 67.909023,
          "velocity": 0.7795275590551181
        },
        {
          "duration": 0.2181816000000083,
          "durationTicks": 192,
          "midi": 40,
          "name": "E2",
          "ticks": 60000,
          "time": 68.18175,
          "velocity": 0.7795275590551181
        },
        {
          "duration": 0.10909080000000415,
          "durationTicks": 96,
          "midi": 40,
          "name": "E2",
          "ticks": 60240,
          "time": 68.454477,
          "velocity": 0.6377952755905512
        },
        {
          "duration": 0.10909080000000415,
          "durationTicks": 96,
          "midi": 40,
          "name": "E2",
          "ticks": 60360,
          "time": 68.5908405,
          "velocity": 0.7716535433070866
        },
        {
          "duration": 0.2181816000000083,
          "durationTicks": 192,
          "midi": 40,
          "name": "E2",
          "ticks": 60480,
          "time": 68.727204,
          "velocity": 0.7086614173228346
        },
        {
          "duration": 0.2181815999999941,
          "durationTicks": 192,
          "midi": 40,
          "name": "E2",
          "ticks": 60720,
          "time": 68.999931,
          "velocity": 0.7165354330708661
        },
        {
          "duration": 0.2181816000000083,
          "durationTicks": 192,
          "midi": 40,
          "name": "E2",
          "ticks": 60960,
          "time": 69.27265799999999,
          "velocity": 0.7322834645669292
        },
        {
          "duration": 0.10909080000000415,
          "durationTicks": 96,
          "midi": 40,
          "name": "E2",
          "ticks": 61200,
          "time": 69.545385,
          "velocity": 0.7480314960629921
        },
        {
          "duration": 0.10909080000000415,
          "durationTicks": 96,
          "midi": 40,
          "name": "E2",
          "ticks": 61320,
          "time": 69.6817485,
          "velocity": 0.7401574803149606
        },
        {
          "duration": 0.2181816000000083,
          "durationTicks": 192,
          "midi": 33,
          "name": "A1",
          "ticks": 61440,
          "time": 69.818112,
          "velocity": 0.6614173228346457
        },
        {
          "duration": 0.4181814000000088,
          "durationTicks": 368,
          "midi": 57,
          "name": "A3",
          "ticks": 61440,
          "time": 69.818112,
          "velocity": 0.7007874015748031
        },
        {
          "duration": 0.4181814000000088,
          "durationTicks": 368,
          "midi": 61,
          "name": "C#4",
          "ticks": 61440,
          "time": 69.818112,
          "velocity": 0.7559055118110236
        },
        {
          "duration": 0.4181814000000088,
          "durationTicks": 368,
          "midi": 64,
          "name": "E4",
          "ticks": 61440,
          "time": 69.818112,
          "velocity": 0.7480314960629921
        },
        {
          "duration": 0.2181815999999941,
          "durationTicks": 192,
          "midi": 33,
          "name": "A1",
          "ticks": 61680,
          "time": 70.090839,
          "velocity": 0.7480314960629921
        },
        {
          "duration": 0.2181815999999941,
          "durationTicks": 192,
          "midi": 33,
          "name": "A1",
          "ticks": 61920,
          "time": 70.363566,
          "velocity": 0.6850393700787402
        },
        {
          "duration": 0.4090904999999907,
          "durationTicks": 360,
          "midi": 57,
          "name": "A3",
          "ticks": 61920,
          "time": 70.363566,
          "velocity": 0.7637795275590551
        },
        {
          "duration": 0.4090904999999907,
          "durationTicks": 360,
          "midi": 61,
          "name": "C#4",
          "ticks": 61920,
          "time": 70.363566,
          "velocity": 0.6692913385826772
        },
        {
          "duration": 0.4090904999999907,
          "durationTicks": 360,
          "midi": 66,
          "name": "F#4",
          "ticks": 61920,
          "time": 70.363566,
          "velocity": 0.7795275590551181
        },
        {
          "duration": 0.2181816000000083,
          "durationTicks": 192,
          "midi": 33,
          "name": "A1",
          "ticks": 62160,
          "time": 70.636293,
          "velocity": 0.7716535433070866
        },
        {
          "duration": 0.2181816000000083,
          "durationTicks": 192,
          "midi": 33,
          "name": "A1",
          "ticks": 62400,
          "time": 70.90902,
          "velocity": 0.7244094488188977
        },
        {
          "duration": 0.4090905000000049,
          "durationTicks": 360,
          "midi": 57,
          "name": "A3",
          "ticks": 62400,
          "time": 70.90902,
          "velocity": 0.7086614173228346
        },
        {
          "duration": 0.4090905000000049,
          "durationTicks": 360,
          "midi": 61,
          "name": "C#4",
          "ticks": 62400,
          "time": 70.90902,
          "velocity": 0.7559055118110236
        },
        {
          "duration": 0.4090905000000049,
          "durationTicks": 360,
          "midi": 64,
          "name": "E4",
          "ticks": 62400,
          "time": 70.90902,
          "velocity": 0.7480314960629921
        },
        {
          "duration": 0.2181815999999941,
          "durationTicks": 192,
          "midi": 33,
          "name": "A1",
          "ticks": 62640,
          "time": 71.181747,
          "velocity": 0.7244094488188977
        },
        {
          "duration": 0.2181815999999941,
          "durationTicks": 192,
          "midi": 33,
          "name": "A1",
          "ticks": 62880,
          "time": 71.454474,
          "velocity": 0.7559055118110236
        },
        {
          "duration": 0.4181814000000088,
          "durationTicks": 368,
          "midi": 57,
          "name": "A3",
          "ticks": 62880,
          "time": 71.454474,
          "velocity": 0.7322834645669292
        },
        {
          "duration": 0.4090904999999907,
          "durationTicks": 360,
          "midi": 61,
          "name": "C#4",
          "ticks": 62880,
          "time": 71.454474,
          "velocity": 0.7165354330708661
        },
        {
          "duration": 0.4090904999999907,
          "durationTicks": 360,
          "midi": 66,
          "name": "F#4",
          "ticks": 62880,
          "time": 71.454474,
          "velocity": 0.7244094488188977
        },
        {
          "duration": 0.10909080000000415,
          "durationTicks": 96,
          "midi": 33,
          "name": "A1",
          "ticks": 63120,
          "time": 71.727201,
          "velocity": 0.7716535433070866
        },
        {
          "duration": 0.10909080000000415,
          "durationTicks": 96,
          "midi": 33,
          "name": "A1",
          "ticks": 63240,
          "time": 71.8635645,
          "velocity": 0.6692913385826772
        },
        {
          "duration": 0.2181816000000083,
          "durationTicks": 192,
          "midi": 30,
          "name": "F#1",
          "ticks": 63360,
          "time": 71.999928,
          "velocity": 0.7716535433070866
        },
        {
          "duration": 0.4090905000000049,
          "durationTicks": 360,
          "midi": 57,
          "name": "A3",
          "ticks": 63360,
          "time": 71.999928,
          "velocity": 0.6456692913385826
        },
        {
          "duration": 0.4090905000000049,
          "durationTicks": 360,
          "midi": 61,
          "name": "C#4",
          "ticks": 63360,
          "time": 71.999928,
          "velocity": 0.7322834645669292
        },
        {
          "duration": 0.4090905000000049,
          "durationTicks": 360,
          "midi": 64,
          "name": "E4",
          "ticks": 63360,
          "time": 71.999928,
          "velocity": 0.7007874015748031
        },
        {
          "duration": 0.2181816000000083,
          "durationTicks": 192,
          "midi": 30,
          "name": "F#1",
          "ticks": 63600,
          "time": 72.272655,
          "velocity": 0.7480314960629921
        },
        {
          "duration": 0.2181815999999941,
          "durationTicks": 192,
          "midi": 30,
          "name": "F#1",
          "ticks": 63840,
          "time": 72.545382,
          "velocity": 0.7480314960629921
        },
        {
          "duration": 0.4090904999999907,
          "durationTicks": 360,
          "midi": 57,
          "name": "A3",
          "ticks": 63840,
          "time": 72.545382,
          "velocity": 0.6771653543307087
        },
        {
          "duration": 0.4090904999999907,
          "durationTicks": 360,
          "midi": 61,
          "name": "C#4",
          "ticks": 63840,
          "time": 72.545382,
          "velocity": 0.7401574803149606
        },
        {
          "duration": 0.4090904999999907,
          "durationTicks": 360,
          "midi": 66,
          "name": "F#4",
          "ticks": 63840,
          "time": 72.545382,
          "velocity": 0.6771653543307087
        },
        {
          "duration": 0.2181816000000083,
          "durationTicks": 192,
          "midi": 30,
          "name": "F#1",
          "ticks": 64080,
          "time": 72.81810899999999,
          "velocity": 0.7322834645669292
        },
        {
          "duration": 0.2181816000000083,
          "durationTicks": 192,
          "midi": 30,
          "name": "F#1",
          "ticks": 64320,
          "time": 73.090836,
          "velocity": 0.7795275590551181
        },
        {
          "duration": 0.4090905000000049,
          "durationTicks": 360,
          "midi": 57,
          "name": "A3",
          "ticks": 64320,
          "time": 73.090836,
          "velocity": 0.6850393700787402
        },
        {
          "duration": 0.38636325000000227,
          "durationTicks": 340,
          "midi": 61,
          "name": "C#4",
          "ticks": 64320,
          "time": 73.090836,
          "velocity": 0.6614173228346457
        },
        {
          "duration": 0.4090905000000049,
          "durationTicks": 360,
          "midi": 64,
          "name": "E4",
          "ticks": 64320,
          "time": 73.090836,
          "velocity": 0.7007874015748031
        },
        {
          "duration": 0.2181816000000083,
          "durationTicks": 192,
          "midi": 30,
          "name": "F#1",
          "ticks": 64560,
          "time": 73.363563,
          "velocity": 0.7480314960629921
        },
        {
          "duration": 0.2181815999999941,
          "durationTicks": 192,
          "midi": 30,
          "name": "F#1",
          "ticks": 64800,
          "time": 73.63629,
          "velocity": 0.7480314960629921
        },
        {
          "duration": 0.4181814000000088,
          "durationTicks": 368,
          "midi": 57,
          "name": "A3",
          "ticks": 64800,
          "time": 73.63629,
          "velocity": 0.7716535433070866
        },
        {
          "duration": 0.4181814000000088,
          "durationTicks": 368,
          "midi": 61,
          "name": "C#4",
          "ticks": 64800,
          "time": 73.63629,
          "velocity": 0.6929133858267716
        },
        {
          "duration": 0.4181814000000088,
          "durationTicks": 368,
          "midi": 66,
          "name": "F#4",
          "ticks": 64800,
          "time": 73.63629,
          "velocity": 0.7480314960629921
        },
        {
          "duration": 0.2181815999999941,
          "durationTicks": 192,
          "midi": 30,
          "name": "F#1",
          "ticks": 65040,
          "time": 73.909017,
          "velocity": 0.7007874015748031
        },
        {
          "duration": 0.2181816000000083,
          "durationTicks": 192,
          "midi": 38,
          "name": "D2",
          "ticks": 65280,
          "time": 74.181744,
          "velocity": 0.7007874015748031
        },
        {
          "duration": 0.4090905000000049,
          "durationTicks": 360,
          "midi": 57,
          "name": "A3",
          "ticks": 65280,
          "time": 74.181744,
          "velocity": 0.7007874015748031
        },
        {
          "duration": 0.4090905000000049,
          "durationTicks": 360,
          "midi": 62,
          "name": "D4",
          "ticks": 65280,
          "time": 74.181744,
          "velocity": 0.7795275590551181
        },
        {
          "duration": 0.4090905000000049,
          "durationTicks": 360,
          "midi": 66,
          "name": "F#4",
          "ticks": 65280,
          "time": 74.181744,
          "velocity": 0.7086614173228346
        },
        {
          "duration": 0.2181816000000083,
          "durationTicks": 192,
          "midi": 38,
          "name": "D2",
          "ticks": 65520,
          "time": 74.454471,
          "velocity": 0.7559055118110236
        },
        {
          "duration": 0.2181815999999941,
          "durationTicks": 192,
          "midi": 38,
          "name": "D2",
          "ticks": 65760,
          "time": 74.727198,
          "velocity": 0.6850393700787402
        },
        {
          "duration": 0.28181790000000717,
          "durationTicks": 248,
          "midi": 57,
          "name": "A3",
          "ticks": 65760,
          "time": 74.727198,
          "velocity": 0.7795275590551181
        },
        {
          "duration": 0.2954542499999917,
          "durationTicks": 260,
          "midi": 62,
          "name": "D4",
          "ticks": 65760,
          "time": 74.727198,
          "velocity": 0.7322834645669292
        },
        {
          "duration": 0.28181790000000717,
          "durationTicks": 248,
          "midi": 66,
          "name": "F#4",
          "ticks": 65760,
          "time": 74.727198,
          "velocity": 0.7716535433070866
        },
        {
          "duration": 0.10909079999998994,
          "durationTicks": 96,
          "midi": 38,
          "name": "D2",
          "ticks": 66000,
          "time": 74.999925,
          "velocity": 0.7637795275590551
        },
        {
          "duration": 0.10909079999998994,
          "durationTicks": 96,
          "midi": 57,
          "name": "A3",
          "ticks": 66120,
          "time": 75.1362885,
          "velocity": 0.7165354330708661
        },
        {
          "duration": 0.10909079999998994,
          "durationTicks": 96,
          "midi": 62,
          "name": "D4",
          "ticks": 66120,
          "time": 75.1362885,
          "velocity": 0.7244094488188977
        },
        {
          "duration": 0.10909079999998994,
          "durationTicks": 96,
          "midi": 66,
          "name": "F#4",
          "ticks": 66120,
          "time": 75.1362885,
          "velocity": 0.6456692913385826
        },
        {
          "duration": 0.2181816000000083,
          "durationTicks": 192,
          "midi": 38,
          "name": "D2",
          "ticks": 66240,
          "time": 75.272652,
          "velocity": 0.7795275590551181
        },
        {
          "duration": 0.39545415000000617,
          "durationTicks": 348,
          "midi": 57,
          "name": "A3",
          "ticks": 66240,
          "time": 75.272652,
          "velocity": 0.7795275590551181
        },
        {
          "duration": 0.4090905000000049,
          "durationTicks": 360,
          "midi": 62,
          "name": "D4",
          "ticks": 66240,
          "time": 75.272652,
          "velocity": 0.6692913385826772
        },
        {
          "duration": 0.4181814000000088,
          "durationTicks": 368,
          "midi": 66,
          "name": "F#4",
          "ticks": 66240,
          "time": 75.272652,
          "velocity": 0.7559055118110236
        },
        {
          "duration": 0.2181816000000083,
          "durationTicks": 192,
          "midi": 38,
          "name": "D2",
          "ticks": 66480,
          "time": 75.545379,
          "velocity": 0.6456692913385826
        },
        {
          "duration": 0.2181816000000083,
          "durationTicks": 192,
          "midi": 38,
          "name": "D2",
          "ticks": 66720,
          "time": 75.818106,
          "velocity": 0.7480314960629921
        },
        {
          "duration": 0.4090905000000049,
          "durationTicks": 360,
          "midi": 57,
          "name": "A3",
          "ticks": 66720,
          "time": 75.818106,
          "velocity": 0.7559055118110236
        },
        {
          "duration": 0.4090905000000049,
          "durationTicks": 360,
          "midi": 62,
          "name": "D4",
          "ticks": 66720,
          "time": 75.818106,
          "velocity": 0.7795275590551181
        },
        {
          "duration": 0.39545414999999196,
          "durationTicks": 348,
          "midi": 66,
          "name": "F#4",
          "ticks": 66720,
          "time": 75.818106,
          "velocity": 0.7322834645669292
        },
        {
          "duration": 0.10909079999998994,
          "durationTicks": 96,
          "midi": 33,
          "name": "A1",
          "ticks": 66960,
          "time": 76.090833,
          "velocity": 0.7559055118110236
        },
        {
          "duration": 0.10909079999998994,
          "durationTicks": 96,
          "midi": 33,
          "name": "A1",
          "ticks": 67080,
          "time": 76.2271965,
          "velocity": 0.7480314960629921
        },
        {
          "duration": 0.2181816000000083,
          "durationTicks": 192,
          "midi": 38,
          "name": "D2",
          "ticks": 67200,
          "time": 76.36355999999999,
          "velocity": 0.7637795275590551
        },
        {
          "duration": 0.4090905000000049,
          "durationTicks": 360,
          "midi": 57,
          "name": "A3",
          "ticks": 67200,
          "time": 76.36355999999999,
          "velocity": 0.7795275590551181
        },
        {
          "duration": 0.4181814000000088,
          "durationTicks": 368,
          "midi": 62,
          "name": "D4",
          "ticks": 67200,
          "time": 76.36355999999999,
          "velocity": 0.7559055118110236
        },
        {
          "duration": 0.4090905000000049,
          "durationTicks": 360,
          "midi": 66,
          "name": "F#4",
          "ticks": 67200,
          "time": 76.36355999999999,
          "velocity": 0.7322834645669292
        },
        {
          "duration": 0.2181816000000083,
          "durationTicks": 192,
          "midi": 38,
          "name": "D2",
          "ticks": 67440,
          "time": 76.636287,
          "velocity": 0.7637795275590551
        },
        {
          "duration": 0.2181816000000083,
          "durationTicks": 192,
          "midi": 38,
          "name": "D2",
          "ticks": 67680,
          "time": 76.909014,
          "velocity": 0.7795275590551181
        },
        {
          "duration": 0.3045451499999956,
          "durationTicks": 268,
          "midi": 57,
          "name": "A3",
          "ticks": 67680,
          "time": 76.909014,
          "velocity": 0.6929133858267716
        },
        {
          "duration": 0.28181790000000717,
          "durationTicks": 248,
          "midi": 62,
          "name": "D4",
          "ticks": 67680,
          "time": 76.909014,
          "velocity": 0.7086614173228346
        },
        {
          "duration": 0.28181790000000717,
          "durationTicks": 248,
          "midi": 66,
          "name": "F#4",
          "ticks": 67680,
          "time": 76.909014,
          "velocity": 0.7086614173228346
        },
        {
          "duration": 0.10909079999998994,
          "durationTicks": 96,
          "midi": 38,
          "name": "D2",
          "ticks": 67920,
          "time": 77.181741,
          "velocity": 0.6850393700787402
        },
        {
          "duration": 0.10909079999998994,
          "durationTicks": 96,
          "midi": 57,
          "name": "A3",
          "ticks": 68040,
          "time": 77.3181045,
          "velocity": 0.7795275590551181
        },
        {
          "duration": 0.10909079999998994,
          "durationTicks": 96,
          "midi": 62,
          "name": "D4",
          "ticks": 68040,
          "time": 77.3181045,
          "velocity": 0.7165354330708661
        },
        {
          "duration": 0.10909079999998994,
          "durationTicks": 96,
          "midi": 66,
          "name": "F#4",
          "ticks": 68040,
          "time": 77.3181045,
          "velocity": 0.7244094488188977
        },
        {
          "duration": 0.2181815999999941,
          "durationTicks": 192,
          "midi": 38,
          "name": "D2",
          "ticks": 68160,
          "time": 77.454468,
          "velocity": 0.7637795275590551
        },
        {
          "duration": 0.4181813999999946,
          "durationTicks": 368,
          "midi": 57,
          "name": "A3",
          "ticks": 68160,
          "time": 77.454468,
          "velocity": 0.6535433070866141
        },
        {
          "duration": 0.4181813999999946,
          "durationTicks": 368,
          "midi": 62,
          "name": "D4",
          "ticks": 68160,
          "time": 77.454468,
          "velocity": 0.7244094488188977
        },
        {
          "duration": 0.4272722999999985,
          "durationTicks": 376,
          "midi": 66,
          "name": "F#4",
          "ticks": 68160,
          "time": 77.454468,
          "velocity": 0.7165354330708661
        },
        {
          "duration": 0.2181816000000083,
          "durationTicks": 192,
          "midi": 33,
          "name": "A1",
          "ticks": 68400,
          "time": 77.727195,
          "velocity": 0.7480314960629921
        },
        {
          "duration": 0.2181816000000083,
          "durationTicks": 192,
          "midi": 38,
          "name": "D2",
          "ticks": 68640,
          "time": 77.999922,
          "velocity": 0.6614173228346457
        },
        {
          "duration": 0.4181814000000088,
          "durationTicks": 368,
          "midi": 57,
          "name": "A3",
          "ticks": 68640,
          "time": 77.999922,
          "velocity": 0.7244094488188977
        },
        {
          "duration": 0.4090905000000049,
          "durationTicks": 360,
          "midi": 62,
          "name": "D4",
          "ticks": 68640,
          "time": 77.999922,
          "velocity": 0.6850393700787402
        },
        {
          "duration": 0.39545414999999196,
          "durationTicks": 348,
          "midi": 66,
          "name": "F#4",
          "ticks": 68640,
          "time": 77.999922,
          "velocity": 0.7007874015748031
        },
        {
          "duration": 0.2181815999999941,
          "durationTicks": 192,
          "midi": 38,
          "name": "D2",
          "ticks": 68880,
          "time": 78.272649,
          "velocity": 0.6929133858267716
        },
        {
          "duration": 0.2181815999999941,
          "durationTicks": 192,
          "midi": 33,
          "name": "A1",
          "ticks": 69120,
          "time": 78.545376,
          "velocity": 0.7401574803149606
        },
        {
          "duration": 0.9545444999999972,
          "durationTicks": 840,
          "midi": 57,
          "name": "A3",
          "ticks": 69120,
          "time": 78.545376,
          "velocity": 0.7480314960629921
        },
        {
          "duration": 0.9636354000000011,
          "durationTicks": 848,
          "midi": 61,
          "name": "C#4",
          "ticks": 69120,
          "time": 78.545376,
          "velocity": 0.7795275590551181
        },
        {
          "duration": 0.9545444999999972,
          "durationTicks": 840,
          "midi": 64,
          "name": "E4",
          "ticks": 69120,
          "time": 78.545376,
          "velocity": 0.7007874015748031
        },
        {
          "duration": 0.2181816000000083,
          "durationTicks": 192,
          "midi": 33,
          "name": "A1",
          "ticks": 69360,
          "time": 78.818103,
          "velocity": 0.7480314960629921
        },
        {
          "duration": 0.2181816000000083,
          "durationTicks": 192,
          "midi": 33,
          "name": "A1",
          "ticks": 69600,
          "time": 79.09083,
          "velocity": 0.7637795275590551
        },
        {
          "duration": 0.10909079999998994,
          "durationTicks": 96,
          "midi": 33,
          "name": "A1",
          "ticks": 69840,
          "time": 79.363557,
          "velocity": 0.7480314960629921
        },
        {
          "duration": 0.10909079999998994,
          "durationTicks": 96,
          "midi": 33,
          "name": "A1",
          "ticks": 69960,
          "time": 79.4999205,
          "velocity": 0.7795275590551181
        },
        {
          "duration": 0.2181815999999941,
          "durationTicks": 192,
          "midi": 37,
          "name": "C#2",
          "ticks": 70080,
          "time": 79.636284,
          "velocity": 0.7401574803149606
        },
        {
          "duration": 0.9545444999999972,
          "durationTicks": 840,
          "midi": 56,
          "name": "G#3",
          "ticks": 70080,
          "time": 79.636284,
          "velocity": 0.7244094488188977
        },
        {
          "duration": 0.9545444999999972,
          "durationTicks": 840,
          "midi": 61,
          "name": "C#4",
          "ticks": 70080,
          "time": 79.636284,
          "velocity": 0.6850393700787402
        },
        {
          "duration": 0.9454535999999933,
          "durationTicks": 832,
          "midi": 66,
          "name": "F#4",
          "ticks": 70080,
          "time": 79.636284,
          "velocity": 0.7322834645669292
        },
        {
          "duration": 0.2181816000000083,
          "durationTicks": 192,
          "midi": 37,
          "name": "C#2",
          "ticks": 70320,
          "time": 79.90901099999999,
          "velocity": 0.6535433070866141
        },
        {
          "duration": 0.2181816000000083,
          "durationTicks": 192,
          "midi": 37,
          "name": "C#2",
          "ticks": 70560,
          "time": 80.181738,
          "velocity": 0.7716535433070866
        },
        {
          "duration": 0.10909079999998994,
          "durationTicks": 96,
          "midi": 37,
          "name": "C#2",
          "ticks": 70800,
          "time": 80.454465,
          "velocity": 0.6614173228346457
        },
        {
          "duration": 0.10909079999998994,
          "durationTicks": 96,
          "midi": 37,
          "name": "C#2",
          "ticks": 70920,
          "time": 80.5908285,
          "velocity": 0.7244094488188977
        },
        {
          "duration": 0.2181815999999941,
          "durationTicks": 192,
          "midi": 42,
          "name": "F#2",
          "ticks": 71040,
          "time": 80.727192,
          "velocity": 0.7244094488188977
        },
        {
          "duration": 0.9454535999999933,
          "durationTicks": 832,
          "midi": 57,
          "name": "A3",
          "ticks": 71040,
          "time": 80.727192,
          "velocity": 0.7559055118110236
        },
        {
          "duration": 0.9363627000000037,
          "durationTicks": 824,
          "midi": 61,
          "name": "C#4",
          "ticks": 71040,
          "time": 80.727192,
          "velocity": 0.7086614173228346
        },
        {
          "duration": 0.9454535999999933,
          "durationTicks": 832,
          "midi": 66,
          "name": "F#4",
          "ticks": 71040,
          "time": 80.727192,
          "velocity": 0.7480314960629921
        },
        {
          "duration": 0.2181815999999941,
          "durationTicks": 192,
          "midi": 42,
          "name": "F#2",
          "ticks": 71280,
          "time": 80.999919,
          "velocity": 0.6929133858267716
        },
        {
          "duration": 0.2181816000000083,
          "durationTicks": 192,
          "midi": 42,
          "name": "F#2",
          "ticks": 71520,
          "time": 81.272646,
          "velocity": 0.7086614173228346
        },
        {
          "duration": 0.10909079999998994,
          "durationTicks": 96,
          "midi": 42,
          "name": "F#2",
          "ticks": 71760,
          "time": 81.545373,
          "velocity": 0.6535433070866141
        },
        {
          "duration": 0.10909079999998994,
          "durationTicks": 96,
          "midi": 42,
          "name": "F#2",
          "ticks": 71880,
          "time": 81.6817365,
          "velocity": 0.7322834645669292
        },
        {
          "duration": 0.2181815999999941,
          "durationTicks": 192,
          "midi": 33,
          "name": "A1",
          "ticks": 72000,
          "time": 81.8181,
          "velocity": 0.6535433070866141
        },
        {
          "duration": 0.9545444999999972,
          "durationTicks": 840,
          "midi": 61,
          "name": "C#4",
          "ticks": 72000,
          "time": 81.8181,
          "velocity": 0.7795275590551181
        },
        {
          "duration": 0.9363627000000037,
          "durationTicks": 824,
          "midi": 64,
          "name": "E4",
          "ticks": 72000,
          "time": 81.8181,
          "velocity": 0.7322834645669292
        },
        {
          "duration": 0.9636354000000011,
          "durationTicks": 848,
          "midi": 69,
          "name": "A4",
          "ticks": 72000,
          "time": 81.8181,
          "velocity": 0.6929133858267716
        },
        {
          "duration": 0.2181815999999941,
          "durationTicks": 192,
          "midi": 33,
          "name": "A1",
          "ticks": 72240,
          "time": 82.090827,
          "velocity": 0.7322834645669292
        },
        {
          "duration": 0.2181816000000083,
          "durationTicks": 192,
          "midi": 33,
          "name": "A1",
          "ticks": 72480,
          "time": 82.363554,
          "velocity": 0.7795275590551181
        },
        {
          "duration": 0.2181816000000083,
          "durationTicks": 192,
          "midi": 33,
          "name": "A1",
          "ticks": 72720,
          "time": 82.636281,
          "velocity": 0.7165354330708661
        },
        {
          "duration": 0.2181816000000083,
          "durationTicks": 192,
          "midi": 38,
          "name": "D2",
          "ticks": 72960,
          "time": 82.909008,
          "velocity": 0.7244094488188977
        },
        {
          "duration": 0.4090905000000049,
          "durationTicks": 360,
          "midi": 62,
          "name": "D4",
          "ticks": 72960,
          "time": 82.909008,
          "velocity": 0.7637795275590551
        },
        {
          "duration": 0.4090905000000049,
          "durationTicks": 360,
          "midi": 66,
          "name": "F#4",
          "ticks": 72960,
          "time": 82.909008,
          "velocity": 0.7637795275590551
        },
        {
          "duration": 0.39545414999999196,
          "durationTicks": 348,
          "midi": 69,
          "name": "A4",
          "ticks": 72960,
          "time": 82.909008,
          "velocity": 0.7637795275590551
        },
        {
          "duration": 0.2181815999999941,
          "durationTicks": 192,
          "midi": 38,
          "name": "D2",
          "ticks": 73200,
          "time": 83.181735,
          "velocity": 0.7480314960629921
        },
        {
          "duration": 0.2181816000000083,
          "durationTicks": 192,
          "midi": 37,
          "name": "C#2",
          "ticks": 73440,
          "time": 83.45446199999999,
          "velocity": 0.6535433070866141
        },
        {
          "duration": 0.4090905000000049,
          "durationTicks": 360,
          "midi": 61,
          "name": "C#4",
          "ticks": 73440,
          "time": 83.45446199999999,
          "velocity": 0.7716535433070866
        },
        {
          "duration": 0.4090905000000049,
          "durationTicks": 360,
          "midi": 64,
          "name": "E4",
          "ticks": 73440,
          "time": 83.45446199999999,
          "velocity": 0.7007874015748031
        },
        {
          "duration": 0.4090905000000049,
          "durationTicks": 360,
          "midi": 69,
          "name": "A4",
          "ticks": 73440,
          "time": 83.45446199999999,
          "velocity": 0.6771653543307087
        },
        {
          "duration": 0.2181816000000083,
          "durationTicks": 192,
          "midi": 37,
          "name": "C#2",
          "ticks": 73680,
          "time": 83.727189,
          "velocity": 0.7165354330708661
        },
        {
          "duration": 0.2181816000000083,
          "durationTicks": 192,
          "midi": 35,
          "name": "B1",
          "ticks": 73920,
          "time": 83.999916,
          "velocity": 0.7480314960629921
        },
        {
          "duration": 0.9545444999999972,
          "durationTicks": 840,
          "midi": 59,
          "name": "B3",
          "ticks": 73920,
          "time": 83.999916,
          "velocity": 0.7244094488188977
        },
        {
          "duration": 0.9545444999999972,
          "durationTicks": 840,
          "midi": 62,
          "name": "D4",
          "ticks": 73920,
          "time": 83.999916,
          "velocity": 0.7401574803149606
        },
        {
          "duration": 0.9545444999999972,
          "durationTicks": 840,
          "midi": 66,
          "name": "F#4",
          "ticks": 73920,
          "time": 83.999916,
          "velocity": 0.6771653543307087
        },
        {
          "duration": 0.9454535999999933,
          "durationTicks": 832,
          "midi": 69,
          "name": "A4",
          "ticks": 73920,
          "time": 83.999916,
          "velocity": 0.7559055118110236
        },
        {
          "duration": 0.2181815999999941,
          "durationTicks": 192,
          "midi": 35,
          "name": "B1",
          "ticks": 74160,
          "time": 84.272643,
          "velocity": 0.7086614173228346
        },
        {
          "duration": 0.2181815999999941,
          "durationTicks": 192,
          "midi": 35,
          "name": "B1",
          "ticks": 74400,
          "time": 84.54537,
          "velocity": 0.7637795275590551
        },
        {
          "duration": 0.2181816000000083,
          "durationTicks": 192,
          "midi": 40,
          "name": "E2",
          "ticks": 74640,
          "time": 84.818097,
          "velocity": 0.7007874015748031
        },
        {
          "duration": 0.2181816000000083,
          "durationTicks": 192,
          "midi": 40,
          "name": "E2",
          "ticks": 74880,
          "time": 85.090824,
          "velocity": 0.7086614173228346
        },
        {
          "duration": 2.045452499999996,
          "durationTicks": 1800,
          "midi": 59,
          "name": "B3",
          "ticks": 74880,
          "time": 85.090824,
          "velocity": 0.6771653543307087
        },
        {
          "duration": 2.045452499999996,
          "durationTicks": 1800,
          "midi": 62,
          "name": "D4",
          "ticks": 74880,
          "time": 85.090824,
          "velocity": 0.6456692913385826
        },
        {
          "duration": 2.045452499999996,
          "durationTicks": 1800,
          "midi": 66,
          "name": "F#4",
          "ticks": 74880,
          "time": 85.090824,
          "velocity": 0.7795275590551181
        },
        {
          "duration": 2.045452499999996,
          "durationTicks": 1800,
          "midi": 69,
          "name": "A4",
          "ticks": 74880,
          "time": 85.090824,
          "velocity": 0.7401574803149606
        },
        {
          "duration": 0.2181815999999941,
          "durationTicks": 192,
          "midi": 40,
          "name": "E2",
          "ticks": 75120,
          "time": 85.363551,
          "velocity": 0.6692913385826772
        },
        {
          "duration": 0.2181815999999941,
          "durationTicks": 192,
          "midi": 40,
          "name": "E2",
          "ticks": 75360,
          "time": 85.636278,
          "velocity": 0.7165354330708661
        },
        {
          "duration": 0.2181816000000083,
          "durationTicks": 192,
          "midi": 40,
          "name": "E2",
          "ticks": 75600,
          "time": 85.909005,
          "velocity": 0.7637795275590551
        },
        {
          "duration": 0.2181816000000083,
          "durationTicks": 192,
          "midi": 40,
          "name": "E2",
          "ticks": 75840,
          "time": 86.181732,
          "velocity": 0.7480314960629921
        },
        {
          "duration": 0.2181816000000083,
          "durationTicks": 192,
          "midi": 40,
          "name": "E2",
          "ticks": 76080,
          "time": 86.454459,
          "velocity": 0.6456692913385826
        },
        {
          "duration": 0.2181815999999941,
          "durationTicks": 192,
          "midi": 40,
          "name": "E2",
          "ticks": 76320,
          "time": 86.727186,
          "velocity": 0.7637795275590551
        },
        {
          "duration": 0.2181816000000083,
          "durationTicks": 192,
          "midi": 40,
          "name": "E2",
          "ticks": 76560,
          "time": 86.99991299999999,
          "velocity": 0.7401574803149606
        },
        {
          "duration": 0.2181816000000083,
          "durationTicks": 192,
          "midi": 33,
          "name": "A1",
          "ticks": 76800,
          "time": 87.27264,
          "velocity": 0.7637795275590551
        },
        {
          "duration": 0.6818175000000082,
          "durationTicks": 600,
          "midi": 69,
          "name": "A4",
          "ticks": 76800,
          "time": 87.27264,
          "velocity": 0.7716535433070866
        },
        {
          "duration": 0.6818175000000082,
          "durationTicks": 600,
          "midi": 73,
          "name": "C#5",
          "ticks": 76800,
          "time": 87.27264,
          "velocity": 0.7244094488188977
        },
        {
          "duration": 0.6818175000000082,
          "durationTicks": 600,
          "midi": 76,
          "name": "E5",
          "ticks": 76800,
          "time": 87.27264,
          "velocity": 0.7007874015748031
        },
        {
          "duration": 0.2181816000000083,
          "durationTicks": 192,
          "midi": 33,
          "name": "A1",
          "ticks": 77040,
          "time": 87.545367,
          "velocity": 0.7716535433070866
        },
        {
          "duration": 0.2181815999999941,
          "durationTicks": 192,
          "midi": 33,
          "name": "A1",
          "ticks": 77280,
          "time": 87.818094,
          "velocity": 0.6614173228346457
        },
        {
          "duration": 0.2181815999999941,
          "durationTicks": 192,
          "midi": 33,
          "name": "A1",
          "ticks": 77520,
          "time": 88.090821,
          "velocity": 0.7165354330708661
        },
        {
          "duration": 1.2318169499999954,
          "durationTicks": 1084,
          "midi": 68,
          "name": "G#4",
          "ticks": 77520,
          "time": 88.090821,
          "velocity": 0.7322834645669292
        },
        {
          "duration": 0.6727265999999901,
          "durationTicks": 592,
          "midi": 73,
          "name": "C#5",
          "ticks": 77520,
          "time": 88.090821,
          "velocity": 0.7086614173228346
        },
        {
          "duration": 0.6727265999999901,
          "durationTicks": 592,
          "midi": 78,
          "name": "F#5",
          "ticks": 77520,
          "time": 88.090821,
          "velocity": 0.6771653543307087
        },
        {
          "duration": 0.2181816000000083,
          "durationTicks": 192,
          "midi": 37,
          "name": "C#2",
          "ticks": 77760,
          "time": 88.363548,
          "velocity": 0.7401574803149606
        },
        {
          "duration": 0.2181816000000083,
          "durationTicks": 192,
          "midi": 37,
          "name": "C#2",
          "ticks": 78000,
          "time": 88.636275,
          "velocity": 0.7401574803149606
        },
        {
          "duration": 0.2181816000000083,
          "durationTicks": 192,
          "midi": 37,
          "name": "C#2",
          "ticks": 78240,
          "time": 88.909002,
          "velocity": 0.7480314960629921
        },
        {
          "duration": 0.2181816000000083,
          "durationTicks": 192,
          "midi": 73,
          "name": "C#5",
          "ticks": 78240,
          "time": 88.909002,
          "velocity": 0.7637795275590551
        },
        {
          "duration": 0.2090906999999902,
          "durationTicks": 184,
          "midi": 37,
          "name": "C#2",
          "ticks": 78480,
          "time": 89.181729,
          "velocity": 0.7401574803149606
        },
        {
          "duration": 0.2181815999999941,
          "durationTicks": 192,
          "midi": 71,
          "name": "B4",
          "ticks": 78480,
          "time": 89.181729,
          "velocity": 0.6771653543307087
        },
        {
          "duration": 0.2181816000000083,
          "durationTicks": 192,
          "midi": 42,
          "name": "F#2",
          "ticks": 78720,
          "time": 89.454456,
          "velocity": 0.6771653543307087
        },
        {
          "duration": 0.2181816000000083,
          "durationTicks": 192,
          "midi": 69,
          "name": "A4",
          "ticks": 78720,
          "time": 89.454456,
          "velocity": 0.7716535433070866
        },
        {
          "duration": 0.7499992500000019,
          "durationTicks": 660,
          "midi": 61,
          "name": "C#4",
          "ticks": 78720,
          "time": 89.454456,
          "velocity": 0.7637795275590551
        },
        {
          "duration": 0.2181816000000083,
          "durationTicks": 192,
          "midi": 42,
          "name": "F#2",
          "ticks": 78960,
          "time": 89.727183,
          "velocity": 0.7322834645669292
        },
        {
          "duration": 0.2181816000000083,
          "durationTicks": 192,
          "midi": 66,
          "name": "F#4",
          "ticks": 78960,
          "time": 89.727183,
          "velocity": 0.7637795275590551
        },
        {
          "duration": 0.2181816000000083,
          "durationTicks": 192,
          "midi": 42,
          "name": "F#2",
          "ticks": 79200,
          "time": 89.99991,
          "velocity": 0.7165354330708661
        },
        {
          "duration": 0.2181816000000083,
          "durationTicks": 192,
          "midi": 69,
          "name": "A4",
          "ticks": 79200,
          "time": 89.99991,
          "velocity": 0.6929133858267716
        },
        {
          "duration": 0.10909079999998994,
          "durationTicks": 96,
          "midi": 42,
          "name": "F#2",
          "ticks": 79440,
          "time": 90.272637,
          "velocity": 0.7401574803149606
        },
        {
          "duration": 0.681817499999994,
          "durationTicks": 600,
          "midi": 73,
          "name": "C#5",
          "ticks": 79440,
          "time": 90.272637,
          "velocity": 0.7637795275590551
        },
        {
          "duration": 1.2318169499999954,
          "durationTicks": 1084,
          "midi": 64,
          "name": "E4",
          "ticks": 79440,
          "time": 90.272637,
          "velocity": 0.7086614173228346
        },
        {
          "duration": 0.681817499999994,
          "durationTicks": 600,
          "midi": 69,
          "name": "A4",
          "ticks": 79440,
          "time": 90.272637,
          "velocity": 0.6929133858267716
        },
        {
          "duration": 0.10909079999998994,
          "durationTicks": 96,
          "midi": 42,
          "name": "F#2",
          "ticks": 79560,
          "time": 90.4090005,
          "velocity": 0.7795275590551181
        },
        {
          "duration": 0.2181816000000083,
          "durationTicks": 192,
          "midi": 33,
          "name": "A1",
          "ticks": 79680,
          "time": 90.54536399999999,
          "velocity": 0.7795275590551181
        },
        {
          "duration": 0.2181816000000083,
          "durationTicks": 192,
          "midi": 33,
          "name": "A1",
          "ticks": 79920,
          "time": 90.818091,
          "velocity": 0.7322834645669292
        },
        {
          "duration": 0.2181816000000083,
          "durationTicks": 192,
          "midi": 33,
          "name": "A1",
          "ticks": 80160,
          "time": 91.090818,
          "velocity": 0.6850393700787402
        },
        {
          "duration": 0.4090905000000049,
          "durationTicks": 360,
          "midi": 71,
          "name": "B4",
          "ticks": 80160,
          "time": 91.090818,
          "velocity": 0.7480314960629921
        },
        {
          "duration": 0.2181815999999941,
          "durationTicks": 192,
          "midi": 33,
          "name": "A1",
          "ticks": 80400,
          "time": 91.363545,
          "velocity": 0.7322834645669292
        },
        {
          "duration": 0.2181815999999941,
          "durationTicks": 192,
          "midi": 38,
          "name": "D2",
          "ticks": 80640,
          "time": 91.636272,
          "velocity": 0.7559055118110236
        },
        {
          "duration": 0.2181815999999941,
          "durationTicks": 192,
          "midi": 69,
          "name": "A4",
          "ticks": 80640,
          "time": 91.636272,
          "velocity": 0.7480314960629921
        },
        {
          "duration": 0.2181815999999941,
          "durationTicks": 192,
          "midi": 62,
          "name": "D4",
          "ticks": 80640,
          "time": 91.636272,
          "velocity": 0.7480314960629921
        },
        {
          "duration": 0.2181816000000083,
          "durationTicks": 192,
          "midi": 38,
          "name": "D2",
          "ticks": 80880,
          "time": 91.908999,
          "velocity": 0.7165354330708661
        },
        {
          "duration": 0.2181816000000083,
          "durationTicks": 192,
          "midi": 66,
          "name": "F#4",
          "ticks": 80880,
          "time": 91.908999,
          "velocity": 0.7716535433070866
        },
        {
          "duration": 0.2181816000000083,
          "durationTicks": 192,
          "midi": 38,
          "name": "D2",
          "ticks": 81120,
          "time": 92.181726,
          "velocity": 0.7007874015748031
        },
        {
          "duration": 0.2181816000000083,
          "durationTicks": 192,
          "midi": 69,
          "name": "A4",
          "ticks": 81120,
          "time": 92.181726,
          "velocity": 0.7165354330708661
        },
        {
          "duration": 0.10909079999998994,
          "durationTicks": 96,
          "midi": 38,
          "name": "D2",
          "ticks": 81360,
          "time": 92.454453,
          "velocity": 0.7244094488188977
        },
        {
          "duration": 0.6909084000000121,
          "durationTicks": 608,
          "midi": 74,
          "name": "D5",
          "ticks": 81360,
          "time": 92.454453,
          "velocity": 0.7086614173228346
        },
        {
          "duration": 1.2227260500000057,
          "durationTicks": 1076,
          "midi": 66,
          "name": "F#4",
          "ticks": 81360,
          "time": 92.454453,
          "velocity": 0.7401574803149606
        },
        {
          "duration": 1.2227260500000057,
          "durationTicks": 1076,
          "midi": 69,
          "name": "A4",
          "ticks": 81360,
          "time": 92.454453,
          "velocity": 0.7165354330708661
        },
        {
          "duration": 0.10909079999998994,
          "durationTicks": 96,
          "midi": 38,
          "name": "D2",
          "ticks": 81480,
          "time": 92.5908165,
          "velocity": 0.6535433070866141
        },
        {
          "duration": 0.2181815999999941,
          "durationTicks": 192,
          "midi": 40,
          "name": "E2",
          "ticks": 81600,
          "time": 92.72718,
          "velocity": 0.7244094488188977
        },
        {
          "duration": 0.2181816000000083,
          "durationTicks": 192,
          "midi": 40,
          "name": "E2",
          "ticks": 81840,
          "time": 92.999907,
          "velocity": 0.7165354330708661
        },
        {
          "duration": 0.2181816000000083,
          "durationTicks": 192,
          "midi": 40,
          "name": "E2",
          "ticks": 82080,
          "time": 93.272634,
          "velocity": 0.7165354330708661
        },
        {
          "duration": 0.4090905000000049,
          "durationTicks": 360,
          "midi": 73,
          "name": "C#5",
          "ticks": 82080,
          "time": 93.272634,
          "velocity": 0.7795275590551181
        },
        {
          "duration": 0.10909079999998994,
          "durationTicks": 96,
          "midi": 40,
          "name": "E2",
          "ticks": 82320,
          "time": 93.545361,
          "velocity": 0.7401574803149606
        },
        {
          "duration": 0.10909079999998994,
          "durationTicks": 96,
          "midi": 40,
          "name": "E2",
          "ticks": 82440,
          "time": 93.6817245,
          "velocity": 0.7165354330708661
        },
        {
          "duration": 0.2181815999999941,
          "durationTicks": 192,
          "midi": 33,
          "name": "A1",
          "ticks": 82560,
          "time": 93.818088,
          "velocity": 0.7322834645669292
        },
        {
          "duration": 0.2181815999999941,
          "durationTicks": 192,
          "midi": 57,
          "name": "A3",
          "ticks": 82560,
          "time": 93.818088,
          "velocity": 0.6771653543307087
        },
        {
          "duration": 0.10909080000000415,
          "durationTicks": 96,
          "midi": 33,
          "name": "A1",
          "ticks": 82800,
          "time": 94.09081499999999,
          "velocity": 0.6771653543307087
        },
        {
          "duration": 0.10909080000000415,
          "durationTicks": 96,
          "midi": 57,
          "name": "A3",
          "ticks": 82800,
          "time": 94.09081499999999,
          "velocity": 0.7401574803149606
        },
        {
          "duration": 0.10909080000000415,
          "durationTicks": 96,
          "midi": 57,
          "name": "A3",
          "ticks": 82920,
          "time": 94.2271785,
          "velocity": 0.7637795275590551
        },
        {
          "duration": 0.10909080000000415,
          "durationTicks": 96,
          "midi": 33,
          "name": "A1",
          "ticks": 83040,
          "time": 94.363542,
          "velocity": 0.7244094488188977
        },
        {
          "duration": 0.10909080000000415,
          "durationTicks": 96,
          "midi": 60,
          "name": "C4",
          "ticks": 83040,
          "time": 94.363542,
          "velocity": 0.6929133858267716
        },
        {
          "duration": 0.10909079999998994,
          "durationTicks": 96,
          "midi": 61,
          "name": "C#4",
          "ticks": 83160,
          "time": 94.4999055,
          "velocity": 0.7165354330708661
        },
        {
          "duration": 0.2181816000000083,
          "durationTicks": 192,
          "midi": 33,
          "name": "A1",
          "ticks": 83280,
          "time": 94.636269,
          "velocity": 0.7795275590551181
        },
        {
          "duration": 0.4363632000000024,
          "durationTicks": 384,
          "midi": 64,
          "name": "E4",
          "ticks": 83280,
          "time": 94.636269,
          "velocity": 0.7716535433070866
        },
        {
          "duration": 0.2181815999999941,
          "durationTicks": 192,
          "midi": 33,
          "name": "A1",
          "ticks": 83520,
          "time": 94.908996,
          "velocity": 0.6929133858267716
        },
        {
          "duration": 0.2181815999999941,
          "durationTicks": 192,
          "midi": 33,
          "name": "A1",
          "ticks": 83760,
          "time": 95.181723,
          "velocity": 0.7244094488188977
        },
        {
          "duration": 0.2181815999999941,
          "durationTicks": 192,
          "midi": 64,
          "name": "E4",
          "ticks": 83760,
          "time": 95.181723,
          "velocity": 0.7165354330708661
        },
        {
          "duration": 0.10909080000000415,
          "durationTicks": 96,
          "midi": 33,
          "name": "A1",
          "ticks": 84000,
          "time": 95.45445,
          "velocity": 0.7165354330708661
        },
        {
          "duration": 0.10909080000000415,
          "durationTicks": 96,
          "midi": 65,
          "name": "F4",
          "ticks": 84000,
          "time": 95.45445,
          "velocity": 0.6692913385826772
        },
        {
          "duration": 0.10909079999998994,
          "durationTicks": 96,
          "midi": 66,
          "name": "F#4",
          "ticks": 84120,
          "time": 95.5908135,
          "velocity": 0.7795275590551181
        },
        {
          "duration": 0.2181816000000083,
          "durationTicks": 192,
          "midi": 33,
          "name": "A1",
          "ticks": 84240,
          "time": 95.727177,
          "velocity": 0.7165354330708661
        },
        {
          "duration": 0.2181816000000083,
          "durationTicks": 192,
          "midi": 69,
          "name": "A4",
          "ticks": 84240,
          "time": 95.727177,
          "velocity": 0.7795275590551181
        },
        {
          "duration": 0.2181816000000083,
          "durationTicks": 192,
          "midi": 33,
          "name": "A1",
          "ticks": 84480,
          "time": 95.999904,
          "velocity": 0.7086614173228346
        },
        {
          "duration": 0.2181816000000083,
          "durationTicks": 192,
          "midi": 57,
          "name": "A3",
          "ticks": 84480,
          "time": 95.999904,
          "velocity": 0.7795275590551181
        },
        {
          "duration": 0.10909079999998994,
          "durationTicks": 96,
          "midi": 33,
          "name": "A1",
          "ticks": 84720,
          "time": 96.272631,
          "velocity": 0.7559055118110236
        },
        {
          "duration": 0.10909079999998994,
          "durationTicks": 96,
          "midi": 57,
          "name": "A3",
          "ticks": 84720,
          "time": 96.272631,
          "velocity": 0.7086614173228346
        },
        {
          "duration": 0.10909079999998994,
          "durationTicks": 96,
          "midi": 57,
          "name": "A3",
          "ticks": 84840,
          "time": 96.4089945,
          "velocity": 0.6771653543307087
        },
        {
          "duration": 0.10909080000000415,
          "durationTicks": 96,
          "midi": 33,
          "name": "A1",
          "ticks": 84960,
          "time": 96.545358,
          "velocity": 0.7480314960629921
        },
        {
          "duration": 0.10909080000000415,
          "durationTicks": 96,
          "midi": 60,
          "name": "C4",
          "ticks": 84960,
          "time": 96.545358,
          "velocity": 0.7637795275590551
        },
        {
          "duration": 0.10909080000000415,
          "durationTicks": 96,
          "midi": 61,
          "name": "C#4",
          "ticks": 85080,
          "time": 96.6817215,
          "velocity": 0.7244094488188977
        },
        {
          "duration": 0.2181816000000083,
          "durationTicks": 192,
          "midi": 33,
          "name": "A1",
          "ticks": 85200,
          "time": 96.818085,
          "velocity": 0.7637795275590551
        },
        {
          "duration": 0.4363632000000024,
          "durationTicks": 384,
          "midi": 64,
          "name": "E4",
          "ticks": 85200,
          "time": 96.818085,
          "velocity": 0.7480314960629921
        },
        {
          "duration": 0.2181816000000083,
          "durationTicks": 192,
          "midi": 33,
          "name": "A1",
          "ticks": 85440,
          "time": 97.090812,
          "velocity": 0.7637795275590551
        },
        {
          "duration": 0.2181815999999941,
          "durationTicks": 192,
          "midi": 33,
          "name": "A1",
          "ticks": 85680,
          "time": 97.363539,
          "velocity": 0.7086614173228346
        },
        {
          "duration": 0.2181815999999941,
          "durationTicks": 192,
          "midi": 64,
          "name": "E4",
          "ticks": 85680,
          "time": 97.363539,
          "velocity": 0.7086614173228346
        },
        {
          "duration": 0.10909080000000415,
          "durationTicks": 96,
          "midi": 33,
          "name": "A1",
          "ticks": 85920,
          "time": 97.63626599999999,
          "velocity": 0.7795275590551181
        },
        {
          "duration": 0.10909080000000415,
          "durationTicks": 96,
          "midi": 65,
          "name": "F4",
          "ticks": 85920,
          "time": 97.63626599999999,
          "velocity": 0.7480314960629921
        },
        {
          "duration": 0.10909080000000415,
          "durationTicks": 96,
          "midi": 66,
          "name": "F#4",
          "ticks": 86040,
          "time": 97.7726295,
          "velocity": 0.7007874015748031
        },
        {
          "duration": 0.2181816000000083,
          "durationTicks": 192,
          "midi": 33,
          "name": "A1",
          "ticks": 86160,
          "time": 97.908993,
          "velocity": 0.7559055118110236
        },
        {
          "duration": 0.2181816000000083,
          "durationTicks": 192,
          "midi": 69,
          "name": "A4",
          "ticks": 86160,
          "time": 97.908993,
          "velocity": 0.7165354330708661
        },
        {
          "duration": 0.2181816000000083,
          "durationTicks": 192,
          "midi": 38,
          "name": "D2",
          "ticks": 86400,
          "time": 98.18172,
          "velocity": 0.6771653543307087
        },
        {
          "duration": 0.9454535999999933,
          "durationTicks": 832,
          "midi": 66,
          "name": "F#4",
          "ticks": 86400,
          "time": 98.18172,
          "velocity": 0.6850393700787402
        },
        {
          "duration": 0.9454535999999933,
          "durationTicks": 832,
          "midi": 69,
          "name": "A4",
          "ticks": 86400,
          "time": 98.18172,
          "velocity": 0.7795275590551181
        },
        {
          "duration": 0.9545444999999972,
          "durationTicks": 840,
          "midi": 74,
          "name": "D5",
          "ticks": 86400,
          "time": 98.18172,
          "velocity": 0.7244094488188977
        },
        {
          "duration": 0.2181815999999941,
          "durationTicks": 192,
          "midi": 38,
          "name": "D2",
          "ticks": 86640,
          "time": 98.454447,
          "velocity": 0.7480314960629921
        },
        {
          "duration": 0.2181815999999941,
          "durationTicks": 192,
          "midi": 38,
          "name": "D2",
          "ticks": 86880,
          "time": 98.727174,
          "velocity": 0.7795275590551181
        },
        {
          "duration": 0.2181816000000083,
          "durationTicks": 192,
          "midi": 38,
          "name": "D2",
          "ticks": 87120,
          "time": 98.999901,
          "velocity": 0.7716535433070866
        },
        {
          "duration": 0.2181816000000083,
          "durationTicks": 192,
          "midi": 40,
          "name": "E2",
          "ticks": 87360,
          "time": 99.272628,
          "velocity": 0.6535433070866141
        },
        {
          "duration": 0.9545444999999972,
          "durationTicks": 840,
          "midi": 64,
          "name": "E4",
          "ticks": 87360,
          "time": 99.272628,
          "velocity": 0.6850393700787402
        },
        {
          "duration": 0.9545444999999972,
          "durationTicks": 840,
          "midi": 68,
          "name": "G#4",
          "ticks": 87360,
          "time": 99.272628,
          "velocity": 0.7401574803149606
        },
        {
          "duration": 0.9545444999999972,
          "durationTicks": 840,
          "midi": 71,
          "name": "B4",
          "ticks": 87360,
          "time": 99.272628,
          "velocity": 0.7559055118110236
        },
        {
          "duration": 0.2181816000000083,
          "durationTicks": 192,
          "midi": 40,
          "name": "E2",
          "ticks": 87600,
          "time": 99.545355,
          "velocity": 0.6771653543307087
        },
        {
          "duration": 0.2181815999999941,
          "durationTicks": 192,
          "midi": 40,
          "name": "E2",
          "ticks": 87840,
          "time": 99.818082,
          "velocity": 0.7244094488188977
        },
        {
          "duration": 0.19999980000001472,
          "durationTicks": 176,
          "midi": 40,
          "name": "E2",
          "ticks": 88080,
          "time": 100.090809,
          "velocity": 0.7322834645669292
        },
        {
          "duration": 0.2181816000000083,
          "durationTicks": 192,
          "midi": 45,
          "name": "A2",
          "ticks": 88320,
          "time": 100.363536,
          "velocity": 0.7795275590551181
        },
        {
          "duration": 0.9636354000000154,
          "durationTicks": 848,
          "midi": 64,
          "name": "E4",
          "ticks": 88320,
          "time": 100.363536,
          "velocity": 0.7401574803149606
        },
        {
          "duration": 0.9545444999999972,
          "durationTicks": 840,
          "midi": 69,
          "name": "A4",
          "ticks": 88320,
          "time": 100.363536,
          "velocity": 0.7322834645669292
        },
        {
          "duration": 0.9454535999999933,
          "durationTicks": 832,
          "midi": 73,
          "name": "C#5",
          "ticks": 88320,
          "time": 100.363536,
          "velocity": 0.7480314960629921
        },
        {
          "duration": 0.9454535999999933,
          "durationTicks": 832,
          "midi": 76,
          "name": "E5",
          "ticks": 88320,
          "time": 100.363536,
          "velocity": 0.7007874015748031
        },
        {
          "duration": 0.2181816000000083,
          "durationTicks": 192,
          "midi": 45,
          "name": "A2",
          "ticks": 88560,
          "time": 100.636263,
          "velocity": 0.7244094488188977
        },
        {
          "duration": 0.2181815999999941,
          "durationTicks": 192,
          "midi": 45,
          "name": "A2",
          "ticks": 88800,
          "time": 100.90899,
          "velocity": 0.7716535433070866
        },
        {
          "duration": 0.2181816000000083,
          "durationTicks": 192,
          "midi": 45,
          "name": "A2",
          "ticks": 89040,
          "time": 101.18171699999999,
          "velocity": 0.7244094488188977
        },
        {
          "duration": 0.2181816000000083,
          "durationTicks": 192,
          "midi": 45,
          "name": "A2",
          "ticks": 89280,
          "time": 101.454444,
          "velocity": 0.7716535433070866
        },
        {
          "duration": 0.9545444999999972,
          "durationTicks": 840,
          "midi": 64,
          "name": "E4",
          "ticks": 89280,
          "time": 101.454444,
          "velocity": 0.7165354330708661
        },
        {
          "duration": 0.9454535999999933,
          "durationTicks": 832,
          "midi": 69,
          "name": "A4",
          "ticks": 89280,
          "time": 101.454444,
          "velocity": 0.7322834645669292
        },
        {
          "duration": 0.9545444999999972,
          "durationTicks": 840,
          "midi": 73,
          "name": "C#5",
          "ticks": 89280,
          "time": 101.454444,
          "velocity": 0.7795275590551181
        },
        {
          "duration": 0.2181816000000083,
          "durationTicks": 192,
          "midi": 45,
          "name": "A2",
          "ticks": 89520,
          "time": 101.727171,
          "velocity": 0.6929133858267716
        },
        {
          "duration": 0.2181815999999941,
          "durationTicks": 192,
          "midi": 45,
          "name": "A2",
          "ticks": 89760,
          "time": 101.999898,
          "velocity": 0.7559055118110236
        },
        {
          "duration": 0.2181815999999941,
          "durationTicks": 192,
          "midi": 45,
          "name": "A2",
          "ticks": 90000,
          "time": 102.272625,
          "velocity": 0.6535433070866141
        },
        {
          "duration": 0.2181816000000083,
          "durationTicks": 192,
          "midi": 47,
          "name": "B2",
          "ticks": 90240,
          "time": 102.545352,
          "velocity": 0.7086614173228346
        },
        {
          "duration": 0.9545445000000115,
          "durationTicks": 840,
          "midi": 66,
          "name": "F#4",
          "ticks": 90240,
          "time": 102.545352,
          "velocity": 0.6377952755905512
        },
        {
          "duration": 0.9545445000000115,
          "durationTicks": 840,
          "midi": 69,
          "name": "A4",
          "ticks": 90240,
          "time": 102.545352,
          "velocity": 0.7795275590551181
        },
        {
          "duration": 0.9545445000000115,
          "durationTicks": 840,
          "midi": 74,
          "name": "D5",
          "ticks": 90240,
          "time": 102.545352,
          "velocity": 0.7716535433070866
        },
        {
          "duration": 0.2181816000000083,
          "durationTicks": 192,
          "midi": 47,
          "name": "B2",
          "ticks": 90480,
          "time": 102.818079,
          "velocity": 0.7244094488188977
        },
        {
          "duration": 0.2181816000000083,
          "durationTicks": 192,
          "midi": 47,
          "name": "B2",
          "ticks": 90720,
          "time": 103.090806,
          "velocity": 0.7637795275590551
        },
        {
          "duration": 0.2181815999999941,
          "durationTicks": 192,
          "midi": 47,
          "name": "B2",
          "ticks": 90960,
          "time": 103.363533,
          "velocity": 0.7795275590551181
        },
        {
          "duration": 0.2181816000000083,
          "durationTicks": 192,
          "midi": 40,
          "name": "E2",
          "ticks": 91200,
          "time": 103.63626,
          "velocity": 0.7559055118110236
        },
        {
          "duration": 0.9545445000000115,
          "durationTicks": 840,
          "midi": 64,
          "name": "E4",
          "ticks": 91200,
          "time": 103.63626,
          "velocity": 0.7244094488188977
        },
        {
          "duration": 0.9454535999999933,
          "durationTicks": 832,
          "midi": 68,
          "name": "G#4",
          "ticks": 91200,
          "time": 103.63626,
          "velocity": 0.7480314960629921
        },
        {
          "duration": 0.9545445000000115,
          "durationTicks": 840,
          "midi": 71,
          "name": "B4",
          "ticks": 91200,
          "time": 103.63626,
          "velocity": 0.7244094488188977
        },
        {
          "duration": 0.2181816000000083,
          "durationTicks": 192,
          "midi": 40,
          "name": "E2",
          "ticks": 91440,
          "time": 103.908987,
          "velocity": 0.7322834645669292
        },
        {
          "duration": 0.2181816000000083,
          "durationTicks": 192,
          "midi": 40,
          "name": "E2",
          "ticks": 91680,
          "time": 104.181714,
          "velocity": 0.7244094488188977
        },
        {
          "duration": 0.2181815999999941,
          "durationTicks": 192,
          "midi": 40,
          "name": "E2",
          "ticks": 91920,
          "time": 104.454441,
          "velocity": 0.7322834645669292
        },
        {
          "duration": 0.2181815999999941,
          "durationTicks": 192,
          "midi": 45,
          "name": "A2",
          "ticks": 92160,
          "time": 104.727168,
          "velocity": 0.7795275590551181
        },
        {
          "duration": 0.2181815999999941,
          "durationTicks": 192,
          "midi": 64,
          "name": "E4",
          "ticks": 92160,
          "time": 104.727168,
          "velocity": 0.7716535433070866
        },
        {
          "duration": 2.0363615999999922,
          "durationTicks": 1792,
          "midi": 69,
          "name": "A4",
          "ticks": 92160,
          "time": 104.727168,
          "velocity": 0.7480314960629921
        },
        {
          "duration": 2.0363615999999922,
          "durationTicks": 1792,
          "midi": 73,
          "name": "C#5",
          "ticks": 92160,
          "time": 104.727168,
          "velocity": 0.7637795275590551
        },
        {
          "duration": 0.2181816000000083,
          "durationTicks": 192,
          "midi": 45,
          "name": "A2",
          "ticks": 92400,
          "time": 104.999895,
          "velocity": 0.7559055118110236
        },
        {
          "duration": 0.2181816000000083,
          "durationTicks": 192,
          "midi": 64,
          "name": "E4",
          "ticks": 92400,
          "time": 104.999895,
          "velocity": 0.7401574803149606
        },
        {
          "duration": 0.2181816000000083,
          "durationTicks": 192,
          "midi": 45,
          "name": "A2",
          "ticks": 92640,
          "time": 105.272622,
          "velocity": 0.7322834645669292
        },
        {
          "duration": 0.2181816000000083,
          "durationTicks": 192,
          "midi": 66,
          "name": "F#4",
          "ticks": 92640,
          "time": 105.272622,
          "velocity": 0.7401574803149606
        },
        {
          "duration": 0.2181815999999941,
          "durationTicks": 192,
          "midi": 45,
          "name": "A2",
          "ticks": 92880,
          "time": 105.545349,
          "velocity": 0.7322834645669292
        },
        {
          "duration": 0.2181815999999941,
          "durationTicks": 192,
          "midi": 66,
          "name": "F#4",
          "ticks": 92880,
          "time": 105.545349,
          "velocity": 0.6929133858267716
        },
        {
          "duration": 0.2181815999999941,
          "durationTicks": 192,
          "midi": 45,
          "name": "A2",
          "ticks": 93120,
          "time": 105.818076,
          "velocity": 0.7401574803149606
        },
        {
          "duration": 0.2181815999999941,
          "durationTicks": 192,
          "midi": 64,
          "name": "E4",
          "ticks": 93120,
          "time": 105.818076,
          "velocity": 0.7795275590551181
        },
        {
          "duration": 0.2181816000000083,
          "durationTicks": 192,
          "midi": 45,
          "name": "A2",
          "ticks": 93360,
          "time": 106.090803,
          "velocity": 0.7086614173228346
        },
        {
          "duration": 0.2181816000000083,
          "durationTicks": 192,
          "midi": 64,
          "name": "E4",
          "ticks": 93360,
          "time": 106.090803,
          "velocity": 0.6692913385826772
        },
        {
          "duration": 0.2181816000000083,
          "durationTicks": 192,
          "midi": 45,
          "name": "A2",
          "ticks": 93600,
          "time": 106.36353,
          "velocity": 0.7086614173228346
        },
        {
          "duration": 0.2181816000000083,
          "durationTicks": 192,
          "midi": 66,
          "name": "F#4",
          "ticks": 93600,
          "time": 106.36353,
          "velocity": 0.7716535433070866
        },
        {
          "duration": 0.2181816000000083,
          "durationTicks": 192,
          "midi": 45,
          "name": "A2",
          "ticks": 93840,
          "time": 106.636257,
          "velocity": 0.7086614173228346
        },
        {
          "duration": 0.2181816000000083,
          "durationTicks": 192,
          "midi": 66,
          "name": "F#4",
          "ticks": 93840,
          "time": 106.636257,
          "velocity": 0.7322834645669292
        },
        {
          "duration": 0.2181815999999941,
          "durationTicks": 192,
          "midi": 38,
          "name": "D2",
          "ticks": 94080,
          "time": 106.908984,
          "velocity": 0.6771653543307087
        },
        {
          "duration": 0.9454535999999933,
          "durationTicks": 832,
          "midi": 66,
          "name": "F#4",
          "ticks": 94080,
          "time": 106.908984,
          "velocity": 0.7795275590551181
        },
        {
          "duration": 0.9363626999999894,
          "durationTicks": 824,
          "midi": 69,
          "name": "A4",
          "ticks": 94080,
          "time": 106.908984,
          "velocity": 0.7637795275590551
        },
        {
          "duration": 0.9363626999999894,
          "durationTicks": 824,
          "midi": 74,
          "name": "D5",
          "ticks": 94080,
          "time": 106.908984,
          "velocity": 0.7322834645669292
        },
        {
          "duration": 0.2181816000000083,
          "durationTicks": 192,
          "midi": 38,
          "name": "D2",
          "ticks": 94320,
          "time": 107.18171099999999,
          "velocity": 0.7086614173228346
        },
        {
          "duration": 0.2181816000000083,
          "durationTicks": 192,
          "midi": 38,
          "name": "D2",
          "ticks": 94560,
          "time": 107.454438,
          "velocity": 0.7007874015748031
        },
        {
          "duration": 0.2181816000000083,
          "durationTicks": 192,
          "midi": 38,
          "name": "D2",
          "ticks": 94800,
          "time": 107.727165,
          "velocity": 0.7401574803149606
        },
        {
          "duration": 0.2181815999999941,
          "durationTicks": 192,
          "midi": 40,
          "name": "E2",
          "ticks": 95040,
          "time": 107.999892,
          "velocity": 0.7637795275590551
        },
        {
          "duration": 0.9545444999999972,
          "durationTicks": 840,
          "midi": 64,
          "name": "E4",
          "ticks": 95040,
          "time": 107.999892,
          "velocity": 0.7716535433070866
        },
        {
          "duration": 0.9545444999999972,
          "durationTicks": 840,
          "midi": 68,
          "name": "G#4",
          "ticks": 95040,
          "time": 107.999892,
          "velocity": 0.7716535433070866
        },
        {
          "duration": 0.9545444999999972,
          "durationTicks": 840,
          "midi": 71,
          "name": "B4",
          "ticks": 95040,
          "time": 107.999892,
          "velocity": 0.7637795275590551
        },
        {
          "duration": 0.2181815999999941,
          "durationTicks": 192,
          "midi": 40,
          "name": "E2",
          "ticks": 95280,
          "time": 108.272619,
          "velocity": 0.7322834645669292
        },
        {
          "duration": 0.2181816000000083,
          "durationTicks": 192,
          "midi": 40,
          "name": "E2",
          "ticks": 95520,
          "time": 108.545346,
          "velocity": 0.6929133858267716
        },
        {
          "duration": 0.2181816000000083,
          "durationTicks": 192,
          "midi": 40,
          "name": "E2",
          "ticks": 95760,
          "time": 108.818073,
          "velocity": 0.7165354330708661
        },
        {
          "duration": 0.2181815999999941,
          "durationTicks": 192,
          "midi": 45,
          "name": "A2",
          "ticks": 96000,
          "time": 109.0908,
          "velocity": 0.7165354330708661
        },
        {
          "duration": 0.9454535999999933,
          "durationTicks": 832,
          "midi": 64,
          "name": "E4",
          "ticks": 96000,
          "time": 109.0908,
          "velocity": 0.7480314960629921
        },
        {
          "duration": 0.9454535999999933,
          "durationTicks": 832,
          "midi": 69,
          "name": "A4",
          "ticks": 96000,
          "time": 109.0908,
          "velocity": 0.7165354330708661
        },
        {
          "duration": 0.9454535999999933,
          "durationTicks": 832,
          "midi": 73,
          "name": "C#5",
          "ticks": 96000,
          "time": 109.0908,
          "velocity": 0.7637795275590551
        },
        {
          "duration": 0.9545444999999972,
          "durationTicks": 840,
          "midi": 76,
          "name": "E5",
          "ticks": 96000,
          "time": 109.0908,
          "velocity": 0.7401574803149606
        },
        {
          "duration": 0.2181815999999941,
          "durationTicks": 192,
          "midi": 45,
          "name": "A2",
          "ticks": 96240,
          "time": 109.363527,
          "velocity": 0.7244094488188977
        },
        {
          "duration": 0.2181816000000083,
          "durationTicks": 192,
          "midi": 45,
          "name": "A2",
          "ticks": 96480,
          "time": 109.636254,
          "velocity": 0.7637795275590551
        },
        {
          "duration": 0.2181816000000083,
          "durationTicks": 192,
          "midi": 45,
          "name": "A2",
          "ticks": 96720,
          "time": 109.908981,
          "velocity": 0.7244094488188977
        },
        {
          "duration": 0.2181816000000083,
          "durationTicks": 192,
          "midi": 42,
          "name": "F#2",
          "ticks": 96960,
          "time": 110.181708,
          "velocity": 0.7244094488188977
        },
        {
          "duration": 0.9545444999999972,
          "durationTicks": 840,
          "midi": 66,
          "name": "F#4",
          "ticks": 96960,
          "time": 110.181708,
          "velocity": 0.7086614173228346
        },
        {
          "duration": 0.9545444999999972,
          "durationTicks": 840,
          "midi": 69,
          "name": "A4",
          "ticks": 96960,
          "time": 110.181708,
          "velocity": 0.7637795275590551
        },
        {
          "duration": 0.9454535999999933,
          "durationTicks": 832,
          "midi": 73,
          "name": "C#5",
          "ticks": 96960,
          "time": 110.181708,
          "velocity": 0.7322834645669292
        },
        {
          "duration": 0.2181815999999941,
          "durationTicks": 192,
          "midi": 42,
          "name": "F#2",
          "ticks": 97200,
          "time": 110.454435,
          "velocity": 0.7480314960629921
        },
        {
          "duration": 0.2181816000000083,
          "durationTicks": 192,
          "midi": 42,
          "name": "F#2",
          "ticks": 97440,
          "time": 110.72716199999999,
          "velocity": 0.7007874015748031
        },
        {
          "duration": 0.2181816000000083,
          "durationTicks": 192,
          "midi": 42,
          "name": "F#2",
          "ticks": 97680,
          "time": 110.999889,
          "velocity": 0.6692913385826772
        },
        {
          "duration": 0.2181816000000083,
          "durationTicks": 192,
          "midi": 47,
          "name": "B2",
          "ticks": 97920,
          "time": 111.272616,
          "velocity": 0.6692913385826772
        },
        {
          "duration": 0.9272717999999998,
          "durationTicks": 816,
          "midi": 71,
          "name": "B4",
          "ticks": 97920,
          "time": 111.272616,
          "velocity": 0.7480314960629921
        },
        {
          "duration": 2.045452499999996,
          "durationTicks": 1800,
          "midi": 57,
          "name": "A3",
          "ticks": 97920,
          "time": 111.272616,
          "velocity": 0.7559055118110236
        },
        {
          "duration": 2.0545434,
          "durationTicks": 1808,
          "midi": 63,
          "name": "D#4",
          "ticks": 97920,
          "time": 111.272616,
          "velocity": 0.6535433070866141
        },
        {
          "duration": 2.045452499999996,
          "durationTicks": 1800,
          "midi": 66,
          "name": "F#4",
          "ticks": 97920,
          "time": 111.272616,
          "velocity": 0.7716535433070866
        },
        {
          "duration": 0.2181815999999941,
          "durationTicks": 192,
          "midi": 47,
          "name": "B2",
          "ticks": 98160,
          "time": 111.545343,
          "velocity": 0.7322834645669292
        },
        {
          "duration": 0.2181815999999941,
          "durationTicks": 192,
          "midi": 47,
          "name": "B2",
          "ticks": 98400,
          "time": 111.81807,
          "velocity": 0.7637795275590551
        },
        {
          "duration": 0.2181816000000083,
          "durationTicks": 192,
          "midi": 47,
          "name": "B2",
          "ticks": 98640,
          "time": 112.090797,
          "velocity": 0.6692913385826772
        },
        {
          "duration": 0.2181816000000083,
          "durationTicks": 192,
          "midi": 47,
          "name": "B2",
          "ticks": 98880,
          "time": 112.363524,
          "velocity": 0.7322834645669292
        },
        {
          "duration": 0.9545444999999972,
          "durationTicks": 840,
          "midi": 75,
          "name": "D#5",
          "ticks": 98880,
          "time": 112.363524,
          "velocity": 0.7716535433070866
        },
        {
          "duration": 0.2181815999999941,
          "durationTicks": 192,
          "midi": 47,
          "name": "B2",
          "ticks": 99120,
          "time": 112.636251,
          "velocity": 0.7086614173228346
        },
        {
          "duration": 0.2181815999999941,
          "durationTicks": 192,
          "midi": 47,
          "name": "B2",
          "ticks": 99360,
          "time": 112.908978,
          "velocity": 0.7559055118110236
        },
        {
          "duration": 0.2181816000000083,
          "durationTicks": 192,
          "midi": 47,
          "name": "B2",
          "ticks": 99600,
          "time": 113.181705,
          "velocity": 0.7795275590551181
        },
        {
          "duration": 0.2181816000000083,
          "durationTicks": 192,
          "midi": 40,
          "name": "E2",
          "ticks": 99840,
          "time": 113.454432,
          "velocity": 0.6535433070866141
        },
        {
          "duration": 2.0363615999999922,
          "durationTicks": 1792,
          "midi": 68,
          "name": "G#4",
          "ticks": 99840,
          "time": 113.454432,
          "velocity": 0.7795275590551181
        },
        {
          "duration": 2.045452499999996,
          "durationTicks": 1800,
          "midi": 71,
          "name": "B4",
          "ticks": 99840,
          "time": 113.454432,
          "velocity": 0.7401574803149606
        },
        {
          "duration": 2.045452499999996,
          "durationTicks": 1800,
          "midi": 76,
          "name": "E5",
          "ticks": 99840,
          "time": 113.454432,
          "velocity": 0.6850393700787402
        },
        {
          "duration": 0.2181816000000083,
          "durationTicks": 192,
          "midi": 40,
          "name": "E2",
          "ticks": 100080,
          "time": 113.727159,
          "velocity": 0.7007874015748031
        },
        {
          "duration": 0.2181815999999941,
          "durationTicks": 192,
          "midi": 40,
          "name": "E2",
          "ticks": 100320,
          "time": 113.999886,
          "velocity": 0.6771653543307087
        },
        {
          "duration": 0.10909080000000415,
          "durationTicks": 96,
          "midi": 40,
          "name": "E2",
          "ticks": 100560,
          "time": 114.27261299999999,
          "velocity": 0.7244094488188977
        },
        {
          "duration": 0.10909080000000415,
          "durationTicks": 96,
          "midi": 40,
          "name": "E2",
          "ticks": 100680,
          "time": 114.4089765,
          "velocity": 0.7480314960629921
        },
        {
          "duration": 0.2181816000000083,
          "durationTicks": 192,
          "midi": 40,
          "name": "E2",
          "ticks": 100800,
          "time": 114.54534,
          "velocity": 0.7795275590551181
        },
        {
          "duration": 0.2181816000000083,
          "durationTicks": 192,
          "midi": 40,
          "name": "E2",
          "ticks": 101040,
          "time": 114.818067,
          "velocity": 0.7401574803149606
        },
        {
          "duration": 0.2181815999999941,
          "durationTicks": 192,
          "midi": 40,
          "name": "E2",
          "ticks": 101280,
          "time": 115.090794,
          "velocity": 0.7480314960629921
        },
        {
          "duration": 0.10909079999998994,
          "durationTicks": 96,
          "midi": 40,
          "name": "E2",
          "ticks": 101520,
          "time": 115.363521,
          "velocity": 0.7165354330708661
        },
        {
          "duration": 0.10909080000000415,
          "durationTicks": 96,
          "midi": 40,
          "name": "E2",
          "ticks": 101640,
          "time": 115.4998845,
          "velocity": 0.6535433070866141
        },
        {
          "duration": 0.2181816000000083,
          "durationTicks": 192,
          "midi": 41,
          "name": "F2",
          "ticks": 101760,
          "time": 115.636248,
          "velocity": 0.7244094488188977
        },
        {
          "duration": 2.0363615999999922,
          "durationTicks": 1792,
          "midi": 60,
          "name": "C4",
          "ticks": 101760,
          "time": 115.636248,
          "velocity": 0.7716535433070866
        },
        {
          "duration": 2.0454525000000103,
          "durationTicks": 1800,
          "midi": 65,
          "name": "F4",
          "ticks": 101760,
          "time": 115.636248,
          "velocity": 0.6929133858267716
        },
        {
          "duration": 2.0363615999999922,
          "durationTicks": 1792,
          "midi": 69,
          "name": "A4",
          "ticks": 101760,
          "time": 115.636248,
          "velocity": 0.6850393700787402
        },
        {
          "duration": 2.0363615999999922,
          "durationTicks": 1792,
          "midi": 72,
          "name": "C5",
          "ticks": 101760,
          "time": 115.636248,
          "velocity": 0.6929133858267716
        },
        {
          "duration": 0.2181816000000083,
          "durationTicks": 192,
          "midi": 41,
          "name": "F2",
          "ticks": 102000,
          "time": 115.908975,
          "velocity": 0.7716535433070866
        },
        {
          "duration": 0.2181815999999941,
          "durationTicks": 192,
          "midi": 41,
          "name": "F2",
          "ticks": 102240,
          "time": 116.181702,
          "velocity": 0.6692913385826772
        },
        {
          "duration": 0.10909079999998994,
          "durationTicks": 96,
          "midi": 41,
          "name": "F2",
          "ticks": 102480,
          "time": 116.454429,
          "velocity": 0.7637795275590551
        },
        {
          "duration": 0.10909080000000415,
          "durationTicks": 96,
          "midi": 41,
          "name": "F2",
          "ticks": 102600,
          "time": 116.59079249999999,
          "velocity": 0.6929133858267716
        },
        {
          "duration": 0.2181816000000083,
          "durationTicks": 192,
          "midi": 41,
          "name": "F2",
          "ticks": 102720,
          "time": 116.727156,
          "velocity": 0.6771653543307087
        },
        {
          "duration": 0.2181816000000083,
          "durationTicks": 192,
          "midi": 41,
          "name": "F2",
          "ticks": 102960,
          "time": 116.999883,
          "velocity": 0.7244094488188977
        },
        {
          "duration": 0.2181816000000083,
          "durationTicks": 192,
          "midi": 41,
          "name": "F2",
          "ticks": 103200,
          "time": 117.27261,
          "velocity": 0.7244094488188977
        },
        {
          "duration": 0.1909088999999966,
          "durationTicks": 168,
          "midi": 41,
          "name": "F2",
          "ticks": 103440,
          "time": 117.545337,
          "velocity": 0.7244094488188977
        },
        {
          "duration": 0.2181816000000083,
          "durationTicks": 192,
          "midi": 34,
          "name": "A#1",
          "ticks": 103680,
          "time": 117.81806399999999,
          "velocity": 0.6614173228346457
        },
        {
          "duration": 0.4090905000000049,
          "durationTicks": 360,
          "midi": 58,
          "name": "A#3",
          "ticks": 103680,
          "time": 117.81806399999999,
          "velocity": 0.7401574803149606
        },
        {
          "duration": 0.4090905000000049,
          "durationTicks": 360,
          "midi": 62,
          "name": "D4",
          "ticks": 103680,
          "time": 117.81806399999999,
          "velocity": 0.7716535433070866
        },
        {
          "duration": 0.4090905000000049,
          "durationTicks": 360,
          "midi": 65,
          "name": "F4",
          "ticks": 103680,
          "time": 117.81806399999999,
          "velocity": 0.7322834645669292
        },
        {
          "duration": 0.2181816000000083,
          "durationTicks": 192,
          "midi": 34,
          "name": "A#1",
          "ticks": 103920,
          "time": 118.090791,
          "velocity": 0.7559055118110236
        },
        {
          "duration": 0.2181816000000083,
          "durationTicks": 192,
          "midi": 34,
          "name": "A#1",
          "ticks": 104160,
          "time": 118.363518,
          "velocity": 0.6929133858267716
        },
        {
          "duration": 0.4090905000000049,
          "durationTicks": 360,
          "midi": 58,
          "name": "A#3",
          "ticks": 104160,
          "time": 118.363518,
          "velocity": 0.7322834645669292
        },
        {
          "duration": 0.4090905000000049,
          "durationTicks": 360,
          "midi": 62,
          "name": "D4",
          "ticks": 104160,
          "time": 118.363518,
          "velocity": 0.7716535433070866
        },
        {
          "duration": 0.4090905000000049,
          "durationTicks": 360,
          "midi": 67,
          "name": "G4",
          "ticks": 104160,
          "time": 118.363518,
          "velocity": 0.7480314960629921
        },
        {
          "duration": 0.2181815999999941,
          "durationTicks": 192,
          "midi": 34,
          "name": "A#1",
          "ticks": 104400,
          "time": 118.636245,
          "velocity": 0.7322834645669292
        },
        {
          "duration": 0.2181815999999941,
          "durationTicks": 192,
          "midi": 34,
          "name": "A#1",
          "ticks": 104640,
          "time": 118.908972,
          "velocity": 0.7559055118110236
        },
        {
          "duration": 0.4181813999999946,
          "durationTicks": 368,
          "midi": 58,
          "name": "A#3",
          "ticks": 104640,
          "time": 118.908972,
          "velocity": 0.7716535433070866
        },
        {
          "duration": 0.4181813999999946,
          "durationTicks": 368,
          "midi": 62,
          "name": "D4",
          "ticks": 104640,
          "time": 118.908972,
          "velocity": 0.6535433070866141
        },
        {
          "duration": 0.4181813999999946,
          "durationTicks": 368,
          "midi": 65,
          "name": "F4",
          "ticks": 104640,
          "time": 118.908972,
          "velocity": 0.7716535433070866
        },
        {
          "duration": 0.2181816000000083,
          "durationTicks": 192,
          "midi": 34,
          "name": "A#1",
          "ticks": 104880,
          "time": 119.181699,
          "velocity": 0.7007874015748031
        },
        {
          "duration": 0.2181816000000083,
          "durationTicks": 192,
          "midi": 34,
          "name": "A#1",
          "ticks": 105120,
          "time": 119.454426,
          "velocity": 0.6771653543307087
        },
        {
          "duration": 0.4090905000000049,
          "durationTicks": 360,
          "midi": 58,
          "name": "A#3",
          "ticks": 105120,
          "time": 119.454426,
          "velocity": 0.7795275590551181
        },
        {
          "duration": 0.4090905000000049,
          "durationTicks": 360,
          "midi": 62,
          "name": "D4",
          "ticks": 105120,
          "time": 119.454426,
          "velocity": 0.7165354330708661
        },
        {
          "duration": 0.4181814000000088,
          "durationTicks": 368,
          "midi": 67,
          "name": "G4",
          "ticks": 105120,
          "time": 119.454426,
          "velocity": 0.6614173228346457
        },
        {
          "duration": 0.10909079999998994,
          "durationTicks": 96,
          "midi": 34,
          "name": "A#1",
          "ticks": 105360,
          "time": 119.727153,
          "velocity": 0.7559055118110236
        },
        {
          "duration": 0.10909079999998994,
          "durationTicks": 96,
          "midi": 34,
          "name": "A#1",
          "ticks": 105480,
          "time": 119.8635165,
          "velocity": 0.7401574803149606
        },
        {
          "duration": 0.2181815999999941,
          "durationTicks": 192,
          "midi": 31,
          "name": "G1",
          "ticks": 105600,
          "time": 119.99988,
          "velocity": 0.7086614173228346
        },
        {
          "duration": 0.4090904999999907,
          "durationTicks": 360,
          "midi": 65,
          "name": "F4",
          "ticks": 105600,
          "time": 119.99988,
          "velocity": 0.6929133858267716
        },
        {
          "duration": 0.4181813999999946,
          "durationTicks": 368,
          "midi": 62,
          "name": "D4",
          "ticks": 105600,
          "time": 119.99988,
          "velocity": 0.6850393700787402
        },
        {
          "duration": 0.4181813999999946,
          "durationTicks": 368,
          "midi": 58,
          "name": "A#3",
          "ticks": 105600,
          "time": 119.99988,
          "velocity": 0.7401574803149606
        },
        {
          "duration": 0.2181816000000083,
          "durationTicks": 192,
          "midi": 31,
          "name": "G1",
          "ticks": 105840,
          "time": 120.272607,
          "velocity": 0.7244094488188977
        },
        {
          "duration": 0.2181816000000083,
          "durationTicks": 192,
          "midi": 31,
          "name": "G1",
          "ticks": 106080,
          "time": 120.545334,
          "velocity": 0.7559055118110236
        },
        {
          "duration": 0.4090905000000049,
          "durationTicks": 360,
          "midi": 67,
          "name": "G4",
          "ticks": 106080,
          "time": 120.545334,
          "velocity": 0.7244094488188977
        },
        {
          "duration": 0.4090905000000049,
          "durationTicks": 360,
          "midi": 62,
          "name": "D4",
          "ticks": 106080,
          "time": 120.545334,
          "velocity": 0.7637795275590551
        },
        {
          "duration": 0.39545414999999196,
          "durationTicks": 348,
          "midi": 58,
          "name": "A#3",
          "ticks": 106080,
          "time": 120.545334,
          "velocity": 0.7322834645669292
        },
        {
          "duration": 0.2181816000000083,
          "durationTicks": 192,
          "midi": 31,
          "name": "G1",
          "ticks": 106320,
          "time": 120.818061,
          "velocity": 0.7165354330708661
        },
        {
          "duration": 0.2181815999999941,
          "durationTicks": 192,
          "midi": 31,
          "name": "G1",
          "ticks": 106560,
          "time": 121.090788,
          "velocity": 0.6929133858267716
        },
        {
          "duration": 0.4090904999999907,
          "durationTicks": 360,
          "midi": 65,
          "name": "F4",
          "ticks": 106560,
          "time": 121.090788,
          "velocity": 0.7716535433070866
        },
        {
          "duration": 0.4090904999999907,
          "durationTicks": 360,
          "midi": 62,
          "name": "D4",
          "ticks": 106560,
          "time": 121.090788,
          "velocity": 0.6614173228346457
        },
        {
          "duration": 0.4090904999999907,
          "durationTicks": 360,
          "midi": 58,
          "name": "A#3",
          "ticks": 106560,
          "time": 121.090788,
          "velocity": 0.6929133858267716
        },
        {
          "duration": 0.2181816000000083,
          "durationTicks": 192,
          "midi": 31,
          "name": "G1",
          "ticks": 106800,
          "time": 121.36351499999999,
          "velocity": 0.7086614173228346
        },
        {
          "duration": 0.2181816000000083,
          "durationTicks": 192,
          "midi": 31,
          "name": "G1",
          "ticks": 107040,
          "time": 121.636242,
          "velocity": 0.7165354330708661
        },
        {
          "duration": 0.39545415000000617,
          "durationTicks": 348,
          "midi": 67,
          "name": "G4",
          "ticks": 107040,
          "time": 121.636242,
          "velocity": 0.7480314960629921
        },
        {
          "duration": 0.4090905000000049,
          "durationTicks": 360,
          "midi": 62,
          "name": "D4",
          "ticks": 107040,
          "time": 121.636242,
          "velocity": 0.7637795275590551
        },
        {
          "duration": 0.4181814000000088,
          "durationTicks": 368,
          "midi": 58,
          "name": "A#3",
          "ticks": 107040,
          "time": 121.636242,
          "velocity": 0.7401574803149606
        },
        {
          "duration": 0.2181816000000083,
          "durationTicks": 192,
          "midi": 31,
          "name": "G1",
          "ticks": 107280,
          "time": 121.908969,
          "velocity": 0.7007874015748031
        },
        {
          "duration": 0.2181815999999941,
          "durationTicks": 192,
          "midi": 39,
          "name": "D#2",
          "ticks": 107520,
          "time": 122.181696,
          "velocity": 0.7401574803149606
        },
        {
          "duration": 0.4090904999999907,
          "durationTicks": 360,
          "midi": 58,
          "name": "A#3",
          "ticks": 107520,
          "time": 122.181696,
          "velocity": 0.7637795275590551
        },
        {
          "duration": 0.4090904999999907,
          "durationTicks": 360,
          "midi": 63,
          "name": "D#4",
          "ticks": 107520,
          "time": 122.181696,
          "velocity": 0.6692913385826772
        },
        {
          "duration": 0.4090904999999907,
          "durationTicks": 360,
          "midi": 67,
          "name": "G4",
          "ticks": 107520,
          "time": 122.181696,
          "velocity": 0.7716535433070866
        },
        {
          "duration": 0.2181815999999941,
          "durationTicks": 192,
          "midi": 39,
          "name": "D#2",
          "ticks": 107760,
          "time": 122.454423,
          "velocity": 0.7795275590551181
        },
        {
          "duration": 0.2181816000000083,
          "durationTicks": 192,
          "midi": 39,
          "name": "D#2",
          "ticks": 108000,
          "time": 122.72715,
          "velocity": 0.7244094488188977
        },
        {
          "duration": 0.3136360499999995,
          "durationTicks": 276,
          "midi": 67,
          "name": "G4",
          "ticks": 108000,
          "time": 122.72715,
          "velocity": 0.6929133858267716
        },
        {
          "duration": 0.3136360499999995,
          "durationTicks": 276,
          "midi": 58,
          "name": "A#3",
          "ticks": 108000,
          "time": 122.72715,
          "velocity": 0.7007874015748031
        },
        {
          "duration": 0.3136360499999995,
          "durationTicks": 276,
          "midi": 63,
          "name": "D#4",
          "ticks": 108000,
          "time": 122.72715,
          "velocity": 0.7401574803149606
        },
        {
          "duration": 0.10909079999998994,
          "durationTicks": 96,
          "midi": 39,
          "name": "D#2",
          "ticks": 108240,
          "time": 122.999877,
          "velocity": 0.7322834645669292
        },
        {
          "duration": 0.10909079999998994,
          "durationTicks": 96,
          "midi": 67,
          "name": "G4",
          "ticks": 108360,
          "time": 123.1362405,
          "velocity": 0.6929133858267716
        },
        {
          "duration": 0.10909079999998994,
          "durationTicks": 96,
          "midi": 58,
          "name": "A#3",
          "ticks": 108360,
          "time": 123.1362405,
          "velocity": 0.7716535433070866
        },
        {
          "duration": 0.10909079999998994,
          "durationTicks": 96,
          "midi": 63,
          "name": "D#4",
          "ticks": 108360,
          "time": 123.1362405,
          "velocity": 0.6929133858267716
        },
        {
          "duration": 0.2181815999999941,
          "durationTicks": 192,
          "midi": 39,
          "name": "D#2",
          "ticks": 108480,
          "time": 123.272604,
          "velocity": 0.7716535433070866
        },
        {
          "duration": 0.4090904999999907,
          "durationTicks": 360,
          "midi": 67,
          "name": "G4",
          "ticks": 108480,
          "time": 123.272604,
          "velocity": 0.6850393700787402
        },
        {
          "duration": 0.4090904999999907,
          "durationTicks": 360,
          "midi": 58,
          "name": "A#3",
          "ticks": 108480,
          "time": 123.272604,
          "velocity": 0.7716535433070866
        },
        {
          "duration": 0.4090904999999907,
          "durationTicks": 360,
          "midi": 63,
          "name": "D#4",
          "ticks": 108480,
          "time": 123.272604,
          "velocity": 0.7559055118110236
        },
        {
          "duration": 0.2181815999999941,
          "durationTicks": 192,
          "midi": 39,
          "name": "D#2",
          "ticks": 108720,
          "time": 123.545331,
          "velocity": 0.7480314960629921
        },
        {
          "duration": 0.2181816000000083,
          "durationTicks": 192,
          "midi": 39,
          "name": "D#2",
          "ticks": 108960,
          "time": 123.818058,
          "velocity": 0.7165354330708661
        },
        {
          "duration": 0.4181814000000088,
          "durationTicks": 368,
          "midi": 67,
          "name": "G4",
          "ticks": 108960,
          "time": 123.818058,
          "velocity": 0.6929133858267716
        },
        {
          "duration": 0.4181814000000088,
          "durationTicks": 368,
          "midi": 58,
          "name": "A#3",
          "ticks": 108960,
          "time": 123.818058,
          "velocity": 0.7165354330708661
        },
        {
          "duration": 0.4181814000000088,
          "durationTicks": 368,
          "midi": 63,
          "name": "D#4",
          "ticks": 108960,
          "time": 123.818058,
          "velocity": 0.7795275590551181
        },
        {
          "duration": 0.10909079999998994,
          "durationTicks": 96,
          "midi": 34,
          "name": "A#1",
          "ticks": 109200,
          "time": 124.090785,
          "velocity": 0.7480314960629921
        },
        {
          "duration": 0.10909079999998994,
          "durationTicks": 96,
          "midi": 34,
          "name": "A#1",
          "ticks": 109320,
          "time": 124.2271485,
          "velocity": 0.7401574803149606
        },
        {
          "duration": 0.2181816000000083,
          "durationTicks": 192,
          "midi": 39,
          "name": "D#2",
          "ticks": 109440,
          "time": 124.363512,
          "velocity": 0.7795275590551181
        },
        {
          "duration": 0.4090905000000049,
          "durationTicks": 360,
          "midi": 58,
          "name": "A#3",
          "ticks": 109440,
          "time": 124.363512,
          "velocity": 0.7637795275590551
        },
        {
          "duration": 0.39545414999999196,
          "durationTicks": 348,
          "midi": 63,
          "name": "D#4",
          "ticks": 109440,
          "time": 124.363512,
          "velocity": 0.7559055118110236
        },
        {
          "duration": 0.39545414999999196,
          "durationTicks": 348,
          "midi": 67,
          "name": "G4",
          "ticks": 109440,
          "time": 124.363512,
          "velocity": 0.7322834645669292
        },
        {
          "duration": 0.2181815999999941,
          "durationTicks": 192,
          "midi": 39,
          "name": "D#2",
          "ticks": 109680,
          "time": 124.636239,
          "velocity": 0.6535433070866141
        },
        {
          "duration": 0.2181816000000083,
          "durationTicks": 192,
          "midi": 39,
          "name": "D#2",
          "ticks": 109920,
          "time": 124.90896599999999,
          "velocity": 0.7559055118110236
        },
        {
          "duration": 0.28181790000000717,
          "durationTicks": 248,
          "midi": 58,
          "name": "A#3",
          "ticks": 109920,
          "time": 124.90896599999999,
          "velocity": 0.7401574803149606
        },
        {
          "duration": 0.2954542500000059,
          "durationTicks": 260,
          "midi": 63,
          "name": "D#4",
          "ticks": 109920,
          "time": 124.90896599999999,
          "velocity": 0.7637795275590551
        },
        {
          "duration": 0.2954542500000059,
          "durationTicks": 260,
          "midi": 67,
          "name": "G4",
          "ticks": 109920,
          "time": 124.90896599999999,
          "velocity": 0.7559055118110236
        },
        {
          "duration": 0.10909079999998994,
          "durationTicks": 96,
          "midi": 39,
          "name": "D#2",
          "ticks": 110160,
          "time": 125.181693,
          "velocity": 0.7559055118110236
        },
        {
          "duration": 0.10909079999998994,
          "durationTicks": 96,
          "midi": 58,
          "name": "A#3",
          "ticks": 110280,
          "time": 125.3180565,
          "velocity": 0.7716535433070866
        },
        {
          "duration": 0.10909079999998994,
          "durationTicks": 96,
          "midi": 63,
          "name": "D#4",
          "ticks": 110280,
          "time": 125.3180565,
          "velocity": 0.7401574803149606
        },
        {
          "duration": 0.10909079999998994,
          "durationTicks": 96,
          "midi": 67,
          "name": "G4",
          "ticks": 110280,
          "time": 125.3180565,
          "velocity": 0.7795275590551181
        },
        {
          "duration": 0.2181816000000083,
          "durationTicks": 192,
          "midi": 39,
          "name": "D#2",
          "ticks": 110400,
          "time": 125.45442,
          "velocity": 0.7559055118110236
        },
        {
          "duration": 0.4090905000000049,
          "durationTicks": 360,
          "midi": 58,
          "name": "A#3",
          "ticks": 110400,
          "time": 125.45442,
          "velocity": 0.7322834645669292
        },
        {
          "duration": 0.4090905000000049,
          "durationTicks": 360,
          "midi": 63,
          "name": "D#4",
          "ticks": 110400,
          "time": 125.45442,
          "velocity": 0.7322834645669292
        },
        {
          "duration": 0.4090905000000049,
          "durationTicks": 360,
          "midi": 67,
          "name": "G4",
          "ticks": 110400,
          "time": 125.45442,
          "velocity": 0.7401574803149606
        },
        {
          "duration": 0.2181815999999941,
          "durationTicks": 192,
          "midi": 34,
          "name": "A#1",
          "ticks": 110640,
          "time": 125.727147,
          "velocity": 0.6535433070866141
        },
        {
          "duration": 0.2181815999999941,
          "durationTicks": 192,
          "midi": 39,
          "name": "D#2",
          "ticks": 110880,
          "time": 125.999874,
          "velocity": 0.7401574803149606
        },
        {
          "duration": 0.4090904999999907,
          "durationTicks": 360,
          "midi": 58,
          "name": "A#3",
          "ticks": 110880,
          "time": 125.999874,
          "velocity": 0.7795275590551181
        },
        {
          "duration": 0.4090904999999907,
          "durationTicks": 360,
          "midi": 63,
          "name": "D#4",
          "ticks": 110880,
          "time": 125.999874,
          "velocity": 0.7559055118110236
        },
        {
          "duration": 0.39545414999999196,
          "durationTicks": 348,
          "midi": 67,
          "name": "G4",
          "ticks": 110880,
          "time": 125.999874,
          "velocity": 0.7244094488188977
        },
        {
          "duration": 0.2181816000000083,
          "durationTicks": 192,
          "midi": 39,
          "name": "D#2",
          "ticks": 111120,
          "time": 126.272601,
          "velocity": 0.7637795275590551
        },
        {
          "duration": 0.2181816000000083,
          "durationTicks": 192,
          "midi": 34,
          "name": "A#1",
          "ticks": 111360,
          "time": 126.545328,
          "velocity": 0.7559055118110236
        },
        {
          "duration": 0.9545444999999972,
          "durationTicks": 840,
          "midi": 58,
          "name": "A#3",
          "ticks": 111360,
          "time": 126.545328,
          "velocity": 0.6929133858267716
        },
        {
          "duration": 0.9454535999999933,
          "durationTicks": 832,
          "midi": 62,
          "name": "D4",
          "ticks": 111360,
          "time": 126.545328,
          "velocity": 0.7559055118110236
        },
        {
          "duration": 0.9454535999999933,
          "durationTicks": 832,
          "midi": 65,
          "name": "F4",
          "ticks": 111360,
          "time": 126.545328,
          "velocity": 0.6535433070866141
        },
        {
          "duration": 0.2181815999999941,
          "durationTicks": 192,
          "midi": 34,
          "name": "A#1",
          "ticks": 111600,
          "time": 126.818055,
          "velocity": 0.7795275590551181
        },
        {
          "duration": 0.2181815999999941,
          "durationTicks": 192,
          "midi": 34,
          "name": "A#1",
          "ticks": 111840,
          "time": 127.090782,
          "velocity": 0.7559055118110236
        },
        {
          "duration": 0.10909080000000415,
          "durationTicks": 96,
          "midi": 34,
          "name": "A#1",
          "ticks": 112080,
          "time": 127.363509,
          "velocity": 0.7716535433070866
        },
        {
          "duration": 0.10909080000000415,
          "durationTicks": 96,
          "midi": 34,
          "name": "A#1",
          "ticks": 112200,
          "time": 127.4998725,
          "velocity": 0.7559055118110236
        },
        {
          "duration": 0.2181816000000083,
          "durationTicks": 192,
          "midi": 38,
          "name": "D2",
          "ticks": 112320,
          "time": 127.636236,
          "velocity": 0.7795275590551181
        },
        {
          "duration": 0.9454536000000076,
          "durationTicks": 832,
          "midi": 57,
          "name": "A3",
          "ticks": 112320,
          "time": 127.636236,
          "velocity": 0.7165354330708661
        },
        {
          "duration": 0.9545444999999972,
          "durationTicks": 840,
          "midi": 62,
          "name": "D4",
          "ticks": 112320,
          "time": 127.636236,
          "velocity": 0.7322834645669292
        },
        {
          "duration": 0.9545444999999972,
          "durationTicks": 840,
          "midi": 67,
          "name": "G4",
          "ticks": 112320,
          "time": 127.636236,
          "velocity": 0.7007874015748031
        },
        {
          "duration": 0.2181816000000083,
          "durationTicks": 192,
          "midi": 38,
          "name": "D2",
          "ticks": 112560,
          "time": 127.908963,
          "velocity": 0.7559055118110236
        },
        {
          "duration": 0.2181816000000083,
          "durationTicks": 192,
          "midi": 38,
          "name": "D2",
          "ticks": 112800,
          "time": 128.18169,
          "velocity": 0.6850393700787402
        },
        {
          "duration": 0.10909079999998994,
          "durationTicks": 96,
          "midi": 38,
          "name": "D2",
          "ticks": 113040,
          "time": 128.454417,
          "velocity": 0.6614173228346457
        },
        {
          "duration": 0.10909079999998994,
          "durationTicks": 96,
          "midi": 38,
          "name": "D2",
          "ticks": 113160,
          "time": 128.5907805,
          "velocity": 0.7795275590551181
        },
        {
          "duration": 0.21818159999997988,
          "durationTicks": 192,
          "midi": 43,
          "name": "G2",
          "ticks": 113280,
          "time": 128.727144,
          "velocity": 0.6771653543307087
        },
        {
          "duration": 0.9545444999999972,
          "durationTicks": 840,
          "midi": 58,
          "name": "A#3",
          "ticks": 113280,
          "time": 128.727144,
          "velocity": 0.7795275590551181
        },
        {
          "duration": 0.9545444999999972,
          "durationTicks": 840,
          "midi": 62,
          "name": "D4",
          "ticks": 113280,
          "time": 128.727144,
          "velocity": 0.7480314960629921
        },
        {
          "duration": 0.9363626999999894,
          "durationTicks": 824,
          "midi": 67,
          "name": "G4",
          "ticks": 113280,
          "time": 128.727144,
          "velocity": 0.7795275590551181
        },
        {
          "duration": 0.2181816000000083,
          "durationTicks": 192,
          "midi": 43,
          "name": "G2",
          "ticks": 113520,
          "time": 128.99987099999998,
          "velocity": 0.7716535433070866
        },
        {
          "duration": 0.2181816000000083,
          "durationTicks": 192,
          "midi": 43,
          "name": "G2",
          "ticks": 113760,
          "time": 129.272598,
          "velocity": 0.7795275590551181
        },
        {
          "duration": 0.10909079999998994,
          "durationTicks": 96,
          "midi": 43,
          "name": "G2",
          "ticks": 114000,
          "time": 129.545325,
          "velocity": 0.7244094488188977
        },
        {
          "duration": 0.10909079999998994,
          "durationTicks": 96,
          "midi": 43,
          "name": "G2",
          "ticks": 114120,
          "time": 129.6816885,
          "velocity": 0.7716535433070866
        },
        {
          "duration": 0.2181816000000083,
          "durationTicks": 192,
          "midi": 34,
          "name": "A#1",
          "ticks": 114240,
          "time": 129.818052,
          "velocity": 0.6771653543307087
        },
        {
          "duration": 0.9454536000000076,
          "durationTicks": 832,
          "midi": 62,
          "name": "D4",
          "ticks": 114240,
          "time": 129.818052,
          "velocity": 0.6456692913385826
        },
        {
          "duration": 0.9454536000000076,
          "durationTicks": 832,
          "midi": 65,
          "name": "F4",
          "ticks": 114240,
          "time": 129.818052,
          "velocity": 0.7716535433070866
        },
        {
          "duration": 0.9454536000000076,
          "durationTicks": 832,
          "midi": 70,
          "name": "A#4",
          "ticks": 114240,
          "time": 129.818052,
          "velocity": 0.7086614173228346
        },
        {
          "duration": 0.2181816000000083,
          "durationTicks": 192,
          "midi": 34,
          "name": "A#1",
          "ticks": 114480,
          "time": 130.090779,
          "velocity": 0.7401574803149606
        },
        {
          "duration": 0.2181816000000083,
          "durationTicks": 192,
          "midi": 34,
          "name": "A#1",
          "ticks": 114720,
          "time": 130.363506,
          "velocity": 0.7559055118110236
        },
        {
          "duration": 0.2090906999999902,
          "durationTicks": 184,
          "midi": 34,
          "name": "A#1",
          "ticks": 114960,
          "time": 130.636233,
          "velocity": 0.6614173228346457
        },
        {
          "duration": 0.2181816000000083,
          "durationTicks": 192,
          "midi": 39,
          "name": "D#2",
          "ticks": 115200,
          "time": 130.90896,
          "velocity": 0.7716535433070866
        },
        {
          "duration": 0.39545414999997774,
          "durationTicks": 348,
          "midi": 63,
          "name": "D#4",
          "ticks": 115200,
          "time": 130.90896,
          "velocity": 0.7795275590551181
        },
        {
          "duration": 0.4090904999999907,
          "durationTicks": 360,
          "midi": 67,
          "name": "G4",
          "ticks": 115200,
          "time": 130.90896,
          "velocity": 0.7007874015748031
        },
        {
          "duration": 0.4090904999999907,
          "durationTicks": 360,
          "midi": 70,
          "name": "A#4",
          "ticks": 115200,
          "time": 130.90896,
          "velocity": 0.6929133858267716
        },
        {
          "duration": 0.21818159999997988,
          "durationTicks": 192,
          "midi": 39,
          "name": "D#2",
          "ticks": 115440,
          "time": 131.181687,
          "velocity": 0.6850393700787402
        },
        {
          "duration": 0.2181816000000083,
          "durationTicks": 192,
          "midi": 38,
          "name": "D2",
          "ticks": 115680,
          "time": 131.45441399999999,
          "velocity": 0.7007874015748031
        },
        {
          "duration": 0.39545415000000617,
          "durationTicks": 348,
          "midi": 62,
          "name": "D4",
          "ticks": 115680,
          "time": 131.45441399999999,
          "velocity": 0.7244094488188977
        },
        {
          "duration": 0.39545415000000617,
          "durationTicks": 348,
          "midi": 65,
          "name": "F4",
          "ticks": 115680,
          "time": 131.45441399999999,
          "velocity": 0.6692913385826772
        },
        {
          "duration": 0.39545415000000617,
          "durationTicks": 348,
          "midi": 70,
          "name": "A#4",
          "ticks": 115680,
          "time": 131.45441399999999,
          "velocity": 0.7559055118110236
        },
        {
          "duration": 0.2181816000000083,
          "durationTicks": 192,
          "midi": 38,
          "name": "D2",
          "ticks": 115920,
          "time": 131.727141,
          "velocity": 0.7401574803149606
        },
        {
          "duration": 0.2181816000000083,
          "durationTicks": 192,
          "midi": 36,
          "name": "C2",
          "ticks": 116160,
          "time": 131.999868,
          "velocity": 0.7559055118110236
        },
        {
          "duration": 0.9454536000000076,
          "durationTicks": 832,
          "midi": 60,
          "name": "C4",
          "ticks": 116160,
          "time": 131.999868,
          "velocity": 0.7322834645669292
        },
        {
          "duration": 0.9545444999999972,
          "durationTicks": 840,
          "midi": 63,
          "name": "D#4",
          "ticks": 116160,
          "time": 131.999868,
          "velocity": 0.7322834645669292
        },
        {
          "duration": 0.9545444999999972,
          "durationTicks": 840,
          "midi": 67,
          "name": "G4",
          "ticks": 116160,
          "time": 131.999868,
          "velocity": 0.6771653543307087
        },
        {
          "duration": 0.9545444999999972,
          "durationTicks": 840,
          "midi": 70,
          "name": "A#4",
          "ticks": 116160,
          "time": 131.999868,
          "velocity": 0.7244094488188977
        },
        {
          "duration": 0.2181816000000083,
          "durationTicks": 192,
          "midi": 36,
          "name": "C2",
          "ticks": 116400,
          "time": 132.272595,
          "velocity": 0.7480314960629921
        },
        {
          "duration": 0.2181816000000083,
          "durationTicks": 192,
          "midi": 36,
          "name": "C2",
          "ticks": 116640,
          "time": 132.545322,
          "velocity": 0.7795275590551181
        },
        {
          "duration": 0.1999998000000005,
          "durationTicks": 176,
          "midi": 39,
          "name": "D#2",
          "ticks": 116880,
          "time": 132.818049,
          "velocity": 0.7637795275590551
        },
        {
          "duration": 0.2181816000000083,
          "durationTicks": 192,
          "midi": 41,
          "name": "F2",
          "ticks": 117120,
          "time": 133.090776,
          "velocity": 0.6929133858267716
        },
        {
          "duration": 2.045452499999982,
          "durationTicks": 1800,
          "midi": 60,
          "name": "C4",
          "ticks": 117120,
          "time": 133.090776,
          "velocity": 0.7716535433070866
        },
        {
          "duration": 2.045452499999982,
          "durationTicks": 1800,
          "midi": 63,
          "name": "D#4",
          "ticks": 117120,
          "time": 133.090776,
          "velocity": 0.6850393700787402
        },
        {
          "duration": 2.045452499999982,
          "durationTicks": 1800,
          "midi": 67,
          "name": "G4",
          "ticks": 117120,
          "time": 133.090776,
          "velocity": 0.6929133858267716
        },
        {
          "duration": 2.045452499999982,
          "durationTicks": 1800,
          "midi": 70,
          "name": "A#4",
          "ticks": 117120,
          "time": 133.090776,
          "velocity": 0.7637795275590551
        },
        {
          "duration": 0.21818159999997988,
          "durationTicks": 192,
          "midi": 41,
          "name": "F2",
          "ticks": 117360,
          "time": 133.363503,
          "velocity": 0.7716535433070866
        },
        {
          "duration": 0.21818159999997988,
          "durationTicks": 192,
          "midi": 41,
          "name": "F2",
          "ticks": 117600,
          "time": 133.63623,
          "velocity": 0.7401574803149606
        },
        {
          "duration": 0.2181816000000083,
          "durationTicks": 192,
          "midi": 41,
          "name": "F2",
          "ticks": 117840,
          "time": 133.908957,
          "velocity": 0.7165354330708661
        },
        {
          "duration": 0.2181816000000083,
          "durationTicks": 192,
          "midi": 41,
          "name": "F2",
          "ticks": 118080,
          "time": 134.181684,
          "velocity": 0.7244094488188977
        },
        {
          "duration": 0.2181816000000083,
          "durationTicks": 192,
          "midi": 41,
          "name": "F2",
          "ticks": 118320,
          "time": 134.454411,
          "velocity": 0.7716535433070866
        },
        {
          "duration": 0.2181816000000083,
          "durationTicks": 192,
          "midi": 41,
          "name": "F2",
          "ticks": 118560,
          "time": 134.727138,
          "velocity": 0.7716535433070866
        },
        {
          "duration": 0.2181816000000083,
          "durationTicks": 192,
          "midi": 41,
          "name": "F2",
          "ticks": 118800,
          "time": 134.999865,
          "velocity": 0.6614173228346457
        },
        {
          "duration": 0.2181816000000083,
          "durationTicks": 192,
          "midi": 46,
          "name": "A#2",
          "ticks": 119040,
          "time": 135.272592,
          "velocity": 0.7716535433070866
        },
        {
          "duration": 0.681817499999994,
          "durationTicks": 600,
          "midi": 70,
          "name": "A#4",
          "ticks": 119040,
          "time": 135.272592,
          "velocity": 0.7086614173228346
        },
        {
          "duration": 0.681817499999994,
          "durationTicks": 600,
          "midi": 74,
          "name": "D5",
          "ticks": 119040,
          "time": 135.272592,
          "velocity": 0.7637795275590551
        },
        {
          "duration": 0.6727265999999759,
          "durationTicks": 592,
          "midi": 77,
          "name": "F5",
          "ticks": 119040,
          "time": 135.272592,
          "velocity": 0.7716535433070866
        },
        {
          "duration": 0.2181816000000083,
          "durationTicks": 192,
          "midi": 46,
          "name": "A#2",
          "ticks": 119280,
          "time": 135.545319,
          "velocity": 0.7559055118110236
        },
        {
          "duration": 0.21818159999997988,
          "durationTicks": 192,
          "midi": 46,
          "name": "A#2",
          "ticks": 119520,
          "time": 135.818046,
          "velocity": 0.7086614173228346
        },
        {
          "duration": 0.2181816000000083,
          "durationTicks": 192,
          "midi": 46,
          "name": "A#2",
          "ticks": 119760,
          "time": 136.09077299999998,
          "velocity": 0.7244094488188977
        },
        {
          "duration": 1.2954532500000084,
          "durationTicks": 1140,
          "midi": 69,
          "name": "A4",
          "ticks": 119760,
          "time": 136.09077299999998,
          "velocity": 0.7637795275590551
        },
        {
          "duration": 0.6818175000000224,
          "durationTicks": 600,
          "midi": 74,
          "name": "D5",
          "ticks": 119760,
          "time": 136.09077299999998,
          "velocity": 0.7401574803149606
        },
        {
          "duration": 0.6818175000000224,
          "durationTicks": 600,
          "midi": 79,
          "name": "G5",
          "ticks": 119760,
          "time": 136.09077299999998,
          "velocity": 0.7165354330708661
        },
        {
          "duration": 0.2181816000000083,
          "durationTicks": 192,
          "midi": 45,
          "name": "A2",
          "ticks": 120000,
          "time": 136.3635,
          "velocity": 0.7165354330708661
        },
        {
          "duration": 0.2181816000000083,
          "durationTicks": 192,
          "midi": 45,
          "name": "A2",
          "ticks": 120240,
          "time": 136.636227,
          "velocity": 0.6535433070866141
        },
        {
          "duration": 0.2181816000000083,
          "durationTicks": 192,
          "midi": 45,
          "name": "A2",
          "ticks": 120480,
          "time": 136.908954,
          "velocity": 0.7795275590551181
        },
        {
          "duration": 0.2181816000000083,
          "durationTicks": 192,
          "midi": 74,
          "name": "D5",
          "ticks": 120480,
          "time": 136.908954,
          "velocity": 0.7480314960629921
        },
        {
          "duration": 0.2181816000000083,
          "durationTicks": 192,
          "midi": 45,
          "name": "A2",
          "ticks": 120720,
          "time": 137.181681,
          "velocity": 0.7480314960629921
        },
        {
          "duration": 0.2181816000000083,
          "durationTicks": 192,
          "midi": 72,
          "name": "C5",
          "ticks": 120720,
          "time": 137.181681,
          "velocity": 0.7244094488188977
        },
        {
          "duration": 0.2181816000000083,
          "durationTicks": 192,
          "midi": 43,
          "name": "G2",
          "ticks": 120960,
          "time": 137.454408,
          "velocity": 0.6929133858267716
        },
        {
          "duration": 0.2181816000000083,
          "durationTicks": 192,
          "midi": 70,
          "name": "A#4",
          "ticks": 120960,
          "time": 137.454408,
          "velocity": 0.6850393700787402
        },
        {
          "duration": 0.7272719999999993,
          "durationTicks": 640,
          "midi": 62,
          "name": "D4",
          "ticks": 120960,
          "time": 137.454408,
          "velocity": 0.6692913385826772
        },
        {
          "duration": 0.2181816000000083,
          "durationTicks": 192,
          "midi": 43,
          "name": "G2",
          "ticks": 121200,
          "time": 137.727135,
          "velocity": 0.7480314960629921
        },
        {
          "duration": 0.2181816000000083,
          "durationTicks": 192,
          "midi": 67,
          "name": "G4",
          "ticks": 121200,
          "time": 137.727135,
          "velocity": 0.7716535433070866
        },
        {
          "duration": 0.2181816000000083,
          "durationTicks": 192,
          "midi": 43,
          "name": "G2",
          "ticks": 121440,
          "time": 137.999862,
          "velocity": 0.7559055118110236
        },
        {
          "duration": 0.16818164999997975,
          "durationTicks": 148,
          "midi": 70,
          "name": "A#4",
          "ticks": 121440,
          "time": 137.999862,
          "velocity": 0.7795275590551181
        },
        {
          "duration": 0.21818159999997988,
          "durationTicks": 192,
          "midi": 43,
          "name": "G2",
          "ticks": 121680,
          "time": 138.272589,
          "velocity": 0.7637795275590551
        },
        {
          "duration": 0.6909083999999837,
          "durationTicks": 608,
          "midi": 74,
          "name": "D5",
          "ticks": 121680,
          "time": 138.272589,
          "velocity": 0.7716535433070866
        },
        {
          "duration": 1.2227260500000057,
          "durationTicks": 1076,
          "midi": 65,
          "name": "F4",
          "ticks": 121680,
          "time": 138.272589,
          "velocity": 0.7401574803149606
        },
        {
          "duration": 1.190907899999985,
          "durationTicks": 1048,
          "midi": 70,
          "name": "A#4",
          "ticks": 121680,
          "time": 138.272589,
          "velocity": 0.7795275590551181
        },
        {
          "duration": 0.2181816000000083,
          "durationTicks": 192,
          "midi": 41,
          "name": "F2",
          "ticks": 121920,
          "time": 138.54531599999999,
          "velocity": 0.7716535433070866
        },
        {
          "duration": 0.2181816000000083,
          "durationTicks": 192,
          "midi": 41,
          "name": "F2",
          "ticks": 122160,
          "time": 138.818043,
          "velocity": 0.7716535433070866
        },
        {
          "duration": 0.2181816000000083,
          "durationTicks": 192,
          "midi": 41,
          "name": "F2",
          "ticks": 122400,
          "time": 139.09077,
          "velocity": 0.7007874015748031
        },
        {
          "duration": 0.4090905000000191,
          "durationTicks": 360,
          "midi": 72,
          "name": "C5",
          "ticks": 122400,
          "time": 139.09077,
          "velocity": 0.7401574803149606
        },
        {
          "duration": 0.2181816000000083,
          "durationTicks": 192,
          "midi": 41,
          "name": "F2",
          "ticks": 122640,
          "time": 139.363497,
          "velocity": 0.7244094488188977
        },
        {
          "duration": 0.21818159999997988,
          "durationTicks": 192,
          "midi": 39,
          "name": "D#2",
          "ticks": 122880,
          "time": 139.636224,
          "velocity": 0.7480314960629921
        },
        {
          "duration": 0.21818159999997988,
          "durationTicks": 192,
          "midi": 70,
          "name": "A#4",
          "ticks": 122880,
          "time": 139.636224,
          "velocity": 0.7322834645669292
        },
        {
          "duration": 0.7363629000000174,
          "durationTicks": 648,
          "midi": 63,
          "name": "D#4",
          "ticks": 122880,
          "time": 139.636224,
          "velocity": 0.7559055118110236
        },
        {
          "duration": 0.21818159999997988,
          "durationTicks": 192,
          "midi": 39,
          "name": "D#2",
          "ticks": 123120,
          "time": 139.908951,
          "velocity": 0.6850393700787402
        },
        {
          "duration": 0.21818159999997988,
          "durationTicks": 192,
          "midi": 67,
          "name": "G4",
          "ticks": 123120,
          "time": 139.908951,
          "velocity": 0.7165354330708661
        },
        {
          "duration": 0.21818159999997988,
          "durationTicks": 192,
          "midi": 39,
          "name": "D#2",
          "ticks": 123360,
          "time": 140.181678,
          "velocity": 0.7401574803149606
        },
        {
          "duration": 0.21818159999997988,
          "durationTicks": 192,
          "midi": 70,
          "name": "A#4",
          "ticks": 123360,
          "time": 140.181678,
          "velocity": 0.6771653543307087
        },
        {
          "duration": 0.10909079999998994,
          "durationTicks": 96,
          "midi": 39,
          "name": "D#2",
          "ticks": 123600,
          "time": 140.454405,
          "velocity": 0.7795275590551181
        },
        {
          "duration": 0.6909083999999837,
          "durationTicks": 608,
          "midi": 75,
          "name": "D#5",
          "ticks": 123600,
          "time": 140.454405,
          "velocity": 0.7716535433070866
        },
        {
          "duration": 1.2318169499999954,
          "durationTicks": 1084,
          "midi": 67,
          "name": "G4",
          "ticks": 123600,
          "time": 140.454405,
          "velocity": 0.7480314960629921
        },
        {
          "duration": 1.2318169499999954,
          "durationTicks": 1084,
          "midi": 70,
          "name": "A#4",
          "ticks": 123600,
          "time": 140.454405,
          "velocity": 0.7244094488188977
        },
        {
          "duration": 0.10909079999998994,
          "durationTicks": 96,
          "midi": 39,
          "name": "D#2",
          "ticks": 123720,
          "time": 140.5907685,
          "velocity": 0.7795275590551181
        },
        {
          "duration": 0.21818159999997988,
          "durationTicks": 192,
          "midi": 41,
          "name": "F2",
          "ticks": 123840,
          "time": 140.727132,
          "velocity": 0.6692913385826772
        },
        {
          "duration": 0.2181816000000083,
          "durationTicks": 192,
          "midi": 41,
          "name": "F2",
          "ticks": 124080,
          "time": 140.999859,
          "velocity": 0.7165354330708661
        },
        {
          "duration": 0.2181816000000083,
          "durationTicks": 192,
          "midi": 41,
          "name": "F2",
          "ticks": 124320,
          "time": 141.272586,
          "velocity": 0.7637795275590551
        },
        {
          "duration": 0.4181814000000088,
          "durationTicks": 368,
          "midi": 74,
          "name": "D5",
          "ticks": 124320,
          "time": 141.272586,
          "velocity": 0.7637795275590551
        },
        {
          "duration": 0.10909079999998994,
          "durationTicks": 96,
          "midi": 41,
          "name": "F2",
          "ticks": 124560,
          "time": 141.545313,
          "velocity": 0.7244094488188977
        },
        {
          "duration": 0.09545445000000541,
          "durationTicks": 84,
          "midi": 41,
          "name": "F2",
          "ticks": 124680,
          "time": 141.6816765,
          "velocity": 0.7716535433070866
        },
        {
          "duration": 0.21818159999997988,
          "durationTicks": 192,
          "midi": 34,
          "name": "A#1",
          "ticks": 124800,
          "time": 141.81804,
          "velocity": 0.7086614173228346
        },
        {
          "duration": 0.39545415000000617,
          "durationTicks": 348,
          "midi": 65,
          "name": "F4",
          "ticks": 124800,
          "time": 141.81804,
          "velocity": 0.7401574803149606
        },
        {
          "duration": 0.39545415000000617,
          "durationTicks": 348,
          "midi": 62,
          "name": "D4",
          "ticks": 124800,
          "time": 141.81804,
          "velocity": 0.7480314960629921
        },
        {
          "duration": 2.0454525000000103,
          "durationTicks": 1800,
          "midi": 70,
          "name": "A#4",
          "ticks": 124800,
          "time": 141.81804,
          "velocity": 0.7401574803149606
        },
        {
          "duration": 0.21818159999997988,
          "durationTicks": 192,
          "midi": 34,
          "name": "A#1",
          "ticks": 125040,
          "time": 142.090767,
          "velocity": 0.7401574803149606
        },
        {
          "duration": 0.10909079999998994,
          "durationTicks": 96,
          "midi": 37,
          "name": "C#2",
          "ticks": 125280,
          "time": 142.363494,
          "velocity": 0.7795275590551181
        },
        {
          "duration": 0.16818165000000818,
          "durationTicks": 148,
          "midi": 62,
          "name": "D4",
          "ticks": 125280,
          "time": 142.363494,
          "velocity": 0.7637795275590551
        },
        {
          "duration": 0.16818165000000818,
          "durationTicks": 148,
          "midi": 67,
          "name": "G4",
          "ticks": 125280,
          "time": 142.363494,
          "velocity": 0.7716535433070866
        },
        {
          "duration": 0.10909079999998994,
          "durationTicks": 96,
          "midi": 38,
          "name": "D2",
          "ticks": 125400,
          "time": 142.4998575,
          "velocity": 0.6771653543307087
        },
        {
          "duration": 0.4363631999999882,
          "durationTicks": 384,
          "midi": 41,
          "name": "F2",
          "ticks": 125520,
          "time": 142.636221,
          "velocity": 0.7716535433070866
        },
        {
          "duration": 0.4363631999999882,
          "durationTicks": 384,
          "midi": 62,
          "name": "D4",
          "ticks": 125520,
          "time": 142.636221,
          "velocity": 0.7244094488188977
        },
        {
          "duration": 0.4363631999999882,
          "durationTicks": 384,
          "midi": 65,
          "name": "F4",
          "ticks": 125520,
          "time": 142.636221,
          "velocity": 0.6771653543307087
        },
        {
          "duration": 0.21818159999997988,
          "durationTicks": 192,
          "midi": 41,
          "name": "F2",
          "ticks": 126000,
          "time": 143.181675,
          "velocity": 0.6771653543307087
        },
        {
          "duration": 0.21818159999997988,
          "durationTicks": 192,
          "midi": 62,
          "name": "D4",
          "ticks": 126000,
          "time": 143.181675,
          "velocity": 0.7007874015748031
        },
        {
          "duration": 0.21818159999997988,
          "durationTicks": 192,
          "midi": 65,
          "name": "F4",
          "ticks": 126000,
          "time": 143.181675,
          "velocity": 0.6771653543307087
        },
        {
          "duration": 0.2181816000000083,
          "durationTicks": 192,
          "midi": 43,
          "name": "G2",
          "ticks": 126240,
          "time": 143.454402,
          "velocity": 0.6535433070866141
        },
        {
          "duration": 0.4090905000000191,
          "durationTicks": 360,
          "midi": 62,
          "name": "D4",
          "ticks": 126240,
          "time": 143.454402,
          "velocity": 0.7401574803149606
        },
        {
          "duration": 0.4090905000000191,
          "durationTicks": 360,
          "midi": 67,
          "name": "G4",
          "ticks": 126240,
          "time": 143.454402,
          "velocity": 0.6929133858267716
        },
        {
          "duration": 0.2181816000000083,
          "durationTicks": 192,
          "midi": 46,
          "name": "A#2",
          "ticks": 126480,
          "time": 143.727129,
          "velocity": 0.7637795275590551
        },
        {
          "duration": 0.21818159999997988,
          "durationTicks": 192,
          "midi": 46,
          "name": "A#2",
          "ticks": 126720,
          "time": 143.999856,
          "velocity": 0.7007874015748031
        },
        {
          "duration": 0.681817499999994,
          "durationTicks": 600,
          "midi": 70,
          "name": "A#4",
          "ticks": 126720,
          "time": 143.999856,
          "velocity": 0.7244094488188977
        },
        {
          "duration": 0.681817499999994,
          "durationTicks": 600,
          "midi": 74,
          "name": "D5",
          "ticks": 126720,
          "time": 143.999856,
          "velocity": 0.7637795275590551
        },
        {
          "duration": 0.681817499999994,
          "durationTicks": 600,
          "midi": 77,
          "name": "F5",
          "ticks": 126720,
          "time": 143.999856,
          "velocity": 0.7716535433070866
        },
        {
          "duration": 0.21818159999997988,
          "durationTicks": 192,
          "midi": 46,
          "name": "A#2",
          "ticks": 126960,
          "time": 144.272583,
          "velocity": 0.7795275590551181
        },
        {
          "duration": 0.21818159999997988,
          "durationTicks": 192,
          "midi": 46,
          "name": "A#2",
          "ticks": 127200,
          "time": 144.54531,
          "velocity": 0.7165354330708661
        },
        {
          "duration": 0.21818159999997988,
          "durationTicks": 192,
          "midi": 46,
          "name": "A#2",
          "ticks": 127440,
          "time": 144.818037,
          "velocity": 0.7165354330708661
        },
        {
          "duration": 1.2227260500000057,
          "durationTicks": 1076,
          "midi": 69,
          "name": "A4",
          "ticks": 127440,
          "time": 144.818037,
          "velocity": 0.7480314960629921
        },
        {
          "duration": 0.681817499999994,
          "durationTicks": 600,
          "midi": 74,
          "name": "D5",
          "ticks": 127440,
          "time": 144.818037,
          "velocity": 0.7480314960629921
        },
        {
          "duration": 0.681817499999994,
          "durationTicks": 600,
          "midi": 79,
          "name": "G5",
          "ticks": 127440,
          "time": 144.818037,
          "velocity": 0.7795275590551181
        },
        {
          "duration": 0.21818159999997988,
          "durationTicks": 192,
          "midi": 45,
          "name": "A2",
          "ticks": 127680,
          "time": 145.090764,
          "velocity": 0.7716535433070866
        },
        {
          "duration": 0.21818159999997988,
          "durationTicks": 192,
          "midi": 45,
          "name": "A2",
          "ticks": 127920,
          "time": 145.363491,
          "velocity": 0.6929133858267716
        },
        {
          "duration": 0.2181816000000083,
          "durationTicks": 192,
          "midi": 45,
          "name": "A2",
          "ticks": 128160,
          "time": 145.63621799999999,
          "velocity": 0.7480314960629921
        },
        {
          "duration": 0.2181816000000083,
          "durationTicks": 192,
          "midi": 74,
          "name": "D5",
          "ticks": 128160,
          "time": 145.63621799999999,
          "velocity": 0.7716535433070866
        },
        {
          "duration": 0.2181816000000083,
          "durationTicks": 192,
          "midi": 45,
          "name": "A2",
          "ticks": 128400,
          "time": 145.908945,
          "velocity": 0.7322834645669292
        },
        {
          "duration": 0.2181816000000083,
          "durationTicks": 192,
          "midi": 72,
          "name": "C5",
          "ticks": 128400,
          "time": 145.908945,
          "velocity": 0.7401574803149606
        },
        {
          "duration": 0.2181816000000083,
          "durationTicks": 192,
          "midi": 43,
          "name": "G2",
          "ticks": 128640,
          "time": 146.181672,
          "velocity": 0.7716535433070866
        },
        {
          "duration": 0.681817499999994,
          "durationTicks": 600,
          "midi": 62,
          "name": "D4",
          "ticks": 128640,
          "time": 146.181672,
          "velocity": 0.6456692913385826
        },
        {
          "duration": 0.2181816000000083,
          "durationTicks": 192,
          "midi": 70,
          "name": "A#4",
          "ticks": 128640,
          "time": 146.181672,
          "velocity": 0.6850393700787402
        },
        {
          "duration": 0.21818159999997988,
          "durationTicks": 192,
          "midi": 43,
          "name": "G2",
          "ticks": 128880,
          "time": 146.454399,
          "velocity": 0.7637795275590551
        },
        {
          "duration": 0.21818159999997988,
          "durationTicks": 192,
          "midi": 67,
          "name": "G4",
          "ticks": 128880,
          "time": 146.454399,
          "velocity": 0.7086614173228346
        },
        {
          "duration": 0.21818159999997988,
          "durationTicks": 192,
          "midi": 43,
          "name": "G2",
          "ticks": 129120,
          "time": 146.727126,
          "velocity": 0.7795275590551181
        },
        {
          "duration": 0.21818159999997988,
          "durationTicks": 192,
          "midi": 70,
          "name": "A#4",
          "ticks": 129120,
          "time": 146.727126,
          "velocity": 0.7086614173228346
        },
        {
          "duration": 0.21818159999997988,
          "durationTicks": 192,
          "midi": 43,
          "name": "G2",
          "ticks": 129360,
          "time": 146.999853,
          "velocity": 0.6377952755905512
        },
        {
          "duration": 1.213635150000016,
          "durationTicks": 1068,
          "midi": 65,
          "name": "F4",
          "ticks": 129360,
          "time": 146.999853,
          "velocity": 0.7559055118110236
        },
        {
          "duration": 1.2227260500000057,
          "durationTicks": 1076,
          "midi": 70,
          "name": "A#4",
          "ticks": 129360,
          "time": 146.999853,
          "velocity": 0.7401574803149606
        },
        {
          "duration": 0.681817499999994,
          "durationTicks": 600,
          "midi": 74,
          "name": "D5",
          "ticks": 129360,
          "time": 146.999853,
          "velocity": 0.7322834645669292
        },
        {
          "duration": 0.21818159999997988,
          "durationTicks": 192,
          "midi": 41,
          "name": "F2",
          "ticks": 129600,
          "time": 147.27258,
          "velocity": 0.7480314960629921
        },
        {
          "duration": 0.21818159999997988,
          "durationTicks": 192,
          "midi": 41,
          "name": "F2",
          "ticks": 129840,
          "time": 147.545307,
          "velocity": 0.7401574803149606
        },
        {
          "duration": 0.21818159999997988,
          "durationTicks": 192,
          "midi": 41,
          "name": "F2",
          "ticks": 130080,
          "time": 147.818034,
          "velocity": 0.7165354330708661
        },
        {
          "duration": 0.4090904999999907,
          "durationTicks": 360,
          "midi": 72,
          "name": "C5",
          "ticks": 130080,
          "time": 147.818034,
          "velocity": 0.6771653543307087
        },
        {
          "duration": 0.2181816000000083,
          "durationTicks": 192,
          "midi": 41,
          "name": "F2",
          "ticks": 130320,
          "time": 148.090761,
          "velocity": 0.7480314960629921
        },
        {
          "duration": 0.2181816000000083,
          "durationTicks": 192,
          "midi": 39,
          "name": "D#2",
          "ticks": 130560,
          "time": 148.363488,
          "velocity": 0.7795275590551181
        },
        {
          "duration": 0.6818175000000224,
          "durationTicks": 600,
          "midi": 63,
          "name": "D#4",
          "ticks": 130560,
          "time": 148.363488,
          "velocity": 0.7322834645669292
        },
        {
          "duration": 0.2181816000000083,
          "durationTicks": 192,
          "midi": 70,
          "name": "A#4",
          "ticks": 130560,
          "time": 148.363488,
          "velocity": 0.7322834645669292
        },
        {
          "duration": 0.21818159999997988,
          "durationTicks": 192,
          "midi": 39,
          "name": "D#2",
          "ticks": 130800,
          "time": 148.636215,
          "velocity": 0.6692913385826772
        },
        {
          "duration": 0.21818159999997988,
          "durationTicks": 192,
          "midi": 67,
          "name": "G4",
          "ticks": 130800,
          "time": 148.636215,
          "velocity": 0.7244094488188977
        },
        {
          "duration": 0.21818159999997988,
          "durationTicks": 192,
          "midi": 39,
          "name": "D#2",
          "ticks": 131040,
          "time": 148.908942,
          "velocity": 0.7165354330708661
        },
        {
          "duration": 0.21818159999997988,
          "durationTicks": 192,
          "midi": 70,
          "name": "A#4",
          "ticks": 131040,
          "time": 148.908942,
          "velocity": 0.7716535433070866
        },
        {
          "duration": 0.10909079999998994,
          "durationTicks": 96,
          "midi": 39,
          "name": "D#2",
          "ticks": 131280,
          "time": 149.181669,
          "velocity": 0.7086614173228346
        },
        {
          "duration": 0.681817499999994,
          "durationTicks": 600,
          "midi": 75,
          "name": "D#5",
          "ticks": 131280,
          "time": 149.181669,
          "velocity": 0.7559055118110236
        },
        {
          "duration": 1.2318169499999954,
          "durationTicks": 1084,
          "midi": 67,
          "name": "G4",
          "ticks": 131280,
          "time": 149.181669,
          "velocity": 0.7637795275590551
        },
        {
          "duration": 1.2318169499999954,
          "durationTicks": 1084,
          "midi": 70,
          "name": "A#4",
          "ticks": 131280,
          "time": 149.181669,
          "velocity": 0.6850393700787402
        },
        {
          "duration": 0.10909080000001836,
          "durationTicks": 96,
          "midi": 39,
          "name": "D#2",
          "ticks": 131400,
          "time": 149.3180325,
          "velocity": 0.7795275590551181
        },
        {
          "duration": 0.21818159999997988,
          "durationTicks": 192,
          "midi": 41,
          "name": "F2",
          "ticks": 131520,
          "time": 149.454396,
          "velocity": 0.7401574803149606
        },
        {
          "duration": 0.21818159999997988,
          "durationTicks": 192,
          "midi": 41,
          "name": "F2",
          "ticks": 131760,
          "time": 149.727123,
          "velocity": 0.7795275590551181
        },
        {
          "duration": 0.21818159999997988,
          "durationTicks": 192,
          "midi": 41,
          "name": "F2",
          "ticks": 132000,
          "time": 149.99985,
          "velocity": 0.6929133858267716
        },
        {
          "duration": 0.4090904999999907,
          "durationTicks": 360,
          "midi": 74,
          "name": "D5",
          "ticks": 132000,
          "time": 149.99985,
          "velocity": 0.7716535433070866
        },
        {
          "duration": 0.10909079999998994,
          "durationTicks": 96,
          "midi": 41,
          "name": "F2",
          "ticks": 132240,
          "time": 150.272577,
          "velocity": 0.6929133858267716
        },
        {
          "duration": 0.10909079999998994,
          "durationTicks": 96,
          "midi": 41,
          "name": "F2",
          "ticks": 132360,
          "time": 150.4089405,
          "velocity": 0.7322834645669292
        },
        {
          "duration": 0.2181816000000083,
          "durationTicks": 192,
          "midi": 34,
          "name": "A#1",
          "ticks": 132480,
          "time": 150.545304,
          "velocity": 0.6299212598425197
        },
        {
          "duration": 0.3954541500000346,
          "durationTicks": 348,
          "midi": 65,
          "name": "F4",
          "ticks": 132480,
          "time": 150.545304,
          "velocity": 0.7795275590551181
        },
        {
          "duration": 0.4090905000000191,
          "durationTicks": 360,
          "midi": 62,
          "name": "D4",
          "ticks": 132480,
          "time": 150.545304,
          "velocity": 0.7480314960629921
        },
        {
          "duration": 2.0454525000000103,
          "durationTicks": 1800,
          "midi": 70,
          "name": "A#4",
          "ticks": 132480,
          "time": 150.545304,
          "velocity": 0.6929133858267716
        },
        {
          "duration": 0.2181816000000083,
          "durationTicks": 192,
          "midi": 34,
          "name": "A#1",
          "ticks": 132720,
          "time": 150.818031,
          "velocity": 0.7007874015748031
        },
        {
          "duration": 0.10909079999998994,
          "durationTicks": 96,
          "midi": 37,
          "name": "C#2",
          "ticks": 132960,
          "time": 151.090758,
          "velocity": 0.6614173228346457
        },
        {
          "duration": 0.16818165000000818,
          "durationTicks": 148,
          "midi": 62,
          "name": "D4",
          "ticks": 132960,
          "time": 151.090758,
          "velocity": 0.7244094488188977
        },
        {
          "duration": 0.16818165000000818,
          "durationTicks": 148,
          "midi": 67,
          "name": "G4",
          "ticks": 132960,
          "time": 151.090758,
          "velocity": 0.7401574803149606
        },
        {
          "duration": 0.10909079999998994,
          "durationTicks": 96,
          "midi": 38,
          "name": "D2",
          "ticks": 133080,
          "time": 151.2271215,
          "velocity": 0.7559055118110236
        },
        {
          "duration": 0.4363632000000166,
          "durationTicks": 384,
          "midi": 41,
          "name": "F2",
          "ticks": 133200,
          "time": 151.363485,
          "velocity": 0.7716535433070866
        },
        {
          "duration": 0.4363632000000166,
          "durationTicks": 384,
          "midi": 62,
          "name": "D4",
          "ticks": 133200,
          "time": 151.363485,
          "velocity": 0.7637795275590551
        },
        {
          "duration": 0.4363632000000166,
          "durationTicks": 384,
          "midi": 65,
          "name": "F4",
          "ticks": 133200,
          "time": 151.363485,
          "velocity": 0.7637795275590551
        },
        {
          "duration": 0.21818159999997988,
          "durationTicks": 192,
          "midi": 41,
          "name": "F2",
          "ticks": 133680,
          "time": 151.908939,
          "velocity": 0.6929133858267716
        },
        {
          "duration": 0.21818159999997988,
          "durationTicks": 192,
          "midi": 62,
          "name": "D4",
          "ticks": 133680,
          "time": 151.908939,
          "velocity": 0.7637795275590551
        },
        {
          "duration": 0.21818159999997988,
          "durationTicks": 192,
          "midi": 65,
          "name": "F4",
          "ticks": 133680,
          "time": 151.908939,
          "velocity": 0.7007874015748031
        },
        {
          "duration": 0.21818159999997988,
          "durationTicks": 192,
          "midi": 43,
          "name": "G2",
          "ticks": 133920,
          "time": 152.181666,
          "velocity": 0.6692913385826772
        },
        {
          "duration": 0.4090904999999907,
          "durationTicks": 360,
          "midi": 62,
          "name": "D4",
          "ticks": 133920,
          "time": 152.181666,
          "velocity": 0.6850393700787402
        },
        {
          "duration": 0.39545415000000617,
          "durationTicks": 348,
          "midi": 67,
          "name": "G4",
          "ticks": 133920,
          "time": 152.181666,
          "velocity": 0.7559055118110236
        },
        {
          "duration": 0.21818159999997988,
          "durationTicks": 192,
          "midi": 46,
          "name": "A#2",
          "ticks": 134160,
          "time": 152.454393,
          "velocity": 0.6614173228346457
        },
        {
          "duration": 0.2181816000000083,
          "durationTicks": 192,
          "midi": 46,
          "name": "A#2",
          "ticks": 134400,
          "time": 152.72711999999999,
          "velocity": 0.7716535433070866
        },
        {
          "duration": 0.6818175000000224,
          "durationTicks": 600,
          "midi": 70,
          "name": "A#4",
          "ticks": 134400,
          "time": 152.72711999999999,
          "velocity": 0.7401574803149606
        },
        {
          "duration": 0.6818175000000224,
          "durationTicks": 600,
          "midi": 74,
          "name": "D5",
          "ticks": 134400,
          "time": 152.72711999999999,
          "velocity": 0.6692913385826772
        },
        {
          "duration": 0.6818175000000224,
          "durationTicks": 600,
          "midi": 77,
          "name": "F5",
          "ticks": 134400,
          "time": 152.72711999999999,
          "velocity": 0.6771653543307087
        },
        {
          "duration": 0.2181816000000083,
          "durationTicks": 192,
          "midi": 46,
          "name": "A#2",
          "ticks": 134640,
          "time": 152.999847,
          "velocity": 0.7559055118110236
        },
        {
          "duration": 0.2181816000000083,
          "durationTicks": 192,
          "midi": 46,
          "name": "A#2",
          "ticks": 134880,
          "time": 153.272574,
          "velocity": 0.7401574803149606
        },
        {
          "duration": 0.21818159999997988,
          "durationTicks": 192,
          "midi": 46,
          "name": "A#2",
          "ticks": 135120,
          "time": 153.545301,
          "velocity": 0.7480314960629921
        },
        {
          "duration": 1.2227260500000057,
          "durationTicks": 1076,
          "midi": 69,
          "name": "A4",
          "ticks": 135120,
          "time": 153.545301,
          "velocity": 0.7637795275590551
        },
        {
          "duration": 0.681817499999994,
          "durationTicks": 600,
          "midi": 74,
          "name": "D5",
          "ticks": 135120,
          "time": 153.545301,
          "velocity": 0.7637795275590551
        },
        {
          "duration": 0.681817499999994,
          "durationTicks": 600,
          "midi": 79,
          "name": "G5",
          "ticks": 135120,
          "time": 153.545301,
          "velocity": 0.6614173228346457
        },
        {
          "duration": 0.21818159999997988,
          "durationTicks": 192,
          "midi": 45,
          "name": "A2",
          "ticks": 135360,
          "time": 153.818028,
          "velocity": 0.6929133858267716
        },
        {
          "duration": 0.21818159999997988,
          "durationTicks": 192,
          "midi": 45,
          "name": "A2",
          "ticks": 135600,
          "time": 154.090755,
          "velocity": 0.6850393700787402
        },
        {
          "duration": 0.21818159999997988,
          "durationTicks": 192,
          "midi": 45,
          "name": "A2",
          "ticks": 135840,
          "time": 154.363482,
          "velocity": 0.7244094488188977
        },
        {
          "duration": 0.21818159999997988,
          "durationTicks": 192,
          "midi": 74,
          "name": "D5",
          "ticks": 135840,
          "time": 154.363482,
          "velocity": 0.7716535433070866
        },
        {
          "duration": 0.21818159999997988,
          "durationTicks": 192,
          "midi": 45,
          "name": "A2",
          "ticks": 136080,
          "time": 154.636209,
          "velocity": 0.7716535433070866
        },
        {
          "duration": 0.21818159999997988,
          "durationTicks": 192,
          "midi": 72,
          "name": "C5",
          "ticks": 136080,
          "time": 154.636209,
          "velocity": 0.7165354330708661
        },
        {
          "duration": 0.21818159999997988,
          "durationTicks": 192,
          "midi": 43,
          "name": "G2",
          "ticks": 136320,
          "time": 154.908936,
          "velocity": 0.7244094488188977
        },
        {
          "duration": 0.681817499999994,
          "durationTicks": 600,
          "midi": 62,
          "name": "D4",
          "ticks": 136320,
          "time": 154.908936,
          "velocity": 0.7637795275590551
        },
        {
          "duration": 0.21818159999997988,
          "durationTicks": 192,
          "midi": 70,
          "name": "A#4",
          "ticks": 136320,
          "time": 154.908936,
          "velocity": 0.7165354330708661
        },
        {
          "duration": 0.2181816000000083,
          "durationTicks": 192,
          "midi": 43,
          "name": "G2",
          "ticks": 136560,
          "time": 155.181663,
          "velocity": 0.7244094488188977
        },
        {
          "duration": 0.2181816000000083,
          "durationTicks": 192,
          "midi": 67,
          "name": "G4",
          "ticks": 136560,
          "time": 155.181663,
          "velocity": 0.7086614173228346
        },
        {
          "duration": 0.2181816000000083,
          "durationTicks": 192,
          "midi": 43,
          "name": "G2",
          "ticks": 136800,
          "time": 155.45439,
          "velocity": 0.6929133858267716
        },
        {
          "duration": 0.2181816000000083,
          "durationTicks": 192,
          "midi": 70,
          "name": "A#4",
          "ticks": 136800,
          "time": 155.45439,
          "velocity": 0.7480314960629921
        },
        {
          "duration": 0.21818159999997988,
          "durationTicks": 192,
          "midi": 43,
          "name": "G2",
          "ticks": 137040,
          "time": 155.727117,
          "velocity": 0.6929133858267716
        },
        {
          "duration": 1.213635150000016,
          "durationTicks": 1068,
          "midi": 65,
          "name": "F4",
          "ticks": 137040,
          "time": 155.727117,
          "velocity": 0.6929133858267716
        },
        {
          "duration": 1.2227260500000057,
          "durationTicks": 1076,
          "midi": 70,
          "name": "A#4",
          "ticks": 137040,
          "time": 155.727117,
          "velocity": 0.7480314960629921
        },
        {
          "duration": 0.681817499999994,
          "durationTicks": 600,
          "midi": 74,
          "name": "D5",
          "ticks": 137040,
          "time": 155.727117,
          "velocity": 0.7401574803149606
        },
        {
          "duration": 0.21818159999997988,
          "durationTicks": 192,
          "midi": 41,
          "name": "F2",
          "ticks": 137280,
          "time": 155.999844,
          "velocity": 0.7559055118110236
        },
        {
          "duration": 0.21818159999997988,
          "durationTicks": 192,
          "midi": 41,
          "name": "F2",
          "ticks": 137520,
          "time": 156.272571,
          "velocity": 0.7637795275590551
        },
        {
          "duration": 0.21818159999997988,
          "durationTicks": 192,
          "midi": 41,
          "name": "F2",
          "ticks": 137760,
          "time": 156.545298,
          "velocity": 0.7244094488188977
        },
        {
          "duration": 0.4090904999999907,
          "durationTicks": 360,
          "midi": 72,
          "name": "C5",
          "ticks": 137760,
          "time": 156.545298,
          "velocity": 0.7480314960629921
        },
        {
          "duration": 0.21818159999997988,
          "durationTicks": 192,
          "midi": 41,
          "name": "F2",
          "ticks": 138000,
          "time": 156.818025,
          "velocity": 0.6771653543307087
        },
        {
          "duration": 0.21818159999997988,
          "durationTicks": 192,
          "midi": 39,
          "name": "D#2",
          "ticks": 138240,
          "time": 157.090752,
          "velocity": 0.7322834645669292
        },
        {
          "duration": 0.681817499999994,
          "durationTicks": 600,
          "midi": 63,
          "name": "D#4",
          "ticks": 138240,
          "time": 157.090752,
          "velocity": 0.7795275590551181
        },
        {
          "duration": 0.21818159999997988,
          "durationTicks": 192,
          "midi": 70,
          "name": "A#4",
          "ticks": 138240,
          "time": 157.090752,
          "velocity": 0.7401574803149606
        },
        {
          "duration": 0.21818159999997988,
          "durationTicks": 192,
          "midi": 39,
          "name": "D#2",
          "ticks": 138480,
          "time": 157.363479,
          "velocity": 0.6614173228346457
        },
        {
          "duration": 0.21818159999997988,
          "durationTicks": 192,
          "midi": 67,
          "name": "G4",
          "ticks": 138480,
          "time": 157.363479,
          "velocity": 0.6929133858267716
        },
        {
          "duration": 0.2181816000000083,
          "durationTicks": 192,
          "midi": 39,
          "name": "D#2",
          "ticks": 138720,
          "time": 157.636206,
          "velocity": 0.7401574803149606
        },
        {
          "duration": 0.2181816000000083,
          "durationTicks": 192,
          "midi": 70,
          "name": "A#4",
          "ticks": 138720,
          "time": 157.636206,
          "velocity": 0.6929133858267716
        },
        {
          "duration": 0.10909079999998994,
          "durationTicks": 96,
          "midi": 39,
          "name": "D#2",
          "ticks": 138960,
          "time": 157.908933,
          "velocity": 0.7322834645669292
        },
        {
          "duration": 0.681817499999994,
          "durationTicks": 600,
          "midi": 75,
          "name": "D#5",
          "ticks": 138960,
          "time": 157.908933,
          "velocity": 0.7086614173228346
        },
        {
          "duration": 1.2318169499999954,
          "durationTicks": 1084,
          "midi": 67,
          "name": "G4",
          "ticks": 138960,
          "time": 157.908933,
          "velocity": 0.7637795275590551
        },
        {
          "duration": 1.2318169499999954,
          "durationTicks": 1084,
          "midi": 70,
          "name": "A#4",
          "ticks": 138960,
          "time": 157.908933,
          "velocity": 0.7559055118110236
        },
        {
          "duration": 0.10909079999998994,
          "durationTicks": 96,
          "midi": 39,
          "name": "D#2",
          "ticks": 139080,
          "time": 158.0452965,
          "velocity": 0.7165354330708661
        },
        {
          "duration": 0.21818159999997988,
          "durationTicks": 192,
          "midi": 41,
          "name": "F2",
          "ticks": 139200,
          "time": 158.18166,
          "velocity": 0.7480314960629921
        },
        {
          "duration": 0.21818159999997988,
          "durationTicks": 192,
          "midi": 41,
          "name": "F2",
          "ticks": 139440,
          "time": 158.454387,
          "velocity": 0.7244094488188977
        },
        {
          "duration": 0.21818159999997988,
          "durationTicks": 192,
          "midi": 41,
          "name": "F2",
          "ticks": 139680,
          "time": 158.727114,
          "velocity": 0.7401574803149606
        },
        {
          "duration": 0.4090904999999907,
          "durationTicks": 360,
          "midi": 74,
          "name": "D5",
          "ticks": 139680,
          "time": 158.727114,
          "velocity": 0.6850393700787402
        },
        {
          "duration": 0.10909079999998994,
          "durationTicks": 96,
          "midi": 41,
          "name": "F2",
          "ticks": 139920,
          "time": 158.999841,
          "velocity": 0.7637795275590551
        },
        {
          "duration": 0.10909079999998994,
          "durationTicks": 96,
          "midi": 41,
          "name": "F2",
          "ticks": 140040,
          "time": 159.1362045,
          "velocity": 0.7401574803149606
        },
        {
          "duration": 0.21818159999997988,
          "durationTicks": 192,
          "midi": 34,
          "name": "A#1",
          "ticks": 140160,
          "time": 159.272568,
          "velocity": 0.7716535433070866
        },
        {
          "duration": 0.39545415000000617,
          "durationTicks": 348,
          "midi": 65,
          "name": "F4",
          "ticks": 140160,
          "time": 159.272568,
          "velocity": 0.7007874015748031
        },
        {
          "duration": 0.4090904999999907,
          "durationTicks": 360,
          "midi": 62,
          "name": "D4",
          "ticks": 140160,
          "time": 159.272568,
          "velocity": 0.6929133858267716
        },
        {
          "duration": 2.045452499999982,
          "durationTicks": 1800,
          "midi": 70,
          "name": "A#4",
          "ticks": 140160,
          "time": 159.272568,
          "velocity": 0.7559055118110236
        },
        {
          "duration": 0.21818159999997988,
          "durationTicks": 192,
          "midi": 34,
          "name": "A#1",
          "ticks": 140400,
          "time": 159.545295,
          "velocity": 0.7086614173228346
        },
        {
          "duration": 0.10909080000001836,
          "durationTicks": 96,
          "midi": 37,
          "name": "C#2",
          "ticks": 140640,
          "time": 159.81802199999998,
          "velocity": 0.7480314960629921
        },
        {
          "duration": 0.16818165000000818,
          "durationTicks": 148,
          "midi": 62,
          "name": "D4",
          "ticks": 140640,
          "time": 159.81802199999998,
          "velocity": 0.7795275590551181
        },
        {
          "duration": 0.16818165000000818,
          "durationTicks": 148,
          "midi": 67,
          "name": "G4",
          "ticks": 140640,
          "time": 159.81802199999998,
          "velocity": 0.7795275590551181
        },
        {
          "duration": 0.10909079999998994,
          "durationTicks": 96,
          "midi": 38,
          "name": "D2",
          "ticks": 140760,
          "time": 159.9543855,
          "velocity": 0.7480314960629921
        },
        {
          "duration": 0.4363632000000166,
          "durationTicks": 384,
          "midi": 41,
          "name": "F2",
          "ticks": 140880,
          "time": 160.090749,
          "velocity": 0.7795275590551181
        },
        {
          "duration": 0.4363632000000166,
          "durationTicks": 384,
          "midi": 62,
          "name": "D4",
          "ticks": 140880,
          "time": 160.090749,
          "velocity": 0.6850393700787402
        },
        {
          "duration": 0.4363632000000166,
          "durationTicks": 384,
          "midi": 65,
          "name": "F4",
          "ticks": 140880,
          "time": 160.090749,
          "velocity": 0.7165354330708661
        },
        {
          "duration": 0.21818159999997988,
          "durationTicks": 192,
          "midi": 41,
          "name": "F2",
          "ticks": 141360,
          "time": 160.636203,
          "velocity": 0.7716535433070866
        },
        {
          "duration": 0.21818159999997988,
          "durationTicks": 192,
          "midi": 62,
          "name": "D4",
          "ticks": 141360,
          "time": 160.636203,
          "velocity": 0.7716535433070866
        },
        {
          "duration": 0.21818159999997988,
          "durationTicks": 192,
          "midi": 65,
          "name": "F4",
          "ticks": 141360,
          "time": 160.636203,
          "velocity": 0.7795275590551181
        },
        {
          "duration": 0.21818159999997988,
          "durationTicks": 192,
          "midi": 43,
          "name": "G2",
          "ticks": 141600,
          "time": 160.90893,
          "velocity": 0.7559055118110236
        },
        {
          "duration": 0.4090904999999907,
          "durationTicks": 360,
          "midi": 62,
          "name": "D4",
          "ticks": 141600,
          "time": 160.90893,
          "velocity": 0.6850393700787402
        },
        {
          "duration": 0.39545415000000617,
          "durationTicks": 348,
          "midi": 67,
          "name": "G4",
          "ticks": 141600,
          "time": 160.90893,
          "velocity": 0.6456692913385826
        },
        {
          "duration": 0.21818159999997988,
          "durationTicks": 192,
          "midi": 46,
          "name": "A#2",
          "ticks": 141840,
          "time": 161.181657,
          "velocity": 0.7244094488188977
        }
      ],
      "endOfTrackTicks": 142032
    },
    {
      "channel": 0,
      "controlChanges": {
        "7": [
          {
            "number": 7,
            "ticks": 0,
            "time": 0,
            "value": 0.8976377952755905
          }
        ],
        "10": [
          {
            "number": 10,
            "ticks": 0,
            "time": 0,
            "value": 0.12598425196850394
          }
        ],
        "32": [
          {
            "number": 32,
            "ticks": 0,
            "time": 0,
            "value": 0
          }
        ],
        "91": [
          {
            "number": 91,
            "ticks": 0,
            "time": 0,
            "value": 0.6614173228346457
          }
        ]
      },
      "pitchBends": [],
      "instrument": {
        "family": "piano",
        "number": 0,
        "name": "acoustic grand piano"
      },
      "name": "Guitar  ",
      "notes": [],
      "endOfTrackTicks": 141840
    },
    {
      "channel": 2,
      "controlChanges": {
        "7": [
          {
            "number": 7,
            "ticks": 134400,
            "time": 152.72711999999999,
            "value": 0.8503937007874016
          },
          {
            "number": 7,
            "ticks": 134640,
            "time": 152.999847,
            "value": 0.8188976377952756
          },
          {
            "number": 7,
            "ticks": 134880,
            "time": 153.272574,
            "value": 0.7952755905511811
          },
          {
            "number": 7,
            "ticks": 135120,
            "time": 153.545301,
            "value": 0.7637795275590551
          },
          {
            "number": 7,
            "ticks": 135360,
            "time": 153.818028,
            "value": 0.7401574803149606
          },
          {
            "number": 7,
            "ticks": 135600,
            "time": 154.090755,
            "value": 0.7165354330708661
          },
          {
            "number": 7,
            "ticks": 135840,
            "time": 154.363482,
            "value": 0.6850393700787402
          },
          {
            "number": 7,
            "ticks": 136080,
            "time": 154.636209,
            "value": 0.6614173228346457
          },
          {
            "number": 7,
            "ticks": 136320,
            "time": 154.908936,
            "value": 0.6299212598425197
          },
          {
            "number": 7,
            "ticks": 136560,
            "time": 155.181663,
            "value": 0.6062992125984252
          },
          {
            "number": 7,
            "ticks": 136800,
            "time": 155.45439,
            "value": 0.5826771653543307
          },
          {
            "number": 7,
            "ticks": 137040,
            "time": 155.727117,
            "value": 0.5511811023622047
          },
          {
            "number": 7,
            "ticks": 137280,
            "time": 155.999844,
            "value": 0.5275590551181102
          },
          {
            "number": 7,
            "ticks": 137520,
            "time": 156.272571,
            "value": 0.5039370078740157
          },
          {
            "number": 7,
            "ticks": 137760,
            "time": 156.545298,
            "value": 0.47244094488188976
          },
          {
            "number": 7,
            "ticks": 138000,
            "time": 156.818025,
            "value": 0.44881889763779526
          },
          {
            "number": 7,
            "ticks": 138240,
            "time": 157.090752,
            "value": 0.41732283464566927
          },
          {
            "number": 7,
            "ticks": 138480,
            "time": 157.363479,
            "value": 0.3937007874015748
          },
          {
            "number": 7,
            "ticks": 138720,
            "time": 157.636206,
            "value": 0.3700787401574803
          },
          {
            "number": 7,
            "ticks": 138960,
            "time": 157.908933,
            "value": 0.33858267716535434
          },
          {
            "number": 7,
            "ticks": 139200,
            "time": 158.18166,
            "value": 0.31496062992125984
          },
          {
            "number": 7,
            "ticks": 139440,
            "time": 158.454387,
            "value": 0.29133858267716534
          },
          {
            "number": 7,
            "ticks": 139680,
            "time": 158.727114,
            "value": 0.25984251968503935
          },
          {
            "number": 7,
            "ticks": 139920,
            "time": 158.999841,
            "value": 0.23622047244094488
          },
          {
            "number": 7,
            "ticks": 140160,
            "time": 159.272568,
            "value": 0.2047244094488189
          },
          {
            "number": 7,
            "ticks": 140400,
            "time": 159.545295,
            "value": 0.18110236220472442
          },
          {
            "number": 7,
            "ticks": 140640,
            "time": 159.81802199999998,
            "value": 0.15748031496062992
          },
          {
            "number": 7,
            "ticks": 140880,
            "time": 160.090749,
            "value": 0.12598425196850394
          },
          {
            "number": 7,
            "ticks": 141120,
            "time": 160.363476,
            "value": 0.10236220472440945
          },
          {
            "number": 7,
            "ticks": 141360,
            "time": 160.636203,
            "value": 0.07874015748031496
          },
          {
            "number": 7,
            "ticks": 141600,
            "time": 160.90893,
            "value": 0.047244094488188976
          },
          {
            "number": 7,
            "ticks": 141840,
            "time": 161.181657,
            "value": 0.023622047244094488
          }
        ],
        "64": [
          {
            "number": 64,
            "ticks": 0,
            "time": 0,
            "value": 0
          }
        ],
        "123": [
          {
            "number": 123,
            "ticks": 0,
            "time": 0,
            "value": 0
          }
        ]
      },
      "pitchBends": [
        {
          "ticks": 2460,
          "time": 2.79545175,
          "value": 0
        },
        {
          "ticks": 2475,
          "time": 2.8124971875,
          "value": 0.125
        },
        {
          "ticks": 2490,
          "time": 2.8295426249999998,
          "value": 0.25
        },
        {
          "ticks": 2505,
          "time": 2.8465880625,
          "value": 0.375
        },
        {
          "ticks": 2520,
          "time": 2.8636335,
          "value": 0.5
        },
        {
          "ticks": 2638,
          "time": 2.997724275,
          "value": 0
        },
        {
          "ticks": 3420,
          "time": 3.88635975,
          "value": 0
        },
        {
          "ticks": 3435,
          "time": 3.9034051874999998,
          "value": 0.125
        },
        {
          "ticks": 3450,
          "time": 3.920450625,
          "value": 0.25
        },
        {
          "ticks": 3465,
          "time": 3.9374960625,
          "value": 0.375
        },
        {
          "ticks": 3480,
          "time": 3.9545415,
          "value": 0.5
        },
        {
          "ticks": 3598,
          "time": 4.088632275,
          "value": 0
        },
        {
          "ticks": 4380,
          "time": 4.97726775,
          "value": 0
        },
        {
          "ticks": 4395,
          "time": 4.9943131874999995,
          "value": 0.125
        },
        {
          "ticks": 4410,
          "time": 5.011358625,
          "value": 0.25
        },
        {
          "ticks": 4425,
          "time": 5.0284040625,
          "value": 0.375
        },
        {
          "ticks": 4440,
          "time": 5.0454495,
          "value": 0.5
        },
        {
          "ticks": 4558,
          "time": 5.179540275,
          "value": 0
        },
        {
          "ticks": 5340,
          "time": 6.06817575,
          "value": 0
        },
        {
          "ticks": 5355,
          "time": 6.0852211875,
          "value": 0.125
        },
        {
          "ticks": 5370,
          "time": 6.1022666249999995,
          "value": 0.25
        },
        {
          "ticks": 5385,
          "time": 6.1193120625,
          "value": 0.375
        },
        {
          "ticks": 5400,
          "time": 6.1363575,
          "value": 0.5
        },
        {
          "ticks": 5518,
          "time": 6.270448275,
          "value": 0
        },
        {
          "ticks": 6300,
          "time": 7.15908375,
          "value": 0
        },
        {
          "ticks": 6315,
          "time": 7.1761291875,
          "value": 0.125
        },
        {
          "ticks": 6330,
          "time": 7.193174625,
          "value": 0.25
        },
        {
          "ticks": 6345,
          "time": 7.2102200625,
          "value": 0.375
        },
        {
          "ticks": 6360,
          "time": 7.2272655,
          "value": 0.5
        },
        {
          "ticks": 6478,
          "time": 7.361356275,
          "value": 0
        },
        {
          "ticks": 7260,
          "time": 8.24999175,
          "value": 0
        },
        {
          "ticks": 7275,
          "time": 8.2670371875,
          "value": 0.125
        },
        {
          "ticks": 7290,
          "time": 8.284082625,
          "value": 0.25
        },
        {
          "ticks": 7305,
          "time": 8.3011280625,
          "value": 0.375
        },
        {
          "ticks": 7320,
          "time": 8.3181735,
          "value": 0.5
        },
        {
          "ticks": 7438,
          "time": 8.452264275,
          "value": 0
        },
        {
          "ticks": 8220,
          "time": 9.34089975,
          "value": 0
        },
        {
          "ticks": 8235,
          "time": 9.3579451875,
          "value": 0.125
        },
        {
          "ticks": 8250,
          "time": 9.374990625,
          "value": 0.25
        },
        {
          "ticks": 8265,
          "time": 9.3920360625,
          "value": 0.375
        },
        {
          "ticks": 8280,
          "time": 9.4090815,
          "value": 0.5
        },
        {
          "ticks": 8398,
          "time": 9.543172275,
          "value": 0
        },
        {
          "ticks": 9180,
          "time": 10.431807749999999,
          "value": 0
        },
        {
          "ticks": 9195,
          "time": 10.4488531875,
          "value": 0.125
        },
        {
          "ticks": 9210,
          "time": 10.465898625,
          "value": 0.25
        },
        {
          "ticks": 9225,
          "time": 10.4829440625,
          "value": 0.375
        },
        {
          "ticks": 9240,
          "time": 10.4999895,
          "value": 0.5
        },
        {
          "ticks": 9358,
          "time": 10.634080275,
          "value": 0
        },
        {
          "ticks": 83100,
          "time": 94.43172375,
          "value": 0
        },
        {
          "ticks": 83115,
          "time": 94.4487691875,
          "value": 0.125
        },
        {
          "ticks": 83130,
          "time": 94.465814625,
          "value": 0.25
        },
        {
          "ticks": 83145,
          "time": 94.4828600625,
          "value": 0.375
        },
        {
          "ticks": 83160,
          "time": 94.4999055,
          "value": 0.5
        },
        {
          "ticks": 83278,
          "time": 94.633996275,
          "value": 0
        },
        {
          "ticks": 84060,
          "time": 95.52263175,
          "value": 0
        },
        {
          "ticks": 84075,
          "time": 95.5396771875,
          "value": 0.125
        },
        {
          "ticks": 84090,
          "time": 95.55672262499999,
          "value": 0.25
        },
        {
          "ticks": 84105,
          "time": 95.5737680625,
          "value": 0.375
        },
        {
          "ticks": 84120,
          "time": 95.5908135,
          "value": 0.5
        },
        {
          "ticks": 84238,
          "time": 95.724904275,
          "value": 0
        },
        {
          "ticks": 85020,
          "time": 96.61353975,
          "value": 0
        },
        {
          "ticks": 85035,
          "time": 96.6305851875,
          "value": 0.125
        },
        {
          "ticks": 85050,
          "time": 96.647630625,
          "value": 0.25
        },
        {
          "ticks": 85065,
          "time": 96.66467606249999,
          "value": 0.375
        },
        {
          "ticks": 85080,
          "time": 96.6817215,
          "value": 0.5
        },
        {
          "ticks": 85198,
          "time": 96.815812275,
          "value": 0
        },
        {
          "ticks": 85980,
          "time": 97.70444775,
          "value": 0
        },
        {
          "ticks": 85995,
          "time": 97.7214931875,
          "value": 0.125
        },
        {
          "ticks": 86010,
          "time": 97.738538625,
          "value": 0.25
        },
        {
          "ticks": 86025,
          "time": 97.7555840625,
          "value": 0.375
        },
        {
          "ticks": 86040,
          "time": 97.7726295,
          "value": 0.5
        },
        {
          "ticks": 86158,
          "time": 97.906720275,
          "value": 0
        }
      ],
      "instrument": {
        "family": "guitar",
        "number": 27,
        "name": "electric guitar (clean)"
      },
      "name": "",
      "notes": [
        {
          "duration": 0.2181816000000003,
          "durationTicks": 192,
          "midi": 45,
          "name": "A2",
          "ticks": 1920,
          "time": 2.181816,
          "velocity": 0.937007874015748
        },
        {
          "duration": 0.10909079999999971,
          "durationTicks": 96,
          "midi": 45,
          "name": "A2",
          "ticks": 2160,
          "time": 2.454543,
          "velocity": 0.9291338582677166
        },
        {
          "duration": 0.10909080000000015,
          "durationTicks": 96,
          "midi": 45,
          "name": "A2",
          "ticks": 2280,
          "time": 2.5909065,
          "velocity": 0.937007874015748
        },
        {
          "duration": 0.20454525000000023,
          "durationTicks": 180,
          "midi": 48,
          "name": "C3",
          "ticks": 2400,
          "time": 2.72727,
          "velocity": 0.8503937007874016
        },
        {
          "duration": 0.43636319999999973,
          "durationTicks": 384,
          "midi": 52,
          "name": "E3",
          "ticks": 2640,
          "time": 2.999997,
          "velocity": 0.8661417322834646
        },
        {
          "duration": 0.2181816000000003,
          "durationTicks": 192,
          "midi": 52,
          "name": "E3",
          "ticks": 3120,
          "time": 3.545451,
          "velocity": 0.8582677165354331
        },
        {
          "duration": 0.20454525000000023,
          "durationTicks": 180,
          "midi": 53,
          "name": "F3",
          "ticks": 3360,
          "time": 3.818178,
          "velocity": 0.9133858267716536
        },
        {
          "duration": 0.2181816000000003,
          "durationTicks": 192,
          "midi": 57,
          "name": "A3",
          "ticks": 3600,
          "time": 4.090905,
          "velocity": 0.8188976377952756
        },
        {
          "duration": 0.2181816000000003,
          "durationTicks": 192,
          "midi": 45,
          "name": "A2",
          "ticks": 3840,
          "time": 4.363632,
          "velocity": 0.8740157480314961
        },
        {
          "duration": 0.10909079999999971,
          "durationTicks": 96,
          "midi": 45,
          "name": "A2",
          "ticks": 4080,
          "time": 4.636359,
          "velocity": 0.8031496062992126
        },
        {
          "duration": 0.10909079999999971,
          "durationTicks": 96,
          "midi": 45,
          "name": "A2",
          "ticks": 4200,
          "time": 4.7727224999999995,
          "velocity": 0.8661417322834646
        },
        {
          "duration": 0.2045452499999998,
          "durationTicks": 180,
          "midi": 48,
          "name": "C3",
          "ticks": 4320,
          "time": 4.909086,
          "velocity": 0.8582677165354331
        },
        {
          "duration": 0.4363632000000006,
          "durationTicks": 384,
          "midi": 52,
          "name": "E3",
          "ticks": 4560,
          "time": 5.181813,
          "velocity": 0.8661417322834646
        },
        {
          "duration": 0.21818159999999942,
          "durationTicks": 192,
          "midi": 52,
          "name": "E3",
          "ticks": 5040,
          "time": 5.727267,
          "velocity": 0.9291338582677166
        },
        {
          "duration": 0.2045452499999998,
          "durationTicks": 180,
          "midi": 53,
          "name": "F3",
          "ticks": 5280,
          "time": 5.999994,
          "velocity": 0.8976377952755905
        },
        {
          "duration": 0.2181816000000003,
          "durationTicks": 192,
          "midi": 57,
          "name": "A3",
          "ticks": 5520,
          "time": 6.272721,
          "velocity": 0.937007874015748
        },
        {
          "duration": 0.21818159999999942,
          "durationTicks": 192,
          "midi": 45,
          "name": "A2",
          "ticks": 5760,
          "time": 6.545448,
          "velocity": 0.8503937007874016
        },
        {
          "duration": 0.10909079999999971,
          "durationTicks": 96,
          "midi": 45,
          "name": "A2",
          "ticks": 6000,
          "time": 6.818175,
          "velocity": 0.8503937007874016
        },
        {
          "duration": 0.10909079999999971,
          "durationTicks": 96,
          "midi": 45,
          "name": "A2",
          "ticks": 6120,
          "time": 6.9545385,
          "velocity": 0.84251968503937
        },
        {
          "duration": 0.2045452499999998,
          "durationTicks": 180,
          "midi": 48,
          "name": "C3",
          "ticks": 6240,
          "time": 7.090902,
          "velocity": 0.889763779527559
        },
        {
          "duration": 0.4363632000000006,
          "durationTicks": 384,
          "midi": 52,
          "name": "E3",
          "ticks": 6480,
          "time": 7.3636289999999995,
          "velocity": 0.937007874015748
        },
        {
          "duration": 0.2181816000000003,
          "durationTicks": 192,
          "midi": 52,
          "name": "E3",
          "ticks": 6960,
          "time": 7.909083,
          "velocity": 0.8740157480314961
        },
        {
          "duration": 0.2045452499999989,
          "durationTicks": 180,
          "midi": 53,
          "name": "F3",
          "ticks": 7200,
          "time": 8.18181,
          "velocity": 0.937007874015748
        },
        {
          "duration": 0.21818159999999942,
          "durationTicks": 192,
          "midi": 57,
          "name": "A3",
          "ticks": 7440,
          "time": 8.454537,
          "velocity": 0.8582677165354331
        },
        {
          "duration": 0.21818159999999942,
          "durationTicks": 192,
          "midi": 45,
          "name": "A2",
          "ticks": 7680,
          "time": 8.727264,
          "velocity": 0.937007874015748
        },
        {
          "duration": 0.1090908000000006,
          "durationTicks": 96,
          "midi": 45,
          "name": "A2",
          "ticks": 7920,
          "time": 8.999991,
          "velocity": 0.889763779527559
        },
        {
          "duration": 0.1090908000000006,
          "durationTicks": 96,
          "midi": 45,
          "name": "A2",
          "ticks": 8040,
          "time": 9.1363545,
          "velocity": 0.8740157480314961
        },
        {
          "duration": 0.20454525000000068,
          "durationTicks": 180,
          "midi": 48,
          "name": "C3",
          "ticks": 8160,
          "time": 9.272718,
          "velocity": 0.9212598425196851
        },
        {
          "duration": 0.4363632000000006,
          "durationTicks": 384,
          "midi": 52,
          "name": "E3",
          "ticks": 8400,
          "time": 9.545444999999999,
          "velocity": 0.889763779527559
        },
        {
          "duration": 0.21818159999999942,
          "durationTicks": 192,
          "midi": 52,
          "name": "E3",
          "ticks": 8880,
          "time": 10.090899,
          "velocity": 0.8976377952755905
        },
        {
          "duration": 0.20454525000000068,
          "durationTicks": 180,
          "midi": 53,
          "name": "F3",
          "ticks": 9120,
          "time": 10.363626,
          "velocity": 0.8503937007874016
        },
        {
          "duration": 0.21818159999999942,
          "durationTicks": 192,
          "midi": 57,
          "name": "A3",
          "ticks": 9360,
          "time": 10.636353,
          "velocity": 0.9133858267716536
        },
        {
          "duration": 0.21818159999999942,
          "durationTicks": 192,
          "midi": 45,
          "name": "A2",
          "ticks": 9600,
          "time": 10.90908,
          "velocity": 0.905511811023622
        },
        {
          "duration": 0.1090908000000006,
          "durationTicks": 96,
          "midi": 45,
          "name": "A2",
          "ticks": 9840,
          "time": 11.181807,
          "velocity": 0.905511811023622
        },
        {
          "duration": 0.1090908000000006,
          "durationTicks": 96,
          "midi": 45,
          "name": "A2",
          "ticks": 9960,
          "time": 11.318170499999999,
          "velocity": 0.889763779527559
        },
        {
          "duration": 0.21818159999999764,
          "durationTicks": 192,
          "midi": 49,
          "name": "C#3",
          "ticks": 10080,
          "time": 11.454534,
          "velocity": 0.889763779527559
        },
        {
          "duration": 0.45454499999999953,
          "durationTicks": 400,
          "midi": 52,
          "name": "E3",
          "ticks": 10320,
          "time": 11.727261,
          "velocity": 0.937007874015748
        },
        {
          "duration": 0.21818159999999942,
          "durationTicks": 192,
          "midi": 52,
          "name": "E3",
          "ticks": 10800,
          "time": 12.272715,
          "velocity": 0.8740157480314961
        },
        {
          "duration": 0.21818159999999942,
          "durationTicks": 192,
          "midi": 54,
          "name": "F#3",
          "ticks": 11040,
          "time": 12.545442,
          "velocity": 0.937007874015748
        },
        {
          "duration": 0.21818159999999942,
          "durationTicks": 192,
          "midi": 57,
          "name": "A3",
          "ticks": 11280,
          "time": 12.818169,
          "velocity": 0.905511811023622
        },
        {
          "duration": 0.21818159999999764,
          "durationTicks": 192,
          "midi": 45,
          "name": "A2",
          "ticks": 11520,
          "time": 13.090896,
          "velocity": 0.9291338582677166
        },
        {
          "duration": 0.21818159999999764,
          "durationTicks": 192,
          "midi": 57,
          "name": "A3",
          "ticks": 11520,
          "time": 13.090896,
          "velocity": 0.8976377952755905
        },
        {
          "duration": 0.10909079999999882,
          "durationTicks": 96,
          "midi": 45,
          "name": "A2",
          "ticks": 11760,
          "time": 13.363623,
          "velocity": 0.8661417322834646
        },
        {
          "duration": 0.10909079999999882,
          "durationTicks": 96,
          "midi": 57,
          "name": "A3",
          "ticks": 11760,
          "time": 13.363623,
          "velocity": 0.9212598425196851
        },
        {
          "duration": 0.10909079999999882,
          "durationTicks": 96,
          "midi": 45,
          "name": "A2",
          "ticks": 11880,
          "time": 13.4999865,
          "velocity": 0.937007874015748
        },
        {
          "duration": 0.10909079999999882,
          "durationTicks": 96,
          "midi": 57,
          "name": "A3",
          "ticks": 11880,
          "time": 13.4999865,
          "velocity": 0.9133858267716536
        },
        {
          "duration": 0.21818159999999942,
          "durationTicks": 192,
          "midi": 49,
          "name": "C#3",
          "ticks": 12000,
          "time": 13.63635,
          "velocity": 0.8346456692913385
        },
        {
          "duration": 0.21818159999999942,
          "durationTicks": 192,
          "midi": 61,
          "name": "C#4",
          "ticks": 12000,
          "time": 13.63635,
          "velocity": 0.8582677165354331
        },
        {
          "duration": 0.42727230000000027,
          "durationTicks": 376,
          "midi": 52,
          "name": "E3",
          "ticks": 12240,
          "time": 13.909077,
          "velocity": 0.905511811023622
        },
        {
          "duration": 0.42727230000000027,
          "durationTicks": 376,
          "midi": 64,
          "name": "E4",
          "ticks": 12240,
          "time": 13.909077,
          "velocity": 0.8503937007874016
        },
        {
          "duration": 0.21818159999999942,
          "durationTicks": 192,
          "midi": 52,
          "name": "E3",
          "ticks": 12720,
          "time": 14.454531,
          "velocity": 0.84251968503937
        },
        {
          "duration": 0.21818159999999942,
          "durationTicks": 192,
          "midi": 64,
          "name": "E4",
          "ticks": 12720,
          "time": 14.454531,
          "velocity": 0.905511811023622
        },
        {
          "duration": 0.21818159999999942,
          "durationTicks": 192,
          "midi": 54,
          "name": "F#3",
          "ticks": 12960,
          "time": 14.727257999999999,
          "velocity": 0.8582677165354331
        },
        {
          "duration": 0.21818159999999942,
          "durationTicks": 192,
          "midi": 66,
          "name": "F#4",
          "ticks": 12960,
          "time": 14.727257999999999,
          "velocity": 0.9133858267716536
        },
        {
          "duration": 0.21818159999999764,
          "durationTicks": 192,
          "midi": 57,
          "name": "A3",
          "ticks": 13200,
          "time": 14.999985,
          "velocity": 0.937007874015748
        },
        {
          "duration": 0.21818159999999764,
          "durationTicks": 192,
          "midi": 69,
          "name": "A4",
          "ticks": 13200,
          "time": 14.999985,
          "velocity": 0.937007874015748
        },
        {
          "duration": 0.08181809999999956,
          "durationTicks": 72,
          "midi": 61,
          "name": "C#4",
          "ticks": 13920,
          "time": 15.818166,
          "velocity": 0.8188976377952756
        },
        {
          "duration": 0.07727264999999939,
          "durationTicks": 68,
          "midi": 66,
          "name": "F#4",
          "ticks": 13920,
          "time": 15.818166,
          "velocity": 0.7952755905511811
        },
        {
          "duration": 0.06818175000000082,
          "durationTicks": 60,
          "midi": 61,
          "name": "C#4",
          "ticks": 14884,
          "time": 16.91361945,
          "velocity": 0.7165354330708661
        },
        {
          "duration": 0.054545400000002076,
          "durationTicks": 48,
          "midi": 66,
          "name": "F#4",
          "ticks": 14884,
          "time": 16.91361945,
          "velocity": 0.7244094488188977
        },
        {
          "duration": 0.08181809999999956,
          "durationTicks": 72,
          "midi": 61,
          "name": "C#4",
          "ticks": 15840,
          "time": 17.999982,
          "velocity": 0.7007874015748031
        },
        {
          "duration": 0.07727265000000116,
          "durationTicks": 68,
          "midi": 64,
          "name": "E4",
          "ticks": 15840,
          "time": 17.999982,
          "velocity": 0.6929133858267716
        },
        {
          "duration": 0.06818175000000082,
          "durationTicks": 60,
          "midi": 61,
          "name": "C#4",
          "ticks": 16804,
          "time": 19.09543545,
          "velocity": 0.7007874015748031
        },
        {
          "duration": 0.05454539999999852,
          "durationTicks": 48,
          "midi": 64,
          "name": "E4",
          "ticks": 16804,
          "time": 19.09543545,
          "velocity": 0.6220472440944882
        },
        {
          "duration": 0.06818175000000082,
          "durationTicks": 60,
          "midi": 62,
          "name": "D4",
          "ticks": 17764,
          "time": 20.18634345,
          "velocity": 0.7244094488188977
        },
        {
          "duration": 0.054545400000002076,
          "durationTicks": 48,
          "midi": 66,
          "name": "F#4",
          "ticks": 17764,
          "time": 20.18634345,
          "velocity": 0.7480314960629921
        },
        {
          "duration": 0.054545400000002076,
          "durationTicks": 48,
          "midi": 69,
          "name": "A4",
          "ticks": 17764,
          "time": 20.18634345,
          "velocity": 0.7086614173228346
        },
        {
          "duration": 0.054545400000002076,
          "durationTicks": 48,
          "midi": 62,
          "name": "D4",
          "ticks": 18724,
          "time": 21.277251449999998,
          "velocity": 0.7401574803149606
        },
        {
          "duration": 0.11363625000000255,
          "durationTicks": 100,
          "midi": 66,
          "name": "F#4",
          "ticks": 18724,
          "time": 21.277251449999998,
          "velocity": 0.6614173228346457
        },
        {
          "duration": 0.04545450000000173,
          "durationTicks": 40,
          "midi": 69,
          "name": "A4",
          "ticks": 18724,
          "time": 21.277251449999998,
          "velocity": 0.7244094488188977
        },
        {
          "duration": 0.09090899999999635,
          "durationTicks": 80,
          "midi": 62,
          "name": "D4",
          "ticks": 19684,
          "time": 22.36815945,
          "velocity": 0.7480314960629921
        },
        {
          "duration": 0.09999990000000025,
          "durationTicks": 88,
          "midi": 66,
          "name": "F#4",
          "ticks": 19684,
          "time": 22.36815945,
          "velocity": 0.6299212598425197
        },
        {
          "duration": 0.05454539999999852,
          "durationTicks": 48,
          "midi": 69,
          "name": "A4",
          "ticks": 19684,
          "time": 22.36815945,
          "velocity": 0.6692913385826772
        },
        {
          "duration": 0.054545400000002076,
          "durationTicks": 48,
          "midi": 62,
          "name": "D4",
          "ticks": 20644,
          "time": 23.45906745,
          "velocity": 0.6850393700787402
        },
        {
          "duration": 0.11363625000000255,
          "durationTicks": 100,
          "midi": 66,
          "name": "F#4",
          "ticks": 20644,
          "time": 23.45906745,
          "velocity": 0.6771653543307087
        },
        {
          "duration": 0.04545450000000173,
          "durationTicks": 40,
          "midi": 69,
          "name": "A4",
          "ticks": 20644,
          "time": 23.45906745,
          "velocity": 0.7086614173228346
        },
        {
          "duration": 0.08181809999999956,
          "durationTicks": 72,
          "midi": 61,
          "name": "C#4",
          "ticks": 21600,
          "time": 24.54543,
          "velocity": 0.6614173228346457
        },
        {
          "duration": 0.07727265000000116,
          "durationTicks": 68,
          "midi": 64,
          "name": "E4",
          "ticks": 21600,
          "time": 24.54543,
          "velocity": 0.6456692913385826
        },
        {
          "duration": 0.07727265000000116,
          "durationTicks": 68,
          "midi": 69,
          "name": "A4",
          "ticks": 21600,
          "time": 24.54543,
          "velocity": 0.8031496062992126
        },
        {
          "duration": 0.06818174999999727,
          "durationTicks": 60,
          "midi": 66,
          "name": "F#4",
          "ticks": 22564,
          "time": 25.64088345,
          "velocity": 0.7086614173228346
        },
        {
          "duration": 0.05454539999999852,
          "durationTicks": 48,
          "midi": 68,
          "name": "G#4",
          "ticks": 22564,
          "time": 25.64088345,
          "velocity": 0.7086614173228346
        },
        {
          "duration": 0.05454539999999852,
          "durationTicks": 48,
          "midi": 73,
          "name": "C#5",
          "ticks": 22564,
          "time": 25.64088345,
          "velocity": 0.6220472440944882
        },
        {
          "duration": 0.08181809999999956,
          "durationTicks": 72,
          "midi": 66,
          "name": "F#4",
          "ticks": 23520,
          "time": 26.727246,
          "velocity": 0.6535433070866141
        },
        {
          "duration": 0.07727264999999761,
          "durationTicks": 68,
          "midi": 69,
          "name": "A4",
          "ticks": 23520,
          "time": 26.727246,
          "velocity": 0.7401574803149606
        },
        {
          "duration": 0.07727264999999761,
          "durationTicks": 68,
          "midi": 73,
          "name": "C#5",
          "ticks": 23520,
          "time": 26.727246,
          "velocity": 0.6771653543307087
        },
        {
          "duration": 0.06818175000000082,
          "durationTicks": 60,
          "midi": 61,
          "name": "C#4",
          "ticks": 24244,
          "time": 27.54997245,
          "velocity": 0.7874015748031497
        },
        {
          "duration": 0.054545400000002076,
          "durationTicks": 48,
          "midi": 64,
          "name": "E4",
          "ticks": 24244,
          "time": 27.54997245,
          "velocity": 0.5984251968503937
        },
        {
          "duration": 0.054545400000002076,
          "durationTicks": 48,
          "midi": 69,
          "name": "A4",
          "ticks": 24244,
          "time": 27.54997245,
          "velocity": 0.7322834645669292
        },
        {
          "duration": 0.06818174999999727,
          "durationTicks": 60,
          "midi": 62,
          "name": "D4",
          "ticks": 25444,
          "time": 28.91360745,
          "velocity": 0.6929133858267716
        },
        {
          "duration": 0.05454539999999852,
          "durationTicks": 48,
          "midi": 66,
          "name": "F#4",
          "ticks": 25444,
          "time": 28.91360745,
          "velocity": 0.7401574803149606
        },
        {
          "duration": 0.05454539999999852,
          "durationTicks": 48,
          "midi": 69,
          "name": "A4",
          "ticks": 25444,
          "time": 28.91360745,
          "velocity": 0.7007874015748031
        },
        {
          "duration": 0.054545400000002076,
          "durationTicks": 48,
          "midi": 62,
          "name": "D4",
          "ticks": 26404,
          "time": 30.00451545,
          "velocity": 0.7480314960629921
        },
        {
          "duration": 0.11363625000000255,
          "durationTicks": 100,
          "midi": 66,
          "name": "F#4",
          "ticks": 26404,
          "time": 30.00451545,
          "velocity": 0.6535433070866141
        },
        {
          "duration": 0.04545450000000173,
          "durationTicks": 40,
          "midi": 69,
          "name": "A4",
          "ticks": 26404,
          "time": 30.00451545,
          "velocity": 0.6220472440944882
        },
        {
          "duration": 0.06818175000000082,
          "durationTicks": 60,
          "midi": 64,
          "name": "E4",
          "ticks": 27364,
          "time": 31.09542345,
          "velocity": 0.7559055118110236
        },
        {
          "duration": 0.054545400000002076,
          "durationTicks": 48,
          "midi": 68,
          "name": "G#4",
          "ticks": 27364,
          "time": 31.09542345,
          "velocity": 0.6929133858267716
        },
        {
          "duration": 0.054545400000002076,
          "durationTicks": 48,
          "midi": 71,
          "name": "B4",
          "ticks": 27364,
          "time": 31.09542345,
          "velocity": 0.6141732283464567
        },
        {
          "duration": 0.054545400000002076,
          "durationTicks": 48,
          "midi": 64,
          "name": "E4",
          "ticks": 28072,
          "time": 31.8999681,
          "velocity": 0.6220472440944882
        },
        {
          "duration": 0.113636249999999,
          "durationTicks": 100,
          "midi": 68,
          "name": "G#4",
          "ticks": 28080,
          "time": 31.909059,
          "velocity": 0.6771653543307087
        },
        {
          "duration": 0.06363629999999887,
          "durationTicks": 56,
          "midi": 71,
          "name": "B4",
          "ticks": 28084,
          "time": 31.91360445,
          "velocity": 0.7480314960629921
        },
        {
          "duration": 0.08181809999999956,
          "durationTicks": 72,
          "midi": 61,
          "name": "C#4",
          "ticks": 29280,
          "time": 33.272694,
          "velocity": 0.7401574803149606
        },
        {
          "duration": 0.07727264999999761,
          "durationTicks": 68,
          "midi": 66,
          "name": "F#4",
          "ticks": 29280,
          "time": 33.272694,
          "velocity": 0.8110236220472441
        },
        {
          "duration": 0.06818174999999371,
          "durationTicks": 60,
          "midi": 61,
          "name": "C#4",
          "ticks": 30244,
          "time": 34.36814745,
          "velocity": 0.7559055118110236
        },
        {
          "duration": 0.05454539999999497,
          "durationTicks": 48,
          "midi": 66,
          "name": "F#4",
          "ticks": 30244,
          "time": 34.36814745,
          "velocity": 0.6377952755905512
        },
        {
          "duration": 0.08181810000000667,
          "durationTicks": 72,
          "midi": 61,
          "name": "C#4",
          "ticks": 31200,
          "time": 35.45451,
          "velocity": 0.7086614173228346
        },
        {
          "duration": 0.07727264999999761,
          "durationTicks": 68,
          "midi": 64,
          "name": "E4",
          "ticks": 31200,
          "time": 35.45451,
          "velocity": 0.7086614173228346
        },
        {
          "duration": 0.06818175000000082,
          "durationTicks": 60,
          "midi": 61,
          "name": "C#4",
          "ticks": 32164,
          "time": 36.54996345,
          "velocity": 0.7401574803149606
        },
        {
          "duration": 0.054545400000002076,
          "durationTicks": 48,
          "midi": 64,
          "name": "E4",
          "ticks": 32164,
          "time": 36.54996345,
          "velocity": 0.6141732283464567
        },
        {
          "duration": 0.08181810000000667,
          "durationTicks": 72,
          "midi": 62,
          "name": "D4",
          "ticks": 33120,
          "time": 37.636326,
          "velocity": 0.7086614173228346
        },
        {
          "duration": 0.07727265000000472,
          "durationTicks": 68,
          "midi": 66,
          "name": "F#4",
          "ticks": 33120,
          "time": 37.636326,
          "velocity": 0.7007874015748031
        },
        {
          "duration": 0.07727265000000472,
          "durationTicks": 68,
          "midi": 69,
          "name": "A4",
          "ticks": 33120,
          "time": 37.636326,
          "velocity": 0.6850393700787402
        },
        {
          "duration": 0.07727264999999761,
          "durationTicks": 68,
          "midi": 62,
          "name": "D4",
          "ticks": 34080,
          "time": 38.727234,
          "velocity": 0.7165354330708661
        },
        {
          "duration": 0.0863635499999944,
          "durationTicks": 76,
          "midi": 66,
          "name": "F#4",
          "ticks": 34080,
          "time": 38.727234,
          "velocity": 0.7795275590551181
        },
        {
          "duration": 0.06818174999999371,
          "durationTicks": 60,
          "midi": 69,
          "name": "A4",
          "ticks": 34080,
          "time": 38.727234,
          "velocity": 0.6850393700787402
        },
        {
          "duration": 0.06818175000000082,
          "durationTicks": 60,
          "midi": 62,
          "name": "D4",
          "ticks": 35040,
          "time": 39.818142,
          "velocity": 0.6850393700787402
        },
        {
          "duration": 0.07727264999999761,
          "durationTicks": 68,
          "midi": 66,
          "name": "F#4",
          "ticks": 35040,
          "time": 39.818142,
          "velocity": 0.7165354330708661
        },
        {
          "duration": 0.07727264999999761,
          "durationTicks": 68,
          "midi": 69,
          "name": "A4",
          "ticks": 35040,
          "time": 39.818142,
          "velocity": 0.6535433070866141
        },
        {
          "duration": 0.07727264999999761,
          "durationTicks": 68,
          "midi": 62,
          "name": "D4",
          "ticks": 36000,
          "time": 40.90905,
          "velocity": 0.7086614173228346
        },
        {
          "duration": 0.04545449999999818,
          "durationTicks": 40,
          "midi": 66,
          "name": "F#4",
          "ticks": 36000,
          "time": 40.90905,
          "velocity": 0.7086614173228346
        },
        {
          "duration": 0.06818175000000082,
          "durationTicks": 60,
          "midi": 69,
          "name": "A4",
          "ticks": 36000,
          "time": 40.90905,
          "velocity": 0.7637795275590551
        },
        {
          "duration": 0.08181810000000667,
          "durationTicks": 72,
          "midi": 61,
          "name": "C#4",
          "ticks": 36960,
          "time": 41.999958,
          "velocity": 0.6456692913385826
        },
        {
          "duration": 0.07727264999999761,
          "durationTicks": 68,
          "midi": 64,
          "name": "E4",
          "ticks": 36960,
          "time": 41.999958,
          "velocity": 0.7401574803149606
        },
        {
          "duration": 0.07727264999999761,
          "durationTicks": 68,
          "midi": 69,
          "name": "A4",
          "ticks": 36960,
          "time": 41.999958,
          "velocity": 0.6771653543307087
        },
        {
          "duration": 0.06818175000000082,
          "durationTicks": 60,
          "midi": 66,
          "name": "F#4",
          "ticks": 37924,
          "time": 43.09541145,
          "velocity": 0.7401574803149606
        },
        {
          "duration": 0.054545400000002076,
          "durationTicks": 48,
          "midi": 68,
          "name": "G#4",
          "ticks": 37924,
          "time": 43.09541145,
          "velocity": 0.7559055118110236
        },
        {
          "duration": 0.054545400000002076,
          "durationTicks": 48,
          "midi": 73,
          "name": "C#5",
          "ticks": 37924,
          "time": 43.09541145,
          "velocity": 0.7401574803149606
        },
        {
          "duration": 0.06818174999999371,
          "durationTicks": 60,
          "midi": 66,
          "name": "F#4",
          "ticks": 38884,
          "time": 44.186319450000006,
          "velocity": 0.7480314960629921
        },
        {
          "duration": 0.05454539999999497,
          "durationTicks": 48,
          "midi": 69,
          "name": "A4",
          "ticks": 38884,
          "time": 44.186319450000006,
          "velocity": 0.6929133858267716
        },
        {
          "duration": 0.05454539999999497,
          "durationTicks": 48,
          "midi": 73,
          "name": "C#5",
          "ticks": 38884,
          "time": 44.186319450000006,
          "velocity": 0.7795275590551181
        },
        {
          "duration": 0.08181810000000667,
          "durationTicks": 72,
          "midi": 61,
          "name": "C#4",
          "ticks": 39840,
          "time": 45.272681999999996,
          "velocity": 0.7165354330708661
        },
        {
          "duration": 0.07727265000000472,
          "durationTicks": 68,
          "midi": 64,
          "name": "E4",
          "ticks": 39840,
          "time": 45.272681999999996,
          "velocity": 0.6456692913385826
        },
        {
          "duration": 0.07727265000000472,
          "durationTicks": 68,
          "midi": 69,
          "name": "A4",
          "ticks": 39840,
          "time": 45.272681999999996,
          "velocity": 0.7480314960629921
        },
        {
          "duration": 0.06818175000000082,
          "durationTicks": 60,
          "midi": 62,
          "name": "D4",
          "ticks": 40804,
          "time": 46.368135450000004,
          "velocity": 0.7086614173228346
        },
        {
          "duration": 0.05454539999999497,
          "durationTicks": 48,
          "midi": 66,
          "name": "F#4",
          "ticks": 40804,
          "time": 46.368135450000004,
          "velocity": 0.7401574803149606
        },
        {
          "duration": 0.05454539999999497,
          "durationTicks": 48,
          "midi": 69,
          "name": "A4",
          "ticks": 40804,
          "time": 46.368135450000004,
          "velocity": 0.7086614173228346
        },
        {
          "duration": 0.08181809999999956,
          "durationTicks": 72,
          "midi": 62,
          "name": "D4",
          "ticks": 41760,
          "time": 47.454498,
          "velocity": 0.5905511811023622
        },
        {
          "duration": 0.07727264999999761,
          "durationTicks": 68,
          "midi": 66,
          "name": "F#4",
          "ticks": 41760,
          "time": 47.454498,
          "velocity": 0.7637795275590551
        },
        {
          "duration": 0.06818175000000082,
          "durationTicks": 60,
          "midi": 66,
          "name": "F#4",
          "ticks": 42724,
          "time": 48.54995145,
          "velocity": 0.6771653543307087
        },
        {
          "duration": 0.05454539999999497,
          "durationTicks": 48,
          "midi": 69,
          "name": "A4",
          "ticks": 42724,
          "time": 48.54995145,
          "velocity": 0.7007874015748031
        },
        {
          "duration": 0.05454539999999497,
          "durationTicks": 48,
          "midi": 66,
          "name": "F#4",
          "ticks": 43432,
          "time": 49.3544961,
          "velocity": 0.8188976377952756
        },
        {
          "duration": 0.11363624999999189,
          "durationTicks": 100,
          "midi": 69,
          "name": "A4",
          "ticks": 43440,
          "time": 49.363587,
          "velocity": 0.7244094488188977
        },
        {
          "duration": 0.08181810000000667,
          "durationTicks": 72,
          "midi": 61,
          "name": "C#4",
          "ticks": 44640,
          "time": 50.727222,
          "velocity": 0.6377952755905512
        },
        {
          "duration": 0.07727265000000472,
          "durationTicks": 68,
          "midi": 66,
          "name": "F#4",
          "ticks": 44640,
          "time": 50.727222,
          "velocity": 0.6456692913385826
        },
        {
          "duration": 0.06818175000000082,
          "durationTicks": 60,
          "midi": 61,
          "name": "C#4",
          "ticks": 45604,
          "time": 51.822675450000006,
          "velocity": 0.7244094488188977
        },
        {
          "duration": 0.05454539999999497,
          "durationTicks": 48,
          "midi": 66,
          "name": "F#4",
          "ticks": 45604,
          "time": 51.822675450000006,
          "velocity": 0.7086614173228346
        },
        {
          "duration": 0.06818175000000082,
          "durationTicks": 60,
          "midi": 62,
          "name": "D4",
          "ticks": 46564,
          "time": 52.913583450000004,
          "velocity": 0.6850393700787402
        },
        {
          "duration": 0.05454539999999497,
          "durationTicks": 48,
          "midi": 66,
          "name": "F#4",
          "ticks": 46564,
          "time": 52.913583450000004,
          "velocity": 0.7086614173228346
        },
        {
          "duration": 0.05454539999999497,
          "durationTicks": 48,
          "midi": 69,
          "name": "A4",
          "ticks": 46564,
          "time": 52.913583450000004,
          "velocity": 0.7086614173228346
        },
        {
          "duration": 0.08181809999999956,
          "durationTicks": 72,
          "midi": 64,
          "name": "E4",
          "ticks": 47520,
          "time": 53.999946,
          "velocity": 0.6771653543307087
        },
        {
          "duration": 0.07727264999999761,
          "durationTicks": 68,
          "midi": 68,
          "name": "G#4",
          "ticks": 47520,
          "time": 53.999946,
          "velocity": 0.6377952755905512
        },
        {
          "duration": 0.07727264999999761,
          "durationTicks": 68,
          "midi": 71,
          "name": "B4",
          "ticks": 47520,
          "time": 53.999946,
          "velocity": 0.6614173228346457
        },
        {
          "duration": 0.06818175000000082,
          "durationTicks": 60,
          "midi": 61,
          "name": "C#4",
          "ticks": 48484,
          "time": 55.09539945,
          "velocity": 0.6299212598425197
        },
        {
          "duration": 0.05454539999999497,
          "durationTicks": 48,
          "midi": 64,
          "name": "E4",
          "ticks": 48484,
          "time": 55.09539945,
          "velocity": 0.6692913385826772
        },
        {
          "duration": 0.05454539999999497,
          "durationTicks": 48,
          "midi": 69,
          "name": "A4",
          "ticks": 48484,
          "time": 55.09539945,
          "velocity": 0.7244094488188977
        },
        {
          "duration": 0.05454539999999497,
          "durationTicks": 48,
          "midi": 61,
          "name": "C#4",
          "ticks": 49192,
          "time": 55.8999441,
          "velocity": 0.7086614173228346
        },
        {
          "duration": 0.11363624999999189,
          "durationTicks": 100,
          "midi": 64,
          "name": "E4",
          "ticks": 49200,
          "time": 55.909035,
          "velocity": 0.7086614173228346
        },
        {
          "duration": 0.06363629999999176,
          "durationTicks": 56,
          "midi": 69,
          "name": "A4",
          "ticks": 49204,
          "time": 55.913580450000005,
          "velocity": 0.7559055118110236
        },
        {
          "duration": 0.08181810000000667,
          "durationTicks": 72,
          "midi": 62,
          "name": "D4",
          "ticks": 50400,
          "time": 57.27267,
          "velocity": 0.7086614173228346
        },
        {
          "duration": 0.07727264999999761,
          "durationTicks": 68,
          "midi": 66,
          "name": "F#4",
          "ticks": 50400,
          "time": 57.27267,
          "velocity": 0.8031496062992126
        },
        {
          "duration": 0.08181810000000667,
          "durationTicks": 72,
          "midi": 64,
          "name": "E4",
          "ticks": 51360,
          "time": 58.363578,
          "velocity": 0.7086614173228346
        },
        {
          "duration": 0.07727265000000472,
          "durationTicks": 68,
          "midi": 68,
          "name": "G#4",
          "ticks": 51360,
          "time": 58.363578,
          "velocity": 0.7637795275590551
        },
        {
          "duration": 0.07727265000000472,
          "durationTicks": 68,
          "midi": 71,
          "name": "B4",
          "ticks": 51360,
          "time": 58.363578,
          "velocity": 0.7086614173228346
        },
        {
          "duration": 0.06818175000000082,
          "durationTicks": 60,
          "midi": 61,
          "name": "C#4",
          "ticks": 52324,
          "time": 59.459031450000005,
          "velocity": 0.6771653543307087
        },
        {
          "duration": 0.05454539999999497,
          "durationTicks": 48,
          "midi": 64,
          "name": "E4",
          "ticks": 52324,
          "time": 59.459031450000005,
          "velocity": 0.7086614173228346
        },
        {
          "duration": 0.05454539999999497,
          "durationTicks": 48,
          "midi": 69,
          "name": "A4",
          "ticks": 52324,
          "time": 59.459031450000005,
          "velocity": 0.6062992125984252
        },
        {
          "duration": 0.05454539999999497,
          "durationTicks": 48,
          "midi": 61,
          "name": "C#4",
          "ticks": 53284,
          "time": 60.549939450000004,
          "velocity": 0.6850393700787402
        },
        {
          "duration": 0.113636249999999,
          "durationTicks": 100,
          "midi": 64,
          "name": "E4",
          "ticks": 53284,
          "time": 60.549939450000004,
          "velocity": 0.7086614173228346
        },
        {
          "duration": 0.04545449999999818,
          "durationTicks": 40,
          "midi": 69,
          "name": "A4",
          "ticks": 53284,
          "time": 60.549939450000004,
          "velocity": 0.7874015748031497
        },
        {
          "duration": 0.08181809999999956,
          "durationTicks": 72,
          "midi": 62,
          "name": "D4",
          "ticks": 54240,
          "time": 61.636302,
          "velocity": 0.7086614173228346
        },
        {
          "duration": 0.07727264999999761,
          "durationTicks": 68,
          "midi": 66,
          "name": "F#4",
          "ticks": 54240,
          "time": 61.636302,
          "velocity": 0.6614173228346457
        },
        {
          "duration": 0.07727264999999761,
          "durationTicks": 68,
          "midi": 69,
          "name": "A4",
          "ticks": 54240,
          "time": 61.636302,
          "velocity": 0.7165354330708661
        },
        {
          "duration": 0.06818175000000082,
          "durationTicks": 60,
          "midi": 64,
          "name": "E4",
          "ticks": 54964,
          "time": 62.459028450000005,
          "velocity": 0.7244094488188977
        },
        {
          "duration": 0.05454539999999497,
          "durationTicks": 48,
          "midi": 68,
          "name": "G#4",
          "ticks": 54964,
          "time": 62.459028450000005,
          "velocity": 0.8031496062992126
        },
        {
          "duration": 0.05454539999999497,
          "durationTicks": 48,
          "midi": 71,
          "name": "B4",
          "ticks": 54964,
          "time": 62.459028450000005,
          "velocity": 0.6771653543307087
        },
        {
          "duration": 0.06818175000000082,
          "durationTicks": 60,
          "midi": 61,
          "name": "C#4",
          "ticks": 56164,
          "time": 63.82266345,
          "velocity": 0.5984251968503937
        },
        {
          "duration": 0.054545400000002076,
          "durationTicks": 48,
          "midi": 64,
          "name": "E4",
          "ticks": 56164,
          "time": 63.82266345,
          "velocity": 0.7086614173228346
        },
        {
          "duration": 0.054545400000002076,
          "durationTicks": 48,
          "midi": 69,
          "name": "A4",
          "ticks": 56164,
          "time": 63.82266345,
          "velocity": 0.7165354330708661
        },
        {
          "duration": 0.08181810000000667,
          "durationTicks": 72,
          "midi": 66,
          "name": "F#4",
          "ticks": 57120,
          "time": 64.909026,
          "velocity": 0.7165354330708661
        },
        {
          "duration": 0.07727264999999761,
          "durationTicks": 68,
          "midi": 69,
          "name": "A4",
          "ticks": 57120,
          "time": 64.909026,
          "velocity": 0.7165354330708661
        },
        {
          "duration": 0.07727264999999761,
          "durationTicks": 68,
          "midi": 73,
          "name": "C#5",
          "ticks": 57120,
          "time": 64.909026,
          "velocity": 0.6692913385826772
        },
        {
          "duration": 0.08181810000000667,
          "durationTicks": 72,
          "midi": 63,
          "name": "D#4",
          "ticks": 58080,
          "time": 65.999934,
          "velocity": 0.7086614173228346
        },
        {
          "duration": 0.07727264999999761,
          "durationTicks": 68,
          "midi": 66,
          "name": "F#4",
          "ticks": 58080,
          "time": 65.999934,
          "velocity": 0.7086614173228346
        },
        {
          "duration": 0.07727264999999761,
          "durationTicks": 68,
          "midi": 71,
          "name": "B4",
          "ticks": 58080,
          "time": 65.999934,
          "velocity": 0.6771653543307087
        },
        {
          "duration": 0.07727264999999761,
          "durationTicks": 68,
          "midi": 63,
          "name": "D#4",
          "ticks": 59040,
          "time": 67.090842,
          "velocity": 0.7007874015748031
        },
        {
          "duration": 0.08636355000000151,
          "durationTicks": 76,
          "midi": 66,
          "name": "F#4",
          "ticks": 59040,
          "time": 67.090842,
          "velocity": 0.5905511811023622
        },
        {
          "duration": 0.06818175000000792,
          "durationTicks": 60,
          "midi": 71,
          "name": "B4",
          "ticks": 59040,
          "time": 67.090842,
          "velocity": 0.7086614173228346
        },
        {
          "duration": 0.06818175000000792,
          "durationTicks": 60,
          "midi": 62,
          "name": "D4",
          "ticks": 60964,
          "time": 69.27720345,
          "velocity": 0.8031496062992126
        },
        {
          "duration": 0.05454539999999497,
          "durationTicks": 48,
          "midi": 64,
          "name": "E4",
          "ticks": 60964,
          "time": 69.27720345,
          "velocity": 0.6220472440944882
        },
        {
          "duration": 0.08181809999999246,
          "durationTicks": 72,
          "midi": 61,
          "name": "C#4",
          "ticks": 61920,
          "time": 70.363566,
          "velocity": 0.7086614173228346
        },
        {
          "duration": 0.07727264999999761,
          "durationTicks": 68,
          "midi": 66,
          "name": "F#4",
          "ticks": 61920,
          "time": 70.363566,
          "velocity": 0.6850393700787402
        },
        {
          "duration": 0.06818174999999371,
          "durationTicks": 60,
          "midi": 61,
          "name": "C#4",
          "ticks": 62884,
          "time": 71.45901945,
          "velocity": 0.7244094488188977
        },
        {
          "duration": 0.05454539999999497,
          "durationTicks": 48,
          "midi": 66,
          "name": "F#4",
          "ticks": 62884,
          "time": 71.45901945,
          "velocity": 0.7165354330708661
        },
        {
          "duration": 0.08181809999999246,
          "durationTicks": 72,
          "midi": 61,
          "name": "C#4",
          "ticks": 63840,
          "time": 72.545382,
          "velocity": 0.5984251968503937
        },
        {
          "duration": 0.07727264999999761,
          "durationTicks": 68,
          "midi": 64,
          "name": "E4",
          "ticks": 63840,
          "time": 72.545382,
          "velocity": 0.7480314960629921
        },
        {
          "duration": 0.06818174999999371,
          "durationTicks": 60,
          "midi": 61,
          "name": "C#4",
          "ticks": 64804,
          "time": 73.64083545,
          "velocity": 0.7716535433070866
        },
        {
          "duration": 0.05454539999999497,
          "durationTicks": 48,
          "midi": 64,
          "name": "E4",
          "ticks": 64804,
          "time": 73.64083545,
          "velocity": 0.7874015748031497
        },
        {
          "duration": 0.06818174999999371,
          "durationTicks": 60,
          "midi": 62,
          "name": "D4",
          "ticks": 65764,
          "time": 74.73174345,
          "velocity": 0.7480314960629921
        },
        {
          "duration": 0.05454539999999497,
          "durationTicks": 48,
          "midi": 66,
          "name": "F#4",
          "ticks": 65764,
          "time": 74.73174345,
          "velocity": 0.6929133858267716
        },
        {
          "duration": 0.05454539999999497,
          "durationTicks": 48,
          "midi": 69,
          "name": "A4",
          "ticks": 65764,
          "time": 74.73174345,
          "velocity": 0.7086614173228346
        },
        {
          "duration": 0.05454539999999497,
          "durationTicks": 48,
          "midi": 62,
          "name": "D4",
          "ticks": 66724,
          "time": 75.82265145,
          "velocity": 0.7007874015748031
        },
        {
          "duration": 0.113636249999999,
          "durationTicks": 100,
          "midi": 66,
          "name": "F#4",
          "ticks": 66724,
          "time": 75.82265145,
          "velocity": 0.6614173228346457
        },
        {
          "duration": 0.04545450000000528,
          "durationTicks": 40,
          "midi": 69,
          "name": "A4",
          "ticks": 66724,
          "time": 75.82265145,
          "velocity": 0.7086614173228346
        },
        {
          "duration": 0.09090900000001056,
          "durationTicks": 80,
          "midi": 62,
          "name": "D4",
          "ticks": 67684,
          "time": 76.91355945,
          "velocity": 0.6614173228346457
        },
        {
          "duration": 0.09999990000000025,
          "durationTicks": 88,
          "midi": 66,
          "name": "F#4",
          "ticks": 67684,
          "time": 76.91355945,
          "velocity": 0.7086614173228346
        },
        {
          "duration": 0.05454539999999497,
          "durationTicks": 48,
          "midi": 69,
          "name": "A4",
          "ticks": 67684,
          "time": 76.91355945,
          "velocity": 0.7401574803149606
        },
        {
          "duration": 0.05454539999999497,
          "durationTicks": 48,
          "midi": 62,
          "name": "D4",
          "ticks": 68644,
          "time": 78.00446744999999,
          "velocity": 0.7086614173228346
        },
        {
          "duration": 0.1136362500000132,
          "durationTicks": 100,
          "midi": 66,
          "name": "F#4",
          "ticks": 68644,
          "time": 78.00446744999999,
          "velocity": 0.6614173228346457
        },
        {
          "duration": 0.04545450000000528,
          "durationTicks": 40,
          "midi": 69,
          "name": "A4",
          "ticks": 68644,
          "time": 78.00446744999999,
          "velocity": 0.7716535433070866
        },
        {
          "duration": 0.06818175000000792,
          "durationTicks": 60,
          "midi": 61,
          "name": "C#4",
          "ticks": 69604,
          "time": 79.09537544999999,
          "velocity": 0.6850393700787402
        },
        {
          "duration": 0.05454539999999497,
          "durationTicks": 48,
          "midi": 64,
          "name": "E4",
          "ticks": 69604,
          "time": 79.09537544999999,
          "velocity": 0.8110236220472441
        },
        {
          "duration": 0.05454539999999497,
          "durationTicks": 48,
          "midi": 69,
          "name": "A4",
          "ticks": 69604,
          "time": 79.09537544999999,
          "velocity": 0.7086614173228346
        },
        {
          "duration": 0.08181810000000667,
          "durationTicks": 72,
          "midi": 66,
          "name": "F#4",
          "ticks": 70560,
          "time": 80.181738,
          "velocity": 0.7007874015748031
        },
        {
          "duration": 0.07727265000001182,
          "durationTicks": 68,
          "midi": 68,
          "name": "G#4",
          "ticks": 70560,
          "time": 80.181738,
          "velocity": 0.6692913385826772
        },
        {
          "duration": 0.08181810000000667,
          "durationTicks": 72,
          "midi": 66,
          "name": "F#4",
          "ticks": 71520,
          "time": 81.272646,
          "velocity": 0.7244094488188977
        },
        {
          "duration": 0.07727265000001182,
          "durationTicks": 68,
          "midi": 69,
          "name": "A4",
          "ticks": 71520,
          "time": 81.272646,
          "velocity": 0.7086614173228346
        },
        {
          "duration": 0.07727265000001182,
          "durationTicks": 68,
          "midi": 73,
          "name": "C#5",
          "ticks": 71520,
          "time": 81.272646,
          "velocity": 0.7874015748031497
        },
        {
          "duration": 0.06818175000000792,
          "durationTicks": 60,
          "midi": 61,
          "name": "C#4",
          "ticks": 72484,
          "time": 82.36809944999999,
          "velocity": 0.7007874015748031
        },
        {
          "duration": 0.05454540000000918,
          "durationTicks": 48,
          "midi": 64,
          "name": "E4",
          "ticks": 72484,
          "time": 82.36809944999999,
          "velocity": 0.6850393700787402
        },
        {
          "duration": 0.05454540000000918,
          "durationTicks": 48,
          "midi": 69,
          "name": "A4",
          "ticks": 72484,
          "time": 82.36809944999999,
          "velocity": 0.6929133858267716
        },
        {
          "duration": 0.08181810000000667,
          "durationTicks": 72,
          "midi": 61,
          "name": "C#4",
          "ticks": 73440,
          "time": 83.45446199999999,
          "velocity": 0.6456692913385826
        },
        {
          "duration": 0.07727265000001182,
          "durationTicks": 68,
          "midi": 64,
          "name": "E4",
          "ticks": 73440,
          "time": 83.45446199999999,
          "velocity": 0.7007874015748031
        },
        {
          "duration": 0.07727265000001182,
          "durationTicks": 68,
          "midi": 69,
          "name": "A4",
          "ticks": 73440,
          "time": 83.45446199999999,
          "velocity": 0.7007874015748031
        },
        {
          "duration": 0.08181809999999246,
          "durationTicks": 72,
          "midi": 62,
          "name": "D4",
          "ticks": 74400,
          "time": 84.54537,
          "velocity": 0.6377952755905512
        },
        {
          "duration": 0.07727264999999761,
          "durationTicks": 68,
          "midi": 66,
          "name": "F#4",
          "ticks": 74400,
          "time": 84.54537,
          "velocity": 0.5905511811023622
        },
        {
          "duration": 0.07727264999999761,
          "durationTicks": 68,
          "midi": 71,
          "name": "B4",
          "ticks": 74400,
          "time": 84.54537,
          "velocity": 0.6299212598425197
        },
        {
          "duration": 0.06818174999999371,
          "durationTicks": 60,
          "midi": 62,
          "name": "D4",
          "ticks": 75364,
          "time": 85.64082345,
          "velocity": 0.7322834645669292
        },
        {
          "duration": 0.05454539999999497,
          "durationTicks": 48,
          "midi": 66,
          "name": "F#4",
          "ticks": 75364,
          "time": 85.64082345,
          "velocity": 0.7165354330708661
        },
        {
          "duration": 0.05454539999999497,
          "durationTicks": 48,
          "midi": 62,
          "name": "D4",
          "ticks": 76324,
          "time": 86.73173145,
          "velocity": 0.7007874015748031
        },
        {
          "duration": 0.113636249999999,
          "durationTicks": 100,
          "midi": 66,
          "name": "F#4",
          "ticks": 76324,
          "time": 86.73173145,
          "velocity": 0.7007874015748031
        },
        {
          "duration": 0.06818174999999371,
          "durationTicks": 60,
          "midi": 61,
          "name": "C#4",
          "ticks": 77284,
          "time": 87.82263945,
          "velocity": 0.7086614173228346
        },
        {
          "duration": 0.05454539999999497,
          "durationTicks": 48,
          "midi": 64,
          "name": "E4",
          "ticks": 77284,
          "time": 87.82263945,
          "velocity": 0.7007874015748031
        },
        {
          "duration": 0.05454539999999497,
          "durationTicks": 48,
          "midi": 69,
          "name": "A4",
          "ticks": 77284,
          "time": 87.82263945,
          "velocity": 0.7086614173228346
        },
        {
          "duration": 0.08181810000000667,
          "durationTicks": 72,
          "midi": 66,
          "name": "F#4",
          "ticks": 78240,
          "time": 88.909002,
          "velocity": 0.8110236220472441
        },
        {
          "duration": 0.07727265000001182,
          "durationTicks": 68,
          "midi": 68,
          "name": "G#4",
          "ticks": 78240,
          "time": 88.909002,
          "velocity": 0.6535433070866141
        },
        {
          "duration": 0.07727265000001182,
          "durationTicks": 68,
          "midi": 73,
          "name": "C#5",
          "ticks": 78240,
          "time": 88.909002,
          "velocity": 0.6692913385826772
        },
        {
          "duration": 0.06818175000000792,
          "durationTicks": 60,
          "midi": 61,
          "name": "C#4",
          "ticks": 79924,
          "time": 90.82263644999999,
          "velocity": 0.7480314960629921
        },
        {
          "duration": 0.05454539999999497,
          "durationTicks": 48,
          "midi": 64,
          "name": "E4",
          "ticks": 79924,
          "time": 90.82263644999999,
          "velocity": 0.7165354330708661
        },
        {
          "duration": 0.05454539999999497,
          "durationTicks": 48,
          "midi": 69,
          "name": "A4",
          "ticks": 79924,
          "time": 90.82263644999999,
          "velocity": 0.6141732283464567
        },
        {
          "duration": 0.06818175000000792,
          "durationTicks": 60,
          "midi": 62,
          "name": "D4",
          "ticks": 81844,
          "time": 93.00445244999999,
          "velocity": 0.7244094488188977
        },
        {
          "duration": 0.05454540000000918,
          "durationTicks": 48,
          "midi": 66,
          "name": "F#4",
          "ticks": 81844,
          "time": 93.00445244999999,
          "velocity": 0.7086614173228346
        },
        {
          "duration": 0.2181815999999941,
          "durationTicks": 192,
          "midi": 45,
          "name": "A2",
          "ticks": 82560,
          "time": 93.818088,
          "velocity": 0.8740157480314961
        },
        {
          "duration": 0.10909080000000415,
          "durationTicks": 96,
          "midi": 45,
          "name": "A2",
          "ticks": 82800,
          "time": 94.09081499999999,
          "velocity": 0.7559055118110236
        },
        {
          "duration": 0.10909080000000415,
          "durationTicks": 96,
          "midi": 45,
          "name": "A2",
          "ticks": 82920,
          "time": 94.2271785,
          "velocity": 0.889763779527559
        },
        {
          "duration": 0.20454525000000956,
          "durationTicks": 180,
          "midi": 48,
          "name": "C3",
          "ticks": 83040,
          "time": 94.363542,
          "velocity": 0.8976377952755905
        },
        {
          "duration": 0.4363632000000024,
          "durationTicks": 384,
          "midi": 52,
          "name": "E3",
          "ticks": 83280,
          "time": 94.636269,
          "velocity": 0.7637795275590551
        },
        {
          "duration": 0.2181815999999941,
          "durationTicks": 192,
          "midi": 52,
          "name": "E3",
          "ticks": 83760,
          "time": 95.181723,
          "velocity": 0.7795275590551181
        },
        {
          "duration": 0.20454525000000956,
          "durationTicks": 180,
          "midi": 53,
          "name": "F3",
          "ticks": 84000,
          "time": 95.45445,
          "velocity": 0.7480314960629921
        },
        {
          "duration": 0.2181816000000083,
          "durationTicks": 192,
          "midi": 57,
          "name": "A3",
          "ticks": 84240,
          "time": 95.727177,
          "velocity": 0.8661417322834646
        },
        {
          "duration": 0.2181816000000083,
          "durationTicks": 192,
          "midi": 45,
          "name": "A2",
          "ticks": 84480,
          "time": 95.999904,
          "velocity": 0.9133858267716536
        },
        {
          "duration": 0.10909079999998994,
          "durationTicks": 96,
          "midi": 45,
          "name": "A2",
          "ticks": 84720,
          "time": 96.272631,
          "velocity": 0.8031496062992126
        },
        {
          "duration": 0.10909079999998994,
          "durationTicks": 96,
          "midi": 45,
          "name": "A2",
          "ticks": 84840,
          "time": 96.4089945,
          "velocity": 0.8031496062992126
        },
        {
          "duration": 0.20454525000000956,
          "durationTicks": 180,
          "midi": 48,
          "name": "C3",
          "ticks": 84960,
          "time": 96.545358,
          "velocity": 0.9606299212598425
        },
        {
          "duration": 0.4363632000000024,
          "durationTicks": 384,
          "midi": 52,
          "name": "E3",
          "ticks": 85200,
          "time": 96.818085,
          "velocity": 0.8818897637795275
        },
        {
          "duration": 0.2181815999999941,
          "durationTicks": 192,
          "midi": 52,
          "name": "E3",
          "ticks": 85680,
          "time": 97.363539,
          "velocity": 0.8976377952755905
        },
        {
          "duration": 0.20454525000000956,
          "durationTicks": 180,
          "midi": 53,
          "name": "F3",
          "ticks": 85920,
          "time": 97.63626599999999,
          "velocity": 0.8503937007874016
        },
        {
          "duration": 0.2181816000000083,
          "durationTicks": 192,
          "midi": 57,
          "name": "A3",
          "ticks": 86160,
          "time": 97.908993,
          "velocity": 0.84251968503937
        },
        {
          "duration": 0.06818174999999371,
          "durationTicks": 60,
          "midi": 62,
          "name": "D4",
          "ticks": 86884,
          "time": 98.73171945,
          "velocity": 0.7716535433070866
        },
        {
          "duration": 0.05454539999999497,
          "durationTicks": 48,
          "midi": 66,
          "name": "F#4",
          "ticks": 86884,
          "time": 98.73171945,
          "velocity": 0.8267716535433071
        },
        {
          "duration": 0.05454539999999497,
          "durationTicks": 48,
          "midi": 69,
          "name": "A4",
          "ticks": 86884,
          "time": 98.73171945,
          "velocity": 0.6692913385826772
        },
        {
          "duration": 0.08181809999999246,
          "durationTicks": 72,
          "midi": 64,
          "name": "E4",
          "ticks": 87840,
          "time": 99.818082,
          "velocity": 0.7007874015748031
        },
        {
          "duration": 0.07727264999999761,
          "durationTicks": 68,
          "midi": 68,
          "name": "G#4",
          "ticks": 87840,
          "time": 99.818082,
          "velocity": 0.6850393700787402
        },
        {
          "duration": 0.07727264999999761,
          "durationTicks": 68,
          "midi": 71,
          "name": "B4",
          "ticks": 87840,
          "time": 99.818082,
          "velocity": 0.7480314960629921
        },
        {
          "duration": 0.06818174999999371,
          "durationTicks": 60,
          "midi": 61,
          "name": "C#4",
          "ticks": 88804,
          "time": 100.91353545,
          "velocity": 0.7007874015748031
        },
        {
          "duration": 0.05454539999999497,
          "durationTicks": 48,
          "midi": 64,
          "name": "E4",
          "ticks": 88804,
          "time": 100.91353545,
          "velocity": 0.7165354330708661
        },
        {
          "duration": 0.05454539999999497,
          "durationTicks": 48,
          "midi": 69,
          "name": "A4",
          "ticks": 88804,
          "time": 100.91353545,
          "velocity": 0.7086614173228346
        },
        {
          "duration": 0.05454540000000918,
          "durationTicks": 48,
          "midi": 61,
          "name": "C#4",
          "ticks": 89512,
          "time": 101.7180801,
          "velocity": 0.7874015748031497
        },
        {
          "duration": 0.113636249999999,
          "durationTicks": 100,
          "midi": 64,
          "name": "E4",
          "ticks": 89520,
          "time": 101.727171,
          "velocity": 0.6929133858267716
        },
        {
          "duration": 0.06363629999999887,
          "durationTicks": 56,
          "midi": 69,
          "name": "A4",
          "ticks": 89524,
          "time": 101.73171645,
          "velocity": 0.7086614173228346
        },
        {
          "duration": 0.08181810000000667,
          "durationTicks": 72,
          "midi": 62,
          "name": "D4",
          "ticks": 90720,
          "time": 103.090806,
          "velocity": 0.7086614173228346
        },
        {
          "duration": 0.07727265000001182,
          "durationTicks": 68,
          "midi": 66,
          "name": "F#4",
          "ticks": 90720,
          "time": 103.090806,
          "velocity": 0.7322834645669292
        },
        {
          "duration": 0.07727265000001182,
          "durationTicks": 68,
          "midi": 71,
          "name": "B4",
          "ticks": 90720,
          "time": 103.090806,
          "velocity": 0.8031496062992126
        },
        {
          "duration": 0.06818175000000792,
          "durationTicks": 60,
          "midi": 64,
          "name": "E4",
          "ticks": 91444,
          "time": 103.91353244999999,
          "velocity": 0.7165354330708661
        },
        {
          "duration": 0.05454539999999497,
          "durationTicks": 48,
          "midi": 68,
          "name": "G#4",
          "ticks": 91444,
          "time": 103.91353244999999,
          "velocity": 0.8110236220472441
        },
        {
          "duration": 0.05454539999999497,
          "durationTicks": 48,
          "midi": 71,
          "name": "B4",
          "ticks": 91444,
          "time": 103.91353244999999,
          "velocity": 0.8110236220472441
        },
        {
          "duration": 0.08181810000000667,
          "durationTicks": 72,
          "midi": 61,
          "name": "C#4",
          "ticks": 92640,
          "time": 105.272622,
          "velocity": 0.7007874015748031
        },
        {
          "duration": 0.07727265000001182,
          "durationTicks": 68,
          "midi": 64,
          "name": "E4",
          "ticks": 92640,
          "time": 105.272622,
          "velocity": 0.6377952755905512
        },
        {
          "duration": 0.07727265000001182,
          "durationTicks": 68,
          "midi": 69,
          "name": "A4",
          "ticks": 92640,
          "time": 105.272622,
          "velocity": 0.7086614173228346
        },
        {
          "duration": 0.07727265000001182,
          "durationTicks": 68,
          "midi": 61,
          "name": "C#4",
          "ticks": 93600,
          "time": 106.36353,
          "velocity": 0.6850393700787402
        },
        {
          "duration": 0.08636355000000151,
          "durationTicks": 76,
          "midi": 64,
          "name": "E4",
          "ticks": 93600,
          "time": 106.36353,
          "velocity": 0.7716535433070866
        },
        {
          "duration": 0.06818175000000792,
          "durationTicks": 60,
          "midi": 69,
          "name": "A4",
          "ticks": 93600,
          "time": 106.36353,
          "velocity": 0.7086614173228346
        },
        {
          "duration": 0.08181810000000667,
          "durationTicks": 72,
          "midi": 62,
          "name": "D4",
          "ticks": 94560,
          "time": 107.454438,
          "velocity": 0.7480314960629921
        },
        {
          "duration": 0.07727265000001182,
          "durationTicks": 68,
          "midi": 66,
          "name": "F#4",
          "ticks": 94560,
          "time": 107.454438,
          "velocity": 0.7480314960629921
        },
        {
          "duration": 0.07727265000001182,
          "durationTicks": 68,
          "midi": 69,
          "name": "A4",
          "ticks": 94560,
          "time": 107.454438,
          "velocity": 0.8188976377952756
        },
        {
          "duration": 0.06818174999999371,
          "durationTicks": 60,
          "midi": 64,
          "name": "E4",
          "ticks": 95284,
          "time": 108.27716445,
          "velocity": 0.5984251968503937
        },
        {
          "duration": 0.05454539999999497,
          "durationTicks": 48,
          "midi": 68,
          "name": "G#4",
          "ticks": 95284,
          "time": 108.27716445,
          "velocity": 0.6771653543307087
        },
        {
          "duration": 0.05454539999999497,
          "durationTicks": 48,
          "midi": 71,
          "name": "B4",
          "ticks": 95284,
          "time": 108.27716445,
          "velocity": 0.6141732283464567
        },
        {
          "duration": 0.08181810000000667,
          "durationTicks": 72,
          "midi": 61,
          "name": "C#4",
          "ticks": 96480,
          "time": 109.636254,
          "velocity": 0.6141732283464567
        },
        {
          "duration": 0.07727265000001182,
          "durationTicks": 68,
          "midi": 64,
          "name": "E4",
          "ticks": 96480,
          "time": 109.636254,
          "velocity": 0.7086614173228346
        },
        {
          "duration": 0.07727265000001182,
          "durationTicks": 68,
          "midi": 69,
          "name": "A4",
          "ticks": 96480,
          "time": 109.636254,
          "velocity": 0.7086614173228346
        },
        {
          "duration": 0.06818174999999371,
          "durationTicks": 60,
          "midi": 66,
          "name": "F#4",
          "ticks": 97204,
          "time": 110.45898045,
          "velocity": 0.7952755905511811
        },
        {
          "duration": 0.05454539999999497,
          "durationTicks": 48,
          "midi": 69,
          "name": "A4",
          "ticks": 97204,
          "time": 110.45898045,
          "velocity": 0.7322834645669292
        },
        {
          "duration": 0.05454539999999497,
          "durationTicks": 48,
          "midi": 73,
          "name": "C#5",
          "ticks": 97204,
          "time": 110.45898045,
          "velocity": 0.7244094488188977
        },
        {
          "duration": 0.06818174999999371,
          "durationTicks": 60,
          "midi": 63,
          "name": "D#4",
          "ticks": 98404,
          "time": 111.82261545,
          "velocity": 0.6929133858267716
        },
        {
          "duration": 0.05454539999999497,
          "durationTicks": 48,
          "midi": 69,
          "name": "A4",
          "ticks": 98404,
          "time": 111.82261545,
          "velocity": 0.7086614173228346
        },
        {
          "duration": 0.05454539999999497,
          "durationTicks": 48,
          "midi": 63,
          "name": "D#4",
          "ticks": 99364,
          "time": 112.91352345,
          "velocity": 0.6929133858267716
        },
        {
          "duration": 0.113636249999999,
          "durationTicks": 100,
          "midi": 69,
          "name": "A4",
          "ticks": 99364,
          "time": 112.91352345,
          "velocity": 0.6220472440944882
        },
        {
          "duration": 0.12272714999998868,
          "durationTicks": 108,
          "midi": 64,
          "name": "E4",
          "ticks": 100324,
          "time": 114.00443145,
          "velocity": 0.7086614173228346
        },
        {
          "duration": 0.113636249999999,
          "durationTicks": 100,
          "midi": 68,
          "name": "G#4",
          "ticks": 100324,
          "time": 114.00443145,
          "velocity": 0.7007874015748031
        },
        {
          "duration": 0.05454539999999497,
          "durationTicks": 48,
          "midi": 71,
          "name": "B4",
          "ticks": 100324,
          "time": 114.00443145,
          "velocity": 0.6456692913385826
        },
        {
          "duration": 0.7363629000000032,
          "durationTicks": 648,
          "midi": 47,
          "name": "B2",
          "ticks": 101040,
          "time": 114.818067,
          "velocity": 0.7007874015748031
        },
        {
          "duration": 0.43181774999999334,
          "durationTicks": 380,
          "midi": 59,
          "name": "B3",
          "ticks": 101280,
          "time": 115.090794,
          "velocity": 0.6850393700787402
        },
        {
          "duration": 0.1818179999999927,
          "durationTicks": 160,
          "midi": 52,
          "name": "E3",
          "ticks": 101520,
          "time": 115.363521,
          "velocity": 0.7165354330708661
        },
        {
          "duration": 0.06818174999999371,
          "durationTicks": 60,
          "midi": 60,
          "name": "C4",
          "ticks": 102244,
          "time": 116.18624745,
          "velocity": 0.6220472440944882
        },
        {
          "duration": 0.05454539999999497,
          "durationTicks": 48,
          "midi": 65,
          "name": "F4",
          "ticks": 102244,
          "time": 116.18624745,
          "velocity": 0.5905511811023622
        },
        {
          "duration": 0.05454539999999497,
          "durationTicks": 48,
          "midi": 69,
          "name": "A4",
          "ticks": 102244,
          "time": 116.18624745,
          "velocity": 0.7007874015748031
        },
        {
          "duration": 0.05454539999999497,
          "durationTicks": 48,
          "midi": 60,
          "name": "C4",
          "ticks": 103204,
          "time": 117.27715545,
          "velocity": 0.7637795275590551
        },
        {
          "duration": 0.113636249999999,
          "durationTicks": 100,
          "midi": 65,
          "name": "F4",
          "ticks": 103204,
          "time": 117.27715545,
          "velocity": 0.7716535433070866
        },
        {
          "duration": 0.04545450000000528,
          "durationTicks": 40,
          "midi": 69,
          "name": "A4",
          "ticks": 103204,
          "time": 117.27715545,
          "velocity": 0.6220472440944882
        },
        {
          "duration": 0.08181810000000667,
          "durationTicks": 72,
          "midi": 62,
          "name": "D4",
          "ticks": 104160,
          "time": 118.363518,
          "velocity": 0.7007874015748031
        },
        {
          "duration": 0.07727265000001182,
          "durationTicks": 68,
          "midi": 65,
          "name": "F4",
          "ticks": 104160,
          "time": 118.363518,
          "velocity": 0.7007874015748031
        },
        {
          "duration": 0.06818175000000792,
          "durationTicks": 60,
          "midi": 62,
          "name": "D4",
          "ticks": 105124,
          "time": 119.45897144999999,
          "velocity": 0.7322834645669292
        },
        {
          "duration": 0.05454539999999497,
          "durationTicks": 48,
          "midi": 67,
          "name": "G4",
          "ticks": 105124,
          "time": 119.45897144999999,
          "velocity": 0.7086614173228346
        },
        {
          "duration": 0.08181810000000667,
          "durationTicks": 72,
          "midi": 62,
          "name": "D4",
          "ticks": 106080,
          "time": 120.545334,
          "velocity": 0.6062992125984252
        },
        {
          "duration": 0.07727265000001182,
          "durationTicks": 68,
          "midi": 65,
          "name": "F4",
          "ticks": 106080,
          "time": 120.545334,
          "velocity": 0.6850393700787402
        },
        {
          "duration": 0.07727265000001182,
          "durationTicks": 68,
          "midi": 69,
          "name": "A4",
          "ticks": 106080,
          "time": 120.545334,
          "velocity": 0.7322834645669292
        },
        {
          "duration": 0.06818175000000792,
          "durationTicks": 60,
          "midi": 62,
          "name": "D4",
          "ticks": 107044,
          "time": 121.64078744999999,
          "velocity": 0.6614173228346457
        },
        {
          "duration": 0.05454539999999497,
          "durationTicks": 48,
          "midi": 65,
          "name": "F4",
          "ticks": 107044,
          "time": 121.64078744999999,
          "velocity": 0.6614173228346457
        },
        {
          "duration": 0.06818175000000792,
          "durationTicks": 60,
          "midi": 63,
          "name": "D#4",
          "ticks": 108004,
          "time": 122.73169544999999,
          "velocity": 0.6220472440944882
        },
        {
          "duration": 0.05454539999999497,
          "durationTicks": 48,
          "midi": 67,
          "name": "G4",
          "ticks": 108004,
          "time": 122.73169544999999,
          "velocity": 0.7165354330708661
        },
        {
          "duration": 0.05454539999999497,
          "durationTicks": 48,
          "midi": 70,
          "name": "A#4",
          "ticks": 108004,
          "time": 122.73169544999999,
          "velocity": 0.6141732283464567
        },
        {
          "duration": 0.05454540000000918,
          "durationTicks": 48,
          "midi": 63,
          "name": "D#4",
          "ticks": 108964,
          "time": 123.82260344999999,
          "velocity": 0.7874015748031497
        },
        {
          "duration": 0.1136362500000132,
          "durationTicks": 100,
          "midi": 67,
          "name": "G4",
          "ticks": 108964,
          "time": 123.82260344999999,
          "velocity": 0.7165354330708661
        },
        {
          "duration": 0.04545450000000528,
          "durationTicks": 40,
          "midi": 70,
          "name": "A#4",
          "ticks": 108964,
          "time": 123.82260344999999,
          "velocity": 0.6299212598425197
        },
        {
          "duration": 0.09090900000001056,
          "durationTicks": 80,
          "midi": 63,
          "name": "D#4",
          "ticks": 109924,
          "time": 124.91351145,
          "velocity": 0.7086614173228346
        },
        {
          "duration": 0.09999990000000025,
          "durationTicks": 88,
          "midi": 67,
          "name": "G4",
          "ticks": 109924,
          "time": 124.91351145,
          "velocity": 0.7086614173228346
        },
        {
          "duration": 0.05454539999999497,
          "durationTicks": 48,
          "midi": 70,
          "name": "A#4",
          "ticks": 109924,
          "time": 124.91351145,
          "velocity": 0.7244094488188977
        },
        {
          "duration": 0.05454539999999497,
          "durationTicks": 48,
          "midi": 63,
          "name": "D#4",
          "ticks": 110884,
          "time": 126.00441945,
          "velocity": 0.7874015748031497
        },
        {
          "duration": 0.113636249999999,
          "durationTicks": 100,
          "midi": 67,
          "name": "G4",
          "ticks": 110884,
          "time": 126.00441945,
          "velocity": 0.6299212598425197
        },
        {
          "duration": 0.04545450000000528,
          "durationTicks": 40,
          "midi": 70,
          "name": "A#4",
          "ticks": 110884,
          "time": 126.00441945,
          "velocity": 0.7086614173228346
        },
        {
          "duration": 0.08181809999999246,
          "durationTicks": 72,
          "midi": 62,
          "name": "D4",
          "ticks": 111840,
          "time": 127.090782,
          "velocity": 0.7086614173228346
        },
        {
          "duration": 0.07727264999999761,
          "durationTicks": 68,
          "midi": 65,
          "name": "F4",
          "ticks": 111840,
          "time": 127.090782,
          "velocity": 0.7007874015748031
        },
        {
          "duration": 0.07727264999999761,
          "durationTicks": 68,
          "midi": 70,
          "name": "A#4",
          "ticks": 111840,
          "time": 127.090782,
          "velocity": 0.6456692913385826
        },
        {
          "duration": 0.06818174999999371,
          "durationTicks": 60,
          "midi": 62,
          "name": "D4",
          "ticks": 112564,
          "time": 127.91350845,
          "velocity": 0.7559055118110236
        },
        {
          "duration": 0.05454539999999497,
          "durationTicks": 48,
          "midi": 67,
          "name": "G4",
          "ticks": 112564,
          "time": 127.91350845,
          "velocity": 0.7086614173228346
        },
        {
          "duration": 0.06818175000000792,
          "durationTicks": 60,
          "midi": 67,
          "name": "G4",
          "ticks": 113764,
          "time": 129.27714344999998,
          "velocity": 0.7086614173228346
        },
        {
          "duration": 0.05454539999999497,
          "durationTicks": 48,
          "midi": 70,
          "name": "A#4",
          "ticks": 113764,
          "time": 129.27714344999998,
          "velocity": 0.5905511811023622
        },
        {
          "duration": 0.05454539999999497,
          "durationTicks": 48,
          "midi": 74,
          "name": "D5",
          "ticks": 113764,
          "time": 129.27714344999998,
          "velocity": 0.7086614173228346
        },
        {
          "duration": 0.06818175000000792,
          "durationTicks": 60,
          "midi": 62,
          "name": "D4",
          "ticks": 114724,
          "time": 130.36805145,
          "velocity": 0.7874015748031497
        },
        {
          "duration": 0.05454539999999497,
          "durationTicks": 48,
          "midi": 65,
          "name": "F4",
          "ticks": 114724,
          "time": 130.36805145,
          "velocity": 0.7086614173228346
        },
        {
          "duration": 0.05454539999999497,
          "durationTicks": 48,
          "midi": 70,
          "name": "A#4",
          "ticks": 114724,
          "time": 130.36805145,
          "velocity": 0.5984251968503937
        },
        {
          "duration": 0.08181810000002088,
          "durationTicks": 72,
          "midi": 62,
          "name": "D4",
          "ticks": 115680,
          "time": 131.45441399999999,
          "velocity": 0.7322834645669292
        },
        {
          "duration": 0.07727265000002603,
          "durationTicks": 68,
          "midi": 65,
          "name": "F4",
          "ticks": 115680,
          "time": 131.45441399999999,
          "velocity": 0.7795275590551181
        },
        {
          "duration": 0.07727265000002603,
          "durationTicks": 68,
          "midi": 70,
          "name": "A#4",
          "ticks": 115680,
          "time": 131.45441399999999,
          "velocity": 0.5984251968503937
        },
        {
          "duration": 0.06818175000000792,
          "durationTicks": 60,
          "midi": 63,
          "name": "D#4",
          "ticks": 116404,
          "time": 132.27714045,
          "velocity": 0.7244094488188977
        },
        {
          "duration": 0.05454539999999497,
          "durationTicks": 48,
          "midi": 67,
          "name": "G4",
          "ticks": 116404,
          "time": 132.27714045,
          "velocity": 0.6535433070866141
        },
        {
          "duration": 0.08181809999999246,
          "durationTicks": 72,
          "midi": 63,
          "name": "D#4",
          "ticks": 117600,
          "time": 133.63623,
          "velocity": 0.8110236220472441
        },
        {
          "duration": 0.07727264999999761,
          "durationTicks": 68,
          "midi": 67,
          "name": "G4",
          "ticks": 117600,
          "time": 133.63623,
          "velocity": 0.7716535433070866
        },
        {
          "duration": 0.07727264999999761,
          "durationTicks": 68,
          "midi": 72,
          "name": "C5",
          "ticks": 117600,
          "time": 133.63623,
          "velocity": 0.7480314960629921
        },
        {
          "duration": 0.07727264999999761,
          "durationTicks": 68,
          "midi": 63,
          "name": "D#4",
          "ticks": 118560,
          "time": 134.727138,
          "velocity": 0.7322834645669292
        },
        {
          "duration": 0.0863635499999873,
          "durationTicks": 76,
          "midi": 67,
          "name": "G4",
          "ticks": 118560,
          "time": 134.727138,
          "velocity": 0.6220472440944882
        },
        {
          "duration": 0.06818175000000792,
          "durationTicks": 60,
          "midi": 72,
          "name": "C5",
          "ticks": 118560,
          "time": 134.727138,
          "velocity": 0.7165354330708661
        },
        {
          "duration": 0.06818175000000792,
          "durationTicks": 60,
          "midi": 60,
          "name": "C4",
          "ticks": 120484,
          "time": 136.91349945,
          "velocity": 0.6929133858267716
        },
        {
          "duration": 0.05454539999999497,
          "durationTicks": 48,
          "midi": 67,
          "name": "G4",
          "ticks": 120484,
          "time": 136.91349945,
          "velocity": 0.7086614173228346
        },
        {
          "duration": 0.05454539999999497,
          "durationTicks": 48,
          "midi": 69,
          "name": "A4",
          "ticks": 120484,
          "time": 136.91349945,
          "velocity": 0.6456692913385826
        },
        {
          "duration": 0.08181810000002088,
          "durationTicks": 72,
          "midi": 62,
          "name": "D4",
          "ticks": 122400,
          "time": 139.09077,
          "velocity": 0.7244094488188977
        },
        {
          "duration": 0.07727265000002603,
          "durationTicks": 68,
          "midi": 65,
          "name": "F4",
          "ticks": 122400,
          "time": 139.09077,
          "velocity": 0.7165354330708661
        },
        {
          "duration": 0.06818175000000792,
          "durationTicks": 60,
          "midi": 63,
          "name": "D#4",
          "ticks": 124324,
          "time": 141.27713144999998,
          "velocity": 0.7086614173228346
        },
        {
          "duration": 0.05454540000002339,
          "durationTicks": 48,
          "midi": 67,
          "name": "G4",
          "ticks": 124324,
          "time": 141.27713144999998,
          "velocity": 0.6535433070866141
        },
        {
          "duration": 0.08181809999999246,
          "durationTicks": 72,
          "midi": 62,
          "name": "D4",
          "ticks": 125280,
          "time": 142.363494,
          "velocity": 0.7637795275590551
        },
        {
          "duration": 0.07727264999999761,
          "durationTicks": 68,
          "midi": 65,
          "name": "F4",
          "ticks": 125280,
          "time": 142.363494,
          "velocity": 0.8031496062992126
        },
        {
          "duration": 0.07727264999999761,
          "durationTicks": 68,
          "midi": 70,
          "name": "A#4",
          "ticks": 125280,
          "time": 142.363494,
          "velocity": 0.8110236220472441
        },
        {
          "duration": 0.07727264999999761,
          "durationTicks": 68,
          "midi": 62,
          "name": "D4",
          "ticks": 126240,
          "time": 143.454402,
          "velocity": 0.6535433070866141
        },
        {
          "duration": 0.08636355000001572,
          "durationTicks": 76,
          "midi": 65,
          "name": "F4",
          "ticks": 126240,
          "time": 143.454402,
          "velocity": 0.7007874015748031
        },
        {
          "duration": 0.06818175000000792,
          "durationTicks": 60,
          "midi": 70,
          "name": "A#4",
          "ticks": 126240,
          "time": 143.454402,
          "velocity": 0.7086614173228346
        },
        {
          "duration": 0.0681817499999795,
          "durationTicks": 60,
          "midi": 60,
          "name": "C4",
          "ticks": 128164,
          "time": 145.64076345,
          "velocity": 0.7086614173228346
        },
        {
          "duration": 0.05454539999999497,
          "durationTicks": 48,
          "midi": 67,
          "name": "G4",
          "ticks": 128164,
          "time": 145.64076345,
          "velocity": 0.6456692913385826
        },
        {
          "duration": 0.05454539999999497,
          "durationTicks": 48,
          "midi": 69,
          "name": "A4",
          "ticks": 128164,
          "time": 145.64076345,
          "velocity": 0.6692913385826772
        },
        {
          "duration": 0.08181809999996403,
          "durationTicks": 72,
          "midi": 62,
          "name": "D4",
          "ticks": 130080,
          "time": 147.818034,
          "velocity": 0.7086614173228346
        },
        {
          "duration": 0.07727264999996919,
          "durationTicks": 68,
          "midi": 65,
          "name": "F4",
          "ticks": 130080,
          "time": 147.818034,
          "velocity": 0.7165354330708661
        },
        {
          "duration": 0.08181809999996403,
          "durationTicks": 72,
          "midi": 63,
          "name": "D#4",
          "ticks": 132000,
          "time": 149.99985,
          "velocity": 0.6456692913385826
        },
        {
          "duration": 0.07727264999996919,
          "durationTicks": 68,
          "midi": 67,
          "name": "G4",
          "ticks": 132000,
          "time": 149.99985,
          "velocity": 0.7165354330708661
        },
        {
          "duration": 0.06818175000000792,
          "durationTicks": 60,
          "midi": 62,
          "name": "D4",
          "ticks": 132964,
          "time": 151.09530345,
          "velocity": 0.5984251968503937
        },
        {
          "duration": 0.05454540000002339,
          "durationTicks": 48,
          "midi": 65,
          "name": "F4",
          "ticks": 132964,
          "time": 151.09530345,
          "velocity": 0.6456692913385826
        },
        {
          "duration": 0.05454540000002339,
          "durationTicks": 48,
          "midi": 70,
          "name": "A#4",
          "ticks": 132964,
          "time": 151.09530345,
          "velocity": 0.6692913385826772
        },
        {
          "duration": 0.05454539999996655,
          "durationTicks": 48,
          "midi": 62,
          "name": "D4",
          "ticks": 133672,
          "time": 151.8998481,
          "velocity": 0.6456692913385826
        },
        {
          "duration": 0.11363624999998478,
          "durationTicks": 100,
          "midi": 65,
          "name": "F4",
          "ticks": 133680,
          "time": 151.908939,
          "velocity": 0.7086614173228346
        },
        {
          "duration": 0.06363630000001308,
          "durationTicks": 56,
          "midi": 70,
          "name": "A#4",
          "ticks": 133684,
          "time": 151.91348445,
          "velocity": 0.7007874015748031
        },
        {
          "duration": 0.06818175000000792,
          "durationTicks": 60,
          "midi": 60,
          "name": "C4",
          "ticks": 135844,
          "time": 154.36802745,
          "velocity": 0.6771653543307087
        },
        {
          "duration": 0.05454539999999497,
          "durationTicks": 48,
          "midi": 67,
          "name": "G4",
          "ticks": 135844,
          "time": 154.36802745,
          "velocity": 0.6377952755905512
        },
        {
          "duration": 0.05454539999999497,
          "durationTicks": 48,
          "midi": 69,
          "name": "A4",
          "ticks": 135844,
          "time": 154.36802745,
          "velocity": 0.6614173228346457
        },
        {
          "duration": 0.06818175000000792,
          "durationTicks": 60,
          "midi": 62,
          "name": "D4",
          "ticks": 137764,
          "time": 156.54984345,
          "velocity": 0.7007874015748031
        },
        {
          "duration": 0.05454540000002339,
          "durationTicks": 48,
          "midi": 65,
          "name": "F4",
          "ticks": 137764,
          "time": 156.54984345,
          "velocity": 0.8031496062992126
        },
        {
          "duration": 0.08181809999999246,
          "durationTicks": 72,
          "midi": 63,
          "name": "D#4",
          "ticks": 139680,
          "time": 158.727114,
          "velocity": 0.7007874015748031
        },
        {
          "duration": 0.07727264999999761,
          "durationTicks": 68,
          "midi": 67,
          "name": "G4",
          "ticks": 139680,
          "time": 158.727114,
          "velocity": 0.7322834645669292
        },
        {
          "duration": 0.08181809999999246,
          "durationTicks": 72,
          "midi": 62,
          "name": "D4",
          "ticks": 140640,
          "time": 159.81802199999998,
          "velocity": 0.6299212598425197
        },
        {
          "duration": 0.07727264999999761,
          "durationTicks": 68,
          "midi": 65,
          "name": "F4",
          "ticks": 140640,
          "time": 159.81802199999998,
          "velocity": 0.6771653543307087
        },
        {
          "duration": 0.07727264999999761,
          "durationTicks": 68,
          "midi": 70,
          "name": "A#4",
          "ticks": 140640,
          "time": 159.81802199999998,
          "velocity": 0.7086614173228346
        },
        {
          "duration": 0.07727264999999761,
          "durationTicks": 68,
          "midi": 62,
          "name": "D4",
          "ticks": 141600,
          "time": 160.90893,
          "velocity": 0.7086614173228346
        },
        {
          "duration": 0.08636355000001572,
          "durationTicks": 76,
          "midi": 65,
          "name": "F4",
          "ticks": 141600,
          "time": 160.90893,
          "velocity": 0.7716535433070866
        },
        {
          "duration": 0.06818175000000792,
          "durationTicks": 60,
          "midi": 70,
          "name": "A#4",
          "ticks": 141600,
          "time": 160.90893,
          "velocity": 0.6141732283464567
        }
      ]
    },
    {
      "channel": 0,
      "controlChanges": {
        "7": [
          {
            "number": 7,
            "ticks": 0,
            "time": 0,
            "value": 0.8976377952755905
          }
        ],
        "10": [
          {
            "number": 10,
            "ticks": 0,
            "time": 0,
            "value": 1
          }
        ],
        "32": [
          {
            "number": 32,
            "ticks": 0,
            "time": 0,
            "value": 0
          }
        ],
        "91": [
          {
            "number": 91,
            "ticks": 0,
            "time": 0,
            "value": 0.6614173228346457
          }
        ]
      },
      "pitchBends": [],
      "instrument": {
        "family": "piano",
        "number": 0,
        "name": "acoustic grand piano"
      },
      "name": "Strings ",
      "notes": [],
      "endOfTrackTicks": 141960
    },
    {
      "channel": 3,
      "controlChanges": {
        "7": [
          {
            "number": 7,
            "ticks": 134400,
            "time": 152.72711999999999,
            "value": 0.8503937007874016
          },
          {
            "number": 7,
            "ticks": 134400,
            "time": 152.72711999999999,
            "value": 0.8503937007874016
          },
          {
            "number": 7,
            "ticks": 134640,
            "time": 152.999847,
            "value": 0.8188976377952756
          },
          {
            "number": 7,
            "ticks": 134640,
            "time": 152.999847,
            "value": 0.8188976377952756
          },
          {
            "number": 7,
            "ticks": 134880,
            "time": 153.272574,
            "value": 0.7952755905511811
          },
          {
            "number": 7,
            "ticks": 134880,
            "time": 153.272574,
            "value": 0.7952755905511811
          },
          {
            "number": 7,
            "ticks": 135120,
            "time": 153.545301,
            "value": 0.7637795275590551
          },
          {
            "number": 7,
            "ticks": 135120,
            "time": 153.545301,
            "value": 0.7637795275590551
          },
          {
            "number": 7,
            "ticks": 135360,
            "time": 153.818028,
            "value": 0.7401574803149606
          },
          {
            "number": 7,
            "ticks": 135360,
            "time": 153.818028,
            "value": 0.7401574803149606
          },
          {
            "number": 7,
            "ticks": 135600,
            "time": 154.090755,
            "value": 0.7165354330708661
          },
          {
            "number": 7,
            "ticks": 135600,
            "time": 154.090755,
            "value": 0.7165354330708661
          },
          {
            "number": 7,
            "ticks": 135840,
            "time": 154.363482,
            "value": 0.6850393700787402
          },
          {
            "number": 7,
            "ticks": 135840,
            "time": 154.363482,
            "value": 0.6850393700787402
          },
          {
            "number": 7,
            "ticks": 136080,
            "time": 154.636209,
            "value": 0.6614173228346457
          },
          {
            "number": 7,
            "ticks": 136080,
            "time": 154.636209,
            "value": 0.6614173228346457
          },
          {
            "number": 7,
            "ticks": 136320,
            "time": 154.908936,
            "value": 0.6299212598425197
          },
          {
            "number": 7,
            "ticks": 136320,
            "time": 154.908936,
            "value": 0.6299212598425197
          },
          {
            "number": 7,
            "ticks": 136560,
            "time": 155.181663,
            "value": 0.6062992125984252
          },
          {
            "number": 7,
            "ticks": 136560,
            "time": 155.181663,
            "value": 0.6062992125984252
          },
          {
            "number": 7,
            "ticks": 136800,
            "time": 155.45439,
            "value": 0.5826771653543307
          },
          {
            "number": 7,
            "ticks": 136800,
            "time": 155.45439,
            "value": 0.5826771653543307
          },
          {
            "number": 7,
            "ticks": 137040,
            "time": 155.727117,
            "value": 0.5511811023622047
          },
          {
            "number": 7,
            "ticks": 137040,
            "time": 155.727117,
            "value": 0.5511811023622047
          },
          {
            "number": 7,
            "ticks": 137280,
            "time": 155.999844,
            "value": 0.5275590551181102
          },
          {
            "number": 7,
            "ticks": 137280,
            "time": 155.999844,
            "value": 0.5275590551181102
          },
          {
            "number": 7,
            "ticks": 137520,
            "time": 156.272571,
            "value": 0.5039370078740157
          },
          {
            "number": 7,
            "ticks": 137520,
            "time": 156.272571,
            "value": 0.5039370078740157
          },
          {
            "number": 7,
            "ticks": 137760,
            "time": 156.545298,
            "value": 0.47244094488188976
          },
          {
            "number": 7,
            "ticks": 137760,
            "time": 156.545298,
            "value": 0.47244094488188976
          },
          {
            "number": 7,
            "ticks": 138000,
            "time": 156.818025,
            "value": 0.44881889763779526
          },
          {
            "number": 7,
            "ticks": 138000,
            "time": 156.818025,
            "value": 0.44881889763779526
          },
          {
            "number": 7,
            "ticks": 138240,
            "time": 157.090752,
            "value": 0.41732283464566927
          },
          {
            "number": 7,
            "ticks": 138240,
            "time": 157.090752,
            "value": 0.41732283464566927
          },
          {
            "number": 7,
            "ticks": 138480,
            "time": 157.363479,
            "value": 0.3937007874015748
          },
          {
            "number": 7,
            "ticks": 138480,
            "time": 157.363479,
            "value": 0.3937007874015748
          },
          {
            "number": 7,
            "ticks": 138720,
            "time": 157.636206,
            "value": 0.3700787401574803
          },
          {
            "number": 7,
            "ticks": 138720,
            "time": 157.636206,
            "value": 0.3700787401574803
          },
          {
            "number": 7,
            "ticks": 138960,
            "time": 157.908933,
            "value": 0.33858267716535434
          },
          {
            "number": 7,
            "ticks": 138960,
            "time": 157.908933,
            "value": 0.33858267716535434
          },
          {
            "number": 7,
            "ticks": 139200,
            "time": 158.18166,
            "value": 0.31496062992125984
          },
          {
            "number": 7,
            "ticks": 139200,
            "time": 158.18166,
            "value": 0.31496062992125984
          },
          {
            "number": 7,
            "ticks": 139440,
            "time": 158.454387,
            "value": 0.29133858267716534
          },
          {
            "number": 7,
            "ticks": 139440,
            "time": 158.454387,
            "value": 0.29133858267716534
          },
          {
            "number": 7,
            "ticks": 139680,
            "time": 158.727114,
            "value": 0.25984251968503935
          },
          {
            "number": 7,
            "ticks": 139680,
            "time": 158.727114,
            "value": 0.25984251968503935
          },
          {
            "number": 7,
            "ticks": 139920,
            "time": 158.999841,
            "value": 0.23622047244094488
          },
          {
            "number": 7,
            "ticks": 139920,
            "time": 158.999841,
            "value": 0.23622047244094488
          },
          {
            "number": 7,
            "ticks": 140160,
            "time": 159.272568,
            "value": 0.2047244094488189
          },
          {
            "number": 7,
            "ticks": 140160,
            "time": 159.272568,
            "value": 0.2047244094488189
          },
          {
            "number": 7,
            "ticks": 140400,
            "time": 159.545295,
            "value": 0.18110236220472442
          },
          {
            "number": 7,
            "ticks": 140400,
            "time": 159.545295,
            "value": 0.18110236220472442
          },
          {
            "number": 7,
            "ticks": 140640,
            "time": 159.81802199999998,
            "value": 0.15748031496062992
          },
          {
            "number": 7,
            "ticks": 140640,
            "time": 159.81802199999998,
            "value": 0.15748031496062992
          },
          {
            "number": 7,
            "ticks": 140880,
            "time": 160.090749,
            "value": 0.12598425196850394
          },
          {
            "number": 7,
            "ticks": 140880,
            "time": 160.090749,
            "value": 0.12598425196850394
          },
          {
            "number": 7,
            "ticks": 141120,
            "time": 160.363476,
            "value": 0.10236220472440945
          },
          {
            "number": 7,
            "ticks": 141120,
            "time": 160.363476,
            "value": 0.10236220472440945
          },
          {
            "number": 7,
            "ticks": 141360,
            "time": 160.636203,
            "value": 0.07874015748031496
          },
          {
            "number": 7,
            "ticks": 141360,
            "time": 160.636203,
            "value": 0.07874015748031496
          },
          {
            "number": 7,
            "ticks": 141600,
            "time": 160.90893,
            "value": 0.047244094488188976
          },
          {
            "number": 7,
            "ticks": 141600,
            "time": 160.90893,
            "value": 0.047244094488188976
          },
          {
            "number": 7,
            "ticks": 141840,
            "time": 161.181657,
            "value": 0.023622047244094488
          },
          {
            "number": 7,
            "ticks": 141840,
            "time": 161.181657,
            "value": 0.023622047244094488
          }
        ],
        "64": [
          {
            "number": 64,
            "ticks": 0,
            "time": 0,
            "value": 0
          }
        ],
        "123": [
          {
            "number": 123,
            "ticks": 0,
            "time": 0,
            "value": 0
          }
        ]
      },
      "pitchBends": [],
      "instrument": {
        "family": "ensemble",
        "number": 48,
        "name": "string ensemble 1"
      },
      "name": "",
      "notes": [
        {
          "duration": 0.21818159999999942,
          "durationTicks": 192,
          "midi": 69,
          "name": "A4",
          "ticks": 9600,
          "time": 10.90908,
          "velocity": 0.7874015748031497
        },
        {
          "duration": 0.1090908000000006,
          "durationTicks": 96,
          "midi": 69,
          "name": "A4",
          "ticks": 9840,
          "time": 11.181807,
          "velocity": 0.905511811023622
        },
        {
          "duration": 0.1090908000000006,
          "durationTicks": 96,
          "midi": 69,
          "name": "A4",
          "ticks": 9960,
          "time": 11.318170499999999,
          "velocity": 0.8661417322834646
        },
        {
          "duration": 0.21818159999999764,
          "durationTicks": 192,
          "midi": 73,
          "name": "C#5",
          "ticks": 10080,
          "time": 11.454534,
          "velocity": 0.7637795275590551
        },
        {
          "duration": 0.45454499999999953,
          "durationTicks": 400,
          "midi": 76,
          "name": "E5",
          "ticks": 10320,
          "time": 11.727261,
          "velocity": 0.952755905511811
        },
        {
          "duration": 0.21818159999999942,
          "durationTicks": 192,
          "midi": 76,
          "name": "E5",
          "ticks": 10800,
          "time": 12.272715,
          "velocity": 0.8740157480314961
        },
        {
          "duration": 0.21818159999999942,
          "durationTicks": 192,
          "midi": 78,
          "name": "F#5",
          "ticks": 11040,
          "time": 12.545442,
          "velocity": 0.7480314960629921
        },
        {
          "duration": 0.21818159999999942,
          "durationTicks": 192,
          "midi": 81,
          "name": "A5",
          "ticks": 11280,
          "time": 12.818169,
          "velocity": 0.8661417322834646
        },
        {
          "duration": 0.21818159999999764,
          "durationTicks": 192,
          "midi": 69,
          "name": "A4",
          "ticks": 11520,
          "time": 13.090896,
          "velocity": 0.8740157480314961
        },
        {
          "duration": 0.21818159999999764,
          "durationTicks": 192,
          "midi": 81,
          "name": "A5",
          "ticks": 11520,
          "time": 13.090896,
          "velocity": 0.8188976377952756
        },
        {
          "duration": 0.10909079999999882,
          "durationTicks": 96,
          "midi": 69,
          "name": "A4",
          "ticks": 11760,
          "time": 13.363623,
          "velocity": 0.8661417322834646
        },
        {
          "duration": 0.10909079999999882,
          "durationTicks": 96,
          "midi": 81,
          "name": "A5",
          "ticks": 11760,
          "time": 13.363623,
          "velocity": 0.84251968503937
        },
        {
          "duration": 0.10909079999999882,
          "durationTicks": 96,
          "midi": 69,
          "name": "A4",
          "ticks": 11880,
          "time": 13.4999865,
          "velocity": 0.8661417322834646
        },
        {
          "duration": 0.10909079999999882,
          "durationTicks": 96,
          "midi": 81,
          "name": "A5",
          "ticks": 11880,
          "time": 13.4999865,
          "velocity": 0.8740157480314961
        },
        {
          "duration": 0.21818159999999942,
          "durationTicks": 192,
          "midi": 73,
          "name": "C#5",
          "ticks": 12000,
          "time": 13.63635,
          "velocity": 0.8503937007874016
        },
        {
          "duration": 0.21818159999999942,
          "durationTicks": 192,
          "midi": 85,
          "name": "C#6",
          "ticks": 12000,
          "time": 13.63635,
          "velocity": 0.8661417322834646
        },
        {
          "duration": 0.42727230000000027,
          "durationTicks": 376,
          "midi": 76,
          "name": "E5",
          "ticks": 12240,
          "time": 13.909077,
          "velocity": 0.8188976377952756
        },
        {
          "duration": 0.42727230000000027,
          "durationTicks": 376,
          "midi": 88,
          "name": "E6",
          "ticks": 12240,
          "time": 13.909077,
          "velocity": 0.8661417322834646
        },
        {
          "duration": 0.21818159999999942,
          "durationTicks": 192,
          "midi": 76,
          "name": "E5",
          "ticks": 12720,
          "time": 14.454531,
          "velocity": 0.8661417322834646
        },
        {
          "duration": 0.21818159999999942,
          "durationTicks": 192,
          "midi": 88,
          "name": "E6",
          "ticks": 12720,
          "time": 14.454531,
          "velocity": 0.8661417322834646
        },
        {
          "duration": 0.21818159999999942,
          "durationTicks": 192,
          "midi": 78,
          "name": "F#5",
          "ticks": 12960,
          "time": 14.727257999999999,
          "velocity": 0.8503937007874016
        },
        {
          "duration": 0.21818159999999942,
          "durationTicks": 192,
          "midi": 90,
          "name": "F#6",
          "ticks": 12960,
          "time": 14.727257999999999,
          "velocity": 0.8661417322834646
        },
        {
          "duration": 0.21818159999999764,
          "durationTicks": 192,
          "midi": 81,
          "name": "A5",
          "ticks": 13200,
          "time": 14.999985,
          "velocity": 0.9291338582677166
        },
        {
          "duration": 0.21818159999999764,
          "durationTicks": 192,
          "midi": 93,
          "name": "A6",
          "ticks": 13200,
          "time": 14.999985,
          "velocity": 0.937007874015748
        },
        {
          "duration": 1.086362549999997,
          "durationTicks": 956,
          "midi": 74,
          "name": "D5",
          "ticks": 46084,
          "time": 52.368129450000005,
          "velocity": 0.5748031496062992
        },
        {
          "duration": 1.081817100000002,
          "durationTicks": 952,
          "midi": 66,
          "name": "F#4",
          "ticks": 46088,
          "time": 52.3726749,
          "velocity": 0.6141732283464567
        },
        {
          "duration": 1.086362549999997,
          "durationTicks": 956,
          "midi": 71,
          "name": "B4",
          "ticks": 47044,
          "time": 53.459037450000004,
          "velocity": 0.5748031496062992
        },
        {
          "duration": 1.081817100000002,
          "durationTicks": 952,
          "midi": 64,
          "name": "E4",
          "ticks": 47048,
          "time": 53.4635829,
          "velocity": 0.6141732283464567
        },
        {
          "duration": 2.177270549999996,
          "durationTicks": 1916,
          "midi": 69,
          "name": "A4",
          "ticks": 48004,
          "time": 54.54994545,
          "velocity": 0.5748031496062992
        },
        {
          "duration": 2.172725100000001,
          "durationTicks": 1912,
          "midi": 61,
          "name": "C#4",
          "ticks": 48008,
          "time": 54.5544909,
          "velocity": 0.6141732283464567
        },
        {
          "duration": 1.086362549999997,
          "durationTicks": 956,
          "midi": 69,
          "name": "A4",
          "ticks": 49924,
          "time": 56.73176145,
          "velocity": 0.5748031496062992
        },
        {
          "duration": 1.081817099999995,
          "durationTicks": 952,
          "midi": 62,
          "name": "D4",
          "ticks": 49928,
          "time": 56.7363069,
          "velocity": 0.6141732283464567
        },
        {
          "duration": 1.0863625499999898,
          "durationTicks": 956,
          "midi": 71,
          "name": "B4",
          "ticks": 50884,
          "time": 57.82266945000001,
          "velocity": 0.5748031496062992
        },
        {
          "duration": 1.081817099999995,
          "durationTicks": 952,
          "midi": 64,
          "name": "E4",
          "ticks": 50888,
          "time": 57.8272149,
          "velocity": 0.6141732283464567
        },
        {
          "duration": 2.177270549999996,
          "durationTicks": 1916,
          "midi": 69,
          "name": "A4",
          "ticks": 51844,
          "time": 58.913577450000005,
          "velocity": 0.5748031496062992
        },
        {
          "duration": 2.172725100000001,
          "durationTicks": 1912,
          "midi": 61,
          "name": "C#4",
          "ticks": 51848,
          "time": 58.9181229,
          "velocity": 0.6141732283464567
        },
        {
          "duration": 1.086362549999997,
          "durationTicks": 956,
          "midi": 74,
          "name": "D5",
          "ticks": 53764,
          "time": 61.09539345,
          "velocity": 0.5748031496062992
        },
        {
          "duration": 1.081817100000002,
          "durationTicks": 952,
          "midi": 66,
          "name": "F#4",
          "ticks": 53768,
          "time": 61.0999389,
          "velocity": 0.6141732283464567
        },
        {
          "duration": 1.086362549999997,
          "durationTicks": 956,
          "midi": 71,
          "name": "B4",
          "ticks": 54724,
          "time": 62.18630145,
          "velocity": 0.5748031496062992
        },
        {
          "duration": 1.081817100000002,
          "durationTicks": 952,
          "midi": 64,
          "name": "E4",
          "ticks": 54728,
          "time": 62.1908469,
          "velocity": 0.6141732283464567
        },
        {
          "duration": 1.086362550000004,
          "durationTicks": 956,
          "midi": 69,
          "name": "A4",
          "ticks": 55684,
          "time": 63.27720945,
          "velocity": 0.5748031496062992
        },
        {
          "duration": 1.0818171000000092,
          "durationTicks": 952,
          "midi": 61,
          "name": "C#4",
          "ticks": 55688,
          "time": 63.281754899999996,
          "velocity": 0.6141732283464567
        },
        {
          "duration": 1.086362550000004,
          "durationTicks": 956,
          "midi": 73,
          "name": "C#5",
          "ticks": 56644,
          "time": 64.36811745,
          "velocity": 0.5748031496062992
        },
        {
          "duration": 1.0818171000000092,
          "durationTicks": 952,
          "midi": 66,
          "name": "F#4",
          "ticks": 56648,
          "time": 64.3726629,
          "velocity": 0.6141732283464567
        },
        {
          "duration": 2.177270550000003,
          "durationTicks": 1916,
          "midi": 69,
          "name": "A4",
          "ticks": 57604,
          "time": 65.45902545,
          "velocity": 0.5748031496062992
        },
        {
          "duration": 2.172725100000008,
          "durationTicks": 1912,
          "midi": 63,
          "name": "D#4",
          "ticks": 57608,
          "time": 65.4635709,
          "velocity": 0.6141732283464567
        },
        {
          "duration": 0.7681810500000097,
          "durationTicks": 676,
          "midi": 71,
          "name": "B4",
          "ticks": 59524,
          "time": 67.64084145,
          "velocity": 0.5748031496062992
        },
        {
          "duration": 0.7636356000000006,
          "durationTicks": 672,
          "midi": 64,
          "name": "E4",
          "ticks": 59528,
          "time": 67.6453869,
          "velocity": 0.6141732283464567
        },
        {
          "duration": 1.3499986499999892,
          "durationTicks": 1188,
          "midi": 68,
          "name": "G#4",
          "ticks": 60244,
          "time": 68.45902245,
          "velocity": 0.5748031496062992
        },
        {
          "duration": 1.3454531999999944,
          "durationTicks": 1184,
          "midi": 62,
          "name": "D4",
          "ticks": 60248,
          "time": 68.4635679,
          "velocity": 0.6141732283464567
        },
        {
          "duration": 0.6818175000000082,
          "durationTicks": 600,
          "midi": 76,
          "name": "E5",
          "ticks": 76800,
          "time": 87.27264,
          "velocity": 0.8976377952755905
        },
        {
          "duration": 0.6818175000000082,
          "durationTicks": 600,
          "midi": 88,
          "name": "E6",
          "ticks": 76800,
          "time": 87.27264,
          "velocity": 0.8976377952755905
        },
        {
          "duration": 0.6727265999999901,
          "durationTicks": 592,
          "midi": 78,
          "name": "F#5",
          "ticks": 77520,
          "time": 88.090821,
          "velocity": 0.8661417322834646
        },
        {
          "duration": 0.6727265999999901,
          "durationTicks": 592,
          "midi": 90,
          "name": "F#6",
          "ticks": 77520,
          "time": 88.090821,
          "velocity": 0.8661417322834646
        },
        {
          "duration": 0.2181816000000083,
          "durationTicks": 192,
          "midi": 73,
          "name": "C#5",
          "ticks": 78240,
          "time": 88.909002,
          "velocity": 0.84251968503937
        },
        {
          "duration": 0.2181816000000083,
          "durationTicks": 192,
          "midi": 85,
          "name": "C#6",
          "ticks": 78240,
          "time": 88.909002,
          "velocity": 0.84251968503937
        },
        {
          "duration": 0.2181815999999941,
          "durationTicks": 192,
          "midi": 71,
          "name": "B4",
          "ticks": 78480,
          "time": 89.181729,
          "velocity": 0.8582677165354331
        },
        {
          "duration": 0.2181815999999941,
          "durationTicks": 192,
          "midi": 83,
          "name": "B5",
          "ticks": 78480,
          "time": 89.181729,
          "velocity": 0.8582677165354331
        },
        {
          "duration": 0.2181816000000083,
          "durationTicks": 192,
          "midi": 69,
          "name": "A4",
          "ticks": 78720,
          "time": 89.454456,
          "velocity": 0.84251968503937
        },
        {
          "duration": 0.2181816000000083,
          "durationTicks": 192,
          "midi": 81,
          "name": "A5",
          "ticks": 78720,
          "time": 89.454456,
          "velocity": 0.84251968503937
        },
        {
          "duration": 0.2181816000000083,
          "durationTicks": 192,
          "midi": 66,
          "name": "F#4",
          "ticks": 78960,
          "time": 89.727183,
          "velocity": 0.952755905511811
        },
        {
          "duration": 0.2181816000000083,
          "durationTicks": 192,
          "midi": 78,
          "name": "F#5",
          "ticks": 78960,
          "time": 89.727183,
          "velocity": 0.952755905511811
        },
        {
          "duration": 0.2181816000000083,
          "durationTicks": 192,
          "midi": 69,
          "name": "A4",
          "ticks": 79200,
          "time": 89.99991,
          "velocity": 0.8503937007874016
        },
        {
          "duration": 0.2181816000000083,
          "durationTicks": 192,
          "midi": 81,
          "name": "A5",
          "ticks": 79200,
          "time": 89.99991,
          "velocity": 0.8503937007874016
        },
        {
          "duration": 0.681817499999994,
          "durationTicks": 600,
          "midi": 73,
          "name": "C#5",
          "ticks": 79440,
          "time": 90.272637,
          "velocity": 0.8661417322834646
        },
        {
          "duration": 0.681817499999994,
          "durationTicks": 600,
          "midi": 85,
          "name": "C#6",
          "ticks": 79440,
          "time": 90.272637,
          "velocity": 0.8661417322834646
        },
        {
          "duration": 0.4090905000000049,
          "durationTicks": 360,
          "midi": 71,
          "name": "B4",
          "ticks": 80160,
          "time": 91.090818,
          "velocity": 0.7795275590551181
        },
        {
          "duration": 0.4090905000000049,
          "durationTicks": 360,
          "midi": 83,
          "name": "B5",
          "ticks": 80160,
          "time": 91.090818,
          "velocity": 0.7795275590551181
        },
        {
          "duration": 0.2181815999999941,
          "durationTicks": 192,
          "midi": 69,
          "name": "A4",
          "ticks": 80640,
          "time": 91.636272,
          "velocity": 0.8661417322834646
        },
        {
          "duration": 0.2181815999999941,
          "durationTicks": 192,
          "midi": 81,
          "name": "A5",
          "ticks": 80640,
          "time": 91.636272,
          "velocity": 0.8661417322834646
        },
        {
          "duration": 0.2181816000000083,
          "durationTicks": 192,
          "midi": 66,
          "name": "F#4",
          "ticks": 80880,
          "time": 91.908999,
          "velocity": 0.8661417322834646
        },
        {
          "duration": 0.2181816000000083,
          "durationTicks": 192,
          "midi": 78,
          "name": "F#5",
          "ticks": 80880,
          "time": 91.908999,
          "velocity": 0.8661417322834646
        },
        {
          "duration": 0.2181816000000083,
          "durationTicks": 192,
          "midi": 69,
          "name": "A4",
          "ticks": 81120,
          "time": 92.181726,
          "velocity": 0.9212598425196851
        },
        {
          "duration": 0.2181816000000083,
          "durationTicks": 192,
          "midi": 81,
          "name": "A5",
          "ticks": 81120,
          "time": 92.181726,
          "velocity": 0.9212598425196851
        },
        {
          "duration": 0.6909084000000121,
          "durationTicks": 608,
          "midi": 74,
          "name": "D5",
          "ticks": 81360,
          "time": 92.454453,
          "velocity": 0.84251968503937
        },
        {
          "duration": 0.6909084000000121,
          "durationTicks": 608,
          "midi": 86,
          "name": "D6",
          "ticks": 81360,
          "time": 92.454453,
          "velocity": 0.84251968503937
        },
        {
          "duration": 0.4090905000000049,
          "durationTicks": 360,
          "midi": 73,
          "name": "C#5",
          "ticks": 82080,
          "time": 93.272634,
          "velocity": 0.7637795275590551
        },
        {
          "duration": 0.4090905000000049,
          "durationTicks": 360,
          "midi": 85,
          "name": "C#6",
          "ticks": 82080,
          "time": 93.272634,
          "velocity": 0.7637795275590551
        },
        {
          "duration": 4.227268499999994,
          "durationTicks": 3720,
          "midi": 69,
          "name": "A4",
          "ticks": 82560,
          "time": 93.818088,
          "velocity": 0.7086614173228346
        },
        {
          "duration": 4.227268499999994,
          "durationTicks": 3720,
          "midi": 81,
          "name": "A5",
          "ticks": 82560,
          "time": 93.818088,
          "velocity": 0.7086614173228346
        },
        {
          "duration": 1.086362550000004,
          "durationTicks": 956,
          "midi": 74,
          "name": "D5",
          "ticks": 86404,
          "time": 98.18626545,
          "velocity": 0.5748031496062992
        },
        {
          "duration": 1.081817099999995,
          "durationTicks": 952,
          "midi": 66,
          "name": "F#4",
          "ticks": 86408,
          "time": 98.1908109,
          "velocity": 0.6141732283464567
        },
        {
          "duration": 1.086362550000004,
          "durationTicks": 956,
          "midi": 71,
          "name": "B4",
          "ticks": 87364,
          "time": 99.27717344999999,
          "velocity": 0.5748031496062992
        },
        {
          "duration": 1.081817099999995,
          "durationTicks": 952,
          "midi": 64,
          "name": "E4",
          "ticks": 87368,
          "time": 99.2817189,
          "velocity": 0.6141732283464567
        },
        {
          "duration": 2.177270550000003,
          "durationTicks": 1916,
          "midi": 69,
          "name": "A4",
          "ticks": 88324,
          "time": 100.36808144999999,
          "velocity": 0.5748031496062992
        },
        {
          "duration": 2.172725099999994,
          "durationTicks": 1912,
          "midi": 61,
          "name": "C#4",
          "ticks": 88328,
          "time": 100.3726269,
          "velocity": 0.6141732283464567
        },
        {
          "duration": 1.086362550000004,
          "durationTicks": 956,
          "midi": 69,
          "name": "A4",
          "ticks": 90244,
          "time": 102.54989744999999,
          "velocity": 0.5748031496062992
        },
        {
          "duration": 1.0818170999999808,
          "durationTicks": 952,
          "midi": 62,
          "name": "D4",
          "ticks": 90248,
          "time": 102.55444290000001,
          "velocity": 0.6141732283464567
        },
        {
          "duration": 1.0863625500000182,
          "durationTicks": 956,
          "midi": 71,
          "name": "B4",
          "ticks": 91204,
          "time": 103.64080544999999,
          "velocity": 0.5748031496062992
        },
        {
          "duration": 1.081817099999995,
          "durationTicks": 952,
          "midi": 64,
          "name": "E4",
          "ticks": 91208,
          "time": 103.64535090000001,
          "velocity": 0.6141732283464567
        },
        {
          "duration": 2.177270550000003,
          "durationTicks": 1916,
          "midi": 69,
          "name": "A4",
          "ticks": 92164,
          "time": 104.73171345,
          "velocity": 0.5748031496062992
        },
        {
          "duration": 2.172725099999994,
          "durationTicks": 1912,
          "midi": 61,
          "name": "C#4",
          "ticks": 92168,
          "time": 104.73625890000001,
          "velocity": 0.6141732283464567
        },
        {
          "duration": 1.086362550000004,
          "durationTicks": 956,
          "midi": 74,
          "name": "D5",
          "ticks": 94084,
          "time": 106.91352945,
          "velocity": 0.5748031496062992
        },
        {
          "duration": 1.081817099999995,
          "durationTicks": 952,
          "midi": 66,
          "name": "F#4",
          "ticks": 94088,
          "time": 106.91807490000001,
          "velocity": 0.6141732283464567
        },
        {
          "duration": 1.086362550000004,
          "durationTicks": 956,
          "midi": 71,
          "name": "B4",
          "ticks": 95044,
          "time": 108.00443745,
          "velocity": 0.5748031496062992
        },
        {
          "duration": 1.081817099999995,
          "durationTicks": 952,
          "midi": 64,
          "name": "E4",
          "ticks": 95048,
          "time": 108.0089829,
          "velocity": 0.6141732283464567
        },
        {
          "duration": 1.086362550000004,
          "durationTicks": 956,
          "midi": 69,
          "name": "A4",
          "ticks": 96004,
          "time": 109.09534545,
          "velocity": 0.5748031496062992
        },
        {
          "duration": 1.081817099999995,
          "durationTicks": 952,
          "midi": 61,
          "name": "C#4",
          "ticks": 96008,
          "time": 109.0998909,
          "velocity": 0.6141732283464567
        },
        {
          "duration": 1.086362550000004,
          "durationTicks": 956,
          "midi": 73,
          "name": "C#5",
          "ticks": 96964,
          "time": 110.18625345,
          "velocity": 0.5748031496062992
        },
        {
          "duration": 1.081817099999995,
          "durationTicks": 952,
          "midi": 66,
          "name": "F#4",
          "ticks": 96968,
          "time": 110.1907989,
          "velocity": 0.6141732283464567
        },
        {
          "duration": 2.177270550000003,
          "durationTicks": 1916,
          "midi": 69,
          "name": "A4",
          "ticks": 97924,
          "time": 111.27716145,
          "velocity": 0.5748031496062992
        },
        {
          "duration": 2.172725099999994,
          "durationTicks": 1912,
          "midi": 63,
          "name": "D#4",
          "ticks": 97928,
          "time": 111.2817069,
          "velocity": 0.6141732283464567
        },
        {
          "duration": 2.177270550000003,
          "durationTicks": 1916,
          "midi": 71,
          "name": "B4",
          "ticks": 99844,
          "time": 113.45897744999999,
          "velocity": 0.5748031496062992
        },
        {
          "duration": 2.172725099999994,
          "durationTicks": 1912,
          "midi": 64,
          "name": "E4",
          "ticks": 99848,
          "time": 113.4635229,
          "velocity": 0.6141732283464567
        },
        {
          "duration": 2.177270550000003,
          "durationTicks": 1916,
          "midi": 72,
          "name": "C5",
          "ticks": 101764,
          "time": 115.64079344999999,
          "velocity": 0.5748031496062992
        },
        {
          "duration": 2.1727250999999796,
          "durationTicks": 1912,
          "midi": 65,
          "name": "F4",
          "ticks": 101768,
          "time": 115.64533890000001,
          "velocity": 0.6141732283464567
        },
        {
          "duration": 0.6727265999999759,
          "durationTicks": 592,
          "midi": 89,
          "name": "F6",
          "ticks": 119040,
          "time": 135.272592,
          "velocity": 0.9212598425196851
        },
        {
          "duration": 0.6727265999999759,
          "durationTicks": 592,
          "midi": 77,
          "name": "F5",
          "ticks": 119040,
          "time": 135.272592,
          "velocity": 0.9212598425196851
        },
        {
          "duration": 0.6818175000000224,
          "durationTicks": 600,
          "midi": 91,
          "name": "G6",
          "ticks": 119760,
          "time": 136.09077299999998,
          "velocity": 0.8582677165354331
        },
        {
          "duration": 0.6818175000000224,
          "durationTicks": 600,
          "midi": 79,
          "name": "G5",
          "ticks": 119760,
          "time": 136.09077299999998,
          "velocity": 0.8582677165354331
        },
        {
          "duration": 0.2181816000000083,
          "durationTicks": 192,
          "midi": 86,
          "name": "D6",
          "ticks": 120480,
          "time": 136.908954,
          "velocity": 0.8346456692913385
        },
        {
          "duration": 0.2181816000000083,
          "durationTicks": 192,
          "midi": 74,
          "name": "D5",
          "ticks": 120480,
          "time": 136.908954,
          "velocity": 0.8346456692913385
        },
        {
          "duration": 0.2181816000000083,
          "durationTicks": 192,
          "midi": 84,
          "name": "C6",
          "ticks": 120720,
          "time": 137.181681,
          "velocity": 0.8661417322834646
        },
        {
          "duration": 0.2181816000000083,
          "durationTicks": 192,
          "midi": 72,
          "name": "C5",
          "ticks": 120720,
          "time": 137.181681,
          "velocity": 0.8661417322834646
        },
        {
          "duration": 0.2181816000000083,
          "durationTicks": 192,
          "midi": 82,
          "name": "A#5",
          "ticks": 120960,
          "time": 137.454408,
          "velocity": 0.8582677165354331
        },
        {
          "duration": 0.2181816000000083,
          "durationTicks": 192,
          "midi": 70,
          "name": "A#4",
          "ticks": 120960,
          "time": 137.454408,
          "velocity": 0.8582677165354331
        },
        {
          "duration": 0.2181816000000083,
          "durationTicks": 192,
          "midi": 79,
          "name": "G5",
          "ticks": 121200,
          "time": 137.727135,
          "velocity": 0.8503937007874016
        },
        {
          "duration": 0.2181816000000083,
          "durationTicks": 192,
          "midi": 67,
          "name": "G4",
          "ticks": 121200,
          "time": 137.727135,
          "velocity": 0.8503937007874016
        },
        {
          "duration": 0.16818164999997975,
          "durationTicks": 148,
          "midi": 82,
          "name": "A#5",
          "ticks": 121440,
          "time": 137.999862,
          "velocity": 0.8661417322834646
        },
        {
          "duration": 0.16818164999997975,
          "durationTicks": 148,
          "midi": 70,
          "name": "A#4",
          "ticks": 121440,
          "time": 137.999862,
          "velocity": 0.8661417322834646
        },
        {
          "duration": 0.6909083999999837,
          "durationTicks": 608,
          "midi": 86,
          "name": "D6",
          "ticks": 121680,
          "time": 138.272589,
          "velocity": 0.8346456692913385
        },
        {
          "duration": 0.6909083999999837,
          "durationTicks": 608,
          "midi": 74,
          "name": "D5",
          "ticks": 121680,
          "time": 138.272589,
          "velocity": 0.8346456692913385
        },
        {
          "duration": 0.4090905000000191,
          "durationTicks": 360,
          "midi": 84,
          "name": "C6",
          "ticks": 122400,
          "time": 139.09077,
          "velocity": 0.8267716535433071
        },
        {
          "duration": 0.4090905000000191,
          "durationTicks": 360,
          "midi": 72,
          "name": "C5",
          "ticks": 122400,
          "time": 139.09077,
          "velocity": 0.8267716535433071
        },
        {
          "duration": 0.21818159999997988,
          "durationTicks": 192,
          "midi": 82,
          "name": "A#5",
          "ticks": 122880,
          "time": 139.636224,
          "velocity": 0.7637795275590551
        },
        {
          "duration": 0.21818159999997988,
          "durationTicks": 192,
          "midi": 70,
          "name": "A#4",
          "ticks": 122880,
          "time": 139.636224,
          "velocity": 0.7637795275590551
        },
        {
          "duration": 0.21818159999997988,
          "durationTicks": 192,
          "midi": 79,
          "name": "G5",
          "ticks": 123120,
          "time": 139.908951,
          "velocity": 0.9212598425196851
        },
        {
          "duration": 0.21818159999997988,
          "durationTicks": 192,
          "midi": 67,
          "name": "G4",
          "ticks": 123120,
          "time": 139.908951,
          "velocity": 0.9212598425196851
        },
        {
          "duration": 0.21818159999997988,
          "durationTicks": 192,
          "midi": 82,
          "name": "A#5",
          "ticks": 123360,
          "time": 140.181678,
          "velocity": 0.8188976377952756
        },
        {
          "duration": 0.21818159999997988,
          "durationTicks": 192,
          "midi": 70,
          "name": "A#4",
          "ticks": 123360,
          "time": 140.181678,
          "velocity": 0.8188976377952756
        },
        {
          "duration": 0.6909083999999837,
          "durationTicks": 608,
          "midi": 87,
          "name": "D#6",
          "ticks": 123600,
          "time": 140.454405,
          "velocity": 0.8740157480314961
        },
        {
          "duration": 0.6909083999999837,
          "durationTicks": 608,
          "midi": 75,
          "name": "D#5",
          "ticks": 123600,
          "time": 140.454405,
          "velocity": 0.8740157480314961
        },
        {
          "duration": 0.4181814000000088,
          "durationTicks": 368,
          "midi": 86,
          "name": "D6",
          "ticks": 124320,
          "time": 141.272586,
          "velocity": 0.8661417322834646
        },
        {
          "duration": 0.4181814000000088,
          "durationTicks": 368,
          "midi": 74,
          "name": "D5",
          "ticks": 124320,
          "time": 141.272586,
          "velocity": 0.8661417322834646
        },
        {
          "duration": 2.0454525000000103,
          "durationTicks": 1800,
          "midi": 82,
          "name": "A#5",
          "ticks": 124800,
          "time": 141.81804,
          "velocity": 0.8818897637795275
        },
        {
          "duration": 2.0454525000000103,
          "durationTicks": 1800,
          "midi": 70,
          "name": "A#4",
          "ticks": 124800,
          "time": 141.81804,
          "velocity": 0.8818897637795275
        },
        {
          "duration": 0.681817499999994,
          "durationTicks": 600,
          "midi": 89,
          "name": "F6",
          "ticks": 126720,
          "time": 143.999856,
          "velocity": 0.84251968503937
        },
        {
          "duration": 0.681817499999994,
          "durationTicks": 600,
          "midi": 77,
          "name": "F5",
          "ticks": 126720,
          "time": 143.999856,
          "velocity": 0.84251968503937
        },
        {
          "duration": 0.681817499999994,
          "durationTicks": 600,
          "midi": 91,
          "name": "G6",
          "ticks": 127440,
          "time": 144.818037,
          "velocity": 0.9291338582677166
        },
        {
          "duration": 0.681817499999994,
          "durationTicks": 600,
          "midi": 79,
          "name": "G5",
          "ticks": 127440,
          "time": 144.818037,
          "velocity": 0.9291338582677166
        },
        {
          "duration": 0.2181816000000083,
          "durationTicks": 192,
          "midi": 86,
          "name": "D6",
          "ticks": 128160,
          "time": 145.63621799999999,
          "velocity": 0.9133858267716536
        },
        {
          "duration": 0.2181816000000083,
          "durationTicks": 192,
          "midi": 74,
          "name": "D5",
          "ticks": 128160,
          "time": 145.63621799999999,
          "velocity": 0.9133858267716536
        },
        {
          "duration": 0.2181816000000083,
          "durationTicks": 192,
          "midi": 84,
          "name": "C6",
          "ticks": 128400,
          "time": 145.908945,
          "velocity": 0.8661417322834646
        },
        {
          "duration": 0.2181816000000083,
          "durationTicks": 192,
          "midi": 72,
          "name": "C5",
          "ticks": 128400,
          "time": 145.908945,
          "velocity": 0.8661417322834646
        },
        {
          "duration": 0.2181816000000083,
          "durationTicks": 192,
          "midi": 82,
          "name": "A#5",
          "ticks": 128640,
          "time": 146.181672,
          "velocity": 0.889763779527559
        },
        {
          "duration": 0.2181816000000083,
          "durationTicks": 192,
          "midi": 70,
          "name": "A#4",
          "ticks": 128640,
          "time": 146.181672,
          "velocity": 0.889763779527559
        },
        {
          "duration": 0.21818159999997988,
          "durationTicks": 192,
          "midi": 79,
          "name": "G5",
          "ticks": 128880,
          "time": 146.454399,
          "velocity": 0.9212598425196851
        },
        {
          "duration": 0.21818159999997988,
          "durationTicks": 192,
          "midi": 67,
          "name": "G4",
          "ticks": 128880,
          "time": 146.454399,
          "velocity": 0.9212598425196851
        },
        {
          "duration": 0.21818159999997988,
          "durationTicks": 192,
          "midi": 82,
          "name": "A#5",
          "ticks": 129120,
          "time": 146.727126,
          "velocity": 0.8503937007874016
        },
        {
          "duration": 0.21818159999997988,
          "durationTicks": 192,
          "midi": 70,
          "name": "A#4",
          "ticks": 129120,
          "time": 146.727126,
          "velocity": 0.8503937007874016
        },
        {
          "duration": 0.681817499999994,
          "durationTicks": 600,
          "midi": 86,
          "name": "D6",
          "ticks": 129360,
          "time": 146.999853,
          "velocity": 0.84251968503937
        },
        {
          "duration": 0.681817499999994,
          "durationTicks": 600,
          "midi": 74,
          "name": "D5",
          "ticks": 129360,
          "time": 146.999853,
          "velocity": 0.84251968503937
        },
        {
          "duration": 0.4090904999999907,
          "durationTicks": 360,
          "midi": 84,
          "name": "C6",
          "ticks": 130080,
          "time": 147.818034,
          "velocity": 0.84251968503937
        },
        {
          "duration": 0.4090904999999907,
          "durationTicks": 360,
          "midi": 72,
          "name": "C5",
          "ticks": 130080,
          "time": 147.818034,
          "velocity": 0.84251968503937
        },
        {
          "duration": 0.2181816000000083,
          "durationTicks": 192,
          "midi": 82,
          "name": "A#5",
          "ticks": 130560,
          "time": 148.363488,
          "velocity": 0.9448818897637795
        },
        {
          "duration": 0.2181816000000083,
          "durationTicks": 192,
          "midi": 70,
          "name": "A#4",
          "ticks": 130560,
          "time": 148.363488,
          "velocity": 0.9448818897637795
        },
        {
          "duration": 0.21818159999997988,
          "durationTicks": 192,
          "midi": 79,
          "name": "G5",
          "ticks": 130800,
          "time": 148.636215,
          "velocity": 0.8267716535433071
        },
        {
          "duration": 0.21818159999997988,
          "durationTicks": 192,
          "midi": 67,
          "name": "G4",
          "ticks": 130800,
          "time": 148.636215,
          "velocity": 0.8267716535433071
        },
        {
          "duration": 0.21818159999997988,
          "durationTicks": 192,
          "midi": 82,
          "name": "A#5",
          "ticks": 131040,
          "time": 148.908942,
          "velocity": 0.952755905511811
        },
        {
          "duration": 0.21818159999997988,
          "durationTicks": 192,
          "midi": 70,
          "name": "A#4",
          "ticks": 131040,
          "time": 148.908942,
          "velocity": 0.952755905511811
        },
        {
          "duration": 0.681817499999994,
          "durationTicks": 600,
          "midi": 87,
          "name": "D#6",
          "ticks": 131280,
          "time": 149.181669,
          "velocity": 0.9291338582677166
        },
        {
          "duration": 0.681817499999994,
          "durationTicks": 600,
          "midi": 75,
          "name": "D#5",
          "ticks": 131280,
          "time": 149.181669,
          "velocity": 0.9291338582677166
        },
        {
          "duration": 0.4090904999999907,
          "durationTicks": 360,
          "midi": 86,
          "name": "D6",
          "ticks": 132000,
          "time": 149.99985,
          "velocity": 0.7795275590551181
        },
        {
          "duration": 0.4090904999999907,
          "durationTicks": 360,
          "midi": 74,
          "name": "D5",
          "ticks": 132000,
          "time": 149.99985,
          "velocity": 0.7795275590551181
        },
        {
          "duration": 2.0454525000000103,
          "durationTicks": 1800,
          "midi": 82,
          "name": "A#5",
          "ticks": 132480,
          "time": 150.545304,
          "velocity": 0.9291338582677166
        },
        {
          "duration": 2.0454525000000103,
          "durationTicks": 1800,
          "midi": 70,
          "name": "A#4",
          "ticks": 132480,
          "time": 150.545304,
          "velocity": 0.9291338582677166
        },
        {
          "duration": 0.6818175000000224,
          "durationTicks": 600,
          "midi": 89,
          "name": "F6",
          "ticks": 134400,
          "time": 152.72711999999999,
          "velocity": 0.7716535433070866
        },
        {
          "duration": 0.6818175000000224,
          "durationTicks": 600,
          "midi": 77,
          "name": "F5",
          "ticks": 134400,
          "time": 152.72711999999999,
          "velocity": 0.7716535433070866
        },
        {
          "duration": 0.681817499999994,
          "durationTicks": 600,
          "midi": 91,
          "name": "G6",
          "ticks": 135120,
          "time": 153.545301,
          "velocity": 0.8503937007874016
        },
        {
          "duration": 0.681817499999994,
          "durationTicks": 600,
          "midi": 79,
          "name": "G5",
          "ticks": 135120,
          "time": 153.545301,
          "velocity": 0.8503937007874016
        },
        {
          "duration": 0.21818159999997988,
          "durationTicks": 192,
          "midi": 86,
          "name": "D6",
          "ticks": 135840,
          "time": 154.363482,
          "velocity": 0.7874015748031497
        },
        {
          "duration": 0.21818159999997988,
          "durationTicks": 192,
          "midi": 74,
          "name": "D5",
          "ticks": 135840,
          "time": 154.363482,
          "velocity": 0.7874015748031497
        },
        {
          "duration": 0.21818159999997988,
          "durationTicks": 192,
          "midi": 84,
          "name": "C6",
          "ticks": 136080,
          "time": 154.636209,
          "velocity": 0.7952755905511811
        },
        {
          "duration": 0.21818159999997988,
          "durationTicks": 192,
          "midi": 72,
          "name": "C5",
          "ticks": 136080,
          "time": 154.636209,
          "velocity": 0.7952755905511811
        },
        {
          "duration": 0.21818159999997988,
          "durationTicks": 192,
          "midi": 82,
          "name": "A#5",
          "ticks": 136320,
          "time": 154.908936,
          "velocity": 0.8188976377952756
        },
        {
          "duration": 0.21818159999997988,
          "durationTicks": 192,
          "midi": 70,
          "name": "A#4",
          "ticks": 136320,
          "time": 154.908936,
          "velocity": 0.8188976377952756
        },
        {
          "duration": 0.2181816000000083,
          "durationTicks": 192,
          "midi": 79,
          "name": "G5",
          "ticks": 136560,
          "time": 155.181663,
          "velocity": 0.8818897637795275
        },
        {
          "duration": 0.2181816000000083,
          "durationTicks": 192,
          "midi": 67,
          "name": "G4",
          "ticks": 136560,
          "time": 155.181663,
          "velocity": 0.8818897637795275
        },
        {
          "duration": 0.2181816000000083,
          "durationTicks": 192,
          "midi": 82,
          "name": "A#5",
          "ticks": 136800,
          "time": 155.45439,
          "velocity": 0.8661417322834646
        },
        {
          "duration": 0.2181816000000083,
          "durationTicks": 192,
          "midi": 70,
          "name": "A#4",
          "ticks": 136800,
          "time": 155.45439,
          "velocity": 0.8661417322834646
        },
        {
          "duration": 0.681817499999994,
          "durationTicks": 600,
          "midi": 86,
          "name": "D6",
          "ticks": 137040,
          "time": 155.727117,
          "velocity": 0.7637795275590551
        },
        {
          "duration": 0.681817499999994,
          "durationTicks": 600,
          "midi": 74,
          "name": "D5",
          "ticks": 137040,
          "time": 155.727117,
          "velocity": 0.7637795275590551
        },
        {
          "duration": 0.4090904999999907,
          "durationTicks": 360,
          "midi": 84,
          "name": "C6",
          "ticks": 137760,
          "time": 156.545298,
          "velocity": 0.8267716535433071
        },
        {
          "duration": 0.4090904999999907,
          "durationTicks": 360,
          "midi": 72,
          "name": "C5",
          "ticks": 137760,
          "time": 156.545298,
          "velocity": 0.8267716535433071
        },
        {
          "duration": 0.21818159999997988,
          "durationTicks": 192,
          "midi": 82,
          "name": "A#5",
          "ticks": 138240,
          "time": 157.090752,
          "velocity": 0.9212598425196851
        },
        {
          "duration": 0.21818159999997988,
          "durationTicks": 192,
          "midi": 70,
          "name": "A#4",
          "ticks": 138240,
          "time": 157.090752,
          "velocity": 0.9212598425196851
        },
        {
          "duration": 0.21818159999997988,
          "durationTicks": 192,
          "midi": 79,
          "name": "G5",
          "ticks": 138480,
          "time": 157.363479,
          "velocity": 0.9133858267716536
        },
        {
          "duration": 0.21818159999997988,
          "durationTicks": 192,
          "midi": 67,
          "name": "G4",
          "ticks": 138480,
          "time": 157.363479,
          "velocity": 0.9133858267716536
        },
        {
          "duration": 0.2181816000000083,
          "durationTicks": 192,
          "midi": 82,
          "name": "A#5",
          "ticks": 138720,
          "time": 157.636206,
          "velocity": 0.8267716535433071
        },
        {
          "duration": 0.2181816000000083,
          "durationTicks": 192,
          "midi": 70,
          "name": "A#4",
          "ticks": 138720,
          "time": 157.636206,
          "velocity": 0.8267716535433071
        },
        {
          "duration": 0.681817499999994,
          "durationTicks": 600,
          "midi": 87,
          "name": "D#6",
          "ticks": 138960,
          "time": 157.908933,
          "velocity": 0.8031496062992126
        },
        {
          "duration": 0.681817499999994,
          "durationTicks": 600,
          "midi": 75,
          "name": "D#5",
          "ticks": 138960,
          "time": 157.908933,
          "velocity": 0.8031496062992126
        },
        {
          "duration": 0.4090904999999907,
          "durationTicks": 360,
          "midi": 86,
          "name": "D6",
          "ticks": 139680,
          "time": 158.727114,
          "velocity": 0.7874015748031497
        },
        {
          "duration": 0.4090904999999907,
          "durationTicks": 360,
          "midi": 74,
          "name": "D5",
          "ticks": 139680,
          "time": 158.727114,
          "velocity": 0.7874015748031497
        },
        {
          "duration": 2.045452499999982,
          "durationTicks": 1800,
          "midi": 82,
          "name": "A#5",
          "ticks": 140160,
          "time": 159.272568,
          "velocity": 0.8976377952755905
        },
        {
          "duration": 2.045452499999982,
          "durationTicks": 1800,
          "midi": 70,
          "name": "A#4",
          "ticks": 140160,
          "time": 159.272568,
          "velocity": 0.8976377952755905
        }
      ]
    },
    {
      "channel": 0,
      "controlChanges": {
        "7": [
          {
            "number": 7,
            "ticks": 0,
            "time": 0,
            "value": 0.8582677165354331
          }
        ],
        "10": [
          {
            "number": 10,
            "ticks": 0,
            "time": 0,
            "value": 0.007874015748031496
          }
        ],
        "32": [
          {
            "number": 32,
            "ticks": 0,
            "time": 0,
            "value": 0
          }
        ],
        "91": [
          {
            "number": 91,
            "ticks": 0,
            "time": 0,
            "value": 0.6614173228346457
          }
        ]
      },
      "pitchBends": [],
      "instrument": {
        "family": "piano",
        "number": 0,
        "name": "acoustic grand piano"
      },
      "name": "Guitar (Muted)",
      "notes": [],
      "endOfTrackTicks": 142032
    },
    {
      "channel": 4,
      "controlChanges": {
        "7": [
          {
            "number": 7,
            "ticks": 134400,
            "time": 152.72711999999999,
            "value": 0.8503937007874016
          },
          {
            "number": 7,
            "ticks": 134640,
            "time": 152.999847,
            "value": 0.8188976377952756
          },
          {
            "number": 7,
            "ticks": 134880,
            "time": 153.272574,
            "value": 0.7952755905511811
          },
          {
            "number": 7,
            "ticks": 135120,
            "time": 153.545301,
            "value": 0.7637795275590551
          },
          {
            "number": 7,
            "ticks": 135360,
            "time": 153.818028,
            "value": 0.7401574803149606
          },
          {
            "number": 7,
            "ticks": 135600,
            "time": 154.090755,
            "value": 0.7165354330708661
          },
          {
            "number": 7,
            "ticks": 135840,
            "time": 154.363482,
            "value": 0.6850393700787402
          },
          {
            "number": 7,
            "ticks": 136080,
            "time": 154.636209,
            "value": 0.6614173228346457
          },
          {
            "number": 7,
            "ticks": 136320,
            "time": 154.908936,
            "value": 0.6299212598425197
          },
          {
            "number": 7,
            "ticks": 136560,
            "time": 155.181663,
            "value": 0.6062992125984252
          },
          {
            "number": 7,
            "ticks": 136800,
            "time": 155.45439,
            "value": 0.5826771653543307
          },
          {
            "number": 7,
            "ticks": 137040,
            "time": 155.727117,
            "value": 0.5511811023622047
          },
          {
            "number": 7,
            "ticks": 137280,
            "time": 155.999844,
            "value": 0.5275590551181102
          },
          {
            "number": 7,
            "ticks": 137520,
            "time": 156.272571,
            "value": 0.5039370078740157
          },
          {
            "number": 7,
            "ticks": 137760,
            "time": 156.545298,
            "value": 0.47244094488188976
          },
          {
            "number": 7,
            "ticks": 138000,
            "time": 156.818025,
            "value": 0.44881889763779526
          },
          {
            "number": 7,
            "ticks": 138240,
            "time": 157.090752,
            "value": 0.41732283464566927
          },
          {
            "number": 7,
            "ticks": 138480,
            "time": 157.363479,
            "value": 0.3937007874015748
          },
          {
            "number": 7,
            "ticks": 138720,
            "time": 157.636206,
            "value": 0.3700787401574803
          },
          {
            "number": 7,
            "ticks": 138960,
            "time": 157.908933,
            "value": 0.33858267716535434
          },
          {
            "number": 7,
            "ticks": 139200,
            "time": 158.18166,
            "value": 0.31496062992125984
          },
          {
            "number": 7,
            "ticks": 139440,
            "time": 158.454387,
            "value": 0.29133858267716534
          },
          {
            "number": 7,
            "ticks": 139680,
            "time": 158.727114,
            "value": 0.25984251968503935
          },
          {
            "number": 7,
            "ticks": 139920,
            "time": 158.999841,
            "value": 0.23622047244094488
          },
          {
            "number": 7,
            "ticks": 140160,
            "time": 159.272568,
            "value": 0.2047244094488189
          },
          {
            "number": 7,
            "ticks": 140400,
            "time": 159.545295,
            "value": 0.18110236220472442
          },
          {
            "number": 7,
            "ticks": 140640,
            "time": 159.81802199999998,
            "value": 0.15748031496062992
          },
          {
            "number": 7,
            "ticks": 140880,
            "time": 160.090749,
            "value": 0.12598425196850394
          },
          {
            "number": 7,
            "ticks": 141120,
            "time": 160.363476,
            "value": 0.10236220472440945
          },
          {
            "number": 7,
            "ticks": 141360,
            "time": 160.636203,
            "value": 0.07874015748031496
          },
          {
            "number": 7,
            "ticks": 141600,
            "time": 160.90893,
            "value": 0.047244094488188976
          },
          {
            "number": 7,
            "ticks": 141840,
            "time": 161.181657,
            "value": 0.023622047244094488
          }
        ],
        "123": [
          {
            "number": 123,
            "ticks": 0,
            "time": 0,
            "value": 0
          }
        ]
      },
      "pitchBends": [],
      "instrument": {
        "family": "guitar",
        "number": 28,
        "name": "electric guitar (muted)"
      },
      "name": "",
      "notes": [
        {
          "duration": 0.21818159999999942,
          "durationTicks": 192,
          "midi": 33,
          "name": "A1",
          "ticks": 9600,
          "time": 10.90908,
          "velocity": 0.7874015748031497
        },
        {
          "duration": 0.1090908000000006,
          "durationTicks": 96,
          "midi": 33,
          "name": "A1",
          "ticks": 9840,
          "time": 11.181807,
          "velocity": 0.7716535433070866
        },
        {
          "duration": 0.1090908000000006,
          "durationTicks": 96,
          "midi": 33,
          "name": "A1",
          "ticks": 9960,
          "time": 11.318170499999999,
          "velocity": 0.8582677165354331
        },
        {
          "duration": 0.21818159999999764,
          "durationTicks": 192,
          "midi": 33,
          "name": "A1",
          "ticks": 10080,
          "time": 11.454534,
          "velocity": 0.7795275590551181
        },
        {
          "duration": 0.21818159999999942,
          "durationTicks": 192,
          "midi": 33,
          "name": "A1",
          "ticks": 10320,
          "time": 11.727261,
          "velocity": 0.8267716535433071
        },
        {
          "duration": 0.21818159999999942,
          "durationTicks": 192,
          "midi": 33,
          "name": "A1",
          "ticks": 10560,
          "time": 11.999988,
          "velocity": 0.8582677165354331
        },
        {
          "duration": 0.21818159999999942,
          "durationTicks": 192,
          "midi": 33,
          "name": "A1",
          "ticks": 10800,
          "time": 12.272715,
          "velocity": 0.7795275590551181
        },
        {
          "duration": 0.21818159999999942,
          "durationTicks": 192,
          "midi": 33,
          "name": "A1",
          "ticks": 11040,
          "time": 12.545442,
          "velocity": 0.84251968503937
        },
        {
          "duration": 0.21818159999999942,
          "durationTicks": 192,
          "midi": 33,
          "name": "A1",
          "ticks": 11280,
          "time": 12.818169,
          "velocity": 0.7716535433070866
        },
        {
          "duration": 0.21818159999999764,
          "durationTicks": 192,
          "midi": 33,
          "name": "A1",
          "ticks": 11520,
          "time": 13.090896,
          "velocity": 0.8582677165354331
        },
        {
          "duration": 0.10909079999999882,
          "durationTicks": 96,
          "midi": 33,
          "name": "A1",
          "ticks": 11760,
          "time": 13.363623,
          "velocity": 0.8346456692913385
        },
        {
          "duration": 0.10909079999999882,
          "durationTicks": 96,
          "midi": 33,
          "name": "A1",
          "ticks": 11880,
          "time": 13.4999865,
          "velocity": 0.84251968503937
        },
        {
          "duration": 0.21818159999999942,
          "durationTicks": 192,
          "midi": 33,
          "name": "A1",
          "ticks": 12000,
          "time": 13.63635,
          "velocity": 0.8031496062992126
        },
        {
          "duration": 0.21818159999999942,
          "durationTicks": 192,
          "midi": 33,
          "name": "A1",
          "ticks": 12240,
          "time": 13.909077,
          "velocity": 0.8267716535433071
        },
        {
          "duration": 0.21818159999999942,
          "durationTicks": 192,
          "midi": 33,
          "name": "A1",
          "ticks": 12480,
          "time": 14.181804,
          "velocity": 0.8110236220472441
        },
        {
          "duration": 0.21818159999999942,
          "durationTicks": 192,
          "midi": 33,
          "name": "A1",
          "ticks": 12720,
          "time": 14.454531,
          "velocity": 0.7874015748031497
        },
        {
          "duration": 0.21818159999999942,
          "durationTicks": 192,
          "midi": 33,
          "name": "A1",
          "ticks": 12960,
          "time": 14.727257999999999,
          "velocity": 0.8031496062992126
        },
        {
          "duration": 0.21818159999999764,
          "durationTicks": 192,
          "midi": 33,
          "name": "A1",
          "ticks": 13200,
          "time": 14.999985,
          "velocity": 0.8110236220472441
        },
        {
          "duration": 0.21818159999999942,
          "durationTicks": 192,
          "midi": 33,
          "name": "A1",
          "ticks": 13440,
          "time": 15.272712,
          "velocity": 0.7952755905511811
        },
        {
          "duration": 0.21818159999999942,
          "durationTicks": 192,
          "midi": 33,
          "name": "A1",
          "ticks": 13680,
          "time": 15.545439,
          "velocity": 0.8031496062992126
        },
        {
          "duration": 0.21818159999999942,
          "durationTicks": 192,
          "midi": 33,
          "name": "A1",
          "ticks": 13920,
          "time": 15.818166,
          "velocity": 0.7716535433070866
        },
        {
          "duration": 0.21818159999999764,
          "durationTicks": 192,
          "midi": 33,
          "name": "A1",
          "ticks": 14160,
          "time": 16.090893,
          "velocity": 0.8110236220472441
        },
        {
          "duration": 0.21818159999999764,
          "durationTicks": 192,
          "midi": 33,
          "name": "A1",
          "ticks": 14400,
          "time": 16.36362,
          "velocity": 0.8267716535433071
        },
        {
          "duration": 0.21818159999999764,
          "durationTicks": 192,
          "midi": 33,
          "name": "A1",
          "ticks": 14640,
          "time": 16.636347,
          "velocity": 0.8267716535433071
        },
        {
          "duration": 0.21818159999999764,
          "durationTicks": 192,
          "midi": 33,
          "name": "A1",
          "ticks": 14880,
          "time": 16.909074,
          "velocity": 0.7874015748031497
        },
        {
          "duration": 0.1090908000000006,
          "durationTicks": 96,
          "midi": 33,
          "name": "A1",
          "ticks": 15120,
          "time": 17.181801,
          "velocity": 0.8267716535433071
        },
        {
          "duration": 0.1090908000000006,
          "durationTicks": 96,
          "midi": 33,
          "name": "A1",
          "ticks": 15240,
          "time": 17.318164499999998,
          "velocity": 0.8346456692913385
        },
        {
          "duration": 0.21818159999999764,
          "durationTicks": 192,
          "midi": 30,
          "name": "F#1",
          "ticks": 15360,
          "time": 17.454528,
          "velocity": 0.8031496062992126
        },
        {
          "duration": 0.2181816000000012,
          "durationTicks": 192,
          "midi": 30,
          "name": "F#1",
          "ticks": 15600,
          "time": 17.727255,
          "velocity": 0.8503937007874016
        },
        {
          "duration": 0.2181816000000012,
          "durationTicks": 192,
          "midi": 30,
          "name": "F#1",
          "ticks": 15840,
          "time": 17.999982,
          "velocity": 0.8031496062992126
        },
        {
          "duration": 0.2181816000000012,
          "durationTicks": 192,
          "midi": 30,
          "name": "F#1",
          "ticks": 16080,
          "time": 18.272709,
          "velocity": 0.7401574803149606
        },
        {
          "duration": 0.2181816000000012,
          "durationTicks": 192,
          "midi": 30,
          "name": "F#1",
          "ticks": 16320,
          "time": 18.545436,
          "velocity": 0.8582677165354331
        },
        {
          "duration": 0.2181816000000012,
          "durationTicks": 192,
          "midi": 30,
          "name": "F#1",
          "ticks": 16560,
          "time": 18.818163,
          "velocity": 0.7952755905511811
        },
        {
          "duration": 0.2181816000000012,
          "durationTicks": 192,
          "midi": 30,
          "name": "F#1",
          "ticks": 16800,
          "time": 19.090889999999998,
          "velocity": 0.8582677165354331
        },
        {
          "duration": 0.21818159999999764,
          "durationTicks": 192,
          "midi": 30,
          "name": "F#1",
          "ticks": 17040,
          "time": 19.363617,
          "velocity": 0.84251968503937
        },
        {
          "duration": 0.21818159999999764,
          "durationTicks": 192,
          "midi": 38,
          "name": "D2",
          "ticks": 17280,
          "time": 19.636344,
          "velocity": 0.7952755905511811
        },
        {
          "duration": 0.21818159999999764,
          "durationTicks": 192,
          "midi": 38,
          "name": "D2",
          "ticks": 17520,
          "time": 19.909071,
          "velocity": 0.8582677165354331
        },
        {
          "duration": 0.21818159999999764,
          "durationTicks": 192,
          "midi": 38,
          "name": "D2",
          "ticks": 17760,
          "time": 20.181798,
          "velocity": 0.8582677165354331
        },
        {
          "duration": 0.1090908000000006,
          "durationTicks": 96,
          "midi": 38,
          "name": "D2",
          "ticks": 18000,
          "time": 20.454525,
          "velocity": 0.8110236220472441
        },
        {
          "duration": 0.21818159999999764,
          "durationTicks": 192,
          "midi": 38,
          "name": "D2",
          "ticks": 18240,
          "time": 20.727252,
          "velocity": 0.8582677165354331
        },
        {
          "duration": 0.21818159999999764,
          "durationTicks": 192,
          "midi": 38,
          "name": "D2",
          "ticks": 18480,
          "time": 20.999979,
          "velocity": 0.8267716535433071
        },
        {
          "duration": 0.2181816000000012,
          "durationTicks": 192,
          "midi": 38,
          "name": "D2",
          "ticks": 18720,
          "time": 21.272706,
          "velocity": 0.8031496062992126
        },
        {
          "duration": 0.1090908000000006,
          "durationTicks": 96,
          "midi": 33,
          "name": "A1",
          "ticks": 18960,
          "time": 21.545433,
          "velocity": 0.8267716535433071
        },
        {
          "duration": 0.1090908000000006,
          "durationTicks": 96,
          "midi": 33,
          "name": "A1",
          "ticks": 19080,
          "time": 21.6817965,
          "velocity": 0.8031496062992126
        },
        {
          "duration": 0.2181816000000012,
          "durationTicks": 192,
          "midi": 38,
          "name": "D2",
          "ticks": 19200,
          "time": 21.81816,
          "velocity": 0.8188976377952756
        },
        {
          "duration": 0.2181816000000012,
          "durationTicks": 192,
          "midi": 38,
          "name": "D2",
          "ticks": 19440,
          "time": 22.090887,
          "velocity": 0.7874015748031497
        },
        {
          "duration": 0.2181816000000012,
          "durationTicks": 192,
          "midi": 38,
          "name": "D2",
          "ticks": 19680,
          "time": 22.363614,
          "velocity": 0.8503937007874016
        },
        {
          "duration": 0.10909080000000415,
          "durationTicks": 96,
          "midi": 38,
          "name": "D2",
          "ticks": 19920,
          "time": 22.636340999999998,
          "velocity": 0.8031496062992126
        },
        {
          "duration": 0.21818159999999764,
          "durationTicks": 192,
          "midi": 38,
          "name": "D2",
          "ticks": 20160,
          "time": 22.909068,
          "velocity": 0.8503937007874016
        },
        {
          "duration": 0.21818159999999764,
          "durationTicks": 192,
          "midi": 33,
          "name": "A1",
          "ticks": 20400,
          "time": 23.181795,
          "velocity": 0.7401574803149606
        },
        {
          "duration": 0.21818159999999764,
          "durationTicks": 192,
          "midi": 38,
          "name": "D2",
          "ticks": 20640,
          "time": 23.454522,
          "velocity": 0.8031496062992126
        },
        {
          "duration": 0.21818159999999764,
          "durationTicks": 192,
          "midi": 38,
          "name": "D2",
          "ticks": 20880,
          "time": 23.727249,
          "velocity": 0.8188976377952756
        },
        {
          "duration": 0.21818159999999764,
          "durationTicks": 192,
          "midi": 33,
          "name": "A1",
          "ticks": 21120,
          "time": 23.999976,
          "velocity": 0.7165354330708661
        },
        {
          "duration": 0.21818159999999764,
          "durationTicks": 192,
          "midi": 33,
          "name": "A1",
          "ticks": 21360,
          "time": 24.272703,
          "velocity": 0.7401574803149606
        },
        {
          "duration": 0.21818159999999764,
          "durationTicks": 192,
          "midi": 33,
          "name": "A1",
          "ticks": 21600,
          "time": 24.54543,
          "velocity": 0.8031496062992126
        },
        {
          "duration": 0.1090908000000006,
          "durationTicks": 96,
          "midi": 33,
          "name": "A1",
          "ticks": 21840,
          "time": 24.818157,
          "velocity": 0.7952755905511811
        },
        {
          "duration": 0.1090908000000006,
          "durationTicks": 96,
          "midi": 33,
          "name": "A1",
          "ticks": 21960,
          "time": 24.9545205,
          "velocity": 0.8267716535433071
        },
        {
          "duration": 0.2181816000000012,
          "durationTicks": 192,
          "midi": 37,
          "name": "C#2",
          "ticks": 22080,
          "time": 25.090884,
          "velocity": 0.8503937007874016
        },
        {
          "duration": 0.2181816000000012,
          "durationTicks": 192,
          "midi": 37,
          "name": "C#2",
          "ticks": 22320,
          "time": 25.363611,
          "velocity": 0.7637795275590551
        },
        {
          "duration": 0.2181816000000012,
          "durationTicks": 192,
          "midi": 37,
          "name": "C#2",
          "ticks": 22560,
          "time": 25.636338,
          "velocity": 0.8110236220472441
        },
        {
          "duration": 0.10909080000000415,
          "durationTicks": 96,
          "midi": 37,
          "name": "C#2",
          "ticks": 22800,
          "time": 25.909065,
          "velocity": 0.7716535433070866
        },
        {
          "duration": 0.1090908000000006,
          "durationTicks": 96,
          "midi": 37,
          "name": "C#2",
          "ticks": 22920,
          "time": 26.0454285,
          "velocity": 0.7952755905511811
        },
        {
          "duration": 0.21818159999999764,
          "durationTicks": 192,
          "midi": 42,
          "name": "F#2",
          "ticks": 23040,
          "time": 26.181792,
          "velocity": 0.8188976377952756
        },
        {
          "duration": 0.21818159999999764,
          "durationTicks": 192,
          "midi": 42,
          "name": "F#2",
          "ticks": 23280,
          "time": 26.454519,
          "velocity": 0.8582677165354331
        },
        {
          "duration": 0.21818159999999764,
          "durationTicks": 192,
          "midi": 42,
          "name": "F#2",
          "ticks": 23520,
          "time": 26.727246,
          "velocity": 0.84251968503937
        },
        {
          "duration": 0.1090908000000006,
          "durationTicks": 96,
          "midi": 42,
          "name": "F#2",
          "ticks": 23760,
          "time": 26.999973,
          "velocity": 0.84251968503937
        },
        {
          "duration": 0.10909080000000415,
          "durationTicks": 96,
          "midi": 42,
          "name": "F#2",
          "ticks": 23880,
          "time": 27.1363365,
          "velocity": 0.8346456692913385
        },
        {
          "duration": 0.21818159999999764,
          "durationTicks": 192,
          "midi": 33,
          "name": "A1",
          "ticks": 24000,
          "time": 27.2727,
          "velocity": 0.84251968503937
        },
        {
          "duration": 0.21818159999999764,
          "durationTicks": 192,
          "midi": 33,
          "name": "A1",
          "ticks": 24240,
          "time": 27.545427,
          "velocity": 0.7165354330708661
        },
        {
          "duration": 0.21818159999999764,
          "durationTicks": 192,
          "midi": 33,
          "name": "A1",
          "ticks": 24480,
          "time": 27.818154,
          "velocity": 0.8031496062992126
        },
        {
          "duration": 0.21818159999999764,
          "durationTicks": 192,
          "midi": 33,
          "name": "A1",
          "ticks": 24720,
          "time": 28.090881,
          "velocity": 0.7716535433070866
        },
        {
          "duration": 0.2181816000000012,
          "durationTicks": 192,
          "midi": 38,
          "name": "D2",
          "ticks": 24960,
          "time": 28.363608,
          "velocity": 0.7716535433070866
        },
        {
          "duration": 0.2181816000000012,
          "durationTicks": 192,
          "midi": 38,
          "name": "D2",
          "ticks": 25200,
          "time": 28.636335,
          "velocity": 0.8346456692913385
        },
        {
          "duration": 0.2181816000000012,
          "durationTicks": 192,
          "midi": 38,
          "name": "D2",
          "ticks": 25440,
          "time": 28.909062,
          "velocity": 0.7795275590551181
        },
        {
          "duration": 0.10909080000000415,
          "durationTicks": 96,
          "midi": 38,
          "name": "D2",
          "ticks": 25680,
          "time": 29.181789,
          "velocity": 0.8503937007874016
        },
        {
          "duration": 0.1090908000000006,
          "durationTicks": 96,
          "midi": 38,
          "name": "D2",
          "ticks": 25800,
          "time": 29.3181525,
          "velocity": 0.8267716535433071
        },
        {
          "duration": 0.2181816000000012,
          "durationTicks": 192,
          "midi": 38,
          "name": "D2",
          "ticks": 25920,
          "time": 29.454515999999998,
          "velocity": 0.8031496062992126
        },
        {
          "duration": 0.21818159999999764,
          "durationTicks": 192,
          "midi": 38,
          "name": "D2",
          "ticks": 26160,
          "time": 29.727243,
          "velocity": 0.7874015748031497
        },
        {
          "duration": 0.21818159999999764,
          "durationTicks": 192,
          "midi": 38,
          "name": "D2",
          "ticks": 26400,
          "time": 29.99997,
          "velocity": 0.8346456692913385
        },
        {
          "duration": 0.1090908000000006,
          "durationTicks": 96,
          "midi": 38,
          "name": "D2",
          "ticks": 26640,
          "time": 30.272697,
          "velocity": 0.8031496062992126
        },
        {
          "duration": 0.1090908000000006,
          "durationTicks": 96,
          "midi": 38,
          "name": "D2",
          "ticks": 26760,
          "time": 30.4090605,
          "velocity": 0.8188976377952756
        },
        {
          "duration": 0.21818159999999764,
          "durationTicks": 192,
          "midi": 40,
          "name": "E2",
          "ticks": 26880,
          "time": 30.545424,
          "velocity": 0.84251968503937
        },
        {
          "duration": 0.21818159999999764,
          "durationTicks": 192,
          "midi": 40,
          "name": "E2",
          "ticks": 27120,
          "time": 30.818151,
          "velocity": 0.8267716535433071
        },
        {
          "duration": 0.21818159999999764,
          "durationTicks": 192,
          "midi": 40,
          "name": "E2",
          "ticks": 27360,
          "time": 31.090878,
          "velocity": 0.7795275590551181
        },
        {
          "duration": 0.21818159999999764,
          "durationTicks": 192,
          "midi": 40,
          "name": "E2",
          "ticks": 27600,
          "time": 31.363605,
          "velocity": 0.8188976377952756
        },
        {
          "duration": 0.2181816000000012,
          "durationTicks": 192,
          "midi": 40,
          "name": "E2",
          "ticks": 27840,
          "time": 31.636332,
          "velocity": 0.8110236220472441
        },
        {
          "duration": 0.2181816000000012,
          "durationTicks": 192,
          "midi": 40,
          "name": "E2",
          "ticks": 28080,
          "time": 31.909059,
          "velocity": 0.7952755905511811
        },
        {
          "duration": 0.2181815999999941,
          "durationTicks": 192,
          "midi": 40,
          "name": "E2",
          "ticks": 28320,
          "time": 32.181786,
          "velocity": 0.7716535433070866
        },
        {
          "duration": 0.2181816000000012,
          "durationTicks": 192,
          "midi": 40,
          "name": "E2",
          "ticks": 28560,
          "time": 32.454513,
          "velocity": 0.8582677165354331
        },
        {
          "duration": 0.2181815999999941,
          "durationTicks": 192,
          "midi": 33,
          "name": "A1",
          "ticks": 28800,
          "time": 32.72724,
          "velocity": 0.8346456692913385
        },
        {
          "duration": 0.2181816000000012,
          "durationTicks": 192,
          "midi": 33,
          "name": "A1",
          "ticks": 29040,
          "time": 32.999967,
          "velocity": 0.7086614173228346
        },
        {
          "duration": 0.2181815999999941,
          "durationTicks": 192,
          "midi": 33,
          "name": "A1",
          "ticks": 29280,
          "time": 33.272694,
          "velocity": 0.7952755905511811
        },
        {
          "duration": 0.2181816000000012,
          "durationTicks": 192,
          "midi": 33,
          "name": "A1",
          "ticks": 29520,
          "time": 33.545421,
          "velocity": 0.8582677165354331
        },
        {
          "duration": 0.2181816000000012,
          "durationTicks": 192,
          "midi": 33,
          "name": "A1",
          "ticks": 29760,
          "time": 33.818148,
          "velocity": 0.8110236220472441
        },
        {
          "duration": 0.2181816000000012,
          "durationTicks": 192,
          "midi": 33,
          "name": "A1",
          "ticks": 30000,
          "time": 34.090875,
          "velocity": 0.8031496062992126
        },
        {
          "duration": 0.2181816000000012,
          "durationTicks": 192,
          "midi": 33,
          "name": "A1",
          "ticks": 30240,
          "time": 34.363602,
          "velocity": 0.8110236220472441
        },
        {
          "duration": 0.10909080000000415,
          "durationTicks": 96,
          "midi": 33,
          "name": "A1",
          "ticks": 30480,
          "time": 34.636328999999996,
          "velocity": 0.84251968503937
        },
        {
          "duration": 0.10909080000000415,
          "durationTicks": 96,
          "midi": 33,
          "name": "A1",
          "ticks": 30600,
          "time": 34.7726925,
          "velocity": 0.8582677165354331
        },
        {
          "duration": 0.2181816000000012,
          "durationTicks": 192,
          "midi": 30,
          "name": "F#1",
          "ticks": 30720,
          "time": 34.909056,
          "velocity": 0.8582677165354331
        },
        {
          "duration": 0.2181816000000012,
          "durationTicks": 192,
          "midi": 30,
          "name": "F#1",
          "ticks": 30960,
          "time": 35.181783,
          "velocity": 0.7874015748031497
        },
        {
          "duration": 0.2181816000000012,
          "durationTicks": 192,
          "midi": 30,
          "name": "F#1",
          "ticks": 31200,
          "time": 35.45451,
          "velocity": 0.8188976377952756
        },
        {
          "duration": 0.2181816000000012,
          "durationTicks": 192,
          "midi": 30,
          "name": "F#1",
          "ticks": 31440,
          "time": 35.727237,
          "velocity": 0.7795275590551181
        },
        {
          "duration": 0.2181816000000012,
          "durationTicks": 192,
          "midi": 30,
          "name": "F#1",
          "ticks": 31680,
          "time": 35.999964,
          "velocity": 0.7716535433070866
        },
        {
          "duration": 0.2181816000000012,
          "durationTicks": 192,
          "midi": 30,
          "name": "F#1",
          "ticks": 31920,
          "time": 36.272691,
          "velocity": 0.7716535433070866
        },
        {
          "duration": 0.2181816000000083,
          "durationTicks": 192,
          "midi": 30,
          "name": "F#1",
          "ticks": 32160,
          "time": 36.545418,
          "velocity": 0.7874015748031497
        },
        {
          "duration": 0.2181816000000012,
          "durationTicks": 192,
          "midi": 30,
          "name": "F#1",
          "ticks": 32400,
          "time": 36.818145,
          "velocity": 0.8031496062992126
        },
        {
          "duration": 0.2181816000000083,
          "durationTicks": 192,
          "midi": 38,
          "name": "D2",
          "ticks": 32640,
          "time": 37.090872,
          "velocity": 0.8110236220472441
        },
        {
          "duration": 0.2181816000000012,
          "durationTicks": 192,
          "midi": 38,
          "name": "D2",
          "ticks": 32880,
          "time": 37.363599,
          "velocity": 0.8267716535433071
        },
        {
          "duration": 0.2181816000000083,
          "durationTicks": 192,
          "midi": 38,
          "name": "D2",
          "ticks": 33120,
          "time": 37.636326,
          "velocity": 0.8582677165354331
        },
        {
          "duration": 0.10909080000000415,
          "durationTicks": 96,
          "midi": 38,
          "name": "D2",
          "ticks": 33360,
          "time": 37.909053,
          "velocity": 0.7795275590551181
        },
        {
          "duration": 0.2181816000000083,
          "durationTicks": 192,
          "midi": 38,
          "name": "D2",
          "ticks": 33600,
          "time": 38.181779999999996,
          "velocity": 0.84251968503937
        },
        {
          "duration": 0.2181816000000012,
          "durationTicks": 192,
          "midi": 38,
          "name": "D2",
          "ticks": 33840,
          "time": 38.454507,
          "velocity": 0.8346456692913385
        },
        {
          "duration": 0.2181816000000012,
          "durationTicks": 192,
          "midi": 38,
          "name": "D2",
          "ticks": 34080,
          "time": 38.727234,
          "velocity": 0.8110236220472441
        },
        {
          "duration": 0.10909080000000415,
          "durationTicks": 96,
          "midi": 33,
          "name": "A1",
          "ticks": 34320,
          "time": 38.999961,
          "velocity": 0.8031496062992126
        },
        {
          "duration": 0.10909079999999705,
          "durationTicks": 96,
          "midi": 33,
          "name": "A1",
          "ticks": 34440,
          "time": 39.1363245,
          "velocity": 0.84251968503937
        },
        {
          "duration": 0.2181816000000012,
          "durationTicks": 192,
          "midi": 38,
          "name": "D2",
          "ticks": 34560,
          "time": 39.272688,
          "velocity": 0.8267716535433071
        },
        {
          "duration": 0.2181816000000012,
          "durationTicks": 192,
          "midi": 38,
          "name": "D2",
          "ticks": 34800,
          "time": 39.545415,
          "velocity": 0.7874015748031497
        },
        {
          "duration": 0.2181816000000012,
          "durationTicks": 192,
          "midi": 38,
          "name": "D2",
          "ticks": 35040,
          "time": 39.818142,
          "velocity": 0.7952755905511811
        },
        {
          "duration": 0.10909080000000415,
          "durationTicks": 96,
          "midi": 38,
          "name": "D2",
          "ticks": 35280,
          "time": 40.090869,
          "velocity": 0.7952755905511811
        },
        {
          "duration": 0.2181816000000012,
          "durationTicks": 192,
          "midi": 38,
          "name": "D2",
          "ticks": 35520,
          "time": 40.363596,
          "velocity": 0.8503937007874016
        },
        {
          "duration": 0.2181816000000083,
          "durationTicks": 192,
          "midi": 33,
          "name": "A1",
          "ticks": 35760,
          "time": 40.636323,
          "velocity": 0.8031496062992126
        },
        {
          "duration": 0.2181816000000012,
          "durationTicks": 192,
          "midi": 38,
          "name": "D2",
          "ticks": 36000,
          "time": 40.90905,
          "velocity": 0.8031496062992126
        },
        {
          "duration": 0.2181816000000083,
          "durationTicks": 192,
          "midi": 38,
          "name": "D2",
          "ticks": 36240,
          "time": 41.181777,
          "velocity": 0.8110236220472441
        },
        {
          "duration": 0.2181816000000012,
          "durationTicks": 192,
          "midi": 33,
          "name": "A1",
          "ticks": 36480,
          "time": 41.454504,
          "velocity": 0.8503937007874016
        },
        {
          "duration": 0.2181816000000083,
          "durationTicks": 192,
          "midi": 33,
          "name": "A1",
          "ticks": 36720,
          "time": 41.727230999999996,
          "velocity": 0.8582677165354331
        },
        {
          "duration": 0.2181816000000012,
          "durationTicks": 192,
          "midi": 33,
          "name": "A1",
          "ticks": 36960,
          "time": 41.999958,
          "velocity": 0.7874015748031497
        },
        {
          "duration": 0.10909079999999705,
          "durationTicks": 96,
          "midi": 33,
          "name": "A1",
          "ticks": 37200,
          "time": 42.272685,
          "velocity": 0.7795275590551181
        },
        {
          "duration": 0.10909080000000415,
          "durationTicks": 96,
          "midi": 33,
          "name": "A1",
          "ticks": 37320,
          "time": 42.4090485,
          "velocity": 0.7716535433070866
        },
        {
          "duration": 0.2181816000000012,
          "durationTicks": 192,
          "midi": 37,
          "name": "C#2",
          "ticks": 37440,
          "time": 42.545412,
          "velocity": 0.8188976377952756
        },
        {
          "duration": 0.2181816000000012,
          "durationTicks": 192,
          "midi": 37,
          "name": "C#2",
          "ticks": 37680,
          "time": 42.818139,
          "velocity": 0.8582677165354331
        },
        {
          "duration": 0.2181816000000012,
          "durationTicks": 192,
          "midi": 37,
          "name": "C#2",
          "ticks": 37920,
          "time": 43.090866,
          "velocity": 0.8582677165354331
        },
        {
          "duration": 0.10909079999999705,
          "durationTicks": 96,
          "midi": 37,
          "name": "C#2",
          "ticks": 38160,
          "time": 43.363593,
          "velocity": 0.84251968503937
        },
        {
          "duration": 0.10909080000000415,
          "durationTicks": 96,
          "midi": 37,
          "name": "C#2",
          "ticks": 38280,
          "time": 43.499956499999996,
          "velocity": 0.84251968503937
        },
        {
          "duration": 0.2181816000000083,
          "durationTicks": 192,
          "midi": 42,
          "name": "F#2",
          "ticks": 38400,
          "time": 43.63632,
          "velocity": 0.7874015748031497
        },
        {
          "duration": 0.2181816000000012,
          "durationTicks": 192,
          "midi": 42,
          "name": "F#2",
          "ticks": 38640,
          "time": 43.909047,
          "velocity": 0.7952755905511811
        },
        {
          "duration": 0.2181816000000083,
          "durationTicks": 192,
          "midi": 42,
          "name": "F#2",
          "ticks": 38880,
          "time": 44.181774,
          "velocity": 0.8582677165354331
        },
        {
          "duration": 0.10909080000000415,
          "durationTicks": 96,
          "midi": 42,
          "name": "F#2",
          "ticks": 39120,
          "time": 44.454501,
          "velocity": 0.8188976377952756
        },
        {
          "duration": 0.10909079999999705,
          "durationTicks": 96,
          "midi": 42,
          "name": "F#2",
          "ticks": 39240,
          "time": 44.5908645,
          "velocity": 0.8582677165354331
        },
        {
          "duration": 0.2181816000000083,
          "durationTicks": 192,
          "midi": 33,
          "name": "A1",
          "ticks": 39360,
          "time": 44.727228,
          "velocity": 0.84251968503937
        },
        {
          "duration": 0.2181816000000012,
          "durationTicks": 192,
          "midi": 33,
          "name": "A1",
          "ticks": 39600,
          "time": 44.999955,
          "velocity": 0.7637795275590551
        },
        {
          "duration": 0.2181816000000083,
          "durationTicks": 192,
          "midi": 33,
          "name": "A1",
          "ticks": 39840,
          "time": 45.272681999999996,
          "velocity": 0.8031496062992126
        },
        {
          "duration": 0.2181816000000012,
          "durationTicks": 192,
          "midi": 33,
          "name": "A1",
          "ticks": 40080,
          "time": 45.545409,
          "velocity": 0.84251968503937
        },
        {
          "duration": 0.2181816000000012,
          "durationTicks": 192,
          "midi": 38,
          "name": "D2",
          "ticks": 40320,
          "time": 45.818136,
          "velocity": 0.8267716535433071
        },
        {
          "duration": 0.2181816000000012,
          "durationTicks": 192,
          "midi": 38,
          "name": "D2",
          "ticks": 40560,
          "time": 46.090863,
          "velocity": 0.8031496062992126
        },
        {
          "duration": 0.2181816000000012,
          "durationTicks": 192,
          "midi": 38,
          "name": "D2",
          "ticks": 40800,
          "time": 46.36359,
          "velocity": 0.8031496062992126
        },
        {
          "duration": 0.10909080000000415,
          "durationTicks": 96,
          "midi": 37,
          "name": "C#2",
          "ticks": 41040,
          "time": 46.636317,
          "velocity": 0.7401574803149606
        },
        {
          "duration": 0.10909080000000415,
          "durationTicks": 96,
          "midi": 37,
          "name": "C#2",
          "ticks": 41160,
          "time": 46.7726805,
          "velocity": 0.7795275590551181
        },
        {
          "duration": 0.2181816000000012,
          "durationTicks": 192,
          "midi": 35,
          "name": "B1",
          "ticks": 41280,
          "time": 46.909044,
          "velocity": 0.84251968503937
        },
        {
          "duration": 0.2181816000000083,
          "durationTicks": 192,
          "midi": 35,
          "name": "B1",
          "ticks": 41520,
          "time": 47.181771,
          "velocity": 0.8582677165354331
        },
        {
          "duration": 0.2181816000000012,
          "durationTicks": 192,
          "midi": 35,
          "name": "B1",
          "ticks": 41760,
          "time": 47.454498,
          "velocity": 0.8267716535433071
        },
        {
          "duration": 0.10909080000000415,
          "durationTicks": 96,
          "midi": 35,
          "name": "B1",
          "ticks": 42000,
          "time": 47.727225,
          "velocity": 0.8582677165354331
        },
        {
          "duration": 0.10909080000000415,
          "durationTicks": 96,
          "midi": 35,
          "name": "B1",
          "ticks": 42120,
          "time": 47.8635885,
          "velocity": 0.7401574803149606
        },
        {
          "duration": 0.2181816000000012,
          "durationTicks": 192,
          "midi": 40,
          "name": "E2",
          "ticks": 42240,
          "time": 47.999952,
          "velocity": 0.7874015748031497
        },
        {
          "duration": 0.2181816000000083,
          "durationTicks": 192,
          "midi": 40,
          "name": "E2",
          "ticks": 42480,
          "time": 48.272679,
          "velocity": 0.8267716535433071
        },
        {
          "duration": 0.2181816000000012,
          "durationTicks": 192,
          "midi": 40,
          "name": "E2",
          "ticks": 42720,
          "time": 48.545406,
          "velocity": 0.8267716535433071
        },
        {
          "duration": 0.10909080000000415,
          "durationTicks": 96,
          "midi": 40,
          "name": "E2",
          "ticks": 42960,
          "time": 48.818132999999996,
          "velocity": 0.8267716535433071
        },
        {
          "duration": 0.10909080000000415,
          "durationTicks": 96,
          "midi": 40,
          "name": "E2",
          "ticks": 43080,
          "time": 48.9544965,
          "velocity": 0.8582677165354331
        },
        {
          "duration": 0.2181816000000012,
          "durationTicks": 192,
          "midi": 40,
          "name": "E2",
          "ticks": 43200,
          "time": 49.09086,
          "velocity": 0.8267716535433071
        },
        {
          "duration": 0.2181816000000012,
          "durationTicks": 192,
          "midi": 40,
          "name": "E2",
          "ticks": 43440,
          "time": 49.363587,
          "velocity": 0.8031496062992126
        },
        {
          "duration": 0.2181816000000012,
          "durationTicks": 192,
          "midi": 40,
          "name": "E2",
          "ticks": 43680,
          "time": 49.636314,
          "velocity": 0.8188976377952756
        },
        {
          "duration": 0.2181816000000012,
          "durationTicks": 192,
          "midi": 40,
          "name": "E2",
          "ticks": 43920,
          "time": 49.909041,
          "velocity": 0.8503937007874016
        },
        {
          "duration": 0.2181816000000012,
          "durationTicks": 192,
          "midi": 33,
          "name": "A1",
          "ticks": 44160,
          "time": 50.181768,
          "velocity": 0.7874015748031497
        },
        {
          "duration": 0.2181816000000012,
          "durationTicks": 192,
          "midi": 33,
          "name": "A1",
          "ticks": 44400,
          "time": 50.454495,
          "velocity": 0.7795275590551181
        },
        {
          "duration": 0.2181816000000083,
          "durationTicks": 192,
          "midi": 33,
          "name": "A1",
          "ticks": 44640,
          "time": 50.727222,
          "velocity": 0.7480314960629921
        },
        {
          "duration": 0.10909079999999705,
          "durationTicks": 96,
          "midi": 33,
          "name": "A1",
          "ticks": 44880,
          "time": 50.999949,
          "velocity": 0.7716535433070866
        },
        {
          "duration": 0.10909079999999705,
          "durationTicks": 96,
          "midi": 33,
          "name": "A1",
          "ticks": 45000,
          "time": 51.1363125,
          "velocity": 0.8188976377952756
        },
        {
          "duration": 0.2181816000000083,
          "durationTicks": 192,
          "midi": 33,
          "name": "A1",
          "ticks": 45120,
          "time": 51.272676,
          "velocity": 0.7952755905511811
        },
        {
          "duration": 0.2181816000000012,
          "durationTicks": 192,
          "midi": 33,
          "name": "A1",
          "ticks": 45360,
          "time": 51.545403,
          "velocity": 0.7952755905511811
        },
        {
          "duration": 0.10909080000000415,
          "durationTicks": 96,
          "midi": 33,
          "name": "A1",
          "ticks": 45600,
          "time": 51.81813,
          "velocity": 0.7401574803149606
        },
        {
          "duration": 0.10909080000000415,
          "durationTicks": 96,
          "midi": 33,
          "name": "A1",
          "ticks": 45840,
          "time": 52.090857,
          "velocity": 0.84251968503937
        },
        {
          "duration": 0.10909079999999705,
          "durationTicks": 96,
          "midi": 33,
          "name": "A1",
          "ticks": 45960,
          "time": 52.2272205,
          "velocity": 0.7716535433070866
        },
        {
          "duration": 0.2181816000000012,
          "durationTicks": 192,
          "midi": 38,
          "name": "D2",
          "ticks": 46080,
          "time": 52.363584,
          "velocity": 0.8110236220472441
        },
        {
          "duration": 0.2181816000000012,
          "durationTicks": 192,
          "midi": 38,
          "name": "D2",
          "ticks": 46320,
          "time": 52.636311,
          "velocity": 0.8110236220472441
        },
        {
          "duration": 0.2181816000000012,
          "durationTicks": 192,
          "midi": 38,
          "name": "D2",
          "ticks": 46560,
          "time": 52.909038,
          "velocity": 0.8346456692913385
        },
        {
          "duration": 0.2181816000000012,
          "durationTicks": 192,
          "midi": 38,
          "name": "D2",
          "ticks": 46800,
          "time": 53.181765,
          "velocity": 0.7952755905511811
        },
        {
          "duration": 0.2181816000000012,
          "durationTicks": 192,
          "midi": 40,
          "name": "E2",
          "ticks": 47040,
          "time": 53.454492,
          "velocity": 0.8582677165354331
        },
        {
          "duration": 0.2181816000000012,
          "durationTicks": 192,
          "midi": 40,
          "name": "E2",
          "ticks": 47280,
          "time": 53.727219,
          "velocity": 0.8503937007874016
        },
        {
          "duration": 0.2181816000000012,
          "durationTicks": 192,
          "midi": 40,
          "name": "E2",
          "ticks": 47520,
          "time": 53.999946,
          "velocity": 0.8346456692913385
        },
        {
          "duration": 0.1999998000000005,
          "durationTicks": 176,
          "midi": 40,
          "name": "E2",
          "ticks": 47760,
          "time": 54.272673,
          "velocity": 0.8110236220472441
        },
        {
          "duration": 0.2181816000000012,
          "durationTicks": 192,
          "midi": 45,
          "name": "A2",
          "ticks": 48000,
          "time": 54.5454,
          "velocity": 0.7322834645669292
        },
        {
          "duration": 0.2181816000000083,
          "durationTicks": 192,
          "midi": 45,
          "name": "A2",
          "ticks": 48240,
          "time": 54.818127,
          "velocity": 0.8582677165354331
        },
        {
          "duration": 0.2181816000000012,
          "durationTicks": 192,
          "midi": 45,
          "name": "A2",
          "ticks": 48480,
          "time": 55.090854,
          "velocity": 0.8110236220472441
        },
        {
          "duration": 0.2181816000000083,
          "durationTicks": 192,
          "midi": 45,
          "name": "A2",
          "ticks": 48720,
          "time": 55.363580999999996,
          "velocity": 0.8503937007874016
        },
        {
          "duration": 0.2181816000000012,
          "durationTicks": 192,
          "midi": 45,
          "name": "A2",
          "ticks": 48960,
          "time": 55.636308,
          "velocity": 0.8188976377952756
        },
        {
          "duration": 0.2181816000000012,
          "durationTicks": 192,
          "midi": 45,
          "name": "A2",
          "ticks": 49200,
          "time": 55.909035,
          "velocity": 0.7795275590551181
        },
        {
          "duration": 0.2181816000000012,
          "durationTicks": 192,
          "midi": 45,
          "name": "A2",
          "ticks": 49440,
          "time": 56.181762,
          "velocity": 0.84251968503937
        },
        {
          "duration": 0.2181816000000012,
          "durationTicks": 192,
          "midi": 45,
          "name": "A2",
          "ticks": 49680,
          "time": 56.454489,
          "velocity": 0.7480314960629921
        },
        {
          "duration": 0.2181816000000012,
          "durationTicks": 192,
          "midi": 47,
          "name": "B2",
          "ticks": 49920,
          "time": 56.727216,
          "velocity": 0.8267716535433071
        },
        {
          "duration": 0.2181816000000012,
          "durationTicks": 192,
          "midi": 47,
          "name": "B2",
          "ticks": 50160,
          "time": 56.999943,
          "velocity": 0.7952755905511811
        },
        {
          "duration": 0.2181816000000012,
          "durationTicks": 192,
          "midi": 47,
          "name": "B2",
          "ticks": 50400,
          "time": 57.27267,
          "velocity": 0.7637795275590551
        },
        {
          "duration": 0.2181816000000012,
          "durationTicks": 192,
          "midi": 47,
          "name": "B2",
          "ticks": 50640,
          "time": 57.545397,
          "velocity": 0.7716535433070866
        },
        {
          "duration": 0.2181816000000083,
          "durationTicks": 192,
          "midi": 40,
          "name": "E2",
          "ticks": 50880,
          "time": 57.818124,
          "velocity": 0.7716535433070866
        },
        {
          "duration": 0.2181816000000012,
          "durationTicks": 192,
          "midi": 40,
          "name": "E2",
          "ticks": 51120,
          "time": 58.090851,
          "velocity": 0.8188976377952756
        },
        {
          "duration": 0.2181816000000083,
          "durationTicks": 192,
          "midi": 40,
          "name": "E2",
          "ticks": 51360,
          "time": 58.363578,
          "velocity": 0.8267716535433071
        },
        {
          "duration": 0.2181816000000012,
          "durationTicks": 192,
          "midi": 40,
          "name": "E2",
          "ticks": 51600,
          "time": 58.636305,
          "velocity": 0.8503937007874016
        },
        {
          "duration": 0.2181816000000083,
          "durationTicks": 192,
          "midi": 45,
          "name": "A2",
          "ticks": 51840,
          "time": 58.909031999999996,
          "velocity": 0.7795275590551181
        },
        {
          "duration": 0.2181816000000012,
          "durationTicks": 192,
          "midi": 45,
          "name": "A2",
          "ticks": 52080,
          "time": 59.181759,
          "velocity": 0.8346456692913385
        },
        {
          "duration": 0.2181816000000012,
          "durationTicks": 192,
          "midi": 45,
          "name": "A2",
          "ticks": 52320,
          "time": 59.454486,
          "velocity": 0.7244094488188977
        },
        {
          "duration": 0.2181816000000012,
          "durationTicks": 192,
          "midi": 45,
          "name": "A2",
          "ticks": 52560,
          "time": 59.727213,
          "velocity": 0.8110236220472441
        },
        {
          "duration": 0.2181816000000012,
          "durationTicks": 192,
          "midi": 45,
          "name": "A2",
          "ticks": 52800,
          "time": 59.99994,
          "velocity": 0.7952755905511811
        },
        {
          "duration": 0.2181816000000012,
          "durationTicks": 192,
          "midi": 45,
          "name": "A2",
          "ticks": 53040,
          "time": 60.272667,
          "velocity": 0.8188976377952756
        },
        {
          "duration": 0.2181816000000012,
          "durationTicks": 192,
          "midi": 45,
          "name": "A2",
          "ticks": 53280,
          "time": 60.545394,
          "velocity": 0.7559055118110236
        },
        {
          "duration": 0.2181816000000012,
          "durationTicks": 192,
          "midi": 45,
          "name": "A2",
          "ticks": 53520,
          "time": 60.818121,
          "velocity": 0.7401574803149606
        },
        {
          "duration": 0.2181816000000012,
          "durationTicks": 192,
          "midi": 38,
          "name": "D2",
          "ticks": 53760,
          "time": 61.090848,
          "velocity": 0.8110236220472441
        },
        {
          "duration": 0.2181816000000083,
          "durationTicks": 192,
          "midi": 38,
          "name": "D2",
          "ticks": 54000,
          "time": 61.363575,
          "velocity": 0.8582677165354331
        },
        {
          "duration": 0.2181816000000012,
          "durationTicks": 192,
          "midi": 38,
          "name": "D2",
          "ticks": 54240,
          "time": 61.636302,
          "velocity": 0.84251968503937
        },
        {
          "duration": 0.2181816000000083,
          "durationTicks": 192,
          "midi": 38,
          "name": "D2",
          "ticks": 54480,
          "time": 61.909029,
          "velocity": 0.7795275590551181
        },
        {
          "duration": 0.2181816000000012,
          "durationTicks": 192,
          "midi": 40,
          "name": "E2",
          "ticks": 54720,
          "time": 62.181756,
          "velocity": 0.8110236220472441
        },
        {
          "duration": 0.2181816000000083,
          "durationTicks": 192,
          "midi": 40,
          "name": "E2",
          "ticks": 54960,
          "time": 62.454482999999996,
          "velocity": 0.7795275590551181
        },
        {
          "duration": 0.2181816000000012,
          "durationTicks": 192,
          "midi": 40,
          "name": "E2",
          "ticks": 55200,
          "time": 62.72721,
          "velocity": 0.8110236220472441
        },
        {
          "duration": 0.2181816000000012,
          "durationTicks": 192,
          "midi": 40,
          "name": "E2",
          "ticks": 55440,
          "time": 62.999937,
          "velocity": 0.8346456692913385
        },
        {
          "duration": 0.2181816000000012,
          "durationTicks": 192,
          "midi": 45,
          "name": "A2",
          "ticks": 55680,
          "time": 63.272664,
          "velocity": 0.8188976377952756
        },
        {
          "duration": 0.2181816000000012,
          "durationTicks": 192,
          "midi": 45,
          "name": "A2",
          "ticks": 55920,
          "time": 63.545391,
          "velocity": 0.8267716535433071
        },
        {
          "duration": 0.2181816000000083,
          "durationTicks": 192,
          "midi": 45,
          "name": "A2",
          "ticks": 56160,
          "time": 63.818118,
          "velocity": 0.8503937007874016
        },
        {
          "duration": 0.2181815999999941,
          "durationTicks": 192,
          "midi": 45,
          "name": "A2",
          "ticks": 56400,
          "time": 64.090845,
          "velocity": 0.7952755905511811
        },
        {
          "duration": 0.2181815999999941,
          "durationTicks": 192,
          "midi": 42,
          "name": "F#2",
          "ticks": 56640,
          "time": 64.363572,
          "velocity": 0.84251968503937
        },
        {
          "duration": 0.2181816000000083,
          "durationTicks": 192,
          "midi": 42,
          "name": "F#2",
          "ticks": 56880,
          "time": 64.636299,
          "velocity": 0.7716535433070866
        },
        {
          "duration": 0.2181816000000083,
          "durationTicks": 192,
          "midi": 42,
          "name": "F#2",
          "ticks": 57120,
          "time": 64.909026,
          "velocity": 0.8267716535433071
        },
        {
          "duration": 0.2181816000000083,
          "durationTicks": 192,
          "midi": 42,
          "name": "F#2",
          "ticks": 57360,
          "time": 65.181753,
          "velocity": 0.8346456692913385
        },
        {
          "duration": 0.2181815999999941,
          "durationTicks": 192,
          "midi": 47,
          "name": "B2",
          "ticks": 57600,
          "time": 65.45448,
          "velocity": 0.8188976377952756
        },
        {
          "duration": 0.2181816000000083,
          "durationTicks": 192,
          "midi": 47,
          "name": "B2",
          "ticks": 57840,
          "time": 65.72720699999999,
          "velocity": 0.8267716535433071
        },
        {
          "duration": 0.2181816000000083,
          "durationTicks": 192,
          "midi": 47,
          "name": "B2",
          "ticks": 58080,
          "time": 65.999934,
          "velocity": 0.84251968503937
        },
        {
          "duration": 0.2181816000000083,
          "durationTicks": 192,
          "midi": 47,
          "name": "B2",
          "ticks": 58320,
          "time": 66.272661,
          "velocity": 0.8267716535433071
        },
        {
          "duration": 0.2181815999999941,
          "durationTicks": 192,
          "midi": 47,
          "name": "B2",
          "ticks": 58560,
          "time": 66.545388,
          "velocity": 0.8267716535433071
        },
        {
          "duration": 0.2181815999999941,
          "durationTicks": 192,
          "midi": 47,
          "name": "B2",
          "ticks": 58800,
          "time": 66.818115,
          "velocity": 0.8582677165354331
        },
        {
          "duration": 0.2181816000000083,
          "durationTicks": 192,
          "midi": 47,
          "name": "B2",
          "ticks": 59040,
          "time": 67.090842,
          "velocity": 0.8188976377952756
        },
        {
          "duration": 0.2181816000000083,
          "durationTicks": 192,
          "midi": 47,
          "name": "B2",
          "ticks": 59280,
          "time": 67.363569,
          "velocity": 0.7874015748031497
        },
        {
          "duration": 0.2181815999999941,
          "durationTicks": 192,
          "midi": 40,
          "name": "E2",
          "ticks": 59520,
          "time": 67.636296,
          "velocity": 0.7716535433070866
        },
        {
          "duration": 0.2181815999999941,
          "durationTicks": 192,
          "midi": 40,
          "name": "E2",
          "ticks": 59760,
          "time": 67.909023,
          "velocity": 0.7952755905511811
        },
        {
          "duration": 0.2181816000000083,
          "durationTicks": 192,
          "midi": 40,
          "name": "E2",
          "ticks": 60000,
          "time": 68.18175,
          "velocity": 0.8582677165354331
        },
        {
          "duration": 0.10909080000000415,
          "durationTicks": 96,
          "midi": 40,
          "name": "E2",
          "ticks": 60240,
          "time": 68.454477,
          "velocity": 0.8582677165354331
        },
        {
          "duration": 0.10909080000000415,
          "durationTicks": 96,
          "midi": 40,
          "name": "E2",
          "ticks": 60360,
          "time": 68.5908405,
          "velocity": 0.8582677165354331
        },
        {
          "duration": 0.2181816000000083,
          "durationTicks": 192,
          "midi": 40,
          "name": "E2",
          "ticks": 60480,
          "time": 68.727204,
          "velocity": 0.7559055118110236
        },
        {
          "duration": 0.2181815999999941,
          "durationTicks": 192,
          "midi": 40,
          "name": "E2",
          "ticks": 60720,
          "time": 68.999931,
          "velocity": 0.7086614173228346
        },
        {
          "duration": 0.2181816000000083,
          "durationTicks": 192,
          "midi": 40,
          "name": "E2",
          "ticks": 60960,
          "time": 69.27265799999999,
          "velocity": 0.7952755905511811
        },
        {
          "duration": 0.10909080000000415,
          "durationTicks": 96,
          "midi": 40,
          "name": "E2",
          "ticks": 61200,
          "time": 69.545385,
          "velocity": 0.8267716535433071
        },
        {
          "duration": 0.10909080000000415,
          "durationTicks": 96,
          "midi": 40,
          "name": "E2",
          "ticks": 61320,
          "time": 69.6817485,
          "velocity": 0.7480314960629921
        },
        {
          "duration": 0.2181816000000083,
          "durationTicks": 192,
          "midi": 33,
          "name": "A1",
          "ticks": 61440,
          "time": 69.818112,
          "velocity": 0.84251968503937
        },
        {
          "duration": 0.2181815999999941,
          "durationTicks": 192,
          "midi": 33,
          "name": "A1",
          "ticks": 61680,
          "time": 70.090839,
          "velocity": 0.7716535433070866
        },
        {
          "duration": 0.2181815999999941,
          "durationTicks": 192,
          "midi": 33,
          "name": "A1",
          "ticks": 61920,
          "time": 70.363566,
          "velocity": 0.8346456692913385
        },
        {
          "duration": 0.2181816000000083,
          "durationTicks": 192,
          "midi": 33,
          "name": "A1",
          "ticks": 62160,
          "time": 70.636293,
          "velocity": 0.84251968503937
        },
        {
          "duration": 0.2181816000000083,
          "durationTicks": 192,
          "midi": 33,
          "name": "A1",
          "ticks": 62400,
          "time": 70.90902,
          "velocity": 0.8267716535433071
        },
        {
          "duration": 0.2181815999999941,
          "durationTicks": 192,
          "midi": 33,
          "name": "A1",
          "ticks": 62640,
          "time": 71.181747,
          "velocity": 0.8582677165354331
        },
        {
          "duration": 0.2181815999999941,
          "durationTicks": 192,
          "midi": 33,
          "name": "A1",
          "ticks": 62880,
          "time": 71.454474,
          "velocity": 0.8346456692913385
        },
        {
          "duration": 0.10909080000000415,
          "durationTicks": 96,
          "midi": 33,
          "name": "A1",
          "ticks": 63120,
          "time": 71.727201,
          "velocity": 0.84251968503937
        },
        {
          "duration": 0.10909080000000415,
          "durationTicks": 96,
          "midi": 33,
          "name": "A1",
          "ticks": 63240,
          "time": 71.8635645,
          "velocity": 0.8503937007874016
        },
        {
          "duration": 0.2181816000000083,
          "durationTicks": 192,
          "midi": 30,
          "name": "F#1",
          "ticks": 63360,
          "time": 71.999928,
          "velocity": 0.8188976377952756
        },
        {
          "duration": 0.2181816000000083,
          "durationTicks": 192,
          "midi": 30,
          "name": "F#1",
          "ticks": 63600,
          "time": 72.272655,
          "velocity": 0.8503937007874016
        },
        {
          "duration": 0.2181815999999941,
          "durationTicks": 192,
          "midi": 30,
          "name": "F#1",
          "ticks": 63840,
          "time": 72.545382,
          "velocity": 0.8031496062992126
        },
        {
          "duration": 0.2181816000000083,
          "durationTicks": 192,
          "midi": 30,
          "name": "F#1",
          "ticks": 64080,
          "time": 72.81810899999999,
          "velocity": 0.84251968503937
        },
        {
          "duration": 0.2181816000000083,
          "durationTicks": 192,
          "midi": 30,
          "name": "F#1",
          "ticks": 64320,
          "time": 73.090836,
          "velocity": 0.8346456692913385
        },
        {
          "duration": 0.2181816000000083,
          "durationTicks": 192,
          "midi": 30,
          "name": "F#1",
          "ticks": 64560,
          "time": 73.363563,
          "velocity": 0.84251968503937
        },
        {
          "duration": 0.2181815999999941,
          "durationTicks": 192,
          "midi": 30,
          "name": "F#1",
          "ticks": 64800,
          "time": 73.63629,
          "velocity": 0.8346456692913385
        },
        {
          "duration": 0.2181815999999941,
          "durationTicks": 192,
          "midi": 30,
          "name": "F#1",
          "ticks": 65040,
          "time": 73.909017,
          "velocity": 0.7952755905511811
        },
        {
          "duration": 0.2181816000000083,
          "durationTicks": 192,
          "midi": 38,
          "name": "D2",
          "ticks": 65280,
          "time": 74.181744,
          "velocity": 0.8188976377952756
        },
        {
          "duration": 0.2181816000000083,
          "durationTicks": 192,
          "midi": 38,
          "name": "D2",
          "ticks": 65520,
          "time": 74.454471,
          "velocity": 0.8503937007874016
        },
        {
          "duration": 0.2181815999999941,
          "durationTicks": 192,
          "midi": 38,
          "name": "D2",
          "ticks": 65760,
          "time": 74.727198,
          "velocity": 0.84251968503937
        },
        {
          "duration": 0.10909079999998994,
          "durationTicks": 96,
          "midi": 38,
          "name": "D2",
          "ticks": 66000,
          "time": 74.999925,
          "velocity": 0.8503937007874016
        },
        {
          "duration": 0.2181816000000083,
          "durationTicks": 192,
          "midi": 38,
          "name": "D2",
          "ticks": 66240,
          "time": 75.272652,
          "velocity": 0.8582677165354331
        },
        {
          "duration": 0.2181816000000083,
          "durationTicks": 192,
          "midi": 38,
          "name": "D2",
          "ticks": 66480,
          "time": 75.545379,
          "velocity": 0.7716535433070866
        },
        {
          "duration": 0.2181816000000083,
          "durationTicks": 192,
          "midi": 38,
          "name": "D2",
          "ticks": 66720,
          "time": 75.818106,
          "velocity": 0.8267716535433071
        },
        {
          "duration": 0.10909079999998994,
          "durationTicks": 96,
          "midi": 33,
          "name": "A1",
          "ticks": 66960,
          "time": 76.090833,
          "velocity": 0.7716535433070866
        },
        {
          "duration": 0.10909079999998994,
          "durationTicks": 96,
          "midi": 33,
          "name": "A1",
          "ticks": 67080,
          "time": 76.2271965,
          "velocity": 0.8582677165354331
        },
        {
          "duration": 0.2181816000000083,
          "durationTicks": 192,
          "midi": 38,
          "name": "D2",
          "ticks": 67200,
          "time": 76.36355999999999,
          "velocity": 0.8031496062992126
        },
        {
          "duration": 0.2181816000000083,
          "durationTicks": 192,
          "midi": 38,
          "name": "D2",
          "ticks": 67440,
          "time": 76.636287,
          "velocity": 0.7795275590551181
        },
        {
          "duration": 0.2181816000000083,
          "durationTicks": 192,
          "midi": 38,
          "name": "D2",
          "ticks": 67680,
          "time": 76.909014,
          "velocity": 0.84251968503937
        },
        {
          "duration": 0.10909079999998994,
          "durationTicks": 96,
          "midi": 38,
          "name": "D2",
          "ticks": 67920,
          "time": 77.181741,
          "velocity": 0.8503937007874016
        },
        {
          "duration": 0.2181815999999941,
          "durationTicks": 192,
          "midi": 38,
          "name": "D2",
          "ticks": 68160,
          "time": 77.454468,
          "velocity": 0.8503937007874016
        },
        {
          "duration": 0.2181816000000083,
          "durationTicks": 192,
          "midi": 33,
          "name": "A1",
          "ticks": 68400,
          "time": 77.727195,
          "velocity": 0.8031496062992126
        },
        {
          "duration": 0.2181816000000083,
          "durationTicks": 192,
          "midi": 38,
          "name": "D2",
          "ticks": 68640,
          "time": 77.999922,
          "velocity": 0.84251968503937
        },
        {
          "duration": 0.2181815999999941,
          "durationTicks": 192,
          "midi": 38,
          "name": "D2",
          "ticks": 68880,
          "time": 78.272649,
          "velocity": 0.8582677165354331
        },
        {
          "duration": 0.2181815999999941,
          "durationTicks": 192,
          "midi": 33,
          "name": "A1",
          "ticks": 69120,
          "time": 78.545376,
          "velocity": 0.8503937007874016
        },
        {
          "duration": 0.2181816000000083,
          "durationTicks": 192,
          "midi": 33,
          "name": "A1",
          "ticks": 69360,
          "time": 78.818103,
          "velocity": 0.8031496062992126
        },
        {
          "duration": 0.2181816000000083,
          "durationTicks": 192,
          "midi": 33,
          "name": "A1",
          "ticks": 69600,
          "time": 79.09083,
          "velocity": 0.7795275590551181
        },
        {
          "duration": 0.10909079999998994,
          "durationTicks": 96,
          "midi": 33,
          "name": "A1",
          "ticks": 69840,
          "time": 79.363557,
          "velocity": 0.84251968503937
        },
        {
          "duration": 0.10909079999998994,
          "durationTicks": 96,
          "midi": 33,
          "name": "A1",
          "ticks": 69960,
          "time": 79.4999205,
          "velocity": 0.8267716535433071
        },
        {
          "duration": 0.2181815999999941,
          "durationTicks": 192,
          "midi": 37,
          "name": "C#2",
          "ticks": 70080,
          "time": 79.636284,
          "velocity": 0.8110236220472441
        },
        {
          "duration": 0.2181816000000083,
          "durationTicks": 192,
          "midi": 37,
          "name": "C#2",
          "ticks": 70320,
          "time": 79.90901099999999,
          "velocity": 0.8346456692913385
        },
        {
          "duration": 0.2181816000000083,
          "durationTicks": 192,
          "midi": 37,
          "name": "C#2",
          "ticks": 70560,
          "time": 80.181738,
          "velocity": 0.8031496062992126
        },
        {
          "duration": 0.10909079999998994,
          "durationTicks": 96,
          "midi": 37,
          "name": "C#2",
          "ticks": 70800,
          "time": 80.454465,
          "velocity": 0.8188976377952756
        },
        {
          "duration": 0.10909079999998994,
          "durationTicks": 96,
          "midi": 37,
          "name": "C#2",
          "ticks": 70920,
          "time": 80.5908285,
          "velocity": 0.8110236220472441
        },
        {
          "duration": 0.2181815999999941,
          "durationTicks": 192,
          "midi": 42,
          "name": "F#2",
          "ticks": 71040,
          "time": 80.727192,
          "velocity": 0.7322834645669292
        },
        {
          "duration": 0.2181815999999941,
          "durationTicks": 192,
          "midi": 42,
          "name": "F#2",
          "ticks": 71280,
          "time": 80.999919,
          "velocity": 0.8110236220472441
        },
        {
          "duration": 0.2181816000000083,
          "durationTicks": 192,
          "midi": 42,
          "name": "F#2",
          "ticks": 71520,
          "time": 81.272646,
          "velocity": 0.8503937007874016
        },
        {
          "duration": 0.10909079999998994,
          "durationTicks": 96,
          "midi": 42,
          "name": "F#2",
          "ticks": 71760,
          "time": 81.545373,
          "velocity": 0.8346456692913385
        },
        {
          "duration": 0.10909079999998994,
          "durationTicks": 96,
          "midi": 42,
          "name": "F#2",
          "ticks": 71880,
          "time": 81.6817365,
          "velocity": 0.84251968503937
        },
        {
          "duration": 0.2181815999999941,
          "durationTicks": 192,
          "midi": 33,
          "name": "A1",
          "ticks": 72000,
          "time": 81.8181,
          "velocity": 0.8110236220472441
        },
        {
          "duration": 0.2181815999999941,
          "durationTicks": 192,
          "midi": 33,
          "name": "A1",
          "ticks": 72240,
          "time": 82.090827,
          "velocity": 0.7874015748031497
        },
        {
          "duration": 0.2181816000000083,
          "durationTicks": 192,
          "midi": 33,
          "name": "A1",
          "ticks": 72480,
          "time": 82.363554,
          "velocity": 0.84251968503937
        },
        {
          "duration": 0.2181816000000083,
          "durationTicks": 192,
          "midi": 33,
          "name": "A1",
          "ticks": 72720,
          "time": 82.636281,
          "velocity": 0.7401574803149606
        },
        {
          "duration": 0.2181816000000083,
          "durationTicks": 192,
          "midi": 38,
          "name": "D2",
          "ticks": 72960,
          "time": 82.909008,
          "velocity": 0.7480314960629921
        },
        {
          "duration": 0.2181815999999941,
          "durationTicks": 192,
          "midi": 38,
          "name": "D2",
          "ticks": 73200,
          "time": 83.181735,
          "velocity": 0.7795275590551181
        },
        {
          "duration": 0.2181816000000083,
          "durationTicks": 192,
          "midi": 37,
          "name": "C#2",
          "ticks": 73440,
          "time": 83.45446199999999,
          "velocity": 0.7874015748031497
        },
        {
          "duration": 0.2181816000000083,
          "durationTicks": 192,
          "midi": 37,
          "name": "C#2",
          "ticks": 73680,
          "time": 83.727189,
          "velocity": 0.7874015748031497
        },
        {
          "duration": 0.2181816000000083,
          "durationTicks": 192,
          "midi": 35,
          "name": "B1",
          "ticks": 73920,
          "time": 83.999916,
          "velocity": 0.7795275590551181
        },
        {
          "duration": 0.2181815999999941,
          "durationTicks": 192,
          "midi": 35,
          "name": "B1",
          "ticks": 74160,
          "time": 84.272643,
          "velocity": 0.8346456692913385
        },
        {
          "duration": 0.2181815999999941,
          "durationTicks": 192,
          "midi": 35,
          "name": "B1",
          "ticks": 74400,
          "time": 84.54537,
          "velocity": 0.8346456692913385
        },
        {
          "duration": 0.2181816000000083,
          "durationTicks": 192,
          "midi": 40,
          "name": "E2",
          "ticks": 74640,
          "time": 84.818097,
          "velocity": 0.8267716535433071
        },
        {
          "duration": 0.2181816000000083,
          "durationTicks": 192,
          "midi": 40,
          "name": "E2",
          "ticks": 74880,
          "time": 85.090824,
          "velocity": 0.7795275590551181
        },
        {
          "duration": 0.2181815999999941,
          "durationTicks": 192,
          "midi": 40,
          "name": "E2",
          "ticks": 75120,
          "time": 85.363551,
          "velocity": 0.84251968503937
        },
        {
          "duration": 0.2181815999999941,
          "durationTicks": 192,
          "midi": 40,
          "name": "E2",
          "ticks": 75360,
          "time": 85.636278,
          "velocity": 0.84251968503937
        },
        {
          "duration": 0.2181816000000083,
          "durationTicks": 192,
          "midi": 40,
          "name": "E2",
          "ticks": 75600,
          "time": 85.909005,
          "velocity": 0.8188976377952756
        },
        {
          "duration": 0.2181816000000083,
          "durationTicks": 192,
          "midi": 40,
          "name": "E2",
          "ticks": 75840,
          "time": 86.181732,
          "velocity": 0.7795275590551181
        },
        {
          "duration": 0.2181816000000083,
          "durationTicks": 192,
          "midi": 40,
          "name": "E2",
          "ticks": 76080,
          "time": 86.454459,
          "velocity": 0.84251968503937
        },
        {
          "duration": 0.2181815999999941,
          "durationTicks": 192,
          "midi": 40,
          "name": "E2",
          "ticks": 76320,
          "time": 86.727186,
          "velocity": 0.7401574803149606
        },
        {
          "duration": 0.2181816000000083,
          "durationTicks": 192,
          "midi": 40,
          "name": "E2",
          "ticks": 76560,
          "time": 86.99991299999999,
          "velocity": 0.84251968503937
        },
        {
          "duration": 0.2181816000000083,
          "durationTicks": 192,
          "midi": 33,
          "name": "A1",
          "ticks": 76800,
          "time": 87.27264,
          "velocity": 0.8503937007874016
        },
        {
          "duration": 0.2181816000000083,
          "durationTicks": 192,
          "midi": 33,
          "name": "A1",
          "ticks": 77040,
          "time": 87.545367,
          "velocity": 0.7637795275590551
        },
        {
          "duration": 0.2181815999999941,
          "durationTicks": 192,
          "midi": 33,
          "name": "A1",
          "ticks": 77280,
          "time": 87.818094,
          "velocity": 0.7874015748031497
        },
        {
          "duration": 0.2181815999999941,
          "durationTicks": 192,
          "midi": 33,
          "name": "A1",
          "ticks": 77520,
          "time": 88.090821,
          "velocity": 0.8188976377952756
        },
        {
          "duration": 0.2181816000000083,
          "durationTicks": 192,
          "midi": 37,
          "name": "C#2",
          "ticks": 77760,
          "time": 88.363548,
          "velocity": 0.8346456692913385
        },
        {
          "duration": 0.2181816000000083,
          "durationTicks": 192,
          "midi": 37,
          "name": "C#2",
          "ticks": 78000,
          "time": 88.636275,
          "velocity": 0.8582677165354331
        },
        {
          "duration": 0.2181816000000083,
          "durationTicks": 192,
          "midi": 37,
          "name": "C#2",
          "ticks": 78240,
          "time": 88.909002,
          "velocity": 0.7874015748031497
        },
        {
          "duration": 0.2090906999999902,
          "durationTicks": 184,
          "midi": 37,
          "name": "C#2",
          "ticks": 78480,
          "time": 89.181729,
          "velocity": 0.7795275590551181
        },
        {
          "duration": 0.2181816000000083,
          "durationTicks": 192,
          "midi": 42,
          "name": "F#2",
          "ticks": 78720,
          "time": 89.454456,
          "velocity": 0.8582677165354331
        },
        {
          "duration": 0.2181816000000083,
          "durationTicks": 192,
          "midi": 42,
          "name": "F#2",
          "ticks": 78960,
          "time": 89.727183,
          "velocity": 0.7716535433070866
        },
        {
          "duration": 0.2181816000000083,
          "durationTicks": 192,
          "midi": 42,
          "name": "F#2",
          "ticks": 79200,
          "time": 89.99991,
          "velocity": 0.7322834645669292
        },
        {
          "duration": 0.10909079999998994,
          "durationTicks": 96,
          "midi": 42,
          "name": "F#2",
          "ticks": 79440,
          "time": 90.272637,
          "velocity": 0.7637795275590551
        },
        {
          "duration": 0.10909079999998994,
          "durationTicks": 96,
          "midi": 42,
          "name": "F#2",
          "ticks": 79560,
          "time": 90.4090005,
          "velocity": 0.7480314960629921
        },
        {
          "duration": 0.2181816000000083,
          "durationTicks": 192,
          "midi": 33,
          "name": "A1",
          "ticks": 79680,
          "time": 90.54536399999999,
          "velocity": 0.7637795275590551
        },
        {
          "duration": 0.2181816000000083,
          "durationTicks": 192,
          "midi": 33,
          "name": "A1",
          "ticks": 79920,
          "time": 90.818091,
          "velocity": 0.7952755905511811
        },
        {
          "duration": 0.2181816000000083,
          "durationTicks": 192,
          "midi": 33,
          "name": "A1",
          "ticks": 80160,
          "time": 91.090818,
          "velocity": 0.7795275590551181
        },
        {
          "duration": 0.2181815999999941,
          "durationTicks": 192,
          "midi": 33,
          "name": "A1",
          "ticks": 80400,
          "time": 91.363545,
          "velocity": 0.8188976377952756
        },
        {
          "duration": 0.2181815999999941,
          "durationTicks": 192,
          "midi": 38,
          "name": "D2",
          "ticks": 80640,
          "time": 91.636272,
          "velocity": 0.8346456692913385
        },
        {
          "duration": 0.2181816000000083,
          "durationTicks": 192,
          "midi": 38,
          "name": "D2",
          "ticks": 80880,
          "time": 91.908999,
          "velocity": 0.8110236220472441
        },
        {
          "duration": 0.2181816000000083,
          "durationTicks": 192,
          "midi": 38,
          "name": "D2",
          "ticks": 81120,
          "time": 92.181726,
          "velocity": 0.7795275590551181
        },
        {
          "duration": 0.10909079999998994,
          "durationTicks": 96,
          "midi": 38,
          "name": "D2",
          "ticks": 81360,
          "time": 92.454453,
          "velocity": 0.8188976377952756
        },
        {
          "duration": 0.10909079999998994,
          "durationTicks": 96,
          "midi": 38,
          "name": "D2",
          "ticks": 81480,
          "time": 92.5908165,
          "velocity": 0.7874015748031497
        },
        {
          "duration": 0.2181815999999941,
          "durationTicks": 192,
          "midi": 40,
          "name": "E2",
          "ticks": 81600,
          "time": 92.72718,
          "velocity": 0.8031496062992126
        },
        {
          "duration": 0.2181816000000083,
          "durationTicks": 192,
          "midi": 40,
          "name": "E2",
          "ticks": 81840,
          "time": 92.999907,
          "velocity": 0.8582677165354331
        },
        {
          "duration": 0.2181816000000083,
          "durationTicks": 192,
          "midi": 40,
          "name": "E2",
          "ticks": 82080,
          "time": 93.272634,
          "velocity": 0.8582677165354331
        },
        {
          "duration": 0.10909079999998994,
          "durationTicks": 96,
          "midi": 40,
          "name": "E2",
          "ticks": 82320,
          "time": 93.545361,
          "velocity": 0.8110236220472441
        },
        {
          "duration": 0.10909079999998994,
          "durationTicks": 96,
          "midi": 40,
          "name": "E2",
          "ticks": 82440,
          "time": 93.6817245,
          "velocity": 0.8031496062992126
        },
        {
          "duration": 0.2181815999999941,
          "durationTicks": 192,
          "midi": 33,
          "name": "A1",
          "ticks": 82560,
          "time": 93.818088,
          "velocity": 0.7874015748031497
        },
        {
          "duration": 0.10909080000000415,
          "durationTicks": 96,
          "midi": 33,
          "name": "A1",
          "ticks": 82800,
          "time": 94.09081499999999,
          "velocity": 0.7716535433070866
        },
        {
          "duration": 0.10909080000000415,
          "durationTicks": 96,
          "midi": 33,
          "name": "A1",
          "ticks": 83040,
          "time": 94.363542,
          "velocity": 0.84251968503937
        },
        {
          "duration": 0.2181816000000083,
          "durationTicks": 192,
          "midi": 33,
          "name": "A1",
          "ticks": 83280,
          "time": 94.636269,
          "velocity": 0.7637795275590551
        },
        {
          "duration": 0.2181815999999941,
          "durationTicks": 192,
          "midi": 33,
          "name": "A1",
          "ticks": 83520,
          "time": 94.908996,
          "velocity": 0.8031496062992126
        },
        {
          "duration": 0.2181815999999941,
          "durationTicks": 192,
          "midi": 33,
          "name": "A1",
          "ticks": 83760,
          "time": 95.181723,
          "velocity": 0.84251968503937
        },
        {
          "duration": 0.10909080000000415,
          "durationTicks": 96,
          "midi": 33,
          "name": "A1",
          "ticks": 84000,
          "time": 95.45445,
          "velocity": 0.8188976377952756
        },
        {
          "duration": 0.2181816000000083,
          "durationTicks": 192,
          "midi": 33,
          "name": "A1",
          "ticks": 84240,
          "time": 95.727177,
          "velocity": 0.84251968503937
        },
        {
          "duration": 0.2181816000000083,
          "durationTicks": 192,
          "midi": 33,
          "name": "A1",
          "ticks": 84480,
          "time": 95.999904,
          "velocity": 0.8582677165354331
        },
        {
          "duration": 0.10909079999998994,
          "durationTicks": 96,
          "midi": 33,
          "name": "A1",
          "ticks": 84720,
          "time": 96.272631,
          "velocity": 0.7322834645669292
        },
        {
          "duration": 0.10909080000000415,
          "durationTicks": 96,
          "midi": 33,
          "name": "A1",
          "ticks": 84960,
          "time": 96.545358,
          "velocity": 0.84251968503937
        },
        {
          "duration": 0.2181816000000083,
          "durationTicks": 192,
          "midi": 33,
          "name": "A1",
          "ticks": 85200,
          "time": 96.818085,
          "velocity": 0.7559055118110236
        },
        {
          "duration": 0.2181816000000083,
          "durationTicks": 192,
          "midi": 33,
          "name": "A1",
          "ticks": 85440,
          "time": 97.090812,
          "velocity": 0.7637795275590551
        },
        {
          "duration": 0.2181815999999941,
          "durationTicks": 192,
          "midi": 33,
          "name": "A1",
          "ticks": 85680,
          "time": 97.363539,
          "velocity": 0.7559055118110236
        },
        {
          "duration": 0.10909080000000415,
          "durationTicks": 96,
          "midi": 33,
          "name": "A1",
          "ticks": 85920,
          "time": 97.63626599999999,
          "velocity": 0.84251968503937
        },
        {
          "duration": 0.2181816000000083,
          "durationTicks": 192,
          "midi": 33,
          "name": "A1",
          "ticks": 86160,
          "time": 97.908993,
          "velocity": 0.84251968503937
        },
        {
          "duration": 0.2181816000000083,
          "durationTicks": 192,
          "midi": 38,
          "name": "D2",
          "ticks": 86400,
          "time": 98.18172,
          "velocity": 0.8031496062992126
        },
        {
          "duration": 0.2181815999999941,
          "durationTicks": 192,
          "midi": 38,
          "name": "D2",
          "ticks": 86640,
          "time": 98.454447,
          "velocity": 0.8188976377952756
        },
        {
          "duration": 0.2181815999999941,
          "durationTicks": 192,
          "midi": 38,
          "name": "D2",
          "ticks": 86880,
          "time": 98.727174,
          "velocity": 0.8582677165354331
        },
        {
          "duration": 0.2181816000000083,
          "durationTicks": 192,
          "midi": 38,
          "name": "D2",
          "ticks": 87120,
          "time": 98.999901,
          "velocity": 0.84251968503937
        },
        {
          "duration": 0.2181816000000083,
          "durationTicks": 192,
          "midi": 40,
          "name": "E2",
          "ticks": 87360,
          "time": 99.272628,
          "velocity": 0.7795275590551181
        },
        {
          "duration": 0.2181816000000083,
          "durationTicks": 192,
          "midi": 40,
          "name": "E2",
          "ticks": 87600,
          "time": 99.545355,
          "velocity": 0.7716535433070866
        },
        {
          "duration": 0.2181815999999941,
          "durationTicks": 192,
          "midi": 40,
          "name": "E2",
          "ticks": 87840,
          "time": 99.818082,
          "velocity": 0.8346456692913385
        },
        {
          "duration": 0.19999980000001472,
          "durationTicks": 176,
          "midi": 40,
          "name": "E2",
          "ticks": 88080,
          "time": 100.090809,
          "velocity": 0.8031496062992126
        },
        {
          "duration": 0.2181816000000083,
          "durationTicks": 192,
          "midi": 45,
          "name": "A2",
          "ticks": 88320,
          "time": 100.363536,
          "velocity": 0.8267716535433071
        },
        {
          "duration": 0.2181816000000083,
          "durationTicks": 192,
          "midi": 45,
          "name": "A2",
          "ticks": 88560,
          "time": 100.636263,
          "velocity": 0.7874015748031497
        },
        {
          "duration": 0.2181815999999941,
          "durationTicks": 192,
          "midi": 45,
          "name": "A2",
          "ticks": 88800,
          "time": 100.90899,
          "velocity": 0.7637795275590551
        },
        {
          "duration": 0.2181816000000083,
          "durationTicks": 192,
          "midi": 45,
          "name": "A2",
          "ticks": 89040,
          "time": 101.18171699999999,
          "velocity": 0.84251968503937
        },
        {
          "duration": 0.2181816000000083,
          "durationTicks": 192,
          "midi": 45,
          "name": "A2",
          "ticks": 89280,
          "time": 101.454444,
          "velocity": 0.7480314960629921
        },
        {
          "duration": 0.2181816000000083,
          "durationTicks": 192,
          "midi": 45,
          "name": "A2",
          "ticks": 89520,
          "time": 101.727171,
          "velocity": 0.7874015748031497
        },
        {
          "duration": 0.2181815999999941,
          "durationTicks": 192,
          "midi": 45,
          "name": "A2",
          "ticks": 89760,
          "time": 101.999898,
          "velocity": 0.8188976377952756
        },
        {
          "duration": 0.2181815999999941,
          "durationTicks": 192,
          "midi": 45,
          "name": "A2",
          "ticks": 90000,
          "time": 102.272625,
          "velocity": 0.8267716535433071
        },
        {
          "duration": 0.2181816000000083,
          "durationTicks": 192,
          "midi": 47,
          "name": "B2",
          "ticks": 90240,
          "time": 102.545352,
          "velocity": 0.7480314960629921
        },
        {
          "duration": 0.2181816000000083,
          "durationTicks": 192,
          "midi": 47,
          "name": "B2",
          "ticks": 90480,
          "time": 102.818079,
          "velocity": 0.7480314960629921
        },
        {
          "duration": 0.2181816000000083,
          "durationTicks": 192,
          "midi": 47,
          "name": "B2",
          "ticks": 90720,
          "time": 103.090806,
          "velocity": 0.8503937007874016
        },
        {
          "duration": 0.2181815999999941,
          "durationTicks": 192,
          "midi": 47,
          "name": "B2",
          "ticks": 90960,
          "time": 103.363533,
          "velocity": 0.8031496062992126
        },
        {
          "duration": 0.2181816000000083,
          "durationTicks": 192,
          "midi": 40,
          "name": "E2",
          "ticks": 91200,
          "time": 103.63626,
          "velocity": 0.84251968503937
        },
        {
          "duration": 0.2181816000000083,
          "durationTicks": 192,
          "midi": 40,
          "name": "E2",
          "ticks": 91440,
          "time": 103.908987,
          "velocity": 0.8267716535433071
        },
        {
          "duration": 0.2181816000000083,
          "durationTicks": 192,
          "midi": 40,
          "name": "E2",
          "ticks": 91680,
          "time": 104.181714,
          "velocity": 0.8110236220472441
        },
        {
          "duration": 0.2181815999999941,
          "durationTicks": 192,
          "midi": 40,
          "name": "E2",
          "ticks": 91920,
          "time": 104.454441,
          "velocity": 0.8582677165354331
        },
        {
          "duration": 0.2181815999999941,
          "durationTicks": 192,
          "midi": 45,
          "name": "A2",
          "ticks": 92160,
          "time": 104.727168,
          "velocity": 0.8582677165354331
        },
        {
          "duration": 0.2181816000000083,
          "durationTicks": 192,
          "midi": 45,
          "name": "A2",
          "ticks": 92400,
          "time": 104.999895,
          "velocity": 0.84251968503937
        },
        {
          "duration": 0.2181816000000083,
          "durationTicks": 192,
          "midi": 45,
          "name": "A2",
          "ticks": 92640,
          "time": 105.272622,
          "velocity": 0.8188976377952756
        },
        {
          "duration": 0.2181815999999941,
          "durationTicks": 192,
          "midi": 45,
          "name": "A2",
          "ticks": 92880,
          "time": 105.545349,
          "velocity": 0.8031496062992126
        },
        {
          "duration": 0.2181815999999941,
          "durationTicks": 192,
          "midi": 45,
          "name": "A2",
          "ticks": 93120,
          "time": 105.818076,
          "velocity": 0.8503937007874016
        },
        {
          "duration": 0.2181816000000083,
          "durationTicks": 192,
          "midi": 45,
          "name": "A2",
          "ticks": 93360,
          "time": 106.090803,
          "velocity": 0.8267716535433071
        },
        {
          "duration": 0.2181816000000083,
          "durationTicks": 192,
          "midi": 45,
          "name": "A2",
          "ticks": 93600,
          "time": 106.36353,
          "velocity": 0.8503937007874016
        },
        {
          "duration": 0.2181816000000083,
          "durationTicks": 192,
          "midi": 45,
          "name": "A2",
          "ticks": 93840,
          "time": 106.636257,
          "velocity": 0.84251968503937
        },
        {
          "duration": 0.2181815999999941,
          "durationTicks": 192,
          "midi": 38,
          "name": "D2",
          "ticks": 94080,
          "time": 106.908984,
          "velocity": 0.8503937007874016
        },
        {
          "duration": 0.2181816000000083,
          "durationTicks": 192,
          "midi": 38,
          "name": "D2",
          "ticks": 94320,
          "time": 107.18171099999999,
          "velocity": 0.8582677165354331
        },
        {
          "duration": 0.2181816000000083,
          "durationTicks": 192,
          "midi": 38,
          "name": "D2",
          "ticks": 94560,
          "time": 107.454438,
          "velocity": 0.7480314960629921
        },
        {
          "duration": 0.2181816000000083,
          "durationTicks": 192,
          "midi": 38,
          "name": "D2",
          "ticks": 94800,
          "time": 107.727165,
          "velocity": 0.7716535433070866
        },
        {
          "duration": 0.2181815999999941,
          "durationTicks": 192,
          "midi": 40,
          "name": "E2",
          "ticks": 95040,
          "time": 107.999892,
          "velocity": 0.8582677165354331
        },
        {
          "duration": 0.2181815999999941,
          "durationTicks": 192,
          "midi": 40,
          "name": "E2",
          "ticks": 95280,
          "time": 108.272619,
          "velocity": 0.84251968503937
        },
        {
          "duration": 0.2181816000000083,
          "durationTicks": 192,
          "midi": 40,
          "name": "E2",
          "ticks": 95520,
          "time": 108.545346,
          "velocity": 0.84251968503937
        },
        {
          "duration": 0.2181816000000083,
          "durationTicks": 192,
          "midi": 40,
          "name": "E2",
          "ticks": 95760,
          "time": 108.818073,
          "velocity": 0.8582677165354331
        },
        {
          "duration": 0.2181815999999941,
          "durationTicks": 192,
          "midi": 45,
          "name": "A2",
          "ticks": 96000,
          "time": 109.0908,
          "velocity": 0.8267716535433071
        },
        {
          "duration": 0.2181815999999941,
          "durationTicks": 192,
          "midi": 45,
          "name": "A2",
          "ticks": 96240,
          "time": 109.363527,
          "velocity": 0.8503937007874016
        },
        {
          "duration": 0.2181816000000083,
          "durationTicks": 192,
          "midi": 45,
          "name": "A2",
          "ticks": 96480,
          "time": 109.636254,
          "velocity": 0.7165354330708661
        },
        {
          "duration": 0.2181816000000083,
          "durationTicks": 192,
          "midi": 45,
          "name": "A2",
          "ticks": 96720,
          "time": 109.908981,
          "velocity": 0.8188976377952756
        },
        {
          "duration": 0.2181816000000083,
          "durationTicks": 192,
          "midi": 42,
          "name": "F#2",
          "ticks": 96960,
          "time": 110.181708,
          "velocity": 0.8267716535433071
        },
        {
          "duration": 0.2181815999999941,
          "durationTicks": 192,
          "midi": 42,
          "name": "F#2",
          "ticks": 97200,
          "time": 110.454435,
          "velocity": 0.8031496062992126
        },
        {
          "duration": 0.2181816000000083,
          "durationTicks": 192,
          "midi": 42,
          "name": "F#2",
          "ticks": 97440,
          "time": 110.72716199999999,
          "velocity": 0.8031496062992126
        },
        {
          "duration": 0.2181816000000083,
          "durationTicks": 192,
          "midi": 42,
          "name": "F#2",
          "ticks": 97680,
          "time": 110.999889,
          "velocity": 0.7795275590551181
        },
        {
          "duration": 0.2181816000000083,
          "durationTicks": 192,
          "midi": 47,
          "name": "B2",
          "ticks": 97920,
          "time": 111.272616,
          "velocity": 0.7480314960629921
        },
        {
          "duration": 0.2181815999999941,
          "durationTicks": 192,
          "midi": 47,
          "name": "B2",
          "ticks": 98160,
          "time": 111.545343,
          "velocity": 0.8503937007874016
        },
        {
          "duration": 0.2181815999999941,
          "durationTicks": 192,
          "midi": 47,
          "name": "B2",
          "ticks": 98400,
          "time": 111.81807,
          "velocity": 0.8188976377952756
        },
        {
          "duration": 0.2181816000000083,
          "durationTicks": 192,
          "midi": 47,
          "name": "B2",
          "ticks": 98640,
          "time": 112.090797,
          "velocity": 0.84251968503937
        },
        {
          "duration": 0.2181816000000083,
          "durationTicks": 192,
          "midi": 47,
          "name": "B2",
          "ticks": 98880,
          "time": 112.363524,
          "velocity": 0.7795275590551181
        },
        {
          "duration": 0.2181815999999941,
          "durationTicks": 192,
          "midi": 47,
          "name": "B2",
          "ticks": 99120,
          "time": 112.636251,
          "velocity": 0.8031496062992126
        },
        {
          "duration": 0.2181815999999941,
          "durationTicks": 192,
          "midi": 47,
          "name": "B2",
          "ticks": 99360,
          "time": 112.908978,
          "velocity": 0.7952755905511811
        },
        {
          "duration": 0.2181816000000083,
          "durationTicks": 192,
          "midi": 47,
          "name": "B2",
          "ticks": 99600,
          "time": 113.181705,
          "velocity": 0.8031496062992126
        },
        {
          "duration": 0.2181816000000083,
          "durationTicks": 192,
          "midi": 40,
          "name": "E2",
          "ticks": 99840,
          "time": 113.454432,
          "velocity": 0.7795275590551181
        },
        {
          "duration": 0.2181816000000083,
          "durationTicks": 192,
          "midi": 40,
          "name": "E2",
          "ticks": 100080,
          "time": 113.727159,
          "velocity": 0.7244094488188977
        },
        {
          "duration": 0.2181815999999941,
          "durationTicks": 192,
          "midi": 40,
          "name": "E2",
          "ticks": 100320,
          "time": 113.999886,
          "velocity": 0.8582677165354331
        },
        {
          "duration": 0.10909080000000415,
          "durationTicks": 96,
          "midi": 40,
          "name": "E2",
          "ticks": 100560,
          "time": 114.27261299999999,
          "velocity": 0.7244094488188977
        },
        {
          "duration": 0.10909080000000415,
          "durationTicks": 96,
          "midi": 40,
          "name": "E2",
          "ticks": 100680,
          "time": 114.4089765,
          "velocity": 0.7795275590551181
        },
        {
          "duration": 0.2181816000000083,
          "durationTicks": 192,
          "midi": 40,
          "name": "E2",
          "ticks": 100800,
          "time": 114.54534,
          "velocity": 0.8503937007874016
        },
        {
          "duration": 0.2181816000000083,
          "durationTicks": 192,
          "midi": 40,
          "name": "E2",
          "ticks": 101040,
          "time": 114.818067,
          "velocity": 0.8346456692913385
        },
        {
          "duration": 0.2181815999999941,
          "durationTicks": 192,
          "midi": 40,
          "name": "E2",
          "ticks": 101280,
          "time": 115.090794,
          "velocity": 0.84251968503937
        },
        {
          "duration": 0.10909079999998994,
          "durationTicks": 96,
          "midi": 40,
          "name": "E2",
          "ticks": 101520,
          "time": 115.363521,
          "velocity": 0.8267716535433071
        },
        {
          "duration": 0.10909080000000415,
          "durationTicks": 96,
          "midi": 40,
          "name": "E2",
          "ticks": 101640,
          "time": 115.4998845,
          "velocity": 0.7795275590551181
        },
        {
          "duration": 0.2181816000000083,
          "durationTicks": 192,
          "midi": 41,
          "name": "F2",
          "ticks": 101760,
          "time": 115.636248,
          "velocity": 0.7716535433070866
        },
        {
          "duration": 0.2181816000000083,
          "durationTicks": 192,
          "midi": 41,
          "name": "F2",
          "ticks": 102000,
          "time": 115.908975,
          "velocity": 0.8188976377952756
        },
        {
          "duration": 0.2181815999999941,
          "durationTicks": 192,
          "midi": 41,
          "name": "F2",
          "ticks": 102240,
          "time": 116.181702,
          "velocity": 0.7952755905511811
        },
        {
          "duration": 0.10909079999998994,
          "durationTicks": 96,
          "midi": 41,
          "name": "F2",
          "ticks": 102480,
          "time": 116.454429,
          "velocity": 0.8346456692913385
        },
        {
          "duration": 0.10909080000000415,
          "durationTicks": 96,
          "midi": 41,
          "name": "F2",
          "ticks": 102600,
          "time": 116.59079249999999,
          "velocity": 0.7716535433070866
        },
        {
          "duration": 0.2181816000000083,
          "durationTicks": 192,
          "midi": 41,
          "name": "F2",
          "ticks": 102720,
          "time": 116.727156,
          "velocity": 0.7165354330708661
        },
        {
          "duration": 0.2181816000000083,
          "durationTicks": 192,
          "midi": 41,
          "name": "F2",
          "ticks": 102960,
          "time": 116.999883,
          "velocity": 0.8503937007874016
        },
        {
          "duration": 0.2181816000000083,
          "durationTicks": 192,
          "midi": 41,
          "name": "F2",
          "ticks": 103200,
          "time": 117.27261,
          "velocity": 0.7874015748031497
        },
        {
          "duration": 0.1909088999999966,
          "durationTicks": 168,
          "midi": 41,
          "name": "F2",
          "ticks": 103440,
          "time": 117.545337,
          "velocity": 0.8582677165354331
        },
        {
          "duration": 0.2181816000000083,
          "durationTicks": 192,
          "midi": 34,
          "name": "A#1",
          "ticks": 103680,
          "time": 117.81806399999999,
          "velocity": 0.8267716535433071
        },
        {
          "duration": 0.2181816000000083,
          "durationTicks": 192,
          "midi": 34,
          "name": "A#1",
          "ticks": 103920,
          "time": 118.090791,
          "velocity": 0.7244094488188977
        },
        {
          "duration": 0.2181816000000083,
          "durationTicks": 192,
          "midi": 34,
          "name": "A#1",
          "ticks": 104160,
          "time": 118.363518,
          "velocity": 0.7559055118110236
        },
        {
          "duration": 0.2181815999999941,
          "durationTicks": 192,
          "midi": 34,
          "name": "A#1",
          "ticks": 104400,
          "time": 118.636245,
          "velocity": 0.8346456692913385
        },
        {
          "duration": 0.2181815999999941,
          "durationTicks": 192,
          "midi": 34,
          "name": "A#1",
          "ticks": 104640,
          "time": 118.908972,
          "velocity": 0.8110236220472441
        },
        {
          "duration": 0.2181816000000083,
          "durationTicks": 192,
          "midi": 34,
          "name": "A#1",
          "ticks": 104880,
          "time": 119.181699,
          "velocity": 0.8110236220472441
        },
        {
          "duration": 0.2181816000000083,
          "durationTicks": 192,
          "midi": 34,
          "name": "A#1",
          "ticks": 105120,
          "time": 119.454426,
          "velocity": 0.8110236220472441
        },
        {
          "duration": 0.10909079999998994,
          "durationTicks": 96,
          "midi": 34,
          "name": "A#1",
          "ticks": 105360,
          "time": 119.727153,
          "velocity": 0.84251968503937
        },
        {
          "duration": 0.10909079999998994,
          "durationTicks": 96,
          "midi": 34,
          "name": "A#1",
          "ticks": 105480,
          "time": 119.8635165,
          "velocity": 0.8267716535433071
        },
        {
          "duration": 0.2181815999999941,
          "durationTicks": 192,
          "midi": 31,
          "name": "G1",
          "ticks": 105600,
          "time": 119.99988,
          "velocity": 0.7952755905511811
        },
        {
          "duration": 0.2181816000000083,
          "durationTicks": 192,
          "midi": 31,
          "name": "G1",
          "ticks": 105840,
          "time": 120.272607,
          "velocity": 0.7401574803149606
        },
        {
          "duration": 0.2181816000000083,
          "durationTicks": 192,
          "midi": 31,
          "name": "G1",
          "ticks": 106080,
          "time": 120.545334,
          "velocity": 0.7795275590551181
        },
        {
          "duration": 0.2181816000000083,
          "durationTicks": 192,
          "midi": 31,
          "name": "G1",
          "ticks": 106320,
          "time": 120.818061,
          "velocity": 0.8346456692913385
        },
        {
          "duration": 0.2181815999999941,
          "durationTicks": 192,
          "midi": 31,
          "name": "G1",
          "ticks": 106560,
          "time": 121.090788,
          "velocity": 0.7480314960629921
        },
        {
          "duration": 0.2181816000000083,
          "durationTicks": 192,
          "midi": 31,
          "name": "G1",
          "ticks": 106800,
          "time": 121.36351499999999,
          "velocity": 0.8582677165354331
        },
        {
          "duration": 0.2181816000000083,
          "durationTicks": 192,
          "midi": 31,
          "name": "G1",
          "ticks": 107040,
          "time": 121.636242,
          "velocity": 0.8110236220472441
        },
        {
          "duration": 0.2181816000000083,
          "durationTicks": 192,
          "midi": 31,
          "name": "G1",
          "ticks": 107280,
          "time": 121.908969,
          "velocity": 0.7559055118110236
        },
        {
          "duration": 0.2181815999999941,
          "durationTicks": 192,
          "midi": 39,
          "name": "D#2",
          "ticks": 107520,
          "time": 122.181696,
          "velocity": 0.7952755905511811
        },
        {
          "duration": 0.2181815999999941,
          "durationTicks": 192,
          "midi": 39,
          "name": "D#2",
          "ticks": 107760,
          "time": 122.454423,
          "velocity": 0.7952755905511811
        },
        {
          "duration": 0.2181816000000083,
          "durationTicks": 192,
          "midi": 39,
          "name": "D#2",
          "ticks": 108000,
          "time": 122.72715,
          "velocity": 0.8346456692913385
        },
        {
          "duration": 0.10909079999998994,
          "durationTicks": 96,
          "midi": 39,
          "name": "D#2",
          "ticks": 108240,
          "time": 122.999877,
          "velocity": 0.7716535433070866
        },
        {
          "duration": 0.2181815999999941,
          "durationTicks": 192,
          "midi": 39,
          "name": "D#2",
          "ticks": 108480,
          "time": 123.272604,
          "velocity": 0.8503937007874016
        },
        {
          "duration": 0.2181815999999941,
          "durationTicks": 192,
          "midi": 39,
          "name": "D#2",
          "ticks": 108720,
          "time": 123.545331,
          "velocity": 0.7716535433070866
        },
        {
          "duration": 0.2181816000000083,
          "durationTicks": 192,
          "midi": 39,
          "name": "D#2",
          "ticks": 108960,
          "time": 123.818058,
          "velocity": 0.8267716535433071
        },
        {
          "duration": 0.10909079999998994,
          "durationTicks": 96,
          "midi": 34,
          "name": "A#1",
          "ticks": 109200,
          "time": 124.090785,
          "velocity": 0.8031496062992126
        },
        {
          "duration": 0.10909079999998994,
          "durationTicks": 96,
          "midi": 34,
          "name": "A#1",
          "ticks": 109320,
          "time": 124.2271485,
          "velocity": 0.8346456692913385
        },
        {
          "duration": 0.2181816000000083,
          "durationTicks": 192,
          "midi": 39,
          "name": "D#2",
          "ticks": 109440,
          "time": 124.363512,
          "velocity": 0.7637795275590551
        },
        {
          "duration": 0.2181815999999941,
          "durationTicks": 192,
          "midi": 39,
          "name": "D#2",
          "ticks": 109680,
          "time": 124.636239,
          "velocity": 0.8267716535433071
        },
        {
          "duration": 0.2181816000000083,
          "durationTicks": 192,
          "midi": 39,
          "name": "D#2",
          "ticks": 109920,
          "time": 124.90896599999999,
          "velocity": 0.8582677165354331
        },
        {
          "duration": 0.10909079999998994,
          "durationTicks": 96,
          "midi": 39,
          "name": "D#2",
          "ticks": 110160,
          "time": 125.181693,
          "velocity": 0.8346456692913385
        },
        {
          "duration": 0.2181816000000083,
          "durationTicks": 192,
          "midi": 39,
          "name": "D#2",
          "ticks": 110400,
          "time": 125.45442,
          "velocity": 0.8188976377952756
        },
        {
          "duration": 0.2181815999999941,
          "durationTicks": 192,
          "midi": 34,
          "name": "A#1",
          "ticks": 110640,
          "time": 125.727147,
          "velocity": 0.8346456692913385
        },
        {
          "duration": 0.2181815999999941,
          "durationTicks": 192,
          "midi": 39,
          "name": "D#2",
          "ticks": 110880,
          "time": 125.999874,
          "velocity": 0.8031496062992126
        },
        {
          "duration": 0.2181816000000083,
          "durationTicks": 192,
          "midi": 39,
          "name": "D#2",
          "ticks": 111120,
          "time": 126.272601,
          "velocity": 0.8503937007874016
        },
        {
          "duration": 0.2181816000000083,
          "durationTicks": 192,
          "midi": 34,
          "name": "A#1",
          "ticks": 111360,
          "time": 126.545328,
          "velocity": 0.7637795275590551
        },
        {
          "duration": 0.2181815999999941,
          "durationTicks": 192,
          "midi": 34,
          "name": "A#1",
          "ticks": 111600,
          "time": 126.818055,
          "velocity": 0.84251968503937
        },
        {
          "duration": 0.2181815999999941,
          "durationTicks": 192,
          "midi": 34,
          "name": "A#1",
          "ticks": 111840,
          "time": 127.090782,
          "velocity": 0.8188976377952756
        },
        {
          "duration": 0.10909080000000415,
          "durationTicks": 96,
          "midi": 34,
          "name": "A#1",
          "ticks": 112080,
          "time": 127.363509,
          "velocity": 0.8188976377952756
        },
        {
          "duration": 0.10909080000000415,
          "durationTicks": 96,
          "midi": 34,
          "name": "A#1",
          "ticks": 112200,
          "time": 127.4998725,
          "velocity": 0.8110236220472441
        },
        {
          "duration": 0.2181816000000083,
          "durationTicks": 192,
          "midi": 38,
          "name": "D2",
          "ticks": 112320,
          "time": 127.636236,
          "velocity": 0.7952755905511811
        },
        {
          "duration": 0.2181816000000083,
          "durationTicks": 192,
          "midi": 38,
          "name": "D2",
          "ticks": 112560,
          "time": 127.908963,
          "velocity": 0.8267716535433071
        },
        {
          "duration": 0.2181816000000083,
          "durationTicks": 192,
          "midi": 38,
          "name": "D2",
          "ticks": 112800,
          "time": 128.18169,
          "velocity": 0.84251968503937
        },
        {
          "duration": 0.10909079999998994,
          "durationTicks": 96,
          "midi": 38,
          "name": "D2",
          "ticks": 113040,
          "time": 128.454417,
          "velocity": 0.7716535433070866
        },
        {
          "duration": 0.10909079999998994,
          "durationTicks": 96,
          "midi": 38,
          "name": "D2",
          "ticks": 113160,
          "time": 128.5907805,
          "velocity": 0.8267716535433071
        },
        {
          "duration": 0.21818159999997988,
          "durationTicks": 192,
          "midi": 43,
          "name": "G2",
          "ticks": 113280,
          "time": 128.727144,
          "velocity": 0.8346456692913385
        },
        {
          "duration": 0.2181816000000083,
          "durationTicks": 192,
          "midi": 43,
          "name": "G2",
          "ticks": 113520,
          "time": 128.99987099999998,
          "velocity": 0.7874015748031497
        },
        {
          "duration": 0.2181816000000083,
          "durationTicks": 192,
          "midi": 43,
          "name": "G2",
          "ticks": 113760,
          "time": 129.272598,
          "velocity": 0.7952755905511811
        },
        {
          "duration": 0.10909079999998994,
          "durationTicks": 96,
          "midi": 43,
          "name": "G2",
          "ticks": 114000,
          "time": 129.545325,
          "velocity": 0.7795275590551181
        },
        {
          "duration": 0.10909079999998994,
          "durationTicks": 96,
          "midi": 43,
          "name": "G2",
          "ticks": 114120,
          "time": 129.6816885,
          "velocity": 0.7480314960629921
        },
        {
          "duration": 0.2181816000000083,
          "durationTicks": 192,
          "midi": 34,
          "name": "A#1",
          "ticks": 114240,
          "time": 129.818052,
          "velocity": 0.8031496062992126
        },
        {
          "duration": 0.2181816000000083,
          "durationTicks": 192,
          "midi": 34,
          "name": "A#1",
          "ticks": 114480,
          "time": 130.090779,
          "velocity": 0.8582677165354331
        },
        {
          "duration": 0.2181816000000083,
          "durationTicks": 192,
          "midi": 34,
          "name": "A#1",
          "ticks": 114720,
          "time": 130.363506,
          "velocity": 0.7401574803149606
        },
        {
          "duration": 0.2090906999999902,
          "durationTicks": 184,
          "midi": 34,
          "name": "A#1",
          "ticks": 114960,
          "time": 130.636233,
          "velocity": 0.7716535433070866
        },
        {
          "duration": 0.2181816000000083,
          "durationTicks": 192,
          "midi": 39,
          "name": "D#2",
          "ticks": 115200,
          "time": 130.90896,
          "velocity": 0.7244094488188977
        },
        {
          "duration": 0.21818159999997988,
          "durationTicks": 192,
          "midi": 39,
          "name": "D#2",
          "ticks": 115440,
          "time": 131.181687,
          "velocity": 0.7795275590551181
        },
        {
          "duration": 0.2181816000000083,
          "durationTicks": 192,
          "midi": 38,
          "name": "D2",
          "ticks": 115680,
          "time": 131.45441399999999,
          "velocity": 0.8031496062992126
        },
        {
          "duration": 0.2181816000000083,
          "durationTicks": 192,
          "midi": 38,
          "name": "D2",
          "ticks": 115920,
          "time": 131.727141,
          "velocity": 0.8188976377952756
        },
        {
          "duration": 0.2181816000000083,
          "durationTicks": 192,
          "midi": 36,
          "name": "C2",
          "ticks": 116160,
          "time": 131.999868,
          "velocity": 0.8582677165354331
        },
        {
          "duration": 0.2181816000000083,
          "durationTicks": 192,
          "midi": 36,
          "name": "C2",
          "ticks": 116400,
          "time": 132.272595,
          "velocity": 0.7795275590551181
        },
        {
          "duration": 0.2181816000000083,
          "durationTicks": 192,
          "midi": 36,
          "name": "C2",
          "ticks": 116640,
          "time": 132.545322,
          "velocity": 0.7716535433070866
        },
        {
          "duration": 0.1999998000000005,
          "durationTicks": 176,
          "midi": 39,
          "name": "D#2",
          "ticks": 116880,
          "time": 132.818049,
          "velocity": 0.8188976377952756
        },
        {
          "duration": 0.2181816000000083,
          "durationTicks": 192,
          "midi": 41,
          "name": "F2",
          "ticks": 117120,
          "time": 133.090776,
          "velocity": 0.8503937007874016
        },
        {
          "duration": 0.21818159999997988,
          "durationTicks": 192,
          "midi": 41,
          "name": "F2",
          "ticks": 117360,
          "time": 133.363503,
          "velocity": 0.7952755905511811
        },
        {
          "duration": 0.21818159999997988,
          "durationTicks": 192,
          "midi": 41,
          "name": "F2",
          "ticks": 117600,
          "time": 133.63623,
          "velocity": 0.8346456692913385
        },
        {
          "duration": 0.2181816000000083,
          "durationTicks": 192,
          "midi": 41,
          "name": "F2",
          "ticks": 117840,
          "time": 133.908957,
          "velocity": 0.8110236220472441
        },
        {
          "duration": 0.2181816000000083,
          "durationTicks": 192,
          "midi": 41,
          "name": "F2",
          "ticks": 118080,
          "time": 134.181684,
          "velocity": 0.84251968503937
        },
        {
          "duration": 0.2181816000000083,
          "durationTicks": 192,
          "midi": 41,
          "name": "F2",
          "ticks": 118320,
          "time": 134.454411,
          "velocity": 0.7244094488188977
        },
        {
          "duration": 0.2181816000000083,
          "durationTicks": 192,
          "midi": 41,
          "name": "F2",
          "ticks": 118560,
          "time": 134.727138,
          "velocity": 0.84251968503937
        },
        {
          "duration": 0.2181816000000083,
          "durationTicks": 192,
          "midi": 41,
          "name": "F2",
          "ticks": 118800,
          "time": 134.999865,
          "velocity": 0.7795275590551181
        },
        {
          "duration": 0.2181816000000083,
          "durationTicks": 192,
          "midi": 46,
          "name": "A#2",
          "ticks": 119040,
          "time": 135.272592,
          "velocity": 0.84251968503937
        },
        {
          "duration": 0.2181816000000083,
          "durationTicks": 192,
          "midi": 46,
          "name": "A#2",
          "ticks": 119280,
          "time": 135.545319,
          "velocity": 0.7716535433070866
        },
        {
          "duration": 0.21818159999997988,
          "durationTicks": 192,
          "midi": 46,
          "name": "A#2",
          "ticks": 119520,
          "time": 135.818046,
          "velocity": 0.7874015748031497
        },
        {
          "duration": 0.2181816000000083,
          "durationTicks": 192,
          "midi": 46,
          "name": "A#2",
          "ticks": 119760,
          "time": 136.09077299999998,
          "velocity": 0.8267716535433071
        },
        {
          "duration": 0.2181816000000083,
          "durationTicks": 192,
          "midi": 45,
          "name": "A2",
          "ticks": 120000,
          "time": 136.3635,
          "velocity": 0.7637795275590551
        },
        {
          "duration": 0.2181816000000083,
          "durationTicks": 192,
          "midi": 45,
          "name": "A2",
          "ticks": 120240,
          "time": 136.636227,
          "velocity": 0.7952755905511811
        },
        {
          "duration": 0.2181816000000083,
          "durationTicks": 192,
          "midi": 45,
          "name": "A2",
          "ticks": 120480,
          "time": 136.908954,
          "velocity": 0.7952755905511811
        },
        {
          "duration": 0.2181816000000083,
          "durationTicks": 192,
          "midi": 45,
          "name": "A2",
          "ticks": 120720,
          "time": 137.181681,
          "velocity": 0.84251968503937
        },
        {
          "duration": 0.2181816000000083,
          "durationTicks": 192,
          "midi": 43,
          "name": "G2",
          "ticks": 120960,
          "time": 137.454408,
          "velocity": 0.7874015748031497
        },
        {
          "duration": 0.2181816000000083,
          "durationTicks": 192,
          "midi": 43,
          "name": "G2",
          "ticks": 121200,
          "time": 137.727135,
          "velocity": 0.84251968503937
        },
        {
          "duration": 0.2181816000000083,
          "durationTicks": 192,
          "midi": 43,
          "name": "G2",
          "ticks": 121440,
          "time": 137.999862,
          "velocity": 0.8346456692913385
        },
        {
          "duration": 0.21818159999997988,
          "durationTicks": 192,
          "midi": 43,
          "name": "G2",
          "ticks": 121680,
          "time": 138.272589,
          "velocity": 0.84251968503937
        },
        {
          "duration": 0.2181816000000083,
          "durationTicks": 192,
          "midi": 41,
          "name": "F2",
          "ticks": 121920,
          "time": 138.54531599999999,
          "velocity": 0.8188976377952756
        },
        {
          "duration": 0.2181816000000083,
          "durationTicks": 192,
          "midi": 41,
          "name": "F2",
          "ticks": 122160,
          "time": 138.818043,
          "velocity": 0.8346456692913385
        },
        {
          "duration": 0.2181816000000083,
          "durationTicks": 192,
          "midi": 41,
          "name": "F2",
          "ticks": 122400,
          "time": 139.09077,
          "velocity": 0.8188976377952756
        },
        {
          "duration": 0.2181816000000083,
          "durationTicks": 192,
          "midi": 41,
          "name": "F2",
          "ticks": 122640,
          "time": 139.363497,
          "velocity": 0.7795275590551181
        },
        {
          "duration": 0.21818159999997988,
          "durationTicks": 192,
          "midi": 39,
          "name": "D#2",
          "ticks": 122880,
          "time": 139.636224,
          "velocity": 0.8110236220472441
        },
        {
          "duration": 0.21818159999997988,
          "durationTicks": 192,
          "midi": 39,
          "name": "D#2",
          "ticks": 123120,
          "time": 139.908951,
          "velocity": 0.8346456692913385
        },
        {
          "duration": 0.21818159999997988,
          "durationTicks": 192,
          "midi": 39,
          "name": "D#2",
          "ticks": 123360,
          "time": 140.181678,
          "velocity": 0.8503937007874016
        },
        {
          "duration": 0.10909079999998994,
          "durationTicks": 96,
          "midi": 39,
          "name": "D#2",
          "ticks": 123600,
          "time": 140.454405,
          "velocity": 0.8582677165354331
        },
        {
          "duration": 0.10909079999998994,
          "durationTicks": 96,
          "midi": 39,
          "name": "D#2",
          "ticks": 123720,
          "time": 140.5907685,
          "velocity": 0.8110236220472441
        },
        {
          "duration": 0.21818159999997988,
          "durationTicks": 192,
          "midi": 41,
          "name": "F2",
          "ticks": 123840,
          "time": 140.727132,
          "velocity": 0.8503937007874016
        },
        {
          "duration": 0.2181816000000083,
          "durationTicks": 192,
          "midi": 41,
          "name": "F2",
          "ticks": 124080,
          "time": 140.999859,
          "velocity": 0.8582677165354331
        },
        {
          "duration": 0.2181816000000083,
          "durationTicks": 192,
          "midi": 41,
          "name": "F2",
          "ticks": 124320,
          "time": 141.272586,
          "velocity": 0.8110236220472441
        },
        {
          "duration": 0.10909079999998994,
          "durationTicks": 96,
          "midi": 41,
          "name": "F2",
          "ticks": 124560,
          "time": 141.545313,
          "velocity": 0.7401574803149606
        },
        {
          "duration": 0.09545445000000541,
          "durationTicks": 84,
          "midi": 41,
          "name": "F2",
          "ticks": 124680,
          "time": 141.6816765,
          "velocity": 0.7795275590551181
        },
        {
          "duration": 0.21818159999997988,
          "durationTicks": 192,
          "midi": 34,
          "name": "A#1",
          "ticks": 124800,
          "time": 141.81804,
          "velocity": 0.8267716535433071
        },
        {
          "duration": 0.21818159999997988,
          "durationTicks": 192,
          "midi": 34,
          "name": "A#1",
          "ticks": 125040,
          "time": 142.090767,
          "velocity": 0.8346456692913385
        },
        {
          "duration": 0.10909079999998994,
          "durationTicks": 96,
          "midi": 37,
          "name": "C#2",
          "ticks": 125280,
          "time": 142.363494,
          "velocity": 0.8267716535433071
        },
        {
          "duration": 0.10909079999998994,
          "durationTicks": 96,
          "midi": 38,
          "name": "D2",
          "ticks": 125400,
          "time": 142.4998575,
          "velocity": 0.7244094488188977
        },
        {
          "duration": 0.4363631999999882,
          "durationTicks": 384,
          "midi": 41,
          "name": "F2",
          "ticks": 125520,
          "time": 142.636221,
          "velocity": 0.7244094488188977
        },
        {
          "duration": 0.21818159999997988,
          "durationTicks": 192,
          "midi": 41,
          "name": "F2",
          "ticks": 126000,
          "time": 143.181675,
          "velocity": 0.8267716535433071
        },
        {
          "duration": 0.2181816000000083,
          "durationTicks": 192,
          "midi": 43,
          "name": "G2",
          "ticks": 126240,
          "time": 143.454402,
          "velocity": 0.8110236220472441
        },
        {
          "duration": 0.2181816000000083,
          "durationTicks": 192,
          "midi": 46,
          "name": "A#2",
          "ticks": 126480,
          "time": 143.727129,
          "velocity": 0.7401574803149606
        },
        {
          "duration": 0.21818159999997988,
          "durationTicks": 192,
          "midi": 46,
          "name": "A#2",
          "ticks": 126720,
          "time": 143.999856,
          "velocity": 0.8031496062992126
        },
        {
          "duration": 0.21818159999997988,
          "durationTicks": 192,
          "midi": 46,
          "name": "A#2",
          "ticks": 126960,
          "time": 144.272583,
          "velocity": 0.84251968503937
        },
        {
          "duration": 0.21818159999997988,
          "durationTicks": 192,
          "midi": 46,
          "name": "A#2",
          "ticks": 127200,
          "time": 144.54531,
          "velocity": 0.7716535433070866
        },
        {
          "duration": 0.21818159999997988,
          "durationTicks": 192,
          "midi": 46,
          "name": "A#2",
          "ticks": 127440,
          "time": 144.818037,
          "velocity": 0.84251968503937
        },
        {
          "duration": 0.21818159999997988,
          "durationTicks": 192,
          "midi": 45,
          "name": "A2",
          "ticks": 127680,
          "time": 145.090764,
          "velocity": 0.8031496062992126
        },
        {
          "duration": 0.21818159999997988,
          "durationTicks": 192,
          "midi": 45,
          "name": "A2",
          "ticks": 127920,
          "time": 145.363491,
          "velocity": 0.8267716535433071
        },
        {
          "duration": 0.2181816000000083,
          "durationTicks": 192,
          "midi": 45,
          "name": "A2",
          "ticks": 128160,
          "time": 145.63621799999999,
          "velocity": 0.8503937007874016
        },
        {
          "duration": 0.2181816000000083,
          "durationTicks": 192,
          "midi": 45,
          "name": "A2",
          "ticks": 128400,
          "time": 145.908945,
          "velocity": 0.8503937007874016
        },
        {
          "duration": 0.2181816000000083,
          "durationTicks": 192,
          "midi": 43,
          "name": "G2",
          "ticks": 128640,
          "time": 146.181672,
          "velocity": 0.7165354330708661
        },
        {
          "duration": 0.21818159999997988,
          "durationTicks": 192,
          "midi": 43,
          "name": "G2",
          "ticks": 128880,
          "time": 146.454399,
          "velocity": 0.7795275590551181
        },
        {
          "duration": 0.21818159999997988,
          "durationTicks": 192,
          "midi": 43,
          "name": "G2",
          "ticks": 129120,
          "time": 146.727126,
          "velocity": 0.7480314960629921
        },
        {
          "duration": 0.21818159999997988,
          "durationTicks": 192,
          "midi": 43,
          "name": "G2",
          "ticks": 129360,
          "time": 146.999853,
          "velocity": 0.8110236220472441
        },
        {
          "duration": 0.21818159999997988,
          "durationTicks": 192,
          "midi": 41,
          "name": "F2",
          "ticks": 129600,
          "time": 147.27258,
          "velocity": 0.8031496062992126
        },
        {
          "duration": 0.21818159999997988,
          "durationTicks": 192,
          "midi": 41,
          "name": "F2",
          "ticks": 129840,
          "time": 147.545307,
          "velocity": 0.8582677165354331
        },
        {
          "duration": 0.21818159999997988,
          "durationTicks": 192,
          "midi": 41,
          "name": "F2",
          "ticks": 130080,
          "time": 147.818034,
          "velocity": 0.8346456692913385
        },
        {
          "duration": 0.2181816000000083,
          "durationTicks": 192,
          "midi": 41,
          "name": "F2",
          "ticks": 130320,
          "time": 148.090761,
          "velocity": 0.84251968503937
        },
        {
          "duration": 0.2181816000000083,
          "durationTicks": 192,
          "midi": 39,
          "name": "D#2",
          "ticks": 130560,
          "time": 148.363488,
          "velocity": 0.7480314960629921
        },
        {
          "duration": 0.21818159999997988,
          "durationTicks": 192,
          "midi": 39,
          "name": "D#2",
          "ticks": 130800,
          "time": 148.636215,
          "velocity": 0.7952755905511811
        },
        {
          "duration": 0.21818159999997988,
          "durationTicks": 192,
          "midi": 39,
          "name": "D#2",
          "ticks": 131040,
          "time": 148.908942,
          "velocity": 0.8110236220472441
        },
        {
          "duration": 0.10909079999998994,
          "durationTicks": 96,
          "midi": 39,
          "name": "D#2",
          "ticks": 131280,
          "time": 149.181669,
          "velocity": 0.8346456692913385
        },
        {
          "duration": 0.10909080000001836,
          "durationTicks": 96,
          "midi": 39,
          "name": "D#2",
          "ticks": 131400,
          "time": 149.3180325,
          "velocity": 0.7952755905511811
        },
        {
          "duration": 0.21818159999997988,
          "durationTicks": 192,
          "midi": 41,
          "name": "F2",
          "ticks": 131520,
          "time": 149.454396,
          "velocity": 0.7795275590551181
        },
        {
          "duration": 0.21818159999997988,
          "durationTicks": 192,
          "midi": 41,
          "name": "F2",
          "ticks": 131760,
          "time": 149.727123,
          "velocity": 0.8503937007874016
        },
        {
          "duration": 0.21818159999997988,
          "durationTicks": 192,
          "midi": 41,
          "name": "F2",
          "ticks": 132000,
          "time": 149.99985,
          "velocity": 0.8188976377952756
        },
        {
          "duration": 0.10909079999998994,
          "durationTicks": 96,
          "midi": 41,
          "name": "F2",
          "ticks": 132240,
          "time": 150.272577,
          "velocity": 0.8582677165354331
        },
        {
          "duration": 0.10909079999998994,
          "durationTicks": 96,
          "midi": 41,
          "name": "F2",
          "ticks": 132360,
          "time": 150.4089405,
          "velocity": 0.7952755905511811
        },
        {
          "duration": 0.2181816000000083,
          "durationTicks": 192,
          "midi": 34,
          "name": "A#1",
          "ticks": 132480,
          "time": 150.545304,
          "velocity": 0.7480314960629921
        },
        {
          "duration": 0.2181816000000083,
          "durationTicks": 192,
          "midi": 34,
          "name": "A#1",
          "ticks": 132720,
          "time": 150.818031,
          "velocity": 0.8031496062992126
        },
        {
          "duration": 0.10909079999998994,
          "durationTicks": 96,
          "midi": 37,
          "name": "C#2",
          "ticks": 132960,
          "time": 151.090758,
          "velocity": 0.8188976377952756
        },
        {
          "duration": 0.10909079999998994,
          "durationTicks": 96,
          "midi": 38,
          "name": "D2",
          "ticks": 133080,
          "time": 151.2271215,
          "velocity": 0.7244094488188977
        },
        {
          "duration": 0.4363632000000166,
          "durationTicks": 384,
          "midi": 41,
          "name": "F2",
          "ticks": 133200,
          "time": 151.363485,
          "velocity": 0.7559055118110236
        },
        {
          "duration": 0.21818159999997988,
          "durationTicks": 192,
          "midi": 41,
          "name": "F2",
          "ticks": 133680,
          "time": 151.908939,
          "velocity": 0.7480314960629921
        },
        {
          "duration": 0.21818159999997988,
          "durationTicks": 192,
          "midi": 43,
          "name": "G2",
          "ticks": 133920,
          "time": 152.181666,
          "velocity": 0.7322834645669292
        },
        {
          "duration": 0.21818159999997988,
          "durationTicks": 192,
          "midi": 46,
          "name": "A#2",
          "ticks": 134160,
          "time": 152.454393,
          "velocity": 0.8503937007874016
        },
        {
          "duration": 0.2181816000000083,
          "durationTicks": 192,
          "midi": 46,
          "name": "A#2",
          "ticks": 134400,
          "time": 152.72711999999999,
          "velocity": 0.8346456692913385
        },
        {
          "duration": 0.2181816000000083,
          "durationTicks": 192,
          "midi": 46,
          "name": "A#2",
          "ticks": 134640,
          "time": 152.999847,
          "velocity": 0.8110236220472441
        },
        {
          "duration": 0.2181816000000083,
          "durationTicks": 192,
          "midi": 46,
          "name": "A#2",
          "ticks": 134880,
          "time": 153.272574,
          "velocity": 0.8346456692913385
        },
        {
          "duration": 0.21818159999997988,
          "durationTicks": 192,
          "midi": 46,
          "name": "A#2",
          "ticks": 135120,
          "time": 153.545301,
          "velocity": 0.7322834645669292
        },
        {
          "duration": 0.21818159999997988,
          "durationTicks": 192,
          "midi": 45,
          "name": "A2",
          "ticks": 135360,
          "time": 153.818028,
          "velocity": 0.8346456692913385
        },
        {
          "duration": 0.21818159999997988,
          "durationTicks": 192,
          "midi": 45,
          "name": "A2",
          "ticks": 135600,
          "time": 154.090755,
          "velocity": 0.8267716535433071
        },
        {
          "duration": 0.21818159999997988,
          "durationTicks": 192,
          "midi": 45,
          "name": "A2",
          "ticks": 135840,
          "time": 154.363482,
          "velocity": 0.7165354330708661
        },
        {
          "duration": 0.21818159999997988,
          "durationTicks": 192,
          "midi": 45,
          "name": "A2",
          "ticks": 136080,
          "time": 154.636209,
          "velocity": 0.8503937007874016
        },
        {
          "duration": 0.21818159999997988,
          "durationTicks": 192,
          "midi": 43,
          "name": "G2",
          "ticks": 136320,
          "time": 154.908936,
          "velocity": 0.7952755905511811
        },
        {
          "duration": 0.2181816000000083,
          "durationTicks": 192,
          "midi": 43,
          "name": "G2",
          "ticks": 136560,
          "time": 155.181663,
          "velocity": 0.8346456692913385
        },
        {
          "duration": 0.2181816000000083,
          "durationTicks": 192,
          "midi": 43,
          "name": "G2",
          "ticks": 136800,
          "time": 155.45439,
          "velocity": 0.8188976377952756
        },
        {
          "duration": 0.21818159999997988,
          "durationTicks": 192,
          "midi": 43,
          "name": "G2",
          "ticks": 137040,
          "time": 155.727117,
          "velocity": 0.7952755905511811
        },
        {
          "duration": 0.21818159999997988,
          "durationTicks": 192,
          "midi": 41,
          "name": "F2",
          "ticks": 137280,
          "time": 155.999844,
          "velocity": 0.7165354330708661
        },
        {
          "duration": 0.21818159999997988,
          "durationTicks": 192,
          "midi": 41,
          "name": "F2",
          "ticks": 137520,
          "time": 156.272571,
          "velocity": 0.8188976377952756
        },
        {
          "duration": 0.21818159999997988,
          "durationTicks": 192,
          "midi": 41,
          "name": "F2",
          "ticks": 137760,
          "time": 156.545298,
          "velocity": 0.8267716535433071
        },
        {
          "duration": 0.21818159999997988,
          "durationTicks": 192,
          "midi": 41,
          "name": "F2",
          "ticks": 138000,
          "time": 156.818025,
          "velocity": 0.7559055118110236
        },
        {
          "duration": 0.21818159999997988,
          "durationTicks": 192,
          "midi": 39,
          "name": "D#2",
          "ticks": 138240,
          "time": 157.090752,
          "velocity": 0.7637795275590551
        },
        {
          "duration": 0.21818159999997988,
          "durationTicks": 192,
          "midi": 39,
          "name": "D#2",
          "ticks": 138480,
          "time": 157.363479,
          "velocity": 0.7874015748031497
        },
        {
          "duration": 0.2181816000000083,
          "durationTicks": 192,
          "midi": 39,
          "name": "D#2",
          "ticks": 138720,
          "time": 157.636206,
          "velocity": 0.7716535433070866
        },
        {
          "duration": 0.10909079999998994,
          "durationTicks": 96,
          "midi": 39,
          "name": "D#2",
          "ticks": 138960,
          "time": 157.908933,
          "velocity": 0.7874015748031497
        },
        {
          "duration": 0.10909079999998994,
          "durationTicks": 96,
          "midi": 39,
          "name": "D#2",
          "ticks": 139080,
          "time": 158.0452965,
          "velocity": 0.7401574803149606
        },
        {
          "duration": 0.21818159999997988,
          "durationTicks": 192,
          "midi": 41,
          "name": "F2",
          "ticks": 139200,
          "time": 158.18166,
          "velocity": 0.8188976377952756
        },
        {
          "duration": 0.21818159999997988,
          "durationTicks": 192,
          "midi": 41,
          "name": "F2",
          "ticks": 139440,
          "time": 158.454387,
          "velocity": 0.84251968503937
        },
        {
          "duration": 0.21818159999997988,
          "durationTicks": 192,
          "midi": 41,
          "name": "F2",
          "ticks": 139680,
          "time": 158.727114,
          "velocity": 0.8582677165354331
        },
        {
          "duration": 0.10909079999998994,
          "durationTicks": 96,
          "midi": 41,
          "name": "F2",
          "ticks": 139920,
          "time": 158.999841,
          "velocity": 0.8582677165354331
        },
        {
          "duration": 0.10909079999998994,
          "durationTicks": 96,
          "midi": 41,
          "name": "F2",
          "ticks": 140040,
          "time": 159.1362045,
          "velocity": 0.7559055118110236
        },
        {
          "duration": 0.21818159999997988,
          "durationTicks": 192,
          "midi": 34,
          "name": "A#1",
          "ticks": 140160,
          "time": 159.272568,
          "velocity": 0.7322834645669292
        },
        {
          "duration": 0.21818159999997988,
          "durationTicks": 192,
          "midi": 34,
          "name": "A#1",
          "ticks": 140400,
          "time": 159.545295,
          "velocity": 0.7637795275590551
        },
        {
          "duration": 0.10909080000001836,
          "durationTicks": 96,
          "midi": 37,
          "name": "C#2",
          "ticks": 140640,
          "time": 159.81802199999998,
          "velocity": 0.7716535433070866
        },
        {
          "duration": 0.10909079999998994,
          "durationTicks": 96,
          "midi": 38,
          "name": "D2",
          "ticks": 140760,
          "time": 159.9543855,
          "velocity": 0.7559055118110236
        },
        {
          "duration": 0.4363632000000166,
          "durationTicks": 384,
          "midi": 41,
          "name": "F2",
          "ticks": 140880,
          "time": 160.090749,
          "velocity": 0.8582677165354331
        },
        {
          "duration": 0.21818159999997988,
          "durationTicks": 192,
          "midi": 41,
          "name": "F2",
          "ticks": 141360,
          "time": 160.636203,
          "velocity": 0.8346456692913385
        },
        {
          "duration": 0.21818159999997988,
          "durationTicks": 192,
          "midi": 43,
          "name": "G2",
          "ticks": 141600,
          "time": 160.90893,
          "velocity": 0.8267716535433071
        },
        {
          "duration": 0.21818159999997988,
          "durationTicks": 192,
          "midi": 46,
          "name": "A#2",
          "ticks": 141840,
          "time": 161.181657,
          "velocity": 0.8188976377952756
        }
      ]
    },
    {
      "channel": 0,
      "controlChanges": {
        "7": [
          {
            "number": 7,
            "ticks": 0,
            "time": 0,
            "value": 0.8188976377952756
          }
        ],
        "10": [
          {
            "number": 10,
            "ticks": 0,
            "time": 0,
            "value": 0
          }
        ],
        "32": [
          {
            "number": 32,
            "ticks": 0,
            "time": 0,
            "value": 0
          }
        ],
        "91": [
          {
            "number": 91,
            "ticks": 0,
            "time": 0,
            "value": 0.6614173228346457
          }
        ]
      },
      "pitchBends": [],
      "instrument": {
        "family": "piano",
        "number": 0,
        "name": "acoustic grand piano"
      },
      "name": "Bass    ",
      "notes": [],
      "endOfTrackTicks": 142032
    },
    {
      "channel": 5,
      "controlChanges": {
        "7": [
          {
            "number": 7,
            "ticks": 134400,
            "time": 152.72711999999999,
            "value": 0.8503937007874016
          },
          {
            "number": 7,
            "ticks": 134640,
            "time": 152.999847,
            "value": 0.8188976377952756
          },
          {
            "number": 7,
            "ticks": 134880,
            "time": 153.272574,
            "value": 0.7952755905511811
          },
          {
            "number": 7,
            "ticks": 135120,
            "time": 153.545301,
            "value": 0.7637795275590551
          },
          {
            "number": 7,
            "ticks": 135360,
            "time": 153.818028,
            "value": 0.7401574803149606
          },
          {
            "number": 7,
            "ticks": 135600,
            "time": 154.090755,
            "value": 0.7165354330708661
          },
          {
            "number": 7,
            "ticks": 135840,
            "time": 154.363482,
            "value": 0.6850393700787402
          },
          {
            "number": 7,
            "ticks": 136080,
            "time": 154.636209,
            "value": 0.6614173228346457
          },
          {
            "number": 7,
            "ticks": 136320,
            "time": 154.908936,
            "value": 0.6299212598425197
          },
          {
            "number": 7,
            "ticks": 136560,
            "time": 155.181663,
            "value": 0.6062992125984252
          },
          {
            "number": 7,
            "ticks": 136800,
            "time": 155.45439,
            "value": 0.5826771653543307
          },
          {
            "number": 7,
            "ticks": 137040,
            "time": 155.727117,
            "value": 0.5511811023622047
          },
          {
            "number": 7,
            "ticks": 137280,
            "time": 155.999844,
            "value": 0.5275590551181102
          },
          {
            "number": 7,
            "ticks": 137520,
            "time": 156.272571,
            "value": 0.5039370078740157
          },
          {
            "number": 7,
            "ticks": 137760,
            "time": 156.545298,
            "value": 0.47244094488188976
          },
          {
            "number": 7,
            "ticks": 138000,
            "time": 156.818025,
            "value": 0.44881889763779526
          },
          {
            "number": 7,
            "ticks": 138240,
            "time": 157.090752,
            "value": 0.41732283464566927
          },
          {
            "number": 7,
            "ticks": 138480,
            "time": 157.363479,
            "value": 0.3937007874015748
          },
          {
            "number": 7,
            "ticks": 138720,
            "time": 157.636206,
            "value": 0.3700787401574803
          },
          {
            "number": 7,
            "ticks": 138960,
            "time": 157.908933,
            "value": 0.33858267716535434
          },
          {
            "number": 7,
            "ticks": 139200,
            "time": 158.18166,
            "value": 0.31496062992125984
          },
          {
            "number": 7,
            "ticks": 139440,
            "time": 158.454387,
            "value": 0.29133858267716534
          },
          {
            "number": 7,
            "ticks": 139680,
            "time": 158.727114,
            "value": 0.25984251968503935
          },
          {
            "number": 7,
            "ticks": 139920,
            "time": 158.999841,
            "value": 0.23622047244094488
          },
          {
            "number": 7,
            "ticks": 140160,
            "time": 159.272568,
            "value": 0.2047244094488189
          },
          {
            "number": 7,
            "ticks": 140400,
            "time": 159.545295,
            "value": 0.18110236220472442
          },
          {
            "number": 7,
            "ticks": 140640,
            "time": 159.81802199999998,
            "value": 0.15748031496062992
          },
          {
            "number": 7,
            "ticks": 140880,
            "time": 160.090749,
            "value": 0.12598425196850394
          },
          {
            "number": 7,
            "ticks": 141120,
            "time": 160.363476,
            "value": 0.10236220472440945
          },
          {
            "number": 7,
            "ticks": 141360,
            "time": 160.636203,
            "value": 0.07874015748031496
          },
          {
            "number": 7,
            "ticks": 141600,
            "time": 160.90893,
            "value": 0.047244094488188976
          },
          {
            "number": 7,
            "ticks": 141840,
            "time": 161.181657,
            "value": 0.023622047244094488
          }
        ],
        "123": [
          {
            "number": 123,
            "ticks": 0,
            "time": 0,
            "value": 0
          }
        ]
      },
      "pitchBends": [],
      "instrument": {
        "family": "bass",
        "number": 33,
        "name": "electric bass (finger)"
      },
      "name": "",
      "notes": [
        {
          "duration": 0.2181816000000003,
          "durationTicks": 192,
          "midi": 33,
          "name": "A1",
          "ticks": 1920,
          "time": 2.181816,
          "velocity": 0.8346456692913385
        },
        {
          "duration": 0.10909079999999971,
          "durationTicks": 96,
          "midi": 33,
          "name": "A1",
          "ticks": 2160,
          "time": 2.454543,
          "velocity": 0.7874015748031497
        },
        {
          "duration": 0.10909080000000015,
          "durationTicks": 96,
          "midi": 33,
          "name": "A1",
          "ticks": 2280,
          "time": 2.5909065,
          "velocity": 0.7559055118110236
        },
        {
          "duration": 0.10909080000000015,
          "durationTicks": 96,
          "midi": 36,
          "name": "C2",
          "ticks": 2400,
          "time": 2.72727,
          "velocity": 0.8188976377952756
        },
        {
          "duration": 0.10909079999999971,
          "durationTicks": 96,
          "midi": 37,
          "name": "C#2",
          "ticks": 2520,
          "time": 2.8636335,
          "velocity": 0.7480314960629921
        },
        {
          "duration": 0.43636319999999973,
          "durationTicks": 384,
          "midi": 40,
          "name": "E2",
          "ticks": 2640,
          "time": 2.999997,
          "velocity": 0.8267716535433071
        },
        {
          "duration": 0.2181816000000003,
          "durationTicks": 192,
          "midi": 40,
          "name": "E2",
          "ticks": 3120,
          "time": 3.545451,
          "velocity": 0.8188976377952756
        },
        {
          "duration": 0.10909080000000015,
          "durationTicks": 96,
          "midi": 41,
          "name": "F2",
          "ticks": 3360,
          "time": 3.818178,
          "velocity": 0.7874015748031497
        },
        {
          "duration": 0.10909080000000015,
          "durationTicks": 96,
          "midi": 42,
          "name": "F#2",
          "ticks": 3480,
          "time": 3.9545415,
          "velocity": 0.8110236220472441
        },
        {
          "duration": 0.2181816000000003,
          "durationTicks": 192,
          "midi": 45,
          "name": "A2",
          "ticks": 3600,
          "time": 4.090905,
          "velocity": 0.7716535433070866
        },
        {
          "duration": 0.2181816000000003,
          "durationTicks": 192,
          "midi": 33,
          "name": "A1",
          "ticks": 3840,
          "time": 4.363632,
          "velocity": 0.8031496062992126
        },
        {
          "duration": 0.10909079999999971,
          "durationTicks": 96,
          "midi": 33,
          "name": "A1",
          "ticks": 4080,
          "time": 4.636359,
          "velocity": 0.8188976377952756
        },
        {
          "duration": 0.10909079999999971,
          "durationTicks": 96,
          "midi": 33,
          "name": "A1",
          "ticks": 4200,
          "time": 4.7727224999999995,
          "velocity": 0.8267716535433071
        },
        {
          "duration": 0.10909079999999971,
          "durationTicks": 96,
          "midi": 36,
          "name": "C2",
          "ticks": 4320,
          "time": 4.909086,
          "velocity": 0.7401574803149606
        },
        {
          "duration": 0.10909079999999971,
          "durationTicks": 96,
          "midi": 37,
          "name": "C#2",
          "ticks": 4440,
          "time": 5.0454495,
          "velocity": 0.7795275590551181
        },
        {
          "duration": 0.4363632000000006,
          "durationTicks": 384,
          "midi": 40,
          "name": "E2",
          "ticks": 4560,
          "time": 5.181813,
          "velocity": 0.7874015748031497
        },
        {
          "duration": 0.21818159999999942,
          "durationTicks": 192,
          "midi": 40,
          "name": "E2",
          "ticks": 5040,
          "time": 5.727267,
          "velocity": 0.7322834645669292
        },
        {
          "duration": 0.10909079999999971,
          "durationTicks": 96,
          "midi": 41,
          "name": "F2",
          "ticks": 5280,
          "time": 5.999994,
          "velocity": 0.84251968503937
        },
        {
          "duration": 0.10909079999999971,
          "durationTicks": 96,
          "midi": 42,
          "name": "F#2",
          "ticks": 5400,
          "time": 6.1363575,
          "velocity": 0.7952755905511811
        },
        {
          "duration": 0.2181816000000003,
          "durationTicks": 192,
          "midi": 45,
          "name": "A2",
          "ticks": 5520,
          "time": 6.272721,
          "velocity": 0.8503937007874016
        },
        {
          "duration": 0.21818159999999942,
          "durationTicks": 192,
          "midi": 33,
          "name": "A1",
          "ticks": 5760,
          "time": 6.545448,
          "velocity": 0.8110236220472441
        },
        {
          "duration": 0.10909079999999971,
          "durationTicks": 96,
          "midi": 33,
          "name": "A1",
          "ticks": 6000,
          "time": 6.818175,
          "velocity": 0.8031496062992126
        },
        {
          "duration": 0.10909079999999971,
          "durationTicks": 96,
          "midi": 33,
          "name": "A1",
          "ticks": 6120,
          "time": 6.9545385,
          "velocity": 0.7952755905511811
        },
        {
          "duration": 0.10909079999999971,
          "durationTicks": 96,
          "midi": 36,
          "name": "C2",
          "ticks": 6240,
          "time": 7.090902,
          "velocity": 0.8582677165354331
        },
        {
          "duration": 0.10909079999999971,
          "durationTicks": 96,
          "midi": 37,
          "name": "C#2",
          "ticks": 6360,
          "time": 7.2272655,
          "velocity": 0.7086614173228346
        },
        {
          "duration": 0.4363632000000006,
          "durationTicks": 384,
          "midi": 40,
          "name": "E2",
          "ticks": 6480,
          "time": 7.3636289999999995,
          "velocity": 0.8110236220472441
        },
        {
          "duration": 0.2181816000000003,
          "durationTicks": 192,
          "midi": 40,
          "name": "E2",
          "ticks": 6960,
          "time": 7.909083,
          "velocity": 0.8110236220472441
        },
        {
          "duration": 0.10909079999999882,
          "durationTicks": 96,
          "midi": 41,
          "name": "F2",
          "ticks": 7200,
          "time": 8.18181,
          "velocity": 0.8188976377952756
        },
        {
          "duration": 0.10909079999999882,
          "durationTicks": 96,
          "midi": 42,
          "name": "F#2",
          "ticks": 7320,
          "time": 8.3181735,
          "velocity": 0.8582677165354331
        },
        {
          "duration": 0.21818159999999942,
          "durationTicks": 192,
          "midi": 45,
          "name": "A2",
          "ticks": 7440,
          "time": 8.454537,
          "velocity": 0.7952755905511811
        },
        {
          "duration": 0.21818159999999942,
          "durationTicks": 192,
          "midi": 33,
          "name": "A1",
          "ticks": 7680,
          "time": 8.727264,
          "velocity": 0.7795275590551181
        },
        {
          "duration": 0.1090908000000006,
          "durationTicks": 96,
          "midi": 33,
          "name": "A1",
          "ticks": 7920,
          "time": 8.999991,
          "velocity": 0.7795275590551181
        },
        {
          "duration": 0.1090908000000006,
          "durationTicks": 96,
          "midi": 33,
          "name": "A1",
          "ticks": 8040,
          "time": 9.1363545,
          "velocity": 0.7952755905511811
        },
        {
          "duration": 0.1090908000000006,
          "durationTicks": 96,
          "midi": 36,
          "name": "C2",
          "ticks": 8160,
          "time": 9.272718,
          "velocity": 0.8582677165354331
        },
        {
          "duration": 0.1090908000000006,
          "durationTicks": 96,
          "midi": 37,
          "name": "C#2",
          "ticks": 8280,
          "time": 9.4090815,
          "velocity": 0.84251968503937
        },
        {
          "duration": 0.4363632000000006,
          "durationTicks": 384,
          "midi": 40,
          "name": "E2",
          "ticks": 8400,
          "time": 9.545444999999999,
          "velocity": 0.7795275590551181
        },
        {
          "duration": 0.21818159999999942,
          "durationTicks": 192,
          "midi": 40,
          "name": "E2",
          "ticks": 8880,
          "time": 10.090899,
          "velocity": 0.84251968503937
        },
        {
          "duration": 0.10909079999999882,
          "durationTicks": 96,
          "midi": 41,
          "name": "F2",
          "ticks": 9120,
          "time": 10.363626,
          "velocity": 0.8346456692913385
        },
        {
          "duration": 0.10909079999999882,
          "durationTicks": 96,
          "midi": 42,
          "name": "F#2",
          "ticks": 9240,
          "time": 10.4999895,
          "velocity": 0.7480314960629921
        },
        {
          "duration": 0.21818159999999942,
          "durationTicks": 192,
          "midi": 45,
          "name": "A2",
          "ticks": 9360,
          "time": 10.636353,
          "velocity": 0.8582677165354331
        },
        {
          "duration": 0.21818159999999942,
          "durationTicks": 192,
          "midi": 33,
          "name": "A1",
          "ticks": 9600,
          "time": 10.90908,
          "velocity": 0.7874015748031497
        },
        {
          "duration": 0.1090908000000006,
          "durationTicks": 96,
          "midi": 33,
          "name": "A1",
          "ticks": 9840,
          "time": 11.181807,
          "velocity": 0.7716535433070866
        },
        {
          "duration": 0.1090908000000006,
          "durationTicks": 96,
          "midi": 33,
          "name": "A1",
          "ticks": 9960,
          "time": 11.318170499999999,
          "velocity": 0.7559055118110236
        },
        {
          "duration": 0.21818159999999764,
          "durationTicks": 192,
          "midi": 33,
          "name": "A1",
          "ticks": 10080,
          "time": 11.454534,
          "velocity": 0.8503937007874016
        },
        {
          "duration": 0.21818159999999942,
          "durationTicks": 192,
          "midi": 33,
          "name": "A1",
          "ticks": 10320,
          "time": 11.727261,
          "velocity": 0.84251968503937
        },
        {
          "duration": 0.21818159999999942,
          "durationTicks": 192,
          "midi": 33,
          "name": "A1",
          "ticks": 10560,
          "time": 11.999988,
          "velocity": 0.7874015748031497
        },
        {
          "duration": 0.21818159999999942,
          "durationTicks": 192,
          "midi": 33,
          "name": "A1",
          "ticks": 10800,
          "time": 12.272715,
          "velocity": 0.8503937007874016
        },
        {
          "duration": 0.21818159999999942,
          "durationTicks": 192,
          "midi": 33,
          "name": "A1",
          "ticks": 11040,
          "time": 12.545442,
          "velocity": 0.8582677165354331
        },
        {
          "duration": 0.21818159999999942,
          "durationTicks": 192,
          "midi": 33,
          "name": "A1",
          "ticks": 11280,
          "time": 12.818169,
          "velocity": 0.8188976377952756
        },
        {
          "duration": 0.21818159999999764,
          "durationTicks": 192,
          "midi": 33,
          "name": "A1",
          "ticks": 11520,
          "time": 13.090896,
          "velocity": 0.7244094488188977
        },
        {
          "duration": 0.10909079999999882,
          "durationTicks": 96,
          "midi": 33,
          "name": "A1",
          "ticks": 11760,
          "time": 13.363623,
          "velocity": 0.84251968503937
        },
        {
          "duration": 0.10909079999999882,
          "durationTicks": 96,
          "midi": 33,
          "name": "A1",
          "ticks": 11880,
          "time": 13.4999865,
          "velocity": 0.7637795275590551
        },
        {
          "duration": 0.21818159999999942,
          "durationTicks": 192,
          "midi": 33,
          "name": "A1",
          "ticks": 12000,
          "time": 13.63635,
          "velocity": 0.7952755905511811
        },
        {
          "duration": 0.21818159999999942,
          "durationTicks": 192,
          "midi": 33,
          "name": "A1",
          "ticks": 12240,
          "time": 13.909077,
          "velocity": 0.84251968503937
        },
        {
          "duration": 0.21818159999999942,
          "durationTicks": 192,
          "midi": 33,
          "name": "A1",
          "ticks": 12480,
          "time": 14.181804,
          "velocity": 0.84251968503937
        },
        {
          "duration": 0.21818159999999942,
          "durationTicks": 192,
          "midi": 33,
          "name": "A1",
          "ticks": 12720,
          "time": 14.454531,
          "velocity": 0.7559055118110236
        },
        {
          "duration": 0.21818159999999942,
          "durationTicks": 192,
          "midi": 33,
          "name": "A1",
          "ticks": 12960,
          "time": 14.727257999999999,
          "velocity": 0.7795275590551181
        },
        {
          "duration": 0.21818159999999764,
          "durationTicks": 192,
          "midi": 33,
          "name": "A1",
          "ticks": 13200,
          "time": 14.999985,
          "velocity": 0.8188976377952756
        },
        {
          "duration": 0.21818159999999942,
          "durationTicks": 192,
          "midi": 33,
          "name": "A1",
          "ticks": 13440,
          "time": 15.272712,
          "velocity": 0.8582677165354331
        },
        {
          "duration": 0.21818159999999942,
          "durationTicks": 192,
          "midi": 33,
          "name": "A1",
          "ticks": 13680,
          "time": 15.545439,
          "velocity": 0.8110236220472441
        },
        {
          "duration": 0.21818159999999942,
          "durationTicks": 192,
          "midi": 33,
          "name": "A1",
          "ticks": 13920,
          "time": 15.818166,
          "velocity": 0.7874015748031497
        },
        {
          "duration": 0.21818159999999764,
          "durationTicks": 192,
          "midi": 33,
          "name": "A1",
          "ticks": 14160,
          "time": 16.090893,
          "velocity": 0.8346456692913385
        },
        {
          "duration": 0.21818159999999764,
          "durationTicks": 192,
          "midi": 33,
          "name": "A1",
          "ticks": 14400,
          "time": 16.36362,
          "velocity": 0.7244094488188977
        },
        {
          "duration": 0.21818159999999764,
          "durationTicks": 192,
          "midi": 33,
          "name": "A1",
          "ticks": 14640,
          "time": 16.636347,
          "velocity": 0.7716535433070866
        },
        {
          "duration": 0.21818159999999764,
          "durationTicks": 192,
          "midi": 33,
          "name": "A1",
          "ticks": 14880,
          "time": 16.909074,
          "velocity": 0.7637795275590551
        },
        {
          "duration": 0.1090908000000006,
          "durationTicks": 96,
          "midi": 33,
          "name": "A1",
          "ticks": 15120,
          "time": 17.181801,
          "velocity": 0.8110236220472441
        },
        {
          "duration": 0.1090908000000006,
          "durationTicks": 96,
          "midi": 33,
          "name": "A1",
          "ticks": 15240,
          "time": 17.318164499999998,
          "velocity": 0.8582677165354331
        },
        {
          "duration": 0.21818159999999764,
          "durationTicks": 192,
          "midi": 30,
          "name": "F#1",
          "ticks": 15360,
          "time": 17.454528,
          "velocity": 0.8582677165354331
        },
        {
          "duration": 0.2181816000000012,
          "durationTicks": 192,
          "midi": 30,
          "name": "F#1",
          "ticks": 15600,
          "time": 17.727255,
          "velocity": 0.8110236220472441
        },
        {
          "duration": 0.2181816000000012,
          "durationTicks": 192,
          "midi": 30,
          "name": "F#1",
          "ticks": 15840,
          "time": 17.999982,
          "velocity": 0.7874015748031497
        },
        {
          "duration": 0.2181816000000012,
          "durationTicks": 192,
          "midi": 30,
          "name": "F#1",
          "ticks": 16080,
          "time": 18.272709,
          "velocity": 0.8503937007874016
        },
        {
          "duration": 0.2181816000000012,
          "durationTicks": 192,
          "midi": 30,
          "name": "F#1",
          "ticks": 16320,
          "time": 18.545436,
          "velocity": 0.7559055118110236
        },
        {
          "duration": 0.2181816000000012,
          "durationTicks": 192,
          "midi": 30,
          "name": "F#1",
          "ticks": 16560,
          "time": 18.818163,
          "velocity": 0.8582677165354331
        },
        {
          "duration": 0.2181816000000012,
          "durationTicks": 192,
          "midi": 30,
          "name": "F#1",
          "ticks": 16800,
          "time": 19.090889999999998,
          "velocity": 0.7637795275590551
        },
        {
          "duration": 0.21818159999999764,
          "durationTicks": 192,
          "midi": 30,
          "name": "F#1",
          "ticks": 17040,
          "time": 19.363617,
          "velocity": 0.8582677165354331
        },
        {
          "duration": 0.21818159999999764,
          "durationTicks": 192,
          "midi": 38,
          "name": "D2",
          "ticks": 17280,
          "time": 19.636344,
          "velocity": 0.8346456692913385
        },
        {
          "duration": 0.21818159999999764,
          "durationTicks": 192,
          "midi": 38,
          "name": "D2",
          "ticks": 17520,
          "time": 19.909071,
          "velocity": 0.8267716535433071
        },
        {
          "duration": 0.21818159999999764,
          "durationTicks": 192,
          "midi": 38,
          "name": "D2",
          "ticks": 17760,
          "time": 20.181798,
          "velocity": 0.84251968503937
        },
        {
          "duration": 0.1090908000000006,
          "durationTicks": 96,
          "midi": 38,
          "name": "D2",
          "ticks": 18000,
          "time": 20.454525,
          "velocity": 0.7795275590551181
        },
        {
          "duration": 0.21818159999999764,
          "durationTicks": 192,
          "midi": 38,
          "name": "D2",
          "ticks": 18240,
          "time": 20.727252,
          "velocity": 0.8031496062992126
        },
        {
          "duration": 0.21818159999999764,
          "durationTicks": 192,
          "midi": 38,
          "name": "D2",
          "ticks": 18480,
          "time": 20.999979,
          "velocity": 0.8188976377952756
        },
        {
          "duration": 0.2181816000000012,
          "durationTicks": 192,
          "midi": 38,
          "name": "D2",
          "ticks": 18720,
          "time": 21.272706,
          "velocity": 0.7480314960629921
        },
        {
          "duration": 0.1090908000000006,
          "durationTicks": 96,
          "midi": 33,
          "name": "A1",
          "ticks": 18960,
          "time": 21.545433,
          "velocity": 0.84251968503937
        },
        {
          "duration": 0.1090908000000006,
          "durationTicks": 96,
          "midi": 33,
          "name": "A1",
          "ticks": 19080,
          "time": 21.6817965,
          "velocity": 0.84251968503937
        },
        {
          "duration": 0.2181816000000012,
          "durationTicks": 192,
          "midi": 38,
          "name": "D2",
          "ticks": 19200,
          "time": 21.81816,
          "velocity": 0.8503937007874016
        },
        {
          "duration": 0.2181816000000012,
          "durationTicks": 192,
          "midi": 38,
          "name": "D2",
          "ticks": 19440,
          "time": 22.090887,
          "velocity": 0.7716535433070866
        },
        {
          "duration": 0.2181816000000012,
          "durationTicks": 192,
          "midi": 38,
          "name": "D2",
          "ticks": 19680,
          "time": 22.363614,
          "velocity": 0.8503937007874016
        },
        {
          "duration": 0.10909080000000415,
          "durationTicks": 96,
          "midi": 38,
          "name": "D2",
          "ticks": 19920,
          "time": 22.636340999999998,
          "velocity": 0.8582677165354331
        },
        {
          "duration": 0.21818159999999764,
          "durationTicks": 192,
          "midi": 38,
          "name": "D2",
          "ticks": 20160,
          "time": 22.909068,
          "velocity": 0.7716535433070866
        },
        {
          "duration": 0.21818159999999764,
          "durationTicks": 192,
          "midi": 33,
          "name": "A1",
          "ticks": 20400,
          "time": 23.181795,
          "velocity": 0.7795275590551181
        },
        {
          "duration": 0.21818159999999764,
          "durationTicks": 192,
          "midi": 38,
          "name": "D2",
          "ticks": 20640,
          "time": 23.454522,
          "velocity": 0.7795275590551181
        },
        {
          "duration": 0.21818159999999764,
          "durationTicks": 192,
          "midi": 38,
          "name": "D2",
          "ticks": 20880,
          "time": 23.727249,
          "velocity": 0.8188976377952756
        },
        {
          "duration": 0.21818159999999764,
          "durationTicks": 192,
          "midi": 33,
          "name": "A1",
          "ticks": 21120,
          "time": 23.999976,
          "velocity": 0.8346456692913385
        },
        {
          "duration": 0.21818159999999764,
          "durationTicks": 192,
          "midi": 33,
          "name": "A1",
          "ticks": 21360,
          "time": 24.272703,
          "velocity": 0.7716535433070866
        },
        {
          "duration": 0.21818159999999764,
          "durationTicks": 192,
          "midi": 33,
          "name": "A1",
          "ticks": 21600,
          "time": 24.54543,
          "velocity": 0.7952755905511811
        },
        {
          "duration": 0.1090908000000006,
          "durationTicks": 96,
          "midi": 33,
          "name": "A1",
          "ticks": 21840,
          "time": 24.818157,
          "velocity": 0.84251968503937
        },
        {
          "duration": 0.1090908000000006,
          "durationTicks": 96,
          "midi": 33,
          "name": "A1",
          "ticks": 21960,
          "time": 24.9545205,
          "velocity": 0.7952755905511811
        },
        {
          "duration": 0.2181816000000012,
          "durationTicks": 192,
          "midi": 37,
          "name": "C#2",
          "ticks": 22080,
          "time": 25.090884,
          "velocity": 0.7401574803149606
        },
        {
          "duration": 0.2181816000000012,
          "durationTicks": 192,
          "midi": 37,
          "name": "C#2",
          "ticks": 22320,
          "time": 25.363611,
          "velocity": 0.84251968503937
        },
        {
          "duration": 0.2181816000000012,
          "durationTicks": 192,
          "midi": 37,
          "name": "C#2",
          "ticks": 22560,
          "time": 25.636338,
          "velocity": 0.8582677165354331
        },
        {
          "duration": 0.10909080000000415,
          "durationTicks": 96,
          "midi": 37,
          "name": "C#2",
          "ticks": 22800,
          "time": 25.909065,
          "velocity": 0.7322834645669292
        },
        {
          "duration": 0.1090908000000006,
          "durationTicks": 96,
          "midi": 37,
          "name": "C#2",
          "ticks": 22920,
          "time": 26.0454285,
          "velocity": 0.8110236220472441
        },
        {
          "duration": 0.21818159999999764,
          "durationTicks": 192,
          "midi": 42,
          "name": "F#2",
          "ticks": 23040,
          "time": 26.181792,
          "velocity": 0.84251968503937
        },
        {
          "duration": 0.21818159999999764,
          "durationTicks": 192,
          "midi": 42,
          "name": "F#2",
          "ticks": 23280,
          "time": 26.454519,
          "velocity": 0.84251968503937
        },
        {
          "duration": 0.21818159999999764,
          "durationTicks": 192,
          "midi": 42,
          "name": "F#2",
          "ticks": 23520,
          "time": 26.727246,
          "velocity": 0.7401574803149606
        },
        {
          "duration": 0.1090908000000006,
          "durationTicks": 96,
          "midi": 42,
          "name": "F#2",
          "ticks": 23760,
          "time": 26.999973,
          "velocity": 0.7559055118110236
        },
        {
          "duration": 0.10909080000000415,
          "durationTicks": 96,
          "midi": 42,
          "name": "F#2",
          "ticks": 23880,
          "time": 27.1363365,
          "velocity": 0.8267716535433071
        },
        {
          "duration": 0.21818159999999764,
          "durationTicks": 192,
          "midi": 33,
          "name": "A1",
          "ticks": 24000,
          "time": 27.2727,
          "velocity": 0.8031496062992126
        },
        {
          "duration": 0.21818159999999764,
          "durationTicks": 192,
          "midi": 33,
          "name": "A1",
          "ticks": 24240,
          "time": 27.545427,
          "velocity": 0.8582677165354331
        },
        {
          "duration": 0.21818159999999764,
          "durationTicks": 192,
          "midi": 33,
          "name": "A1",
          "ticks": 24480,
          "time": 27.818154,
          "velocity": 0.7874015748031497
        },
        {
          "duration": 0.21818159999999764,
          "durationTicks": 192,
          "midi": 33,
          "name": "A1",
          "ticks": 24720,
          "time": 28.090881,
          "velocity": 0.8346456692913385
        },
        {
          "duration": 0.2181816000000012,
          "durationTicks": 192,
          "midi": 38,
          "name": "D2",
          "ticks": 24960,
          "time": 28.363608,
          "velocity": 0.8346456692913385
        },
        {
          "duration": 0.2181816000000012,
          "durationTicks": 192,
          "midi": 38,
          "name": "D2",
          "ticks": 25200,
          "time": 28.636335,
          "velocity": 0.84251968503937
        },
        {
          "duration": 0.2181816000000012,
          "durationTicks": 192,
          "midi": 38,
          "name": "D2",
          "ticks": 25440,
          "time": 28.909062,
          "velocity": 0.7322834645669292
        },
        {
          "duration": 0.10909080000000415,
          "durationTicks": 96,
          "midi": 38,
          "name": "D2",
          "ticks": 25680,
          "time": 29.181789,
          "velocity": 0.8110236220472441
        },
        {
          "duration": 0.1090908000000006,
          "durationTicks": 96,
          "midi": 38,
          "name": "D2",
          "ticks": 25800,
          "time": 29.3181525,
          "velocity": 0.7874015748031497
        },
        {
          "duration": 0.2181816000000012,
          "durationTicks": 192,
          "midi": 38,
          "name": "D2",
          "ticks": 25920,
          "time": 29.454515999999998,
          "velocity": 0.7559055118110236
        },
        {
          "duration": 0.21818159999999764,
          "durationTicks": 192,
          "midi": 38,
          "name": "D2",
          "ticks": 26160,
          "time": 29.727243,
          "velocity": 0.7480314960629921
        },
        {
          "duration": 0.21818159999999764,
          "durationTicks": 192,
          "midi": 38,
          "name": "D2",
          "ticks": 26400,
          "time": 29.99997,
          "velocity": 0.8031496062992126
        },
        {
          "duration": 0.1090908000000006,
          "durationTicks": 96,
          "midi": 38,
          "name": "D2",
          "ticks": 26640,
          "time": 30.272697,
          "velocity": 0.8582677165354331
        },
        {
          "duration": 0.1090908000000006,
          "durationTicks": 96,
          "midi": 38,
          "name": "D2",
          "ticks": 26760,
          "time": 30.4090605,
          "velocity": 0.84251968503937
        },
        {
          "duration": 0.21818159999999764,
          "durationTicks": 192,
          "midi": 40,
          "name": "E2",
          "ticks": 26880,
          "time": 30.545424,
          "velocity": 0.7874015748031497
        },
        {
          "duration": 0.21818159999999764,
          "durationTicks": 192,
          "midi": 40,
          "name": "E2",
          "ticks": 27120,
          "time": 30.818151,
          "velocity": 0.8031496062992126
        },
        {
          "duration": 0.21818159999999764,
          "durationTicks": 192,
          "midi": 40,
          "name": "E2",
          "ticks": 27360,
          "time": 31.090878,
          "velocity": 0.8503937007874016
        },
        {
          "duration": 0.21818159999999764,
          "durationTicks": 192,
          "midi": 40,
          "name": "E2",
          "ticks": 27600,
          "time": 31.363605,
          "velocity": 0.7322834645669292
        },
        {
          "duration": 0.2181816000000012,
          "durationTicks": 192,
          "midi": 40,
          "name": "E2",
          "ticks": 27840,
          "time": 31.636332,
          "velocity": 0.8346456692913385
        },
        {
          "duration": 0.2181816000000012,
          "durationTicks": 192,
          "midi": 40,
          "name": "E2",
          "ticks": 28080,
          "time": 31.909059,
          "velocity": 0.8267716535433071
        },
        {
          "duration": 0.2181815999999941,
          "durationTicks": 192,
          "midi": 40,
          "name": "E2",
          "ticks": 28320,
          "time": 32.181786,
          "velocity": 0.8346456692913385
        },
        {
          "duration": 0.2181816000000012,
          "durationTicks": 192,
          "midi": 40,
          "name": "E2",
          "ticks": 28560,
          "time": 32.454513,
          "velocity": 0.8188976377952756
        },
        {
          "duration": 0.2181815999999941,
          "durationTicks": 192,
          "midi": 33,
          "name": "A1",
          "ticks": 28800,
          "time": 32.72724,
          "velocity": 0.8267716535433071
        },
        {
          "duration": 0.2181816000000012,
          "durationTicks": 192,
          "midi": 33,
          "name": "A1",
          "ticks": 29040,
          "time": 32.999967,
          "velocity": 0.7244094488188977
        },
        {
          "duration": 0.2181815999999941,
          "durationTicks": 192,
          "midi": 33,
          "name": "A1",
          "ticks": 29280,
          "time": 33.272694,
          "velocity": 0.8582677165354331
        },
        {
          "duration": 0.2181816000000012,
          "durationTicks": 192,
          "midi": 33,
          "name": "A1",
          "ticks": 29520,
          "time": 33.545421,
          "velocity": 0.8267716535433071
        },
        {
          "duration": 0.2181816000000012,
          "durationTicks": 192,
          "midi": 33,
          "name": "A1",
          "ticks": 29760,
          "time": 33.818148,
          "velocity": 0.8031496062992126
        },
        {
          "duration": 0.2181816000000012,
          "durationTicks": 192,
          "midi": 33,
          "name": "A1",
          "ticks": 30000,
          "time": 34.090875,
          "velocity": 0.84251968503937
        },
        {
          "duration": 0.2181816000000012,
          "durationTicks": 192,
          "midi": 33,
          "name": "A1",
          "ticks": 30240,
          "time": 34.363602,
          "velocity": 0.7637795275590551
        },
        {
          "duration": 0.10909080000000415,
          "durationTicks": 96,
          "midi": 33,
          "name": "A1",
          "ticks": 30480,
          "time": 34.636328999999996,
          "velocity": 0.84251968503937
        },
        {
          "duration": 0.10909080000000415,
          "durationTicks": 96,
          "midi": 33,
          "name": "A1",
          "ticks": 30600,
          "time": 34.7726925,
          "velocity": 0.8346456692913385
        },
        {
          "duration": 0.2181816000000012,
          "durationTicks": 192,
          "midi": 30,
          "name": "F#1",
          "ticks": 30720,
          "time": 34.909056,
          "velocity": 0.8346456692913385
        },
        {
          "duration": 0.2181816000000012,
          "durationTicks": 192,
          "midi": 30,
          "name": "F#1",
          "ticks": 30960,
          "time": 35.181783,
          "velocity": 0.7322834645669292
        },
        {
          "duration": 0.2181816000000012,
          "durationTicks": 192,
          "midi": 30,
          "name": "F#1",
          "ticks": 31200,
          "time": 35.45451,
          "velocity": 0.8267716535433071
        },
        {
          "duration": 0.2181816000000012,
          "durationTicks": 192,
          "midi": 30,
          "name": "F#1",
          "ticks": 31440,
          "time": 35.727237,
          "velocity": 0.7716535433070866
        },
        {
          "duration": 0.2181816000000012,
          "durationTicks": 192,
          "midi": 30,
          "name": "F#1",
          "ticks": 31680,
          "time": 35.999964,
          "velocity": 0.8267716535433071
        },
        {
          "duration": 0.2181816000000012,
          "durationTicks": 192,
          "midi": 30,
          "name": "F#1",
          "ticks": 31920,
          "time": 36.272691,
          "velocity": 0.8582677165354331
        },
        {
          "duration": 0.2181816000000083,
          "durationTicks": 192,
          "midi": 30,
          "name": "F#1",
          "ticks": 32160,
          "time": 36.545418,
          "velocity": 0.8031496062992126
        },
        {
          "duration": 0.2181816000000012,
          "durationTicks": 192,
          "midi": 30,
          "name": "F#1",
          "ticks": 32400,
          "time": 36.818145,
          "velocity": 0.8267716535433071
        },
        {
          "duration": 0.2181816000000083,
          "durationTicks": 192,
          "midi": 38,
          "name": "D2",
          "ticks": 32640,
          "time": 37.090872,
          "velocity": 0.7637795275590551
        },
        {
          "duration": 0.2181816000000012,
          "durationTicks": 192,
          "midi": 38,
          "name": "D2",
          "ticks": 32880,
          "time": 37.363599,
          "velocity": 0.7716535433070866
        },
        {
          "duration": 0.2181816000000083,
          "durationTicks": 192,
          "midi": 38,
          "name": "D2",
          "ticks": 33120,
          "time": 37.636326,
          "velocity": 0.7637795275590551
        },
        {
          "duration": 0.10909080000000415,
          "durationTicks": 96,
          "midi": 38,
          "name": "D2",
          "ticks": 33360,
          "time": 37.909053,
          "velocity": 0.7637795275590551
        },
        {
          "duration": 0.2181816000000083,
          "durationTicks": 192,
          "midi": 38,
          "name": "D2",
          "ticks": 33600,
          "time": 38.181779999999996,
          "velocity": 0.8582677165354331
        },
        {
          "duration": 0.2181816000000012,
          "durationTicks": 192,
          "midi": 38,
          "name": "D2",
          "ticks": 33840,
          "time": 38.454507,
          "velocity": 0.8346456692913385
        },
        {
          "duration": 0.2181816000000012,
          "durationTicks": 192,
          "midi": 38,
          "name": "D2",
          "ticks": 34080,
          "time": 38.727234,
          "velocity": 0.8503937007874016
        },
        {
          "duration": 0.10909080000000415,
          "durationTicks": 96,
          "midi": 33,
          "name": "A1",
          "ticks": 34320,
          "time": 38.999961,
          "velocity": 0.7559055118110236
        },
        {
          "duration": 0.10909079999999705,
          "durationTicks": 96,
          "midi": 33,
          "name": "A1",
          "ticks": 34440,
          "time": 39.1363245,
          "velocity": 0.8503937007874016
        },
        {
          "duration": 0.2181816000000012,
          "durationTicks": 192,
          "midi": 38,
          "name": "D2",
          "ticks": 34560,
          "time": 39.272688,
          "velocity": 0.7165354330708661
        },
        {
          "duration": 0.2181816000000012,
          "durationTicks": 192,
          "midi": 38,
          "name": "D2",
          "ticks": 34800,
          "time": 39.545415,
          "velocity": 0.8582677165354331
        },
        {
          "duration": 0.2181816000000012,
          "durationTicks": 192,
          "midi": 38,
          "name": "D2",
          "ticks": 35040,
          "time": 39.818142,
          "velocity": 0.7086614173228346
        },
        {
          "duration": 0.10909080000000415,
          "durationTicks": 96,
          "midi": 38,
          "name": "D2",
          "ticks": 35280,
          "time": 40.090869,
          "velocity": 0.8188976377952756
        },
        {
          "duration": 0.2181816000000012,
          "durationTicks": 192,
          "midi": 38,
          "name": "D2",
          "ticks": 35520,
          "time": 40.363596,
          "velocity": 0.8110236220472441
        },
        {
          "duration": 0.2181816000000083,
          "durationTicks": 192,
          "midi": 33,
          "name": "A1",
          "ticks": 35760,
          "time": 40.636323,
          "velocity": 0.8267716535433071
        },
        {
          "duration": 0.2181816000000012,
          "durationTicks": 192,
          "midi": 38,
          "name": "D2",
          "ticks": 36000,
          "time": 40.90905,
          "velocity": 0.8503937007874016
        },
        {
          "duration": 0.2181816000000083,
          "durationTicks": 192,
          "midi": 38,
          "name": "D2",
          "ticks": 36240,
          "time": 41.181777,
          "velocity": 0.8267716535433071
        },
        {
          "duration": 0.2181816000000012,
          "durationTicks": 192,
          "midi": 33,
          "name": "A1",
          "ticks": 36480,
          "time": 41.454504,
          "velocity": 0.7952755905511811
        },
        {
          "duration": 0.2181816000000083,
          "durationTicks": 192,
          "midi": 33,
          "name": "A1",
          "ticks": 36720,
          "time": 41.727230999999996,
          "velocity": 0.7559055118110236
        },
        {
          "duration": 0.2181816000000012,
          "durationTicks": 192,
          "midi": 33,
          "name": "A1",
          "ticks": 36960,
          "time": 41.999958,
          "velocity": 0.7952755905511811
        },
        {
          "duration": 0.10909079999999705,
          "durationTicks": 96,
          "midi": 33,
          "name": "A1",
          "ticks": 37200,
          "time": 42.272685,
          "velocity": 0.8110236220472441
        },
        {
          "duration": 0.10909080000000415,
          "durationTicks": 96,
          "midi": 33,
          "name": "A1",
          "ticks": 37320,
          "time": 42.4090485,
          "velocity": 0.7795275590551181
        },
        {
          "duration": 0.2181816000000012,
          "durationTicks": 192,
          "midi": 37,
          "name": "C#2",
          "ticks": 37440,
          "time": 42.545412,
          "velocity": 0.7952755905511811
        },
        {
          "duration": 0.2181816000000012,
          "durationTicks": 192,
          "midi": 37,
          "name": "C#2",
          "ticks": 37680,
          "time": 42.818139,
          "velocity": 0.7480314960629921
        },
        {
          "duration": 0.2181816000000012,
          "durationTicks": 192,
          "midi": 37,
          "name": "C#2",
          "ticks": 37920,
          "time": 43.090866,
          "velocity": 0.7559055118110236
        },
        {
          "duration": 0.10909079999999705,
          "durationTicks": 96,
          "midi": 37,
          "name": "C#2",
          "ticks": 38160,
          "time": 43.363593,
          "velocity": 0.8582677165354331
        },
        {
          "duration": 0.10909080000000415,
          "durationTicks": 96,
          "midi": 37,
          "name": "C#2",
          "ticks": 38280,
          "time": 43.499956499999996,
          "velocity": 0.8582677165354331
        },
        {
          "duration": 0.2181816000000083,
          "durationTicks": 192,
          "midi": 42,
          "name": "F#2",
          "ticks": 38400,
          "time": 43.63632,
          "velocity": 0.7952755905511811
        },
        {
          "duration": 0.2181816000000012,
          "durationTicks": 192,
          "midi": 42,
          "name": "F#2",
          "ticks": 38640,
          "time": 43.909047,
          "velocity": 0.84251968503937
        },
        {
          "duration": 0.2181816000000083,
          "durationTicks": 192,
          "midi": 42,
          "name": "F#2",
          "ticks": 38880,
          "time": 44.181774,
          "velocity": 0.7716535433070866
        },
        {
          "duration": 0.10909080000000415,
          "durationTicks": 96,
          "midi": 42,
          "name": "F#2",
          "ticks": 39120,
          "time": 44.454501,
          "velocity": 0.8031496062992126
        },
        {
          "duration": 0.10909079999999705,
          "durationTicks": 96,
          "midi": 42,
          "name": "F#2",
          "ticks": 39240,
          "time": 44.5908645,
          "velocity": 0.7480314960629921
        },
        {
          "duration": 0.2181816000000083,
          "durationTicks": 192,
          "midi": 33,
          "name": "A1",
          "ticks": 39360,
          "time": 44.727228,
          "velocity": 0.8031496062992126
        },
        {
          "duration": 0.2181816000000012,
          "durationTicks": 192,
          "midi": 33,
          "name": "A1",
          "ticks": 39600,
          "time": 44.999955,
          "velocity": 0.7480314960629921
        },
        {
          "duration": 0.2181816000000083,
          "durationTicks": 192,
          "midi": 33,
          "name": "A1",
          "ticks": 39840,
          "time": 45.272681999999996,
          "velocity": 0.8267716535433071
        },
        {
          "duration": 0.2181816000000012,
          "durationTicks": 192,
          "midi": 33,
          "name": "A1",
          "ticks": 40080,
          "time": 45.545409,
          "velocity": 0.8188976377952756
        },
        {
          "duration": 0.2181816000000012,
          "durationTicks": 192,
          "midi": 38,
          "name": "D2",
          "ticks": 40320,
          "time": 45.818136,
          "velocity": 0.8503937007874016
        },
        {
          "duration": 0.2181816000000012,
          "durationTicks": 192,
          "midi": 38,
          "name": "D2",
          "ticks": 40560,
          "time": 46.090863,
          "velocity": 0.8582677165354331
        },
        {
          "duration": 0.2181816000000012,
          "durationTicks": 192,
          "midi": 38,
          "name": "D2",
          "ticks": 40800,
          "time": 46.36359,
          "velocity": 0.84251968503937
        },
        {
          "duration": 0.10909080000000415,
          "durationTicks": 96,
          "midi": 37,
          "name": "C#2",
          "ticks": 41040,
          "time": 46.636317,
          "velocity": 0.8267716535433071
        },
        {
          "duration": 0.10909080000000415,
          "durationTicks": 96,
          "midi": 37,
          "name": "C#2",
          "ticks": 41160,
          "time": 46.7726805,
          "velocity": 0.7952755905511811
        },
        {
          "duration": 0.2181816000000012,
          "durationTicks": 192,
          "midi": 35,
          "name": "B1",
          "ticks": 41280,
          "time": 46.909044,
          "velocity": 0.7480314960629921
        },
        {
          "duration": 0.2181816000000083,
          "durationTicks": 192,
          "midi": 35,
          "name": "B1",
          "ticks": 41520,
          "time": 47.181771,
          "velocity": 0.84251968503937
        },
        {
          "duration": 0.2181816000000012,
          "durationTicks": 192,
          "midi": 35,
          "name": "B1",
          "ticks": 41760,
          "time": 47.454498,
          "velocity": 0.7874015748031497
        },
        {
          "duration": 0.10909080000000415,
          "durationTicks": 96,
          "midi": 35,
          "name": "B1",
          "ticks": 42000,
          "time": 47.727225,
          "velocity": 0.8503937007874016
        },
        {
          "duration": 0.10909080000000415,
          "durationTicks": 96,
          "midi": 35,
          "name": "B1",
          "ticks": 42120,
          "time": 47.8635885,
          "velocity": 0.8267716535433071
        },
        {
          "duration": 0.2181816000000012,
          "durationTicks": 192,
          "midi": 40,
          "name": "E2",
          "ticks": 42240,
          "time": 47.999952,
          "velocity": 0.8503937007874016
        },
        {
          "duration": 0.2181816000000083,
          "durationTicks": 192,
          "midi": 40,
          "name": "E2",
          "ticks": 42480,
          "time": 48.272679,
          "velocity": 0.8346456692913385
        },
        {
          "duration": 0.2181816000000012,
          "durationTicks": 192,
          "midi": 40,
          "name": "E2",
          "ticks": 42720,
          "time": 48.545406,
          "velocity": 0.8582677165354331
        },
        {
          "duration": 0.10909080000000415,
          "durationTicks": 96,
          "midi": 40,
          "name": "E2",
          "ticks": 42960,
          "time": 48.818132999999996,
          "velocity": 0.84251968503937
        },
        {
          "duration": 0.10909080000000415,
          "durationTicks": 96,
          "midi": 40,
          "name": "E2",
          "ticks": 43080,
          "time": 48.9544965,
          "velocity": 0.7559055118110236
        },
        {
          "duration": 0.2181816000000012,
          "durationTicks": 192,
          "midi": 40,
          "name": "E2",
          "ticks": 43200,
          "time": 49.09086,
          "velocity": 0.84251968503937
        },
        {
          "duration": 0.2181816000000012,
          "durationTicks": 192,
          "midi": 40,
          "name": "E2",
          "ticks": 43440,
          "time": 49.363587,
          "velocity": 0.8267716535433071
        },
        {
          "duration": 0.2181816000000012,
          "durationTicks": 192,
          "midi": 40,
          "name": "E2",
          "ticks": 43680,
          "time": 49.636314,
          "velocity": 0.7637795275590551
        },
        {
          "duration": 0.2181816000000012,
          "durationTicks": 192,
          "midi": 40,
          "name": "E2",
          "ticks": 43920,
          "time": 49.909041,
          "velocity": 0.8188976377952756
        },
        {
          "duration": 0.2181816000000012,
          "durationTicks": 192,
          "midi": 33,
          "name": "A1",
          "ticks": 44160,
          "time": 50.181768,
          "velocity": 0.8582677165354331
        },
        {
          "duration": 0.2181816000000012,
          "durationTicks": 192,
          "midi": 33,
          "name": "A1",
          "ticks": 44400,
          "time": 50.454495,
          "velocity": 0.8031496062992126
        },
        {
          "duration": 0.2181816000000083,
          "durationTicks": 192,
          "midi": 33,
          "name": "A1",
          "ticks": 44640,
          "time": 50.727222,
          "velocity": 0.8346456692913385
        },
        {
          "duration": 0.10909079999999705,
          "durationTicks": 96,
          "midi": 33,
          "name": "A1",
          "ticks": 44880,
          "time": 50.999949,
          "velocity": 0.8188976377952756
        },
        {
          "duration": 0.10909079999999705,
          "durationTicks": 96,
          "midi": 33,
          "name": "A1",
          "ticks": 45000,
          "time": 51.1363125,
          "velocity": 0.7874015748031497
        },
        {
          "duration": 0.2181816000000083,
          "durationTicks": 192,
          "midi": 33,
          "name": "A1",
          "ticks": 45120,
          "time": 51.272676,
          "velocity": 0.7874015748031497
        },
        {
          "duration": 0.2181816000000012,
          "durationTicks": 192,
          "midi": 33,
          "name": "A1",
          "ticks": 45360,
          "time": 51.545403,
          "velocity": 0.84251968503937
        },
        {
          "duration": 0.10909080000000415,
          "durationTicks": 96,
          "midi": 33,
          "name": "A1",
          "ticks": 45600,
          "time": 51.81813,
          "velocity": 0.8346456692913385
        },
        {
          "duration": 0.10909080000000415,
          "durationTicks": 96,
          "midi": 33,
          "name": "A1",
          "ticks": 45840,
          "time": 52.090857,
          "velocity": 0.8031496062992126
        },
        {
          "duration": 0.10909079999999705,
          "durationTicks": 96,
          "midi": 33,
          "name": "A1",
          "ticks": 45960,
          "time": 52.2272205,
          "velocity": 0.7952755905511811
        },
        {
          "duration": 0.2181816000000012,
          "durationTicks": 192,
          "midi": 38,
          "name": "D2",
          "ticks": 46080,
          "time": 52.363584,
          "velocity": 0.8267716535433071
        },
        {
          "duration": 0.2181816000000012,
          "durationTicks": 192,
          "midi": 38,
          "name": "D2",
          "ticks": 46320,
          "time": 52.636311,
          "velocity": 0.7716535433070866
        },
        {
          "duration": 0.2181816000000012,
          "durationTicks": 192,
          "midi": 38,
          "name": "D2",
          "ticks": 46560,
          "time": 52.909038,
          "velocity": 0.7795275590551181
        },
        {
          "duration": 0.2181816000000012,
          "durationTicks": 192,
          "midi": 38,
          "name": "D2",
          "ticks": 46800,
          "time": 53.181765,
          "velocity": 0.7874015748031497
        },
        {
          "duration": 0.2181816000000012,
          "durationTicks": 192,
          "midi": 40,
          "name": "E2",
          "ticks": 47040,
          "time": 53.454492,
          "velocity": 0.8031496062992126
        },
        {
          "duration": 0.2181816000000012,
          "durationTicks": 192,
          "midi": 40,
          "name": "E2",
          "ticks": 47280,
          "time": 53.727219,
          "velocity": 0.8503937007874016
        },
        {
          "duration": 0.2181816000000012,
          "durationTicks": 192,
          "midi": 40,
          "name": "E2",
          "ticks": 47520,
          "time": 53.999946,
          "velocity": 0.7795275590551181
        },
        {
          "duration": 0.1999998000000005,
          "durationTicks": 176,
          "midi": 40,
          "name": "E2",
          "ticks": 47760,
          "time": 54.272673,
          "velocity": 0.84251968503937
        },
        {
          "duration": 0.2181816000000012,
          "durationTicks": 192,
          "midi": 45,
          "name": "A2",
          "ticks": 48000,
          "time": 54.5454,
          "velocity": 0.8267716535433071
        },
        {
          "duration": 0.2181816000000083,
          "durationTicks": 192,
          "midi": 45,
          "name": "A2",
          "ticks": 48240,
          "time": 54.818127,
          "velocity": 0.8503937007874016
        },
        {
          "duration": 0.2181816000000012,
          "durationTicks": 192,
          "midi": 45,
          "name": "A2",
          "ticks": 48480,
          "time": 55.090854,
          "velocity": 0.7795275590551181
        },
        {
          "duration": 0.2181816000000083,
          "durationTicks": 192,
          "midi": 45,
          "name": "A2",
          "ticks": 48720,
          "time": 55.363580999999996,
          "velocity": 0.8582677165354331
        },
        {
          "duration": 0.2181816000000012,
          "durationTicks": 192,
          "midi": 45,
          "name": "A2",
          "ticks": 48960,
          "time": 55.636308,
          "velocity": 0.7637795275590551
        },
        {
          "duration": 0.2181816000000012,
          "durationTicks": 192,
          "midi": 45,
          "name": "A2",
          "ticks": 49200,
          "time": 55.909035,
          "velocity": 0.84251968503937
        },
        {
          "duration": 0.2181816000000012,
          "durationTicks": 192,
          "midi": 45,
          "name": "A2",
          "ticks": 49440,
          "time": 56.181762,
          "velocity": 0.8582677165354331
        },
        {
          "duration": 0.2181816000000012,
          "durationTicks": 192,
          "midi": 45,
          "name": "A2",
          "ticks": 49680,
          "time": 56.454489,
          "velocity": 0.8188976377952756
        },
        {
          "duration": 0.2181816000000012,
          "durationTicks": 192,
          "midi": 47,
          "name": "B2",
          "ticks": 49920,
          "time": 56.727216,
          "velocity": 0.8582677165354331
        },
        {
          "duration": 0.2181816000000012,
          "durationTicks": 192,
          "midi": 47,
          "name": "B2",
          "ticks": 50160,
          "time": 56.999943,
          "velocity": 0.7480314960629921
        },
        {
          "duration": 0.2181816000000012,
          "durationTicks": 192,
          "midi": 47,
          "name": "B2",
          "ticks": 50400,
          "time": 57.27267,
          "velocity": 0.8503937007874016
        },
        {
          "duration": 0.2181816000000012,
          "durationTicks": 192,
          "midi": 47,
          "name": "B2",
          "ticks": 50640,
          "time": 57.545397,
          "velocity": 0.7637795275590551
        },
        {
          "duration": 0.2181816000000083,
          "durationTicks": 192,
          "midi": 40,
          "name": "E2",
          "ticks": 50880,
          "time": 57.818124,
          "velocity": 0.7952755905511811
        },
        {
          "duration": 0.2181816000000012,
          "durationTicks": 192,
          "midi": 40,
          "name": "E2",
          "ticks": 51120,
          "time": 58.090851,
          "velocity": 0.7716535433070866
        },
        {
          "duration": 0.2181816000000083,
          "durationTicks": 192,
          "midi": 40,
          "name": "E2",
          "ticks": 51360,
          "time": 58.363578,
          "velocity": 0.8188976377952756
        },
        {
          "duration": 0.2181816000000012,
          "durationTicks": 192,
          "midi": 40,
          "name": "E2",
          "ticks": 51600,
          "time": 58.636305,
          "velocity": 0.7795275590551181
        },
        {
          "duration": 0.2181816000000083,
          "durationTicks": 192,
          "midi": 45,
          "name": "A2",
          "ticks": 51840,
          "time": 58.909031999999996,
          "velocity": 0.8188976377952756
        },
        {
          "duration": 0.2181816000000012,
          "durationTicks": 192,
          "midi": 45,
          "name": "A2",
          "ticks": 52080,
          "time": 59.181759,
          "velocity": 0.8031496062992126
        },
        {
          "duration": 0.2181816000000012,
          "durationTicks": 192,
          "midi": 45,
          "name": "A2",
          "ticks": 52320,
          "time": 59.454486,
          "velocity": 0.8503937007874016
        },
        {
          "duration": 0.2181816000000012,
          "durationTicks": 192,
          "midi": 45,
          "name": "A2",
          "ticks": 52560,
          "time": 59.727213,
          "velocity": 0.8188976377952756
        },
        {
          "duration": 0.2181816000000012,
          "durationTicks": 192,
          "midi": 45,
          "name": "A2",
          "ticks": 52800,
          "time": 59.99994,
          "velocity": 0.84251968503937
        },
        {
          "duration": 0.2181816000000012,
          "durationTicks": 192,
          "midi": 45,
          "name": "A2",
          "ticks": 53040,
          "time": 60.272667,
          "velocity": 0.8582677165354331
        },
        {
          "duration": 0.2181816000000012,
          "durationTicks": 192,
          "midi": 45,
          "name": "A2",
          "ticks": 53280,
          "time": 60.545394,
          "velocity": 0.84251968503937
        },
        {
          "duration": 0.2181816000000012,
          "durationTicks": 192,
          "midi": 45,
          "name": "A2",
          "ticks": 53520,
          "time": 60.818121,
          "velocity": 0.8582677165354331
        },
        {
          "duration": 0.2181816000000012,
          "durationTicks": 192,
          "midi": 38,
          "name": "D2",
          "ticks": 53760,
          "time": 61.090848,
          "velocity": 0.8110236220472441
        },
        {
          "duration": 0.2181816000000083,
          "durationTicks": 192,
          "midi": 38,
          "name": "D2",
          "ticks": 54000,
          "time": 61.363575,
          "velocity": 0.7322834645669292
        },
        {
          "duration": 0.2181816000000012,
          "durationTicks": 192,
          "midi": 38,
          "name": "D2",
          "ticks": 54240,
          "time": 61.636302,
          "velocity": 0.8188976377952756
        },
        {
          "duration": 0.2181816000000083,
          "durationTicks": 192,
          "midi": 38,
          "name": "D2",
          "ticks": 54480,
          "time": 61.909029,
          "velocity": 0.7952755905511811
        },
        {
          "duration": 0.2181816000000012,
          "durationTicks": 192,
          "midi": 40,
          "name": "E2",
          "ticks": 54720,
          "time": 62.181756,
          "velocity": 0.8346456692913385
        },
        {
          "duration": 0.2181816000000083,
          "durationTicks": 192,
          "midi": 40,
          "name": "E2",
          "ticks": 54960,
          "time": 62.454482999999996,
          "velocity": 0.7874015748031497
        },
        {
          "duration": 0.2181816000000012,
          "durationTicks": 192,
          "midi": 40,
          "name": "E2",
          "ticks": 55200,
          "time": 62.72721,
          "velocity": 0.7637795275590551
        },
        {
          "duration": 0.2181816000000012,
          "durationTicks": 192,
          "midi": 40,
          "name": "E2",
          "ticks": 55440,
          "time": 62.999937,
          "velocity": 0.8346456692913385
        },
        {
          "duration": 0.2181816000000012,
          "durationTicks": 192,
          "midi": 45,
          "name": "A2",
          "ticks": 55680,
          "time": 63.272664,
          "velocity": 0.7559055118110236
        },
        {
          "duration": 0.2181816000000012,
          "durationTicks": 192,
          "midi": 45,
          "name": "A2",
          "ticks": 55920,
          "time": 63.545391,
          "velocity": 0.7952755905511811
        },
        {
          "duration": 0.2181816000000083,
          "durationTicks": 192,
          "midi": 45,
          "name": "A2",
          "ticks": 56160,
          "time": 63.818118,
          "velocity": 0.7637795275590551
        },
        {
          "duration": 0.2181815999999941,
          "durationTicks": 192,
          "midi": 45,
          "name": "A2",
          "ticks": 56400,
          "time": 64.090845,
          "velocity": 0.8110236220472441
        },
        {
          "duration": 0.2181815999999941,
          "durationTicks": 192,
          "midi": 42,
          "name": "F#2",
          "ticks": 56640,
          "time": 64.363572,
          "velocity": 0.84251968503937
        },
        {
          "duration": 0.2181816000000083,
          "durationTicks": 192,
          "midi": 42,
          "name": "F#2",
          "ticks": 56880,
          "time": 64.636299,
          "velocity": 0.7874015748031497
        },
        {
          "duration": 0.2181816000000083,
          "durationTicks": 192,
          "midi": 42,
          "name": "F#2",
          "ticks": 57120,
          "time": 64.909026,
          "velocity": 0.8188976377952756
        },
        {
          "duration": 0.2181816000000083,
          "durationTicks": 192,
          "midi": 42,
          "name": "F#2",
          "ticks": 57360,
          "time": 65.181753,
          "velocity": 0.8031496062992126
        },
        {
          "duration": 0.2181815999999941,
          "durationTicks": 192,
          "midi": 47,
          "name": "B2",
          "ticks": 57600,
          "time": 65.45448,
          "velocity": 0.8267716535433071
        },
        {
          "duration": 0.2181816000000083,
          "durationTicks": 192,
          "midi": 47,
          "name": "B2",
          "ticks": 57840,
          "time": 65.72720699999999,
          "velocity": 0.7795275590551181
        },
        {
          "duration": 0.2181816000000083,
          "durationTicks": 192,
          "midi": 47,
          "name": "B2",
          "ticks": 58080,
          "time": 65.999934,
          "velocity": 0.8031496062992126
        },
        {
          "duration": 0.2181816000000083,
          "durationTicks": 192,
          "midi": 47,
          "name": "B2",
          "ticks": 58320,
          "time": 66.272661,
          "velocity": 0.8346456692913385
        },
        {
          "duration": 0.2181815999999941,
          "durationTicks": 192,
          "midi": 47,
          "name": "B2",
          "ticks": 58560,
          "time": 66.545388,
          "velocity": 0.7244094488188977
        },
        {
          "duration": 0.2181815999999941,
          "durationTicks": 192,
          "midi": 47,
          "name": "B2",
          "ticks": 58800,
          "time": 66.818115,
          "velocity": 0.8503937007874016
        },
        {
          "duration": 0.2181816000000083,
          "durationTicks": 192,
          "midi": 47,
          "name": "B2",
          "ticks": 59040,
          "time": 67.090842,
          "velocity": 0.8346456692913385
        },
        {
          "duration": 0.2181816000000083,
          "durationTicks": 192,
          "midi": 47,
          "name": "B2",
          "ticks": 59280,
          "time": 67.363569,
          "velocity": 0.8267716535433071
        },
        {
          "duration": 0.2181815999999941,
          "durationTicks": 192,
          "midi": 40,
          "name": "E2",
          "ticks": 59520,
          "time": 67.636296,
          "velocity": 0.7559055118110236
        },
        {
          "duration": 0.2181815999999941,
          "durationTicks": 192,
          "midi": 40,
          "name": "E2",
          "ticks": 59760,
          "time": 67.909023,
          "velocity": 0.8110236220472441
        },
        {
          "duration": 0.2181816000000083,
          "durationTicks": 192,
          "midi": 40,
          "name": "E2",
          "ticks": 60000,
          "time": 68.18175,
          "velocity": 0.8582677165354331
        },
        {
          "duration": 0.10909080000000415,
          "durationTicks": 96,
          "midi": 40,
          "name": "E2",
          "ticks": 60240,
          "time": 68.454477,
          "velocity": 0.7795275590551181
        },
        {
          "duration": 0.10909080000000415,
          "durationTicks": 96,
          "midi": 40,
          "name": "E2",
          "ticks": 60360,
          "time": 68.5908405,
          "velocity": 0.8346456692913385
        },
        {
          "duration": 0.2181816000000083,
          "durationTicks": 192,
          "midi": 40,
          "name": "E2",
          "ticks": 60480,
          "time": 68.727204,
          "velocity": 0.84251968503937
        },
        {
          "duration": 0.2181815999999941,
          "durationTicks": 192,
          "midi": 40,
          "name": "E2",
          "ticks": 60720,
          "time": 68.999931,
          "velocity": 0.8110236220472441
        },
        {
          "duration": 0.2181816000000083,
          "durationTicks": 192,
          "midi": 40,
          "name": "E2",
          "ticks": 60960,
          "time": 69.27265799999999,
          "velocity": 0.7637795275590551
        },
        {
          "duration": 0.10909080000000415,
          "durationTicks": 96,
          "midi": 40,
          "name": "E2",
          "ticks": 61200,
          "time": 69.545385,
          "velocity": 0.8188976377952756
        },
        {
          "duration": 0.10909080000000415,
          "durationTicks": 96,
          "midi": 40,
          "name": "E2",
          "ticks": 61320,
          "time": 69.6817485,
          "velocity": 0.8110236220472441
        },
        {
          "duration": 0.2181816000000083,
          "durationTicks": 192,
          "midi": 33,
          "name": "A1",
          "ticks": 61440,
          "time": 69.818112,
          "velocity": 0.8188976377952756
        },
        {
          "duration": 0.2181815999999941,
          "durationTicks": 192,
          "midi": 33,
          "name": "A1",
          "ticks": 61680,
          "time": 70.090839,
          "velocity": 0.8188976377952756
        },
        {
          "duration": 0.2181815999999941,
          "durationTicks": 192,
          "midi": 33,
          "name": "A1",
          "ticks": 61920,
          "time": 70.363566,
          "velocity": 0.8503937007874016
        },
        {
          "duration": 0.2181816000000083,
          "durationTicks": 192,
          "midi": 33,
          "name": "A1",
          "ticks": 62160,
          "time": 70.636293,
          "velocity": 0.7559055118110236
        },
        {
          "duration": 0.2181816000000083,
          "durationTicks": 192,
          "midi": 33,
          "name": "A1",
          "ticks": 62400,
          "time": 70.90902,
          "velocity": 0.84251968503937
        },
        {
          "duration": 0.2181815999999941,
          "durationTicks": 192,
          "midi": 33,
          "name": "A1",
          "ticks": 62640,
          "time": 71.181747,
          "velocity": 0.8110236220472441
        },
        {
          "duration": 0.2181815999999941,
          "durationTicks": 192,
          "midi": 33,
          "name": "A1",
          "ticks": 62880,
          "time": 71.454474,
          "velocity": 0.8582677165354331
        },
        {
          "duration": 0.10909080000000415,
          "durationTicks": 96,
          "midi": 33,
          "name": "A1",
          "ticks": 63120,
          "time": 71.727201,
          "velocity": 0.8503937007874016
        },
        {
          "duration": 0.10909080000000415,
          "durationTicks": 96,
          "midi": 33,
          "name": "A1",
          "ticks": 63240,
          "time": 71.8635645,
          "velocity": 0.8582677165354331
        },
        {
          "duration": 0.2181816000000083,
          "durationTicks": 192,
          "midi": 30,
          "name": "F#1",
          "ticks": 63360,
          "time": 71.999928,
          "velocity": 0.7401574803149606
        },
        {
          "duration": 0.2181816000000083,
          "durationTicks": 192,
          "midi": 30,
          "name": "F#1",
          "ticks": 63600,
          "time": 72.272655,
          "velocity": 0.7795275590551181
        },
        {
          "duration": 0.2181815999999941,
          "durationTicks": 192,
          "midi": 30,
          "name": "F#1",
          "ticks": 63840,
          "time": 72.545382,
          "velocity": 0.8031496062992126
        },
        {
          "duration": 0.2181816000000083,
          "durationTicks": 192,
          "midi": 30,
          "name": "F#1",
          "ticks": 64080,
          "time": 72.81810899999999,
          "velocity": 0.7952755905511811
        },
        {
          "duration": 0.2181816000000083,
          "durationTicks": 192,
          "midi": 30,
          "name": "F#1",
          "ticks": 64320,
          "time": 73.090836,
          "velocity": 0.8346456692913385
        },
        {
          "duration": 0.2181816000000083,
          "durationTicks": 192,
          "midi": 30,
          "name": "F#1",
          "ticks": 64560,
          "time": 73.363563,
          "velocity": 0.8188976377952756
        },
        {
          "duration": 0.2181815999999941,
          "durationTicks": 192,
          "midi": 30,
          "name": "F#1",
          "ticks": 64800,
          "time": 73.63629,
          "velocity": 0.84251968503937
        },
        {
          "duration": 0.2181815999999941,
          "durationTicks": 192,
          "midi": 30,
          "name": "F#1",
          "ticks": 65040,
          "time": 73.909017,
          "velocity": 0.8110236220472441
        },
        {
          "duration": 0.2181816000000083,
          "durationTicks": 192,
          "midi": 38,
          "name": "D2",
          "ticks": 65280,
          "time": 74.181744,
          "velocity": 0.84251968503937
        },
        {
          "duration": 0.2181816000000083,
          "durationTicks": 192,
          "midi": 38,
          "name": "D2",
          "ticks": 65520,
          "time": 74.454471,
          "velocity": 0.8188976377952756
        },
        {
          "duration": 0.2181815999999941,
          "durationTicks": 192,
          "midi": 38,
          "name": "D2",
          "ticks": 65760,
          "time": 74.727198,
          "velocity": 0.8503937007874016
        },
        {
          "duration": 0.10909079999998994,
          "durationTicks": 96,
          "midi": 38,
          "name": "D2",
          "ticks": 66000,
          "time": 74.999925,
          "velocity": 0.8503937007874016
        },
        {
          "duration": 0.2181816000000083,
          "durationTicks": 192,
          "midi": 38,
          "name": "D2",
          "ticks": 66240,
          "time": 75.272652,
          "velocity": 0.84251968503937
        },
        {
          "duration": 0.2181816000000083,
          "durationTicks": 192,
          "midi": 38,
          "name": "D2",
          "ticks": 66480,
          "time": 75.545379,
          "velocity": 0.8503937007874016
        },
        {
          "duration": 0.2181816000000083,
          "durationTicks": 192,
          "midi": 38,
          "name": "D2",
          "ticks": 66720,
          "time": 75.818106,
          "velocity": 0.8267716535433071
        },
        {
          "duration": 0.10909079999998994,
          "durationTicks": 96,
          "midi": 33,
          "name": "A1",
          "ticks": 66960,
          "time": 76.090833,
          "velocity": 0.8188976377952756
        },
        {
          "duration": 0.10909079999998994,
          "durationTicks": 96,
          "midi": 33,
          "name": "A1",
          "ticks": 67080,
          "time": 76.2271965,
          "velocity": 0.8267716535433071
        },
        {
          "duration": 0.2181816000000083,
          "durationTicks": 192,
          "midi": 38,
          "name": "D2",
          "ticks": 67200,
          "time": 76.36355999999999,
          "velocity": 0.8503937007874016
        },
        {
          "duration": 0.2181816000000083,
          "durationTicks": 192,
          "midi": 38,
          "name": "D2",
          "ticks": 67440,
          "time": 76.636287,
          "velocity": 0.8188976377952756
        },
        {
          "duration": 0.2181816000000083,
          "durationTicks": 192,
          "midi": 38,
          "name": "D2",
          "ticks": 67680,
          "time": 76.909014,
          "velocity": 0.8346456692913385
        },
        {
          "duration": 0.10909079999998994,
          "durationTicks": 96,
          "midi": 38,
          "name": "D2",
          "ticks": 67920,
          "time": 77.181741,
          "velocity": 0.8188976377952756
        },
        {
          "duration": 0.2181815999999941,
          "durationTicks": 192,
          "midi": 38,
          "name": "D2",
          "ticks": 68160,
          "time": 77.454468,
          "velocity": 0.8110236220472441
        },
        {
          "duration": 0.2181816000000083,
          "durationTicks": 192,
          "midi": 33,
          "name": "A1",
          "ticks": 68400,
          "time": 77.727195,
          "velocity": 0.7874015748031497
        },
        {
          "duration": 0.2181816000000083,
          "durationTicks": 192,
          "midi": 38,
          "name": "D2",
          "ticks": 68640,
          "time": 77.999922,
          "velocity": 0.84251968503937
        },
        {
          "duration": 0.2181815999999941,
          "durationTicks": 192,
          "midi": 38,
          "name": "D2",
          "ticks": 68880,
          "time": 78.272649,
          "velocity": 0.8503937007874016
        },
        {
          "duration": 0.2181815999999941,
          "durationTicks": 192,
          "midi": 33,
          "name": "A1",
          "ticks": 69120,
          "time": 78.545376,
          "velocity": 0.84251968503937
        },
        {
          "duration": 0.2181816000000083,
          "durationTicks": 192,
          "midi": 33,
          "name": "A1",
          "ticks": 69360,
          "time": 78.818103,
          "velocity": 0.8582677165354331
        },
        {
          "duration": 0.2181816000000083,
          "durationTicks": 192,
          "midi": 33,
          "name": "A1",
          "ticks": 69600,
          "time": 79.09083,
          "velocity": 0.8188976377952756
        },
        {
          "duration": 0.10909079999998994,
          "durationTicks": 96,
          "midi": 33,
          "name": "A1",
          "ticks": 69840,
          "time": 79.363557,
          "velocity": 0.7874015748031497
        },
        {
          "duration": 0.10909079999998994,
          "durationTicks": 96,
          "midi": 33,
          "name": "A1",
          "ticks": 69960,
          "time": 79.4999205,
          "velocity": 0.8503937007874016
        },
        {
          "duration": 0.2181815999999941,
          "durationTicks": 192,
          "midi": 37,
          "name": "C#2",
          "ticks": 70080,
          "time": 79.636284,
          "velocity": 0.8031496062992126
        },
        {
          "duration": 0.2181816000000083,
          "durationTicks": 192,
          "midi": 37,
          "name": "C#2",
          "ticks": 70320,
          "time": 79.90901099999999,
          "velocity": 0.7480314960629921
        },
        {
          "duration": 0.2181816000000083,
          "durationTicks": 192,
          "midi": 37,
          "name": "C#2",
          "ticks": 70560,
          "time": 80.181738,
          "velocity": 0.7716535433070866
        },
        {
          "duration": 0.10909079999998994,
          "durationTicks": 96,
          "midi": 37,
          "name": "C#2",
          "ticks": 70800,
          "time": 80.454465,
          "velocity": 0.8188976377952756
        },
        {
          "duration": 0.10909079999998994,
          "durationTicks": 96,
          "midi": 37,
          "name": "C#2",
          "ticks": 70920,
          "time": 80.5908285,
          "velocity": 0.84251968503937
        },
        {
          "duration": 0.2181815999999941,
          "durationTicks": 192,
          "midi": 42,
          "name": "F#2",
          "ticks": 71040,
          "time": 80.727192,
          "velocity": 0.84251968503937
        },
        {
          "duration": 0.2181815999999941,
          "durationTicks": 192,
          "midi": 42,
          "name": "F#2",
          "ticks": 71280,
          "time": 80.999919,
          "velocity": 0.8503937007874016
        },
        {
          "duration": 0.2181816000000083,
          "durationTicks": 192,
          "midi": 42,
          "name": "F#2",
          "ticks": 71520,
          "time": 81.272646,
          "velocity": 0.8346456692913385
        },
        {
          "duration": 0.10909079999998994,
          "durationTicks": 96,
          "midi": 42,
          "name": "F#2",
          "ticks": 71760,
          "time": 81.545373,
          "velocity": 0.8110236220472441
        },
        {
          "duration": 0.10909079999998994,
          "durationTicks": 96,
          "midi": 42,
          "name": "F#2",
          "ticks": 71880,
          "time": 81.6817365,
          "velocity": 0.8503937007874016
        },
        {
          "duration": 0.2181815999999941,
          "durationTicks": 192,
          "midi": 33,
          "name": "A1",
          "ticks": 72000,
          "time": 81.8181,
          "velocity": 0.8188976377952756
        },
        {
          "duration": 0.2181815999999941,
          "durationTicks": 192,
          "midi": 33,
          "name": "A1",
          "ticks": 72240,
          "time": 82.090827,
          "velocity": 0.7874015748031497
        },
        {
          "duration": 0.2181816000000083,
          "durationTicks": 192,
          "midi": 33,
          "name": "A1",
          "ticks": 72480,
          "time": 82.363554,
          "velocity": 0.8110236220472441
        },
        {
          "duration": 0.2181816000000083,
          "durationTicks": 192,
          "midi": 33,
          "name": "A1",
          "ticks": 72720,
          "time": 82.636281,
          "velocity": 0.8582677165354331
        },
        {
          "duration": 0.2181816000000083,
          "durationTicks": 192,
          "midi": 38,
          "name": "D2",
          "ticks": 72960,
          "time": 82.909008,
          "velocity": 0.8031496062992126
        },
        {
          "duration": 0.2181815999999941,
          "durationTicks": 192,
          "midi": 38,
          "name": "D2",
          "ticks": 73200,
          "time": 83.181735,
          "velocity": 0.8188976377952756
        },
        {
          "duration": 0.2181816000000083,
          "durationTicks": 192,
          "midi": 37,
          "name": "C#2",
          "ticks": 73440,
          "time": 83.45446199999999,
          "velocity": 0.7952755905511811
        },
        {
          "duration": 0.2181816000000083,
          "durationTicks": 192,
          "midi": 37,
          "name": "C#2",
          "ticks": 73680,
          "time": 83.727189,
          "velocity": 0.7874015748031497
        },
        {
          "duration": 0.2181816000000083,
          "durationTicks": 192,
          "midi": 35,
          "name": "B1",
          "ticks": 73920,
          "time": 83.999916,
          "velocity": 0.8346456692913385
        },
        {
          "duration": 0.2181815999999941,
          "durationTicks": 192,
          "midi": 35,
          "name": "B1",
          "ticks": 74160,
          "time": 84.272643,
          "velocity": 0.8346456692913385
        },
        {
          "duration": 0.2181815999999941,
          "durationTicks": 192,
          "midi": 35,
          "name": "B1",
          "ticks": 74400,
          "time": 84.54537,
          "velocity": 0.7716535433070866
        },
        {
          "duration": 0.2181816000000083,
          "durationTicks": 192,
          "midi": 40,
          "name": "E2",
          "ticks": 74640,
          "time": 84.818097,
          "velocity": 0.84251968503937
        },
        {
          "duration": 0.2181816000000083,
          "durationTicks": 192,
          "midi": 40,
          "name": "E2",
          "ticks": 74880,
          "time": 85.090824,
          "velocity": 0.8188976377952756
        },
        {
          "duration": 0.2181815999999941,
          "durationTicks": 192,
          "midi": 40,
          "name": "E2",
          "ticks": 75120,
          "time": 85.363551,
          "velocity": 0.7952755905511811
        },
        {
          "duration": 0.2181815999999941,
          "durationTicks": 192,
          "midi": 40,
          "name": "E2",
          "ticks": 75360,
          "time": 85.636278,
          "velocity": 0.8267716535433071
        },
        {
          "duration": 0.2181816000000083,
          "durationTicks": 192,
          "midi": 40,
          "name": "E2",
          "ticks": 75600,
          "time": 85.909005,
          "velocity": 0.7795275590551181
        },
        {
          "duration": 0.2181816000000083,
          "durationTicks": 192,
          "midi": 40,
          "name": "E2",
          "ticks": 75840,
          "time": 86.181732,
          "velocity": 0.8110236220472441
        },
        {
          "duration": 0.2181816000000083,
          "durationTicks": 192,
          "midi": 40,
          "name": "E2",
          "ticks": 76080,
          "time": 86.454459,
          "velocity": 0.7795275590551181
        },
        {
          "duration": 0.2181815999999941,
          "durationTicks": 192,
          "midi": 40,
          "name": "E2",
          "ticks": 76320,
          "time": 86.727186,
          "velocity": 0.8267716535433071
        },
        {
          "duration": 0.2181816000000083,
          "durationTicks": 192,
          "midi": 40,
          "name": "E2",
          "ticks": 76560,
          "time": 86.99991299999999,
          "velocity": 0.8582677165354331
        },
        {
          "duration": 0.2181816000000083,
          "durationTicks": 192,
          "midi": 33,
          "name": "A1",
          "ticks": 76800,
          "time": 87.27264,
          "velocity": 0.7952755905511811
        },
        {
          "duration": 0.2181816000000083,
          "durationTicks": 192,
          "midi": 33,
          "name": "A1",
          "ticks": 77040,
          "time": 87.545367,
          "velocity": 0.8267716535433071
        },
        {
          "duration": 0.2181815999999941,
          "durationTicks": 192,
          "midi": 33,
          "name": "A1",
          "ticks": 77280,
          "time": 87.818094,
          "velocity": 0.7716535433070866
        },
        {
          "duration": 0.2181815999999941,
          "durationTicks": 192,
          "midi": 33,
          "name": "A1",
          "ticks": 77520,
          "time": 88.090821,
          "velocity": 0.8031496062992126
        },
        {
          "duration": 0.2181816000000083,
          "durationTicks": 192,
          "midi": 37,
          "name": "C#2",
          "ticks": 77760,
          "time": 88.363548,
          "velocity": 0.7637795275590551
        },
        {
          "duration": 0.2181816000000083,
          "durationTicks": 192,
          "midi": 37,
          "name": "C#2",
          "ticks": 78000,
          "time": 88.636275,
          "velocity": 0.84251968503937
        },
        {
          "duration": 0.2181816000000083,
          "durationTicks": 192,
          "midi": 37,
          "name": "C#2",
          "ticks": 78240,
          "time": 88.909002,
          "velocity": 0.7401574803149606
        },
        {
          "duration": 0.2090906999999902,
          "durationTicks": 184,
          "midi": 37,
          "name": "C#2",
          "ticks": 78480,
          "time": 89.181729,
          "velocity": 0.8188976377952756
        },
        {
          "duration": 0.2181816000000083,
          "durationTicks": 192,
          "midi": 42,
          "name": "F#2",
          "ticks": 78720,
          "time": 89.454456,
          "velocity": 0.7322834645669292
        },
        {
          "duration": 0.2181816000000083,
          "durationTicks": 192,
          "midi": 42,
          "name": "F#2",
          "ticks": 78960,
          "time": 89.727183,
          "velocity": 0.8503937007874016
        },
        {
          "duration": 0.2181816000000083,
          "durationTicks": 192,
          "midi": 42,
          "name": "F#2",
          "ticks": 79200,
          "time": 89.99991,
          "velocity": 0.8582677165354331
        },
        {
          "duration": 0.10909079999998994,
          "durationTicks": 96,
          "midi": 42,
          "name": "F#2",
          "ticks": 79440,
          "time": 90.272637,
          "velocity": 0.7795275590551181
        },
        {
          "duration": 0.10909079999998994,
          "durationTicks": 96,
          "midi": 42,
          "name": "F#2",
          "ticks": 79560,
          "time": 90.4090005,
          "velocity": 0.7795275590551181
        },
        {
          "duration": 0.2181816000000083,
          "durationTicks": 192,
          "midi": 33,
          "name": "A1",
          "ticks": 79680,
          "time": 90.54536399999999,
          "velocity": 0.8582677165354331
        },
        {
          "duration": 0.2181816000000083,
          "durationTicks": 192,
          "midi": 33,
          "name": "A1",
          "ticks": 79920,
          "time": 90.818091,
          "velocity": 0.8267716535433071
        },
        {
          "duration": 0.2181816000000083,
          "durationTicks": 192,
          "midi": 33,
          "name": "A1",
          "ticks": 80160,
          "time": 91.090818,
          "velocity": 0.8110236220472441
        },
        {
          "duration": 0.2181815999999941,
          "durationTicks": 192,
          "midi": 33,
          "name": "A1",
          "ticks": 80400,
          "time": 91.363545,
          "velocity": 0.8110236220472441
        },
        {
          "duration": 0.2181815999999941,
          "durationTicks": 192,
          "midi": 38,
          "name": "D2",
          "ticks": 80640,
          "time": 91.636272,
          "velocity": 0.84251968503937
        },
        {
          "duration": 0.2181816000000083,
          "durationTicks": 192,
          "midi": 38,
          "name": "D2",
          "ticks": 80880,
          "time": 91.908999,
          "velocity": 0.7716535433070866
        },
        {
          "duration": 0.2181816000000083,
          "durationTicks": 192,
          "midi": 38,
          "name": "D2",
          "ticks": 81120,
          "time": 92.181726,
          "velocity": 0.8267716535433071
        },
        {
          "duration": 0.10909079999998994,
          "durationTicks": 96,
          "midi": 38,
          "name": "D2",
          "ticks": 81360,
          "time": 92.454453,
          "velocity": 0.7952755905511811
        },
        {
          "duration": 0.10909079999998994,
          "durationTicks": 96,
          "midi": 38,
          "name": "D2",
          "ticks": 81480,
          "time": 92.5908165,
          "velocity": 0.8503937007874016
        },
        {
          "duration": 0.2181815999999941,
          "durationTicks": 192,
          "midi": 40,
          "name": "E2",
          "ticks": 81600,
          "time": 92.72718,
          "velocity": 0.84251968503937
        },
        {
          "duration": 0.2181816000000083,
          "durationTicks": 192,
          "midi": 40,
          "name": "E2",
          "ticks": 81840,
          "time": 92.999907,
          "velocity": 0.7952755905511811
        },
        {
          "duration": 0.2181816000000083,
          "durationTicks": 192,
          "midi": 40,
          "name": "E2",
          "ticks": 82080,
          "time": 93.272634,
          "velocity": 0.8110236220472441
        },
        {
          "duration": 0.10909079999998994,
          "durationTicks": 96,
          "midi": 40,
          "name": "E2",
          "ticks": 82320,
          "time": 93.545361,
          "velocity": 0.8582677165354331
        },
        {
          "duration": 0.10909079999998994,
          "durationTicks": 96,
          "midi": 40,
          "name": "E2",
          "ticks": 82440,
          "time": 93.6817245,
          "velocity": 0.8346456692913385
        },
        {
          "duration": 0.2181815999999941,
          "durationTicks": 192,
          "midi": 33,
          "name": "A1",
          "ticks": 82560,
          "time": 93.818088,
          "velocity": 0.84251968503937
        },
        {
          "duration": 0.10909080000000415,
          "durationTicks": 96,
          "midi": 33,
          "name": "A1",
          "ticks": 82800,
          "time": 94.09081499999999,
          "velocity": 0.8503937007874016
        },
        {
          "duration": 0.10909080000000415,
          "durationTicks": 96,
          "midi": 33,
          "name": "A1",
          "ticks": 83040,
          "time": 94.363542,
          "velocity": 0.8110236220472441
        },
        {
          "duration": 0.2181816000000083,
          "durationTicks": 192,
          "midi": 33,
          "name": "A1",
          "ticks": 83280,
          "time": 94.636269,
          "velocity": 0.7874015748031497
        },
        {
          "duration": 0.2181815999999941,
          "durationTicks": 192,
          "midi": 33,
          "name": "A1",
          "ticks": 83520,
          "time": 94.908996,
          "velocity": 0.8110236220472441
        },
        {
          "duration": 0.2181815999999941,
          "durationTicks": 192,
          "midi": 33,
          "name": "A1",
          "ticks": 83760,
          "time": 95.181723,
          "velocity": 0.7952755905511811
        },
        {
          "duration": 0.10909080000000415,
          "durationTicks": 96,
          "midi": 33,
          "name": "A1",
          "ticks": 84000,
          "time": 95.45445,
          "velocity": 0.84251968503937
        },
        {
          "duration": 0.2181816000000083,
          "durationTicks": 192,
          "midi": 33,
          "name": "A1",
          "ticks": 84240,
          "time": 95.727177,
          "velocity": 0.8346456692913385
        },
        {
          "duration": 0.2181816000000083,
          "durationTicks": 192,
          "midi": 33,
          "name": "A1",
          "ticks": 84480,
          "time": 95.999904,
          "velocity": 0.8346456692913385
        },
        {
          "duration": 0.10909079999998994,
          "durationTicks": 96,
          "midi": 33,
          "name": "A1",
          "ticks": 84720,
          "time": 96.272631,
          "velocity": 0.84251968503937
        },
        {
          "duration": 0.10909080000000415,
          "durationTicks": 96,
          "midi": 33,
          "name": "A1",
          "ticks": 84960,
          "time": 96.545358,
          "velocity": 0.84251968503937
        },
        {
          "duration": 0.2181816000000083,
          "durationTicks": 192,
          "midi": 33,
          "name": "A1",
          "ticks": 85200,
          "time": 96.818085,
          "velocity": 0.8188976377952756
        },
        {
          "duration": 0.2181816000000083,
          "durationTicks": 192,
          "midi": 33,
          "name": "A1",
          "ticks": 85440,
          "time": 97.090812,
          "velocity": 0.7795275590551181
        },
        {
          "duration": 0.2181815999999941,
          "durationTicks": 192,
          "midi": 33,
          "name": "A1",
          "ticks": 85680,
          "time": 97.363539,
          "velocity": 0.7480314960629921
        },
        {
          "duration": 0.10909080000000415,
          "durationTicks": 96,
          "midi": 33,
          "name": "A1",
          "ticks": 85920,
          "time": 97.63626599999999,
          "velocity": 0.7480314960629921
        },
        {
          "duration": 0.2181816000000083,
          "durationTicks": 192,
          "midi": 33,
          "name": "A1",
          "ticks": 86160,
          "time": 97.908993,
          "velocity": 0.8582677165354331
        },
        {
          "duration": 0.2181816000000083,
          "durationTicks": 192,
          "midi": 38,
          "name": "D2",
          "ticks": 86400,
          "time": 98.18172,
          "velocity": 0.7874015748031497
        },
        {
          "duration": 0.2181815999999941,
          "durationTicks": 192,
          "midi": 38,
          "name": "D2",
          "ticks": 86640,
          "time": 98.454447,
          "velocity": 0.8110236220472441
        },
        {
          "duration": 0.2181815999999941,
          "durationTicks": 192,
          "midi": 38,
          "name": "D2",
          "ticks": 86880,
          "time": 98.727174,
          "velocity": 0.8582677165354331
        },
        {
          "duration": 0.2181816000000083,
          "durationTicks": 192,
          "midi": 38,
          "name": "D2",
          "ticks": 87120,
          "time": 98.999901,
          "velocity": 0.7165354330708661
        },
        {
          "duration": 0.2181816000000083,
          "durationTicks": 192,
          "midi": 40,
          "name": "E2",
          "ticks": 87360,
          "time": 99.272628,
          "velocity": 0.8110236220472441
        },
        {
          "duration": 0.2181816000000083,
          "durationTicks": 192,
          "midi": 40,
          "name": "E2",
          "ticks": 87600,
          "time": 99.545355,
          "velocity": 0.7480314960629921
        },
        {
          "duration": 0.2181815999999941,
          "durationTicks": 192,
          "midi": 40,
          "name": "E2",
          "ticks": 87840,
          "time": 99.818082,
          "velocity": 0.7952755905511811
        },
        {
          "duration": 0.19999980000001472,
          "durationTicks": 176,
          "midi": 40,
          "name": "E2",
          "ticks": 88080,
          "time": 100.090809,
          "velocity": 0.7874015748031497
        },
        {
          "duration": 0.2181816000000083,
          "durationTicks": 192,
          "midi": 45,
          "name": "A2",
          "ticks": 88320,
          "time": 100.363536,
          "velocity": 0.7874015748031497
        },
        {
          "duration": 0.2181816000000083,
          "durationTicks": 192,
          "midi": 45,
          "name": "A2",
          "ticks": 88560,
          "time": 100.636263,
          "velocity": 0.8110236220472441
        },
        {
          "duration": 0.2181815999999941,
          "durationTicks": 192,
          "midi": 45,
          "name": "A2",
          "ticks": 88800,
          "time": 100.90899,
          "velocity": 0.84251968503937
        },
        {
          "duration": 0.2181816000000083,
          "durationTicks": 192,
          "midi": 45,
          "name": "A2",
          "ticks": 89040,
          "time": 101.18171699999999,
          "velocity": 0.8582677165354331
        },
        {
          "duration": 0.2181816000000083,
          "durationTicks": 192,
          "midi": 45,
          "name": "A2",
          "ticks": 89280,
          "time": 101.454444,
          "velocity": 0.8188976377952756
        },
        {
          "duration": 0.2181816000000083,
          "durationTicks": 192,
          "midi": 45,
          "name": "A2",
          "ticks": 89520,
          "time": 101.727171,
          "velocity": 0.7637795275590551
        },
        {
          "duration": 0.2181815999999941,
          "durationTicks": 192,
          "midi": 45,
          "name": "A2",
          "ticks": 89760,
          "time": 101.999898,
          "velocity": 0.8188976377952756
        },
        {
          "duration": 0.2181815999999941,
          "durationTicks": 192,
          "midi": 45,
          "name": "A2",
          "ticks": 90000,
          "time": 102.272625,
          "velocity": 0.7874015748031497
        },
        {
          "duration": 0.2181816000000083,
          "durationTicks": 192,
          "midi": 47,
          "name": "B2",
          "ticks": 90240,
          "time": 102.545352,
          "velocity": 0.8031496062992126
        },
        {
          "duration": 0.2181816000000083,
          "durationTicks": 192,
          "midi": 47,
          "name": "B2",
          "ticks": 90480,
          "time": 102.818079,
          "velocity": 0.8346456692913385
        },
        {
          "duration": 0.2181816000000083,
          "durationTicks": 192,
          "midi": 47,
          "name": "B2",
          "ticks": 90720,
          "time": 103.090806,
          "velocity": 0.8188976377952756
        },
        {
          "duration": 0.2181815999999941,
          "durationTicks": 192,
          "midi": 47,
          "name": "B2",
          "ticks": 90960,
          "time": 103.363533,
          "velocity": 0.8031496062992126
        },
        {
          "duration": 0.2181816000000083,
          "durationTicks": 192,
          "midi": 40,
          "name": "E2",
          "ticks": 91200,
          "time": 103.63626,
          "velocity": 0.8503937007874016
        },
        {
          "duration": 0.2181816000000083,
          "durationTicks": 192,
          "midi": 40,
          "name": "E2",
          "ticks": 91440,
          "time": 103.908987,
          "velocity": 0.8582677165354331
        },
        {
          "duration": 0.2181816000000083,
          "durationTicks": 192,
          "midi": 40,
          "name": "E2",
          "ticks": 91680,
          "time": 104.181714,
          "velocity": 0.7480314960629921
        },
        {
          "duration": 0.2181815999999941,
          "durationTicks": 192,
          "midi": 40,
          "name": "E2",
          "ticks": 91920,
          "time": 104.454441,
          "velocity": 0.8582677165354331
        },
        {
          "duration": 0.2181815999999941,
          "durationTicks": 192,
          "midi": 45,
          "name": "A2",
          "ticks": 92160,
          "time": 104.727168,
          "velocity": 0.8582677165354331
        },
        {
          "duration": 0.2181816000000083,
          "durationTicks": 192,
          "midi": 45,
          "name": "A2",
          "ticks": 92400,
          "time": 104.999895,
          "velocity": 0.8031496062992126
        },
        {
          "duration": 0.2181816000000083,
          "durationTicks": 192,
          "midi": 45,
          "name": "A2",
          "ticks": 92640,
          "time": 105.272622,
          "velocity": 0.84251968503937
        },
        {
          "duration": 0.2181815999999941,
          "durationTicks": 192,
          "midi": 45,
          "name": "A2",
          "ticks": 92880,
          "time": 105.545349,
          "velocity": 0.7874015748031497
        },
        {
          "duration": 0.2181815999999941,
          "durationTicks": 192,
          "midi": 45,
          "name": "A2",
          "ticks": 93120,
          "time": 105.818076,
          "velocity": 0.8503937007874016
        },
        {
          "duration": 0.2181816000000083,
          "durationTicks": 192,
          "midi": 45,
          "name": "A2",
          "ticks": 93360,
          "time": 106.090803,
          "velocity": 0.84251968503937
        },
        {
          "duration": 0.2181816000000083,
          "durationTicks": 192,
          "midi": 45,
          "name": "A2",
          "ticks": 93600,
          "time": 106.36353,
          "velocity": 0.8188976377952756
        },
        {
          "duration": 0.2181816000000083,
          "durationTicks": 192,
          "midi": 45,
          "name": "A2",
          "ticks": 93840,
          "time": 106.636257,
          "velocity": 0.8346456692913385
        },
        {
          "duration": 0.2181815999999941,
          "durationTicks": 192,
          "midi": 38,
          "name": "D2",
          "ticks": 94080,
          "time": 106.908984,
          "velocity": 0.84251968503937
        },
        {
          "duration": 0.2181816000000083,
          "durationTicks": 192,
          "midi": 38,
          "name": "D2",
          "ticks": 94320,
          "time": 107.18171099999999,
          "velocity": 0.7952755905511811
        },
        {
          "duration": 0.2181816000000083,
          "durationTicks": 192,
          "midi": 38,
          "name": "D2",
          "ticks": 94560,
          "time": 107.454438,
          "velocity": 0.8582677165354331
        },
        {
          "duration": 0.2181816000000083,
          "durationTicks": 192,
          "midi": 38,
          "name": "D2",
          "ticks": 94800,
          "time": 107.727165,
          "velocity": 0.8110236220472441
        },
        {
          "duration": 0.2181815999999941,
          "durationTicks": 192,
          "midi": 40,
          "name": "E2",
          "ticks": 95040,
          "time": 107.999892,
          "velocity": 0.84251968503937
        },
        {
          "duration": 0.2181815999999941,
          "durationTicks": 192,
          "midi": 40,
          "name": "E2",
          "ticks": 95280,
          "time": 108.272619,
          "velocity": 0.8582677165354331
        },
        {
          "duration": 0.2181816000000083,
          "durationTicks": 192,
          "midi": 40,
          "name": "E2",
          "ticks": 95520,
          "time": 108.545346,
          "velocity": 0.7637795275590551
        },
        {
          "duration": 0.2181816000000083,
          "durationTicks": 192,
          "midi": 40,
          "name": "E2",
          "ticks": 95760,
          "time": 108.818073,
          "velocity": 0.8346456692913385
        },
        {
          "duration": 0.2181815999999941,
          "durationTicks": 192,
          "midi": 45,
          "name": "A2",
          "ticks": 96000,
          "time": 109.0908,
          "velocity": 0.8346456692913385
        },
        {
          "duration": 0.2181815999999941,
          "durationTicks": 192,
          "midi": 45,
          "name": "A2",
          "ticks": 96240,
          "time": 109.363527,
          "velocity": 0.8031496062992126
        },
        {
          "duration": 0.2181816000000083,
          "durationTicks": 192,
          "midi": 45,
          "name": "A2",
          "ticks": 96480,
          "time": 109.636254,
          "velocity": 0.7637795275590551
        },
        {
          "duration": 0.2181816000000083,
          "durationTicks": 192,
          "midi": 45,
          "name": "A2",
          "ticks": 96720,
          "time": 109.908981,
          "velocity": 0.8110236220472441
        },
        {
          "duration": 0.2181816000000083,
          "durationTicks": 192,
          "midi": 42,
          "name": "F#2",
          "ticks": 96960,
          "time": 110.181708,
          "velocity": 0.7795275590551181
        },
        {
          "duration": 0.2181815999999941,
          "durationTicks": 192,
          "midi": 42,
          "name": "F#2",
          "ticks": 97200,
          "time": 110.454435,
          "velocity": 0.8582677165354331
        },
        {
          "duration": 0.2181816000000083,
          "durationTicks": 192,
          "midi": 42,
          "name": "F#2",
          "ticks": 97440,
          "time": 110.72716199999999,
          "velocity": 0.8582677165354331
        },
        {
          "duration": 0.2181816000000083,
          "durationTicks": 192,
          "midi": 42,
          "name": "F#2",
          "ticks": 97680,
          "time": 110.999889,
          "velocity": 0.7952755905511811
        },
        {
          "duration": 0.2181816000000083,
          "durationTicks": 192,
          "midi": 47,
          "name": "B2",
          "ticks": 97920,
          "time": 111.272616,
          "velocity": 0.7716535433070866
        },
        {
          "duration": 0.2181815999999941,
          "durationTicks": 192,
          "midi": 47,
          "name": "B2",
          "ticks": 98160,
          "time": 111.545343,
          "velocity": 0.7637795275590551
        },
        {
          "duration": 0.2181815999999941,
          "durationTicks": 192,
          "midi": 47,
          "name": "B2",
          "ticks": 98400,
          "time": 111.81807,
          "velocity": 0.8188976377952756
        },
        {
          "duration": 0.2181816000000083,
          "durationTicks": 192,
          "midi": 47,
          "name": "B2",
          "ticks": 98640,
          "time": 112.090797,
          "velocity": 0.8346456692913385
        },
        {
          "duration": 0.2181816000000083,
          "durationTicks": 192,
          "midi": 47,
          "name": "B2",
          "ticks": 98880,
          "time": 112.363524,
          "velocity": 0.8267716535433071
        },
        {
          "duration": 0.2181815999999941,
          "durationTicks": 192,
          "midi": 47,
          "name": "B2",
          "ticks": 99120,
          "time": 112.636251,
          "velocity": 0.8188976377952756
        },
        {
          "duration": 0.2181815999999941,
          "durationTicks": 192,
          "midi": 47,
          "name": "B2",
          "ticks": 99360,
          "time": 112.908978,
          "velocity": 0.8188976377952756
        },
        {
          "duration": 0.2181816000000083,
          "durationTicks": 192,
          "midi": 47,
          "name": "B2",
          "ticks": 99600,
          "time": 113.181705,
          "velocity": 0.8582677165354331
        },
        {
          "duration": 0.2181816000000083,
          "durationTicks": 192,
          "midi": 40,
          "name": "E2",
          "ticks": 99840,
          "time": 113.454432,
          "velocity": 0.8503937007874016
        },
        {
          "duration": 0.2181816000000083,
          "durationTicks": 192,
          "midi": 40,
          "name": "E2",
          "ticks": 100080,
          "time": 113.727159,
          "velocity": 0.7716535433070866
        },
        {
          "duration": 0.2181815999999941,
          "durationTicks": 192,
          "midi": 40,
          "name": "E2",
          "ticks": 100320,
          "time": 113.999886,
          "velocity": 0.7401574803149606
        },
        {
          "duration": 0.10909080000000415,
          "durationTicks": 96,
          "midi": 40,
          "name": "E2",
          "ticks": 100560,
          "time": 114.27261299999999,
          "velocity": 0.8110236220472441
        },
        {
          "duration": 0.10909080000000415,
          "durationTicks": 96,
          "midi": 40,
          "name": "E2",
          "ticks": 100680,
          "time": 114.4089765,
          "velocity": 0.8503937007874016
        },
        {
          "duration": 0.2181816000000083,
          "durationTicks": 192,
          "midi": 40,
          "name": "E2",
          "ticks": 100800,
          "time": 114.54534,
          "velocity": 0.8188976377952756
        },
        {
          "duration": 0.2181816000000083,
          "durationTicks": 192,
          "midi": 40,
          "name": "E2",
          "ticks": 101040,
          "time": 114.818067,
          "velocity": 0.7637795275590551
        },
        {
          "duration": 0.2181815999999941,
          "durationTicks": 192,
          "midi": 40,
          "name": "E2",
          "ticks": 101280,
          "time": 115.090794,
          "velocity": 0.7952755905511811
        },
        {
          "duration": 0.10909079999998994,
          "durationTicks": 96,
          "midi": 40,
          "name": "E2",
          "ticks": 101520,
          "time": 115.363521,
          "velocity": 0.8188976377952756
        },
        {
          "duration": 0.10909080000000415,
          "durationTicks": 96,
          "midi": 40,
          "name": "E2",
          "ticks": 101640,
          "time": 115.4998845,
          "velocity": 0.7165354330708661
        },
        {
          "duration": 0.2181816000000083,
          "durationTicks": 192,
          "midi": 41,
          "name": "F2",
          "ticks": 101760,
          "time": 115.636248,
          "velocity": 0.8267716535433071
        },
        {
          "duration": 0.2181816000000083,
          "durationTicks": 192,
          "midi": 41,
          "name": "F2",
          "ticks": 102000,
          "time": 115.908975,
          "velocity": 0.7874015748031497
        },
        {
          "duration": 0.2181815999999941,
          "durationTicks": 192,
          "midi": 41,
          "name": "F2",
          "ticks": 102240,
          "time": 116.181702,
          "velocity": 0.8031496062992126
        },
        {
          "duration": 0.10909079999998994,
          "durationTicks": 96,
          "midi": 41,
          "name": "F2",
          "ticks": 102480,
          "time": 116.454429,
          "velocity": 0.8582677165354331
        },
        {
          "duration": 0.10909080000000415,
          "durationTicks": 96,
          "midi": 41,
          "name": "F2",
          "ticks": 102600,
          "time": 116.59079249999999,
          "velocity": 0.8582677165354331
        },
        {
          "duration": 0.2181816000000083,
          "durationTicks": 192,
          "midi": 41,
          "name": "F2",
          "ticks": 102720,
          "time": 116.727156,
          "velocity": 0.7637795275590551
        },
        {
          "duration": 0.2181816000000083,
          "durationTicks": 192,
          "midi": 41,
          "name": "F2",
          "ticks": 102960,
          "time": 116.999883,
          "velocity": 0.8503937007874016
        },
        {
          "duration": 0.2181816000000083,
          "durationTicks": 192,
          "midi": 41,
          "name": "F2",
          "ticks": 103200,
          "time": 117.27261,
          "velocity": 0.8346456692913385
        },
        {
          "duration": 0.1909088999999966,
          "durationTicks": 168,
          "midi": 41,
          "name": "F2",
          "ticks": 103440,
          "time": 117.545337,
          "velocity": 0.8346456692913385
        },
        {
          "duration": 0.2181816000000083,
          "durationTicks": 192,
          "midi": 34,
          "name": "A#1",
          "ticks": 103680,
          "time": 117.81806399999999,
          "velocity": 0.8267716535433071
        },
        {
          "duration": 0.2181816000000083,
          "durationTicks": 192,
          "midi": 34,
          "name": "A#1",
          "ticks": 103920,
          "time": 118.090791,
          "velocity": 0.8346456692913385
        },
        {
          "duration": 0.2181816000000083,
          "durationTicks": 192,
          "midi": 34,
          "name": "A#1",
          "ticks": 104160,
          "time": 118.363518,
          "velocity": 0.7559055118110236
        },
        {
          "duration": 0.2181815999999941,
          "durationTicks": 192,
          "midi": 34,
          "name": "A#1",
          "ticks": 104400,
          "time": 118.636245,
          "velocity": 0.8188976377952756
        },
        {
          "duration": 0.2181815999999941,
          "durationTicks": 192,
          "midi": 34,
          "name": "A#1",
          "ticks": 104640,
          "time": 118.908972,
          "velocity": 0.7401574803149606
        },
        {
          "duration": 0.2181816000000083,
          "durationTicks": 192,
          "midi": 34,
          "name": "A#1",
          "ticks": 104880,
          "time": 119.181699,
          "velocity": 0.7795275590551181
        },
        {
          "duration": 0.2181816000000083,
          "durationTicks": 192,
          "midi": 34,
          "name": "A#1",
          "ticks": 105120,
          "time": 119.454426,
          "velocity": 0.84251968503937
        },
        {
          "duration": 0.10909079999998994,
          "durationTicks": 96,
          "midi": 34,
          "name": "A#1",
          "ticks": 105360,
          "time": 119.727153,
          "velocity": 0.84251968503937
        },
        {
          "duration": 0.10909079999998994,
          "durationTicks": 96,
          "midi": 34,
          "name": "A#1",
          "ticks": 105480,
          "time": 119.8635165,
          "velocity": 0.7716535433070866
        },
        {
          "duration": 0.2181815999999941,
          "durationTicks": 192,
          "midi": 31,
          "name": "G1",
          "ticks": 105600,
          "time": 119.99988,
          "velocity": 0.84251968503937
        },
        {
          "duration": 0.2181816000000083,
          "durationTicks": 192,
          "midi": 31,
          "name": "G1",
          "ticks": 105840,
          "time": 120.272607,
          "velocity": 0.8346456692913385
        },
        {
          "duration": 0.2181816000000083,
          "durationTicks": 192,
          "midi": 31,
          "name": "G1",
          "ticks": 106080,
          "time": 120.545334,
          "velocity": 0.7322834645669292
        },
        {
          "duration": 0.2181816000000083,
          "durationTicks": 192,
          "midi": 31,
          "name": "G1",
          "ticks": 106320,
          "time": 120.818061,
          "velocity": 0.8188976377952756
        },
        {
          "duration": 0.2181815999999941,
          "durationTicks": 192,
          "midi": 31,
          "name": "G1",
          "ticks": 106560,
          "time": 121.090788,
          "velocity": 0.84251968503937
        },
        {
          "duration": 0.2181816000000083,
          "durationTicks": 192,
          "midi": 31,
          "name": "G1",
          "ticks": 106800,
          "time": 121.36351499999999,
          "velocity": 0.7480314960629921
        },
        {
          "duration": 0.2181816000000083,
          "durationTicks": 192,
          "midi": 31,
          "name": "G1",
          "ticks": 107040,
          "time": 121.636242,
          "velocity": 0.8346456692913385
        },
        {
          "duration": 0.2181816000000083,
          "durationTicks": 192,
          "midi": 31,
          "name": "G1",
          "ticks": 107280,
          "time": 121.908969,
          "velocity": 0.8346456692913385
        },
        {
          "duration": 0.2181815999999941,
          "durationTicks": 192,
          "midi": 39,
          "name": "D#2",
          "ticks": 107520,
          "time": 122.181696,
          "velocity": 0.8110236220472441
        },
        {
          "duration": 0.2181815999999941,
          "durationTicks": 192,
          "midi": 39,
          "name": "D#2",
          "ticks": 107760,
          "time": 122.454423,
          "velocity": 0.8503937007874016
        },
        {
          "duration": 0.2181816000000083,
          "durationTicks": 192,
          "midi": 39,
          "name": "D#2",
          "ticks": 108000,
          "time": 122.72715,
          "velocity": 0.7874015748031497
        },
        {
          "duration": 0.10909079999998994,
          "durationTicks": 96,
          "midi": 39,
          "name": "D#2",
          "ticks": 108240,
          "time": 122.999877,
          "velocity": 0.84251968503937
        },
        {
          "duration": 0.2181815999999941,
          "durationTicks": 192,
          "midi": 39,
          "name": "D#2",
          "ticks": 108480,
          "time": 123.272604,
          "velocity": 0.7952755905511811
        },
        {
          "duration": 0.2181815999999941,
          "durationTicks": 192,
          "midi": 39,
          "name": "D#2",
          "ticks": 108720,
          "time": 123.545331,
          "velocity": 0.7480314960629921
        },
        {
          "duration": 0.2181816000000083,
          "durationTicks": 192,
          "midi": 39,
          "name": "D#2",
          "ticks": 108960,
          "time": 123.818058,
          "velocity": 0.84251968503937
        },
        {
          "duration": 0.10909079999998994,
          "durationTicks": 96,
          "midi": 34,
          "name": "A#1",
          "ticks": 109200,
          "time": 124.090785,
          "velocity": 0.84251968503937
        },
        {
          "duration": 0.10909079999998994,
          "durationTicks": 96,
          "midi": 34,
          "name": "A#1",
          "ticks": 109320,
          "time": 124.2271485,
          "velocity": 0.7795275590551181
        },
        {
          "duration": 0.2181816000000083,
          "durationTicks": 192,
          "midi": 39,
          "name": "D#2",
          "ticks": 109440,
          "time": 124.363512,
          "velocity": 0.7322834645669292
        },
        {
          "duration": 0.2181815999999941,
          "durationTicks": 192,
          "midi": 39,
          "name": "D#2",
          "ticks": 109680,
          "time": 124.636239,
          "velocity": 0.8346456692913385
        },
        {
          "duration": 0.2181816000000083,
          "durationTicks": 192,
          "midi": 39,
          "name": "D#2",
          "ticks": 109920,
          "time": 124.90896599999999,
          "velocity": 0.8188976377952756
        },
        {
          "duration": 0.10909079999998994,
          "durationTicks": 96,
          "midi": 39,
          "name": "D#2",
          "ticks": 110160,
          "time": 125.181693,
          "velocity": 0.7716535433070866
        },
        {
          "duration": 0.2181816000000083,
          "durationTicks": 192,
          "midi": 39,
          "name": "D#2",
          "ticks": 110400,
          "time": 125.45442,
          "velocity": 0.7874015748031497
        },
        {
          "duration": 0.2181815999999941,
          "durationTicks": 192,
          "midi": 34,
          "name": "A#1",
          "ticks": 110640,
          "time": 125.727147,
          "velocity": 0.7480314960629921
        },
        {
          "duration": 0.2181815999999941,
          "durationTicks": 192,
          "midi": 39,
          "name": "D#2",
          "ticks": 110880,
          "time": 125.999874,
          "velocity": 0.8110236220472441
        },
        {
          "duration": 0.2181816000000083,
          "durationTicks": 192,
          "midi": 39,
          "name": "D#2",
          "ticks": 111120,
          "time": 126.272601,
          "velocity": 0.7322834645669292
        },
        {
          "duration": 0.2181816000000083,
          "durationTicks": 192,
          "midi": 34,
          "name": "A#1",
          "ticks": 111360,
          "time": 126.545328,
          "velocity": 0.8110236220472441
        },
        {
          "duration": 0.2181815999999941,
          "durationTicks": 192,
          "midi": 34,
          "name": "A#1",
          "ticks": 111600,
          "time": 126.818055,
          "velocity": 0.7952755905511811
        },
        {
          "duration": 0.2181815999999941,
          "durationTicks": 192,
          "midi": 34,
          "name": "A#1",
          "ticks": 111840,
          "time": 127.090782,
          "velocity": 0.7952755905511811
        },
        {
          "duration": 0.10909080000000415,
          "durationTicks": 96,
          "midi": 34,
          "name": "A#1",
          "ticks": 112080,
          "time": 127.363509,
          "velocity": 0.8346456692913385
        },
        {
          "duration": 0.10909080000000415,
          "durationTicks": 96,
          "midi": 34,
          "name": "A#1",
          "ticks": 112200,
          "time": 127.4998725,
          "velocity": 0.7716535433070866
        },
        {
          "duration": 0.2181816000000083,
          "durationTicks": 192,
          "midi": 38,
          "name": "D2",
          "ticks": 112320,
          "time": 127.636236,
          "velocity": 0.8110236220472441
        },
        {
          "duration": 0.2181816000000083,
          "durationTicks": 192,
          "midi": 38,
          "name": "D2",
          "ticks": 112560,
          "time": 127.908963,
          "velocity": 0.8110236220472441
        },
        {
          "duration": 0.2181816000000083,
          "durationTicks": 192,
          "midi": 38,
          "name": "D2",
          "ticks": 112800,
          "time": 128.18169,
          "velocity": 0.84251968503937
        },
        {
          "duration": 0.10909079999998994,
          "durationTicks": 96,
          "midi": 38,
          "name": "D2",
          "ticks": 113040,
          "time": 128.454417,
          "velocity": 0.7637795275590551
        },
        {
          "duration": 0.10909079999998994,
          "durationTicks": 96,
          "midi": 38,
          "name": "D2",
          "ticks": 113160,
          "time": 128.5907805,
          "velocity": 0.8188976377952756
        },
        {
          "duration": 0.21818159999997988,
          "durationTicks": 192,
          "midi": 43,
          "name": "G2",
          "ticks": 113280,
          "time": 128.727144,
          "velocity": 0.7716535433070866
        },
        {
          "duration": 0.2181816000000083,
          "durationTicks": 192,
          "midi": 43,
          "name": "G2",
          "ticks": 113520,
          "time": 128.99987099999998,
          "velocity": 0.7952755905511811
        },
        {
          "duration": 0.2181816000000083,
          "durationTicks": 192,
          "midi": 43,
          "name": "G2",
          "ticks": 113760,
          "time": 129.272598,
          "velocity": 0.7480314960629921
        },
        {
          "duration": 0.10909079999998994,
          "durationTicks": 96,
          "midi": 43,
          "name": "G2",
          "ticks": 114000,
          "time": 129.545325,
          "velocity": 0.7322834645669292
        },
        {
          "duration": 0.10909079999998994,
          "durationTicks": 96,
          "midi": 43,
          "name": "G2",
          "ticks": 114120,
          "time": 129.6816885,
          "velocity": 0.84251968503937
        },
        {
          "duration": 0.2181816000000083,
          "durationTicks": 192,
          "midi": 34,
          "name": "A#1",
          "ticks": 114240,
          "time": 129.818052,
          "velocity": 0.7952755905511811
        },
        {
          "duration": 0.2181816000000083,
          "durationTicks": 192,
          "midi": 34,
          "name": "A#1",
          "ticks": 114480,
          "time": 130.090779,
          "velocity": 0.8582677165354331
        },
        {
          "duration": 0.2181816000000083,
          "durationTicks": 192,
          "midi": 34,
          "name": "A#1",
          "ticks": 114720,
          "time": 130.363506,
          "velocity": 0.7480314960629921
        },
        {
          "duration": 0.2090906999999902,
          "durationTicks": 184,
          "midi": 34,
          "name": "A#1",
          "ticks": 114960,
          "time": 130.636233,
          "velocity": 0.84251968503937
        },
        {
          "duration": 0.2181816000000083,
          "durationTicks": 192,
          "midi": 39,
          "name": "D#2",
          "ticks": 115200,
          "time": 130.90896,
          "velocity": 0.7874015748031497
        },
        {
          "duration": 0.21818159999997988,
          "durationTicks": 192,
          "midi": 39,
          "name": "D#2",
          "ticks": 115440,
          "time": 131.181687,
          "velocity": 0.8110236220472441
        },
        {
          "duration": 0.2181816000000083,
          "durationTicks": 192,
          "midi": 38,
          "name": "D2",
          "ticks": 115680,
          "time": 131.45441399999999,
          "velocity": 0.7795275590551181
        },
        {
          "duration": 0.2181816000000083,
          "durationTicks": 192,
          "midi": 38,
          "name": "D2",
          "ticks": 115920,
          "time": 131.727141,
          "velocity": 0.8582677165354331
        },
        {
          "duration": 0.2181816000000083,
          "durationTicks": 192,
          "midi": 36,
          "name": "C2",
          "ticks": 116160,
          "time": 131.999868,
          "velocity": 0.8188976377952756
        },
        {
          "duration": 0.2181816000000083,
          "durationTicks": 192,
          "midi": 36,
          "name": "C2",
          "ticks": 116400,
          "time": 132.272595,
          "velocity": 0.8582677165354331
        },
        {
          "duration": 0.2181816000000083,
          "durationTicks": 192,
          "midi": 36,
          "name": "C2",
          "ticks": 116640,
          "time": 132.545322,
          "velocity": 0.8188976377952756
        },
        {
          "duration": 0.1999998000000005,
          "durationTicks": 176,
          "midi": 39,
          "name": "D#2",
          "ticks": 116880,
          "time": 132.818049,
          "velocity": 0.7244094488188977
        },
        {
          "duration": 0.2181816000000083,
          "durationTicks": 192,
          "midi": 41,
          "name": "F2",
          "ticks": 117120,
          "time": 133.090776,
          "velocity": 0.8582677165354331
        },
        {
          "duration": 0.21818159999997988,
          "durationTicks": 192,
          "midi": 41,
          "name": "F2",
          "ticks": 117360,
          "time": 133.363503,
          "velocity": 0.8031496062992126
        },
        {
          "duration": 0.21818159999997988,
          "durationTicks": 192,
          "midi": 41,
          "name": "F2",
          "ticks": 117600,
          "time": 133.63623,
          "velocity": 0.7952755905511811
        },
        {
          "duration": 0.2181816000000083,
          "durationTicks": 192,
          "midi": 41,
          "name": "F2",
          "ticks": 117840,
          "time": 133.908957,
          "velocity": 0.7952755905511811
        },
        {
          "duration": 0.2181816000000083,
          "durationTicks": 192,
          "midi": 41,
          "name": "F2",
          "ticks": 118080,
          "time": 134.181684,
          "velocity": 0.8110236220472441
        },
        {
          "duration": 0.2181816000000083,
          "durationTicks": 192,
          "midi": 41,
          "name": "F2",
          "ticks": 118320,
          "time": 134.454411,
          "velocity": 0.7322834645669292
        },
        {
          "duration": 0.2181816000000083,
          "durationTicks": 192,
          "midi": 41,
          "name": "F2",
          "ticks": 118560,
          "time": 134.727138,
          "velocity": 0.84251968503937
        },
        {
          "duration": 0.2181816000000083,
          "durationTicks": 192,
          "midi": 41,
          "name": "F2",
          "ticks": 118800,
          "time": 134.999865,
          "velocity": 0.8346456692913385
        },
        {
          "duration": 0.2181816000000083,
          "durationTicks": 192,
          "midi": 46,
          "name": "A#2",
          "ticks": 119040,
          "time": 135.272592,
          "velocity": 0.8503937007874016
        },
        {
          "duration": 0.2181816000000083,
          "durationTicks": 192,
          "midi": 46,
          "name": "A#2",
          "ticks": 119280,
          "time": 135.545319,
          "velocity": 0.8110236220472441
        },
        {
          "duration": 0.21818159999997988,
          "durationTicks": 192,
          "midi": 46,
          "name": "A#2",
          "ticks": 119520,
          "time": 135.818046,
          "velocity": 0.8582677165354331
        },
        {
          "duration": 0.2181816000000083,
          "durationTicks": 192,
          "midi": 46,
          "name": "A#2",
          "ticks": 119760,
          "time": 136.09077299999998,
          "velocity": 0.7480314960629921
        },
        {
          "duration": 0.2181816000000083,
          "durationTicks": 192,
          "midi": 45,
          "name": "A2",
          "ticks": 120000,
          "time": 136.3635,
          "velocity": 0.8346456692913385
        },
        {
          "duration": 0.2181816000000083,
          "durationTicks": 192,
          "midi": 45,
          "name": "A2",
          "ticks": 120240,
          "time": 136.636227,
          "velocity": 0.7637795275590551
        },
        {
          "duration": 0.2181816000000083,
          "durationTicks": 192,
          "midi": 45,
          "name": "A2",
          "ticks": 120480,
          "time": 136.908954,
          "velocity": 0.7165354330708661
        },
        {
          "duration": 0.2181816000000083,
          "durationTicks": 192,
          "midi": 45,
          "name": "A2",
          "ticks": 120720,
          "time": 137.181681,
          "velocity": 0.7637795275590551
        },
        {
          "duration": 0.2181816000000083,
          "durationTicks": 192,
          "midi": 43,
          "name": "G2",
          "ticks": 120960,
          "time": 137.454408,
          "velocity": 0.7480314960629921
        },
        {
          "duration": 0.2181816000000083,
          "durationTicks": 192,
          "midi": 43,
          "name": "G2",
          "ticks": 121200,
          "time": 137.727135,
          "velocity": 0.8188976377952756
        },
        {
          "duration": 0.2181816000000083,
          "durationTicks": 192,
          "midi": 43,
          "name": "G2",
          "ticks": 121440,
          "time": 137.999862,
          "velocity": 0.8110236220472441
        },
        {
          "duration": 0.21818159999997988,
          "durationTicks": 192,
          "midi": 43,
          "name": "G2",
          "ticks": 121680,
          "time": 138.272589,
          "velocity": 0.8503937007874016
        },
        {
          "duration": 0.2181816000000083,
          "durationTicks": 192,
          "midi": 41,
          "name": "F2",
          "ticks": 121920,
          "time": 138.54531599999999,
          "velocity": 0.84251968503937
        },
        {
          "duration": 0.2181816000000083,
          "durationTicks": 192,
          "midi": 41,
          "name": "F2",
          "ticks": 122160,
          "time": 138.818043,
          "velocity": 0.8188976377952756
        },
        {
          "duration": 0.2181816000000083,
          "durationTicks": 192,
          "midi": 41,
          "name": "F2",
          "ticks": 122400,
          "time": 139.09077,
          "velocity": 0.8503937007874016
        },
        {
          "duration": 0.2181816000000083,
          "durationTicks": 192,
          "midi": 41,
          "name": "F2",
          "ticks": 122640,
          "time": 139.363497,
          "velocity": 0.7244094488188977
        },
        {
          "duration": 0.21818159999997988,
          "durationTicks": 192,
          "midi": 39,
          "name": "D#2",
          "ticks": 122880,
          "time": 139.636224,
          "velocity": 0.7874015748031497
        },
        {
          "duration": 0.21818159999997988,
          "durationTicks": 192,
          "midi": 39,
          "name": "D#2",
          "ticks": 123120,
          "time": 139.908951,
          "velocity": 0.7952755905511811
        },
        {
          "duration": 0.21818159999997988,
          "durationTicks": 192,
          "midi": 39,
          "name": "D#2",
          "ticks": 123360,
          "time": 140.181678,
          "velocity": 0.84251968503937
        },
        {
          "duration": 0.10909079999998994,
          "durationTicks": 96,
          "midi": 39,
          "name": "D#2",
          "ticks": 123600,
          "time": 140.454405,
          "velocity": 0.8346456692913385
        },
        {
          "duration": 0.10909079999998994,
          "durationTicks": 96,
          "midi": 39,
          "name": "D#2",
          "ticks": 123720,
          "time": 140.5907685,
          "velocity": 0.7874015748031497
        },
        {
          "duration": 0.21818159999997988,
          "durationTicks": 192,
          "midi": 41,
          "name": "F2",
          "ticks": 123840,
          "time": 140.727132,
          "velocity": 0.8031496062992126
        },
        {
          "duration": 0.2181816000000083,
          "durationTicks": 192,
          "midi": 41,
          "name": "F2",
          "ticks": 124080,
          "time": 140.999859,
          "velocity": 0.8031496062992126
        },
        {
          "duration": 0.2181816000000083,
          "durationTicks": 192,
          "midi": 41,
          "name": "F2",
          "ticks": 124320,
          "time": 141.272586,
          "velocity": 0.7637795275590551
        },
        {
          "duration": 0.10909079999998994,
          "durationTicks": 96,
          "midi": 41,
          "name": "F2",
          "ticks": 124560,
          "time": 141.545313,
          "velocity": 0.84251968503937
        },
        {
          "duration": 0.09545445000000541,
          "durationTicks": 84,
          "midi": 41,
          "name": "F2",
          "ticks": 124680,
          "time": 141.6816765,
          "velocity": 0.8267716535433071
        },
        {
          "duration": 0.21818159999997988,
          "durationTicks": 192,
          "midi": 34,
          "name": "A#1",
          "ticks": 124800,
          "time": 141.81804,
          "velocity": 0.7637795275590551
        },
        {
          "duration": 0.21818159999997988,
          "durationTicks": 192,
          "midi": 34,
          "name": "A#1",
          "ticks": 125040,
          "time": 142.090767,
          "velocity": 0.84251968503937
        },
        {
          "duration": 0.10909079999998994,
          "durationTicks": 96,
          "midi": 37,
          "name": "C#2",
          "ticks": 125280,
          "time": 142.363494,
          "velocity": 0.7559055118110236
        },
        {
          "duration": 0.10909079999998994,
          "durationTicks": 96,
          "midi": 38,
          "name": "D2",
          "ticks": 125400,
          "time": 142.4998575,
          "velocity": 0.7952755905511811
        },
        {
          "duration": 0.4363631999999882,
          "durationTicks": 384,
          "midi": 41,
          "name": "F2",
          "ticks": 125520,
          "time": 142.636221,
          "velocity": 0.7480314960629921
        },
        {
          "duration": 0.21818159999997988,
          "durationTicks": 192,
          "midi": 41,
          "name": "F2",
          "ticks": 126000,
          "time": 143.181675,
          "velocity": 0.84251968503937
        },
        {
          "duration": 0.2181816000000083,
          "durationTicks": 192,
          "midi": 43,
          "name": "G2",
          "ticks": 126240,
          "time": 143.454402,
          "velocity": 0.8503937007874016
        },
        {
          "duration": 0.2181816000000083,
          "durationTicks": 192,
          "midi": 46,
          "name": "A#2",
          "ticks": 126480,
          "time": 143.727129,
          "velocity": 0.7244094488188977
        },
        {
          "duration": 0.21818159999997988,
          "durationTicks": 192,
          "midi": 46,
          "name": "A#2",
          "ticks": 126720,
          "time": 143.999856,
          "velocity": 0.8267716535433071
        },
        {
          "duration": 0.21818159999997988,
          "durationTicks": 192,
          "midi": 46,
          "name": "A#2",
          "ticks": 126960,
          "time": 144.272583,
          "velocity": 0.7716535433070866
        },
        {
          "duration": 0.21818159999997988,
          "durationTicks": 192,
          "midi": 46,
          "name": "A#2",
          "ticks": 127200,
          "time": 144.54531,
          "velocity": 0.8031496062992126
        },
        {
          "duration": 0.21818159999997988,
          "durationTicks": 192,
          "midi": 46,
          "name": "A#2",
          "ticks": 127440,
          "time": 144.818037,
          "velocity": 0.8582677165354331
        },
        {
          "duration": 0.21818159999997988,
          "durationTicks": 192,
          "midi": 45,
          "name": "A2",
          "ticks": 127680,
          "time": 145.090764,
          "velocity": 0.8346456692913385
        },
        {
          "duration": 0.21818159999997988,
          "durationTicks": 192,
          "midi": 45,
          "name": "A2",
          "ticks": 127920,
          "time": 145.363491,
          "velocity": 0.84251968503937
        },
        {
          "duration": 0.2181816000000083,
          "durationTicks": 192,
          "midi": 45,
          "name": "A2",
          "ticks": 128160,
          "time": 145.63621799999999,
          "velocity": 0.84251968503937
        },
        {
          "duration": 0.2181816000000083,
          "durationTicks": 192,
          "midi": 45,
          "name": "A2",
          "ticks": 128400,
          "time": 145.908945,
          "velocity": 0.7874015748031497
        },
        {
          "duration": 0.2181816000000083,
          "durationTicks": 192,
          "midi": 43,
          "name": "G2",
          "ticks": 128640,
          "time": 146.181672,
          "velocity": 0.7952755905511811
        },
        {
          "duration": 0.21818159999997988,
          "durationTicks": 192,
          "midi": 43,
          "name": "G2",
          "ticks": 128880,
          "time": 146.454399,
          "velocity": 0.7952755905511811
        },
        {
          "duration": 0.21818159999997988,
          "durationTicks": 192,
          "midi": 43,
          "name": "G2",
          "ticks": 129120,
          "time": 146.727126,
          "velocity": 0.8188976377952756
        },
        {
          "duration": 0.21818159999997988,
          "durationTicks": 192,
          "midi": 43,
          "name": "G2",
          "ticks": 129360,
          "time": 146.999853,
          "velocity": 0.84251968503937
        },
        {
          "duration": 0.21818159999997988,
          "durationTicks": 192,
          "midi": 41,
          "name": "F2",
          "ticks": 129600,
          "time": 147.27258,
          "velocity": 0.8582677165354331
        },
        {
          "duration": 0.21818159999997988,
          "durationTicks": 192,
          "midi": 41,
          "name": "F2",
          "ticks": 129840,
          "time": 147.545307,
          "velocity": 0.84251968503937
        },
        {
          "duration": 0.21818159999997988,
          "durationTicks": 192,
          "midi": 41,
          "name": "F2",
          "ticks": 130080,
          "time": 147.818034,
          "velocity": 0.8188976377952756
        },
        {
          "duration": 0.2181816000000083,
          "durationTicks": 192,
          "midi": 41,
          "name": "F2",
          "ticks": 130320,
          "time": 148.090761,
          "velocity": 0.7874015748031497
        },
        {
          "duration": 0.2181816000000083,
          "durationTicks": 192,
          "midi": 39,
          "name": "D#2",
          "ticks": 130560,
          "time": 148.363488,
          "velocity": 0.7952755905511811
        },
        {
          "duration": 0.21818159999997988,
          "durationTicks": 192,
          "midi": 39,
          "name": "D#2",
          "ticks": 130800,
          "time": 148.636215,
          "velocity": 0.8267716535433071
        },
        {
          "duration": 0.21818159999997988,
          "durationTicks": 192,
          "midi": 39,
          "name": "D#2",
          "ticks": 131040,
          "time": 148.908942,
          "velocity": 0.8503937007874016
        },
        {
          "duration": 0.10909079999998994,
          "durationTicks": 96,
          "midi": 39,
          "name": "D#2",
          "ticks": 131280,
          "time": 149.181669,
          "velocity": 0.8188976377952756
        },
        {
          "duration": 0.10909080000001836,
          "durationTicks": 96,
          "midi": 39,
          "name": "D#2",
          "ticks": 131400,
          "time": 149.3180325,
          "velocity": 0.8110236220472441
        },
        {
          "duration": 0.21818159999997988,
          "durationTicks": 192,
          "midi": 41,
          "name": "F2",
          "ticks": 131520,
          "time": 149.454396,
          "velocity": 0.8582677165354331
        },
        {
          "duration": 0.21818159999997988,
          "durationTicks": 192,
          "midi": 41,
          "name": "F2",
          "ticks": 131760,
          "time": 149.727123,
          "velocity": 0.8346456692913385
        },
        {
          "duration": 0.21818159999997988,
          "durationTicks": 192,
          "midi": 41,
          "name": "F2",
          "ticks": 132000,
          "time": 149.99985,
          "velocity": 0.8346456692913385
        },
        {
          "duration": 0.10909079999998994,
          "durationTicks": 96,
          "midi": 41,
          "name": "F2",
          "ticks": 132240,
          "time": 150.272577,
          "velocity": 0.8267716535433071
        },
        {
          "duration": 0.10909079999998994,
          "durationTicks": 96,
          "midi": 41,
          "name": "F2",
          "ticks": 132360,
          "time": 150.4089405,
          "velocity": 0.8110236220472441
        },
        {
          "duration": 0.2181816000000083,
          "durationTicks": 192,
          "midi": 34,
          "name": "A#1",
          "ticks": 132480,
          "time": 150.545304,
          "velocity": 0.8346456692913385
        },
        {
          "duration": 0.2181816000000083,
          "durationTicks": 192,
          "midi": 34,
          "name": "A#1",
          "ticks": 132720,
          "time": 150.818031,
          "velocity": 0.8503937007874016
        },
        {
          "duration": 0.10909079999998994,
          "durationTicks": 96,
          "midi": 37,
          "name": "C#2",
          "ticks": 132960,
          "time": 151.090758,
          "velocity": 0.8503937007874016
        },
        {
          "duration": 0.10909079999998994,
          "durationTicks": 96,
          "midi": 38,
          "name": "D2",
          "ticks": 133080,
          "time": 151.2271215,
          "velocity": 0.8346456692913385
        },
        {
          "duration": 0.4363632000000166,
          "durationTicks": 384,
          "midi": 41,
          "name": "F2",
          "ticks": 133200,
          "time": 151.363485,
          "velocity": 0.7874015748031497
        },
        {
          "duration": 0.21818159999997988,
          "durationTicks": 192,
          "midi": 41,
          "name": "F2",
          "ticks": 133680,
          "time": 151.908939,
          "velocity": 0.8031496062992126
        },
        {
          "duration": 0.21818159999997988,
          "durationTicks": 192,
          "midi": 43,
          "name": "G2",
          "ticks": 133920,
          "time": 152.181666,
          "velocity": 0.7244094488188977
        },
        {
          "duration": 0.21818159999997988,
          "durationTicks": 192,
          "midi": 46,
          "name": "A#2",
          "ticks": 134160,
          "time": 152.454393,
          "velocity": 0.8582677165354331
        },
        {
          "duration": 0.2181816000000083,
          "durationTicks": 192,
          "midi": 46,
          "name": "A#2",
          "ticks": 134400,
          "time": 152.72711999999999,
          "velocity": 0.7401574803149606
        },
        {
          "duration": 0.2181816000000083,
          "durationTicks": 192,
          "midi": 46,
          "name": "A#2",
          "ticks": 134640,
          "time": 152.999847,
          "velocity": 0.8267716535433071
        },
        {
          "duration": 0.2181816000000083,
          "durationTicks": 192,
          "midi": 46,
          "name": "A#2",
          "ticks": 134880,
          "time": 153.272574,
          "velocity": 0.8267716535433071
        },
        {
          "duration": 0.21818159999997988,
          "durationTicks": 192,
          "midi": 46,
          "name": "A#2",
          "ticks": 135120,
          "time": 153.545301,
          "velocity": 0.7322834645669292
        },
        {
          "duration": 0.21818159999997988,
          "durationTicks": 192,
          "midi": 45,
          "name": "A2",
          "ticks": 135360,
          "time": 153.818028,
          "velocity": 0.7480314960629921
        },
        {
          "duration": 0.21818159999997988,
          "durationTicks": 192,
          "midi": 45,
          "name": "A2",
          "ticks": 135600,
          "time": 154.090755,
          "velocity": 0.7480314960629921
        },
        {
          "duration": 0.21818159999997988,
          "durationTicks": 192,
          "midi": 45,
          "name": "A2",
          "ticks": 135840,
          "time": 154.363482,
          "velocity": 0.7795275590551181
        },
        {
          "duration": 0.21818159999997988,
          "durationTicks": 192,
          "midi": 45,
          "name": "A2",
          "ticks": 136080,
          "time": 154.636209,
          "velocity": 0.7795275590551181
        },
        {
          "duration": 0.21818159999997988,
          "durationTicks": 192,
          "midi": 43,
          "name": "G2",
          "ticks": 136320,
          "time": 154.908936,
          "velocity": 0.8582677165354331
        },
        {
          "duration": 0.2181816000000083,
          "durationTicks": 192,
          "midi": 43,
          "name": "G2",
          "ticks": 136560,
          "time": 155.181663,
          "velocity": 0.8582677165354331
        },
        {
          "duration": 0.2181816000000083,
          "durationTicks": 192,
          "midi": 43,
          "name": "G2",
          "ticks": 136800,
          "time": 155.45439,
          "velocity": 0.8582677165354331
        },
        {
          "duration": 0.21818159999997988,
          "durationTicks": 192,
          "midi": 43,
          "name": "G2",
          "ticks": 137040,
          "time": 155.727117,
          "velocity": 0.8031496062992126
        },
        {
          "duration": 0.21818159999997988,
          "durationTicks": 192,
          "midi": 41,
          "name": "F2",
          "ticks": 137280,
          "time": 155.999844,
          "velocity": 0.7086614173228346
        },
        {
          "duration": 0.21818159999997988,
          "durationTicks": 192,
          "midi": 41,
          "name": "F2",
          "ticks": 137520,
          "time": 156.272571,
          "velocity": 0.7480314960629921
        },
        {
          "duration": 0.21818159999997988,
          "durationTicks": 192,
          "midi": 41,
          "name": "F2",
          "ticks": 137760,
          "time": 156.545298,
          "velocity": 0.7165354330708661
        },
        {
          "duration": 0.21818159999997988,
          "durationTicks": 192,
          "midi": 41,
          "name": "F2",
          "ticks": 138000,
          "time": 156.818025,
          "velocity": 0.7952755905511811
        },
        {
          "duration": 0.21818159999997988,
          "durationTicks": 192,
          "midi": 39,
          "name": "D#2",
          "ticks": 138240,
          "time": 157.090752,
          "velocity": 0.7874015748031497
        },
        {
          "duration": 0.21818159999997988,
          "durationTicks": 192,
          "midi": 39,
          "name": "D#2",
          "ticks": 138480,
          "time": 157.363479,
          "velocity": 0.84251968503937
        },
        {
          "duration": 0.2181816000000083,
          "durationTicks": 192,
          "midi": 39,
          "name": "D#2",
          "ticks": 138720,
          "time": 157.636206,
          "velocity": 0.8582677165354331
        },
        {
          "duration": 0.10909079999998994,
          "durationTicks": 96,
          "midi": 39,
          "name": "D#2",
          "ticks": 138960,
          "time": 157.908933,
          "velocity": 0.7795275590551181
        },
        {
          "duration": 0.10909079999998994,
          "durationTicks": 96,
          "midi": 39,
          "name": "D#2",
          "ticks": 139080,
          "time": 158.0452965,
          "velocity": 0.8267716535433071
        },
        {
          "duration": 0.21818159999997988,
          "durationTicks": 192,
          "midi": 41,
          "name": "F2",
          "ticks": 139200,
          "time": 158.18166,
          "velocity": 0.84251968503937
        },
        {
          "duration": 0.21818159999997988,
          "durationTicks": 192,
          "midi": 41,
          "name": "F2",
          "ticks": 139440,
          "time": 158.454387,
          "velocity": 0.8346456692913385
        },
        {
          "duration": 0.21818159999997988,
          "durationTicks": 192,
          "midi": 41,
          "name": "F2",
          "ticks": 139680,
          "time": 158.727114,
          "velocity": 0.8503937007874016
        },
        {
          "duration": 0.10909079999998994,
          "durationTicks": 96,
          "midi": 41,
          "name": "F2",
          "ticks": 139920,
          "time": 158.999841,
          "velocity": 0.7795275590551181
        },
        {
          "duration": 0.10909079999998994,
          "durationTicks": 96,
          "midi": 41,
          "name": "F2",
          "ticks": 140040,
          "time": 159.1362045,
          "velocity": 0.8582677165354331
        },
        {
          "duration": 0.21818159999997988,
          "durationTicks": 192,
          "midi": 34,
          "name": "A#1",
          "ticks": 140160,
          "time": 159.272568,
          "velocity": 0.7874015748031497
        },
        {
          "duration": 0.21818159999997988,
          "durationTicks": 192,
          "midi": 34,
          "name": "A#1",
          "ticks": 140400,
          "time": 159.545295,
          "velocity": 0.84251968503937
        },
        {
          "duration": 0.10909080000001836,
          "durationTicks": 96,
          "midi": 37,
          "name": "C#2",
          "ticks": 140640,
          "time": 159.81802199999998,
          "velocity": 0.7795275590551181
        },
        {
          "duration": 0.10909079999998994,
          "durationTicks": 96,
          "midi": 38,
          "name": "D2",
          "ticks": 140760,
          "time": 159.9543855,
          "velocity": 0.8346456692913385
        },
        {
          "duration": 0.4363632000000166,
          "durationTicks": 384,
          "midi": 41,
          "name": "F2",
          "ticks": 140880,
          "time": 160.090749,
          "velocity": 0.8267716535433071
        },
        {
          "duration": 0.21818159999997988,
          "durationTicks": 192,
          "midi": 41,
          "name": "F2",
          "ticks": 141360,
          "time": 160.636203,
          "velocity": 0.7874015748031497
        },
        {
          "duration": 0.21818159999997988,
          "durationTicks": 192,
          "midi": 43,
          "name": "G2",
          "ticks": 141600,
          "time": 160.90893,
          "velocity": 0.8031496062992126
        },
        {
          "duration": 0.21818159999997988,
          "durationTicks": 192,
          "midi": 46,
          "name": "A#2",
          "ticks": 141840,
          "time": 161.181657,
          "velocity": 0.7244094488188977
        }
      ]
    },
    {
      "channel": 9,
      "controlChanges": {
        "7": [
          {
            "number": 7,
            "ticks": 0,
            "time": 0,
            "value": 0.8976377952755905
          },
          {
            "number": 7,
            "ticks": 134400,
            "time": 152.72711999999999,
            "value": 0.8503937007874016
          },
          {
            "number": 7,
            "ticks": 134640,
            "time": 152.999847,
            "value": 0.8188976377952756
          },
          {
            "number": 7,
            "ticks": 134880,
            "time": 153.272574,
            "value": 0.7952755905511811
          },
          {
            "number": 7,
            "ticks": 135120,
            "time": 153.545301,
            "value": 0.7637795275590551
          },
          {
            "number": 7,
            "ticks": 135360,
            "time": 153.818028,
            "value": 0.7401574803149606
          },
          {
            "number": 7,
            "ticks": 135600,
            "time": 154.090755,
            "value": 0.7165354330708661
          },
          {
            "number": 7,
            "ticks": 135840,
            "time": 154.363482,
            "value": 0.6850393700787402
          },
          {
            "number": 7,
            "ticks": 136080,
            "time": 154.636209,
            "value": 0.6614173228346457
          },
          {
            "number": 7,
            "ticks": 136320,
            "time": 154.908936,
            "value": 0.6299212598425197
          },
          {
            "number": 7,
            "ticks": 136560,
            "time": 155.181663,
            "value": 0.6062992125984252
          },
          {
            "number": 7,
            "ticks": 136800,
            "time": 155.45439,
            "value": 0.5826771653543307
          },
          {
            "number": 7,
            "ticks": 137040,
            "time": 155.727117,
            "value": 0.5511811023622047
          },
          {
            "number": 7,
            "ticks": 137280,
            "time": 155.999844,
            "value": 0.5275590551181102
          },
          {
            "number": 7,
            "ticks": 137520,
            "time": 156.272571,
            "value": 0.5039370078740157
          },
          {
            "number": 7,
            "ticks": 137760,
            "time": 156.545298,
            "value": 0.47244094488188976
          },
          {
            "number": 7,
            "ticks": 138000,
            "time": 156.818025,
            "value": 0.44881889763779526
          },
          {
            "number": 7,
            "ticks": 138240,
            "time": 157.090752,
            "value": 0.41732283464566927
          },
          {
            "number": 7,
            "ticks": 138480,
            "time": 157.363479,
            "value": 0.3937007874015748
          },
          {
            "number": 7,
            "ticks": 138720,
            "time": 157.636206,
            "value": 0.3700787401574803
          },
          {
            "number": 7,
            "ticks": 138960,
            "time": 157.908933,
            "value": 0.33858267716535434
          },
          {
            "number": 7,
            "ticks": 139200,
            "time": 158.18166,
            "value": 0.31496062992125984
          },
          {
            "number": 7,
            "ticks": 139440,
            "time": 158.454387,
            "value": 0.29133858267716534
          },
          {
            "number": 7,
            "ticks": 139680,
            "time": 158.727114,
            "value": 0.25984251968503935
          },
          {
            "number": 7,
            "ticks": 139920,
            "time": 158.999841,
            "value": 0.23622047244094488
          },
          {
            "number": 7,
            "ticks": 140160,
            "time": 159.272568,
            "value": 0.2047244094488189
          },
          {
            "number": 7,
            "ticks": 140400,
            "time": 159.545295,
            "value": 0.18110236220472442
          },
          {
            "number": 7,
            "ticks": 140640,
            "time": 159.81802199999998,
            "value": 0.15748031496062992
          },
          {
            "number": 7,
            "ticks": 140880,
            "time": 160.090749,
            "value": 0.12598425196850394
          },
          {
            "number": 7,
            "ticks": 141120,
            "time": 160.363476,
            "value": 0.10236220472440945
          },
          {
            "number": 7,
            "ticks": 141360,
            "time": 160.636203,
            "value": 0.07874015748031496
          },
          {
            "number": 7,
            "ticks": 141600,
            "time": 160.90893,
            "value": 0.047244094488188976
          },
          {
            "number": 7,
            "ticks": 141840,
            "time": 161.181657,
            "value": 0.023622047244094488
          }
        ],
        "10": [
          {
            "number": 10,
            "ticks": 0,
            "time": 0,
            "value": 0.5039370078740157
          }
        ],
        "91": [
          {
            "number": 91,
            "ticks": 0,
            "time": 0,
            "value": 0.6614173228346457
          }
        ]
      },
      "pitchBends": [],
      "instrument": {
        "family": "drums",
        "number": 0,
        "name": "standard kit"
      },
      "name": "Drums   ",
      "notes": [
        {
          "duration": 0.113636249999999,
          "durationTicks": 100,
          "midi": 38,
          "name": "D2",
          "ticks": 13440,
          "time": 15.272712,
          "velocity": 0.44881889763779526
        },
        {
          "duration": 0.113636249999999,
          "durationTicks": 100,
          "midi": 49,
          "name": "C#3",
          "ticks": 13440,
          "time": 15.272712,
          "velocity": 0.4330708661417323
        },
        {
          "duration": 0.113636249999999,
          "durationTicks": 100,
          "midi": 42,
          "name": "F#2",
          "ticks": 13680,
          "time": 15.545439,
          "velocity": 0.6299212598425197
        },
        {
          "duration": 0.113636249999999,
          "durationTicks": 100,
          "midi": 38,
          "name": "D2",
          "ticks": 13920,
          "time": 15.818166,
          "velocity": 0.6299212598425197
        },
        {
          "duration": 0.113636249999999,
          "durationTicks": 100,
          "midi": 42,
          "name": "F#2",
          "ticks": 13920,
          "time": 15.818166,
          "velocity": 0.8267716535433071
        },
        {
          "duration": 0.113636249999999,
          "durationTicks": 100,
          "midi": 35,
          "name": "B1",
          "ticks": 14160,
          "time": 16.090893,
          "velocity": 0.5511811023622047
        },
        {
          "duration": 0.113636249999999,
          "durationTicks": 100,
          "midi": 42,
          "name": "F#2",
          "ticks": 14160,
          "time": 16.090893,
          "velocity": 0.47244094488188976
        },
        {
          "duration": 0.113636249999999,
          "durationTicks": 100,
          "midi": 35,
          "name": "B1",
          "ticks": 14400,
          "time": 16.36362,
          "velocity": 0.7086614173228346
        },
        {
          "duration": 0.113636249999999,
          "durationTicks": 100,
          "midi": 42,
          "name": "F#2",
          "ticks": 14400,
          "time": 16.36362,
          "velocity": 0.6299212598425197
        },
        {
          "duration": 0.113636249999999,
          "durationTicks": 100,
          "midi": 42,
          "name": "F#2",
          "ticks": 14640,
          "time": 16.636347,
          "velocity": 0.47244094488188976
        },
        {
          "duration": 0.113636249999999,
          "durationTicks": 100,
          "midi": 38,
          "name": "D2",
          "ticks": 14880,
          "time": 16.909074,
          "velocity": 0.6299212598425197
        },
        {
          "duration": 0.113636249999999,
          "durationTicks": 100,
          "midi": 42,
          "name": "F#2",
          "ticks": 14880,
          "time": 16.909074,
          "velocity": 0.7086614173228346
        },
        {
          "duration": 0.113636249999999,
          "durationTicks": 100,
          "midi": 42,
          "name": "F#2",
          "ticks": 15120,
          "time": 17.181801,
          "velocity": 0.47244094488188976
        },
        {
          "duration": 0.11363625000000255,
          "durationTicks": 100,
          "midi": 35,
          "name": "B1",
          "ticks": 15360,
          "time": 17.454528,
          "velocity": 0.6692913385826772
        },
        {
          "duration": 0.11363625000000255,
          "durationTicks": 100,
          "midi": 42,
          "name": "F#2",
          "ticks": 15360,
          "time": 17.454528,
          "velocity": 0.7480314960629921
        },
        {
          "duration": 0.11363625000000255,
          "durationTicks": 100,
          "midi": 42,
          "name": "F#2",
          "ticks": 15600,
          "time": 17.727255,
          "velocity": 0.5118110236220472
        },
        {
          "duration": 0.11363625000000255,
          "durationTicks": 100,
          "midi": 38,
          "name": "D2",
          "ticks": 15840,
          "time": 17.999982,
          "velocity": 0.6299212598425197
        },
        {
          "duration": 0.11363625000000255,
          "durationTicks": 100,
          "midi": 42,
          "name": "F#2",
          "ticks": 15840,
          "time": 17.999982,
          "velocity": 0.8661417322834646
        },
        {
          "duration": 0.11363625000000255,
          "durationTicks": 100,
          "midi": 35,
          "name": "B1",
          "ticks": 16080,
          "time": 18.272709,
          "velocity": 0.5905511811023622
        },
        {
          "duration": 0.11363625000000255,
          "durationTicks": 100,
          "midi": 42,
          "name": "F#2",
          "ticks": 16080,
          "time": 18.272709,
          "velocity": 0.5118110236220472
        },
        {
          "duration": 0.11363625000000255,
          "durationTicks": 100,
          "midi": 35,
          "name": "B1",
          "ticks": 16320,
          "time": 18.545436,
          "velocity": 0.7480314960629921
        },
        {
          "duration": 0.11363625000000255,
          "durationTicks": 100,
          "midi": 42,
          "name": "F#2",
          "ticks": 16320,
          "time": 18.545436,
          "velocity": 0.6692913385826772
        },
        {
          "duration": 0.11363625000000255,
          "durationTicks": 100,
          "midi": 42,
          "name": "F#2",
          "ticks": 16560,
          "time": 18.818163,
          "velocity": 0.5118110236220472
        },
        {
          "duration": 0.11363625000000255,
          "durationTicks": 100,
          "midi": 38,
          "name": "D2",
          "ticks": 16800,
          "time": 19.090889999999998,
          "velocity": 0.6299212598425197
        },
        {
          "duration": 0.11363625000000255,
          "durationTicks": 100,
          "midi": 42,
          "name": "F#2",
          "ticks": 16800,
          "time": 19.090889999999998,
          "velocity": 0.7480314960629921
        },
        {
          "duration": 0.113636249999999,
          "durationTicks": 100,
          "midi": 42,
          "name": "F#2",
          "ticks": 17040,
          "time": 19.363617,
          "velocity": 0.5118110236220472
        },
        {
          "duration": 0.113636249999999,
          "durationTicks": 100,
          "midi": 35,
          "name": "B1",
          "ticks": 17280,
          "time": 19.636344,
          "velocity": 0.6535433070866141
        },
        {
          "duration": 0.113636249999999,
          "durationTicks": 100,
          "midi": 42,
          "name": "F#2",
          "ticks": 17280,
          "time": 19.636344,
          "velocity": 0.6535433070866141
        },
        {
          "duration": 0.113636249999999,
          "durationTicks": 100,
          "midi": 42,
          "name": "F#2",
          "ticks": 17520,
          "time": 19.909071,
          "velocity": 0.49606299212598426
        },
        {
          "duration": 0.113636249999999,
          "durationTicks": 100,
          "midi": 38,
          "name": "D2",
          "ticks": 17760,
          "time": 20.181798,
          "velocity": 0.6299212598425197
        },
        {
          "duration": 0.113636249999999,
          "durationTicks": 100,
          "midi": 42,
          "name": "F#2",
          "ticks": 17760,
          "time": 20.181798,
          "velocity": 0.8503937007874016
        },
        {
          "duration": 0.11363625000000255,
          "durationTicks": 100,
          "midi": 35,
          "name": "B1",
          "ticks": 18000,
          "time": 20.454525,
          "velocity": 0.5748031496062992
        },
        {
          "duration": 0.11363625000000255,
          "durationTicks": 100,
          "midi": 42,
          "name": "F#2",
          "ticks": 18000,
          "time": 20.454525,
          "velocity": 0.49606299212598426
        },
        {
          "duration": 0.11363625000000255,
          "durationTicks": 100,
          "midi": 35,
          "name": "B1",
          "ticks": 18240,
          "time": 20.727252,
          "velocity": 0.7322834645669292
        },
        {
          "duration": 0.11363625000000255,
          "durationTicks": 100,
          "midi": 42,
          "name": "F#2",
          "ticks": 18240,
          "time": 20.727252,
          "velocity": 0.6535433070866141
        },
        {
          "duration": 0.11363625000000255,
          "durationTicks": 100,
          "midi": 42,
          "name": "F#2",
          "ticks": 18480,
          "time": 20.999979,
          "velocity": 0.49606299212598426
        },
        {
          "duration": 0.11363625000000255,
          "durationTicks": 100,
          "midi": 38,
          "name": "D2",
          "ticks": 18720,
          "time": 21.272706,
          "velocity": 0.6299212598425197
        },
        {
          "duration": 0.11363625000000255,
          "durationTicks": 100,
          "midi": 42,
          "name": "F#2",
          "ticks": 18720,
          "time": 21.272706,
          "velocity": 0.7322834645669292
        },
        {
          "duration": 0.11363625000000255,
          "durationTicks": 100,
          "midi": 42,
          "name": "F#2",
          "ticks": 18960,
          "time": 21.545433,
          "velocity": 0.49606299212598426
        },
        {
          "duration": 0.11363625000000255,
          "durationTicks": 100,
          "midi": 35,
          "name": "B1",
          "ticks": 19200,
          "time": 21.81816,
          "velocity": 0.6692913385826772
        },
        {
          "duration": 0.11363625000000255,
          "durationTicks": 100,
          "midi": 42,
          "name": "F#2",
          "ticks": 19200,
          "time": 21.81816,
          "velocity": 0.7480314960629921
        },
        {
          "duration": 0.11363625000000255,
          "durationTicks": 100,
          "midi": 42,
          "name": "F#2",
          "ticks": 19440,
          "time": 22.090887,
          "velocity": 0.5118110236220472
        },
        {
          "duration": 0.11363625000000255,
          "durationTicks": 100,
          "midi": 38,
          "name": "D2",
          "ticks": 19680,
          "time": 22.363614,
          "velocity": 0.6299212598425197
        },
        {
          "duration": 0.11363625000000255,
          "durationTicks": 100,
          "midi": 42,
          "name": "F#2",
          "ticks": 19680,
          "time": 22.363614,
          "velocity": 0.8661417322834646
        },
        {
          "duration": 0.11363625000000255,
          "durationTicks": 100,
          "midi": 35,
          "name": "B1",
          "ticks": 19920,
          "time": 22.636340999999998,
          "velocity": 0.5905511811023622
        },
        {
          "duration": 0.11363625000000255,
          "durationTicks": 100,
          "midi": 42,
          "name": "F#2",
          "ticks": 19920,
          "time": 22.636340999999998,
          "velocity": 0.5118110236220472
        },
        {
          "duration": 0.113636249999999,
          "durationTicks": 100,
          "midi": 35,
          "name": "B1",
          "ticks": 20160,
          "time": 22.909068,
          "velocity": 0.7480314960629921
        },
        {
          "duration": 0.113636249999999,
          "durationTicks": 100,
          "midi": 42,
          "name": "F#2",
          "ticks": 20160,
          "time": 22.909068,
          "velocity": 0.6692913385826772
        },
        {
          "duration": 0.113636249999999,
          "durationTicks": 100,
          "midi": 42,
          "name": "F#2",
          "ticks": 20400,
          "time": 23.181795,
          "velocity": 0.5118110236220472
        },
        {
          "duration": 0.113636249999999,
          "durationTicks": 100,
          "midi": 38,
          "name": "D2",
          "ticks": 20640,
          "time": 23.454522,
          "velocity": 0.6299212598425197
        },
        {
          "duration": 0.113636249999999,
          "durationTicks": 100,
          "midi": 42,
          "name": "F#2",
          "ticks": 20640,
          "time": 23.454522,
          "velocity": 0.7480314960629921
        },
        {
          "duration": 0.113636249999999,
          "durationTicks": 100,
          "midi": 42,
          "name": "F#2",
          "ticks": 20880,
          "time": 23.727249,
          "velocity": 0.5118110236220472
        },
        {
          "duration": 0.11363625000000255,
          "durationTicks": 100,
          "midi": 35,
          "name": "B1",
          "ticks": 21120,
          "time": 23.999976,
          "velocity": 0.6299212598425197
        },
        {
          "duration": 0.11363625000000255,
          "durationTicks": 100,
          "midi": 42,
          "name": "F#2",
          "ticks": 21120,
          "time": 23.999976,
          "velocity": 0.6456692913385826
        },
        {
          "duration": 0.11363625000000255,
          "durationTicks": 100,
          "midi": 42,
          "name": "F#2",
          "ticks": 21360,
          "time": 24.272703,
          "velocity": 0.4881889763779528
        },
        {
          "duration": 0.11363625000000255,
          "durationTicks": 100,
          "midi": 38,
          "name": "D2",
          "ticks": 21600,
          "time": 24.54543,
          "velocity": 0.6299212598425197
        },
        {
          "duration": 0.11363625000000255,
          "durationTicks": 100,
          "midi": 42,
          "name": "F#2",
          "ticks": 21600,
          "time": 24.54543,
          "velocity": 0.84251968503937
        },
        {
          "duration": 0.11363625000000255,
          "durationTicks": 100,
          "midi": 35,
          "name": "B1",
          "ticks": 21840,
          "time": 24.818157,
          "velocity": 0.5669291338582677
        },
        {
          "duration": 0.11363625000000255,
          "durationTicks": 100,
          "midi": 42,
          "name": "F#2",
          "ticks": 21840,
          "time": 24.818157,
          "velocity": 0.4881889763779528
        },
        {
          "duration": 0.11363625000000255,
          "durationTicks": 100,
          "midi": 35,
          "name": "B1",
          "ticks": 22080,
          "time": 25.090884,
          "velocity": 0.7244094488188977
        },
        {
          "duration": 0.11363625000000255,
          "durationTicks": 100,
          "midi": 42,
          "name": "F#2",
          "ticks": 22080,
          "time": 25.090884,
          "velocity": 0.6456692913385826
        },
        {
          "duration": 0.11363625000000255,
          "durationTicks": 100,
          "midi": 42,
          "name": "F#2",
          "ticks": 22320,
          "time": 25.363611,
          "velocity": 0.4881889763779528
        },
        {
          "duration": 0.11363625000000255,
          "durationTicks": 100,
          "midi": 38,
          "name": "D2",
          "ticks": 22560,
          "time": 25.636338,
          "velocity": 0.6299212598425197
        },
        {
          "duration": 0.11363625000000255,
          "durationTicks": 100,
          "midi": 42,
          "name": "F#2",
          "ticks": 22560,
          "time": 25.636338,
          "velocity": 0.7244094488188977
        },
        {
          "duration": 0.11363625000000255,
          "durationTicks": 100,
          "midi": 42,
          "name": "F#2",
          "ticks": 22800,
          "time": 25.909065,
          "velocity": 0.4881889763779528
        },
        {
          "duration": 0.113636249999999,
          "durationTicks": 100,
          "midi": 35,
          "name": "B1",
          "ticks": 23040,
          "time": 26.181792,
          "velocity": 0.6220472440944882
        },
        {
          "duration": 0.113636249999999,
          "durationTicks": 100,
          "midi": 42,
          "name": "F#2",
          "ticks": 23040,
          "time": 26.181792,
          "velocity": 0.6220472440944882
        },
        {
          "duration": 0.113636249999999,
          "durationTicks": 100,
          "midi": 42,
          "name": "F#2",
          "ticks": 23280,
          "time": 26.454519,
          "velocity": 0.4645669291338583
        },
        {
          "duration": 0.113636249999999,
          "durationTicks": 100,
          "midi": 38,
          "name": "D2",
          "ticks": 23520,
          "time": 26.727246,
          "velocity": 0.6299212598425197
        },
        {
          "duration": 0.113636249999999,
          "durationTicks": 100,
          "midi": 42,
          "name": "F#2",
          "ticks": 23520,
          "time": 26.727246,
          "velocity": 0.8188976377952756
        },
        {
          "duration": 0.113636249999999,
          "durationTicks": 100,
          "midi": 35,
          "name": "B1",
          "ticks": 23760,
          "time": 26.999973,
          "velocity": 0.5433070866141733
        },
        {
          "duration": 0.113636249999999,
          "durationTicks": 100,
          "midi": 42,
          "name": "F#2",
          "ticks": 23760,
          "time": 26.999973,
          "velocity": 0.5039370078740157
        },
        {
          "duration": 0.113636249999999,
          "durationTicks": 100,
          "midi": 35,
          "name": "B1",
          "ticks": 24000,
          "time": 27.2727,
          "velocity": 0.7007874015748031
        },
        {
          "duration": 0.113636249999999,
          "durationTicks": 100,
          "midi": 42,
          "name": "F#2",
          "ticks": 24000,
          "time": 27.2727,
          "velocity": 0.6220472440944882
        },
        {
          "duration": 0.11363625000000255,
          "durationTicks": 100,
          "midi": 42,
          "name": "F#2",
          "ticks": 24240,
          "time": 27.545427,
          "velocity": 0.4645669291338583
        },
        {
          "duration": 0.11363625000000255,
          "durationTicks": 100,
          "midi": 38,
          "name": "D2",
          "ticks": 24480,
          "time": 27.818154,
          "velocity": 0.6299212598425197
        },
        {
          "duration": 0.11363625000000255,
          "durationTicks": 100,
          "midi": 42,
          "name": "F#2",
          "ticks": 24480,
          "time": 27.818154,
          "velocity": 0.7007874015748031
        },
        {
          "duration": 0.11363625000000255,
          "durationTicks": 100,
          "midi": 54,
          "name": "F#3",
          "ticks": 24480,
          "time": 27.818154,
          "velocity": 0.8188976377952756
        },
        {
          "duration": 0.11363625000000255,
          "durationTicks": 100,
          "midi": 35,
          "name": "B1",
          "ticks": 24720,
          "time": 28.090881,
          "velocity": 0.4645669291338583
        },
        {
          "duration": 0.11363625000000255,
          "durationTicks": 100,
          "midi": 46,
          "name": "A#2",
          "ticks": 24720,
          "time": 28.090881,
          "velocity": 0.5433070866141733
        },
        {
          "duration": 0.11363625000000255,
          "durationTicks": 100,
          "midi": 35,
          "name": "B1",
          "ticks": 24960,
          "time": 28.363608,
          "velocity": 0.6299212598425197
        },
        {
          "duration": 0.11363625000000255,
          "durationTicks": 100,
          "midi": 42,
          "name": "F#2",
          "ticks": 24960,
          "time": 28.363608,
          "velocity": 0.6456692913385826
        },
        {
          "duration": 0.11363625000000255,
          "durationTicks": 100,
          "midi": 42,
          "name": "F#2",
          "ticks": 25200,
          "time": 28.636335,
          "velocity": 0.4881889763779528
        },
        {
          "duration": 0.11363625000000255,
          "durationTicks": 100,
          "midi": 38,
          "name": "D2",
          "ticks": 25440,
          "time": 28.909062,
          "velocity": 0.6299212598425197
        },
        {
          "duration": 0.11363625000000255,
          "durationTicks": 100,
          "midi": 42,
          "name": "F#2",
          "ticks": 25440,
          "time": 28.909062,
          "velocity": 0.84251968503937
        },
        {
          "duration": 0.11363625000000255,
          "durationTicks": 100,
          "midi": 35,
          "name": "B1",
          "ticks": 25680,
          "time": 29.181789,
          "velocity": 0.5669291338582677
        },
        {
          "duration": 0.11363625000000255,
          "durationTicks": 100,
          "midi": 42,
          "name": "F#2",
          "ticks": 25680,
          "time": 29.181789,
          "velocity": 0.4881889763779528
        },
        {
          "duration": 0.11363625000000255,
          "durationTicks": 100,
          "midi": 35,
          "name": "B1",
          "ticks": 25920,
          "time": 29.454515999999998,
          "velocity": 0.7244094488188977
        },
        {
          "duration": 0.11363625000000255,
          "durationTicks": 100,
          "midi": 42,
          "name": "F#2",
          "ticks": 25920,
          "time": 29.454515999999998,
          "velocity": 0.6456692913385826
        },
        {
          "duration": 0.113636249999999,
          "durationTicks": 100,
          "midi": 42,
          "name": "F#2",
          "ticks": 26160,
          "time": 29.727243,
          "velocity": 0.4881889763779528
        },
        {
          "duration": 0.113636249999999,
          "durationTicks": 100,
          "midi": 38,
          "name": "D2",
          "ticks": 26400,
          "time": 29.99997,
          "velocity": 0.6299212598425197
        },
        {
          "duration": 0.113636249999999,
          "durationTicks": 100,
          "midi": 42,
          "name": "F#2",
          "ticks": 26400,
          "time": 29.99997,
          "velocity": 0.7244094488188977
        },
        {
          "duration": 0.113636249999999,
          "durationTicks": 100,
          "midi": 42,
          "name": "F#2",
          "ticks": 26640,
          "time": 30.272697,
          "velocity": 0.4881889763779528
        },
        {
          "duration": 0.113636249999999,
          "durationTicks": 100,
          "midi": 35,
          "name": "B1",
          "ticks": 26880,
          "time": 30.545424,
          "velocity": 0.7086614173228346
        },
        {
          "duration": 0.113636249999999,
          "durationTicks": 100,
          "midi": 42,
          "name": "F#2",
          "ticks": 26880,
          "time": 30.545424,
          "velocity": 0.7086614173228346
        },
        {
          "duration": 0.113636249999999,
          "durationTicks": 100,
          "midi": 42,
          "name": "F#2",
          "ticks": 27120,
          "time": 30.818151,
          "velocity": 0.5511811023622047
        },
        {
          "duration": 0.11363625000000255,
          "durationTicks": 100,
          "midi": 38,
          "name": "D2",
          "ticks": 27360,
          "time": 31.090878,
          "velocity": 0.5511811023622047
        },
        {
          "duration": 0.11363625000000255,
          "durationTicks": 100,
          "midi": 42,
          "name": "F#2",
          "ticks": 27360,
          "time": 31.090878,
          "velocity": 0.905511811023622
        },
        {
          "duration": 0.11363625000000255,
          "durationTicks": 100,
          "midi": 35,
          "name": "B1",
          "ticks": 27600,
          "time": 31.363605,
          "velocity": 0.6299212598425197
        },
        {
          "duration": 0.11363625000000255,
          "durationTicks": 100,
          "midi": 42,
          "name": "F#2",
          "ticks": 27600,
          "time": 31.363605,
          "velocity": 0.5511811023622047
        },
        {
          "duration": 0.11363625000000255,
          "durationTicks": 100,
          "midi": 35,
          "name": "B1",
          "ticks": 27840,
          "time": 31.636332,
          "velocity": 0.7086614173228346
        },
        {
          "duration": 0.11363625000000255,
          "durationTicks": 100,
          "midi": 38,
          "name": "D2",
          "ticks": 27840,
          "time": 31.636332,
          "velocity": 0.3937007874015748
        },
        {
          "duration": 0.11363625000000255,
          "durationTicks": 100,
          "midi": 42,
          "name": "F#2",
          "ticks": 27840,
          "time": 31.636332,
          "velocity": 0.7086614173228346
        },
        {
          "duration": 0.113636249999999,
          "durationTicks": 100,
          "midi": 38,
          "name": "D2",
          "ticks": 27960,
          "time": 31.7726955,
          "velocity": 0.31496062992125984
        },
        {
          "duration": 0.113636249999999,
          "durationTicks": 100,
          "midi": 42,
          "name": "F#2",
          "ticks": 28080,
          "time": 31.909059,
          "velocity": 0.47244094488188976
        },
        {
          "duration": 0.113636249999999,
          "durationTicks": 100,
          "midi": 38,
          "name": "D2",
          "ticks": 28200,
          "time": 32.0454225,
          "velocity": 0.47244094488188976
        },
        {
          "duration": 0.113636249999999,
          "durationTicks": 100,
          "midi": 42,
          "name": "F#2",
          "ticks": 28320,
          "time": 32.181786,
          "velocity": 0.6299212598425197
        },
        {
          "duration": 0.113636249999999,
          "durationTicks": 100,
          "midi": 45,
          "name": "A2",
          "ticks": 28320,
          "time": 32.181786,
          "velocity": 0.47244094488188976
        },
        {
          "duration": 0.1136362500000061,
          "durationTicks": 100,
          "midi": 45,
          "name": "A2",
          "ticks": 28440,
          "time": 32.3181495,
          "velocity": 0.3937007874015748
        },
        {
          "duration": 0.113636249999999,
          "durationTicks": 100,
          "midi": 42,
          "name": "F#2",
          "ticks": 28560,
          "time": 32.454513,
          "velocity": 0.47244094488188976
        },
        {
          "duration": 0.113636249999999,
          "durationTicks": 100,
          "midi": 45,
          "name": "A2",
          "ticks": 28560,
          "time": 32.454513,
          "velocity": 0.6299212598425197
        },
        {
          "duration": 0.113636249999999,
          "durationTicks": 100,
          "midi": 45,
          "name": "A2",
          "ticks": 28680,
          "time": 32.5908765,
          "velocity": 0.31496062992125984
        },
        {
          "duration": 0.113636249999999,
          "durationTicks": 100,
          "midi": 35,
          "name": "B1",
          "ticks": 28800,
          "time": 32.72724,
          "velocity": 0.6299212598425197
        },
        {
          "duration": 0.113636249999999,
          "durationTicks": 100,
          "midi": 38,
          "name": "D2",
          "ticks": 28800,
          "time": 32.72724,
          "velocity": 0.6299212598425197
        },
        {
          "duration": 0.113636249999999,
          "durationTicks": 100,
          "midi": 49,
          "name": "C#3",
          "ticks": 28800,
          "time": 32.72724,
          "velocity": 0.47244094488188976
        },
        {
          "duration": 0.1136362500000061,
          "durationTicks": 100,
          "midi": 42,
          "name": "F#2",
          "ticks": 29040,
          "time": 32.999967,
          "velocity": 0.6299212598425197
        },
        {
          "duration": 0.113636249999999,
          "durationTicks": 100,
          "midi": 38,
          "name": "D2",
          "ticks": 29280,
          "time": 33.272694,
          "velocity": 0.6299212598425197
        },
        {
          "duration": 0.113636249999999,
          "durationTicks": 100,
          "midi": 42,
          "name": "F#2",
          "ticks": 29280,
          "time": 33.272694,
          "velocity": 0.8267716535433071
        },
        {
          "duration": 0.1136362500000061,
          "durationTicks": 100,
          "midi": 35,
          "name": "B1",
          "ticks": 29520,
          "time": 33.545421,
          "velocity": 0.5511811023622047
        },
        {
          "duration": 0.1136362500000061,
          "durationTicks": 100,
          "midi": 42,
          "name": "F#2",
          "ticks": 29520,
          "time": 33.545421,
          "velocity": 0.47244094488188976
        },
        {
          "duration": 0.113636249999999,
          "durationTicks": 100,
          "midi": 35,
          "name": "B1",
          "ticks": 29760,
          "time": 33.818148,
          "velocity": 0.7086614173228346
        },
        {
          "duration": 0.113636249999999,
          "durationTicks": 100,
          "midi": 42,
          "name": "F#2",
          "ticks": 29760,
          "time": 33.818148,
          "velocity": 0.6299212598425197
        },
        {
          "duration": 0.1136362500000061,
          "durationTicks": 100,
          "midi": 42,
          "name": "F#2",
          "ticks": 30000,
          "time": 34.090875,
          "velocity": 0.47244094488188976
        },
        {
          "duration": 0.113636249999999,
          "durationTicks": 100,
          "midi": 38,
          "name": "D2",
          "ticks": 30240,
          "time": 34.363602,
          "velocity": 0.6299212598425197
        },
        {
          "duration": 0.113636249999999,
          "durationTicks": 100,
          "midi": 42,
          "name": "F#2",
          "ticks": 30240,
          "time": 34.363602,
          "velocity": 0.7086614173228346
        },
        {
          "duration": 0.1136362500000061,
          "durationTicks": 100,
          "midi": 42,
          "name": "F#2",
          "ticks": 30480,
          "time": 34.636328999999996,
          "velocity": 0.47244094488188976
        },
        {
          "duration": 0.113636249999999,
          "durationTicks": 100,
          "midi": 35,
          "name": "B1",
          "ticks": 30720,
          "time": 34.909056,
          "velocity": 0.6692913385826772
        },
        {
          "duration": 0.113636249999999,
          "durationTicks": 100,
          "midi": 42,
          "name": "F#2",
          "ticks": 30720,
          "time": 34.909056,
          "velocity": 0.7480314960629921
        },
        {
          "duration": 0.11363624999999189,
          "durationTicks": 100,
          "midi": 42,
          "name": "F#2",
          "ticks": 30960,
          "time": 35.181783,
          "velocity": 0.5118110236220472
        },
        {
          "duration": 0.113636249999999,
          "durationTicks": 100,
          "midi": 38,
          "name": "D2",
          "ticks": 31200,
          "time": 35.45451,
          "velocity": 0.6299212598425197
        },
        {
          "duration": 0.113636249999999,
          "durationTicks": 100,
          "midi": 42,
          "name": "F#2",
          "ticks": 31200,
          "time": 35.45451,
          "velocity": 0.8661417322834646
        },
        {
          "duration": 0.11363624999999189,
          "durationTicks": 100,
          "midi": 35,
          "name": "B1",
          "ticks": 31440,
          "time": 35.727237,
          "velocity": 0.5905511811023622
        },
        {
          "duration": 0.11363624999999189,
          "durationTicks": 100,
          "midi": 42,
          "name": "F#2",
          "ticks": 31440,
          "time": 35.727237,
          "velocity": 0.5118110236220472
        },
        {
          "duration": 0.113636249999999,
          "durationTicks": 100,
          "midi": 35,
          "name": "B1",
          "ticks": 31680,
          "time": 35.999964,
          "velocity": 0.7480314960629921
        },
        {
          "duration": 0.113636249999999,
          "durationTicks": 100,
          "midi": 42,
          "name": "F#2",
          "ticks": 31680,
          "time": 35.999964,
          "velocity": 0.6692913385826772
        },
        {
          "duration": 0.11363624999999189,
          "durationTicks": 100,
          "midi": 42,
          "name": "F#2",
          "ticks": 31920,
          "time": 36.272691,
          "velocity": 0.5118110236220472
        },
        {
          "duration": 0.113636249999999,
          "durationTicks": 100,
          "midi": 38,
          "name": "D2",
          "ticks": 32160,
          "time": 36.545418,
          "velocity": 0.6299212598425197
        },
        {
          "duration": 0.113636249999999,
          "durationTicks": 100,
          "midi": 42,
          "name": "F#2",
          "ticks": 32160,
          "time": 36.545418,
          "velocity": 0.7480314960629921
        },
        {
          "duration": 0.113636249999999,
          "durationTicks": 100,
          "midi": 42,
          "name": "F#2",
          "ticks": 32400,
          "time": 36.818145,
          "velocity": 0.5118110236220472
        },
        {
          "duration": 0.113636249999999,
          "durationTicks": 100,
          "midi": 35,
          "name": "B1",
          "ticks": 32640,
          "time": 37.090872,
          "velocity": 0.6535433070866141
        },
        {
          "duration": 0.113636249999999,
          "durationTicks": 100,
          "midi": 42,
          "name": "F#2",
          "ticks": 32640,
          "time": 37.090872,
          "velocity": 0.6535433070866141
        },
        {
          "duration": 0.113636249999999,
          "durationTicks": 100,
          "midi": 42,
          "name": "F#2",
          "ticks": 32880,
          "time": 37.363599,
          "velocity": 0.49606299212598426
        },
        {
          "duration": 0.113636249999999,
          "durationTicks": 100,
          "midi": 38,
          "name": "D2",
          "ticks": 33120,
          "time": 37.636326,
          "velocity": 0.6299212598425197
        },
        {
          "duration": 0.113636249999999,
          "durationTicks": 100,
          "midi": 42,
          "name": "F#2",
          "ticks": 33120,
          "time": 37.636326,
          "velocity": 0.8503937007874016
        },
        {
          "duration": 0.113636249999999,
          "durationTicks": 100,
          "midi": 35,
          "name": "B1",
          "ticks": 33360,
          "time": 37.909053,
          "velocity": 0.5748031496062992
        },
        {
          "duration": 0.113636249999999,
          "durationTicks": 100,
          "midi": 42,
          "name": "F#2",
          "ticks": 33360,
          "time": 37.909053,
          "velocity": 0.49606299212598426
        },
        {
          "duration": 0.113636249999999,
          "durationTicks": 100,
          "midi": 35,
          "name": "B1",
          "ticks": 33600,
          "time": 38.181779999999996,
          "velocity": 0.7322834645669292
        },
        {
          "duration": 0.113636249999999,
          "durationTicks": 100,
          "midi": 42,
          "name": "F#2",
          "ticks": 33600,
          "time": 38.181779999999996,
          "velocity": 0.6535433070866141
        },
        {
          "duration": 0.113636249999999,
          "durationTicks": 100,
          "midi": 42,
          "name": "F#2",
          "ticks": 33840,
          "time": 38.454507,
          "velocity": 0.49606299212598426
        },
        {
          "duration": 0.11363624999999189,
          "durationTicks": 100,
          "midi": 38,
          "name": "D2",
          "ticks": 34080,
          "time": 38.727234,
          "velocity": 0.6299212598425197
        },
        {
          "duration": 0.11363624999999189,
          "durationTicks": 100,
          "midi": 42,
          "name": "F#2",
          "ticks": 34080,
          "time": 38.727234,
          "velocity": 0.7322834645669292
        },
        {
          "duration": 0.113636249999999,
          "durationTicks": 100,
          "midi": 42,
          "name": "F#2",
          "ticks": 34320,
          "time": 38.999961,
          "velocity": 0.49606299212598426
        },
        {
          "duration": 0.11363624999999189,
          "durationTicks": 100,
          "midi": 35,
          "name": "B1",
          "ticks": 34560,
          "time": 39.272688,
          "velocity": 0.7007874015748031
        },
        {
          "duration": 0.11363624999999189,
          "durationTicks": 100,
          "midi": 42,
          "name": "F#2",
          "ticks": 34560,
          "time": 39.272688,
          "velocity": 0.7007874015748031
        },
        {
          "duration": 0.113636249999999,
          "durationTicks": 100,
          "midi": 42,
          "name": "F#2",
          "ticks": 34800,
          "time": 39.545415,
          "velocity": 0.5433070866141733
        },
        {
          "duration": 0.11363624999999189,
          "durationTicks": 100,
          "midi": 38,
          "name": "D2",
          "ticks": 35040,
          "time": 39.818142,
          "velocity": 0.7086614173228346
        },
        {
          "duration": 0.11363624999999189,
          "durationTicks": 100,
          "midi": 42,
          "name": "F#2",
          "ticks": 35040,
          "time": 39.818142,
          "velocity": 0.8976377952755905
        },
        {
          "duration": 0.113636249999999,
          "durationTicks": 100,
          "midi": 35,
          "name": "B1",
          "ticks": 35280,
          "time": 40.090869,
          "velocity": 0.6220472440944882
        },
        {
          "duration": 0.113636249999999,
          "durationTicks": 100,
          "midi": 42,
          "name": "F#2",
          "ticks": 35280,
          "time": 40.090869,
          "velocity": 0.5433070866141733
        },
        {
          "duration": 0.113636249999999,
          "durationTicks": 100,
          "midi": 35,
          "name": "B1",
          "ticks": 35520,
          "time": 40.363596,
          "velocity": 0.7795275590551181
        },
        {
          "duration": 0.113636249999999,
          "durationTicks": 100,
          "midi": 42,
          "name": "F#2",
          "ticks": 35520,
          "time": 40.363596,
          "velocity": 0.7007874015748031
        },
        {
          "duration": 0.113636249999999,
          "durationTicks": 100,
          "midi": 42,
          "name": "F#2",
          "ticks": 35760,
          "time": 40.636323,
          "velocity": 0.5433070866141733
        },
        {
          "duration": 0.113636249999999,
          "durationTicks": 100,
          "midi": 48,
          "name": "C3",
          "ticks": 35760,
          "time": 40.636323,
          "velocity": 0.5433070866141733
        },
        {
          "duration": 0.113636249999999,
          "durationTicks": 100,
          "midi": 48,
          "name": "C3",
          "ticks": 35880,
          "time": 40.7726865,
          "velocity": 0.3858267716535433
        },
        {
          "duration": 0.113636249999999,
          "durationTicks": 100,
          "midi": 38,
          "name": "D2",
          "ticks": 36000,
          "time": 40.90905,
          "velocity": 0.7086614173228346
        },
        {
          "duration": 0.113636249999999,
          "durationTicks": 100,
          "midi": 42,
          "name": "F#2",
          "ticks": 36000,
          "time": 40.90905,
          "velocity": 0.7795275590551181
        },
        {
          "duration": 0.113636249999999,
          "durationTicks": 100,
          "midi": 45,
          "name": "A2",
          "ticks": 36000,
          "time": 40.90905,
          "velocity": 0.5433070866141733
        },
        {
          "duration": 0.11363624999999189,
          "durationTicks": 100,
          "midi": 45,
          "name": "A2",
          "ticks": 36120,
          "time": 41.0454135,
          "velocity": 0.3858267716535433
        },
        {
          "duration": 0.113636249999999,
          "durationTicks": 100,
          "midi": 35,
          "name": "B1",
          "ticks": 36240,
          "time": 41.181777,
          "velocity": 0.6220472440944882
        },
        {
          "duration": 0.113636249999999,
          "durationTicks": 100,
          "midi": 42,
          "name": "F#2",
          "ticks": 36240,
          "time": 41.181777,
          "velocity": 0.5433070866141733
        },
        {
          "duration": 0.113636249999999,
          "durationTicks": 100,
          "midi": 41,
          "name": "F2",
          "ticks": 36240,
          "time": 41.181777,
          "velocity": 0.4645669291338583
        },
        {
          "duration": 0.113636249999999,
          "durationTicks": 100,
          "midi": 35,
          "name": "B1",
          "ticks": 36480,
          "time": 41.454504,
          "velocity": 0.6535433070866141
        },
        {
          "duration": 0.113636249999999,
          "durationTicks": 100,
          "midi": 42,
          "name": "F#2",
          "ticks": 36480,
          "time": 41.454504,
          "velocity": 0.6535433070866141
        },
        {
          "duration": 0.113636249999999,
          "durationTicks": 100,
          "midi": 42,
          "name": "F#2",
          "ticks": 36720,
          "time": 41.727230999999996,
          "velocity": 0.49606299212598426
        },
        {
          "duration": 0.113636249999999,
          "durationTicks": 100,
          "midi": 38,
          "name": "D2",
          "ticks": 36960,
          "time": 41.999958,
          "velocity": 0.6299212598425197
        },
        {
          "duration": 0.113636249999999,
          "durationTicks": 100,
          "midi": 42,
          "name": "F#2",
          "ticks": 36960,
          "time": 41.999958,
          "velocity": 0.8503937007874016
        },
        {
          "duration": 0.11363624999999189,
          "durationTicks": 100,
          "midi": 35,
          "name": "B1",
          "ticks": 37200,
          "time": 42.272685,
          "velocity": 0.5748031496062992
        },
        {
          "duration": 0.11363624999999189,
          "durationTicks": 100,
          "midi": 42,
          "name": "F#2",
          "ticks": 37200,
          "time": 42.272685,
          "velocity": 0.49606299212598426
        },
        {
          "duration": 0.113636249999999,
          "durationTicks": 100,
          "midi": 35,
          "name": "B1",
          "ticks": 37440,
          "time": 42.545412,
          "velocity": 0.7322834645669292
        },
        {
          "duration": 0.113636249999999,
          "durationTicks": 100,
          "midi": 42,
          "name": "F#2",
          "ticks": 37440,
          "time": 42.545412,
          "velocity": 0.6535433070866141
        },
        {
          "duration": 0.11363624999999189,
          "durationTicks": 100,
          "midi": 42,
          "name": "F#2",
          "ticks": 37680,
          "time": 42.818139,
          "velocity": 0.49606299212598426
        },
        {
          "duration": 0.113636249999999,
          "durationTicks": 100,
          "midi": 38,
          "name": "D2",
          "ticks": 37920,
          "time": 43.090866,
          "velocity": 0.6299212598425197
        },
        {
          "duration": 0.113636249999999,
          "durationTicks": 100,
          "midi": 42,
          "name": "F#2",
          "ticks": 37920,
          "time": 43.090866,
          "velocity": 0.7322834645669292
        },
        {
          "duration": 0.11363624999999189,
          "durationTicks": 100,
          "midi": 42,
          "name": "F#2",
          "ticks": 38160,
          "time": 43.363593,
          "velocity": 0.49606299212598426
        },
        {
          "duration": 0.113636249999999,
          "durationTicks": 100,
          "midi": 35,
          "name": "B1",
          "ticks": 38400,
          "time": 43.63632,
          "velocity": 0.6220472440944882
        },
        {
          "duration": 0.113636249999999,
          "durationTicks": 100,
          "midi": 42,
          "name": "F#2",
          "ticks": 38400,
          "time": 43.63632,
          "velocity": 0.6220472440944882
        },
        {
          "duration": 0.113636249999999,
          "durationTicks": 100,
          "midi": 42,
          "name": "F#2",
          "ticks": 38640,
          "time": 43.909047,
          "velocity": 0.4645669291338583
        },
        {
          "duration": 0.113636249999999,
          "durationTicks": 100,
          "midi": 38,
          "name": "D2",
          "ticks": 38880,
          "time": 44.181774,
          "velocity": 0.6299212598425197
        },
        {
          "duration": 0.113636249999999,
          "durationTicks": 100,
          "midi": 42,
          "name": "F#2",
          "ticks": 38880,
          "time": 44.181774,
          "velocity": 0.8188976377952756
        },
        {
          "duration": 0.113636249999999,
          "durationTicks": 100,
          "midi": 35,
          "name": "B1",
          "ticks": 39120,
          "time": 44.454501,
          "velocity": 0.5433070866141733
        },
        {
          "duration": 0.113636249999999,
          "durationTicks": 100,
          "midi": 42,
          "name": "F#2",
          "ticks": 39120,
          "time": 44.454501,
          "velocity": 0.5039370078740157
        },
        {
          "duration": 0.113636249999999,
          "durationTicks": 100,
          "midi": 35,
          "name": "B1",
          "ticks": 39360,
          "time": 44.727228,
          "velocity": 0.7007874015748031
        },
        {
          "duration": 0.113636249999999,
          "durationTicks": 100,
          "midi": 42,
          "name": "F#2",
          "ticks": 39360,
          "time": 44.727228,
          "velocity": 0.6220472440944882
        },
        {
          "duration": 0.113636249999999,
          "durationTicks": 100,
          "midi": 42,
          "name": "F#2",
          "ticks": 39600,
          "time": 44.999955,
          "velocity": 0.4645669291338583
        },
        {
          "duration": 0.113636249999999,
          "durationTicks": 100,
          "midi": 38,
          "name": "D2",
          "ticks": 39840,
          "time": 45.272681999999996,
          "velocity": 0.6299212598425197
        },
        {
          "duration": 0.113636249999999,
          "durationTicks": 100,
          "midi": 42,
          "name": "F#2",
          "ticks": 39840,
          "time": 45.272681999999996,
          "velocity": 0.7007874015748031
        },
        {
          "duration": 0.113636249999999,
          "durationTicks": 100,
          "midi": 54,
          "name": "F#3",
          "ticks": 39840,
          "time": 45.272681999999996,
          "velocity": 0.8188976377952756
        },
        {
          "duration": 0.113636249999999,
          "durationTicks": 100,
          "midi": 35,
          "name": "B1",
          "ticks": 40080,
          "time": 45.545409,
          "velocity": 0.4645669291338583
        },
        {
          "duration": 0.113636249999999,
          "durationTicks": 100,
          "midi": 46,
          "name": "A#2",
          "ticks": 40080,
          "time": 45.545409,
          "velocity": 0.5433070866141733
        },
        {
          "duration": 0.11363624999999189,
          "durationTicks": 100,
          "midi": 35,
          "name": "B1",
          "ticks": 40320,
          "time": 45.818136,
          "velocity": 0.6535433070866141
        },
        {
          "duration": 0.11363624999999189,
          "durationTicks": 100,
          "midi": 42,
          "name": "F#2",
          "ticks": 40320,
          "time": 45.818136,
          "velocity": 0.6535433070866141
        },
        {
          "duration": 0.113636249999999,
          "durationTicks": 100,
          "midi": 42,
          "name": "F#2",
          "ticks": 40560,
          "time": 46.090863,
          "velocity": 0.49606299212598426
        },
        {
          "duration": 0.11363624999999189,
          "durationTicks": 100,
          "midi": 38,
          "name": "D2",
          "ticks": 40800,
          "time": 46.36359,
          "velocity": 0.6299212598425197
        },
        {
          "duration": 0.11363624999999189,
          "durationTicks": 100,
          "midi": 42,
          "name": "F#2",
          "ticks": 40800,
          "time": 46.36359,
          "velocity": 0.8503937007874016
        },
        {
          "duration": 0.113636249999999,
          "durationTicks": 100,
          "midi": 35,
          "name": "B1",
          "ticks": 41040,
          "time": 46.636317,
          "velocity": 0.5748031496062992
        },
        {
          "duration": 0.113636249999999,
          "durationTicks": 100,
          "midi": 42,
          "name": "F#2",
          "ticks": 41040,
          "time": 46.636317,
          "velocity": 0.49606299212598426
        },
        {
          "duration": 0.11363624999999189,
          "durationTicks": 100,
          "midi": 35,
          "name": "B1",
          "ticks": 41280,
          "time": 46.909044,
          "velocity": 0.7322834645669292
        },
        {
          "duration": 0.11363624999999189,
          "durationTicks": 100,
          "midi": 42,
          "name": "F#2",
          "ticks": 41280,
          "time": 46.909044,
          "velocity": 0.6535433070866141
        },
        {
          "duration": 0.113636249999999,
          "durationTicks": 100,
          "midi": 42,
          "name": "F#2",
          "ticks": 41520,
          "time": 47.181771,
          "velocity": 0.49606299212598426
        },
        {
          "duration": 0.113636249999999,
          "durationTicks": 100,
          "midi": 38,
          "name": "D2",
          "ticks": 41760,
          "time": 47.454498,
          "velocity": 0.6299212598425197
        },
        {
          "duration": 0.113636249999999,
          "durationTicks": 100,
          "midi": 42,
          "name": "F#2",
          "ticks": 41760,
          "time": 47.454498,
          "velocity": 0.7322834645669292
        },
        {
          "duration": 0.113636249999999,
          "durationTicks": 100,
          "midi": 42,
          "name": "F#2",
          "ticks": 42000,
          "time": 47.727225,
          "velocity": 0.49606299212598426
        },
        {
          "duration": 0.113636249999999,
          "durationTicks": 100,
          "midi": 35,
          "name": "B1",
          "ticks": 42240,
          "time": 47.999952,
          "velocity": 0.6220472440944882
        },
        {
          "duration": 0.113636249999999,
          "durationTicks": 100,
          "midi": 42,
          "name": "F#2",
          "ticks": 42240,
          "time": 47.999952,
          "velocity": 0.6220472440944882
        },
        {
          "duration": 0.113636249999999,
          "durationTicks": 100,
          "midi": 42,
          "name": "F#2",
          "ticks": 42480,
          "time": 48.272679,
          "velocity": 0.4645669291338583
        },
        {
          "duration": 0.113636249999999,
          "durationTicks": 100,
          "midi": 38,
          "name": "D2",
          "ticks": 42720,
          "time": 48.545406,
          "velocity": 0.6299212598425197
        },
        {
          "duration": 0.113636249999999,
          "durationTicks": 100,
          "midi": 42,
          "name": "F#2",
          "ticks": 42720,
          "time": 48.545406,
          "velocity": 0.8188976377952756
        },
        {
          "duration": 0.113636249999999,
          "durationTicks": 100,
          "midi": 35,
          "name": "B1",
          "ticks": 42960,
          "time": 48.818132999999996,
          "velocity": 0.5433070866141733
        },
        {
          "duration": 0.113636249999999,
          "durationTicks": 100,
          "midi": 42,
          "name": "F#2",
          "ticks": 42960,
          "time": 48.818132999999996,
          "velocity": 0.5433070866141733
        },
        {
          "duration": 0.113636249999999,
          "durationTicks": 100,
          "midi": 35,
          "name": "B1",
          "ticks": 43200,
          "time": 49.09086,
          "velocity": 0.7007874015748031
        },
        {
          "duration": 0.113636249999999,
          "durationTicks": 100,
          "midi": 42,
          "name": "F#2",
          "ticks": 43200,
          "time": 49.09086,
          "velocity": 0.6220472440944882
        },
        {
          "duration": 0.11363624999999189,
          "durationTicks": 100,
          "midi": 42,
          "name": "F#2",
          "ticks": 43440,
          "time": 49.363587,
          "velocity": 0.4645669291338583
        },
        {
          "duration": 0.113636249999999,
          "durationTicks": 100,
          "midi": 38,
          "name": "D2",
          "ticks": 43680,
          "time": 49.636314,
          "velocity": 0.6299212598425197
        },
        {
          "duration": 0.113636249999999,
          "durationTicks": 100,
          "midi": 42,
          "name": "F#2",
          "ticks": 43680,
          "time": 49.636314,
          "velocity": 0.7007874015748031
        },
        {
          "duration": 0.113636249999999,
          "durationTicks": 100,
          "midi": 54,
          "name": "F#3",
          "ticks": 43680,
          "time": 49.636314,
          "velocity": 0.8188976377952756
        },
        {
          "duration": 0.11363624999999189,
          "durationTicks": 100,
          "midi": 35,
          "name": "B1",
          "ticks": 43920,
          "time": 49.909041,
          "velocity": 0.4645669291338583
        },
        {
          "duration": 0.11363624999999189,
          "durationTicks": 100,
          "midi": 42,
          "name": "F#2",
          "ticks": 43920,
          "time": 49.909041,
          "velocity": 0.4645669291338583
        },
        {
          "duration": 0.113636249999999,
          "durationTicks": 100,
          "midi": 35,
          "name": "B1",
          "ticks": 44160,
          "time": 50.181768,
          "velocity": 0.7086614173228346
        },
        {
          "duration": 0.113636249999999,
          "durationTicks": 100,
          "midi": 42,
          "name": "F#2",
          "ticks": 44160,
          "time": 50.181768,
          "velocity": 0.7086614173228346
        },
        {
          "duration": 0.113636249999999,
          "durationTicks": 100,
          "midi": 42,
          "name": "F#2",
          "ticks": 44400,
          "time": 50.454495,
          "velocity": 0.5511811023622047
        },
        {
          "duration": 0.113636249999999,
          "durationTicks": 100,
          "midi": 38,
          "name": "D2",
          "ticks": 44640,
          "time": 50.727222,
          "velocity": 0.5511811023622047
        },
        {
          "duration": 0.113636249999999,
          "durationTicks": 100,
          "midi": 42,
          "name": "F#2",
          "ticks": 44640,
          "time": 50.727222,
          "velocity": 0.905511811023622
        },
        {
          "duration": 0.113636249999999,
          "durationTicks": 100,
          "midi": 35,
          "name": "B1",
          "ticks": 44880,
          "time": 50.999949,
          "velocity": 0.6299212598425197
        },
        {
          "duration": 0.113636249999999,
          "durationTicks": 100,
          "midi": 42,
          "name": "F#2",
          "ticks": 44880,
          "time": 50.999949,
          "velocity": 0.5511811023622047
        },
        {
          "duration": 0.113636249999999,
          "durationTicks": 100,
          "midi": 35,
          "name": "B1",
          "ticks": 45120,
          "time": 51.272676,
          "velocity": 0.7086614173228346
        },
        {
          "duration": 0.113636249999999,
          "durationTicks": 100,
          "midi": 38,
          "name": "D2",
          "ticks": 45120,
          "time": 51.272676,
          "velocity": 0.3937007874015748
        },
        {
          "duration": 0.113636249999999,
          "durationTicks": 100,
          "midi": 42,
          "name": "F#2",
          "ticks": 45120,
          "time": 51.272676,
          "velocity": 0.7086614173228346
        },
        {
          "duration": 0.113636249999999,
          "durationTicks": 100,
          "midi": 38,
          "name": "D2",
          "ticks": 45240,
          "time": 51.4090395,
          "velocity": 0.31496062992125984
        },
        {
          "duration": 0.113636249999999,
          "durationTicks": 100,
          "midi": 42,
          "name": "F#2",
          "ticks": 45360,
          "time": 51.545403,
          "velocity": 0.47244094488188976
        },
        {
          "duration": 0.11363624999999189,
          "durationTicks": 100,
          "midi": 38,
          "name": "D2",
          "ticks": 45480,
          "time": 51.6817665,
          "velocity": 0.47244094488188976
        },
        {
          "duration": 0.113636249999999,
          "durationTicks": 100,
          "midi": 42,
          "name": "F#2",
          "ticks": 45600,
          "time": 51.81813,
          "velocity": 0.6299212598425197
        },
        {
          "duration": 0.113636249999999,
          "durationTicks": 100,
          "midi": 45,
          "name": "A2",
          "ticks": 45600,
          "time": 51.81813,
          "velocity": 0.47244094488188976
        },
        {
          "duration": 0.113636249999999,
          "durationTicks": 100,
          "midi": 45,
          "name": "A2",
          "ticks": 45720,
          "time": 51.9544935,
          "velocity": 0.3937007874015748
        },
        {
          "duration": 0.113636249999999,
          "durationTicks": 100,
          "midi": 42,
          "name": "F#2",
          "ticks": 45840,
          "time": 52.090857,
          "velocity": 0.47244094488188976
        },
        {
          "duration": 0.113636249999999,
          "durationTicks": 100,
          "midi": 45,
          "name": "A2",
          "ticks": 45840,
          "time": 52.090857,
          "velocity": 0.6299212598425197
        },
        {
          "duration": 0.113636249999999,
          "durationTicks": 100,
          "midi": 45,
          "name": "A2",
          "ticks": 45960,
          "time": 52.2272205,
          "velocity": 0.31496062992125984
        },
        {
          "duration": 0.11363624999999189,
          "durationTicks": 100,
          "midi": 35,
          "name": "B1",
          "ticks": 46080,
          "time": 52.363584,
          "velocity": 0.7086614173228346
        },
        {
          "duration": 0.11363624999999189,
          "durationTicks": 100,
          "midi": 38,
          "name": "D2",
          "ticks": 46080,
          "time": 52.363584,
          "velocity": 0.7086614173228346
        },
        {
          "duration": 0.11363624999999189,
          "durationTicks": 100,
          "midi": 49,
          "name": "C#3",
          "ticks": 46080,
          "time": 52.363584,
          "velocity": 0.6299212598425197
        },
        {
          "duration": 0.113636249999999,
          "durationTicks": 100,
          "midi": 42,
          "name": "F#2",
          "ticks": 46320,
          "time": 52.636311,
          "velocity": 0.5511811023622047
        },
        {
          "duration": 0.11363624999999189,
          "durationTicks": 100,
          "midi": 38,
          "name": "D2",
          "ticks": 46560,
          "time": 52.909038,
          "velocity": 0.7874015748031497
        },
        {
          "duration": 0.11363624999999189,
          "durationTicks": 100,
          "midi": 42,
          "name": "F#2",
          "ticks": 46560,
          "time": 52.909038,
          "velocity": 0.7874015748031497
        },
        {
          "duration": 0.113636249999999,
          "durationTicks": 100,
          "midi": 35,
          "name": "B1",
          "ticks": 46800,
          "time": 53.181765,
          "velocity": 0.6299212598425197
        },
        {
          "duration": 0.113636249999999,
          "durationTicks": 100,
          "midi": 42,
          "name": "F#2",
          "ticks": 46800,
          "time": 53.181765,
          "velocity": 0.5511811023622047
        },
        {
          "duration": 0.11363624999999189,
          "durationTicks": 100,
          "midi": 35,
          "name": "B1",
          "ticks": 47040,
          "time": 53.454492,
          "velocity": 0.7874015748031497
        },
        {
          "duration": 0.11363624999999189,
          "durationTicks": 100,
          "midi": 42,
          "name": "F#2",
          "ticks": 47040,
          "time": 53.454492,
          "velocity": 0.7086614173228346
        },
        {
          "duration": 0.113636249999999,
          "durationTicks": 100,
          "midi": 42,
          "name": "F#2",
          "ticks": 47280,
          "time": 53.727219,
          "velocity": 0.5511811023622047
        },
        {
          "duration": 0.113636249999999,
          "durationTicks": 100,
          "midi": 38,
          "name": "D2",
          "ticks": 47520,
          "time": 53.999946,
          "velocity": 0.7874015748031497
        },
        {
          "duration": 0.113636249999999,
          "durationTicks": 100,
          "midi": 42,
          "name": "F#2",
          "ticks": 47520,
          "time": 53.999946,
          "velocity": 0.7874015748031497
        },
        {
          "duration": 0.113636249999999,
          "durationTicks": 100,
          "midi": 35,
          "name": "B1",
          "ticks": 47760,
          "time": 54.272673,
          "velocity": 0.5511811023622047
        },
        {
          "duration": 0.113636249999999,
          "durationTicks": 100,
          "midi": 42,
          "name": "F#2",
          "ticks": 47760,
          "time": 54.272673,
          "velocity": 0.5511811023622047
        },
        {
          "duration": 0.113636249999999,
          "durationTicks": 100,
          "midi": 35,
          "name": "B1",
          "ticks": 48000,
          "time": 54.5454,
          "velocity": 0.7086614173228346
        },
        {
          "duration": 0.113636249999999,
          "durationTicks": 100,
          "midi": 42,
          "name": "F#2",
          "ticks": 48000,
          "time": 54.5454,
          "velocity": 0.7086614173228346
        },
        {
          "duration": 0.113636249999999,
          "durationTicks": 100,
          "midi": 42,
          "name": "F#2",
          "ticks": 48240,
          "time": 54.818127,
          "velocity": 0.5511811023622047
        },
        {
          "duration": 0.113636249999999,
          "durationTicks": 100,
          "midi": 38,
          "name": "D2",
          "ticks": 48480,
          "time": 55.090854,
          "velocity": 0.7874015748031497
        },
        {
          "duration": 0.113636249999999,
          "durationTicks": 100,
          "midi": 42,
          "name": "F#2",
          "ticks": 48480,
          "time": 55.090854,
          "velocity": 0.7874015748031497
        },
        {
          "duration": 0.113636249999999,
          "durationTicks": 100,
          "midi": 35,
          "name": "B1",
          "ticks": 48720,
          "time": 55.363580999999996,
          "velocity": 0.6299212598425197
        },
        {
          "duration": 0.113636249999999,
          "durationTicks": 100,
          "midi": 42,
          "name": "F#2",
          "ticks": 48720,
          "time": 55.363580999999996,
          "velocity": 0.7874015748031497
        },
        {
          "duration": 0.113636249999999,
          "durationTicks": 100,
          "midi": 35,
          "name": "B1",
          "ticks": 48960,
          "time": 55.636308,
          "velocity": 0.7874015748031497
        },
        {
          "duration": 0.113636249999999,
          "durationTicks": 100,
          "midi": 42,
          "name": "F#2",
          "ticks": 48960,
          "time": 55.636308,
          "velocity": 0.7086614173228346
        },
        {
          "duration": 0.11363624999999189,
          "durationTicks": 100,
          "midi": 35,
          "name": "B1",
          "ticks": 49200,
          "time": 55.909035,
          "velocity": 0.7086614173228346
        },
        {
          "duration": 0.11363624999999189,
          "durationTicks": 100,
          "midi": 42,
          "name": "F#2",
          "ticks": 49200,
          "time": 55.909035,
          "velocity": 0.5511811023622047
        },
        {
          "duration": 0.113636249999999,
          "durationTicks": 100,
          "midi": 38,
          "name": "D2",
          "ticks": 49440,
          "time": 56.181762,
          "velocity": 0.7874015748031497
        },
        {
          "duration": 0.113636249999999,
          "durationTicks": 100,
          "midi": 42,
          "name": "F#2",
          "ticks": 49440,
          "time": 56.181762,
          "velocity": 0.7874015748031497
        },
        {
          "duration": 0.11363624999999189,
          "durationTicks": 100,
          "midi": 35,
          "name": "B1",
          "ticks": 49680,
          "time": 56.454489,
          "velocity": 0.5511811023622047
        },
        {
          "duration": 0.11363624999999189,
          "durationTicks": 100,
          "midi": 42,
          "name": "F#2",
          "ticks": 49680,
          "time": 56.454489,
          "velocity": 0.5511811023622047
        },
        {
          "duration": 0.113636249999999,
          "durationTicks": 100,
          "midi": 35,
          "name": "B1",
          "ticks": 49920,
          "time": 56.727216,
          "velocity": 0.7086614173228346
        },
        {
          "duration": 0.113636249999999,
          "durationTicks": 100,
          "midi": 42,
          "name": "F#2",
          "ticks": 49920,
          "time": 56.727216,
          "velocity": 0.7086614173228346
        },
        {
          "duration": 0.11363624999999189,
          "durationTicks": 100,
          "midi": 42,
          "name": "F#2",
          "ticks": 50160,
          "time": 56.999943,
          "velocity": 0.5511811023622047
        },
        {
          "duration": 0.113636249999999,
          "durationTicks": 100,
          "midi": 38,
          "name": "D2",
          "ticks": 50400,
          "time": 57.27267,
          "velocity": 0.7874015748031497
        },
        {
          "duration": 0.113636249999999,
          "durationTicks": 100,
          "midi": 42,
          "name": "F#2",
          "ticks": 50400,
          "time": 57.27267,
          "velocity": 0.7874015748031497
        },
        {
          "duration": 0.113636249999999,
          "durationTicks": 100,
          "midi": 35,
          "name": "B1",
          "ticks": 50640,
          "time": 57.545397,
          "velocity": 0.6299212598425197
        },
        {
          "duration": 0.113636249999999,
          "durationTicks": 100,
          "midi": 42,
          "name": "F#2",
          "ticks": 50640,
          "time": 57.545397,
          "velocity": 0.5511811023622047
        },
        {
          "duration": 0.113636249999999,
          "durationTicks": 100,
          "midi": 35,
          "name": "B1",
          "ticks": 50880,
          "time": 57.818124,
          "velocity": 0.7874015748031497
        },
        {
          "duration": 0.113636249999999,
          "durationTicks": 100,
          "midi": 42,
          "name": "F#2",
          "ticks": 50880,
          "time": 57.818124,
          "velocity": 0.7086614173228346
        },
        {
          "duration": 0.113636249999999,
          "durationTicks": 100,
          "midi": 42,
          "name": "F#2",
          "ticks": 51120,
          "time": 58.090851,
          "velocity": 0.5511811023622047
        },
        {
          "duration": 0.113636249999999,
          "durationTicks": 100,
          "midi": 38,
          "name": "D2",
          "ticks": 51360,
          "time": 58.363578,
          "velocity": 0.7874015748031497
        },
        {
          "duration": 0.113636249999999,
          "durationTicks": 100,
          "midi": 42,
          "name": "F#2",
          "ticks": 51360,
          "time": 58.363578,
          "velocity": 0.7874015748031497
        },
        {
          "duration": 0.113636249999999,
          "durationTicks": 100,
          "midi": 35,
          "name": "B1",
          "ticks": 51600,
          "time": 58.636305,
          "velocity": 0.5511811023622047
        },
        {
          "duration": 0.113636249999999,
          "durationTicks": 100,
          "midi": 42,
          "name": "F#2",
          "ticks": 51600,
          "time": 58.636305,
          "velocity": 0.5511811023622047
        },
        {
          "duration": 0.113636249999999,
          "durationTicks": 100,
          "midi": 35,
          "name": "B1",
          "ticks": 51840,
          "time": 58.909031999999996,
          "velocity": 0.7086614173228346
        },
        {
          "duration": 0.113636249999999,
          "durationTicks": 100,
          "midi": 42,
          "name": "F#2",
          "ticks": 51840,
          "time": 58.909031999999996,
          "velocity": 0.7086614173228346
        },
        {
          "duration": 0.113636249999999,
          "durationTicks": 100,
          "midi": 42,
          "name": "F#2",
          "ticks": 52080,
          "time": 59.181759,
          "velocity": 0.5511811023622047
        },
        {
          "duration": 0.11363624999999189,
          "durationTicks": 100,
          "midi": 38,
          "name": "D2",
          "ticks": 52320,
          "time": 59.454486,
          "velocity": 0.7874015748031497
        },
        {
          "duration": 0.11363624999999189,
          "durationTicks": 100,
          "midi": 42,
          "name": "F#2",
          "ticks": 52320,
          "time": 59.454486,
          "velocity": 0.7874015748031497
        },
        {
          "duration": 0.113636249999999,
          "durationTicks": 100,
          "midi": 35,
          "name": "B1",
          "ticks": 52560,
          "time": 59.727213,
          "velocity": 0.6299212598425197
        },
        {
          "duration": 0.113636249999999,
          "durationTicks": 100,
          "midi": 42,
          "name": "F#2",
          "ticks": 52560,
          "time": 59.727213,
          "velocity": 0.7874015748031497
        },
        {
          "duration": 0.11363624999999189,
          "durationTicks": 100,
          "midi": 35,
          "name": "B1",
          "ticks": 52800,
          "time": 59.99994,
          "velocity": 0.7874015748031497
        },
        {
          "duration": 0.11363624999999189,
          "durationTicks": 100,
          "midi": 42,
          "name": "F#2",
          "ticks": 52800,
          "time": 59.99994,
          "velocity": 0.7086614173228346
        },
        {
          "duration": 0.113636249999999,
          "durationTicks": 100,
          "midi": 35,
          "name": "B1",
          "ticks": 53040,
          "time": 60.272667,
          "velocity": 0.7086614173228346
        },
        {
          "duration": 0.113636249999999,
          "durationTicks": 100,
          "midi": 42,
          "name": "F#2",
          "ticks": 53040,
          "time": 60.272667,
          "velocity": 0.5511811023622047
        },
        {
          "duration": 0.11363624999999189,
          "durationTicks": 100,
          "midi": 38,
          "name": "D2",
          "ticks": 53280,
          "time": 60.545394,
          "velocity": 0.7874015748031497
        },
        {
          "duration": 0.11363624999999189,
          "durationTicks": 100,
          "midi": 42,
          "name": "F#2",
          "ticks": 53280,
          "time": 60.545394,
          "velocity": 0.7874015748031497
        },
        {
          "duration": 0.113636249999999,
          "durationTicks": 100,
          "midi": 35,
          "name": "B1",
          "ticks": 53520,
          "time": 60.818121,
          "velocity": 0.5511811023622047
        },
        {
          "duration": 0.113636249999999,
          "durationTicks": 100,
          "midi": 46,
          "name": "A#2",
          "ticks": 53520,
          "time": 60.818121,
          "velocity": 0.6299212598425197
        },
        {
          "duration": 0.113636249999999,
          "durationTicks": 100,
          "midi": 35,
          "name": "B1",
          "ticks": 53760,
          "time": 61.090848,
          "velocity": 0.7086614173228346
        },
        {
          "duration": 0.113636249999999,
          "durationTicks": 100,
          "midi": 42,
          "name": "F#2",
          "ticks": 53760,
          "time": 61.090848,
          "velocity": 0.7086614173228346
        },
        {
          "duration": 0.113636249999999,
          "durationTicks": 100,
          "midi": 42,
          "name": "F#2",
          "ticks": 54000,
          "time": 61.363575,
          "velocity": 0.5511811023622047
        },
        {
          "duration": 0.113636249999999,
          "durationTicks": 100,
          "midi": 38,
          "name": "D2",
          "ticks": 54240,
          "time": 61.636302,
          "velocity": 0.7874015748031497
        },
        {
          "duration": 0.113636249999999,
          "durationTicks": 100,
          "midi": 42,
          "name": "F#2",
          "ticks": 54240,
          "time": 61.636302,
          "velocity": 0.7874015748031497
        },
        {
          "duration": 0.113636249999999,
          "durationTicks": 100,
          "midi": 35,
          "name": "B1",
          "ticks": 54480,
          "time": 61.909029,
          "velocity": 0.6299212598425197
        },
        {
          "duration": 0.113636249999999,
          "durationTicks": 100,
          "midi": 42,
          "name": "F#2",
          "ticks": 54480,
          "time": 61.909029,
          "velocity": 0.5511811023622047
        },
        {
          "duration": 0.113636249999999,
          "durationTicks": 100,
          "midi": 35,
          "name": "B1",
          "ticks": 54720,
          "time": 62.181756,
          "velocity": 0.7874015748031497
        },
        {
          "duration": 0.113636249999999,
          "durationTicks": 100,
          "midi": 42,
          "name": "F#2",
          "ticks": 54720,
          "time": 62.181756,
          "velocity": 0.7086614173228346
        },
        {
          "duration": 0.113636249999999,
          "durationTicks": 100,
          "midi": 42,
          "name": "F#2",
          "ticks": 54960,
          "time": 62.454482999999996,
          "velocity": 0.5511811023622047
        },
        {
          "duration": 0.113636249999999,
          "durationTicks": 100,
          "midi": 38,
          "name": "D2",
          "ticks": 55200,
          "time": 62.72721,
          "velocity": 0.7874015748031497
        },
        {
          "duration": 0.113636249999999,
          "durationTicks": 100,
          "midi": 42,
          "name": "F#2",
          "ticks": 55200,
          "time": 62.72721,
          "velocity": 0.7874015748031497
        },
        {
          "duration": 0.11363624999999189,
          "durationTicks": 100,
          "midi": 35,
          "name": "B1",
          "ticks": 55440,
          "time": 62.999937,
          "velocity": 0.5511811023622047
        },
        {
          "duration": 0.11363624999999189,
          "durationTicks": 100,
          "midi": 42,
          "name": "F#2",
          "ticks": 55440,
          "time": 62.999937,
          "velocity": 0.5511811023622047
        },
        {
          "duration": 0.113636249999999,
          "durationTicks": 100,
          "midi": 35,
          "name": "B1",
          "ticks": 55680,
          "time": 63.272664,
          "velocity": 0.7086614173228346
        },
        {
          "duration": 0.113636249999999,
          "durationTicks": 100,
          "midi": 42,
          "name": "F#2",
          "ticks": 55680,
          "time": 63.272664,
          "velocity": 0.7086614173228346
        },
        {
          "duration": 0.11363624999999189,
          "durationTicks": 100,
          "midi": 42,
          "name": "F#2",
          "ticks": 55920,
          "time": 63.545391,
          "velocity": 0.5511811023622047
        },
        {
          "duration": 0.113636249999999,
          "durationTicks": 100,
          "midi": 38,
          "name": "D2",
          "ticks": 56160,
          "time": 63.818118,
          "velocity": 0.7874015748031497
        },
        {
          "duration": 0.113636249999999,
          "durationTicks": 100,
          "midi": 42,
          "name": "F#2",
          "ticks": 56160,
          "time": 63.818118,
          "velocity": 0.7874015748031497
        },
        {
          "duration": 0.113636249999999,
          "durationTicks": 100,
          "midi": 35,
          "name": "B1",
          "ticks": 56400,
          "time": 64.090845,
          "velocity": 0.6299212598425197
        },
        {
          "duration": 0.113636249999999,
          "durationTicks": 100,
          "midi": 42,
          "name": "F#2",
          "ticks": 56400,
          "time": 64.090845,
          "velocity": 0.7874015748031497
        },
        {
          "duration": 0.11363624999998478,
          "durationTicks": 100,
          "midi": 35,
          "name": "B1",
          "ticks": 56640,
          "time": 64.363572,
          "velocity": 0.7874015748031497
        },
        {
          "duration": 0.11363624999998478,
          "durationTicks": 100,
          "midi": 42,
          "name": "F#2",
          "ticks": 56640,
          "time": 64.363572,
          "velocity": 0.7086614173228346
        },
        {
          "duration": 0.113636249999999,
          "durationTicks": 100,
          "midi": 35,
          "name": "B1",
          "ticks": 56880,
          "time": 64.636299,
          "velocity": 0.7086614173228346
        },
        {
          "duration": 0.113636249999999,
          "durationTicks": 100,
          "midi": 42,
          "name": "F#2",
          "ticks": 56880,
          "time": 64.636299,
          "velocity": 0.5511811023622047
        },
        {
          "duration": 0.113636249999999,
          "durationTicks": 100,
          "midi": 38,
          "name": "D2",
          "ticks": 57120,
          "time": 64.909026,
          "velocity": 0.7874015748031497
        },
        {
          "duration": 0.113636249999999,
          "durationTicks": 100,
          "midi": 42,
          "name": "F#2",
          "ticks": 57120,
          "time": 64.909026,
          "velocity": 0.7874015748031497
        },
        {
          "duration": 0.113636249999999,
          "durationTicks": 100,
          "midi": 35,
          "name": "B1",
          "ticks": 57360,
          "time": 65.181753,
          "velocity": 0.5511811023622047
        },
        {
          "duration": 0.113636249999999,
          "durationTicks": 100,
          "midi": 42,
          "name": "F#2",
          "ticks": 57360,
          "time": 65.181753,
          "velocity": 0.5511811023622047
        },
        {
          "duration": 0.113636249999999,
          "durationTicks": 100,
          "midi": 35,
          "name": "B1",
          "ticks": 57600,
          "time": 65.45448,
          "velocity": 0.7086614173228346
        },
        {
          "duration": 0.113636249999999,
          "durationTicks": 100,
          "midi": 42,
          "name": "F#2",
          "ticks": 57600,
          "time": 65.45448,
          "velocity": 0.7086614173228346
        },
        {
          "duration": 0.113636249999999,
          "durationTicks": 100,
          "midi": 42,
          "name": "F#2",
          "ticks": 57840,
          "time": 65.72720699999999,
          "velocity": 0.5511811023622047
        },
        {
          "duration": 0.113636249999999,
          "durationTicks": 100,
          "midi": 38,
          "name": "D2",
          "ticks": 58080,
          "time": 65.999934,
          "velocity": 0.7874015748031497
        },
        {
          "duration": 0.113636249999999,
          "durationTicks": 100,
          "midi": 42,
          "name": "F#2",
          "ticks": 58080,
          "time": 65.999934,
          "velocity": 0.7874015748031497
        },
        {
          "duration": 0.113636249999999,
          "durationTicks": 100,
          "midi": 35,
          "name": "B1",
          "ticks": 58320,
          "time": 66.272661,
          "velocity": 0.6299212598425197
        },
        {
          "duration": 0.113636249999999,
          "durationTicks": 100,
          "midi": 42,
          "name": "F#2",
          "ticks": 58320,
          "time": 66.272661,
          "velocity": 0.5511811023622047
        },
        {
          "duration": 0.113636249999999,
          "durationTicks": 100,
          "midi": 35,
          "name": "B1",
          "ticks": 58560,
          "time": 66.545388,
          "velocity": 0.7874015748031497
        },
        {
          "duration": 0.113636249999999,
          "durationTicks": 100,
          "midi": 42,
          "name": "F#2",
          "ticks": 58560,
          "time": 66.545388,
          "velocity": 0.7086614173228346
        },
        {
          "duration": 0.11363624999998478,
          "durationTicks": 100,
          "midi": 41,
          "name": "F2",
          "ticks": 58800,
          "time": 66.818115,
          "velocity": 0.5669291338582677
        },
        {
          "duration": 0.113636249999999,
          "durationTicks": 100,
          "midi": 38,
          "name": "D2",
          "ticks": 59040,
          "time": 67.090842,
          "velocity": 0.7874015748031497
        },
        {
          "duration": 0.113636249999999,
          "durationTicks": 100,
          "midi": 42,
          "name": "F#2",
          "ticks": 59040,
          "time": 67.090842,
          "velocity": 0.7874015748031497
        },
        {
          "duration": 0.113636249999999,
          "durationTicks": 100,
          "midi": 35,
          "name": "B1",
          "ticks": 59280,
          "time": 67.363569,
          "velocity": 0.5511811023622047
        },
        {
          "duration": 0.113636249999999,
          "durationTicks": 100,
          "midi": 42,
          "name": "F#2",
          "ticks": 59280,
          "time": 67.363569,
          "velocity": 0.5511811023622047
        },
        {
          "duration": 0.113636249999999,
          "durationTicks": 100,
          "midi": 35,
          "name": "B1",
          "ticks": 59520,
          "time": 67.636296,
          "velocity": 0.6299212598425197
        },
        {
          "duration": 0.113636249999999,
          "durationTicks": 100,
          "midi": 42,
          "name": "F#2",
          "ticks": 59520,
          "time": 67.636296,
          "velocity": 0.6299212598425197
        },
        {
          "duration": 0.113636249999999,
          "durationTicks": 100,
          "midi": 42,
          "name": "F#2",
          "ticks": 59760,
          "time": 67.909023,
          "velocity": 0.47244094488188976
        },
        {
          "duration": 0.113636249999999,
          "durationTicks": 100,
          "midi": 38,
          "name": "D2",
          "ticks": 60000,
          "time": 68.18175,
          "velocity": 0.6299212598425197
        },
        {
          "duration": 0.113636249999999,
          "durationTicks": 100,
          "midi": 42,
          "name": "F#2",
          "ticks": 60000,
          "time": 68.18175,
          "velocity": 0.7086614173228346
        },
        {
          "duration": 0.113636249999999,
          "durationTicks": 100,
          "midi": 35,
          "name": "B1",
          "ticks": 60240,
          "time": 68.454477,
          "velocity": 0.6299212598425197
        },
        {
          "duration": 0.113636249999999,
          "durationTicks": 100,
          "midi": 42,
          "name": "F#2",
          "ticks": 60240,
          "time": 68.454477,
          "velocity": 0.8661417322834646
        },
        {
          "duration": 0.113636249999999,
          "durationTicks": 100,
          "midi": 42,
          "name": "F#2",
          "ticks": 60480,
          "time": 68.727204,
          "velocity": 0.7086614173228346
        },
        {
          "duration": 0.113636249999999,
          "durationTicks": 100,
          "midi": 42,
          "name": "F#2",
          "ticks": 60720,
          "time": 68.999931,
          "velocity": 0.47244094488188976
        },
        {
          "duration": 0.113636249999999,
          "durationTicks": 100,
          "midi": 45,
          "name": "A2",
          "ticks": 60720,
          "time": 68.999931,
          "velocity": 0.6299212598425197
        },
        {
          "duration": 0.113636249999999,
          "durationTicks": 100,
          "midi": 38,
          "name": "D2",
          "ticks": 60960,
          "time": 69.27265799999999,
          "velocity": 0.7086614173228346
        },
        {
          "duration": 0.113636249999999,
          "durationTicks": 100,
          "midi": 42,
          "name": "F#2",
          "ticks": 60960,
          "time": 69.27265799999999,
          "velocity": 0.7086614173228346
        },
        {
          "duration": 0.113636249999999,
          "durationTicks": 100,
          "midi": 48,
          "name": "C3",
          "ticks": 60960,
          "time": 69.27265799999999,
          "velocity": 0.6299212598425197
        },
        {
          "duration": 0.113636249999999,
          "durationTicks": 100,
          "midi": 35,
          "name": "B1",
          "ticks": 61200,
          "time": 69.545385,
          "velocity": 0.7874015748031497
        },
        {
          "duration": 0.113636249999999,
          "durationTicks": 100,
          "midi": 42,
          "name": "F#2",
          "ticks": 61200,
          "time": 69.545385,
          "velocity": 0.47244094488188976
        },
        {
          "duration": 0.113636249999999,
          "durationTicks": 100,
          "midi": 48,
          "name": "C3",
          "ticks": 61200,
          "time": 69.545385,
          "velocity": 0.6299212598425197
        },
        {
          "duration": 0.113636249999999,
          "durationTicks": 100,
          "midi": 35,
          "name": "B1",
          "ticks": 61440,
          "time": 69.818112,
          "velocity": 0.6299212598425197
        },
        {
          "duration": 0.113636249999999,
          "durationTicks": 100,
          "midi": 38,
          "name": "D2",
          "ticks": 61440,
          "time": 69.818112,
          "velocity": 0.6299212598425197
        },
        {
          "duration": 0.113636249999999,
          "durationTicks": 100,
          "midi": 49,
          "name": "C#3",
          "ticks": 61440,
          "time": 69.818112,
          "velocity": 0.47244094488188976
        },
        {
          "duration": 0.113636249999999,
          "durationTicks": 100,
          "midi": 42,
          "name": "F#2",
          "ticks": 61680,
          "time": 70.090839,
          "velocity": 0.6299212598425197
        },
        {
          "duration": 0.113636249999999,
          "durationTicks": 100,
          "midi": 38,
          "name": "D2",
          "ticks": 61920,
          "time": 70.363566,
          "velocity": 0.6299212598425197
        },
        {
          "duration": 0.113636249999999,
          "durationTicks": 100,
          "midi": 42,
          "name": "F#2",
          "ticks": 61920,
          "time": 70.363566,
          "velocity": 0.8267716535433071
        },
        {
          "duration": 0.1136362500000132,
          "durationTicks": 100,
          "midi": 35,
          "name": "B1",
          "ticks": 62160,
          "time": 70.636293,
          "velocity": 0.5511811023622047
        },
        {
          "duration": 0.1136362500000132,
          "durationTicks": 100,
          "midi": 42,
          "name": "F#2",
          "ticks": 62160,
          "time": 70.636293,
          "velocity": 0.47244094488188976
        },
        {
          "duration": 0.1136362500000132,
          "durationTicks": 100,
          "midi": 35,
          "name": "B1",
          "ticks": 62400,
          "time": 70.90902,
          "velocity": 0.7086614173228346
        },
        {
          "duration": 0.1136362500000132,
          "durationTicks": 100,
          "midi": 42,
          "name": "F#2",
          "ticks": 62400,
          "time": 70.90902,
          "velocity": 0.6299212598425197
        },
        {
          "duration": 0.113636249999999,
          "durationTicks": 100,
          "midi": 42,
          "name": "F#2",
          "ticks": 62640,
          "time": 71.181747,
          "velocity": 0.47244094488188976
        },
        {
          "duration": 0.113636249999999,
          "durationTicks": 100,
          "midi": 38,
          "name": "D2",
          "ticks": 62880,
          "time": 71.454474,
          "velocity": 0.6299212598425197
        },
        {
          "duration": 0.113636249999999,
          "durationTicks": 100,
          "midi": 42,
          "name": "F#2",
          "ticks": 62880,
          "time": 71.454474,
          "velocity": 0.7086614173228346
        },
        {
          "duration": 0.1136362500000132,
          "durationTicks": 100,
          "midi": 42,
          "name": "F#2",
          "ticks": 63120,
          "time": 71.727201,
          "velocity": 0.47244094488188976
        },
        {
          "duration": 0.1136362500000132,
          "durationTicks": 100,
          "midi": 35,
          "name": "B1",
          "ticks": 63360,
          "time": 71.999928,
          "velocity": 0.6220472440944882
        },
        {
          "duration": 0.1136362500000132,
          "durationTicks": 100,
          "midi": 42,
          "name": "F#2",
          "ticks": 63360,
          "time": 71.999928,
          "velocity": 0.6220472440944882
        },
        {
          "duration": 0.113636249999999,
          "durationTicks": 100,
          "midi": 42,
          "name": "F#2",
          "ticks": 63600,
          "time": 72.272655,
          "velocity": 0.4645669291338583
        },
        {
          "duration": 0.113636249999999,
          "durationTicks": 100,
          "midi": 38,
          "name": "D2",
          "ticks": 63840,
          "time": 72.545382,
          "velocity": 0.6299212598425197
        },
        {
          "duration": 0.113636249999999,
          "durationTicks": 100,
          "midi": 42,
          "name": "F#2",
          "ticks": 63840,
          "time": 72.545382,
          "velocity": 0.8188976377952756
        },
        {
          "duration": 0.1136362500000132,
          "durationTicks": 100,
          "midi": 35,
          "name": "B1",
          "ticks": 64080,
          "time": 72.81810899999999,
          "velocity": 0.5433070866141733
        },
        {
          "duration": 0.1136362500000132,
          "durationTicks": 100,
          "midi": 42,
          "name": "F#2",
          "ticks": 64080,
          "time": 72.81810899999999,
          "velocity": 0.5433070866141733
        },
        {
          "duration": 0.1136362500000132,
          "durationTicks": 100,
          "midi": 35,
          "name": "B1",
          "ticks": 64320,
          "time": 73.090836,
          "velocity": 0.7007874015748031
        },
        {
          "duration": 0.1136362500000132,
          "durationTicks": 100,
          "midi": 42,
          "name": "F#2",
          "ticks": 64320,
          "time": 73.090836,
          "velocity": 0.6220472440944882
        },
        {
          "duration": 0.113636249999999,
          "durationTicks": 100,
          "midi": 42,
          "name": "F#2",
          "ticks": 64560,
          "time": 73.363563,
          "velocity": 0.4645669291338583
        },
        {
          "duration": 0.113636249999999,
          "durationTicks": 100,
          "midi": 38,
          "name": "D2",
          "ticks": 64800,
          "time": 73.63629,
          "velocity": 0.6299212598425197
        },
        {
          "duration": 0.113636249999999,
          "durationTicks": 100,
          "midi": 42,
          "name": "F#2",
          "ticks": 64800,
          "time": 73.63629,
          "velocity": 0.7007874015748031
        },
        {
          "duration": 0.113636249999999,
          "durationTicks": 100,
          "midi": 54,
          "name": "F#3",
          "ticks": 64800,
          "time": 73.63629,
          "velocity": 0.8188976377952756
        },
        {
          "duration": 0.113636249999999,
          "durationTicks": 100,
          "midi": 35,
          "name": "B1",
          "ticks": 65040,
          "time": 73.909017,
          "velocity": 0.4645669291338583
        },
        {
          "duration": 0.113636249999999,
          "durationTicks": 100,
          "midi": 42,
          "name": "F#2",
          "ticks": 65040,
          "time": 73.909017,
          "velocity": 0.4645669291338583
        },
        {
          "duration": 0.1136362500000132,
          "durationTicks": 100,
          "midi": 35,
          "name": "B1",
          "ticks": 65280,
          "time": 74.181744,
          "velocity": 0.6535433070866141
        },
        {
          "duration": 0.1136362500000132,
          "durationTicks": 100,
          "midi": 42,
          "name": "F#2",
          "ticks": 65280,
          "time": 74.181744,
          "velocity": 0.6535433070866141
        },
        {
          "duration": 0.1136362500000132,
          "durationTicks": 100,
          "midi": 42,
          "name": "F#2",
          "ticks": 65520,
          "time": 74.454471,
          "velocity": 0.49606299212598426
        },
        {
          "duration": 0.113636249999999,
          "durationTicks": 100,
          "midi": 38,
          "name": "D2",
          "ticks": 65760,
          "time": 74.727198,
          "velocity": 0.6299212598425197
        },
        {
          "duration": 0.113636249999999,
          "durationTicks": 100,
          "midi": 42,
          "name": "F#2",
          "ticks": 65760,
          "time": 74.727198,
          "velocity": 0.8503937007874016
        },
        {
          "duration": 0.113636249999999,
          "durationTicks": 100,
          "midi": 35,
          "name": "B1",
          "ticks": 66000,
          "time": 74.999925,
          "velocity": 0.5748031496062992
        },
        {
          "duration": 0.113636249999999,
          "durationTicks": 100,
          "midi": 42,
          "name": "F#2",
          "ticks": 66000,
          "time": 74.999925,
          "velocity": 0.49606299212598426
        },
        {
          "duration": 0.1136362500000132,
          "durationTicks": 100,
          "midi": 35,
          "name": "B1",
          "ticks": 66240,
          "time": 75.272652,
          "velocity": 0.7322834645669292
        },
        {
          "duration": 0.1136362500000132,
          "durationTicks": 100,
          "midi": 42,
          "name": "F#2",
          "ticks": 66240,
          "time": 75.272652,
          "velocity": 0.6535433070866141
        },
        {
          "duration": 0.1136362500000132,
          "durationTicks": 100,
          "midi": 42,
          "name": "F#2",
          "ticks": 66480,
          "time": 75.545379,
          "velocity": 0.49606299212598426
        },
        {
          "duration": 0.113636249999999,
          "durationTicks": 100,
          "midi": 38,
          "name": "D2",
          "ticks": 66720,
          "time": 75.818106,
          "velocity": 0.6299212598425197
        },
        {
          "duration": 0.113636249999999,
          "durationTicks": 100,
          "midi": 42,
          "name": "F#2",
          "ticks": 66720,
          "time": 75.818106,
          "velocity": 0.7322834645669292
        },
        {
          "duration": 0.113636249999999,
          "durationTicks": 100,
          "midi": 42,
          "name": "F#2",
          "ticks": 66960,
          "time": 76.090833,
          "velocity": 0.49606299212598426
        },
        {
          "duration": 0.1136362500000132,
          "durationTicks": 100,
          "midi": 35,
          "name": "B1",
          "ticks": 67200,
          "time": 76.36355999999999,
          "velocity": 0.6692913385826772
        },
        {
          "duration": 0.1136362500000132,
          "durationTicks": 100,
          "midi": 42,
          "name": "F#2",
          "ticks": 67200,
          "time": 76.36355999999999,
          "velocity": 0.7480314960629921
        },
        {
          "duration": 0.1136362500000132,
          "durationTicks": 100,
          "midi": 42,
          "name": "F#2",
          "ticks": 67440,
          "time": 76.636287,
          "velocity": 0.5118110236220472
        },
        {
          "duration": 0.113636249999999,
          "durationTicks": 100,
          "midi": 38,
          "name": "D2",
          "ticks": 67680,
          "time": 76.909014,
          "velocity": 0.6299212598425197
        },
        {
          "duration": 0.113636249999999,
          "durationTicks": 100,
          "midi": 42,
          "name": "F#2",
          "ticks": 67680,
          "time": 76.909014,
          "velocity": 0.8661417322834646
        },
        {
          "duration": 0.113636249999999,
          "durationTicks": 100,
          "midi": 35,
          "name": "B1",
          "ticks": 67920,
          "time": 77.181741,
          "velocity": 0.5905511811023622
        },
        {
          "duration": 0.113636249999999,
          "durationTicks": 100,
          "midi": 42,
          "name": "F#2",
          "ticks": 67920,
          "time": 77.181741,
          "velocity": 0.5118110236220472
        },
        {
          "duration": 0.113636249999999,
          "durationTicks": 100,
          "midi": 35,
          "name": "B1",
          "ticks": 68160,
          "time": 77.454468,
          "velocity": 0.7480314960629921
        },
        {
          "duration": 0.113636249999999,
          "durationTicks": 100,
          "midi": 42,
          "name": "F#2",
          "ticks": 68160,
          "time": 77.454468,
          "velocity": 0.6692913385826772
        },
        {
          "duration": 0.1136362500000132,
          "durationTicks": 100,
          "midi": 42,
          "name": "F#2",
          "ticks": 68400,
          "time": 77.727195,
          "velocity": 0.5118110236220472
        },
        {
          "duration": 0.1136362500000132,
          "durationTicks": 100,
          "midi": 38,
          "name": "D2",
          "ticks": 68640,
          "time": 77.999922,
          "velocity": 0.6299212598425197
        },
        {
          "duration": 0.1136362500000132,
          "durationTicks": 100,
          "midi": 42,
          "name": "F#2",
          "ticks": 68640,
          "time": 77.999922,
          "velocity": 0.7480314960629921
        },
        {
          "duration": 0.113636249999999,
          "durationTicks": 100,
          "midi": 42,
          "name": "F#2",
          "ticks": 68880,
          "time": 78.272649,
          "velocity": 0.5118110236220472
        },
        {
          "duration": 0.113636249999999,
          "durationTicks": 100,
          "midi": 35,
          "name": "B1",
          "ticks": 69120,
          "time": 78.545376,
          "velocity": 0.6535433070866141
        },
        {
          "duration": 0.113636249999999,
          "durationTicks": 100,
          "midi": 42,
          "name": "F#2",
          "ticks": 69120,
          "time": 78.545376,
          "velocity": 0.6535433070866141
        },
        {
          "duration": 0.1136362500000132,
          "durationTicks": 100,
          "midi": 42,
          "name": "F#2",
          "ticks": 69360,
          "time": 78.818103,
          "velocity": 0.49606299212598426
        },
        {
          "duration": 0.1136362500000132,
          "durationTicks": 100,
          "midi": 38,
          "name": "D2",
          "ticks": 69600,
          "time": 79.09083,
          "velocity": 0.6299212598425197
        },
        {
          "duration": 0.1136362500000132,
          "durationTicks": 100,
          "midi": 42,
          "name": "F#2",
          "ticks": 69600,
          "time": 79.09083,
          "velocity": 0.8503937007874016
        },
        {
          "duration": 0.113636249999999,
          "durationTicks": 100,
          "midi": 35,
          "name": "B1",
          "ticks": 69840,
          "time": 79.363557,
          "velocity": 0.5748031496062992
        },
        {
          "duration": 0.113636249999999,
          "durationTicks": 100,
          "midi": 42,
          "name": "F#2",
          "ticks": 69840,
          "time": 79.363557,
          "velocity": 0.49606299212598426
        },
        {
          "duration": 0.113636249999999,
          "durationTicks": 100,
          "midi": 35,
          "name": "B1",
          "ticks": 70080,
          "time": 79.636284,
          "velocity": 0.7322834645669292
        },
        {
          "duration": 0.113636249999999,
          "durationTicks": 100,
          "midi": 42,
          "name": "F#2",
          "ticks": 70080,
          "time": 79.636284,
          "velocity": 0.6535433070866141
        },
        {
          "duration": 0.1136362500000132,
          "durationTicks": 100,
          "midi": 42,
          "name": "F#2",
          "ticks": 70320,
          "time": 79.90901099999999,
          "velocity": 0.49606299212598426
        },
        {
          "duration": 0.1136362500000132,
          "durationTicks": 100,
          "midi": 38,
          "name": "D2",
          "ticks": 70560,
          "time": 80.181738,
          "velocity": 0.6299212598425197
        },
        {
          "duration": 0.1136362500000132,
          "durationTicks": 100,
          "midi": 42,
          "name": "F#2",
          "ticks": 70560,
          "time": 80.181738,
          "velocity": 0.7322834645669292
        },
        {
          "duration": 0.113636249999999,
          "durationTicks": 100,
          "midi": 42,
          "name": "F#2",
          "ticks": 70800,
          "time": 80.454465,
          "velocity": 0.49606299212598426
        },
        {
          "duration": 0.113636249999999,
          "durationTicks": 100,
          "midi": 35,
          "name": "B1",
          "ticks": 71040,
          "time": 80.727192,
          "velocity": 0.6220472440944882
        },
        {
          "duration": 0.113636249999999,
          "durationTicks": 100,
          "midi": 42,
          "name": "F#2",
          "ticks": 71040,
          "time": 80.727192,
          "velocity": 0.6220472440944882
        },
        {
          "duration": 0.113636249999999,
          "durationTicks": 100,
          "midi": 42,
          "name": "F#2",
          "ticks": 71280,
          "time": 80.999919,
          "velocity": 0.4645669291338583
        },
        {
          "duration": 0.1136362500000132,
          "durationTicks": 100,
          "midi": 38,
          "name": "D2",
          "ticks": 71520,
          "time": 81.272646,
          "velocity": 0.6299212598425197
        },
        {
          "duration": 0.1136362500000132,
          "durationTicks": 100,
          "midi": 42,
          "name": "F#2",
          "ticks": 71520,
          "time": 81.272646,
          "velocity": 0.8188976377952756
        },
        {
          "duration": 0.1136362500000132,
          "durationTicks": 100,
          "midi": 35,
          "name": "B1",
          "ticks": 71760,
          "time": 81.545373,
          "velocity": 0.5433070866141733
        },
        {
          "duration": 0.1136362500000132,
          "durationTicks": 100,
          "midi": 42,
          "name": "F#2",
          "ticks": 71760,
          "time": 81.545373,
          "velocity": 0.5433070866141733
        },
        {
          "duration": 0.113636249999999,
          "durationTicks": 100,
          "midi": 35,
          "name": "B1",
          "ticks": 72000,
          "time": 81.8181,
          "velocity": 0.7007874015748031
        },
        {
          "duration": 0.113636249999999,
          "durationTicks": 100,
          "midi": 42,
          "name": "F#2",
          "ticks": 72000,
          "time": 81.8181,
          "velocity": 0.6220472440944882
        },
        {
          "duration": 0.113636249999999,
          "durationTicks": 100,
          "midi": 42,
          "name": "F#2",
          "ticks": 72240,
          "time": 82.090827,
          "velocity": 0.4645669291338583
        },
        {
          "duration": 0.1136362500000132,
          "durationTicks": 100,
          "midi": 38,
          "name": "D2",
          "ticks": 72480,
          "time": 82.363554,
          "velocity": 0.6299212598425197
        },
        {
          "duration": 0.1136362500000132,
          "durationTicks": 100,
          "midi": 42,
          "name": "F#2",
          "ticks": 72480,
          "time": 82.363554,
          "velocity": 0.7007874015748031
        },
        {
          "duration": 0.1136362500000132,
          "durationTicks": 100,
          "midi": 54,
          "name": "F#3",
          "ticks": 72480,
          "time": 82.363554,
          "velocity": 0.8188976377952756
        },
        {
          "duration": 0.1136362500000132,
          "durationTicks": 100,
          "midi": 35,
          "name": "B1",
          "ticks": 72720,
          "time": 82.636281,
          "velocity": 0.4645669291338583
        },
        {
          "duration": 0.1136362500000132,
          "durationTicks": 100,
          "midi": 42,
          "name": "F#2",
          "ticks": 72720,
          "time": 82.636281,
          "velocity": 0.4645669291338583
        },
        {
          "duration": 0.113636249999999,
          "durationTicks": 100,
          "midi": 35,
          "name": "B1",
          "ticks": 72960,
          "time": 82.909008,
          "velocity": 0.6535433070866141
        },
        {
          "duration": 0.113636249999999,
          "durationTicks": 100,
          "midi": 42,
          "name": "F#2",
          "ticks": 72960,
          "time": 82.909008,
          "velocity": 0.6535433070866141
        },
        {
          "duration": 0.113636249999999,
          "durationTicks": 100,
          "midi": 42,
          "name": "F#2",
          "ticks": 73200,
          "time": 83.181735,
          "velocity": 0.49606299212598426
        },
        {
          "duration": 0.1136362500000132,
          "durationTicks": 100,
          "midi": 38,
          "name": "D2",
          "ticks": 73440,
          "time": 83.45446199999999,
          "velocity": 0.6299212598425197
        },
        {
          "duration": 0.1136362500000132,
          "durationTicks": 100,
          "midi": 42,
          "name": "F#2",
          "ticks": 73440,
          "time": 83.45446199999999,
          "velocity": 0.8503937007874016
        },
        {
          "duration": 0.1136362500000132,
          "durationTicks": 100,
          "midi": 35,
          "name": "B1",
          "ticks": 73680,
          "time": 83.727189,
          "velocity": 0.5748031496062992
        },
        {
          "duration": 0.1136362500000132,
          "durationTicks": 100,
          "midi": 42,
          "name": "F#2",
          "ticks": 73680,
          "time": 83.727189,
          "velocity": 0.49606299212598426
        },
        {
          "duration": 0.113636249999999,
          "durationTicks": 100,
          "midi": 35,
          "name": "B1",
          "ticks": 73920,
          "time": 83.999916,
          "velocity": 0.7322834645669292
        },
        {
          "duration": 0.113636249999999,
          "durationTicks": 100,
          "midi": 42,
          "name": "F#2",
          "ticks": 73920,
          "time": 83.999916,
          "velocity": 0.6535433070866141
        },
        {
          "duration": 0.113636249999999,
          "durationTicks": 100,
          "midi": 42,
          "name": "F#2",
          "ticks": 74160,
          "time": 84.272643,
          "velocity": 0.49606299212598426
        },
        {
          "duration": 0.113636249999999,
          "durationTicks": 100,
          "midi": 38,
          "name": "D2",
          "ticks": 74400,
          "time": 84.54537,
          "velocity": 0.6299212598425197
        },
        {
          "duration": 0.113636249999999,
          "durationTicks": 100,
          "midi": 42,
          "name": "F#2",
          "ticks": 74400,
          "time": 84.54537,
          "velocity": 0.7322834645669292
        },
        {
          "duration": 0.1136362500000132,
          "durationTicks": 100,
          "midi": 42,
          "name": "F#2",
          "ticks": 74640,
          "time": 84.818097,
          "velocity": 0.49606299212598426
        },
        {
          "duration": 0.1136362500000132,
          "durationTicks": 100,
          "midi": 35,
          "name": "B1",
          "ticks": 74880,
          "time": 85.090824,
          "velocity": 0.7086614173228346
        },
        {
          "duration": 0.1136362500000132,
          "durationTicks": 100,
          "midi": 42,
          "name": "F#2",
          "ticks": 74880,
          "time": 85.090824,
          "velocity": 0.7086614173228346
        },
        {
          "duration": 0.113636249999999,
          "durationTicks": 100,
          "midi": 42,
          "name": "F#2",
          "ticks": 75120,
          "time": 85.363551,
          "velocity": 0.5511811023622047
        },
        {
          "duration": 0.113636249999999,
          "durationTicks": 100,
          "midi": 38,
          "name": "D2",
          "ticks": 75360,
          "time": 85.636278,
          "velocity": 0.5511811023622047
        },
        {
          "duration": 0.113636249999999,
          "durationTicks": 100,
          "midi": 42,
          "name": "F#2",
          "ticks": 75360,
          "time": 85.636278,
          "velocity": 0.905511811023622
        },
        {
          "duration": 0.1136362500000132,
          "durationTicks": 100,
          "midi": 35,
          "name": "B1",
          "ticks": 75600,
          "time": 85.909005,
          "velocity": 0.6299212598425197
        },
        {
          "duration": 0.1136362500000132,
          "durationTicks": 100,
          "midi": 42,
          "name": "F#2",
          "ticks": 75600,
          "time": 85.909005,
          "velocity": 0.5511811023622047
        },
        {
          "duration": 0.1136362500000132,
          "durationTicks": 100,
          "midi": 35,
          "name": "B1",
          "ticks": 75840,
          "time": 86.181732,
          "velocity": 0.7086614173228346
        },
        {
          "duration": 0.1136362500000132,
          "durationTicks": 100,
          "midi": 38,
          "name": "D2",
          "ticks": 75840,
          "time": 86.181732,
          "velocity": 0.3937007874015748
        },
        {
          "duration": 0.1136362500000132,
          "durationTicks": 100,
          "midi": 42,
          "name": "F#2",
          "ticks": 75840,
          "time": 86.181732,
          "velocity": 0.7086614173228346
        },
        {
          "duration": 0.113636249999999,
          "durationTicks": 100,
          "midi": 38,
          "name": "D2",
          "ticks": 75960,
          "time": 86.3180955,
          "velocity": 0.31496062992125984
        },
        {
          "duration": 0.113636249999999,
          "durationTicks": 100,
          "midi": 42,
          "name": "F#2",
          "ticks": 76080,
          "time": 86.454459,
          "velocity": 0.47244094488188976
        },
        {
          "duration": 0.113636249999999,
          "durationTicks": 100,
          "midi": 38,
          "name": "D2",
          "ticks": 76200,
          "time": 86.5908225,
          "velocity": 0.47244094488188976
        },
        {
          "duration": 0.113636249999999,
          "durationTicks": 100,
          "midi": 42,
          "name": "F#2",
          "ticks": 76320,
          "time": 86.727186,
          "velocity": 0.6299212598425197
        },
        {
          "duration": 0.113636249999999,
          "durationTicks": 100,
          "midi": 45,
          "name": "A2",
          "ticks": 76320,
          "time": 86.727186,
          "velocity": 0.47244094488188976
        },
        {
          "duration": 0.113636249999999,
          "durationTicks": 100,
          "midi": 45,
          "name": "A2",
          "ticks": 76440,
          "time": 86.8635495,
          "velocity": 0.3937007874015748
        },
        {
          "duration": 0.1136362500000132,
          "durationTicks": 100,
          "midi": 42,
          "name": "F#2",
          "ticks": 76560,
          "time": 86.99991299999999,
          "velocity": 0.47244094488188976
        },
        {
          "duration": 0.1136362500000132,
          "durationTicks": 100,
          "midi": 45,
          "name": "A2",
          "ticks": 76560,
          "time": 86.99991299999999,
          "velocity": 0.6299212598425197
        },
        {
          "duration": 0.1136362500000132,
          "durationTicks": 100,
          "midi": 45,
          "name": "A2",
          "ticks": 76680,
          "time": 87.1362765,
          "velocity": 0.31496062992125984
        },
        {
          "duration": 0.1136362500000132,
          "durationTicks": 100,
          "midi": 38,
          "name": "D2",
          "ticks": 76800,
          "time": 87.27264,
          "velocity": 0.44881889763779526
        },
        {
          "duration": 0.1136362500000132,
          "durationTicks": 100,
          "midi": 49,
          "name": "C#3",
          "ticks": 76800,
          "time": 87.27264,
          "velocity": 0.4330708661417323
        },
        {
          "duration": 0.113636249999999,
          "durationTicks": 100,
          "midi": 42,
          "name": "F#2",
          "ticks": 77040,
          "time": 87.545367,
          "velocity": 0.6299212598425197
        },
        {
          "duration": 0.113636249999999,
          "durationTicks": 100,
          "midi": 38,
          "name": "D2",
          "ticks": 77280,
          "time": 87.818094,
          "velocity": 0.6299212598425197
        },
        {
          "duration": 0.113636249999999,
          "durationTicks": 100,
          "midi": 42,
          "name": "F#2",
          "ticks": 77280,
          "time": 87.818094,
          "velocity": 0.8267716535433071
        },
        {
          "duration": 0.113636249999999,
          "durationTicks": 100,
          "midi": 35,
          "name": "B1",
          "ticks": 77520,
          "time": 88.090821,
          "velocity": 0.5511811023622047
        },
        {
          "duration": 0.113636249999999,
          "durationTicks": 100,
          "midi": 42,
          "name": "F#2",
          "ticks": 77520,
          "time": 88.090821,
          "velocity": 0.47244094488188976
        },
        {
          "duration": 0.1136362500000132,
          "durationTicks": 100,
          "midi": 35,
          "name": "B1",
          "ticks": 77760,
          "time": 88.363548,
          "velocity": 0.7086614173228346
        },
        {
          "duration": 0.1136362500000132,
          "durationTicks": 100,
          "midi": 42,
          "name": "F#2",
          "ticks": 77760,
          "time": 88.363548,
          "velocity": 0.6299212598425197
        },
        {
          "duration": 0.1136362500000132,
          "durationTicks": 100,
          "midi": 42,
          "name": "F#2",
          "ticks": 78000,
          "time": 88.636275,
          "velocity": 0.47244094488188976
        },
        {
          "duration": 0.113636249999999,
          "durationTicks": 100,
          "midi": 38,
          "name": "D2",
          "ticks": 78240,
          "time": 88.909002,
          "velocity": 0.6299212598425197
        },
        {
          "duration": 0.113636249999999,
          "durationTicks": 100,
          "midi": 42,
          "name": "F#2",
          "ticks": 78240,
          "time": 88.909002,
          "velocity": 0.7086614173228346
        },
        {
          "duration": 0.113636249999999,
          "durationTicks": 100,
          "midi": 42,
          "name": "F#2",
          "ticks": 78480,
          "time": 89.181729,
          "velocity": 0.47244094488188976
        },
        {
          "duration": 0.1136362500000132,
          "durationTicks": 100,
          "midi": 35,
          "name": "B1",
          "ticks": 78720,
          "time": 89.454456,
          "velocity": 0.6692913385826772
        },
        {
          "duration": 0.1136362500000132,
          "durationTicks": 100,
          "midi": 42,
          "name": "F#2",
          "ticks": 78720,
          "time": 89.454456,
          "velocity": 0.7480314960629921
        },
        {
          "duration": 0.1136362500000132,
          "durationTicks": 100,
          "midi": 42,
          "name": "F#2",
          "ticks": 78960,
          "time": 89.727183,
          "velocity": 0.5118110236220472
        },
        {
          "duration": 0.113636249999999,
          "durationTicks": 100,
          "midi": 38,
          "name": "D2",
          "ticks": 79200,
          "time": 89.99991,
          "velocity": 0.6299212598425197
        },
        {
          "duration": 0.113636249999999,
          "durationTicks": 100,
          "midi": 42,
          "name": "F#2",
          "ticks": 79200,
          "time": 89.99991,
          "velocity": 0.8661417322834646
        },
        {
          "duration": 0.113636249999999,
          "durationTicks": 100,
          "midi": 35,
          "name": "B1",
          "ticks": 79440,
          "time": 90.272637,
          "velocity": 0.5905511811023622
        },
        {
          "duration": 0.113636249999999,
          "durationTicks": 100,
          "midi": 42,
          "name": "F#2",
          "ticks": 79440,
          "time": 90.272637,
          "velocity": 0.8661417322834646
        },
        {
          "duration": 0.1136362500000132,
          "durationTicks": 100,
          "midi": 35,
          "name": "B1",
          "ticks": 79680,
          "time": 90.54536399999999,
          "velocity": 0.7480314960629921
        },
        {
          "duration": 0.1136362500000132,
          "durationTicks": 100,
          "midi": 42,
          "name": "F#2",
          "ticks": 79680,
          "time": 90.54536399999999,
          "velocity": 0.6692913385826772
        },
        {
          "duration": 0.1136362500000132,
          "durationTicks": 100,
          "midi": 42,
          "name": "F#2",
          "ticks": 79920,
          "time": 90.818091,
          "velocity": 0.5118110236220472
        },
        {
          "duration": 0.113636249999999,
          "durationTicks": 100,
          "midi": 38,
          "name": "D2",
          "ticks": 80160,
          "time": 91.090818,
          "velocity": 0.6299212598425197
        },
        {
          "duration": 0.113636249999999,
          "durationTicks": 100,
          "midi": 42,
          "name": "F#2",
          "ticks": 80160,
          "time": 91.090818,
          "velocity": 0.7480314960629921
        },
        {
          "duration": 0.113636249999999,
          "durationTicks": 100,
          "midi": 42,
          "name": "F#2",
          "ticks": 80400,
          "time": 91.363545,
          "velocity": 0.5118110236220472
        },
        {
          "duration": 0.113636249999999,
          "durationTicks": 100,
          "midi": 35,
          "name": "B1",
          "ticks": 80640,
          "time": 91.636272,
          "velocity": 0.6299212598425197
        },
        {
          "duration": 0.113636249999999,
          "durationTicks": 100,
          "midi": 42,
          "name": "F#2",
          "ticks": 80640,
          "time": 91.636272,
          "velocity": 0.6456692913385826
        },
        {
          "duration": 0.1136362500000132,
          "durationTicks": 100,
          "midi": 42,
          "name": "F#2",
          "ticks": 80880,
          "time": 91.908999,
          "velocity": 0.4881889763779528
        },
        {
          "duration": 0.1136362500000132,
          "durationTicks": 100,
          "midi": 38,
          "name": "D2",
          "ticks": 81120,
          "time": 92.181726,
          "velocity": 0.6299212598425197
        },
        {
          "duration": 0.1136362500000132,
          "durationTicks": 100,
          "midi": 42,
          "name": "F#2",
          "ticks": 81120,
          "time": 92.181726,
          "velocity": 0.84251968503937
        },
        {
          "duration": 0.113636249999999,
          "durationTicks": 100,
          "midi": 35,
          "name": "B1",
          "ticks": 81360,
          "time": 92.454453,
          "velocity": 0.5669291338582677
        },
        {
          "duration": 0.113636249999999,
          "durationTicks": 100,
          "midi": 42,
          "name": "F#2",
          "ticks": 81360,
          "time": 92.454453,
          "velocity": 0.8661417322834646
        },
        {
          "duration": 0.113636249999999,
          "durationTicks": 100,
          "midi": 35,
          "name": "B1",
          "ticks": 81600,
          "time": 92.72718,
          "velocity": 0.7244094488188977
        },
        {
          "duration": 0.113636249999999,
          "durationTicks": 100,
          "midi": 42,
          "name": "F#2",
          "ticks": 81600,
          "time": 92.72718,
          "velocity": 0.6456692913385826
        },
        {
          "duration": 0.1136362500000132,
          "durationTicks": 100,
          "midi": 42,
          "name": "F#2",
          "ticks": 81840,
          "time": 92.999907,
          "velocity": 0.4881889763779528
        },
        {
          "duration": 0.1136362500000132,
          "durationTicks": 100,
          "midi": 38,
          "name": "D2",
          "ticks": 82080,
          "time": 93.272634,
          "velocity": 0.6299212598425197
        },
        {
          "duration": 0.1136362500000132,
          "durationTicks": 100,
          "midi": 42,
          "name": "F#2",
          "ticks": 82080,
          "time": 93.272634,
          "velocity": 0.7244094488188977
        },
        {
          "duration": 0.113636249999999,
          "durationTicks": 100,
          "midi": 42,
          "name": "F#2",
          "ticks": 82320,
          "time": 93.545361,
          "velocity": 0.4881889763779528
        },
        {
          "duration": 0.113636249999999,
          "durationTicks": 100,
          "midi": 35,
          "name": "B1",
          "ticks": 82560,
          "time": 93.818088,
          "velocity": 0.6692913385826772
        },
        {
          "duration": 0.113636249999999,
          "durationTicks": 100,
          "midi": 42,
          "name": "F#2",
          "ticks": 82560,
          "time": 93.818088,
          "velocity": 0.7480314960629921
        },
        {
          "duration": 0.1136362500000132,
          "durationTicks": 100,
          "midi": 42,
          "name": "F#2",
          "ticks": 82800,
          "time": 94.09081499999999,
          "velocity": 0.5118110236220472
        },
        {
          "duration": 0.1136362500000132,
          "durationTicks": 100,
          "midi": 38,
          "name": "D2",
          "ticks": 83040,
          "time": 94.363542,
          "velocity": 0.6299212598425197
        },
        {
          "duration": 0.1136362500000132,
          "durationTicks": 100,
          "midi": 42,
          "name": "F#2",
          "ticks": 83040,
          "time": 94.363542,
          "velocity": 0.8661417322834646
        },
        {
          "duration": 0.113636249999999,
          "durationTicks": 100,
          "midi": 35,
          "name": "B1",
          "ticks": 83280,
          "time": 94.636269,
          "velocity": 0.5905511811023622
        },
        {
          "duration": 0.113636249999999,
          "durationTicks": 100,
          "midi": 42,
          "name": "F#2",
          "ticks": 83280,
          "time": 94.636269,
          "velocity": 0.5118110236220472
        },
        {
          "duration": 0.113636249999999,
          "durationTicks": 100,
          "midi": 35,
          "name": "B1",
          "ticks": 83520,
          "time": 94.908996,
          "velocity": 0.7480314960629921
        },
        {
          "duration": 0.113636249999999,
          "durationTicks": 100,
          "midi": 42,
          "name": "F#2",
          "ticks": 83520,
          "time": 94.908996,
          "velocity": 0.6692913385826772
        },
        {
          "duration": 0.113636249999999,
          "durationTicks": 100,
          "midi": 42,
          "name": "F#2",
          "ticks": 83760,
          "time": 95.181723,
          "velocity": 0.5118110236220472
        },
        {
          "duration": 0.1136362500000132,
          "durationTicks": 100,
          "midi": 38,
          "name": "D2",
          "ticks": 84000,
          "time": 95.45445,
          "velocity": 0.6299212598425197
        },
        {
          "duration": 0.1136362500000132,
          "durationTicks": 100,
          "midi": 42,
          "name": "F#2",
          "ticks": 84000,
          "time": 95.45445,
          "velocity": 0.7480314960629921
        },
        {
          "duration": 0.1136362500000132,
          "durationTicks": 100,
          "midi": 42,
          "name": "F#2",
          "ticks": 84240,
          "time": 95.727177,
          "velocity": 0.5118110236220472
        },
        {
          "duration": 0.113636249999999,
          "durationTicks": 100,
          "midi": 35,
          "name": "B1",
          "ticks": 84480,
          "time": 95.999904,
          "velocity": 0.7086614173228346
        },
        {
          "duration": 0.113636249999999,
          "durationTicks": 100,
          "midi": 42,
          "name": "F#2",
          "ticks": 84480,
          "time": 95.999904,
          "velocity": 0.7086614173228346
        },
        {
          "duration": 0.113636249999999,
          "durationTicks": 100,
          "midi": 42,
          "name": "F#2",
          "ticks": 84720,
          "time": 96.272631,
          "velocity": 0.5511811023622047
        },
        {
          "duration": 0.1136362500000132,
          "durationTicks": 100,
          "midi": 38,
          "name": "D2",
          "ticks": 84960,
          "time": 96.545358,
          "velocity": 0.5511811023622047
        },
        {
          "duration": 0.1136362500000132,
          "durationTicks": 100,
          "midi": 42,
          "name": "F#2",
          "ticks": 84960,
          "time": 96.545358,
          "velocity": 0.905511811023622
        },
        {
          "duration": 0.1136362500000132,
          "durationTicks": 100,
          "midi": 35,
          "name": "B1",
          "ticks": 85200,
          "time": 96.818085,
          "velocity": 0.6299212598425197
        },
        {
          "duration": 0.1136362500000132,
          "durationTicks": 100,
          "midi": 42,
          "name": "F#2",
          "ticks": 85200,
          "time": 96.818085,
          "velocity": 0.5511811023622047
        },
        {
          "duration": 0.113636249999999,
          "durationTicks": 100,
          "midi": 35,
          "name": "B1",
          "ticks": 85440,
          "time": 97.090812,
          "velocity": 0.7086614173228346
        },
        {
          "duration": 0.113636249999999,
          "durationTicks": 100,
          "midi": 38,
          "name": "D2",
          "ticks": 85440,
          "time": 97.090812,
          "velocity": 0.3937007874015748
        },
        {
          "duration": 0.113636249999999,
          "durationTicks": 100,
          "midi": 42,
          "name": "F#2",
          "ticks": 85440,
          "time": 97.090812,
          "velocity": 0.7086614173228346
        },
        {
          "duration": 0.113636249999999,
          "durationTicks": 100,
          "midi": 38,
          "name": "D2",
          "ticks": 85560,
          "time": 97.2271755,
          "velocity": 0.31496062992125984
        },
        {
          "duration": 0.113636249999999,
          "durationTicks": 100,
          "midi": 42,
          "name": "F#2",
          "ticks": 85680,
          "time": 97.363539,
          "velocity": 0.47244094488188976
        },
        {
          "duration": 0.113636249999999,
          "durationTicks": 100,
          "midi": 38,
          "name": "D2",
          "ticks": 85800,
          "time": 97.4999025,
          "velocity": 0.47244094488188976
        },
        {
          "duration": 0.1136362500000132,
          "durationTicks": 100,
          "midi": 42,
          "name": "F#2",
          "ticks": 85920,
          "time": 97.63626599999999,
          "velocity": 0.6299212598425197
        },
        {
          "duration": 0.1136362500000132,
          "durationTicks": 100,
          "midi": 45,
          "name": "A2",
          "ticks": 85920,
          "time": 97.63626599999999,
          "velocity": 0.47244094488188976
        },
        {
          "duration": 0.1136362500000132,
          "durationTicks": 100,
          "midi": 45,
          "name": "A2",
          "ticks": 86040,
          "time": 97.7726295,
          "velocity": 0.3937007874015748
        },
        {
          "duration": 0.1136362500000132,
          "durationTicks": 100,
          "midi": 42,
          "name": "F#2",
          "ticks": 86160,
          "time": 97.908993,
          "velocity": 0.47244094488188976
        },
        {
          "duration": 0.1136362500000132,
          "durationTicks": 100,
          "midi": 45,
          "name": "A2",
          "ticks": 86160,
          "time": 97.908993,
          "velocity": 0.6299212598425197
        },
        {
          "duration": 0.1136362500000132,
          "durationTicks": 100,
          "midi": 45,
          "name": "A2",
          "ticks": 86280,
          "time": 98.0453565,
          "velocity": 0.31496062992125984
        },
        {
          "duration": 0.113636249999999,
          "durationTicks": 100,
          "midi": 35,
          "name": "B1",
          "ticks": 86400,
          "time": 98.18172,
          "velocity": 0.7086614173228346
        },
        {
          "duration": 0.113636249999999,
          "durationTicks": 100,
          "midi": 38,
          "name": "D2",
          "ticks": 86400,
          "time": 98.18172,
          "velocity": 0.7086614173228346
        },
        {
          "duration": 0.113636249999999,
          "durationTicks": 100,
          "midi": 49,
          "name": "C#3",
          "ticks": 86400,
          "time": 98.18172,
          "velocity": 0.6299212598425197
        },
        {
          "duration": 0.113636249999999,
          "durationTicks": 100,
          "midi": 42,
          "name": "F#2",
          "ticks": 86640,
          "time": 98.454447,
          "velocity": 0.5511811023622047
        },
        {
          "duration": 0.113636249999999,
          "durationTicks": 100,
          "midi": 38,
          "name": "D2",
          "ticks": 86880,
          "time": 98.727174,
          "velocity": 0.7874015748031497
        },
        {
          "duration": 0.113636249999999,
          "durationTicks": 100,
          "midi": 42,
          "name": "F#2",
          "ticks": 86880,
          "time": 98.727174,
          "velocity": 0.7874015748031497
        },
        {
          "duration": 0.1136362500000132,
          "durationTicks": 100,
          "midi": 35,
          "name": "B1",
          "ticks": 87120,
          "time": 98.999901,
          "velocity": 0.6299212598425197
        },
        {
          "duration": 0.1136362500000132,
          "durationTicks": 100,
          "midi": 42,
          "name": "F#2",
          "ticks": 87120,
          "time": 98.999901,
          "velocity": 0.5511811023622047
        },
        {
          "duration": 0.1136362500000132,
          "durationTicks": 100,
          "midi": 35,
          "name": "B1",
          "ticks": 87360,
          "time": 99.272628,
          "velocity": 0.7874015748031497
        },
        {
          "duration": 0.1136362500000132,
          "durationTicks": 100,
          "midi": 42,
          "name": "F#2",
          "ticks": 87360,
          "time": 99.272628,
          "velocity": 0.7086614173228346
        },
        {
          "duration": 0.113636249999999,
          "durationTicks": 100,
          "midi": 42,
          "name": "F#2",
          "ticks": 87600,
          "time": 99.545355,
          "velocity": 0.5511811023622047
        },
        {
          "duration": 0.113636249999999,
          "durationTicks": 100,
          "midi": 38,
          "name": "D2",
          "ticks": 87840,
          "time": 99.818082,
          "velocity": 0.7874015748031497
        },
        {
          "duration": 0.113636249999999,
          "durationTicks": 100,
          "midi": 42,
          "name": "F#2",
          "ticks": 87840,
          "time": 99.818082,
          "velocity": 0.7874015748031497
        },
        {
          "duration": 0.1136362500000132,
          "durationTicks": 100,
          "midi": 35,
          "name": "B1",
          "ticks": 88080,
          "time": 100.090809,
          "velocity": 0.5511811023622047
        },
        {
          "duration": 0.1136362500000132,
          "durationTicks": 100,
          "midi": 42,
          "name": "F#2",
          "ticks": 88080,
          "time": 100.090809,
          "velocity": 0.5511811023622047
        },
        {
          "duration": 0.1136362500000132,
          "durationTicks": 100,
          "midi": 35,
          "name": "B1",
          "ticks": 88320,
          "time": 100.363536,
          "velocity": 0.7086614173228346
        },
        {
          "duration": 0.1136362500000132,
          "durationTicks": 100,
          "midi": 42,
          "name": "F#2",
          "ticks": 88320,
          "time": 100.363536,
          "velocity": 0.7086614173228346
        },
        {
          "duration": 0.113636249999999,
          "durationTicks": 100,
          "midi": 42,
          "name": "F#2",
          "ticks": 88560,
          "time": 100.636263,
          "velocity": 0.5511811023622047
        },
        {
          "duration": 0.113636249999999,
          "durationTicks": 100,
          "midi": 38,
          "name": "D2",
          "ticks": 88800,
          "time": 100.90899,
          "velocity": 0.7874015748031497
        },
        {
          "duration": 0.113636249999999,
          "durationTicks": 100,
          "midi": 42,
          "name": "F#2",
          "ticks": 88800,
          "time": 100.90899,
          "velocity": 0.7874015748031497
        },
        {
          "duration": 0.1136362500000132,
          "durationTicks": 100,
          "midi": 35,
          "name": "B1",
          "ticks": 89040,
          "time": 101.18171699999999,
          "velocity": 0.6299212598425197
        },
        {
          "duration": 0.1136362500000132,
          "durationTicks": 100,
          "midi": 42,
          "name": "F#2",
          "ticks": 89040,
          "time": 101.18171699999999,
          "velocity": 0.7874015748031497
        },
        {
          "duration": 0.1136362500000132,
          "durationTicks": 100,
          "midi": 35,
          "name": "B1",
          "ticks": 89280,
          "time": 101.454444,
          "velocity": 0.7874015748031497
        },
        {
          "duration": 0.1136362500000132,
          "durationTicks": 100,
          "midi": 42,
          "name": "F#2",
          "ticks": 89280,
          "time": 101.454444,
          "velocity": 0.7086614173228346
        },
        {
          "duration": 0.113636249999999,
          "durationTicks": 100,
          "midi": 35,
          "name": "B1",
          "ticks": 89520,
          "time": 101.727171,
          "velocity": 0.7086614173228346
        },
        {
          "duration": 0.113636249999999,
          "durationTicks": 100,
          "midi": 42,
          "name": "F#2",
          "ticks": 89520,
          "time": 101.727171,
          "velocity": 0.5511811023622047
        },
        {
          "duration": 0.113636249999999,
          "durationTicks": 100,
          "midi": 38,
          "name": "D2",
          "ticks": 89760,
          "time": 101.999898,
          "velocity": 0.7874015748031497
        },
        {
          "duration": 0.113636249999999,
          "durationTicks": 100,
          "midi": 42,
          "name": "F#2",
          "ticks": 89760,
          "time": 101.999898,
          "velocity": 0.7874015748031497
        },
        {
          "duration": 0.113636249999999,
          "durationTicks": 100,
          "midi": 35,
          "name": "B1",
          "ticks": 90000,
          "time": 102.272625,
          "velocity": 0.5511811023622047
        },
        {
          "duration": 0.113636249999999,
          "durationTicks": 100,
          "midi": 42,
          "name": "F#2",
          "ticks": 90000,
          "time": 102.272625,
          "velocity": 0.5511811023622047
        },
        {
          "duration": 0.1136362500000132,
          "durationTicks": 100,
          "midi": 35,
          "name": "B1",
          "ticks": 90240,
          "time": 102.545352,
          "velocity": 0.7086614173228346
        },
        {
          "duration": 0.1136362500000132,
          "durationTicks": 100,
          "midi": 42,
          "name": "F#2",
          "ticks": 90240,
          "time": 102.545352,
          "velocity": 0.7086614173228346
        },
        {
          "duration": 0.1136362500000132,
          "durationTicks": 100,
          "midi": 42,
          "name": "F#2",
          "ticks": 90480,
          "time": 102.818079,
          "velocity": 0.5511811023622047
        },
        {
          "duration": 0.113636249999999,
          "durationTicks": 100,
          "midi": 38,
          "name": "D2",
          "ticks": 90720,
          "time": 103.090806,
          "velocity": 0.7874015748031497
        },
        {
          "duration": 0.113636249999999,
          "durationTicks": 100,
          "midi": 42,
          "name": "F#2",
          "ticks": 90720,
          "time": 103.090806,
          "velocity": 0.7874015748031497
        },
        {
          "duration": 0.113636249999999,
          "durationTicks": 100,
          "midi": 35,
          "name": "B1",
          "ticks": 90960,
          "time": 103.363533,
          "velocity": 0.6299212598425197
        },
        {
          "duration": 0.113636249999999,
          "durationTicks": 100,
          "midi": 42,
          "name": "F#2",
          "ticks": 90960,
          "time": 103.363533,
          "velocity": 0.5511811023622047
        },
        {
          "duration": 0.1136362500000132,
          "durationTicks": 100,
          "midi": 35,
          "name": "B1",
          "ticks": 91200,
          "time": 103.63626,
          "velocity": 0.7874015748031497
        },
        {
          "duration": 0.1136362500000132,
          "durationTicks": 100,
          "midi": 42,
          "name": "F#2",
          "ticks": 91200,
          "time": 103.63626,
          "velocity": 0.7086614173228346
        },
        {
          "duration": 0.1136362500000132,
          "durationTicks": 100,
          "midi": 42,
          "name": "F#2",
          "ticks": 91440,
          "time": 103.908987,
          "velocity": 0.5511811023622047
        },
        {
          "duration": 0.113636249999999,
          "durationTicks": 100,
          "midi": 38,
          "name": "D2",
          "ticks": 91680,
          "time": 104.181714,
          "velocity": 0.7874015748031497
        },
        {
          "duration": 0.113636249999999,
          "durationTicks": 100,
          "midi": 42,
          "name": "F#2",
          "ticks": 91680,
          "time": 104.181714,
          "velocity": 0.7874015748031497
        },
        {
          "duration": 0.113636249999999,
          "durationTicks": 100,
          "midi": 35,
          "name": "B1",
          "ticks": 91920,
          "time": 104.454441,
          "velocity": 0.5511811023622047
        },
        {
          "duration": 0.113636249999999,
          "durationTicks": 100,
          "midi": 42,
          "name": "F#2",
          "ticks": 91920,
          "time": 104.454441,
          "velocity": 0.5511811023622047
        },
        {
          "duration": 0.113636249999999,
          "durationTicks": 100,
          "midi": 35,
          "name": "B1",
          "ticks": 92160,
          "time": 104.727168,
          "velocity": 0.7086614173228346
        },
        {
          "duration": 0.113636249999999,
          "durationTicks": 100,
          "midi": 42,
          "name": "F#2",
          "ticks": 92160,
          "time": 104.727168,
          "velocity": 0.7086614173228346
        },
        {
          "duration": 0.1136362500000132,
          "durationTicks": 100,
          "midi": 42,
          "name": "F#2",
          "ticks": 92400,
          "time": 104.999895,
          "velocity": 0.5511811023622047
        },
        {
          "duration": 0.113636249999999,
          "durationTicks": 100,
          "midi": 38,
          "name": "D2",
          "ticks": 92640,
          "time": 105.272622,
          "velocity": 0.7874015748031497
        },
        {
          "duration": 0.113636249999999,
          "durationTicks": 100,
          "midi": 42,
          "name": "F#2",
          "ticks": 92640,
          "time": 105.272622,
          "velocity": 0.7874015748031497
        },
        {
          "duration": 0.113636249999999,
          "durationTicks": 100,
          "midi": 35,
          "name": "B1",
          "ticks": 92880,
          "time": 105.545349,
          "velocity": 0.6299212598425197
        },
        {
          "duration": 0.113636249999999,
          "durationTicks": 100,
          "midi": 42,
          "name": "F#2",
          "ticks": 92880,
          "time": 105.545349,
          "velocity": 0.7874015748031497
        },
        {
          "duration": 0.113636249999999,
          "durationTicks": 100,
          "midi": 35,
          "name": "B1",
          "ticks": 93120,
          "time": 105.818076,
          "velocity": 0.7874015748031497
        },
        {
          "duration": 0.113636249999999,
          "durationTicks": 100,
          "midi": 42,
          "name": "F#2",
          "ticks": 93120,
          "time": 105.818076,
          "velocity": 0.7086614173228346
        },
        {
          "duration": 0.1136362500000132,
          "durationTicks": 100,
          "midi": 35,
          "name": "B1",
          "ticks": 93360,
          "time": 106.090803,
          "velocity": 0.7086614173228346
        },
        {
          "duration": 0.1136362500000132,
          "durationTicks": 100,
          "midi": 42,
          "name": "F#2",
          "ticks": 93360,
          "time": 106.090803,
          "velocity": 0.5511811023622047
        },
        {
          "duration": 0.1136362500000132,
          "durationTicks": 100,
          "midi": 38,
          "name": "D2",
          "ticks": 93600,
          "time": 106.36353,
          "velocity": 0.7874015748031497
        },
        {
          "duration": 0.1136362500000132,
          "durationTicks": 100,
          "midi": 42,
          "name": "F#2",
          "ticks": 93600,
          "time": 106.36353,
          "velocity": 0.7874015748031497
        },
        {
          "duration": 0.113636249999999,
          "durationTicks": 100,
          "midi": 35,
          "name": "B1",
          "ticks": 93840,
          "time": 106.636257,
          "velocity": 0.5511811023622047
        },
        {
          "duration": 0.113636249999999,
          "durationTicks": 100,
          "midi": 42,
          "name": "F#2",
          "ticks": 93840,
          "time": 106.636257,
          "velocity": 0.5511811023622047
        },
        {
          "duration": 0.113636249999999,
          "durationTicks": 100,
          "midi": 35,
          "name": "B1",
          "ticks": 94080,
          "time": 106.908984,
          "velocity": 0.7086614173228346
        },
        {
          "duration": 0.113636249999999,
          "durationTicks": 100,
          "midi": 42,
          "name": "F#2",
          "ticks": 94080,
          "time": 106.908984,
          "velocity": 0.7086614173228346
        },
        {
          "duration": 0.1136362500000132,
          "durationTicks": 100,
          "midi": 42,
          "name": "F#2",
          "ticks": 94320,
          "time": 107.18171099999999,
          "velocity": 0.5511811023622047
        },
        {
          "duration": 0.1136362500000132,
          "durationTicks": 100,
          "midi": 38,
          "name": "D2",
          "ticks": 94560,
          "time": 107.454438,
          "velocity": 0.7874015748031497
        },
        {
          "duration": 0.1136362500000132,
          "durationTicks": 100,
          "midi": 42,
          "name": "F#2",
          "ticks": 94560,
          "time": 107.454438,
          "velocity": 0.7874015748031497
        },
        {
          "duration": 0.113636249999999,
          "durationTicks": 100,
          "midi": 35,
          "name": "B1",
          "ticks": 94800,
          "time": 107.727165,
          "velocity": 0.6299212598425197
        },
        {
          "duration": 0.113636249999999,
          "durationTicks": 100,
          "midi": 42,
          "name": "F#2",
          "ticks": 94800,
          "time": 107.727165,
          "velocity": 0.5511811023622047
        },
        {
          "duration": 0.113636249999999,
          "durationTicks": 100,
          "midi": 35,
          "name": "B1",
          "ticks": 95040,
          "time": 107.999892,
          "velocity": 0.7874015748031497
        },
        {
          "duration": 0.113636249999999,
          "durationTicks": 100,
          "midi": 42,
          "name": "F#2",
          "ticks": 95040,
          "time": 107.999892,
          "velocity": 0.7086614173228346
        },
        {
          "duration": 0.113636249999999,
          "durationTicks": 100,
          "midi": 42,
          "name": "F#2",
          "ticks": 95280,
          "time": 108.272619,
          "velocity": 0.5511811023622047
        },
        {
          "duration": 0.1136362500000132,
          "durationTicks": 100,
          "midi": 38,
          "name": "D2",
          "ticks": 95520,
          "time": 108.545346,
          "velocity": 0.7874015748031497
        },
        {
          "duration": 0.1136362500000132,
          "durationTicks": 100,
          "midi": 42,
          "name": "F#2",
          "ticks": 95520,
          "time": 108.545346,
          "velocity": 0.7874015748031497
        },
        {
          "duration": 0.113636249999999,
          "durationTicks": 100,
          "midi": 35,
          "name": "B1",
          "ticks": 95760,
          "time": 108.818073,
          "velocity": 0.5511811023622047
        },
        {
          "duration": 0.113636249999999,
          "durationTicks": 100,
          "midi": 42,
          "name": "F#2",
          "ticks": 95760,
          "time": 108.818073,
          "velocity": 0.5511811023622047
        },
        {
          "duration": 0.113636249999999,
          "durationTicks": 100,
          "midi": 46,
          "name": "A#2",
          "ticks": 95880,
          "time": 108.9544365,
          "velocity": 0.5511811023622047
        },
        {
          "duration": 0.113636249999999,
          "durationTicks": 100,
          "midi": 35,
          "name": "B1",
          "ticks": 96000,
          "time": 109.0908,
          "velocity": 0.7086614173228346
        },
        {
          "duration": 0.113636249999999,
          "durationTicks": 100,
          "midi": 42,
          "name": "F#2",
          "ticks": 96000,
          "time": 109.0908,
          "velocity": 0.7086614173228346
        },
        {
          "duration": 0.113636249999999,
          "durationTicks": 100,
          "midi": 42,
          "name": "F#2",
          "ticks": 96240,
          "time": 109.363527,
          "velocity": 0.5511811023622047
        },
        {
          "duration": 0.1136362500000132,
          "durationTicks": 100,
          "midi": 38,
          "name": "D2",
          "ticks": 96480,
          "time": 109.636254,
          "velocity": 0.7874015748031497
        },
        {
          "duration": 0.1136362500000132,
          "durationTicks": 100,
          "midi": 42,
          "name": "F#2",
          "ticks": 96480,
          "time": 109.636254,
          "velocity": 0.7874015748031497
        },
        {
          "duration": 0.1136362500000132,
          "durationTicks": 100,
          "midi": 35,
          "name": "B1",
          "ticks": 96720,
          "time": 109.908981,
          "velocity": 0.6299212598425197
        },
        {
          "duration": 0.1136362500000132,
          "durationTicks": 100,
          "midi": 42,
          "name": "F#2",
          "ticks": 96720,
          "time": 109.908981,
          "velocity": 0.7874015748031497
        },
        {
          "duration": 0.113636249999999,
          "durationTicks": 100,
          "midi": 35,
          "name": "B1",
          "ticks": 96960,
          "time": 110.181708,
          "velocity": 0.7874015748031497
        },
        {
          "duration": 0.113636249999999,
          "durationTicks": 100,
          "midi": 42,
          "name": "F#2",
          "ticks": 96960,
          "time": 110.181708,
          "velocity": 0.7086614173228346
        },
        {
          "duration": 0.113636249999999,
          "durationTicks": 100,
          "midi": 35,
          "name": "B1",
          "ticks": 97200,
          "time": 110.454435,
          "velocity": 0.7086614173228346
        },
        {
          "duration": 0.113636249999999,
          "durationTicks": 100,
          "midi": 42,
          "name": "F#2",
          "ticks": 97200,
          "time": 110.454435,
          "velocity": 0.5511811023622047
        },
        {
          "duration": 0.1136362500000132,
          "durationTicks": 100,
          "midi": 38,
          "name": "D2",
          "ticks": 97440,
          "time": 110.72716199999999,
          "velocity": 0.7874015748031497
        },
        {
          "duration": 0.1136362500000132,
          "durationTicks": 100,
          "midi": 42,
          "name": "F#2",
          "ticks": 97440,
          "time": 110.72716199999999,
          "velocity": 0.7874015748031497
        },
        {
          "duration": 0.1136362500000132,
          "durationTicks": 100,
          "midi": 35,
          "name": "B1",
          "ticks": 97680,
          "time": 110.999889,
          "velocity": 0.5511811023622047
        },
        {
          "duration": 0.1136362500000132,
          "durationTicks": 100,
          "midi": 46,
          "name": "A#2",
          "ticks": 97680,
          "time": 110.999889,
          "velocity": 0.6299212598425197
        },
        {
          "duration": 0.113636249999999,
          "durationTicks": 100,
          "midi": 35,
          "name": "B1",
          "ticks": 97920,
          "time": 111.272616,
          "velocity": 0.7086614173228346
        },
        {
          "duration": 0.113636249999999,
          "durationTicks": 100,
          "midi": 42,
          "name": "F#2",
          "ticks": 97920,
          "time": 111.272616,
          "velocity": 0.905511811023622
        },
        {
          "duration": 0.113636249999999,
          "durationTicks": 100,
          "midi": 42,
          "name": "F#2",
          "ticks": 98160,
          "time": 111.545343,
          "velocity": 0.5511811023622047
        },
        {
          "duration": 0.113636249999999,
          "durationTicks": 100,
          "midi": 38,
          "name": "D2",
          "ticks": 98400,
          "time": 111.81807,
          "velocity": 0.7874015748031497
        },
        {
          "duration": 0.113636249999999,
          "durationTicks": 100,
          "midi": 42,
          "name": "F#2",
          "ticks": 98400,
          "time": 111.81807,
          "velocity": 0.7874015748031497
        },
        {
          "duration": 0.1136362500000132,
          "durationTicks": 100,
          "midi": 35,
          "name": "B1",
          "ticks": 98640,
          "time": 112.090797,
          "velocity": 0.6299212598425197
        },
        {
          "duration": 0.1136362500000132,
          "durationTicks": 100,
          "midi": 42,
          "name": "F#2",
          "ticks": 98640,
          "time": 112.090797,
          "velocity": 0.5511811023622047
        },
        {
          "duration": 0.113636249999999,
          "durationTicks": 100,
          "midi": 35,
          "name": "B1",
          "ticks": 98880,
          "time": 112.363524,
          "velocity": 0.7874015748031497
        },
        {
          "duration": 0.113636249999999,
          "durationTicks": 100,
          "midi": 42,
          "name": "F#2",
          "ticks": 98880,
          "time": 112.363524,
          "velocity": 0.7086614173228346
        },
        {
          "duration": 0.113636249999999,
          "durationTicks": 100,
          "midi": 42,
          "name": "F#2",
          "ticks": 99120,
          "time": 112.636251,
          "velocity": 0.5511811023622047
        },
        {
          "duration": 0.113636249999999,
          "durationTicks": 100,
          "midi": 38,
          "name": "D2",
          "ticks": 99360,
          "time": 112.908978,
          "velocity": 0.7874015748031497
        },
        {
          "duration": 0.113636249999999,
          "durationTicks": 100,
          "midi": 42,
          "name": "F#2",
          "ticks": 99360,
          "time": 112.908978,
          "velocity": 0.7874015748031497
        },
        {
          "duration": 0.1136362500000132,
          "durationTicks": 100,
          "midi": 35,
          "name": "B1",
          "ticks": 99600,
          "time": 113.181705,
          "velocity": 0.5511811023622047
        },
        {
          "duration": 0.1136362500000132,
          "durationTicks": 100,
          "midi": 42,
          "name": "F#2",
          "ticks": 99600,
          "time": 113.181705,
          "velocity": 0.5511811023622047
        },
        {
          "duration": 0.1136362500000132,
          "durationTicks": 100,
          "midi": 35,
          "name": "B1",
          "ticks": 99840,
          "time": 113.454432,
          "velocity": 0.7086614173228346
        },
        {
          "duration": 0.1136362500000132,
          "durationTicks": 100,
          "midi": 42,
          "name": "F#2",
          "ticks": 99840,
          "time": 113.454432,
          "velocity": 0.7086614173228346
        },
        {
          "duration": 0.113636249999999,
          "durationTicks": 100,
          "midi": 42,
          "name": "F#2",
          "ticks": 100080,
          "time": 113.727159,
          "velocity": 0.5511811023622047
        },
        {
          "duration": 0.113636249999999,
          "durationTicks": 100,
          "midi": 38,
          "name": "D2",
          "ticks": 100320,
          "time": 113.999886,
          "velocity": 0.7874015748031497
        },
        {
          "duration": 0.113636249999999,
          "durationTicks": 100,
          "midi": 42,
          "name": "F#2",
          "ticks": 100320,
          "time": 113.999886,
          "velocity": 0.7874015748031497
        },
        {
          "duration": 0.1136362500000132,
          "durationTicks": 100,
          "midi": 35,
          "name": "B1",
          "ticks": 100560,
          "time": 114.27261299999999,
          "velocity": 0.6299212598425197
        },
        {
          "duration": 0.1136362500000132,
          "durationTicks": 100,
          "midi": 42,
          "name": "F#2",
          "ticks": 100560,
          "time": 114.27261299999999,
          "velocity": 0.7874015748031497
        },
        {
          "duration": 0.1136362500000132,
          "durationTicks": 100,
          "midi": 35,
          "name": "B1",
          "ticks": 100800,
          "time": 114.54534,
          "velocity": 0.7874015748031497
        },
        {
          "duration": 0.1136362500000132,
          "durationTicks": 100,
          "midi": 42,
          "name": "F#2",
          "ticks": 100800,
          "time": 114.54534,
          "velocity": 0.7086614173228346
        },
        {
          "duration": 0.113636249999999,
          "durationTicks": 100,
          "midi": 35,
          "name": "B1",
          "ticks": 101040,
          "time": 114.818067,
          "velocity": 0.7086614173228346
        },
        {
          "duration": 0.113636249999999,
          "durationTicks": 100,
          "midi": 42,
          "name": "F#2",
          "ticks": 101040,
          "time": 114.818067,
          "velocity": 0.5511811023622047
        },
        {
          "duration": 0.113636249999999,
          "durationTicks": 100,
          "midi": 38,
          "name": "D2",
          "ticks": 101280,
          "time": 115.090794,
          "velocity": 0.7874015748031497
        },
        {
          "duration": 0.113636249999999,
          "durationTicks": 100,
          "midi": 42,
          "name": "F#2",
          "ticks": 101280,
          "time": 115.090794,
          "velocity": 0.7874015748031497
        },
        {
          "duration": 0.113636249999999,
          "durationTicks": 100,
          "midi": 35,
          "name": "B1",
          "ticks": 101520,
          "time": 115.363521,
          "velocity": 0.5511811023622047
        },
        {
          "duration": 0.113636249999999,
          "durationTicks": 100,
          "midi": 46,
          "name": "A#2",
          "ticks": 101520,
          "time": 115.363521,
          "velocity": 0.6299212598425197
        },
        {
          "duration": 0.1136362500000132,
          "durationTicks": 100,
          "midi": 35,
          "name": "B1",
          "ticks": 101760,
          "time": 115.636248,
          "velocity": 0.7086614173228346
        },
        {
          "duration": 0.1136362500000132,
          "durationTicks": 100,
          "midi": 42,
          "name": "F#2",
          "ticks": 101760,
          "time": 115.636248,
          "velocity": 0.7086614173228346
        },
        {
          "duration": 0.113636249999999,
          "durationTicks": 100,
          "midi": 42,
          "name": "F#2",
          "ticks": 102000,
          "time": 115.908975,
          "velocity": 0.5511811023622047
        },
        {
          "duration": 0.113636249999999,
          "durationTicks": 100,
          "midi": 38,
          "name": "D2",
          "ticks": 102240,
          "time": 116.181702,
          "velocity": 0.7086614173228346
        },
        {
          "duration": 0.113636249999999,
          "durationTicks": 100,
          "midi": 42,
          "name": "F#2",
          "ticks": 102240,
          "time": 116.181702,
          "velocity": 0.905511811023622
        },
        {
          "duration": 0.113636249999999,
          "durationTicks": 100,
          "midi": 35,
          "name": "B1",
          "ticks": 102480,
          "time": 116.454429,
          "velocity": 0.5511811023622047
        },
        {
          "duration": 0.113636249999999,
          "durationTicks": 100,
          "midi": 42,
          "name": "F#2",
          "ticks": 102480,
          "time": 116.454429,
          "velocity": 0.5511811023622047
        },
        {
          "duration": 0.1136362500000132,
          "durationTicks": 100,
          "midi": 35,
          "name": "B1",
          "ticks": 102720,
          "time": 116.727156,
          "velocity": 0.7086614173228346
        },
        {
          "duration": 0.1136362500000132,
          "durationTicks": 100,
          "midi": 42,
          "name": "F#2",
          "ticks": 102720,
          "time": 116.727156,
          "velocity": 0.7086614173228346
        },
        {
          "duration": 0.1136362500000132,
          "durationTicks": 100,
          "midi": 38,
          "name": "D2",
          "ticks": 102960,
          "time": 116.999883,
          "velocity": 0.5511811023622047
        },
        {
          "duration": 0.1136362500000132,
          "durationTicks": 100,
          "midi": 42,
          "name": "F#2",
          "ticks": 102960,
          "time": 116.999883,
          "velocity": 0.47244094488188976
        },
        {
          "duration": 0.113636249999999,
          "durationTicks": 100,
          "midi": 38,
          "name": "D2",
          "ticks": 103080,
          "time": 117.1362465,
          "velocity": 0.3937007874015748
        },
        {
          "duration": 0.113636249999999,
          "durationTicks": 100,
          "midi": 38,
          "name": "D2",
          "ticks": 103200,
          "time": 117.27261,
          "velocity": 0.6299212598425197
        },
        {
          "duration": 0.113636249999999,
          "durationTicks": 100,
          "midi": 42,
          "name": "F#2",
          "ticks": 103200,
          "time": 117.27261,
          "velocity": 0.6299212598425197
        },
        {
          "duration": 0.113636249999999,
          "durationTicks": 100,
          "midi": 38,
          "name": "D2",
          "ticks": 103440,
          "time": 117.545337,
          "velocity": 0.7086614173228346
        },
        {
          "duration": 0.113636249999999,
          "durationTicks": 100,
          "midi": 46,
          "name": "A#2",
          "ticks": 103440,
          "time": 117.545337,
          "velocity": 0.7086614173228346
        },
        {
          "duration": 0.1136362500000132,
          "durationTicks": 100,
          "midi": 38,
          "name": "D2",
          "ticks": 103680,
          "time": 117.81806399999999,
          "velocity": 0.44881889763779526
        },
        {
          "duration": 0.1136362500000132,
          "durationTicks": 100,
          "midi": 49,
          "name": "C#3",
          "ticks": 103680,
          "time": 117.81806399999999,
          "velocity": 0.4330708661417323
        },
        {
          "duration": 0.1136362500000132,
          "durationTicks": 100,
          "midi": 42,
          "name": "F#2",
          "ticks": 103920,
          "time": 118.090791,
          "velocity": 0.6299212598425197
        },
        {
          "duration": 0.113636249999999,
          "durationTicks": 100,
          "midi": 38,
          "name": "D2",
          "ticks": 104160,
          "time": 118.363518,
          "velocity": 0.6299212598425197
        },
        {
          "duration": 0.113636249999999,
          "durationTicks": 100,
          "midi": 42,
          "name": "F#2",
          "ticks": 104160,
          "time": 118.363518,
          "velocity": 0.8267716535433071
        },
        {
          "duration": 0.113636249999999,
          "durationTicks": 100,
          "midi": 35,
          "name": "B1",
          "ticks": 104400,
          "time": 118.636245,
          "velocity": 0.5511811023622047
        },
        {
          "duration": 0.113636249999999,
          "durationTicks": 100,
          "midi": 42,
          "name": "F#2",
          "ticks": 104400,
          "time": 118.636245,
          "velocity": 0.47244094488188976
        },
        {
          "duration": 0.113636249999999,
          "durationTicks": 100,
          "midi": 35,
          "name": "B1",
          "ticks": 104640,
          "time": 118.908972,
          "velocity": 0.7086614173228346
        },
        {
          "duration": 0.113636249999999,
          "durationTicks": 100,
          "midi": 42,
          "name": "F#2",
          "ticks": 104640,
          "time": 118.908972,
          "velocity": 0.6299212598425197
        },
        {
          "duration": 0.1136362500000132,
          "durationTicks": 100,
          "midi": 42,
          "name": "F#2",
          "ticks": 104880,
          "time": 119.181699,
          "velocity": 0.47244094488188976
        },
        {
          "duration": 0.113636249999999,
          "durationTicks": 100,
          "midi": 38,
          "name": "D2",
          "ticks": 105120,
          "time": 119.454426,
          "velocity": 0.6299212598425197
        },
        {
          "duration": 0.113636249999999,
          "durationTicks": 100,
          "midi": 42,
          "name": "F#2",
          "ticks": 105120,
          "time": 119.454426,
          "velocity": 0.7086614173228346
        },
        {
          "duration": 0.113636249999999,
          "durationTicks": 100,
          "midi": 42,
          "name": "F#2",
          "ticks": 105360,
          "time": 119.727153,
          "velocity": 0.47244094488188976
        },
        {
          "duration": 0.113636249999999,
          "durationTicks": 100,
          "midi": 35,
          "name": "B1",
          "ticks": 105600,
          "time": 119.99988,
          "velocity": 0.6220472440944882
        },
        {
          "duration": 0.113636249999999,
          "durationTicks": 100,
          "midi": 42,
          "name": "F#2",
          "ticks": 105600,
          "time": 119.99988,
          "velocity": 0.6220472440944882
        },
        {
          "duration": 0.1136362500000132,
          "durationTicks": 100,
          "midi": 42,
          "name": "F#2",
          "ticks": 105840,
          "time": 120.272607,
          "velocity": 0.4645669291338583
        },
        {
          "duration": 0.1136362500000132,
          "durationTicks": 100,
          "midi": 38,
          "name": "D2",
          "ticks": 106080,
          "time": 120.545334,
          "velocity": 0.6299212598425197
        },
        {
          "duration": 0.1136362500000132,
          "durationTicks": 100,
          "midi": 42,
          "name": "F#2",
          "ticks": 106080,
          "time": 120.545334,
          "velocity": 0.8188976377952756
        },
        {
          "duration": 0.113636249999999,
          "durationTicks": 100,
          "midi": 35,
          "name": "B1",
          "ticks": 106320,
          "time": 120.818061,
          "velocity": 0.5433070866141733
        },
        {
          "duration": 0.113636249999999,
          "durationTicks": 100,
          "midi": 42,
          "name": "F#2",
          "ticks": 106320,
          "time": 120.818061,
          "velocity": 0.5433070866141733
        },
        {
          "duration": 0.113636249999999,
          "durationTicks": 100,
          "midi": 35,
          "name": "B1",
          "ticks": 106560,
          "time": 121.090788,
          "velocity": 0.7007874015748031
        },
        {
          "duration": 0.113636249999999,
          "durationTicks": 100,
          "midi": 42,
          "name": "F#2",
          "ticks": 106560,
          "time": 121.090788,
          "velocity": 0.6220472440944882
        },
        {
          "duration": 0.1136362500000132,
          "durationTicks": 100,
          "midi": 42,
          "name": "F#2",
          "ticks": 106800,
          "time": 121.36351499999999,
          "velocity": 0.4645669291338583
        },
        {
          "duration": 0.1136362500000132,
          "durationTicks": 100,
          "midi": 38,
          "name": "D2",
          "ticks": 107040,
          "time": 121.636242,
          "velocity": 0.6299212598425197
        },
        {
          "duration": 0.1136362500000132,
          "durationTicks": 100,
          "midi": 42,
          "name": "F#2",
          "ticks": 107040,
          "time": 121.636242,
          "velocity": 0.7007874015748031
        },
        {
          "duration": 0.1136362500000132,
          "durationTicks": 100,
          "midi": 54,
          "name": "F#3",
          "ticks": 107040,
          "time": 121.636242,
          "velocity": 0.8188976377952756
        },
        {
          "duration": 0.113636249999999,
          "durationTicks": 100,
          "midi": 35,
          "name": "B1",
          "ticks": 107280,
          "time": 121.908969,
          "velocity": 0.4645669291338583
        },
        {
          "duration": 0.113636249999999,
          "durationTicks": 100,
          "midi": 42,
          "name": "F#2",
          "ticks": 107280,
          "time": 121.908969,
          "velocity": 0.4645669291338583
        },
        {
          "duration": 0.113636249999999,
          "durationTicks": 100,
          "midi": 35,
          "name": "B1",
          "ticks": 107520,
          "time": 122.181696,
          "velocity": 0.6535433070866141
        },
        {
          "duration": 0.113636249999999,
          "durationTicks": 100,
          "midi": 42,
          "name": "F#2",
          "ticks": 107520,
          "time": 122.181696,
          "velocity": 0.6535433070866141
        },
        {
          "duration": 0.113636249999999,
          "durationTicks": 100,
          "midi": 42,
          "name": "F#2",
          "ticks": 107760,
          "time": 122.454423,
          "velocity": 0.49606299212598426
        },
        {
          "duration": 0.1136362500000132,
          "durationTicks": 100,
          "midi": 38,
          "name": "D2",
          "ticks": 108000,
          "time": 122.72715,
          "velocity": 0.6299212598425197
        },
        {
          "duration": 0.1136362500000132,
          "durationTicks": 100,
          "midi": 42,
          "name": "F#2",
          "ticks": 108000,
          "time": 122.72715,
          "velocity": 0.8503937007874016
        },
        {
          "duration": 0.113636249999999,
          "durationTicks": 100,
          "midi": 35,
          "name": "B1",
          "ticks": 108240,
          "time": 122.999877,
          "velocity": 0.5748031496062992
        },
        {
          "duration": 0.113636249999999,
          "durationTicks": 100,
          "midi": 42,
          "name": "F#2",
          "ticks": 108240,
          "time": 122.999877,
          "velocity": 0.49606299212598426
        },
        {
          "duration": 0.113636249999999,
          "durationTicks": 100,
          "midi": 35,
          "name": "B1",
          "ticks": 108480,
          "time": 123.272604,
          "velocity": 0.7322834645669292
        },
        {
          "duration": 0.113636249999999,
          "durationTicks": 100,
          "midi": 42,
          "name": "F#2",
          "ticks": 108480,
          "time": 123.272604,
          "velocity": 0.6535433070866141
        },
        {
          "duration": 0.113636249999999,
          "durationTicks": 100,
          "midi": 42,
          "name": "F#2",
          "ticks": 108720,
          "time": 123.545331,
          "velocity": 0.49606299212598426
        },
        {
          "duration": 0.1136362500000132,
          "durationTicks": 100,
          "midi": 38,
          "name": "D2",
          "ticks": 108960,
          "time": 123.818058,
          "velocity": 0.6299212598425197
        },
        {
          "duration": 0.1136362500000132,
          "durationTicks": 100,
          "midi": 42,
          "name": "F#2",
          "ticks": 108960,
          "time": 123.818058,
          "velocity": 0.7322834645669292
        },
        {
          "duration": 0.1136362500000132,
          "durationTicks": 100,
          "midi": 42,
          "name": "F#2",
          "ticks": 109200,
          "time": 124.090785,
          "velocity": 0.49606299212598426
        },
        {
          "duration": 0.113636249999999,
          "durationTicks": 100,
          "midi": 35,
          "name": "B1",
          "ticks": 109440,
          "time": 124.363512,
          "velocity": 0.6692913385826772
        },
        {
          "duration": 0.113636249999999,
          "durationTicks": 100,
          "midi": 42,
          "name": "F#2",
          "ticks": 109440,
          "time": 124.363512,
          "velocity": 0.7480314960629921
        },
        {
          "duration": 0.113636249999999,
          "durationTicks": 100,
          "midi": 42,
          "name": "F#2",
          "ticks": 109680,
          "time": 124.636239,
          "velocity": 0.5118110236220472
        },
        {
          "duration": 0.1136362500000132,
          "durationTicks": 100,
          "midi": 38,
          "name": "D2",
          "ticks": 109920,
          "time": 124.90896599999999,
          "velocity": 0.6299212598425197
        },
        {
          "duration": 0.1136362500000132,
          "durationTicks": 100,
          "midi": 42,
          "name": "F#2",
          "ticks": 109920,
          "time": 124.90896599999999,
          "velocity": 0.8661417322834646
        },
        {
          "duration": 0.1136362500000132,
          "durationTicks": 100,
          "midi": 35,
          "name": "B1",
          "ticks": 110160,
          "time": 125.181693,
          "velocity": 0.5905511811023622
        },
        {
          "duration": 0.1136362500000132,
          "durationTicks": 100,
          "midi": 42,
          "name": "F#2",
          "ticks": 110160,
          "time": 125.181693,
          "velocity": 0.5118110236220472
        },
        {
          "duration": 0.113636249999999,
          "durationTicks": 100,
          "midi": 35,
          "name": "B1",
          "ticks": 110400,
          "time": 125.45442,
          "velocity": 0.7480314960629921
        },
        {
          "duration": 0.113636249999999,
          "durationTicks": 100,
          "midi": 42,
          "name": "F#2",
          "ticks": 110400,
          "time": 125.45442,
          "velocity": 0.6692913385826772
        },
        {
          "duration": 0.113636249999999,
          "durationTicks": 100,
          "midi": 42,
          "name": "F#2",
          "ticks": 110640,
          "time": 125.727147,
          "velocity": 0.5118110236220472
        },
        {
          "duration": 0.113636249999999,
          "durationTicks": 100,
          "midi": 38,
          "name": "D2",
          "ticks": 110880,
          "time": 125.999874,
          "velocity": 0.6299212598425197
        },
        {
          "duration": 0.113636249999999,
          "durationTicks": 100,
          "midi": 42,
          "name": "F#2",
          "ticks": 110880,
          "time": 125.999874,
          "velocity": 0.7480314960629921
        },
        {
          "duration": 0.1136362500000132,
          "durationTicks": 100,
          "midi": 42,
          "name": "F#2",
          "ticks": 111120,
          "time": 126.272601,
          "velocity": 0.5118110236220472
        },
        {
          "duration": 0.113636249999999,
          "durationTicks": 100,
          "midi": 35,
          "name": "B1",
          "ticks": 111360,
          "time": 126.545328,
          "velocity": 0.6299212598425197
        },
        {
          "duration": 0.113636249999999,
          "durationTicks": 100,
          "midi": 42,
          "name": "F#2",
          "ticks": 111360,
          "time": 126.545328,
          "velocity": 0.6456692913385826
        },
        {
          "duration": 0.113636249999999,
          "durationTicks": 100,
          "midi": 42,
          "name": "F#2",
          "ticks": 111600,
          "time": 126.818055,
          "velocity": 0.4881889763779528
        },
        {
          "duration": 0.113636249999999,
          "durationTicks": 100,
          "midi": 38,
          "name": "D2",
          "ticks": 111840,
          "time": 127.090782,
          "velocity": 0.6299212598425197
        },
        {
          "duration": 0.113636249999999,
          "durationTicks": 100,
          "midi": 42,
          "name": "F#2",
          "ticks": 111840,
          "time": 127.090782,
          "velocity": 0.84251968503937
        },
        {
          "duration": 0.1136362500000132,
          "durationTicks": 100,
          "midi": 35,
          "name": "B1",
          "ticks": 112080,
          "time": 127.363509,
          "velocity": 0.5669291338582677
        },
        {
          "duration": 0.1136362500000132,
          "durationTicks": 100,
          "midi": 42,
          "name": "F#2",
          "ticks": 112080,
          "time": 127.363509,
          "velocity": 0.4881889763779528
        },
        {
          "duration": 0.1136362500000132,
          "durationTicks": 100,
          "midi": 35,
          "name": "B1",
          "ticks": 112320,
          "time": 127.636236,
          "velocity": 0.7244094488188977
        },
        {
          "duration": 0.1136362500000132,
          "durationTicks": 100,
          "midi": 42,
          "name": "F#2",
          "ticks": 112320,
          "time": 127.636236,
          "velocity": 0.6456692913385826
        },
        {
          "duration": 0.1136362500000132,
          "durationTicks": 100,
          "midi": 42,
          "name": "F#2",
          "ticks": 112560,
          "time": 127.908963,
          "velocity": 0.4881889763779528
        },
        {
          "duration": 0.1136362500000132,
          "durationTicks": 100,
          "midi": 38,
          "name": "D2",
          "ticks": 112800,
          "time": 128.18169,
          "velocity": 0.6299212598425197
        },
        {
          "duration": 0.1136362500000132,
          "durationTicks": 100,
          "midi": 42,
          "name": "F#2",
          "ticks": 112800,
          "time": 128.18169,
          "velocity": 0.7244094488188977
        },
        {
          "duration": 0.11363624999998478,
          "durationTicks": 100,
          "midi": 42,
          "name": "F#2",
          "ticks": 113040,
          "time": 128.454417,
          "velocity": 0.4881889763779528
        },
        {
          "duration": 0.11363624999998478,
          "durationTicks": 100,
          "midi": 35,
          "name": "B1",
          "ticks": 113280,
          "time": 128.727144,
          "velocity": 0.6220472440944882
        },
        {
          "duration": 0.11363624999998478,
          "durationTicks": 100,
          "midi": 42,
          "name": "F#2",
          "ticks": 113280,
          "time": 128.727144,
          "velocity": 0.6220472440944882
        },
        {
          "duration": 0.1136362500000132,
          "durationTicks": 100,
          "midi": 42,
          "name": "F#2",
          "ticks": 113520,
          "time": 128.99987099999998,
          "velocity": 0.4645669291338583
        },
        {
          "duration": 0.1136362500000132,
          "durationTicks": 100,
          "midi": 38,
          "name": "D2",
          "ticks": 113760,
          "time": 129.272598,
          "velocity": 0.6299212598425197
        },
        {
          "duration": 0.1136362500000132,
          "durationTicks": 100,
          "midi": 42,
          "name": "F#2",
          "ticks": 113760,
          "time": 129.272598,
          "velocity": 0.8188976377952756
        },
        {
          "duration": 0.1136362500000132,
          "durationTicks": 100,
          "midi": 35,
          "name": "B1",
          "ticks": 114000,
          "time": 129.545325,
          "velocity": 0.5433070866141733
        },
        {
          "duration": 0.1136362500000132,
          "durationTicks": 100,
          "midi": 42,
          "name": "F#2",
          "ticks": 114000,
          "time": 129.545325,
          "velocity": 0.5433070866141733
        },
        {
          "duration": 0.1136362500000132,
          "durationTicks": 100,
          "midi": 35,
          "name": "B1",
          "ticks": 114240,
          "time": 129.818052,
          "velocity": 0.7007874015748031
        },
        {
          "duration": 0.1136362500000132,
          "durationTicks": 100,
          "midi": 42,
          "name": "F#2",
          "ticks": 114240,
          "time": 129.818052,
          "velocity": 0.6220472440944882
        },
        {
          "duration": 0.1136362500000132,
          "durationTicks": 100,
          "midi": 42,
          "name": "F#2",
          "ticks": 114480,
          "time": 130.090779,
          "velocity": 0.4645669291338583
        },
        {
          "duration": 0.1136362500000132,
          "durationTicks": 100,
          "midi": 38,
          "name": "D2",
          "ticks": 114720,
          "time": 130.363506,
          "velocity": 0.6299212598425197
        },
        {
          "duration": 0.1136362500000132,
          "durationTicks": 100,
          "midi": 42,
          "name": "F#2",
          "ticks": 114720,
          "time": 130.363506,
          "velocity": 0.7007874015748031
        },
        {
          "duration": 0.1136362500000132,
          "durationTicks": 100,
          "midi": 54,
          "name": "F#3",
          "ticks": 114720,
          "time": 130.363506,
          "velocity": 0.8188976377952756
        },
        {
          "duration": 0.1136362500000132,
          "durationTicks": 100,
          "midi": 35,
          "name": "B1",
          "ticks": 114960,
          "time": 130.636233,
          "velocity": 0.4645669291338583
        },
        {
          "duration": 0.1136362500000132,
          "durationTicks": 100,
          "midi": 42,
          "name": "F#2",
          "ticks": 114960,
          "time": 130.636233,
          "velocity": 0.4645669291338583
        },
        {
          "duration": 0.11363624999998478,
          "durationTicks": 100,
          "midi": 35,
          "name": "B1",
          "ticks": 115200,
          "time": 130.90896,
          "velocity": 0.6299212598425197
        },
        {
          "duration": 0.11363624999998478,
          "durationTicks": 100,
          "midi": 42,
          "name": "F#2",
          "ticks": 115200,
          "time": 130.90896,
          "velocity": 0.6456692913385826
        },
        {
          "duration": 0.11363624999998478,
          "durationTicks": 100,
          "midi": 42,
          "name": "F#2",
          "ticks": 115440,
          "time": 131.181687,
          "velocity": 0.4881889763779528
        },
        {
          "duration": 0.1136362500000132,
          "durationTicks": 100,
          "midi": 38,
          "name": "D2",
          "ticks": 115680,
          "time": 131.45441399999999,
          "velocity": 0.6299212598425197
        },
        {
          "duration": 0.1136362500000132,
          "durationTicks": 100,
          "midi": 42,
          "name": "F#2",
          "ticks": 115680,
          "time": 131.45441399999999,
          "velocity": 0.84251968503937
        },
        {
          "duration": 0.1136362500000132,
          "durationTicks": 100,
          "midi": 35,
          "name": "B1",
          "ticks": 115920,
          "time": 131.727141,
          "velocity": 0.5669291338582677
        },
        {
          "duration": 0.1136362500000132,
          "durationTicks": 100,
          "midi": 42,
          "name": "F#2",
          "ticks": 115920,
          "time": 131.727141,
          "velocity": 0.4881889763779528
        },
        {
          "duration": 0.1136362500000132,
          "durationTicks": 100,
          "midi": 35,
          "name": "B1",
          "ticks": 116160,
          "time": 131.999868,
          "velocity": 0.7244094488188977
        },
        {
          "duration": 0.1136362500000132,
          "durationTicks": 100,
          "midi": 42,
          "name": "F#2",
          "ticks": 116160,
          "time": 131.999868,
          "velocity": 0.6456692913385826
        },
        {
          "duration": 0.1136362500000132,
          "durationTicks": 100,
          "midi": 42,
          "name": "F#2",
          "ticks": 116400,
          "time": 132.272595,
          "velocity": 0.4881889763779528
        },
        {
          "duration": 0.1136362500000132,
          "durationTicks": 100,
          "midi": 38,
          "name": "D2",
          "ticks": 116640,
          "time": 132.545322,
          "velocity": 0.6299212598425197
        },
        {
          "duration": 0.1136362500000132,
          "durationTicks": 100,
          "midi": 42,
          "name": "F#2",
          "ticks": 116640,
          "time": 132.545322,
          "velocity": 0.7244094488188977
        },
        {
          "duration": 0.1136362500000132,
          "durationTicks": 100,
          "midi": 42,
          "name": "F#2",
          "ticks": 116880,
          "time": 132.818049,
          "velocity": 0.4881889763779528
        },
        {
          "duration": 0.11363624999998478,
          "durationTicks": 100,
          "midi": 35,
          "name": "B1",
          "ticks": 117120,
          "time": 133.090776,
          "velocity": 0.6220472440944882
        },
        {
          "duration": 0.11363624999998478,
          "durationTicks": 100,
          "midi": 42,
          "name": "F#2",
          "ticks": 117120,
          "time": 133.090776,
          "velocity": 0.6220472440944882
        },
        {
          "duration": 0.11363624999998478,
          "durationTicks": 100,
          "midi": 42,
          "name": "F#2",
          "ticks": 117360,
          "time": 133.363503,
          "velocity": 0.4645669291338583
        },
        {
          "duration": 0.11363624999998478,
          "durationTicks": 100,
          "midi": 38,
          "name": "D2",
          "ticks": 117600,
          "time": 133.63623,
          "velocity": 0.6299212598425197
        },
        {
          "duration": 0.11363624999998478,
          "durationTicks": 100,
          "midi": 42,
          "name": "F#2",
          "ticks": 117600,
          "time": 133.63623,
          "velocity": 0.8188976377952756
        },
        {
          "duration": 0.1136362500000132,
          "durationTicks": 100,
          "midi": 35,
          "name": "B1",
          "ticks": 117840,
          "time": 133.908957,
          "velocity": 0.5433070866141733
        },
        {
          "duration": 0.1136362500000132,
          "durationTicks": 100,
          "midi": 42,
          "name": "F#2",
          "ticks": 117840,
          "time": 133.908957,
          "velocity": 0.5039370078740157
        },
        {
          "duration": 0.1136362500000132,
          "durationTicks": 100,
          "midi": 35,
          "name": "B1",
          "ticks": 118080,
          "time": 134.181684,
          "velocity": 0.7007874015748031
        },
        {
          "duration": 0.1136362500000132,
          "durationTicks": 100,
          "midi": 42,
          "name": "F#2",
          "ticks": 118080,
          "time": 134.181684,
          "velocity": 0.6220472440944882
        },
        {
          "duration": 0.1136362500000132,
          "durationTicks": 100,
          "midi": 42,
          "name": "F#2",
          "ticks": 118320,
          "time": 134.454411,
          "velocity": 0.4645669291338583
        },
        {
          "duration": 0.1136362500000132,
          "durationTicks": 100,
          "midi": 38,
          "name": "D2",
          "ticks": 118560,
          "time": 134.727138,
          "velocity": 0.6299212598425197
        },
        {
          "duration": 0.1136362500000132,
          "durationTicks": 100,
          "midi": 42,
          "name": "F#2",
          "ticks": 118560,
          "time": 134.727138,
          "velocity": 0.7007874015748031
        },
        {
          "duration": 0.1136362500000132,
          "durationTicks": 100,
          "midi": 54,
          "name": "F#3",
          "ticks": 118560,
          "time": 134.727138,
          "velocity": 0.8188976377952756
        },
        {
          "duration": 0.1136362500000132,
          "durationTicks": 100,
          "midi": 35,
          "name": "B1",
          "ticks": 118800,
          "time": 134.999865,
          "velocity": 0.4645669291338583
        },
        {
          "duration": 0.1136362500000132,
          "durationTicks": 100,
          "midi": 46,
          "name": "A#2",
          "ticks": 118800,
          "time": 134.999865,
          "velocity": 0.5433070866141733
        },
        {
          "duration": 0.1136362500000132,
          "durationTicks": 100,
          "midi": 35,
          "name": "B1",
          "ticks": 119040,
          "time": 135.272592,
          "velocity": 0.6535433070866141
        },
        {
          "duration": 0.1136362500000132,
          "durationTicks": 100,
          "midi": 42,
          "name": "F#2",
          "ticks": 119040,
          "time": 135.272592,
          "velocity": 0.6535433070866141
        },
        {
          "duration": 0.11363624999998478,
          "durationTicks": 100,
          "midi": 42,
          "name": "F#2",
          "ticks": 119280,
          "time": 135.545319,
          "velocity": 0.49606299212598426
        },
        {
          "duration": 0.11363624999998478,
          "durationTicks": 100,
          "midi": 38,
          "name": "D2",
          "ticks": 119520,
          "time": 135.818046,
          "velocity": 0.6299212598425197
        },
        {
          "duration": 0.11363624999998478,
          "durationTicks": 100,
          "midi": 42,
          "name": "F#2",
          "ticks": 119520,
          "time": 135.818046,
          "velocity": 0.8503937007874016
        },
        {
          "duration": 0.1136362500000132,
          "durationTicks": 100,
          "midi": 35,
          "name": "B1",
          "ticks": 119760,
          "time": 136.09077299999998,
          "velocity": 0.5748031496062992
        },
        {
          "duration": 0.1136362500000132,
          "durationTicks": 100,
          "midi": 42,
          "name": "F#2",
          "ticks": 119760,
          "time": 136.09077299999998,
          "velocity": 0.8661417322834646
        },
        {
          "duration": 0.1136362500000132,
          "durationTicks": 100,
          "midi": 35,
          "name": "B1",
          "ticks": 120000,
          "time": 136.3635,
          "velocity": 0.7322834645669292
        },
        {
          "duration": 0.1136362500000132,
          "durationTicks": 100,
          "midi": 42,
          "name": "F#2",
          "ticks": 120000,
          "time": 136.3635,
          "velocity": 0.6535433070866141
        },
        {
          "duration": 0.1136362500000132,
          "durationTicks": 100,
          "midi": 42,
          "name": "F#2",
          "ticks": 120240,
          "time": 136.636227,
          "velocity": 0.49606299212598426
        },
        {
          "duration": 0.1136362500000132,
          "durationTicks": 100,
          "midi": 38,
          "name": "D2",
          "ticks": 120480,
          "time": 136.908954,
          "velocity": 0.6299212598425197
        },
        {
          "duration": 0.1136362500000132,
          "durationTicks": 100,
          "midi": 42,
          "name": "F#2",
          "ticks": 120480,
          "time": 136.908954,
          "velocity": 0.7322834645669292
        },
        {
          "duration": 0.1136362500000132,
          "durationTicks": 100,
          "midi": 42,
          "name": "F#2",
          "ticks": 120720,
          "time": 137.181681,
          "velocity": 0.49606299212598426
        },
        {
          "duration": 0.1136362500000132,
          "durationTicks": 100,
          "midi": 35,
          "name": "B1",
          "ticks": 120960,
          "time": 137.454408,
          "velocity": 0.6220472440944882
        },
        {
          "duration": 0.1136362500000132,
          "durationTicks": 100,
          "midi": 42,
          "name": "F#2",
          "ticks": 120960,
          "time": 137.454408,
          "velocity": 0.6220472440944882
        },
        {
          "duration": 0.1136362500000132,
          "durationTicks": 100,
          "midi": 42,
          "name": "F#2",
          "ticks": 121200,
          "time": 137.727135,
          "velocity": 0.4645669291338583
        },
        {
          "duration": 0.11363624999998478,
          "durationTicks": 100,
          "midi": 38,
          "name": "D2",
          "ticks": 121440,
          "time": 137.999862,
          "velocity": 0.6299212598425197
        },
        {
          "duration": 0.11363624999998478,
          "durationTicks": 100,
          "midi": 42,
          "name": "F#2",
          "ticks": 121440,
          "time": 137.999862,
          "velocity": 0.8188976377952756
        },
        {
          "duration": 0.11363624999998478,
          "durationTicks": 100,
          "midi": 35,
          "name": "B1",
          "ticks": 121680,
          "time": 138.272589,
          "velocity": 0.5433070866141733
        },
        {
          "duration": 0.11363624999998478,
          "durationTicks": 100,
          "midi": 42,
          "name": "F#2",
          "ticks": 121680,
          "time": 138.272589,
          "velocity": 0.8661417322834646
        },
        {
          "duration": 0.1136362500000132,
          "durationTicks": 100,
          "midi": 35,
          "name": "B1",
          "ticks": 121920,
          "time": 138.54531599999999,
          "velocity": 0.7007874015748031
        },
        {
          "duration": 0.1136362500000132,
          "durationTicks": 100,
          "midi": 42,
          "name": "F#2",
          "ticks": 121920,
          "time": 138.54531599999999,
          "velocity": 0.6220472440944882
        },
        {
          "duration": 0.1136362500000132,
          "durationTicks": 100,
          "midi": 42,
          "name": "F#2",
          "ticks": 122160,
          "time": 138.818043,
          "velocity": 0.4645669291338583
        },
        {
          "duration": 0.1136362500000132,
          "durationTicks": 100,
          "midi": 38,
          "name": "D2",
          "ticks": 122400,
          "time": 139.09077,
          "velocity": 0.6299212598425197
        },
        {
          "duration": 0.1136362500000132,
          "durationTicks": 100,
          "midi": 42,
          "name": "F#2",
          "ticks": 122400,
          "time": 139.09077,
          "velocity": 0.7007874015748031
        },
        {
          "duration": 0.1136362500000132,
          "durationTicks": 100,
          "midi": 54,
          "name": "F#3",
          "ticks": 122400,
          "time": 139.09077,
          "velocity": 0.8188976377952756
        },
        {
          "duration": 0.1136362500000132,
          "durationTicks": 100,
          "midi": 35,
          "name": "B1",
          "ticks": 122640,
          "time": 139.363497,
          "velocity": 0.4645669291338583
        },
        {
          "duration": 0.1136362500000132,
          "durationTicks": 100,
          "midi": 46,
          "name": "A#2",
          "ticks": 122640,
          "time": 139.363497,
          "velocity": 0.5433070866141733
        },
        {
          "duration": 0.11363624999998478,
          "durationTicks": 100,
          "midi": 35,
          "name": "B1",
          "ticks": 122880,
          "time": 139.636224,
          "velocity": 0.6535433070866141
        },
        {
          "duration": 0.11363624999998478,
          "durationTicks": 100,
          "midi": 42,
          "name": "F#2",
          "ticks": 122880,
          "time": 139.636224,
          "velocity": 0.6535433070866141
        },
        {
          "duration": 0.11363624999998478,
          "durationTicks": 100,
          "midi": 42,
          "name": "F#2",
          "ticks": 123120,
          "time": 139.908951,
          "velocity": 0.49606299212598426
        },
        {
          "duration": 0.11363624999998478,
          "durationTicks": 100,
          "midi": 38,
          "name": "D2",
          "ticks": 123360,
          "time": 140.181678,
          "velocity": 0.6299212598425197
        },
        {
          "duration": 0.11363624999998478,
          "durationTicks": 100,
          "midi": 42,
          "name": "F#2",
          "ticks": 123360,
          "time": 140.181678,
          "velocity": 0.8503937007874016
        },
        {
          "duration": 0.11363624999998478,
          "durationTicks": 100,
          "midi": 35,
          "name": "B1",
          "ticks": 123600,
          "time": 140.454405,
          "velocity": 0.5748031496062992
        },
        {
          "duration": 0.11363624999998478,
          "durationTicks": 100,
          "midi": 42,
          "name": "F#2",
          "ticks": 123600,
          "time": 140.454405,
          "velocity": 0.8661417322834646
        },
        {
          "duration": 0.11363624999998478,
          "durationTicks": 100,
          "midi": 35,
          "name": "B1",
          "ticks": 123840,
          "time": 140.727132,
          "velocity": 0.7322834645669292
        },
        {
          "duration": 0.11363624999998478,
          "durationTicks": 100,
          "midi": 42,
          "name": "F#2",
          "ticks": 123840,
          "time": 140.727132,
          "velocity": 0.6535433070866141
        },
        {
          "duration": 0.1136362500000132,
          "durationTicks": 100,
          "midi": 42,
          "name": "F#2",
          "ticks": 124080,
          "time": 140.999859,
          "velocity": 0.49606299212598426
        },
        {
          "duration": 0.11363624999998478,
          "durationTicks": 100,
          "midi": 38,
          "name": "D2",
          "ticks": 124320,
          "time": 141.272586,
          "velocity": 0.6299212598425197
        },
        {
          "duration": 0.11363624999998478,
          "durationTicks": 100,
          "midi": 42,
          "name": "F#2",
          "ticks": 124320,
          "time": 141.272586,
          "velocity": 0.7322834645669292
        },
        {
          "duration": 0.11363624999998478,
          "durationTicks": 100,
          "midi": 42,
          "name": "F#2",
          "ticks": 124560,
          "time": 141.545313,
          "velocity": 0.49606299212598426
        },
        {
          "duration": 0.11363624999998478,
          "durationTicks": 100,
          "midi": 35,
          "name": "B1",
          "ticks": 124800,
          "time": 141.81804,
          "velocity": 0.7086614173228346
        },
        {
          "duration": 0.11363624999998478,
          "durationTicks": 100,
          "midi": 42,
          "name": "F#2",
          "ticks": 124800,
          "time": 141.81804,
          "velocity": 0.7086614173228346
        },
        {
          "duration": 0.11363624999998478,
          "durationTicks": 100,
          "midi": 42,
          "name": "F#2",
          "ticks": 125040,
          "time": 142.090767,
          "velocity": 0.5511811023622047
        },
        {
          "duration": 0.11363624999998478,
          "durationTicks": 100,
          "midi": 38,
          "name": "D2",
          "ticks": 125280,
          "time": 142.363494,
          "velocity": 0.5511811023622047
        },
        {
          "duration": 0.11363624999998478,
          "durationTicks": 100,
          "midi": 42,
          "name": "F#2",
          "ticks": 125280,
          "time": 142.363494,
          "velocity": 0.905511811023622
        },
        {
          "duration": 0.11363624999998478,
          "durationTicks": 100,
          "midi": 35,
          "name": "B1",
          "ticks": 125520,
          "time": 142.636221,
          "velocity": 0.6299212598425197
        },
        {
          "duration": 0.11363624999998478,
          "durationTicks": 100,
          "midi": 42,
          "name": "F#2",
          "ticks": 125520,
          "time": 142.636221,
          "velocity": 0.5511811023622047
        },
        {
          "duration": 0.11363624999998478,
          "durationTicks": 100,
          "midi": 35,
          "name": "B1",
          "ticks": 125760,
          "time": 142.908948,
          "velocity": 0.7086614173228346
        },
        {
          "duration": 0.11363624999998478,
          "durationTicks": 100,
          "midi": 38,
          "name": "D2",
          "ticks": 125760,
          "time": 142.908948,
          "velocity": 0.3937007874015748
        },
        {
          "duration": 0.11363624999998478,
          "durationTicks": 100,
          "midi": 42,
          "name": "F#2",
          "ticks": 125760,
          "time": 142.908948,
          "velocity": 0.7086614173228346
        },
        {
          "duration": 0.11363624999998478,
          "durationTicks": 100,
          "midi": 38,
          "name": "D2",
          "ticks": 125880,
          "time": 143.0453115,
          "velocity": 0.31496062992125984
        },
        {
          "duration": 0.11363624999998478,
          "durationTicks": 100,
          "midi": 42,
          "name": "F#2",
          "ticks": 126000,
          "time": 143.181675,
          "velocity": 0.47244094488188976
        },
        {
          "duration": 0.11363624999998478,
          "durationTicks": 100,
          "midi": 38,
          "name": "D2",
          "ticks": 126120,
          "time": 143.3180385,
          "velocity": 0.47244094488188976
        },
        {
          "duration": 0.1136362500000132,
          "durationTicks": 100,
          "midi": 42,
          "name": "F#2",
          "ticks": 126240,
          "time": 143.454402,
          "velocity": 0.6299212598425197
        },
        {
          "duration": 0.1136362500000132,
          "durationTicks": 100,
          "midi": 45,
          "name": "A2",
          "ticks": 126240,
          "time": 143.454402,
          "velocity": 0.47244094488188976
        },
        {
          "duration": 0.11363624999998478,
          "durationTicks": 100,
          "midi": 45,
          "name": "A2",
          "ticks": 126360,
          "time": 143.5907655,
          "velocity": 0.3937007874015748
        },
        {
          "duration": 0.11363624999998478,
          "durationTicks": 100,
          "midi": 42,
          "name": "F#2",
          "ticks": 126480,
          "time": 143.727129,
          "velocity": 0.47244094488188976
        },
        {
          "duration": 0.11363624999998478,
          "durationTicks": 100,
          "midi": 45,
          "name": "A2",
          "ticks": 126480,
          "time": 143.727129,
          "velocity": 0.6299212598425197
        },
        {
          "duration": 0.11363624999998478,
          "durationTicks": 100,
          "midi": 45,
          "name": "A2",
          "ticks": 126600,
          "time": 143.8634925,
          "velocity": 0.31496062992125984
        },
        {
          "duration": 0.11363624999998478,
          "durationTicks": 100,
          "midi": 35,
          "name": "B1",
          "ticks": 126720,
          "time": 143.999856,
          "velocity": 0.6299212598425197
        },
        {
          "duration": 0.11363624999998478,
          "durationTicks": 100,
          "midi": 38,
          "name": "D2",
          "ticks": 126720,
          "time": 143.999856,
          "velocity": 0.6299212598425197
        },
        {
          "duration": 0.11363624999998478,
          "durationTicks": 100,
          "midi": 49,
          "name": "C#3",
          "ticks": 126720,
          "time": 143.999856,
          "velocity": 0.47244094488188976
        },
        {
          "duration": 0.11363624999998478,
          "durationTicks": 100,
          "midi": 42,
          "name": "F#2",
          "ticks": 126960,
          "time": 144.272583,
          "velocity": 0.6299212598425197
        },
        {
          "duration": 0.11363624999998478,
          "durationTicks": 100,
          "midi": 38,
          "name": "D2",
          "ticks": 127200,
          "time": 144.54531,
          "velocity": 0.6299212598425197
        },
        {
          "duration": 0.11363624999998478,
          "durationTicks": 100,
          "midi": 42,
          "name": "F#2",
          "ticks": 127200,
          "time": 144.54531,
          "velocity": 0.8267716535433071
        },
        {
          "duration": 0.11363624999998478,
          "durationTicks": 100,
          "midi": 35,
          "name": "B1",
          "ticks": 127440,
          "time": 144.818037,
          "velocity": 0.5511811023622047
        },
        {
          "duration": 0.11363624999998478,
          "durationTicks": 100,
          "midi": 42,
          "name": "F#2",
          "ticks": 127440,
          "time": 144.818037,
          "velocity": 0.8661417322834646
        },
        {
          "duration": 0.11363624999998478,
          "durationTicks": 100,
          "midi": 35,
          "name": "B1",
          "ticks": 127680,
          "time": 145.090764,
          "velocity": 0.7086614173228346
        },
        {
          "duration": 0.11363624999998478,
          "durationTicks": 100,
          "midi": 42,
          "name": "F#2",
          "ticks": 127680,
          "time": 145.090764,
          "velocity": 0.6299212598425197
        },
        {
          "duration": 0.11363624999998478,
          "durationTicks": 100,
          "midi": 42,
          "name": "F#2",
          "ticks": 127920,
          "time": 145.363491,
          "velocity": 0.47244094488188976
        },
        {
          "duration": 0.1136362500000132,
          "durationTicks": 100,
          "midi": 38,
          "name": "D2",
          "ticks": 128160,
          "time": 145.63621799999999,
          "velocity": 0.6299212598425197
        },
        {
          "duration": 0.1136362500000132,
          "durationTicks": 100,
          "midi": 42,
          "name": "F#2",
          "ticks": 128160,
          "time": 145.63621799999999,
          "velocity": 0.7086614173228346
        },
        {
          "duration": 0.1136362500000132,
          "durationTicks": 100,
          "midi": 42,
          "name": "F#2",
          "ticks": 128400,
          "time": 145.908945,
          "velocity": 0.47244094488188976
        },
        {
          "duration": 0.11363624999998478,
          "durationTicks": 100,
          "midi": 35,
          "name": "B1",
          "ticks": 128640,
          "time": 146.181672,
          "velocity": 0.6220472440944882
        },
        {
          "duration": 0.11363624999998478,
          "durationTicks": 100,
          "midi": 42,
          "name": "F#2",
          "ticks": 128640,
          "time": 146.181672,
          "velocity": 0.6220472440944882
        },
        {
          "duration": 0.11363624999998478,
          "durationTicks": 100,
          "midi": 42,
          "name": "F#2",
          "ticks": 128880,
          "time": 146.454399,
          "velocity": 0.4645669291338583
        },
        {
          "duration": 0.11363624999998478,
          "durationTicks": 100,
          "midi": 38,
          "name": "D2",
          "ticks": 129120,
          "time": 146.727126,
          "velocity": 0.6299212598425197
        },
        {
          "duration": 0.11363624999998478,
          "durationTicks": 100,
          "midi": 42,
          "name": "F#2",
          "ticks": 129120,
          "time": 146.727126,
          "velocity": 0.8188976377952756
        },
        {
          "duration": 0.11363624999998478,
          "durationTicks": 100,
          "midi": 35,
          "name": "B1",
          "ticks": 129360,
          "time": 146.999853,
          "velocity": 0.5433070866141733
        },
        {
          "duration": 0.11363624999998478,
          "durationTicks": 100,
          "midi": 42,
          "name": "F#2",
          "ticks": 129360,
          "time": 146.999853,
          "velocity": 0.8661417322834646
        },
        {
          "duration": 0.11363624999998478,
          "durationTicks": 100,
          "midi": 35,
          "name": "B1",
          "ticks": 129600,
          "time": 147.27258,
          "velocity": 0.7007874015748031
        },
        {
          "duration": 0.11363624999998478,
          "durationTicks": 100,
          "midi": 42,
          "name": "F#2",
          "ticks": 129600,
          "time": 147.27258,
          "velocity": 0.6220472440944882
        },
        {
          "duration": 0.11363624999998478,
          "durationTicks": 100,
          "midi": 42,
          "name": "F#2",
          "ticks": 129840,
          "time": 147.545307,
          "velocity": 0.4645669291338583
        },
        {
          "duration": 0.11363624999998478,
          "durationTicks": 100,
          "midi": 38,
          "name": "D2",
          "ticks": 130080,
          "time": 147.818034,
          "velocity": 0.6299212598425197
        },
        {
          "duration": 0.11363624999998478,
          "durationTicks": 100,
          "midi": 42,
          "name": "F#2",
          "ticks": 130080,
          "time": 147.818034,
          "velocity": 0.7007874015748031
        },
        {
          "duration": 0.11363624999998478,
          "durationTicks": 100,
          "midi": 54,
          "name": "F#3",
          "ticks": 130080,
          "time": 147.818034,
          "velocity": 0.8188976377952756
        },
        {
          "duration": 0.1136362500000132,
          "durationTicks": 100,
          "midi": 35,
          "name": "B1",
          "ticks": 130320,
          "time": 148.090761,
          "velocity": 0.4645669291338583
        },
        {
          "duration": 0.1136362500000132,
          "durationTicks": 100,
          "midi": 46,
          "name": "A#2",
          "ticks": 130320,
          "time": 148.090761,
          "velocity": 0.5433070866141733
        },
        {
          "duration": 0.11363624999998478,
          "durationTicks": 100,
          "midi": 35,
          "name": "B1",
          "ticks": 130560,
          "time": 148.363488,
          "velocity": 0.6299212598425197
        },
        {
          "duration": 0.11363624999998478,
          "durationTicks": 100,
          "midi": 42,
          "name": "F#2",
          "ticks": 130560,
          "time": 148.363488,
          "velocity": 0.6456692913385826
        },
        {
          "duration": 0.11363624999998478,
          "durationTicks": 100,
          "midi": 42,
          "name": "F#2",
          "ticks": 130800,
          "time": 148.636215,
          "velocity": 0.4881889763779528
        },
        {
          "duration": 0.11363624999998478,
          "durationTicks": 100,
          "midi": 38,
          "name": "D2",
          "ticks": 131040,
          "time": 148.908942,
          "velocity": 0.6299212598425197
        },
        {
          "duration": 0.11363624999998478,
          "durationTicks": 100,
          "midi": 42,
          "name": "F#2",
          "ticks": 131040,
          "time": 148.908942,
          "velocity": 0.84251968503937
        },
        {
          "duration": 0.11363624999998478,
          "durationTicks": 100,
          "midi": 35,
          "name": "B1",
          "ticks": 131280,
          "time": 149.181669,
          "velocity": 0.5669291338582677
        },
        {
          "duration": 0.11363624999998478,
          "durationTicks": 100,
          "midi": 42,
          "name": "F#2",
          "ticks": 131280,
          "time": 149.181669,
          "velocity": 0.8661417322834646
        },
        {
          "duration": 0.11363624999998478,
          "durationTicks": 100,
          "midi": 35,
          "name": "B1",
          "ticks": 131520,
          "time": 149.454396,
          "velocity": 0.7244094488188977
        },
        {
          "duration": 0.11363624999998478,
          "durationTicks": 100,
          "midi": 42,
          "name": "F#2",
          "ticks": 131520,
          "time": 149.454396,
          "velocity": 0.6456692913385826
        },
        {
          "duration": 0.11363624999998478,
          "durationTicks": 100,
          "midi": 42,
          "name": "F#2",
          "ticks": 131760,
          "time": 149.727123,
          "velocity": 0.4881889763779528
        },
        {
          "duration": 0.11363624999998478,
          "durationTicks": 100,
          "midi": 38,
          "name": "D2",
          "ticks": 132000,
          "time": 149.99985,
          "velocity": 0.6299212598425197
        },
        {
          "duration": 0.11363624999998478,
          "durationTicks": 100,
          "midi": 42,
          "name": "F#2",
          "ticks": 132000,
          "time": 149.99985,
          "velocity": 0.7244094488188977
        },
        {
          "duration": 0.11363624999998478,
          "durationTicks": 100,
          "midi": 42,
          "name": "F#2",
          "ticks": 132240,
          "time": 150.272577,
          "velocity": 0.4881889763779528
        },
        {
          "duration": 0.1136362500000132,
          "durationTicks": 100,
          "midi": 35,
          "name": "B1",
          "ticks": 132480,
          "time": 150.545304,
          "velocity": 0.7007874015748031
        },
        {
          "duration": 0.1136362500000132,
          "durationTicks": 100,
          "midi": 42,
          "name": "F#2",
          "ticks": 132480,
          "time": 150.545304,
          "velocity": 0.7007874015748031
        },
        {
          "duration": 0.11363624999998478,
          "durationTicks": 100,
          "midi": 42,
          "name": "F#2",
          "ticks": 132720,
          "time": 150.818031,
          "velocity": 0.5433070866141733
        },
        {
          "duration": 0.11363624999998478,
          "durationTicks": 100,
          "midi": 38,
          "name": "D2",
          "ticks": 132960,
          "time": 151.090758,
          "velocity": 0.7086614173228346
        },
        {
          "duration": 0.11363624999998478,
          "durationTicks": 100,
          "midi": 42,
          "name": "F#2",
          "ticks": 132960,
          "time": 151.090758,
          "velocity": 0.8976377952755905
        },
        {
          "duration": 0.11363624999998478,
          "durationTicks": 100,
          "midi": 35,
          "name": "B1",
          "ticks": 133200,
          "time": 151.363485,
          "velocity": 0.6220472440944882
        },
        {
          "duration": 0.11363624999998478,
          "durationTicks": 100,
          "midi": 42,
          "name": "F#2",
          "ticks": 133200,
          "time": 151.363485,
          "velocity": 0.5433070866141733
        },
        {
          "duration": 0.11363624999998478,
          "durationTicks": 100,
          "midi": 35,
          "name": "B1",
          "ticks": 133440,
          "time": 151.636212,
          "velocity": 0.7795275590551181
        },
        {
          "duration": 0.11363624999998478,
          "durationTicks": 100,
          "midi": 42,
          "name": "F#2",
          "ticks": 133440,
          "time": 151.636212,
          "velocity": 0.7007874015748031
        },
        {
          "duration": 0.11363624999998478,
          "durationTicks": 100,
          "midi": 42,
          "name": "F#2",
          "ticks": 133680,
          "time": 151.908939,
          "velocity": 0.5433070866141733
        },
        {
          "duration": 0.11363624999998478,
          "durationTicks": 100,
          "midi": 48,
          "name": "C3",
          "ticks": 133680,
          "time": 151.908939,
          "velocity": 0.5433070866141733
        },
        {
          "duration": 0.11363624999998478,
          "durationTicks": 100,
          "midi": 48,
          "name": "C3",
          "ticks": 133800,
          "time": 152.0453025,
          "velocity": 0.3858267716535433
        },
        {
          "duration": 0.11363624999998478,
          "durationTicks": 100,
          "midi": 38,
          "name": "D2",
          "ticks": 133920,
          "time": 152.181666,
          "velocity": 0.7086614173228346
        },
        {
          "duration": 0.11363624999998478,
          "durationTicks": 100,
          "midi": 42,
          "name": "F#2",
          "ticks": 133920,
          "time": 152.181666,
          "velocity": 0.7795275590551181
        },
        {
          "duration": 0.11363624999998478,
          "durationTicks": 100,
          "midi": 45,
          "name": "A2",
          "ticks": 133920,
          "time": 152.181666,
          "velocity": 0.5433070866141733
        },
        {
          "duration": 0.11363624999998478,
          "durationTicks": 100,
          "midi": 45,
          "name": "A2",
          "ticks": 134040,
          "time": 152.3180295,
          "velocity": 0.3858267716535433
        },
        {
          "duration": 0.11363624999998478,
          "durationTicks": 100,
          "midi": 35,
          "name": "B1",
          "ticks": 134160,
          "time": 152.454393,
          "velocity": 0.6220472440944882
        },
        {
          "duration": 0.11363624999998478,
          "durationTicks": 100,
          "midi": 42,
          "name": "F#2",
          "ticks": 134160,
          "time": 152.454393,
          "velocity": 0.5433070866141733
        },
        {
          "duration": 0.11363624999998478,
          "durationTicks": 100,
          "midi": 41,
          "name": "F2",
          "ticks": 134160,
          "time": 152.454393,
          "velocity": 0.4645669291338583
        },
        {
          "duration": 0.1136362500000132,
          "durationTicks": 100,
          "midi": 35,
          "name": "B1",
          "ticks": 134400,
          "time": 152.72711999999999,
          "velocity": 0.6299212598425197
        },
        {
          "duration": 0.1136362500000132,
          "durationTicks": 100,
          "midi": 42,
          "name": "F#2",
          "ticks": 134400,
          "time": 152.72711999999999,
          "velocity": 0.6456692913385826
        },
        {
          "duration": 0.1136362500000132,
          "durationTicks": 100,
          "midi": 42,
          "name": "F#2",
          "ticks": 134640,
          "time": 152.999847,
          "velocity": 0.4881889763779528
        },
        {
          "duration": 0.11363624999998478,
          "durationTicks": 100,
          "midi": 38,
          "name": "D2",
          "ticks": 134880,
          "time": 153.272574,
          "velocity": 0.6299212598425197
        },
        {
          "duration": 0.11363624999998478,
          "durationTicks": 100,
          "midi": 42,
          "name": "F#2",
          "ticks": 134880,
          "time": 153.272574,
          "velocity": 0.84251968503937
        },
        {
          "duration": 0.11363624999998478,
          "durationTicks": 100,
          "midi": 35,
          "name": "B1",
          "ticks": 135120,
          "time": 153.545301,
          "velocity": 0.5669291338582677
        },
        {
          "duration": 0.11363624999998478,
          "durationTicks": 100,
          "midi": 42,
          "name": "F#2",
          "ticks": 135120,
          "time": 153.545301,
          "velocity": 0.8661417322834646
        },
        {
          "duration": 0.11363624999998478,
          "durationTicks": 100,
          "midi": 35,
          "name": "B1",
          "ticks": 135360,
          "time": 153.818028,
          "velocity": 0.7244094488188977
        },
        {
          "duration": 0.11363624999998478,
          "durationTicks": 100,
          "midi": 42,
          "name": "F#2",
          "ticks": 135360,
          "time": 153.818028,
          "velocity": 0.6456692913385826
        },
        {
          "duration": 0.11363624999998478,
          "durationTicks": 100,
          "midi": 42,
          "name": "F#2",
          "ticks": 135600,
          "time": 154.090755,
          "velocity": 0.4881889763779528
        },
        {
          "duration": 0.11363624999998478,
          "durationTicks": 100,
          "midi": 38,
          "name": "D2",
          "ticks": 135840,
          "time": 154.363482,
          "velocity": 0.6299212598425197
        },
        {
          "duration": 0.11363624999998478,
          "durationTicks": 100,
          "midi": 42,
          "name": "F#2",
          "ticks": 135840,
          "time": 154.363482,
          "velocity": 0.7244094488188977
        },
        {
          "duration": 0.11363624999998478,
          "durationTicks": 100,
          "midi": 42,
          "name": "F#2",
          "ticks": 136080,
          "time": 154.636209,
          "velocity": 0.4881889763779528
        },
        {
          "duration": 0.11363624999998478,
          "durationTicks": 100,
          "midi": 35,
          "name": "B1",
          "ticks": 136320,
          "time": 154.908936,
          "velocity": 0.6220472440944882
        },
        {
          "duration": 0.11363624999998478,
          "durationTicks": 100,
          "midi": 42,
          "name": "F#2",
          "ticks": 136320,
          "time": 154.908936,
          "velocity": 0.6220472440944882
        },
        {
          "duration": 0.1136362500000132,
          "durationTicks": 100,
          "midi": 42,
          "name": "F#2",
          "ticks": 136560,
          "time": 155.181663,
          "velocity": 0.4645669291338583
        },
        {
          "duration": 0.11363624999998478,
          "durationTicks": 100,
          "midi": 38,
          "name": "D2",
          "ticks": 136800,
          "time": 155.45439,
          "velocity": 0.6299212598425197
        },
        {
          "duration": 0.11363624999998478,
          "durationTicks": 100,
          "midi": 42,
          "name": "F#2",
          "ticks": 136800,
          "time": 155.45439,
          "velocity": 0.8188976377952756
        },
        {
          "duration": 0.11363624999998478,
          "durationTicks": 100,
          "midi": 35,
          "name": "B1",
          "ticks": 137040,
          "time": 155.727117,
          "velocity": 0.5433070866141733
        },
        {
          "duration": 0.11363624999998478,
          "durationTicks": 100,
          "midi": 42,
          "name": "F#2",
          "ticks": 137040,
          "time": 155.727117,
          "velocity": 0.8661417322834646
        },
        {
          "duration": 0.11363624999998478,
          "durationTicks": 100,
          "midi": 35,
          "name": "B1",
          "ticks": 137280,
          "time": 155.999844,
          "velocity": 0.7007874015748031
        },
        {
          "duration": 0.11363624999998478,
          "durationTicks": 100,
          "midi": 42,
          "name": "F#2",
          "ticks": 137280,
          "time": 155.999844,
          "velocity": 0.6220472440944882
        },
        {
          "duration": 0.11363624999998478,
          "durationTicks": 100,
          "midi": 42,
          "name": "F#2",
          "ticks": 137520,
          "time": 156.272571,
          "velocity": 0.4645669291338583
        },
        {
          "duration": 0.11363624999998478,
          "durationTicks": 100,
          "midi": 38,
          "name": "D2",
          "ticks": 137760,
          "time": 156.545298,
          "velocity": 0.6299212598425197
        },
        {
          "duration": 0.11363624999998478,
          "durationTicks": 100,
          "midi": 42,
          "name": "F#2",
          "ticks": 137760,
          "time": 156.545298,
          "velocity": 0.7007874015748031
        },
        {
          "duration": 0.11363624999998478,
          "durationTicks": 100,
          "midi": 54,
          "name": "F#3",
          "ticks": 137760,
          "time": 156.545298,
          "velocity": 0.8188976377952756
        },
        {
          "duration": 0.11363624999998478,
          "durationTicks": 100,
          "midi": 35,
          "name": "B1",
          "ticks": 138000,
          "time": 156.818025,
          "velocity": 0.4645669291338583
        },
        {
          "duration": 0.11363624999998478,
          "durationTicks": 100,
          "midi": 42,
          "name": "F#2",
          "ticks": 138000,
          "time": 156.818025,
          "velocity": 0.4645669291338583
        },
        {
          "duration": 0.11363624999998478,
          "durationTicks": 100,
          "midi": 35,
          "name": "B1",
          "ticks": 138240,
          "time": 157.090752,
          "velocity": 0.6535433070866141
        },
        {
          "duration": 0.11363624999998478,
          "durationTicks": 100,
          "midi": 42,
          "name": "F#2",
          "ticks": 138240,
          "time": 157.090752,
          "velocity": 0.6535433070866141
        },
        {
          "duration": 0.11363624999998478,
          "durationTicks": 100,
          "midi": 42,
          "name": "F#2",
          "ticks": 138480,
          "time": 157.363479,
          "velocity": 0.49606299212598426
        },
        {
          "duration": 0.1136362500000132,
          "durationTicks": 100,
          "midi": 38,
          "name": "D2",
          "ticks": 138720,
          "time": 157.636206,
          "velocity": 0.6299212598425197
        },
        {
          "duration": 0.1136362500000132,
          "durationTicks": 100,
          "midi": 42,
          "name": "F#2",
          "ticks": 138720,
          "time": 157.636206,
          "velocity": 0.8503937007874016
        },
        {
          "duration": 0.11363624999998478,
          "durationTicks": 100,
          "midi": 35,
          "name": "B1",
          "ticks": 138960,
          "time": 157.908933,
          "velocity": 0.5748031496062992
        },
        {
          "duration": 0.11363624999998478,
          "durationTicks": 100,
          "midi": 42,
          "name": "F#2",
          "ticks": 138960,
          "time": 157.908933,
          "velocity": 0.8661417322834646
        },
        {
          "duration": 0.11363624999998478,
          "durationTicks": 100,
          "midi": 35,
          "name": "B1",
          "ticks": 139200,
          "time": 158.18166,
          "velocity": 0.7322834645669292
        },
        {
          "duration": 0.11363624999998478,
          "durationTicks": 100,
          "midi": 42,
          "name": "F#2",
          "ticks": 139200,
          "time": 158.18166,
          "velocity": 0.6535433070866141
        },
        {
          "duration": 0.11363624999998478,
          "durationTicks": 100,
          "midi": 42,
          "name": "F#2",
          "ticks": 139440,
          "time": 158.454387,
          "velocity": 0.49606299212598426
        },
        {
          "duration": 0.11363624999998478,
          "durationTicks": 100,
          "midi": 38,
          "name": "D2",
          "ticks": 139680,
          "time": 158.727114,
          "velocity": 0.6299212598425197
        },
        {
          "duration": 0.11363624999998478,
          "durationTicks": 100,
          "midi": 42,
          "name": "F#2",
          "ticks": 139680,
          "time": 158.727114,
          "velocity": 0.7322834645669292
        },
        {
          "duration": 0.11363624999998478,
          "durationTicks": 100,
          "midi": 42,
          "name": "F#2",
          "ticks": 139920,
          "time": 158.999841,
          "velocity": 0.49606299212598426
        },
        {
          "duration": 0.11363624999998478,
          "durationTicks": 100,
          "midi": 35,
          "name": "B1",
          "ticks": 140160,
          "time": 159.272568,
          "velocity": 0.6692913385826772
        },
        {
          "duration": 0.11363624999998478,
          "durationTicks": 100,
          "midi": 42,
          "name": "F#2",
          "ticks": 140160,
          "time": 159.272568,
          "velocity": 0.7480314960629921
        },
        {
          "duration": 0.11363624999998478,
          "durationTicks": 100,
          "midi": 42,
          "name": "F#2",
          "ticks": 140400,
          "time": 159.545295,
          "velocity": 0.5118110236220472
        },
        {
          "duration": 0.1136362500000132,
          "durationTicks": 100,
          "midi": 38,
          "name": "D2",
          "ticks": 140640,
          "time": 159.81802199999998,
          "velocity": 0.6299212598425197
        },
        {
          "duration": 0.1136362500000132,
          "durationTicks": 100,
          "midi": 42,
          "name": "F#2",
          "ticks": 140640,
          "time": 159.81802199999998,
          "velocity": 0.8661417322834646
        },
        {
          "duration": 0.1136362500000132,
          "durationTicks": 100,
          "midi": 35,
          "name": "B1",
          "ticks": 140880,
          "time": 160.090749,
          "velocity": 0.5905511811023622
        },
        {
          "duration": 0.1136362500000132,
          "durationTicks": 100,
          "midi": 42,
          "name": "F#2",
          "ticks": 140880,
          "time": 160.090749,
          "velocity": 0.5118110236220472
        },
        {
          "duration": 0.11363624999998478,
          "durationTicks": 100,
          "midi": 35,
          "name": "B1",
          "ticks": 141120,
          "time": 160.363476,
          "velocity": 0.7480314960629921
        },
        {
          "duration": 0.11363624999998478,
          "durationTicks": 100,
          "midi": 42,
          "name": "F#2",
          "ticks": 141120,
          "time": 160.363476,
          "velocity": 0.6692913385826772
        },
        {
          "duration": 0.11363624999998478,
          "durationTicks": 100,
          "midi": 42,
          "name": "F#2",
          "ticks": 141360,
          "time": 160.636203,
          "velocity": 0.5118110236220472
        },
        {
          "duration": 0.11363624999998478,
          "durationTicks": 100,
          "midi": 38,
          "name": "D2",
          "ticks": 141600,
          "time": 160.90893,
          "velocity": 0.6299212598425197
        },
        {
          "duration": 0.11363624999998478,
          "durationTicks": 100,
          "midi": 42,
          "name": "F#2",
          "ticks": 141600,
          "time": 160.90893,
          "velocity": 0.7480314960629921
        },
        {
          "duration": 0.11363624999998478,
          "durationTicks": 100,
          "midi": 42,
          "name": "F#2",
          "ticks": 141840,
          "time": 161.181657,
          "velocity": 0.5118110236220472
        }
      ],
      "endOfTrackTicks": 141940
    },
    {
      "channel": 0,
      "controlChanges": {},
      "pitchBends": [],
      "instrument": {
        "family": "piano",
        "number": 0,
        "name": "acoustic grand piano"
      },
      "name": "Love Grows (Where My",
      "notes": [],
      "endOfTrackTicks": 0
    },
    {
      "channel": 0,
      "controlChanges": {},
      "pitchBends": [],
      "instrument": {
        "family": "piano",
        "number": 0,
        "name": "acoustic grand piano"
      },
      "name": "Rosemary Goes)",
      "notes": [],
      "endOfTrackTicks": 0
    },
    {
      "channel": 0,
      "controlChanges": {},
      "pitchBends": [],
      "instrument": {
        "family": "piano",
        "number": 0,
        "name": "acoustic grand piano"
      },
      "name": "Words and Music by:",
      "notes": [],
      "endOfTrackTicks": 0
    },
    {
      "channel": 0,
      "controlChanges": {},
      "pitchBends": [],
      "instrument": {
        "family": "piano",
        "number": 0,
        "name": "acoustic grand piano"
      },
      "name": "Tony Macaulay and",
      "notes": [],
      "endOfTrackTicks": 0
    },
    {
      "channel": 0,
      "controlChanges": {},
      "pitchBends": [],
      "instrument": {
        "family": "piano",
        "number": 0,
        "name": "acoustic grand piano"
      },
      "name": "Barry Mason",
      "notes": [],
      "endOfTrackTicks": 0
    },
    {
      "channel": 0,
      "controlChanges": {},
      "pitchBends": [],
      "instrument": {
        "family": "piano",
        "number": 0,
        "name": "acoustic grand piano"
      },
      "name": "Sequenced by:",
      "notes": [],
      "endOfTrackTicks": 0
    },
    {
      "channel": 0,
      "controlChanges": {},
      "pitchBends": [],
      "instrument": {
        "family": "piano",
        "number": 0,
        "name": "acoustic grand piano"
      },
      "name": "Gary Rogers",
      "notes": [],
      "endOfTrackTicks": 0
    },
    {
      "channel": 0,
      "controlChanges": {},
      "pitchBends": [],
      "instrument": {
        "family": "piano",
        "number": 0,
        "name": "acoustic grand piano"
      },
      "name": "4/2005",
      "notes": [],
      "endOfTrackTicks": 0
    },
    {
      "channel": 0,
      "controlChanges": {},
      "pitchBends": [],
      "instrument": {
        "family": "piano",
        "number": 0,
        "name": "acoustic grand piano"
      },
      "name": "Revised 7/2014",
      "notes": [],
      "endOfTrackTicks": 0
    }
  ]
}
